# generated by tools/make_gecko_mesh.py -- do not hand-edit
v 0.004360 0.001029 0.000000
v 0.004311 0.000750 -0.000962
v 0.004045 0.000434 -0.001876
v 0.003576 0.000095 -0.002696
v 0.002929 -0.000248 -0.003381
v 0.002134 -0.000579 -0.003896
v 0.001232 -0.000880 -0.004216
v 0.000269 -0.001138 -0.004325
v -0.000708 -0.001338 -0.004216
v -0.001650 -0.001472 -0.003896
v -0.002509 -0.001531 -0.003381
v -0.003241 -0.001514 -0.002696
v -0.003812 -0.001421 -0.001876
v -0.004191 -0.001257 -0.000962
v -0.004360 -0.001029 0.000000
v -0.004311 -0.000750 0.000962
v -0.004045 -0.000434 0.001876
v -0.003576 -0.000095 0.002696
v -0.002929 0.000248 0.003381
v -0.002134 0.000579 0.003896
v -0.001232 0.000880 0.004216
v -0.000269 0.001138 0.004325
v 0.000708 0.001338 0.004216
v 0.001650 0.001472 0.003896
v 0.002509 0.001531 0.003381
v 0.003241 0.001514 0.002696
v 0.003812 0.001421 0.001876
v 0.004191 0.001257 0.000962
v 0.004360 0.001029 0.000000
v 0.003612 0.003386 -0.000667
v 0.003564 0.003119 -0.001589
v 0.003310 0.002816 -0.002465
v 0.002861 0.002491 -0.003251
v 0.002240 0.002163 -0.003907
v 0.001478 0.001846 -0.004401
v 0.000614 0.001557 -0.004707
v -0.000309 0.001310 -0.004811
v -0.001245 0.001118 -0.004707
v -0.002148 0.000990 -0.004401
v -0.002971 0.000933 -0.003907
v -0.003673 0.000949 -0.003251
v -0.004220 0.001038 -0.002465
v -0.004583 0.001196 -0.001589
v -0.004745 0.001414 -0.000667
v -0.004698 0.001681 0.000256
v -0.004443 0.001985 0.001132
v -0.003994 0.002309 0.001917
v -0.003373 0.002638 0.002574
v -0.002611 0.002955 0.003067
v -0.001747 0.003244 0.003374
v -0.000824 0.003491 0.003478
v 0.000112 0.003683 0.003374
v 0.001014 0.003811 0.003067
v 0.001837 0.003868 0.002574
v 0.002540 0.003851 0.001917
v 0.003086 0.003762 0.001132
v 0.003450 0.003604 0.000256
v 0.003612 0.003386 -0.000667
v 0.002864 0.005744 -0.001333
v 0.002818 0.005488 -0.002215
v 0.002575 0.005198 -0.003053
v 0.002145 0.004888 -0.003805
v 0.001551 0.004573 -0.004433
v 0.000823 0.004270 -0.004905
v -0.000004 0.003993 -0.005198
v -0.000887 0.003757 -0.005298
v -0.001782 0.003573 -0.005198
v -0.002645 0.003451 -0.004905
v -0.003433 0.003397 -0.004433
v -0.004104 0.003412 -0.003805
v -0.004627 0.003498 -0.003053
v -0.004975 0.003648 -0.002215
v -0.005130 0.003857 -0.001333
v -0.005085 0.004113 -0.000451
v -0.004841 0.004403 0.000387
v -0.004411 0.004713 0.001138
v -0.003818 0.005027 0.001766
v -0.003089 0.005331 0.002238
v -0.002263 0.005607 0.002532
v -0.001379 0.005843 0.002631
v -0.000484 0.006027 0.002532
v 0.000379 0.006149 0.002238
v 0.001166 0.006204 0.001766
v 0.001838 0.006188 0.001138
v 0.002361 0.006103 0.000387
v 0.002709 0.005952 -0.000451
v 0.002864 0.005744 -0.001333
v 0.002115 0.008101 -0.002000
v 0.002072 0.007857 -0.002842
v 0.001840 0.007580 -0.003642
v 0.001430 0.007284 -0.004359
v 0.000863 0.006983 -0.004959
v 0.000167 0.006694 -0.005409
v -0.000622 0.006430 -0.005689
v -0.001465 0.006205 -0.005784
v -0.002320 0.006029 -0.005689
v -0.003143 0.005913 -0.005409
v -0.003895 0.005860 -0.004959
v -0.004536 0.005876 -0.004359
v -0.005035 0.005957 -0.003642
v -0.005367 0.006101 -0.002842
v -0.005515 0.006300 -0.002000
v -0.005471 0.006544 -0.001158
v -0.005239 0.006821 -0.000358
v -0.004829 0.007117 0.000359
v -0.004262 0.007417 0.000959
v -0.003567 0.007707 0.001409
v -0.002778 0.007971 0.001689
v -0.001935 0.008196 0.001784
v -0.001080 0.008371 0.001689
v -0.000256 0.008488 0.001409
v 0.000495 0.008540 0.000959
v 0.001137 0.008525 0.000359
v 0.001636 0.008444 -0.000358
v 0.001967 0.008300 -0.001158
v 0.002115 0.008101 -0.002000
v 0.001367 0.010458 -0.002667
v 0.001326 0.010226 -0.003469
v 0.001104 0.009962 -0.004230
v 0.000714 0.009680 -0.004914
v 0.000174 0.009394 -0.005484
v -0.000488 0.009118 -0.005914
v -0.001240 0.008867 -0.006180
v -0.002042 0.008652 -0.006271
v -0.002857 0.008485 -0.006180
v -0.003641 0.008374 -0.005914
v -0.004357 0.008324 -0.005484
v -0.004967 0.008339 -0.004914
v -0.005443 0.008416 -0.004230
v -0.005759 0.008553 -0.003469
v -0.005900 0.008743 -0.002667
v -0.005858 0.008975 -0.001865
v -0.005637 0.009239 -0.001103
v -0.005247 0.009521 -0.000420
v -0.004707 0.009807 0.000151
v -0.004044 0.010083 0.000580
v -0.003293 0.010334 0.000847
v -0.002490 0.010549 0.000937
v -0.001676 0.010716 0.000847
v -0.000891 0.010827 0.000580
v -0.000176 0.010877 0.000151
v 0.000435 0.010862 -0.000420
v 0.000910 0.010785 -0.001103
v 0.001226 0.010648 -0.001865
v 0.001367 0.010458 -0.002667
v 0.000619 0.012815 -0.003333
v 0.000580 0.012595 -0.004095
v 0.000369 0.012344 -0.004819
v -0.000002 0.012076 -0.005468
v -0.000514 0.011804 -0.006010
v -0.001144 0.011543 -0.006418
v -0.001857 0.011304 -0.006671
v -0.002620 0.011100 -0.006757
v -0.003394 0.010941 -0.006671
v -0.004139 0.010836 -0.006418
v -0.004819 0.010788 -0.006010
v -0.005399 0.010802 -0.005468
v -0.005851 0.010876 -0.004819
v -0.006151 0.011006 -0.004095
v -0.006285 0.011186 -0.003333
v -0.006245 0.011407 -0.002571
v -0.006035 0.011657 -0.001848
v -0.005664 0.011925 -0.001199
v -0.005151 0.012197 -0.000657
v -0.004522 0.012459 -0.000249
v -0.003808 0.012698 0.000005
v -0.003045 0.012901 0.000090
v -0.002272 0.013060 0.000005
v -0.001527 0.013166 -0.000249
v -0.000847 0.013213 -0.000657
v -0.000267 0.013199 -0.001199
v 0.000185 0.013126 -0.001848
v 0.000485 0.012995 -0.002571
v 0.000619 0.012815 -0.003333
v -0.000129 0.015173 -0.004000
v -0.000166 0.014963 -0.004722
v -0.000366 0.014726 -0.005407
v -0.000717 0.014472 -0.006022
v -0.001203 0.014215 -0.006536
v -0.001799 0.013967 -0.006922
v -0.002475 0.013741 -0.007162
v -0.003198 0.013547 -0.007244
v -0.003931 0.013397 -0.007162
v -0.004637 0.013297 -0.006922
v -0.005281 0.013252 -0.006536
v -0.005831 0.013265 -0.006022
v -0.006258 0.013335 -0.005407
v -0.006543 0.013458 -0.004722
v -0.006670 0.013629 -0.004000
v -0.006632 0.013838 -0.003278
v -0.006433 0.014076 -0.002593
v -0.006082 0.014329 -0.001978
v -0.005596 0.014587 -0.001464
v -0.005000 0.014835 -0.001078
v -0.004323 0.015061 -0.000838
v -0.003601 0.015254 -0.000756
v -0.002868 0.015405 -0.000838
v -0.002162 0.015505 -0.001078
v -0.001518 0.015549 -0.001464
v -0.000968 0.015536 -0.001978
v -0.000541 0.015467 -0.002593
v -0.000256 0.015343 -0.003278
v -0.000129 0.015173 -0.004000
vt 0.00000 0.00000
vt 0.03571 0.00000
vt 0.07143 0.00000
vt 0.10714 0.00000
vt 0.14286 0.00000
vt 0.17857 0.00000
vt 0.21429 0.00000
vt 0.25000 0.00000
vt 0.28571 0.00000
vt 0.32143 0.00000
vt 0.35714 0.00000
vt 0.39286 0.00000
vt 0.42857 0.00000
vt 0.46429 0.00000
vt 0.50000 0.00000
vt 0.53571 0.00000
vt 0.57143 0.00000
vt 0.60714 0.00000
vt 0.64286 0.00000
vt 0.67857 0.00000
vt 0.71429 0.00000
vt 0.75000 0.00000
vt 0.78571 0.00000
vt 0.82143 0.00000
vt 0.85714 0.00000
vt 0.89286 0.00000
vt 0.92857 0.00000
vt 0.96429 0.00000
vt 1.00000 0.00000
vt 0.00000 0.08515
vt 0.03571 0.08515
vt 0.07143 0.08515
vt 0.10714 0.08515
vt 0.14286 0.08515
vt 0.17857 0.08515
vt 0.21429 0.08515
vt 0.25000 0.08515
vt 0.28571 0.08515
vt 0.32143 0.08515
vt 0.35714 0.08515
vt 0.39286 0.08515
vt 0.42857 0.08515
vt 0.46429 0.08515
vt 0.50000 0.08515
vt 0.53571 0.08515
vt 0.57143 0.08515
vt 0.60714 0.08515
vt 0.64286 0.08515
vt 0.67857 0.08515
vt 0.71429 0.08515
vt 0.75000 0.08515
vt 0.78571 0.08515
vt 0.82143 0.08515
vt 0.85714 0.08515
vt 0.89286 0.08515
vt 0.92857 0.08515
vt 0.96429 0.08515
vt 1.00000 0.08515
vt 0.00000 0.17031
vt 0.03571 0.17031
vt 0.07143 0.17031
vt 0.10714 0.17031
vt 0.14286 0.17031
vt 0.17857 0.17031
vt 0.21429 0.17031
vt 0.25000 0.17031
vt 0.28571 0.17031
vt 0.32143 0.17031
vt 0.35714 0.17031
vt 0.39286 0.17031
vt 0.42857 0.17031
vt 0.46429 0.17031
vt 0.50000 0.17031
vt 0.53571 0.17031
vt 0.57143 0.17031
vt 0.60714 0.17031
vt 0.64286 0.17031
vt 0.67857 0.17031
vt 0.71429 0.17031
vt 0.75000 0.17031
vt 0.78571 0.17031
vt 0.82143 0.17031
vt 0.85714 0.17031
vt 0.89286 0.17031
vt 0.92857 0.17031
vt 0.96429 0.17031
vt 1.00000 0.17031
vt 0.00000 0.25546
vt 0.03571 0.25546
vt 0.07143 0.25546
vt 0.10714 0.25546
vt 0.14286 0.25546
vt 0.17857 0.25546
vt 0.21429 0.25546
vt 0.25000 0.25546
vt 0.28571 0.25546
vt 0.32143 0.25546
vt 0.35714 0.25546
vt 0.39286 0.25546
vt 0.42857 0.25546
vt 0.46429 0.25546
vt 0.50000 0.25546
vt 0.53571 0.25546
vt 0.57143 0.25546
vt 0.60714 0.25546
vt 0.64286 0.25546
vt 0.67857 0.25546
vt 0.71429 0.25546
vt 0.75000 0.25546
vt 0.78571 0.25546
vt 0.82143 0.25546
vt 0.85714 0.25546
vt 0.89286 0.25546
vt 0.92857 0.25546
vt 0.96429 0.25546
vt 1.00000 0.25546
vt 0.00000 0.34062
vt 0.03571 0.34062
vt 0.07143 0.34062
vt 0.10714 0.34062
vt 0.14286 0.34062
vt 0.17857 0.34062
vt 0.21429 0.34062
vt 0.25000 0.34062
vt 0.28571 0.34062
vt 0.32143 0.34062
vt 0.35714 0.34062
vt 0.39286 0.34062
vt 0.42857 0.34062
vt 0.46429 0.34062
vt 0.50000 0.34062
vt 0.53571 0.34062
vt 0.57143 0.34062
vt 0.60714 0.34062
vt 0.64286 0.34062
vt 0.67857 0.34062
vt 0.71429 0.34062
vt 0.75000 0.34062
vt 0.78571 0.34062
vt 0.82143 0.34062
vt 0.85714 0.34062
vt 0.89286 0.34062
vt 0.92857 0.34062
vt 0.96429 0.34062
vt 1.00000 0.34062
vt 0.00000 0.42577
vt 0.03571 0.42577
vt 0.07143 0.42577
vt 0.10714 0.42577
vt 0.14286 0.42577
vt 0.17857 0.42577
vt 0.21429 0.42577
vt 0.25000 0.42577
vt 0.28571 0.42577
vt 0.32143 0.42577
vt 0.35714 0.42577
vt 0.39286 0.42577
vt 0.42857 0.42577
vt 0.46429 0.42577
vt 0.50000 0.42577
vt 0.53571 0.42577
vt 0.57143 0.42577
vt 0.60714 0.42577
vt 0.64286 0.42577
vt 0.67857 0.42577
vt 0.71429 0.42577
vt 0.75000 0.42577
vt 0.78571 0.42577
vt 0.82143 0.42577
vt 0.85714 0.42577
vt 0.89286 0.42577
vt 0.92857 0.42577
vt 0.96429 0.42577
vt 1.00000 0.42577
vt 0.00000 0.51092
vt 0.03571 0.51092
vt 0.07143 0.51092
vt 0.10714 0.51092
vt 0.14286 0.51092
vt 0.17857 0.51092
vt 0.21429 0.51092
vt 0.25000 0.51092
vt 0.28571 0.51092
vt 0.32143 0.51092
vt 0.35714 0.51092
vt 0.39286 0.51092
vt 0.42857 0.51092
vt 0.46429 0.51092
vt 0.50000 0.51092
vt 0.53571 0.51092
vt 0.57143 0.51092
vt 0.60714 0.51092
vt 0.64286 0.51092
vt 0.67857 0.51092
vt 0.71429 0.51092
vt 0.75000 0.51092
vt 0.78571 0.51092
vt 0.82143 0.51092
vt 0.85714 0.51092
vt 0.89286 0.51092
vt 0.92857 0.51092
vt 0.96429 0.51092
vt 1.00000 0.51092
vn 0.95605 0.28817 -0.05412
vn 0.93709 0.22447 -0.26734
vn 0.87034 0.15294 -0.46810
vn 0.75913 0.07718 -0.64635
vn 0.60904 0.00098 -0.79314
vn 0.42761 -0.07184 -0.90110
vn 0.22392 -0.13762 -0.96484
vn 0.00820 -0.19308 -0.98115
vn -0.20875 -0.23542 -0.94921
vn -0.41604 -0.26252 -0.87063
vn -0.60327 -0.27303 -0.74934
vn -0.76107 -0.26642 -0.59144
vn -0.88151 -0.24302 -0.40482
vn -0.95856 -0.20400 -0.19887
vn -0.98835 -0.15132 0.01611
vn -0.96940 -0.08762 0.22933
vn -0.90264 -0.01610 0.43009
vn -0.79143 0.05967 0.60834
vn -0.64135 0.13587 0.75512
vn -0.45991 0.20868 0.86309
vn -0.25623 0.27447 0.92683
vn -0.04050 0.32992 0.94314
vn 0.17644 0.37226 0.91120
vn 0.38373 0.39937 0.83262
vn 0.57097 0.40988 0.71133
vn 0.72876 0.40327 0.55343
vn 0.84921 0.37986 0.36681
vn 0.92626 0.34085 0.16085
vn 0.95605 0.28817 -0.05412
vn 0.95440 0.29802 -0.01745
vn 0.94373 0.23598 -0.23172
vn 0.88492 0.16554 -0.43534
vn 0.78093 0.09023 -0.61807
vn 0.63696 0.01384 -0.77077
vn 0.46025 -0.05982 -0.88577
vn 0.25965 -0.12705 -0.95731
vn 0.04522 -0.18447 -0.98180
vn -0.17229 -0.22920 -0.95801
vn -0.38197 -0.25901 -0.88714
vn -0.57331 -0.27240 -0.77273
vn -0.73671 -0.26870 -0.62053
vn -0.86398 -0.24809 -0.43817
vn -0.94873 -0.21161 -0.23479
vn -0.98673 -0.16108 -0.02059
vn -0.97605 -0.09904 0.19369
vn -0.91724 -0.02860 0.39730
vn -0.81325 0.04670 0.58004
vn -0.66929 0.12310 0.73273
vn -0.49258 0.19676 0.84773
vn -0.29198 0.26398 0.91927
vn -0.07754 0.32140 0.94376
vn 0.13997 0.36614 0.91997
vn 0.34965 0.39595 0.84910
vn 0.54098 0.40934 0.73469
vn 0.70438 0.40564 0.58249
vn 0.83165 0.38503 0.40013
vn 0.91641 0.34854 0.19675
vn 0.95440 0.29802 -0.01745
vn 0.95440 0.29803 -0.01737
vn 0.94374 0.23600 -0.23165
vn 0.88494 0.16556 -0.43527
vn 0.78097 0.09026 -0.61802
vn 0.63702 0.01386 -0.77072
vn 0.46031 -0.05980 -0.88574
vn 0.25972 -0.12702 -0.95729
vn 0.04529 -0.18445 -0.98180
vn -0.17222 -0.22919 -0.95802
vn -0.38191 -0.25901 -0.88717
vn -0.57325 -0.27240 -0.77277
vn -0.73666 -0.26870 -0.62059
vn -0.86394 -0.24810 -0.43823
vn -0.94871 -0.21162 -0.23486
vn -0.98672 -0.16110 -0.02066
vn -0.97606 -0.09906 0.19362
vn -0.91727 -0.02863 0.39724
vn -0.81329 0.04668 0.57998
vn -0.66934 0.12308 0.73269
vn -0.49264 0.19674 0.84770
vn -0.29204 0.26396 0.91926
vn -0.07762 0.32139 0.94376
vn 0.13990 0.36613 0.91999
vn 0.34958 0.39594 0.84913
vn 0.54093 0.40934 0.73474
vn 0.70434 0.40564 0.58255
vn 0.83162 0.38504 0.40020
vn 0.91639 0.34856 0.19682
vn 0.95440 0.29803 -0.01737
vn 0.95439 0.29805 -0.01730
vn 0.94375 0.23602 -0.23158
vn 0.88497 0.16559 -0.43520
vn 0.78101 0.09029 -0.61796
vn 0.63708 0.01389 -0.77068
vn 0.46038 -0.05977 -0.88571
vn 0.25980 -0.12700 -0.95728
vn 0.04537 -0.18443 -0.98180
vn -0.17214 -0.22918 -0.95804
vn -0.38183 -0.25900 -0.88720
vn -0.57319 -0.27240 -0.77282
vn -0.73661 -0.26871 -0.62065
vn -0.86390 -0.24811 -0.43830
vn -0.94869 -0.21164 -0.23494
vn -0.98672 -0.16112 -0.02074
vn -0.97608 -0.09909 0.19354
vn -0.91730 -0.02865 0.39717
vn -0.81334 0.04665 0.57992
vn -0.66940 0.12305 0.73264
vn -0.49271 0.19671 0.84767
vn -0.29212 0.26394 0.91924
vn -0.07769 0.32137 0.94376
vn 0.13982 0.36612 0.92001
vn 0.34951 0.39594 0.84916
vn 0.54086 0.40934 0.73479
vn 0.70428 0.40565 0.58261
vn 0.83158 0.38505 0.40027
vn 0.91637 0.34857 0.19690
vn 0.95439 0.29805 -0.01730
vn 0.95439 0.29808 -0.01721
vn 0.94376 0.23605 -0.23149
vn 0.88501 0.16562 -0.43512
vn 0.78106 0.09032 -0.61789
vn 0.63714 0.01392 -0.77062
vn 0.46046 -0.05974 -0.88567
vn 0.25988 -0.12698 -0.95726
vn 0.04546 -0.18441 -0.98180
vn -0.17206 -0.22916 -0.95806
vn -0.38175 -0.25899 -0.88724
vn -0.57311 -0.27240 -0.77288
vn -0.73655 -0.26871 -0.62071
vn -0.86386 -0.24812 -0.43838
vn -0.94867 -0.21165 -0.23502
vn -0.98671 -0.16114 -0.02083
vn -0.97609 -0.09911 0.19346
vn -0.91733 -0.02868 0.39709
vn -0.81339 0.04662 0.57985
vn -0.66947 0.12302 0.73259
vn -0.49278 0.19668 0.84763
vn -0.29220 0.26391 0.91922
vn -0.07778 0.32135 0.94376
vn 0.13973 0.36610 0.92002
vn 0.34943 0.39593 0.84920
vn 0.54079 0.40934 0.73484
vn 0.70422 0.40565 0.58268
vn 0.83154 0.38506 0.40035
vn 0.91634 0.34859 0.19698
vn 0.95439 0.29808 -0.01721
vn 0.95438 0.29810 -0.01711
vn 0.94378 0.23608 -0.23140
vn 0.88504 0.16565 -0.43504
vn 0.78112 0.09035 -0.61781
vn 0.63721 0.01395 -0.77056
vn 0.46054 -0.05971 -0.88563
vn 0.25997 -0.12695 -0.95724
vn 0.04555 -0.18439 -0.98180
vn -0.17196 -0.22915 -0.95808
vn -0.38166 -0.25898 -0.88728
vn -0.57304 -0.27240 -0.77294
vn -0.73649 -0.26872 -0.62079
vn -0.86381 -0.24813 -0.43847
vn -0.94864 -0.21167 -0.23511
vn -0.98671 -0.16116 -0.02092
vn -0.97610 -0.09914 0.19337
vn -0.91737 -0.02871 0.39700
vn -0.81344 0.04659 0.57978
vn -0.66954 0.12299 0.73253
vn -0.49287 0.19665 0.84759
vn -0.29230 0.26389 0.91920
vn -0.07788 0.32132 0.94376
vn 0.13964 0.36608 0.92005
vn 0.34934 0.39592 0.84924
vn 0.54071 0.40933 0.73490
vn 0.70416 0.40566 0.58275
vn 0.83149 0.38507 0.40043
vn 0.91631 0.34861 0.19708
vn 0.95438 0.29810 -0.01711
vn 0.95146 0.30723 0.01844
vn 0.94889 0.24690 -0.19657
vn 0.89794 0.17762 -0.40269
vn 0.80115 0.10287 -0.58956
vn 0.66337 0.02639 -0.74782
vn 0.49153 -0.04799 -0.86954
vn 0.29422 -0.11653 -0.94861
vn 0.08135 -0.17579 -0.98106
vn -0.13640 -0.22281 -0.96527
vn -0.34813 -0.25522 -0.90203
vn -0.54321 -0.27141 -0.79452
vn -0.71186 -0.27055 -0.64811
vn -0.84563 -0.25270 -0.47016
vn -0.93780 -0.21875 -0.26959
vn -0.98376 -0.17040 -0.05645
vn -0.98119 -0.11007 0.15857
vn -0.93024 -0.04079 0.36468
vn -0.83345 0.03397 0.55155
vn -0.69568 0.11045 0.70981
vn -0.52383 0.18482 0.83153
vn -0.32652 0.25336 0.91060
vn -0.11365 0.31262 0.94305
vn 0.10410 0.35964 0.92726
vn 0.31583 0.39206 0.86403
vn 0.51091 0.40824 0.75651
vn 0.67956 0.40739 0.61011
vn 0.81333 0.38954 0.43216
vn 0.90550 0.35558 0.23158
vn 0.95146 0.30723 0.01844
f 1/1/1 31/31/31 30/30/30
f 1/1/1 2/2/2 31/31/31
f 2/2/2 32/32/32 31/31/31
f 2/2/2 3/3/3 32/32/32
f 3/3/3 33/33/33 32/32/32
f 3/3/3 4/4/4 33/33/33
f 4/4/4 34/34/34 33/33/33
f 4/4/4 5/5/5 34/34/34
f 5/5/5 35/35/35 34/34/34
f 5/5/5 6/6/6 35/35/35
f 6/6/6 36/36/36 35/35/35
f 6/6/6 7/7/7 36/36/36
f 7/7/7 37/37/37 36/36/36
f 7/7/7 8/8/8 37/37/37
f 8/8/8 38/38/38 37/37/37
f 8/8/8 9/9/9 38/38/38
f 9/9/9 39/39/39 38/38/38
f 9/9/9 10/10/10 39/39/39
f 10/10/10 40/40/40 39/39/39
f 10/10/10 11/11/11 40/40/40
f 11/11/11 41/41/41 40/40/40
f 11/11/11 12/12/12 41/41/41
f 12/12/12 42/42/42 41/41/41
f 12/12/12 13/13/13 42/42/42
f 13/13/13 43/43/43 42/42/42
f 13/13/13 14/14/14 43/43/43
f 14/14/14 44/44/44 43/43/43
f 14/14/14 15/15/15 44/44/44
f 15/15/15 45/45/45 44/44/44
f 15/15/15 16/16/16 45/45/45
f 16/16/16 46/46/46 45/45/45
f 16/16/16 17/17/17 46/46/46
f 17/17/17 47/47/47 46/46/46
f 17/17/17 18/18/18 47/47/47
f 18/18/18 48/48/48 47/47/47
f 18/18/18 19/19/19 48/48/48
f 19/19/19 49/49/49 48/48/48
f 19/19/19 20/20/20 49/49/49
f 20/20/20 50/50/50 49/49/49
f 20/20/20 21/21/21 50/50/50
f 21/21/21 51/51/51 50/50/50
f 21/21/21 22/22/22 51/51/51
f 22/22/22 52/52/52 51/51/51
f 22/22/22 23/23/23 52/52/52
f 23/23/23 53/53/53 52/52/52
f 23/23/23 24/24/24 53/53/53
f 24/24/24 54/54/54 53/53/53
f 24/24/24 25/25/25 54/54/54
f 25/25/25 55/55/55 54/54/54
f 25/25/25 26/26/26 55/55/55
f 26/26/26 56/56/56 55/55/55
f 26/26/26 27/27/27 56/56/56
f 27/27/27 57/57/57 56/56/56
f 27/27/27 28/28/28 57/57/57
f 28/28/28 58/58/58 57/57/57
f 28/28/28 29/29/29 58/58/58
f 30/30/30 60/60/60 59/59/59
f 30/30/30 31/31/31 60/60/60
f 31/31/31 61/61/61 60/60/60
f 31/31/31 32/32/32 61/61/61
f 32/32/32 62/62/62 61/61/61
f 32/32/32 33/33/33 62/62/62
f 33/33/33 63/63/63 62/62/62
f 33/33/33 34/34/34 63/63/63
f 34/34/34 64/64/64 63/63/63
f 34/34/34 35/35/35 64/64/64
f 35/35/35 65/65/65 64/64/64
f 35/35/35 36/36/36 65/65/65
f 36/36/36 66/66/66 65/65/65
f 36/36/36 37/37/37 66/66/66
f 37/37/37 67/67/67 66/66/66
f 37/37/37 38/38/38 67/67/67
f 38/38/38 68/68/68 67/67/67
f 38/38/38 39/39/39 68/68/68
f 39/39/39 69/69/69 68/68/68
f 39/39/39 40/40/40 69/69/69
f 40/40/40 70/70/70 69/69/69
f 40/40/40 41/41/41 70/70/70
f 41/41/41 71/71/71 70/70/70
f 41/41/41 42/42/42 71/71/71
f 42/42/42 72/72/72 71/71/71
f 42/42/42 43/43/43 72/72/72
f 43/43/43 73/73/73 72/72/72
f 43/43/43 44/44/44 73/73/73
f 44/44/44 74/74/74 73/73/73
f 44/44/44 45/45/45 74/74/74
f 45/45/45 75/75/75 74/74/74
f 45/45/45 46/46/46 75/75/75
f 46/46/46 76/76/76 75/75/75
f 46/46/46 47/47/47 76/76/76
f 47/47/47 77/77/77 76/76/76
f 47/47/47 48/48/48 77/77/77
f 48/48/48 78/78/78 77/77/77
f 48/48/48 49/49/49 78/78/78
f 49/49/49 79/79/79 78/78/78
f 49/49/49 50/50/50 79/79/79
f 50/50/50 80/80/80 79/79/79
f 50/50/50 51/51/51 80/80/80
f 51/51/51 81/81/81 80/80/80
f 51/51/51 52/52/52 81/81/81
f 52/52/52 82/82/82 81/81/81
f 52/52/52 53/53/53 82/82/82
f 53/53/53 83/83/83 82/82/82
f 53/53/53 54/54/54 83/83/83
f 54/54/54 84/84/84 83/83/83
f 54/54/54 55/55/55 84/84/84
f 55/55/55 85/85/85 84/84/84
f 55/55/55 56/56/56 85/85/85
f 56/56/56 86/86/86 85/85/85
f 56/56/56 57/57/57 86/86/86
f 57/57/57 87/87/87 86/86/86
f 57/57/57 58/58/58 87/87/87
f 59/59/59 89/89/89 88/88/88
f 59/59/59 60/60/60 89/89/89
f 60/60/60 90/90/90 89/89/89
f 60/60/60 61/61/61 90/90/90
f 61/61/61 91/91/91 90/90/90
f 61/61/61 62/62/62 91/91/91
f 62/62/62 92/92/92 91/91/91
f 62/62/62 63/63/63 92/92/92
f 63/63/63 93/93/93 92/92/92
f 63/63/63 64/64/64 93/93/93
f 64/64/64 94/94/94 93/93/93
f 64/64/64 65/65/65 94/94/94
f 65/65/65 95/95/95 94/94/94
f 65/65/65 66/66/66 95/95/95
f 66/66/66 96/96/96 95/95/95
f 66/66/66 67/67/67 96/96/96
f 67/67/67 97/97/97 96/96/96
f 67/67/67 68/68/68 97/97/97
f 68/68/68 98/98/98 97/97/97
f 68/68/68 69/69/69 98/98/98
f 69/69/69 99/99/99 98/98/98
f 69/69/69 70/70/70 99/99/99
f 70/70/70 100/100/100 99/99/99
f 70/70/70 71/71/71 100/100/100
f 71/71/71 101/101/101 100/100/100
f 71/71/71 72/72/72 101/101/101
f 72/72/72 102/102/102 101/101/101
f 72/72/72 73/73/73 102/102/102
f 73/73/73 103/103/103 102/102/102
f 73/73/73 74/74/74 103/103/103
f 74/74/74 104/104/104 103/103/103
f 74/74/74 75/75/75 104/104/104
f 75/75/75 105/105/105 104/104/104
f 75/75/75 76/76/76 105/105/105
f 76/76/76 106/106/106 105/105/105
f 76/76/76 77/77/77 106/106/106
f 77/77/77 107/107/107 106/106/106
f 77/77/77 78/78/78 107/107/107
f 78/78/78 108/108/108 107/107/107
f 78/78/78 79/79/79 108/108/108
f 79/79/79 109/109/109 108/108/108
f 79/79/79 80/80/80 109/109/109
f 80/80/80 110/110/110 109/109/109
f 80/80/80 81/81/81 110/110/110
f 81/81/81 111/111/111 110/110/110
f 81/81/81 82/82/82 111/111/111
f 82/82/82 112/112/112 111/111/111
f 82/82/82 83/83/83 112/112/112
f 83/83/83 113/113/113 112/112/112
f 83/83/83 84/84/84 113/113/113
f 84/84/84 114/114/114 113/113/113
f 84/84/84 85/85/85 114/114/114
f 85/85/85 115/115/115 114/114/114
f 85/85/85 86/86/86 115/115/115
f 86/86/86 116/116/116 115/115/115
f 86/86/86 87/87/87 116/116/116
f 88/88/88 118/118/118 117/117/117
f 88/88/88 89/89/89 118/118/118
f 89/89/89 119/119/119 118/118/118
f 89/89/89 90/90/90 119/119/119
f 90/90/90 120/120/120 119/119/119
f 90/90/90 91/91/91 120/120/120
f 91/91/91 121/121/121 120/120/120
f 91/91/91 92/92/92 121/121/121
f 92/92/92 122/122/122 121/121/121
f 92/92/92 93/93/93 122/122/122
f 93/93/93 123/123/123 122/122/122
f 93/93/93 94/94/94 123/123/123
f 94/94/94 124/124/124 123/123/123
f 94/94/94 95/95/95 124/124/124
f 95/95/95 125/125/125 124/124/124
f 95/95/95 96/96/96 125/125/125
f 96/96/96 126/126/126 125/125/125
f 96/96/96 97/97/97 126/126/126
f 97/97/97 127/127/127 126/126/126
f 97/97/97 98/98/98 127/127/127
f 98/98/98 128/128/128 127/127/127
f 98/98/98 99/99/99 128/128/128
f 99/99/99 129/129/129 128/128/128
f 99/99/99 100/100/100 129/129/129
f 100/100/100 130/130/130 129/129/129
f 100/100/100 101/101/101 130/130/130
f 101/101/101 131/131/131 130/130/130
f 101/101/101 102/102/102 131/131/131
f 102/102/102 132/132/132 131/131/131
f 102/102/102 103/103/103 132/132/132
f 103/103/103 133/133/133 132/132/132
f 103/103/103 104/104/104 133/133/133
f 104/104/104 134/134/134 133/133/133
f 104/104/104 105/105/105 134/134/134
f 105/105/105 135/135/135 134/134/134
f 105/105/105 106/106/106 135/135/135
f 106/106/106 136/136/136 135/135/135
f 106/106/106 107/107/107 136/136/136
f 107/107/107 137/137/137 136/136/136
f 107/107/107 108/108/108 137/137/137
f 108/108/108 138/138/138 137/137/137
f 108/108/108 109/109/109 138/138/138
f 109/109/109 139/139/139 138/138/138
f 109/109/109 110/110/110 139/139/139
f 110/110/110 140/140/140 139/139/139
f 110/110/110 111/111/111 140/140/140
f 111/111/111 141/141/141 140/140/140
f 111/111/111 112/112/112 141/141/141
f 112/112/112 142/142/142 141/141/141
f 112/112/112 113/113/113 142/142/142
f 113/113/113 143/143/143 142/142/142
f 113/113/113 114/114/114 143/143/143
f 114/114/114 144/144/144 143/143/143
f 114/114/114 115/115/115 144/144/144
f 115/115/115 145/145/145 144/144/144
f 115/115/115 116/116/116 145/145/145
f 117/117/117 147/147/147 146/146/146
f 117/117/117 118/118/118 147/147/147
f 118/118/118 148/148/148 147/147/147
f 118/118/118 119/119/119 148/148/148
f 119/119/119 149/149/149 148/148/148
f 119/119/119 120/120/120 149/149/149
f 120/120/120 150/150/150 149/149/149
f 120/120/120 121/121/121 150/150/150
f 121/121/121 151/151/151 150/150/150
f 121/121/121 122/122/122 151/151/151
f 122/122/122 152/152/152 151/151/151
f 122/122/122 123/123/123 152/152/152
f 123/123/123 153/153/153 152/152/152
f 123/123/123 124/124/124 153/153/153
f 124/124/124 154/154/154 153/153/153
f 124/124/124 125/125/125 154/154/154
f 125/125/125 155/155/155 154/154/154
f 125/125/125 126/126/126 155/155/155
f 126/126/126 156/156/156 155/155/155
f 126/126/126 127/127/127 156/156/156
f 127/127/127 157/157/157 156/156/156
f 127/127/127 128/128/128 157/157/157
f 128/128/128 158/158/158 157/157/157
f 128/128/128 129/129/129 158/158/158
f 129/129/129 159/159/159 158/158/158
f 129/129/129 130/130/130 159/159/159
f 130/130/130 160/160/160 159/159/159
f 130/130/130 131/131/131 160/160/160
f 131/131/131 161/161/161 160/160/160
f 131/131/131 132/132/132 161/161/161
f 132/132/132 162/162/162 161/161/161
f 132/132/132 133/133/133 162/162/162
f 133/133/133 163/163/163 162/162/162
f 133/133/133 134/134/134 163/163/163
f 134/134/134 164/164/164 163/163/163
f 134/134/134 135/135/135 164/164/164
f 135/135/135 165/165/165 164/164/164
f 135/135/135 136/136/136 165/165/165
f 136/136/136 166/166/166 165/165/165
f 136/136/136 137/137/137 166/166/166
f 137/137/137 167/167/167 166/166/166
f 137/137/137 138/138/138 167/167/167
f 138/138/138 168/168/168 167/167/167
f 138/138/138 139/139/139 168/168/168
f 139/139/139 169/169/169 168/168/168
f 139/139/139 140/140/140 169/169/169
f 140/140/140 170/170/170 169/169/169
f 140/140/140 141/141/141 170/170/170
f 141/141/141 171/171/171 170/170/170
f 141/141/141 142/142/142 171/171/171
f 142/142/142 172/172/172 171/171/171
f 142/142/142 143/143/143 172/172/172
f 143/143/143 173/173/173 172/172/172
f 143/143/143 144/144/144 173/173/173
f 144/144/144 174/174/174 173/173/173
f 144/144/144 145/145/145 174/174/174
f 146/146/146 176/176/176 175/175/175
f 146/146/146 147/147/147 176/176/176
f 147/147/147 177/177/177 176/176/176
f 147/147/147 148/148/148 177/177/177
f 148/148/148 178/178/178 177/177/177
f 148/148/148 149/149/149 178/178/178
f 149/149/149 179/179/179 178/178/178
f 149/149/149 150/150/150 179/179/179
f 150/150/150 180/180/180 179/179/179
f 150/150/150 151/151/151 180/180/180
f 151/151/151 181/181/181 180/180/180
f 151/151/151 152/152/152 181/181/181
f 152/152/152 182/182/182 181/181/181
f 152/152/152 153/153/153 182/182/182
f 153/153/153 183/183/183 182/182/182
f 153/153/153 154/154/154 183/183/183
f 154/154/154 184/184/184 183/183/183
f 154/154/154 155/155/155 184/184/184
f 155/155/155 185/185/185 184/184/184
f 155/155/155 156/156/156 185/185/185
f 156/156/156 186/186/186 185/185/185
f 156/156/156 157/157/157 186/186/186
f 157/157/157 187/187/187 186/186/186
f 157/157/157 158/158/158 187/187/187
f 158/158/158 188/188/188 187/187/187
f 158/158/158 159/159/159 188/188/188
f 159/159/159 189/189/189 188/188/188
f 159/159/159 160/160/160 189/189/189
f 160/160/160 190/190/190 189/189/189
f 160/160/160 161/161/161 190/190/190
f 161/161/161 191/191/191 190/190/190
f 161/161/161 162/162/162 191/191/191
f 162/162/162 192/192/192 191/191/191
f 162/162/162 163/163/163 192/192/192
f 163/163/163 193/193/193 192/192/192
f 163/163/163 164/164/164 193/193/193
f 164/164/164 194/194/194 193/193/193
f 164/164/164 165/165/165 194/194/194
f 165/165/165 195/195/195 194/194/194
f 165/165/165 166/166/166 195/195/195
f 166/166/166 196/196/196 195/195/195
f 166/166/166 167/167/167 196/196/196
f 167/167/167 197/197/197 196/196/196
f 167/167/167 168/168/168 197/197/197
f 168/168/168 198/198/198 197/197/197
f 168/168/168 169/169/169 198/198/198
f 169/169/169 199/199/199 198/198/198
f 169/169/169 170/170/170 199/199/199
f 170/170/170 200/200/200 199/199/199
f 170/170/170 171/171/171 200/200/200
f 171/171/171 201/201/201 200/200/200
f 171/171/171 172/172/172 201/201/201
f 172/172/172 202/202/202 201/201/201
f 172/172/172 173/173/173 202/202/202
f 173/173/173 203/203/203 202/202/202
f 173/173/173 174/174/174 203/203/203
