# generated by tools/make_gecko_mesh.py -- do not hand-edit
v -0.004007 -0.002004 0.000000
v -0.004088 -0.001591 -0.000911
v -0.003963 -0.001099 -0.001776
v -0.003640 -0.000552 -0.002553
v -0.003134 0.000023 -0.003201
v -0.002472 0.000597 -0.003689
v -0.001685 0.001140 -0.003991
v -0.000814 0.001627 -0.004094
v 0.000099 0.002032 -0.003991
v 0.001006 0.002335 -0.003689
v 0.001862 0.002521 -0.003201
v 0.002626 0.002581 -0.002553
v 0.003257 0.002511 -0.001776
v 0.003726 0.002315 -0.000911
v 0.004007 0.002004 0.000000
v 0.004088 0.001591 0.000911
v 0.003963 0.001099 0.001776
v 0.003640 0.000552 0.002553
v 0.003134 -0.000023 0.003201
v 0.002472 -0.000597 0.003689
v 0.001685 -0.001140 0.003991
v 0.000814 -0.001627 0.004094
v -0.000099 -0.002032 0.003991
v -0.001006 -0.002335 0.003689
v -0.001862 -0.002521 0.003201
v -0.002626 -0.002581 0.002553
v -0.003257 -0.002511 0.001776
v -0.003726 -0.002315 0.000911
v -0.004007 -0.002004 0.000000
v -0.002817 -0.003967 -0.001017
v -0.002894 -0.003571 -0.001890
v -0.002775 -0.003100 -0.002719
v -0.002465 -0.002575 -0.003463
v -0.001981 -0.002025 -0.004084
v -0.001345 -0.001475 -0.004552
v -0.000591 -0.000954 -0.004842
v 0.000244 -0.000487 -0.004940
v 0.001118 -0.000099 -0.004842
v 0.001987 0.000191 -0.004552
v 0.002808 0.000370 -0.004084
v 0.003539 0.000427 -0.003463
v 0.004145 0.000360 -0.002719
v 0.004594 0.000172 -0.001890
v 0.004863 -0.000126 -0.001017
v 0.004941 -0.000522 -0.000144
v 0.004821 -0.000993 0.000686
v 0.004512 -0.001518 0.001430
v 0.004027 -0.002068 0.002051
v 0.003392 -0.002618 0.002518
v 0.002638 -0.003139 0.002808
v 0.001803 -0.003606 0.002907
v 0.000929 -0.003994 0.002808
v 0.000060 -0.004284 0.002518
v -0.000761 -0.004463 0.002051
v -0.001493 -0.004520 0.001430
v -0.002098 -0.004453 0.000686
v -0.002547 -0.004265 -0.000144
v -0.002817 -0.003967 -0.001017
v -0.001627 -0.005930 -0.002033
v -0.001700 -0.005552 -0.002868
v -0.001586 -0.005101 -0.003662
v -0.001290 -0.004599 -0.004373
v -0.000827 -0.004072 -0.004967
v -0.000219 -0.003546 -0.005415
v 0.000502 -0.003048 -0.005692
v 0.001301 -0.002602 -0.005786
v 0.002137 -0.002230 -0.005692
v 0.002968 -0.001952 -0.005415
v 0.003754 -0.001782 -0.004967
v 0.004453 -0.001727 -0.004373
v 0.005032 -0.001791 -0.003662
v 0.005462 -0.001971 -0.002868
v 0.005720 -0.002256 -0.002033
v 0.005793 -0.002634 -0.001198
v 0.005679 -0.003085 -0.000405
v 0.005383 -0.003587 0.000307
v 0.004920 -0.004114 0.000901
v 0.004312 -0.004640 0.001348
v 0.003591 -0.005138 0.001625
v 0.002792 -0.005584 0.001720
v 0.001956 -0.005956 0.001625
v 0.001125 -0.006234 0.001348
v 0.000339 -0.006404 0.000901
v -0.000360 -0.006459 0.000307
v -0.000939 -0.006395 -0.000405
v -0.001369 -0.006215 -0.001198
v -0.001627 -0.005930 -0.002033
v -0.000436 -0.007893 -0.003050
v -0.000507 -0.007532 -0.003847
v -0.000398 -0.007101 -0.004604
v -0.000115 -0.006622 -0.005284
v 0.000327 -0.006119 -0.005851
v 0.000907 -0.005617 -0.006278
v 0.001596 -0.005142 -0.006542
v 0.002358 -0.004716 -0.006632
v 0.003156 -0.004361 -0.006542
v 0.003950 -0.004096 -0.006278
v 0.004699 -0.003933 -0.005851
v 0.005367 -0.003881 -0.005284
v 0.005920 -0.003942 -0.004604
v 0.006330 -0.004114 -0.003847
v 0.006576 -0.004386 -0.003050
v 0.006646 -0.004747 -0.002253
v 0.006538 -0.005178 -0.001496
v 0.006255 -0.005657 -0.000816
v 0.005812 -0.006160 -0.000249
v 0.005232 -0.006662 0.000178
v 0.004544 -0.007137 0.000442
v 0.003782 -0.007563 0.000532
v 0.002984 -0.007918 0.000442
v 0.002190 -0.008183 0.000178
v 0.001440 -0.008346 -0.000249
v 0.000772 -0.008398 -0.000816
v 0.000220 -0.008337 -0.001496
v -0.000190 -0.008165 -0.002253
v -0.000436 -0.007893 -0.003050
v 0.000754 -0.009856 -0.004067
v 0.000687 -0.009512 -0.004826
v 0.000790 -0.009102 -0.005547
v 0.001060 -0.008646 -0.006194
v 0.001481 -0.008167 -0.006734
v 0.002033 -0.007689 -0.007141
v 0.002689 -0.007236 -0.007393
v 0.003415 -0.006830 -0.007478
v 0.004175 -0.006493 -0.007393
v 0.004931 -0.006240 -0.007141
v 0.005645 -0.006085 -0.006734
v 0.006281 -0.006035 -0.006194
v 0.006807 -0.006093 -0.005547
v 0.007198 -0.006257 -0.004826
v 0.007432 -0.006516 -0.004067
v 0.007499 -0.006860 -0.003307
v 0.007396 -0.007270 -0.002586
v 0.007126 -0.007726 -0.001940
v 0.006705 -0.008205 -0.001399
v 0.006153 -0.008683 -0.000993
v 0.005497 -0.009136 -0.000741
v 0.004771 -0.009542 -0.000655
v 0.004011 -0.009879 -0.000741
v 0.003255 -0.010132 -0.000993
v 0.002541 -0.010287 -0.001399
v 0.001905 -0.010337 -0.001940
v 0.001379 -0.010279 -0.002586
v 0.000988 -0.010115 -0.003307
v 0.000754 -0.009856 -0.004067
v 0.001944 -0.011819 -0.005083
v 0.001880 -0.011492 -0.005805
v 0.001979 -0.011103 -0.006490
v 0.002235 -0.010669 -0.007104
v 0.002635 -0.010214 -0.007617
v 0.003160 -0.009760 -0.008003
v 0.003782 -0.009330 -0.008243
v 0.004472 -0.008944 -0.008324
v 0.005194 -0.008624 -0.008243
v 0.005912 -0.008384 -0.008003
v 0.006591 -0.008237 -0.007617
v 0.007195 -0.008189 -0.007104
v 0.007695 -0.008245 -0.006490
v 0.008066 -0.008400 -0.005805
v 0.008289 -0.008646 -0.005083
v 0.008352 -0.008973 -0.004362
v 0.008254 -0.009362 -0.003677
v 0.007998 -0.009796 -0.003063
v 0.007598 -0.010251 -0.002549
v 0.007073 -0.010705 -0.002163
v 0.006450 -0.011135 -0.001923
v 0.005760 -0.011521 -0.001842
v 0.005038 -0.011841 -0.001923
v 0.004320 -0.012081 -0.002163
v 0.003642 -0.012229 -0.002549
v 0.003038 -0.012276 -0.003063
v 0.002538 -0.012220 -0.003677
v 0.002167 -0.012066 -0.004362
v 0.001944 -0.011819 -0.005083
v 0.003134 -0.013782 -0.006100
v 0.003074 -0.013472 -0.006783
v 0.003167 -0.013103 -0.007432
v 0.003409 -0.012693 -0.008014
v 0.003789 -0.012262 -0.008501
v 0.004286 -0.011832 -0.008866
v 0.004876 -0.011424 -0.009094
v 0.005529 -0.011059 -0.009171
v 0.006213 -0.010755 -0.009094
v 0.006894 -0.010528 -0.008866
v 0.007536 -0.010388 -0.008501
v 0.008109 -0.010343 -0.008014
v 0.008582 -0.010396 -0.007432
v 0.008934 -0.010543 -0.006783
v 0.009145 -0.010776 -0.006100
v 0.009205 -0.011086 -0.005417
v 0.009112 -0.011455 -0.004768
v 0.008870 -0.011865 -0.004186
v 0.008490 -0.012296 -0.003699
v 0.007993 -0.012727 -0.003334
v 0.007403 -0.013134 -0.003106
v 0.006750 -0.013499 -0.003029
v 0.006066 -0.013803 -0.003106
v 0.005385 -0.014030 -0.003334
v 0.004743 -0.014170 -0.003699
v 0.004170 -0.014215 -0.004186
v 0.003697 -0.014162 -0.004768
v 0.003345 -0.014016 -0.005417
v 0.003134 -0.013782 -0.006100
vt 0.00000 0.00000
vt 0.03571 0.00000
vt 0.07143 0.00000
vt 0.10714 0.00000
vt 0.14286 0.00000
vt 0.17857 0.00000
vt 0.21429 0.00000
vt 0.25000 0.00000
vt 0.28571 0.00000
vt 0.32143 0.00000
vt 0.35714 0.00000
vt 0.39286 0.00000
vt 0.42857 0.00000
vt 0.46429 0.00000
vt 0.50000 0.00000
vt 0.53571 0.00000
vt 0.57143 0.00000
vt 0.60714 0.00000
vt 0.64286 0.00000
vt 0.67857 0.00000
vt 0.71429 0.00000
vt 0.75000 0.00000
vt 0.78571 0.00000
vt 0.82143 0.00000
vt 0.85714 0.00000
vt 0.89286 0.00000
vt 0.92857 0.00000
vt 0.96429 0.00000
vt 1.00000 0.00000
vt 0.00000 0.08346
vt 0.03571 0.08346
vt 0.07143 0.08346
vt 0.10714 0.08346
vt 0.14286 0.08346
vt 0.17857 0.08346
vt 0.21429 0.08346
vt 0.25000 0.08346
vt 0.28571 0.08346
vt 0.32143 0.08346
vt 0.35714 0.08346
vt 0.39286 0.08346
vt 0.42857 0.08346
vt 0.46429 0.08346
vt 0.50000 0.08346
vt 0.53571 0.08346
vt 0.57143 0.08346
vt 0.60714 0.08346
vt 0.64286 0.08346
vt 0.67857 0.08346
vt 0.71429 0.08346
vt 0.75000 0.08346
vt 0.78571 0.08346
vt 0.82143 0.08346
vt 0.85714 0.08346
vt 0.89286 0.08346
vt 0.92857 0.08346
vt 0.96429 0.08346
vt 1.00000 0.08346
vt 0.00000 0.16692
vt 0.03571 0.16692
vt 0.07143 0.16692
vt 0.10714 0.16692
vt 0.14286 0.16692
vt 0.17857 0.16692
vt 0.21429 0.16692
vt 0.25000 0.16692
vt 0.28571 0.16692
vt 0.32143 0.16692
vt 0.35714 0.16692
vt 0.39286 0.16692
vt 0.42857 0.16692
vt 0.46429 0.16692
vt 0.50000 0.16692
vt 0.53571 0.16692
vt 0.57143 0.16692
vt 0.60714 0.16692
vt 0.64286 0.16692
vt 0.67857 0.16692
vt 0.71429 0.16692
vt 0.75000 0.16692
vt 0.78571 0.16692
vt 0.82143 0.16692
vt 0.85714 0.16692
vt 0.89286 0.16692
vt 0.92857 0.16692
vt 0.96429 0.16692
vt 1.00000 0.16692
vt 0.00000 0.25038
vt 0.03571 0.25038
vt 0.07143 0.25038
vt 0.10714 0.25038
vt 0.14286 0.25038
vt 0.17857 0.25038
vt 0.21429 0.25038
vt 0.25000 0.25038
vt 0.28571 0.25038
vt 0.32143 0.25038
vt 0.35714 0.25038
vt 0.39286 0.25038
vt 0.42857 0.25038
vt 0.46429 0.25038
vt 0.50000 0.25038
vt 0.53571 0.25038
vt 0.57143 0.25038
vt 0.60714 0.25038
vt 0.64286 0.25038
vt 0.67857 0.25038
vt 0.71429 0.25038
vt 0.75000 0.25038
vt 0.78571 0.25038
vt 0.82143 0.25038
vt 0.85714 0.25038
vt 0.89286 0.25038
vt 0.92857 0.25038
vt 0.96429 0.25038
vt 1.00000 0.25038
vt 0.00000 0.33384
vt 0.03571 0.33384
vt 0.07143 0.33384
vt 0.10714 0.33384
vt 0.14286 0.33384
vt 0.17857 0.33384
vt 0.21429 0.33384
vt 0.25000 0.33384
vt 0.28571 0.33384
vt 0.32143 0.33384
vt 0.35714 0.33384
vt 0.39286 0.33384
vt 0.42857 0.33384
vt 0.46429 0.33384
vt 0.50000 0.33384
vt 0.53571 0.33384
vt 0.57143 0.33384
vt 0.60714 0.33384
vt 0.64286 0.33384
vt 0.67857 0.33384
vt 0.71429 0.33384
vt 0.75000 0.33384
vt 0.78571 0.33384
vt 0.82143 0.33384
vt 0.85714 0.33384
vt 0.89286 0.33384
vt 0.92857 0.33384
vt 0.96429 0.33384
vt 1.00000 0.33384
vt 0.00000 0.41729
vt 0.03571 0.41729
vt 0.07143 0.41729
vt 0.10714 0.41729
vt 0.14286 0.41729
vt 0.17857 0.41729
vt 0.21429 0.41729
vt 0.25000 0.41729
vt 0.28571 0.41729
vt 0.32143 0.41729
vt 0.35714 0.41729
vt 0.39286 0.41729
vt 0.42857 0.41729
vt 0.46429 0.41729
vt 0.50000 0.41729
vt 0.53571 0.41729
vt 0.57143 0.41729
vt 0.60714 0.41729
vt 0.64286 0.41729
vt 0.67857 0.41729
vt 0.71429 0.41729
vt 0.75000 0.41729
vt 0.78571 0.41729
vt 0.82143 0.41729
vt 0.85714 0.41729
vt 0.89286 0.41729
vt 0.92857 0.41729
vt 0.96429 0.41729
vt 1.00000 0.41729
vt 0.00000 0.50075
vt 0.03571 0.50075
vt 0.07143 0.50075
vt 0.10714 0.50075
vt 0.14286 0.50075
vt 0.17857 0.50075
vt 0.21429 0.50075
vt 0.25000 0.50075
vt 0.28571 0.50075
vt 0.32143 0.50075
vt 0.35714 0.50075
vt 0.39286 0.50075
vt 0.42857 0.50075
vt 0.46429 0.50075
vt 0.50000 0.50075
vt 0.53571 0.50075
vt 0.57143 0.50075
vt 0.60714 0.50075
vt 0.64286 0.50075
vt 0.67857 0.50075
vt 0.71429 0.50075
vt 0.75000 0.50075
vt 0.78571 0.50075
vt 0.82143 0.50075
vt 0.85714 0.50075
vt 0.89286 0.50075
vt 0.92857 0.50075
vt 0.96429 0.50075
vt 1.00000 0.50075
vn -0.86760 -0.49320 -0.06341
vn -0.87812 -0.39820 -0.26523
vn -0.84308 -0.28627 -0.45526
vn -0.76424 -0.16304 -0.62398
vn -0.64556 -0.03468 -0.76292
vn -0.49299 0.09238 -0.86512
vn -0.31417 0.21176 -0.92545
vn -0.11807 0.31748 -0.94089
vn 0.08547 0.40423 -0.91066
vn 0.28624 0.46767 -0.83627
vn 0.47419 0.50461 -0.72147
vn 0.63987 0.51320 -0.57200
vn 0.77500 0.49301 -0.39537
vn 0.87279 0.44506 -0.20042
vn 0.92833 0.37174 0.00307
vn 0.93885 0.27674 0.20489
vn 0.90381 0.16481 0.39492
vn 0.82497 0.04158 0.56364
vn 0.70629 -0.08678 0.70258
vn 0.55371 -0.21384 0.80478
vn 0.37490 -0.33322 0.86511
vn 0.17880 -0.43894 0.88055
vn -0.02474 -0.52569 0.85032
vn -0.22551 -0.58913 0.77594
vn -0.41346 -0.62607 0.66113
vn -0.57914 -0.63466 0.51166
vn -0.71427 -0.61447 0.33503
vn -0.81206 -0.56652 0.14008
vn -0.86760 -0.49320 -0.06341
vn -0.86127 -0.50734 -0.02870
vn -0.87953 -0.41571 -0.23153
vn -0.85217 -0.30629 -0.42425
vn -0.78055 -0.18455 -0.59722
vn -0.66827 -0.05661 -0.74176
vn -0.52096 0.07113 -0.85061
vn -0.34600 0.19225 -0.91833
vn -0.15216 0.30068 -0.94151
vn 0.05083 0.39099 -0.91899
vn 0.25279 0.45865 -0.85190
vn 0.44360 0.50026 -0.74361
vn 0.61369 0.51373 -0.59955
vn 0.75453 0.49840 -0.42694
vn 0.85906 0.45503 -0.23443
vn 0.92204 0.38580 -0.03168
vn 0.94030 0.29417 0.17115
vn 0.91294 0.18475 0.36388
vn 0.84132 0.06301 0.53684
vn 0.72904 -0.06493 0.68138
vn 0.58173 -0.19267 0.79023
vn 0.40677 -0.31379 0.85795
vn 0.21293 -0.42222 0.88113
vn 0.00994 -0.51253 0.85861
vn -0.19202 -0.58019 0.79153
vn -0.38283 -0.62179 0.68324
vn -0.55292 -0.63527 0.53917
vn -0.69376 -0.61994 0.36656
vn -0.79829 -0.57657 0.17405
vn -0.86127 -0.50734 -0.02870
vn -0.86126 -0.50736 -0.02863
vn -0.87954 -0.41574 -0.23146
vn -0.85219 -0.30632 -0.42419
vn -0.78059 -0.18459 -0.59717
vn -0.66832 -0.05665 -0.74172
vn -0.52101 0.07109 -0.85058
vn -0.34606 0.19221 -0.91831
vn -0.15223 0.30065 -0.94151
vn 0.05076 0.39096 -0.91901
vn 0.25272 0.45863 -0.85193
vn 0.44354 0.50025 -0.74366
vn 0.61364 0.51373 -0.59960
vn 0.75449 0.49841 -0.42700
vn 0.85904 0.45505 -0.23449
vn 0.92203 0.38582 -0.03175
vn 0.94031 0.29420 0.17108
vn 0.91296 0.18478 0.36382
vn 0.84136 0.06305 0.53679
vn 0.72909 -0.06489 0.68134
vn 0.58178 -0.19263 0.79021
vn 0.40683 -0.31375 0.85793
vn 0.21300 -0.42219 0.88113
vn 0.01001 -0.51250 0.85863
vn -0.19195 -0.58017 0.79156
vn -0.38277 -0.62179 0.68328
vn -0.55287 -0.63527 0.53922
vn -0.69372 -0.61995 0.36662
vn -0.79827 -0.57659 0.17411
vn -0.86126 -0.50736 -0.02863
vn -0.86124 -0.50739 -0.02856
vn -0.87954 -0.41578 -0.23139
vn -0.85221 -0.30637 -0.42413
vn -0.78062 -0.18464 -0.59711
vn -0.66836 -0.05669 -0.74167
vn -0.52107 0.07104 -0.85055
vn -0.34613 0.19217 -0.91830
vn -0.15230 0.30061 -0.94151
vn 0.05068 0.39094 -0.91902
vn 0.25265 0.45861 -0.85197
vn 0.44348 0.50024 -0.74370
vn 0.61358 0.51373 -0.59966
vn 0.75445 0.49842 -0.42706
vn 0.85900 0.45507 -0.23457
vn 0.92201 0.38585 -0.03182
vn 0.94031 0.29424 0.17101
vn 0.91298 0.18483 0.36375
vn 0.84139 0.06310 0.53673
vn 0.72913 -0.06484 0.68129
vn 0.58184 -0.19258 0.79017
vn 0.40690 -0.31371 0.85792
vn 0.21307 -0.42215 0.88113
vn 0.01009 -0.51248 0.85864
vn -0.19188 -0.58015 0.79159
vn -0.38271 -0.62178 0.68332
vn -0.55281 -0.63527 0.53928
vn -0.69368 -0.61996 0.36669
vn -0.79823 -0.57661 0.17419
vn -0.86124 -0.50739 -0.02856
vn -0.86122 -0.50743 -0.02848
vn -0.87954 -0.41582 -0.23131
vn -0.85223 -0.30641 -0.42405
vn -0.78066 -0.18469 -0.59705
vn -0.66842 -0.05675 -0.74162
vn -0.52114 0.07099 -0.85052
vn -0.34620 0.19212 -0.91828
vn -0.15238 0.30057 -0.94151
vn 0.05060 0.39090 -0.91904
vn 0.25257 0.45859 -0.85200
vn 0.44340 0.50023 -0.74375
vn 0.61352 0.51373 -0.59972
vn 0.75440 0.49843 -0.42714
vn 0.85897 0.45509 -0.23465
vn 0.92199 0.38589 -0.03190
vn 0.94031 0.29428 0.17093
vn 0.91300 0.18487 0.36367
vn 0.84143 0.06315 0.53667
vn 0.72919 -0.06479 0.68124
vn 0.58191 -0.19253 0.79014
vn 0.40697 -0.31366 0.85790
vn 0.21315 -0.42211 0.88113
vn 0.01017 -0.51244 0.85866
vn -0.19180 -0.58013 0.79162
vn -0.38263 -0.62176 0.68337
vn -0.55275 -0.63527 0.53935
vn -0.69363 -0.61997 0.36676
vn -0.79820 -0.57663 0.17427
vn -0.86122 -0.50743 -0.02848
vn -0.86121 -0.50746 -0.02839
vn -0.87954 -0.41587 -0.23122
vn -0.85225 -0.30646 -0.42397
vn -0.78070 -0.18474 -0.59698
vn -0.66847 -0.05680 -0.74156
vn -0.52121 0.07094 -0.85048
vn -0.34628 0.19207 -0.91826
vn -0.15247 0.30053 -0.94151
vn 0.05051 0.39087 -0.91906
vn 0.25249 0.45856 -0.85204
vn 0.44332 0.50021 -0.74381
vn 0.61345 0.51373 -0.59980
vn 0.75434 0.49845 -0.42722
vn 0.85893 0.45512 -0.23473
vn 0.92198 0.38592 -0.03199
vn 0.94031 0.29433 0.17084
vn 0.91302 0.18492 0.36359
vn 0.84147 0.06320 0.53660
vn 0.72924 -0.06474 0.68118
vn 0.58198 -0.19248 0.79010
vn 0.40705 -0.31361 0.85788
vn 0.21324 -0.42207 0.88113
vn 0.01026 -0.51241 0.85868
vn -0.19172 -0.58010 0.79166
vn -0.38255 -0.62175 0.68343
vn -0.55268 -0.63527 0.53942
vn -0.69357 -0.61999 0.36684
vn -0.79816 -0.57666 0.17435
vn -0.86121 -0.50746 -0.02839
vn -0.85387 -0.52045 0.00528
vn -0.87969 -0.43225 -0.19825
vn -0.85987 -0.32542 -0.39334
vn -0.79542 -0.20532 -0.57023
vn -0.68955 -0.07797 -0.72003
vn -0.54758 0.05025 -0.83524
vn -0.37664 0.17290 -0.91008
vn -0.18528 0.28384 -0.94080
vn 0.01688 0.37750 -0.92586
vn 0.21973 0.44918 -0.86600
vn 0.41308 0.49530 -0.76423
vn 0.58723 0.51354 -0.62565
vn 0.73347 0.50298 -0.45721
vn 0.84444 0.46415 -0.26736
vn 0.91460 0.39900 -0.06561
vn 0.94041 0.31081 0.13791
vn 0.92060 0.20398 0.33301
vn 0.85614 0.08387 0.50989
vn 0.75027 -0.04348 0.65970
vn 0.60831 -0.17170 0.77491
vn 0.43736 -0.29435 0.84975
vn 0.24601 -0.40529 0.88047
vn 0.04384 -0.49895 0.86552
vn -0.15900 -0.57063 0.80567
vn -0.35235 -0.61675 0.70390
vn -0.52651 -0.63499 0.56532
vn -0.67274 -0.62442 0.39688
vn -0.78372 -0.58560 0.20702
vn -0.85387 -0.52045 0.00528
f 1/1/1 31/31/31 30/30/30
f 1/1/1 2/2/2 31/31/31
f 2/2/2 32/32/32 31/31/31
f 2/2/2 3/3/3 32/32/32
f 3/3/3 33/33/33 32/32/32
f 3/3/3 4/4/4 33/33/33
f 4/4/4 34/34/34 33/33/33
f 4/4/4 5/5/5 34/34/34
f 5/5/5 35/35/35 34/34/34
f 5/5/5 6/6/6 35/35/35
f 6/6/6 36/36/36 35/35/35
f 6/6/6 7/7/7 36/36/36
f 7/7/7 37/37/37 36/36/36
f 7/7/7 8/8/8 37/37/37
f 8/8/8 38/38/38 37/37/37
f 8/8/8 9/9/9 38/38/38
f 9/9/9 39/39/39 38/38/38
f 9/9/9 10/10/10 39/39/39
f 10/10/10 40/40/40 39/39/39
f 10/10/10 11/11/11 40/40/40
f 11/11/11 41/41/41 40/40/40
f 11/11/11 12/12/12 41/41/41
f 12/12/12 42/42/42 41/41/41
f 12/12/12 13/13/13 42/42/42
f 13/13/13 43/43/43 42/42/42
f 13/13/13 14/14/14 43/43/43
f 14/14/14 44/44/44 43/43/43
f 14/14/14 15/15/15 44/44/44
f 15/15/15 45/45/45 44/44/44
f 15/15/15 16/16/16 45/45/45
f 16/16/16 46/46/46 45/45/45
f 16/16/16 17/17/17 46/46/46
f 17/17/17 47/47/47 46/46/46
f 17/17/17 18/18/18 47/47/47
f 18/18/18 48/48/48 47/47/47
f 18/18/18 19/19/19 48/48/48
f 19/19/19 49/49/49 48/48/48
f 19/19/19 20/20/20 49/49/49
f 20/20/20 50/50/50 49/49/49
f 20/20/20 21/21/21 50/50/50
f 21/21/21 51/51/51 50/50/50
f 21/21/21 22/22/22 51/51/51
f 22/22/22 52/52/52 51/51/51
f 22/22/22 23/23/23 52/52/52
f 23/23/23 53/53/53 52/52/52
f 23/23/23 24/24/24 53/53/53
f 24/24/24 54/54/54 53/53/53
f 24/24/24 25/25/25 54/54/54
f 25/25/25 55/55/55 54/54/54
f 25/25/25 26/26/26 55/55/55
f 26/26/26 56/56/56 55/55/55
f 26/26/26 27/27/27 56/56/56
f 27/27/27 57/57/57 56/56/56
f 27/27/27 28/28/28 57/57/57
f 28/28/28 58/58/58 57/57/57
f 28/28/28 29/29/29 58/58/58
f 30/30/30 60/60/60 59/59/59
f 30/30/30 31/31/31 60/60/60
f 31/31/31 61/61/61 60/60/60
f 31/31/31 32/32/32 61/61/61
f 32/32/32 62/62/62 61/61/61
f 32/32/32 33/33/33 62/62/62
f 33/33/33 63/63/63 62/62/62
f 33/33/33 34/34/34 63/63/63
f 34/34/34 64/64/64 63/63/63
f 34/34/34 35/35/35 64/64/64
f 35/35/35 65/65/65 64/64/64
f 35/35/35 36/36/36 65/65/65
f 36/36/36 66/66/66 65/65/65
f 36/36/36 37/37/37 66/66/66
f 37/37/37 67/67/67 66/66/66
f 37/37/37 38/38/38 67/67/67
f 38/38/38 68/68/68 67/67/67
f 38/38/38 39/39/39 68/68/68
f 39/39/39 69/69/69 68/68/68
f 39/39/39 40/40/40 69/69/69
f 40/40/40 70/70/70 69/69/69
f 40/40/40 41/41/41 70/70/70
f 41/41/41 71/71/71 70/70/70
f 41/41/41 42/42/42 71/71/71
f 42/42/42 72/72/72 71/71/71
f 42/42/42 43/43/43 72/72/72
f 43/43/43 73/73/73 72/72/72
f 43/43/43 44/44/44 73/73/73
f 44/44/44 74/74/74 73/73/73
f 44/44/44 45/45/45 74/74/74
f 45/45/45 75/75/75 74/74/74
f 45/45/45 46/46/46 75/75/75
f 46/46/46 76/76/76 75/75/75
f 46/46/46 47/47/47 76/76/76
f 47/47/47 77/77/77 76/76/76
f 47/47/47 48/48/48 77/77/77
f 48/48/48 78/78/78 77/77/77
f 48/48/48 49/49/49 78/78/78
f 49/49/49 79/79/79 78/78/78
f 49/49/49 50/50/50 79/79/79
f 50/50/50 80/80/80 79/79/79
f 50/50/50 51/51/51 80/80/80
f 51/51/51 81/81/81 80/80/80
f 51/51/51 52/52/52 81/81/81
f 52/52/52 82/82/82 81/81/81
f 52/52/52 53/53/53 82/82/82
f 53/53/53 83/83/83 82/82/82
f 53/53/53 54/54/54 83/83/83
f 54/54/54 84/84/84 83/83/83
f 54/54/54 55/55/55 84/84/84
f 55/55/55 85/85/85 84/84/84
f 55/55/55 56/56/56 85/85/85
f 56/56/56 86/86/86 85/85/85
f 56/56/56 57/57/57 86/86/86
f 57/57/57 87/87/87 86/86/86
f 57/57/57 58/58/58 87/87/87
f 59/59/59 89/89/89 88/88/88
f 59/59/59 60/60/60 89/89/89
f 60/60/60 90/90/90 89/89/89
f 60/60/60 61/61/61 90/90/90
f 61/61/61 91/91/91 90/90/90
f 61/61/61 62/62/62 91/91/91
f 62/62/62 92/92/92 91/91/91
f 62/62/62 63/63/63 92/92/92
f 63/63/63 93/93/93 92/92/92
f 63/63/63 64/64/64 93/93/93
f 64/64/64 94/94/94 93/93/93
f 64/64/64 65/65/65 94/94/94
f 65/65/65 95/95/95 94/94/94
f 65/65/65 66/66/66 95/95/95
f 66/66/66 96/96/96 95/95/95
f 66/66/66 67/67/67 96/96/96
f 67/67/67 97/97/97 96/96/96
f 67/67/67 68/68/68 97/97/97
f 68/68/68 98/98/98 97/97/97
f 68/68/68 69/69/69 98/98/98
f 69/69/69 99/99/99 98/98/98
f 69/69/69 70/70/70 99/99/99
f 70/70/70 100/100/100 99/99/99
f 70/70/70 71/71/71 100/100/100
f 71/71/71 101/101/101 100/100/100
f 71/71/71 72/72/72 101/101/101
f 72/72/72 102/102/102 101/101/101
f 72/72/72 73/73/73 102/102/102
f 73/73/73 103/103/103 102/102/102
f 73/73/73 74/74/74 103/103/103
f 74/74/74 104/104/104 103/103/103
f 74/74/74 75/75/75 104/104/104
f 75/75/75 105/105/105 104/104/104
f 75/75/75 76/76/76 105/105/105
f 76/76/76 106/106/106 105/105/105
f 76/76/76 77/77/77 106/106/106
f 77/77/77 107/107/107 106/106/106
f 77/77/77 78/78/78 107/107/107
f 78/78/78 108/108/108 107/107/107
f 78/78/78 79/79/79 108/108/108
f 79/79/79 109/109/109 108/108/108
f 79/79/79 80/80/80 109/109/109
f 80/80/80 110/110/110 109/109/109
f 80/80/80 81/81/81 110/110/110
f 81/81/81 111/111/111 110/110/110
f 81/81/81 82/82/82 111/111/111
f 82/82/82 112/112/112 111/111/111
f 82/82/82 83/83/83 112/112/112
f 83/83/83 113/113/113 112/112/112
f 83/83/83 84/84/84 113/113/113
f 84/84/84 114/114/114 113/113/113
f 84/84/84 85/85/85 114/114/114
f 85/85/85 115/115/115 114/114/114
f 85/85/85 86/86/86 115/115/115
f 86/86/86 116/116/116 115/115/115
f 86/86/86 87/87/87 116/116/116
f 88/88/88 118/118/118 117/117/117
f 88/88/88 89/89/89 118/118/118
f 89/89/89 119/119/119 118/118/118
f 89/89/89 90/90/90 119/119/119
f 90/90/90 120/120/120 119/119/119
f 90/90/90 91/91/91 120/120/120
f 91/91/91 121/121/121 120/120/120
f 91/91/91 92/92/92 121/121/121
f 92/92/92 122/122/122 121/121/121
f 92/92/92 93/93/93 122/122/122
f 93/93/93 123/123/123 122/122/122
f 93/93/93 94/94/94 123/123/123
f 94/94/94 124/124/124 123/123/123
f 94/94/94 95/95/95 124/124/124
f 95/95/95 125/125/125 124/124/124
f 95/95/95 96/96/96 125/125/125
f 96/96/96 126/126/126 125/125/125
f 96/96/96 97/97/97 126/126/126
f 97/97/97 127/127/127 126/126/126
f 97/97/97 98/98/98 127/127/127
f 98/98/98 128/128/128 127/127/127
f 98/98/98 99/99/99 128/128/128
f 99/99/99 129/129/129 128/128/128
f 99/99/99 100/100/100 129/129/129
f 100/100/100 130/130/130 129/129/129
f 100/100/100 101/101/101 130/130/130
f 101/101/101 131/131/131 130/130/130
f 101/101/101 102/102/102 131/131/131
f 102/102/102 132/132/132 131/131/131
f 102/102/102 103/103/103 132/132/132
f 103/103/103 133/133/133 132/132/132
f 103/103/103 104/104/104 133/133/133
f 104/104/104 134/134/134 133/133/133
f 104/104/104 105/105/105 134/134/134
f 105/105/105 135/135/135 134/134/134
f 105/105/105 106/106/106 135/135/135
f 106/106/106 136/136/136 135/135/135
f 106/106/106 107/107/107 136/136/136
f 107/107/107 137/137/137 136/136/136
f 107/107/107 108/108/108 137/137/137
f 108/108/108 138/138/138 137/137/137
f 108/108/108 109/109/109 138/138/138
f 109/109/109 139/139/139 138/138/138
f 109/109/109 110/110/110 139/139/139
f 110/110/110 140/140/140 139/139/139
f 110/110/110 111/111/111 140/140/140
f 111/111/111 141/141/141 140/140/140
f 111/111/111 112/112/112 141/141/141
f 112/112/112 142/142/142 141/141/141
f 112/112/112 113/113/113 142/142/142
f 113/113/113 143/143/143 142/142/142
f 113/113/113 114/114/114 143/143/143
f 114/114/114 144/144/144 143/143/143
f 114/114/114 115/115/115 144/144/144
f 115/115/115 145/145/145 144/144/144
f 115/115/115 116/116/116 145/145/145
f 117/117/117 147/147/147 146/146/146
f 117/117/117 118/118/118 147/147/147
f 118/118/118 148/148/148 147/147/147
f 118/118/118 119/119/119 148/148/148
f 119/119/119 149/149/149 148/148/148
f 119/119/119 120/120/120 149/149/149
f 120/120/120 150/150/150 149/149/149
f 120/120/120 121/121/121 150/150/150
f 121/121/121 151/151/151 150/150/150
f 121/121/121 122/122/122 151/151/151
f 122/122/122 152/152/152 151/151/151
f 122/122/122 123/123/123 152/152/152
f 123/123/123 153/153/153 152/152/152
f 123/123/123 124/124/124 153/153/153
f 124/124/124 154/154/154 153/153/153
f 124/124/124 125/125/125 154/154/154
f 125/125/125 155/155/155 154/154/154
f 125/125/125 126/126/126 155/155/155
f 126/126/126 156/156/156 155/155/155
f 126/126/126 127/127/127 156/156/156
f 127/127/127 157/157/157 156/156/156
f 127/127/127 128/128/128 157/157/157
f 128/128/128 158/158/158 157/157/157
f 128/128/128 129/129/129 158/158/158
f 129/129/129 159/159/159 158/158/158
f 129/129/129 130/130/130 159/159/159
f 130/130/130 160/160/160 159/159/159
f 130/130/130 131/131/131 160/160/160
f 131/131/131 161/161/161 160/160/160
f 131/131/131 132/132/132 161/161/161
f 132/132/132 162/162/162 161/161/161
f 132/132/132 133/133/133 162/162/162
f 133/133/133 163/163/163 162/162/162
f 133/133/133 134/134/134 163/163/163
f 134/134/134 164/164/164 163/163/163
f 134/134/134 135/135/135 164/164/164
f 135/135/135 165/165/165 164/164/164
f 135/135/135 136/136/136 165/165/165
f 136/136/136 166/166/166 165/165/165
f 136/136/136 137/137/137 166/166/166
f 137/137/137 167/167/167 166/166/166
f 137/137/137 138/138/138 167/167/167
f 138/138/138 168/168/168 167/167/167
f 138/138/138 139/139/139 168/168/168
f 139/139/139 169/169/169 168/168/168
f 139/139/139 140/140/140 169/169/169
f 140/140/140 170/170/170 169/169/169
f 140/140/140 141/141/141 170/170/170
f 141/141/141 171/171/171 170/170/170
f 141/141/141 142/142/142 171/171/171
f 142/142/142 172/172/172 171/171/171
f 142/142/142 143/143/143 172/172/172
f 143/143/143 173/173/173 172/172/172
f 143/143/143 144/144/144 173/173/173
f 144/144/144 174/174/174 173/173/173
f 144/144/144 145/145/145 174/174/174
f 146/146/146 176/176/176 175/175/175
f 146/146/146 147/147/147 176/176/176
f 147/147/147 177/177/177 176/176/176
f 147/147/147 148/148/148 177/177/177
f 148/148/148 178/178/178 177/177/177
f 148/148/148 149/149/149 178/178/178
f 149/149/149 179/179/179 178/178/178
f 149/149/149 150/150/150 179/179/179
f 150/150/150 180/180/180 179/179/179
f 150/150/150 151/151/151 180/180/180
f 151/151/151 181/181/181 180/180/180
f 151/151/151 152/152/152 181/181/181
f 152/152/152 182/182/182 181/181/181
f 152/152/152 153/153/153 182/182/182
f 153/153/153 183/183/183 182/182/182
f 153/153/153 154/154/154 183/183/183
f 154/154/154 184/184/184 183/183/183
f 154/154/154 155/155/155 184/184/184
f 155/155/155 185/185/185 184/184/184
f 155/155/155 156/156/156 185/185/185
f 156/156/156 186/186/186 185/185/185
f 156/156/156 157/157/157 186/186/186
f 157/157/157 187/187/187 186/186/186
f 157/157/157 158/158/158 187/187/187
f 158/158/158 188/188/188 187/187/187
f 158/158/158 159/159/159 188/188/188
f 159/159/159 189/189/189 188/188/188
f 159/159/159 160/160/160 189/189/189
f 160/160/160 190/190/190 189/189/189
f 160/160/160 161/161/161 190/190/190
f 161/161/161 191/191/191 190/190/190
f 161/161/161 162/162/162 191/191/191
f 162/162/162 192/192/192 191/191/191
f 162/162/162 163/163/163 192/192/192
f 163/163/163 193/193/193 192/192/192
f 163/163/163 164/164/164 193/193/193
f 164/164/164 194/194/194 193/193/193
f 164/164/164 165/165/165 194/194/194
f 165/165/165 195/195/195 194/194/194
f 165/165/165 166/166/166 195/195/195
f 166/166/166 196/196/196 195/195/195
f 166/166/166 167/167/167 196/196/196
f 167/167/167 197/197/197 196/196/196
f 167/167/167 168/168/168 197/197/197
f 168/168/168 198/198/198 197/197/197
f 168/168/168 169/169/169 198/198/198
f 169/169/169 199/199/199 198/198/198
f 169/169/169 170/170/170 199/199/199
f 170/170/170 200/200/200 199/199/199
f 170/170/170 171/171/171 200/200/200
f 171/171/171 201/201/201 200/200/200
f 171/171/171 172/172/172 201/201/201
f 172/172/172 202/202/202 201/201/201
f 172/172/172 173/173/173 202/202/202
f 173/173/173 203/203/203 202/202/202
f 173/173/173 174/174/174 203/203/203
