# generated by tools/make_gecko_mesh.py -- do not hand-edit
v -0.004225 0.001491 0.000000
v -0.004043 0.001668 -0.000971
v -0.003659 0.001761 -0.001893
v -0.003091 0.001765 -0.002720
v -0.002369 0.001682 -0.003411
v -0.001527 0.001513 -0.003930
v -0.000609 0.001269 -0.004253
v 0.000339 0.000962 -0.004362
v 0.001271 0.000606 -0.004253
v 0.002139 0.000220 -0.003930
v 0.002899 -0.000178 -0.003411
v 0.003515 -0.000566 -0.002720
v 0.003954 -0.000926 -0.001893
v 0.004194 -0.001240 -0.000971
v 0.004225 -0.001491 0.000000
v 0.004043 -0.001668 0.000971
v 0.003659 -0.001761 0.001893
v 0.003091 -0.001765 0.002720
v 0.002369 -0.001682 0.003411
v 0.001527 -0.001513 0.003930
v 0.000609 -0.001269 0.004253
v -0.000339 -0.000962 0.004362
v -0.001271 -0.000606 0.004253
v -0.002139 -0.000220 0.003930
v -0.002899 0.000178 0.003411
v -0.003515 0.000566 0.002720
v -0.003954 0.000926 0.001893
v -0.004194 0.001240 0.000971
v -0.004225 0.001491 0.000000
v -0.004689 -0.000386 -0.000450
v -0.004515 -0.000217 -0.001380
v -0.004147 -0.000128 -0.002264
v -0.003603 -0.000123 -0.003057
v -0.002911 -0.000204 -0.003719
v -0.002104 -0.000365 -0.004217
v -0.001224 -0.000598 -0.004526
v -0.000315 -0.000893 -0.004631
v 0.000577 -0.001234 -0.004526
v 0.001409 -0.001605 -0.004217
v 0.002138 -0.001985 -0.003719
v 0.002728 -0.002358 -0.003057
v 0.003148 -0.002703 -0.002264
v 0.003379 -0.003003 -0.001380
v 0.003408 -0.003244 -0.000450
v 0.003234 -0.003413 0.000480
v 0.002866 -0.003502 0.001364
v 0.002322 -0.003507 0.002157
v 0.001629 -0.003427 0.002819
v 0.000823 -0.003265 0.003317
v -0.000057 -0.003032 0.003626
v -0.000966 -0.002737 0.003731
v -0.001859 -0.002396 0.003626
v -0.002690 -0.002025 0.003317
v -0.003419 -0.001645 0.002819
v -0.004009 -0.001273 0.002157
v -0.004429 -0.000928 0.001364
v -0.004660 -0.000627 0.000480
v -0.004689 -0.000386 -0.000450
v -0.005154 -0.002263 -0.000900
v -0.004987 -0.002101 -0.001790
v -0.004635 -0.002016 -0.002635
v -0.004115 -0.002012 -0.003393
v -0.003452 -0.002089 -0.004026
v -0.002681 -0.002243 -0.004503
v -0.001840 -0.002466 -0.004799
v -0.000970 -0.002748 -0.004899
v -0.000116 -0.003075 -0.004799
v 0.000679 -0.003429 -0.004503
v 0.001377 -0.003793 -0.004026
v 0.001940 -0.004149 -0.003393
v 0.002343 -0.004479 -0.002635
v 0.002563 -0.004766 -0.001790
v 0.002591 -0.004997 -0.000900
v 0.002425 -0.005159 -0.000010
v 0.002073 -0.005244 0.000835
v 0.001552 -0.005248 0.001593
v 0.000890 -0.005171 0.002226
v 0.000119 -0.005017 0.002703
v -0.000723 -0.004794 0.002999
v -0.001592 -0.004512 0.003099
v -0.002446 -0.004185 0.002999
v -0.003242 -0.003831 0.002703
v -0.003939 -0.003467 0.002226
v -0.004503 -0.003111 0.001593
v -0.004905 -0.002781 0.000835
v -0.005126 -0.002494 -0.000010
v -0.005154 -0.002263 -0.000900
v -0.005618 -0.004140 -0.001350
v -0.005460 -0.003986 -0.002199
v -0.005123 -0.003904 -0.003006
v -0.004627 -0.003900 -0.003730
v -0.003994 -0.003974 -0.004334
v -0.003258 -0.004121 -0.004789
v -0.002455 -0.004334 -0.005071
v -0.001625 -0.004604 -0.005167
v -0.000810 -0.004915 -0.005071
v -0.000050 -0.005253 -0.004789
v 0.000615 -0.005601 -0.004334
v 0.001153 -0.005940 -0.003730
v 0.001538 -0.006255 -0.003006
v 0.001748 -0.006530 -0.002199
v 0.001775 -0.006750 -0.001350
v 0.001616 -0.006904 -0.000501
v 0.001280 -0.006986 0.000306
v 0.000783 -0.006990 0.001030
v 0.000151 -0.006916 0.001634
v -0.000586 -0.006769 0.002089
v -0.001389 -0.006556 0.002371
v -0.002219 -0.006287 0.002467
v -0.003034 -0.005975 0.002371
v -0.003793 -0.005637 0.002089
v -0.004459 -0.005290 0.001634
v -0.004997 -0.004950 0.001030
v -0.005381 -0.004635 0.000306
v -0.005592 -0.004360 -0.000501
v -0.005618 -0.004140 -0.001350
v -0.006083 -0.006018 -0.001800
v -0.005932 -0.005870 -0.002609
v -0.005612 -0.005793 -0.003377
v -0.005138 -0.005789 -0.004067
v -0.004536 -0.005859 -0.004642
v -0.003835 -0.005999 -0.005075
v -0.003070 -0.006202 -0.005344
v -0.002280 -0.006459 -0.005435
v -0.001503 -0.006755 -0.005344
v -0.000780 -0.007077 -0.005075
v -0.000146 -0.007408 -0.004642
v 0.000366 -0.007732 -0.004067
v 0.000732 -0.008032 -0.003377
v 0.000933 -0.008293 -0.002609
v 0.000958 -0.008503 -0.001800
v 0.000807 -0.008650 -0.000991
v 0.000487 -0.008727 -0.000223
v 0.000014 -0.008731 0.000467
v -0.000589 -0.008661 0.001042
v -0.001290 -0.008521 0.001475
v -0.002055 -0.008318 0.001744
v -0.002845 -0.008062 0.001835
v -0.003622 -0.007765 0.001744
v -0.004345 -0.007443 0.001475
v -0.004979 -0.007112 0.001042
v -0.005491 -0.006788 0.000467
v -0.005857 -0.006488 -0.000223
v -0.006058 -0.006227 -0.000991
v -0.006083 -0.006018 -0.001800
v -0.006547 -0.007895 -0.002250
v -0.006404 -0.007755 -0.003018
v -0.006100 -0.007681 -0.003748
v -0.005650 -0.007678 -0.004403
v -0.005078 -0.007744 -0.004950
v -0.004412 -0.007877 -0.005362
v -0.003685 -0.008070 -0.005617
v -0.002934 -0.008314 -0.005704
v -0.002197 -0.008595 -0.005617
v -0.001510 -0.008901 -0.005362
v -0.000908 -0.009216 -0.004950
v -0.000421 -0.009523 -0.004403
v -0.000073 -0.009808 -0.003748
v 0.000117 -0.010057 -0.003018
v 0.000141 -0.010256 -0.002250
v -0.000002 -0.010395 -0.001482
v -0.000306 -0.010469 -0.000752
v -0.000756 -0.010473 -0.000097
v -0.001328 -0.010406 0.000450
v -0.001994 -0.010273 0.000862
v -0.002721 -0.010080 0.001117
v -0.003472 -0.009837 0.001204
v -0.004209 -0.009555 0.001117
v -0.004896 -0.009249 0.000862
v -0.005498 -0.008934 0.000450
v -0.005985 -0.008627 -0.000097
v -0.006333 -0.008342 -0.000752
v -0.006523 -0.008094 -0.001482
v -0.006547 -0.007895 -0.002250
v -0.007012 -0.009772 -0.002700
v -0.006876 -0.009639 -0.003428
v -0.006588 -0.009570 -0.004120
v -0.006162 -0.009566 -0.004740
v -0.005620 -0.009629 -0.005258
v -0.004989 -0.009755 -0.005648
v -0.004300 -0.009938 -0.005890
v -0.003589 -0.010169 -0.005972
v -0.002890 -0.010436 -0.005890
v -0.002239 -0.010725 -0.005648
v -0.001669 -0.011023 -0.005258
v -0.001208 -0.011315 -0.004740
v -0.000878 -0.011585 -0.004120
v -0.000698 -0.011820 -0.003428
v -0.000675 -0.012008 -0.002700
v -0.000811 -0.012141 -0.001972
v -0.001099 -0.012211 -0.001280
v -0.001525 -0.012214 -0.000660
v -0.002067 -0.012151 -0.000142
v -0.002698 -0.012025 0.000248
v -0.003387 -0.011842 0.000490
v -0.004098 -0.011611 0.000572
v -0.004797 -0.011345 0.000490
v -0.005448 -0.011055 0.000248
v -0.006018 -0.010757 -0.000142
v -0.006480 -0.010466 -0.000660
v -0.006809 -0.010196 -0.001280
v -0.006989 -0.009960 -0.001972
v -0.007012 -0.009772 -0.002700
vt 0.00000 0.00000
vt 0.03571 0.00000
vt 0.07143 0.00000
vt 0.10714 0.00000
vt 0.14286 0.00000
vt 0.17857 0.00000
vt 0.21429 0.00000
vt 0.25000 0.00000
vt 0.28571 0.00000
vt 0.32143 0.00000
vt 0.35714 0.00000
vt 0.39286 0.00000
vt 0.42857 0.00000
vt 0.46429 0.00000
vt 0.50000 0.00000
vt 0.53571 0.00000
vt 0.57143 0.00000
vt 0.60714 0.00000
vt 0.64286 0.00000
vt 0.67857 0.00000
vt 0.71429 0.00000
vt 0.75000 0.00000
vt 0.78571 0.00000
vt 0.82143 0.00000
vt 0.85714 0.00000
vt 0.89286 0.00000
vt 0.92857 0.00000
vt 0.96429 0.00000
vt 1.00000 0.00000
vt 0.00000 0.06589
vt 0.03571 0.06589
vt 0.07143 0.06589
vt 0.10714 0.06589
vt 0.14286 0.06589
vt 0.17857 0.06589
vt 0.21429 0.06589
vt 0.25000 0.06589
vt 0.28571 0.06589
vt 0.32143 0.06589
vt 0.35714 0.06589
vt 0.39286 0.06589
vt 0.42857 0.06589
vt 0.46429 0.06589
vt 0.50000 0.06589
vt 0.53571 0.06589
vt 0.57143 0.06589
vt 0.60714 0.06589
vt 0.64286 0.06589
vt 0.67857 0.06589
vt 0.71429 0.06589
vt 0.75000 0.06589
vt 0.78571 0.06589
vt 0.82143 0.06589
vt 0.85714 0.06589
vt 0.89286 0.06589
vt 0.92857 0.06589
vt 0.96429 0.06589
vt 1.00000 0.06589
vt 0.00000 0.13178
vt 0.03571 0.13178
vt 0.07143 0.13178
vt 0.10714 0.13178
vt 0.14286 0.13178
vt 0.17857 0.13178
vt 0.21429 0.13178
vt 0.25000 0.13178
vt 0.28571 0.13178
vt 0.32143 0.13178
vt 0.35714 0.13178
vt 0.39286 0.13178
vt 0.42857 0.13178
vt 0.46429 0.13178
vt 0.50000 0.13178
vt 0.53571 0.13178
vt 0.57143 0.13178
vt 0.60714 0.13178
vt 0.64286 0.13178
vt 0.67857 0.13178
vt 0.71429 0.13178
vt 0.75000 0.13178
vt 0.78571 0.13178
vt 0.82143 0.13178
vt 0.85714 0.13178
vt 0.89286 0.13178
vt 0.92857 0.13178
vt 0.96429 0.13178
vt 1.00000 0.13178
vt 0.00000 0.19767
vt 0.03571 0.19767
vt 0.07143 0.19767
vt 0.10714 0.19767
vt 0.14286 0.19767
vt 0.17857 0.19767
vt 0.21429 0.19767
vt 0.25000 0.19767
vt 0.28571 0.19767
vt 0.32143 0.19767
vt 0.35714 0.19767
vt 0.39286 0.19767
vt 0.42857 0.19767
vt 0.46429 0.19767
vt 0.50000 0.19767
vt 0.53571 0.19767
vt 0.57143 0.19767
vt 0.60714 0.19767
vt 0.64286 0.19767
vt 0.67857 0.19767
vt 0.71429 0.19767
vt 0.75000 0.19767
vt 0.78571 0.19767
vt 0.82143 0.19767
vt 0.85714 0.19767
vt 0.89286 0.19767
vt 0.92857 0.19767
vt 0.96429 0.19767
vt 1.00000 0.19767
vt 0.00000 0.26355
vt 0.03571 0.26355
vt 0.07143 0.26355
vt 0.10714 0.26355
vt 0.14286 0.26355
vt 0.17857 0.26355
vt 0.21429 0.26355
vt 0.25000 0.26355
vt 0.28571 0.26355
vt 0.32143 0.26355
vt 0.35714 0.26355
vt 0.39286 0.26355
vt 0.42857 0.26355
vt 0.46429 0.26355
vt 0.50000 0.26355
vt 0.53571 0.26355
vt 0.57143 0.26355
vt 0.60714 0.26355
vt 0.64286 0.26355
vt 0.67857 0.26355
vt 0.71429 0.26355
vt 0.75000 0.26355
vt 0.78571 0.26355
vt 0.82143 0.26355
vt 0.85714 0.26355
vt 0.89286 0.26355
vt 0.92857 0.26355
vt 0.96429 0.26355
vt 1.00000 0.26355
vt 0.00000 0.32944
vt 0.03571 0.32944
vt 0.07143 0.32944
vt 0.10714 0.32944
vt 0.14286 0.32944
vt 0.17857 0.32944
vt 0.21429 0.32944
vt 0.25000 0.32944
vt 0.28571 0.32944
vt 0.32143 0.32944
vt 0.35714 0.32944
vt 0.39286 0.32944
vt 0.42857 0.32944
vt 0.46429 0.32944
vt 0.50000 0.32944
vt 0.53571 0.32944
vt 0.57143 0.32944
vt 0.60714 0.32944
vt 0.64286 0.32944
vt 0.67857 0.32944
vt 0.71429 0.32944
vt 0.75000 0.32944
vt 0.78571 0.32944
vt 0.82143 0.32944
vt 0.85714 0.32944
vt 0.89286 0.32944
vt 0.92857 0.32944
vt 0.96429 0.32944
vt 1.00000 0.32944
vt 0.00000 0.39533
vt 0.03571 0.39533
vt 0.07143 0.39533
vt 0.10714 0.39533
vt 0.14286 0.39533
vt 0.17857 0.39533
vt 0.21429 0.39533
vt 0.25000 0.39533
vt 0.28571 0.39533
vt 0.32143 0.39533
vt 0.35714 0.39533
vt 0.39286 0.39533
vt 0.42857 0.39533
vt 0.46429 0.39533
vt 0.50000 0.39533
vt 0.53571 0.39533
vt 0.57143 0.39533
vt 0.60714 0.39533
vt 0.64286 0.39533
vt 0.67857 0.39533
vt 0.71429 0.39533
vt 0.75000 0.39533
vt 0.78571 0.39533
vt 0.82143 0.39533
vt 0.85714 0.39533
vt 0.89286 0.39533
vt 0.92857 0.39533
vt 0.96429 0.39533
vt 1.00000 0.39533
vn -0.96589 0.25265 -0.05675
vn -0.91804 0.28899 -0.27144
vn -0.82569 0.30652 -0.47359
vn -0.69346 0.30434 -0.65307
vn -0.52798 0.28258 -0.80087
vn -0.33755 0.24233 -0.90958
vn -0.13173 0.18559 -0.97376
vn 0.07918 0.11523 -0.99018
vn 0.28459 0.03476 -0.95802
vn 0.47420 -0.05178 -0.87890
vn 0.63850 -0.14005 -0.75677
vn 0.76926 -0.22562 -0.59777
vn 0.85992 -0.30420 -0.40987
vn 0.90593 -0.37186 -0.20249
vn 0.90499 -0.42520 0.01397
vn 0.85715 -0.46154 0.22866
vn 0.76479 -0.47906 0.43081
vn 0.63256 -0.47689 0.61029
vn 0.46708 -0.45513 0.75809
vn 0.27665 -0.41487 0.86680
vn 0.07083 -0.35814 0.93098
vn -0.14008 -0.28777 0.94740
vn -0.34548 -0.20730 0.91524
vn -0.53509 -0.12076 0.83612
vn -0.69940 -0.03250 0.71399
vn -0.83016 0.05308 0.55499
vn -0.92082 0.13166 0.36709
vn -0.96683 0.19932 0.15971
vn -0.96589 0.25265 -0.05675
vn -0.96940 0.24467 -0.01982
vn -0.92942 0.28405 -0.23558
vn -0.84436 0.30486 -0.44060
vn -0.71848 0.30605 -0.62459
vn -0.55811 0.28757 -0.77835
vn -0.37128 0.25033 -0.89414
vn -0.16735 0.19622 -0.96617
vn 0.04343 0.12794 -0.99083
vn 0.25051 0.04891 -0.96688
vn 0.44350 -0.03689 -0.89551
vn 0.61272 -0.12518 -0.78032
vn 0.74970 -0.21152 -0.62707
vn 0.84755 -0.29158 -0.44345
vn 0.90137 -0.36135 -0.23866
vn 0.90847 -0.41733 -0.02299
vn 0.86848 -0.45671 0.19277
vn 0.78342 -0.47751 0.39779
vn 0.65754 -0.47871 0.58179
vn 0.49717 -0.46022 0.73554
vn 0.31034 -0.42299 0.85133
vn 0.10642 -0.36888 0.92337
vn -0.10437 -0.30060 0.94802
vn -0.31145 -0.22157 0.92407
vn -0.50444 -0.13576 0.85271
vn -0.67366 -0.04748 0.73751
vn -0.81063 0.03886 0.58426
vn -0.90848 0.11892 0.40064
vn -0.96231 0.18869 0.19586
vn -0.96940 0.24467 -0.01982
vn -0.96941 0.24465 -0.01975
vn -0.92944 0.28404 -0.23551
vn -0.84439 0.30485 -0.44053
vn -0.71853 0.30605 -0.62454
vn -0.55817 0.28757 -0.77830
vn -0.37134 0.25035 -0.89411
vn -0.16742 0.19624 -0.96616
vn 0.04336 0.12796 -0.99083
vn 0.25044 0.04894 -0.96689
vn 0.44344 -0.03687 -0.89555
vn 0.61267 -0.12515 -0.78036
vn 0.74966 -0.21149 -0.62713
vn 0.84752 -0.29155 -0.44351
vn 0.90136 -0.36133 -0.23873
vn 0.90847 -0.41731 -0.02306
vn 0.86850 -0.45670 0.19270
vn 0.78345 -0.47751 0.39772
vn 0.65759 -0.47871 0.58173
vn 0.49723 -0.46023 0.73549
vn 0.31040 -0.42301 0.85130
vn 0.10649 -0.36890 0.92335
vn -0.10430 -0.30062 0.94802
vn -0.31138 -0.22160 0.92409
vn -0.50438 -0.13579 0.85274
vn -0.67361 -0.04751 0.73756
vn -0.81060 0.03883 0.58432
vn -0.90846 0.11890 0.40071
vn -0.96230 0.18867 0.19593
vn -0.96941 0.24465 -0.01975
vn -0.96942 0.24463 -0.01967
vn -0.92946 0.28403 -0.23543
vn -0.84443 0.30485 -0.44046
vn -0.71858 0.30605 -0.62448
vn -0.55823 0.28759 -0.77825
vn -0.37141 0.25037 -0.89407
vn -0.16750 0.19626 -0.96614
vn 0.04328 0.12799 -0.99083
vn 0.25037 0.04897 -0.96691
vn 0.44337 -0.03683 -0.89558
vn 0.61262 -0.12512 -0.78041
vn 0.74961 -0.21146 -0.62719
vn 0.84749 -0.29153 -0.44358
vn 0.90135 -0.36130 -0.23881
vn 0.90848 -0.41729 -0.02314
vn 0.86852 -0.45669 0.19262
vn 0.78349 -0.47751 0.39765
vn 0.65764 -0.47871 0.58167
vn 0.49729 -0.46024 0.73544
vn 0.31047 -0.42302 0.85127
vn 0.10656 -0.36892 0.92333
vn -0.10422 -0.30065 0.94802
vn -0.31131 -0.22163 0.92410
vn -0.50431 -0.13582 0.85277
vn -0.67356 -0.04754 0.73761
vn -0.81055 0.03880 0.58438
vn -0.90843 0.11887 0.40078
vn -0.96229 0.18865 0.19600
vn -0.96942 0.24463 -0.01967
vn -0.96942 0.24462 -0.01958
vn -0.92949 0.28402 -0.23535
vn -0.84447 0.30484 -0.44038
vn -0.71864 0.30606 -0.62441
vn -0.55830 0.28760 -0.77820
vn -0.37149 0.25038 -0.89404
vn -0.16758 0.19629 -0.96612
vn 0.04320 0.12802 -0.99083
vn 0.25029 0.04900 -0.96693
vn 0.44330 -0.03680 -0.89562
vn 0.61256 -0.12508 -0.78047
vn 0.74957 -0.21143 -0.62725
vn 0.84746 -0.29150 -0.44366
vn 0.90134 -0.36128 -0.23890
vn 0.90848 -0.41727 -0.02322
vn 0.86855 -0.45667 0.19254
vn 0.78353 -0.47750 0.39757
vn 0.65770 -0.47872 0.58160
vn 0.49736 -0.46025 0.73539
vn 0.31055 -0.42304 0.85123
vn 0.10664 -0.36895 0.92331
vn -0.10414 -0.30068 0.94802
vn -0.31123 -0.22166 0.92412
vn -0.50424 -0.13586 0.85281
vn -0.67349 -0.04757 0.73766
vn -0.81050 0.03877 0.58445
vn -0.90840 0.11884 0.40086
vn -0.96227 0.18862 0.19609
vn -0.96942 0.24462 -0.01958
vn -0.96943 0.24459 -0.01949
vn -0.92952 0.28400 -0.23525
vn -0.84452 0.30484 -0.44030
vn -0.71870 0.30606 -0.62433
vn -0.55838 0.28761 -0.77814
vn -0.37158 0.25040 -0.89400
vn -0.16767 0.19632 -0.96610
vn 0.04311 0.12805 -0.99083
vn 0.25020 0.04904 -0.96695
vn 0.44322 -0.03676 -0.89566
vn 0.61249 -0.12505 -0.78053
vn 0.74951 -0.21139 -0.62733
vn 0.84743 -0.29146 -0.44375
vn 0.90132 -0.36125 -0.23899
vn 0.90849 -0.41725 -0.02332
vn 0.86858 -0.45666 0.19245
vn 0.78358 -0.47750 0.39749
vn 0.65777 -0.47872 0.58153
vn 0.49744 -0.46027 0.73533
vn 0.31064 -0.42306 0.85119
vn 0.10674 -0.36897 0.92329
vn -0.10405 -0.30071 0.94802
vn -0.31114 -0.22170 0.92414
vn -0.50416 -0.13590 0.85285
vn -0.67343 -0.04761 0.73772
vn -0.81045 0.03873 0.58452
vn -0.90837 0.11881 0.40094
vn -0.96226 0.18859 0.19618
vn -0.96943 0.24459 -0.01949
vn -0.97149 0.23652 0.01632
vn -0.93925 0.27882 -0.20018
vn -0.86144 0.30281 -0.40772
vn -0.74195 0.30729 -0.59588
vn -0.58679 0.29204 -0.75524
vn -0.40374 0.25782 -0.87780
vn -0.20196 0.20634 -0.95741
vn 0.00842 0.14019 -0.99009
vn 0.21684 0.06269 -0.97419
vn 0.41287 -0.02229 -0.91052
vn 0.58667 -0.11047 -0.80226
vn 0.72952 -0.19744 -0.65484
vn 0.83427 -0.27883 -0.47566
vn 0.89565 -0.35057 -0.27370
vn 0.91060 -0.40905 -0.05909
vn 0.87836 -0.45135 0.15741
vn 0.80054 -0.47534 0.36495
vn 0.68106 -0.47982 0.55311
vn 0.52590 -0.46457 0.71246
vn 0.34284 -0.43034 0.83502
vn 0.14107 -0.37887 0.91464
vn -0.06931 -0.31272 0.94731
vn -0.27774 -0.23521 0.93142
vn -0.47376 -0.15024 0.86774
vn -0.64756 -0.06206 0.75948
vn -0.79041 0.02491 0.61207
vn -0.89516 0.10630 0.43289
vn -0.95654 0.17804 0.23093
vn -0.97149 0.23652 0.01632
f 1/1/1 31/31/31 30/30/30
f 1/1/1 2/2/2 31/31/31
f 2/2/2 32/32/32 31/31/31
f 2/2/2 3/3/3 32/32/32
f 3/3/3 33/33/33 32/32/32
f 3/3/3 4/4/4 33/33/33
f 4/4/4 34/34/34 33/33/33
f 4/4/4 5/5/5 34/34/34
f 5/5/5 35/35/35 34/34/34
f 5/5/5 6/6/6 35/35/35
f 6/6/6 36/36/36 35/35/35
f 6/6/6 7/7/7 36/36/36
f 7/7/7 37/37/37 36/36/36
f 7/7/7 8/8/8 37/37/37
f 8/8/8 38/38/38 37/37/37
f 8/8/8 9/9/9 38/38/38
f 9/9/9 39/39/39 38/38/38
f 9/9/9 10/10/10 39/39/39
f 10/10/10 40/40/40 39/39/39
f 10/10/10 11/11/11 40/40/40
f 11/11/11 41/41/41 40/40/40
f 11/11/11 12/12/12 41/41/41
f 12/12/12 42/42/42 41/41/41
f 12/12/12 13/13/13 42/42/42
f 13/13/13 43/43/43 42/42/42
f 13/13/13 14/14/14 43/43/43
f 14/14/14 44/44/44 43/43/43
f 14/14/14 15/15/15 44/44/44
f 15/15/15 45/45/45 44/44/44
f 15/15/15 16/16/16 45/45/45
f 16/16/16 46/46/46 45/45/45
f 16/16/16 17/17/17 46/46/46
f 17/17/17 47/47/47 46/46/46
f 17/17/17 18/18/18 47/47/47
f 18/18/18 48/48/48 47/47/47
f 18/18/18 19/19/19 48/48/48
f 19/19/19 49/49/49 48/48/48
f 19/19/19 20/20/20 49/49/49
f 20/20/20 50/50/50 49/49/49
f 20/20/20 21/21/21 50/50/50
f 21/21/21 51/51/51 50/50/50
f 21/21/21 22/22/22 51/51/51
f 22/22/22 52/52/52 51/51/51
f 22/22/22 23/23/23 52/52/52
f 23/23/23 53/53/53 52/52/52
f 23/23/23 24/24/24 53/53/53
f 24/24/24 54/54/54 53/53/53
f 24/24/24 25/25/25 54/54/54
f 25/25/25 55/55/55 54/54/54
f 25/25/25 26/26/26 55/55/55
f 26/26/26 56/56/56 55/55/55
f 26/26/26 27/27/27 56/56/56
f 27/27/27 57/57/57 56/56/56
f 27/27/27 28/28/28 57/57/57
f 28/28/28 58/58/58 57/57/57
f 28/28/28 29/29/29 58/58/58
f 30/30/30 60/60/60 59/59/59
f 30/30/30 31/31/31 60/60/60
f 31/31/31 61/61/61 60/60/60
f 31/31/31 32/32/32 61/61/61
f 32/32/32 62/62/62 61/61/61
f 32/32/32 33/33/33 62/62/62
f 33/33/33 63/63/63 62/62/62
f 33/33/33 34/34/34 63/63/63
f 34/34/34 64/64/64 63/63/63
f 34/34/34 35/35/35 64/64/64
f 35/35/35 65/65/65 64/64/64
f 35/35/35 36/36/36 65/65/65
f 36/36/36 66/66/66 65/65/65
f 36/36/36 37/37/37 66/66/66
f 37/37/37 67/67/67 66/66/66
f 37/37/37 38/38/38 67/67/67
f 38/38/38 68/68/68 67/67/67
f 38/38/38 39/39/39 68/68/68
f 39/39/39 69/69/69 68/68/68
f 39/39/39 40/40/40 69/69/69
f 40/40/40 70/70/70 69/69/69
f 40/40/40 41/41/41 70/70/70
f 41/41/41 71/71/71 70/70/70
f 41/41/41 42/42/42 71/71/71
f 42/42/42 72/72/72 71/71/71
f 42/42/42 43/43/43 72/72/72
f 43/43/43 73/73/73 72/72/72
f 43/43/43 44/44/44 73/73/73
f 44/44/44 74/74/74 73/73/73
f 44/44/44 45/45/45 74/74/74
f 45/45/45 75/75/75 74/74/74
f 45/45/45 46/46/46 75/75/75
f 46/46/46 76/76/76 75/75/75
f 46/46/46 47/47/47 76/76/76
f 47/47/47 77/77/77 76/76/76
f 47/47/47 48/48/48 77/77/77
f 48/48/48 78/78/78 77/77/77
f 48/48/48 49/49/49 78/78/78
f 49/49/49 79/79/79 78/78/78
f 49/49/49 50/50/50 79/79/79
f 50/50/50 80/80/80 79/79/79
f 50/50/50 51/51/51 80/80/80
f 51/51/51 81/81/81 80/80/80
f 51/51/51 52/52/52 81/81/81
f 52/52/52 82/82/82 81/81/81
f 52/52/52 53/53/53 82/82/82
f 53/53/53 83/83/83 82/82/82
f 53/53/53 54/54/54 83/83/83
f 54/54/54 84/84/84 83/83/83
f 54/54/54 55/55/55 84/84/84
f 55/55/55 85/85/85 84/84/84
f 55/55/55 56/56/56 85/85/85
f 56/56/56 86/86/86 85/85/85
f 56/56/56 57/57/57 86/86/86
f 57/57/57 87/87/87 86/86/86
f 57/57/57 58/58/58 87/87/87
f 59/59/59 89/89/89 88/88/88
f 59/59/59 60/60/60 89/89/89
f 60/60/60 90/90/90 89/89/89
f 60/60/60 61/61/61 90/90/90
f 61/61/61 91/91/91 90/90/90
f 61/61/61 62/62/62 91/91/91
f 62/62/62 92/92/92 91/91/91
f 62/62/62 63/63/63 92/92/92
f 63/63/63 93/93/93 92/92/92
f 63/63/63 64/64/64 93/93/93
f 64/64/64 94/94/94 93/93/93
f 64/64/64 65/65/65 94/94/94
f 65/65/65 95/95/95 94/94/94
f 65/65/65 66/66/66 95/95/95
f 66/66/66 96/96/96 95/95/95
f 66/66/66 67/67/67 96/96/96
f 67/67/67 97/97/97 96/96/96
f 67/67/67 68/68/68 97/97/97
f 68/68/68 98/98/98 97/97/97
f 68/68/68 69/69/69 98/98/98
f 69/69/69 99/99/99 98/98/98
f 69/69/69 70/70/70 99/99/99
f 70/70/70 100/100/100 99/99/99
f 70/70/70 71/71/71 100/100/100
f 71/71/71 101/101/101 100/100/100
f 71/71/71 72/72/72 101/101/101
f 72/72/72 102/102/102 101/101/101
f 72/72/72 73/73/73 102/102/102
f 73/73/73 103/103/103 102/102/102
f 73/73/73 74/74/74 103/103/103
f 74/74/74 104/104/104 103/103/103
f 74/74/74 75/75/75 104/104/104
f 75/75/75 105/105/105 104/104/104
f 75/75/75 76/76/76 105/105/105
f 76/76/76 106/106/106 105/105/105
f 76/76/76 77/77/77 106/106/106
f 77/77/77 107/107/107 106/106/106
f 77/77/77 78/78/78 107/107/107
f 78/78/78 108/108/108 107/107/107
f 78/78/78 79/79/79 108/108/108
f 79/79/79 109/109/109 108/108/108
f 79/79/79 80/80/80 109/109/109
f 80/80/80 110/110/110 109/109/109
f 80/80/80 81/81/81 110/110/110
f 81/81/81 111/111/111 110/110/110
f 81/81/81 82/82/82 111/111/111
f 82/82/82 112/112/112 111/111/111
f 82/82/82 83/83/83 112/112/112
f 83/83/83 113/113/113 112/112/112
f 83/83/83 84/84/84 113/113/113
f 84/84/84 114/114/114 113/113/113
f 84/84/84 85/85/85 114/114/114
f 85/85/85 115/115/115 114/114/114
f 85/85/85 86/86/86 115/115/115
f 86/86/86 116/116/116 115/115/115
f 86/86/86 87/87/87 116/116/116
f 88/88/88 118/118/118 117/117/117
f 88/88/88 89/89/89 118/118/118
f 89/89/89 119/119/119 118/118/118
f 89/89/89 90/90/90 119/119/119
f 90/90/90 120/120/120 119/119/119
f 90/90/90 91/91/91 120/120/120
f 91/91/91 121/121/121 120/120/120
f 91/91/91 92/92/92 121/121/121
f 92/92/92 122/122/122 121/121/121
f 92/92/92 93/93/93 122/122/122
f 93/93/93 123/123/123 122/122/122
f 93/93/93 94/94/94 123/123/123
f 94/94/94 124/124/124 123/123/123
f 94/94/94 95/95/95 124/124/124
f 95/95/95 125/125/125 124/124/124
f 95/95/95 96/96/96 125/125/125
f 96/96/96 126/126/126 125/125/125
f 96/96/96 97/97/97 126/126/126
f 97/97/97 127/127/127 126/126/126
f 97/97/97 98/98/98 127/127/127
f 98/98/98 128/128/128 127/127/127
f 98/98/98 99/99/99 128/128/128
f 99/99/99 129/129/129 128/128/128
f 99/99/99 100/100/100 129/129/129
f 100/100/100 130/130/130 129/129/129
f 100/100/100 101/101/101 130/130/130
f 101/101/101 131/131/131 130/130/130
f 101/101/101 102/102/102 131/131/131
f 102/102/102 132/132/132 131/131/131
f 102/102/102 103/103/103 132/132/132
f 103/103/103 133/133/133 132/132/132
f 103/103/103 104/104/104 133/133/133
f 104/104/104 134/134/134 133/133/133
f 104/104/104 105/105/105 134/134/134
f 105/105/105 135/135/135 134/134/134
f 105/105/105 106/106/106 135/135/135
f 106/106/106 136/136/136 135/135/135
f 106/106/106 107/107/107 136/136/136
f 107/107/107 137/137/137 136/136/136
f 107/107/107 108/108/108 137/137/137
f 108/108/108 138/138/138 137/137/137
f 108/108/108 109/109/109 138/138/138
f 109/109/109 139/139/139 138/138/138
f 109/109/109 110/110/110 139/139/139
f 110/110/110 140/140/140 139/139/139
f 110/110/110 111/111/111 140/140/140
f 111/111/111 141/141/141 140/140/140
f 111/111/111 112/112/112 141/141/141
f 112/112/112 142/142/142 141/141/141
f 112/112/112 113/113/113 142/142/142
f 113/113/113 143/143/143 142/142/142
f 113/113/113 114/114/114 143/143/143
f 114/114/114 144/144/144 143/143/143
f 114/114/114 115/115/115 144/144/144
f 115/115/115 145/145/145 144/144/144
f 115/115/115 116/116/116 145/145/145
f 117/117/117 147/147/147 146/146/146
f 117/117/117 118/118/118 147/147/147
f 118/118/118 148/148/148 147/147/147
f 118/118/118 119/119/119 148/148/148
f 119/119/119 149/149/149 148/148/148
f 119/119/119 120/120/120 149/149/149
f 120/120/120 150/150/150 149/149/149
f 120/120/120 121/121/121 150/150/150
f 121/121/121 151/151/151 150/150/150
f 121/121/121 122/122/122 151/151/151
f 122/122/122 152/152/152 151/151/151
f 122/122/122 123/123/123 152/152/152
f 123/123/123 153/153/153 152/152/152
f 123/123/123 124/124/124 153/153/153
f 124/124/124 154/154/154 153/153/153
f 124/124/124 125/125/125 154/154/154
f 125/125/125 155/155/155 154/154/154
f 125/125/125 126/126/126 155/155/155
f 126/126/126 156/156/156 155/155/155
f 126/126/126 127/127/127 156/156/156
f 127/127/127 157/157/157 156/156/156
f 127/127/127 128/128/128 157/157/157
f 128/128/128 158/158/158 157/157/157
f 128/128/128 129/129/129 158/158/158
f 129/129/129 159/159/159 158/158/158
f 129/129/129 130/130/130 159/159/159
f 130/130/130 160/160/160 159/159/159
f 130/130/130 131/131/131 160/160/160
f 131/131/131 161/161/161 160/160/160
f 131/131/131 132/132/132 161/161/161
f 132/132/132 162/162/162 161/161/161
f 132/132/132 133/133/133 162/162/162
f 133/133/133 163/163/163 162/162/162
f 133/133/133 134/134/134 163/163/163
f 134/134/134 164/164/164 163/163/163
f 134/134/134 135/135/135 164/164/164
f 135/135/135 165/165/165 164/164/164
f 135/135/135 136/136/136 165/165/165
f 136/136/136 166/166/166 165/165/165
f 136/136/136 137/137/137 166/166/166
f 137/137/137 167/167/167 166/166/166
f 137/137/137 138/138/138 167/167/167
f 138/138/138 168/168/168 167/167/167
f 138/138/138 139/139/139 168/168/168
f 139/139/139 169/169/169 168/168/168
f 139/139/139 140/140/140 169/169/169
f 140/140/140 170/170/170 169/169/169
f 140/140/140 141/141/141 170/170/170
f 141/141/141 171/171/171 170/170/170
f 141/141/141 142/142/142 171/171/171
f 142/142/142 172/172/172 171/171/171
f 142/142/142 143/143/143 172/172/172
f 143/143/143 173/173/173 172/172/172
f 143/143/143 144/144/144 173/173/173
f 144/144/144 174/174/174 173/173/173
f 144/144/144 145/145/145 174/174/174
f 146/146/146 176/176/176 175/175/175
f 146/146/146 147/147/147 176/176/176
f 147/147/147 177/177/177 176/176/176
f 147/147/147 148/148/148 177/177/177
f 148/148/148 178/178/178 177/177/177
f 148/148/148 149/149/149 178/178/178
f 149/149/149 179/179/179 178/178/178
f 149/149/149 150/150/150 179/179/179
f 150/150/150 180/180/180 179/179/179
f 150/150/150 151/151/151 180/180/180
f 151/151/151 181/181/181 180/180/180
f 151/151/151 152/152/152 181/181/181
f 152/152/152 182/182/182 181/181/181
f 152/152/152 153/153/153 182/182/182
f 153/153/153 183/183/183 182/182/182
f 153/153/153 154/154/154 183/183/183
f 154/154/154 184/184/184 183/183/183
f 154/154/154 155/155/155 184/184/184
f 155/155/155 185/185/185 184/184/184
f 155/155/155 156/156/156 185/185/185
f 156/156/156 186/186/186 185/185/185
f 156/156/156 157/157/157 186/186/186
f 157/157/157 187/187/187 186/186/186
f 157/157/157 158/158/158 187/187/187
f 158/158/158 188/188/188 187/187/187
f 158/158/158 159/159/159 188/188/188
f 159/159/159 189/189/189 188/188/188
f 159/159/159 160/160/160 189/189/189
f 160/160/160 190/190/190 189/189/189
f 160/160/160 161/161/161 190/190/190
f 161/161/161 191/191/191 190/190/190
f 161/161/161 162/162/162 191/191/191
f 162/162/162 192/192/192 191/191/191
f 162/162/162 163/163/163 192/192/192
f 163/163/163 193/193/193 192/192/192
f 163/163/163 164/164/164 193/193/193
f 164/164/164 194/194/194 193/193/193
f 164/164/164 165/165/165 194/194/194
f 165/165/165 195/195/195 194/194/194
f 165/165/165 166/166/166 195/195/195
f 166/166/166 196/196/196 195/195/195
f 166/166/166 167/167/167 196/196/196
f 167/167/167 197/197/197 196/196/196
f 167/167/167 168/168/168 197/197/197
f 168/168/168 198/198/198 197/197/197
f 168/168/168 169/169/169 198/198/198
f 169/169/169 199/199/199 198/198/198
f 169/169/169 170/170/170 199/199/199
f 170/170/170 200/200/200 199/199/199
f 170/170/170 171/171/171 200/200/200
f 171/171/171 201/201/201 200/200/200
f 171/171/171 172/172/172 201/201/201
f 172/172/172 202/202/202 201/201/201
f 172/172/172 173/173/173 202/202/202
f 173/173/173 203/203/203 202/202/202
f 173/173/173 174/174/174 203/203/203
