# generated by tools/make_gecko_mesh.py -- do not hand-edit
v -0.001269 0.006569 0.000000
v -0.001269 0.006404 0.000735
v -0.001269 0.005918 0.001434
v -0.001269 0.005136 0.002060
v -0.001269 0.004096 0.002583
v -0.001269 0.002850 0.002977
v -0.001269 0.001462 0.003222
v -0.001269 0.000000 0.003304
v -0.001269 -0.001462 0.003222
v -0.001269 -0.002850 0.002977
v -0.001269 -0.004096 0.002583
v -0.001269 -0.005136 0.002060
v -0.001269 -0.005918 0.001434
v -0.001269 -0.006404 0.000735
v -0.001269 -0.006569 0.000000
v -0.001269 -0.006404 -0.000735
v -0.001269 -0.005918 -0.001434
v -0.001269 -0.005136 -0.002060
v -0.001269 -0.004096 -0.002583
v -0.001269 -0.002850 -0.002977
v -0.001269 -0.001462 -0.003222
v -0.001269 -0.000000 -0.003304
v -0.001269 0.001462 -0.003222
v -0.001269 0.002850 -0.002977
v -0.001269 0.004096 -0.002583
v -0.001269 0.005136 -0.002060
v -0.001269 0.005918 -0.001434
v -0.001269 0.006404 -0.000735
v -0.001269 0.006569 0.000000
v 0.000662 0.007291 0.000000
v 0.000662 0.007108 0.000714
v 0.000662 0.006569 0.001392
v 0.000662 0.005700 0.002001
v 0.000662 0.004546 0.002509
v 0.000662 0.003163 0.002891
v 0.000662 0.001622 0.003128
v 0.000662 0.000000 0.003209
v 0.000662 -0.001622 0.003128
v 0.000662 -0.003163 0.002891
v 0.000662 -0.004546 0.002509
v 0.000662 -0.005700 0.002001
v 0.000662 -0.006569 0.001392
v 0.000662 -0.007108 0.000714
v 0.000662 -0.007291 0.000000
v 0.000662 -0.007108 -0.000714
v 0.000662 -0.006569 -0.001392
v 0.000662 -0.005700 -0.002001
v 0.000662 -0.004546 -0.002509
v 0.000662 -0.003163 -0.002891
v 0.000662 -0.001622 -0.003128
v 0.000662 -0.000000 -0.003209
v 0.000662 0.001622 -0.003128
v 0.000662 0.003163 -0.002891
v 0.000662 0.004546 -0.002509
v 0.000662 0.005700 -0.002001
v 0.000662 0.006569 -0.001392
v 0.000662 0.007108 -0.000714
v 0.000662 0.007291 0.000000
v 0.002594 0.007773 0.000000
v 0.002594 0.007579 0.000693
v 0.002594 0.007004 0.001351
v 0.002594 0.006078 0.001941
v 0.002594 0.004847 0.002434
v 0.002594 0.003373 0.002805
v 0.002594 0.001730 0.003035
v 0.002594 0.000000 0.003113
v 0.002594 -0.001730 0.003035
v 0.002594 -0.003373 0.002805
v 0.002594 -0.004847 0.002434
v 0.002594 -0.006078 0.001941
v 0.002594 -0.007004 0.001351
v 0.002594 -0.007579 0.000693
v 0.002594 -0.007773 0.000000
v 0.002594 -0.007579 -0.000693
v 0.002594 -0.007004 -0.001351
v 0.002594 -0.006078 -0.001941
v 0.002594 -0.004847 -0.002434
v 0.002594 -0.003373 -0.002805
v 0.002594 -0.001730 -0.003035
v 0.002594 -0.000000 -0.003113
v 0.002594 0.001730 -0.003035
v 0.002594 0.003373 -0.002805
v 0.002594 0.004847 -0.002434
v 0.002594 0.006078 -0.001941
v 0.002594 0.007004 -0.001351
v 0.002594 0.007579 -0.000693
v 0.002594 0.007773 0.000000
v 0.004525 0.008057 0.000000
v 0.004525 0.007855 0.000671
v 0.004525 0.007259 0.001309
v 0.004525 0.006299 0.001881
v 0.004525 0.005023 0.002359
v 0.004525 0.003496 0.002719
v 0.004525 0.001793 0.002942
v 0.004525 0.000000 0.003017
v 0.004525 -0.001793 0.002942
v 0.004525 -0.003496 0.002719
v 0.004525 -0.005023 0.002359
v 0.004525 -0.006299 0.001881
v 0.004525 -0.007259 0.001309
v 0.004525 -0.007855 0.000671
v 0.004525 -0.008057 0.000000
v 0.004525 -0.007855 -0.000671
v 0.004525 -0.007259 -0.001309
v 0.004525 -0.006299 -0.001881
v 0.004525 -0.005023 -0.002359
v 0.004525 -0.003496 -0.002719
v 0.004525 -0.001793 -0.002942
v 0.004525 -0.000000 -0.003017
v 0.004525 0.001793 -0.002942
v 0.004525 0.003496 -0.002719
v 0.004525 0.005023 -0.002359
v 0.004525 0.006299 -0.001881
v 0.004525 0.007259 -0.001309
v 0.004525 0.007855 -0.000671
v 0.004525 0.008057 0.000000
v 0.006456 0.010112 0.000000
v 0.006456 0.009859 0.000650
v 0.006456 0.009111 0.001268
v 0.006456 0.007906 0.001822
v 0.006456 0.006305 0.002284
v 0.006456 0.004388 0.002633
v 0.006456 0.002250 0.002849
v 0.006456 0.000000 0.002922
v 0.006456 -0.002250 0.002849
v 0.006456 -0.004388 0.002633
v 0.006456 -0.006305 0.002284
v 0.006456 -0.007906 0.001822
v 0.006456 -0.009111 0.001268
v 0.006456 -0.009859 0.000650
v 0.006456 -0.010112 0.000000
v 0.006456 -0.009859 -0.000650
v 0.006456 -0.009111 -0.001268
v 0.006456 -0.007906 -0.001822
v 0.006456 -0.006305 -0.002284
v 0.006456 -0.004388 -0.002633
v 0.006456 -0.002250 -0.002849
v 0.006456 -0.000000 -0.002922
v 0.006456 0.002250 -0.002849
v 0.006456 0.004388 -0.002633
v 0.006456 0.006305 -0.002284
v 0.006456 0.007906 -0.001822
v 0.006456 0.009111 -0.001268
v 0.006456 0.009859 -0.000650
v 0.006456 0.010112 0.000000
v 0.008387 0.010632 0.000000
v 0.008387 0.010366 0.000629
v 0.008387 0.009579 0.001226
v 0.008387 0.008313 0.001762
v 0.008387 0.006629 0.002210
v 0.008387 0.004613 0.002546
v 0.008387 0.002366 0.002755
v 0.008387 0.000000 0.002826
v 0.008387 -0.002366 0.002755
v 0.008387 -0.004613 0.002546
v 0.008387 -0.006629 0.002210
v 0.008387 -0.008313 0.001762
v 0.008387 -0.009579 0.001226
v 0.008387 -0.010366 0.000629
v 0.008387 -0.010632 0.000000
v 0.008387 -0.010366 -0.000629
v 0.008387 -0.009579 -0.001226
v 0.008387 -0.008313 -0.001762
v 0.008387 -0.006629 -0.002210
v 0.008387 -0.004613 -0.002546
v 0.008387 -0.002366 -0.002755
v 0.008387 -0.000000 -0.002826
v 0.008387 0.002366 -0.002755
v 0.008387 0.004613 -0.002546
v 0.008387 0.006629 -0.002210
v 0.008387 0.008313 -0.001762
v 0.008387 0.009579 -0.001226
v 0.008387 0.010366 -0.000629
v 0.008387 0.010632 0.000000
v 0.010319 0.010503 0.000000
v 0.010319 0.010240 0.000608
v 0.010319 0.009463 0.001185
v 0.010319 0.008212 0.001703
v 0.010319 0.006549 0.002135
v 0.010319 0.004557 0.002460
v 0.010319 0.002337 0.002662
v 0.010319 0.000000 0.002731
v 0.010319 -0.002337 0.002662
v 0.010319 -0.004557 0.002460
v 0.010319 -0.006549 0.002135
v 0.010319 -0.008212 0.001703
v 0.010319 -0.009463 0.001185
v 0.010319 -0.010240 0.000608
v 0.010319 -0.010503 0.000000
v 0.010319 -0.010240 -0.000608
v 0.010319 -0.009463 -0.001185
v 0.010319 -0.008212 -0.001703
v 0.010319 -0.006549 -0.002135
v 0.010319 -0.004557 -0.002460
v 0.010319 -0.002337 -0.002662
v 0.010319 -0.000000 -0.002731
v 0.010319 0.002337 -0.002662
v 0.010319 0.004557 -0.002460
v 0.010319 0.006549 -0.002135
v 0.010319 0.008212 -0.001703
v 0.010319 0.009463 -0.001185
v 0.010319 0.010240 -0.000608
v 0.010319 0.010503 0.000000
v 0.012250 0.009842 0.000000
v 0.012250 0.009595 0.000586
v 0.012250 0.008867 0.001143
v 0.012250 0.007695 0.001643
v 0.012250 0.006136 0.002060
v 0.012250 0.004270 0.002374
v 0.012250 0.002190 0.002569
v 0.012250 0.000000 0.002635
v 0.012250 -0.002190 0.002569
v 0.012250 -0.004270 0.002374
v 0.012250 -0.006136 0.002060
v 0.012250 -0.007695 0.001643
v 0.012250 -0.008867 0.001143
v 0.012250 -0.009595 0.000586
v 0.012250 -0.009842 0.000000
v 0.012250 -0.009595 -0.000586
v 0.012250 -0.008867 -0.001143
v 0.012250 -0.007695 -0.001643
v 0.012250 -0.006136 -0.002060
v 0.012250 -0.004270 -0.002374
v 0.012250 -0.002190 -0.002569
v 0.012250 -0.000000 -0.002635
v 0.012250 0.002190 -0.002569
v 0.012250 0.004270 -0.002374
v 0.012250 0.006136 -0.002060
v 0.012250 0.007695 -0.001643
v 0.012250 0.008867 -0.001143
v 0.012250 0.009595 -0.000586
v 0.012250 0.009842 0.000000
v 0.014181 0.008295 0.000000
v 0.014181 0.008087 0.000565
v 0.014181 0.007473 0.001102
v 0.014181 0.006485 0.001583
v 0.014181 0.005172 0.001985
v 0.014181 0.003599 0.002288
v 0.014181 0.001846 0.002476
v 0.014181 0.000000 0.002539
v 0.014181 -0.001846 0.002476
v 0.014181 -0.003599 0.002288
v 0.014181 -0.005172 0.001985
v 0.014181 -0.006485 0.001583
v 0.014181 -0.007473 0.001102
v 0.014181 -0.008087 0.000565
v 0.014181 -0.008295 0.000000
v 0.014181 -0.008087 -0.000565
v 0.014181 -0.007473 -0.001102
v 0.014181 -0.006485 -0.001583
v 0.014181 -0.005172 -0.001985
v 0.014181 -0.003599 -0.002288
v 0.014181 -0.001846 -0.002476
v 0.014181 -0.000000 -0.002539
v 0.014181 0.001846 -0.002476
v 0.014181 0.003599 -0.002288
v 0.014181 0.005172 -0.001985
v 0.014181 0.006485 -0.001583
v 0.014181 0.007473 -0.001102
v 0.014181 0.008087 -0.000565
v 0.014181 0.008295 0.000000
v 0.016113 0.006467 0.000000
v 0.016113 0.006305 0.000544
v 0.016113 0.005827 0.001060
v 0.016113 0.005056 0.001524
v 0.016113 0.004032 0.001911
v 0.016113 0.002806 0.002202
v 0.016113 0.001439 0.002382
v 0.016113 0.000000 0.002444
v 0.016113 -0.001439 0.002382
v 0.016113 -0.002806 0.002202
v 0.016113 -0.004032 0.001911
v 0.016113 -0.005056 0.001524
v 0.016113 -0.005827 0.001060
v 0.016113 -0.006305 0.000544
v 0.016113 -0.006467 0.000000
v 0.016113 -0.006305 -0.000544
v 0.016113 -0.005827 -0.001060
v 0.016113 -0.005056 -0.001524
v 0.016113 -0.004032 -0.001911
v 0.016113 -0.002806 -0.002202
v 0.016113 -0.001439 -0.002382
v 0.016113 -0.000000 -0.002444
v 0.016113 0.001439 -0.002382
v 0.016113 0.002806 -0.002202
v 0.016113 0.004032 -0.001911
v 0.016113 0.005056 -0.001524
v 0.016113 0.005827 -0.001060
v 0.016113 0.006305 -0.000544
v 0.016113 0.006467 0.000000
v 0.018044 0.005711 0.000000
v 0.018044 0.005568 0.000523
v 0.018044 0.005146 0.001019
v 0.018044 0.004465 0.001464
v 0.018044 0.003561 0.001836
v 0.018044 0.002478 0.002116
v 0.018044 0.001271 0.002289
v 0.018044 0.000000 0.002348
v 0.018044 -0.001271 0.002289
v 0.018044 -0.002478 0.002116
v 0.018044 -0.003561 0.001836
v 0.018044 -0.004465 0.001464
v 0.018044 -0.005146 0.001019
v 0.018044 -0.005568 0.000523
v 0.018044 -0.005711 0.000000
v 0.018044 -0.005568 -0.000523
v 0.018044 -0.005146 -0.001019
v 0.018044 -0.004465 -0.001464
v 0.018044 -0.003561 -0.001836
v 0.018044 -0.002478 -0.002116
v 0.018044 -0.001271 -0.002289
v 0.018044 -0.000000 -0.002348
v 0.018044 0.001271 -0.002289
v 0.018044 0.002478 -0.002116
v 0.018044 0.003561 -0.001836
v 0.018044 0.004465 -0.001464
v 0.018044 0.005146 -0.001019
v 0.018044 0.005568 -0.000523
v 0.018044 0.005711 0.000000
v 0.019975 0.004974 0.000000
v 0.019975 0.004849 0.000501
v 0.019975 0.004481 0.000977
v 0.019975 0.003888 0.001404
v 0.019975 0.003101 0.001761
v 0.019975 0.002158 0.002029
v 0.019975 0.001107 0.002196
v 0.019975 0.000000 0.002253
v 0.019975 -0.001107 0.002196
v 0.019975 -0.002158 0.002029
v 0.019975 -0.003101 0.001761
v 0.019975 -0.003888 0.001404
v 0.019975 -0.004481 0.000977
v 0.019975 -0.004849 0.000501
v 0.019975 -0.004974 0.000000
v 0.019975 -0.004849 -0.000501
v 0.019975 -0.004481 -0.000977
v 0.019975 -0.003888 -0.001404
v 0.019975 -0.003101 -0.001761
v 0.019975 -0.002158 -0.002029
v 0.019975 -0.001107 -0.002196
v 0.019975 -0.000000 -0.002253
v 0.019975 0.001107 -0.002196
v 0.019975 0.002158 -0.002029
v 0.019975 0.003101 -0.001761
v 0.019975 0.003888 -0.001404
v 0.019975 0.004481 -0.000977
v 0.019975 0.004849 -0.000501
v 0.019975 0.004974 0.000000
v 0.021906 0.004706 0.000000
v 0.021906 0.004588 0.000480
v 0.021906 0.004240 0.000936
v 0.021906 0.003680 0.001345
v 0.021906 0.002934 0.001686
v 0.021906 0.002042 0.001943
v 0.021906 0.001047 0.002103
v 0.021906 0.000000 0.002157
v 0.021906 -0.001047 0.002103
v 0.021906 -0.002042 0.001943
v 0.021906 -0.002934 0.001686
v 0.021906 -0.003680 0.001345
v 0.021906 -0.004240 0.000936
v 0.021906 -0.004588 0.000480
v 0.021906 -0.004706 0.000000
v 0.021906 -0.004588 -0.000480
v 0.021906 -0.004240 -0.000936
v 0.021906 -0.003680 -0.001345
v 0.021906 -0.002934 -0.001686
v 0.021906 -0.002042 -0.001943
v 0.021906 -0.001047 -0.002103
v 0.021906 -0.000000 -0.002157
v 0.021906 0.001047 -0.002103
v 0.021906 0.002042 -0.001943
v 0.021906 0.002934 -0.001686
v 0.021906 0.003680 -0.001345
v 0.021906 0.004240 -0.000936
v 0.021906 0.004588 -0.000480
v 0.021906 0.004706 0.000000
v 0.023837 0.004418 0.000000
v 0.023837 0.004307 0.000459
v 0.023837 0.003980 0.000894
v 0.023837 0.003454 0.001285
v 0.023837 0.002755 0.001612
v 0.023837 0.001917 0.001857
v 0.023837 0.000983 0.002010
v 0.023837 0.000000 0.002061
v 0.023837 -0.000983 0.002010
v 0.023837 -0.001917 0.001857
v 0.023837 -0.002755 0.001612
v 0.023837 -0.003454 0.001285
v 0.023837 -0.003980 0.000894
v 0.023837 -0.004307 0.000459
v 0.023837 -0.004418 0.000000
v 0.023837 -0.004307 -0.000459
v 0.023837 -0.003980 -0.000894
v 0.023837 -0.003454 -0.001285
v 0.023837 -0.002755 -0.001612
v 0.023837 -0.001917 -0.001857
v 0.023837 -0.000983 -0.002010
v 0.023837 -0.000000 -0.002061
v 0.023837 0.000983 -0.002010
v 0.023837 0.001917 -0.001857
v 0.023837 0.002755 -0.001612
v 0.023837 0.003454 -0.001285
v 0.023837 0.003980 -0.000894
v 0.023837 0.004307 -0.000459
v 0.023837 0.004418 0.000000
v 0.025769 0.002129 0.000000
v 0.025769 0.002075 0.000437
v 0.025769 0.001918 0.000853
v 0.025769 0.001664 0.001226
v 0.025769 0.001327 0.001537
v 0.025769 0.000924 0.001771
v 0.025769 0.000474 0.001916
v 0.025769 0.000000 0.001966
v 0.025769 -0.000474 0.001916
v 0.025769 -0.000924 0.001771
v 0.025769 -0.001327 0.001537
v 0.025769 -0.001664 0.001226
v 0.025769 -0.001918 0.000853
v 0.025769 -0.002075 0.000437
v 0.025769 -0.002129 0.000000
v 0.025769 -0.002075 -0.000437
v 0.025769 -0.001918 -0.000853
v 0.025769 -0.001664 -0.001226
v 0.025769 -0.001327 -0.001537
v 0.025769 -0.000924 -0.001771
v 0.025769 -0.000474 -0.001916
v 0.025769 -0.000000 -0.001966
v 0.025769 0.000474 -0.001916
v 0.025769 0.000924 -0.001771
v 0.025769 0.001327 -0.001537
v 0.025769 0.001664 -0.001226
v 0.025769 0.001918 -0.000853
v 0.025769 0.002075 -0.000437
v 0.025769 0.002129 0.000000
v 0.027700 0.000313 0.000000
v 0.027700 0.000305 0.000104
v 0.027700 0.000282 0.000203
v 0.027700 0.000245 0.000291
v 0.027700 0.000195 0.000366
v 0.027700 0.000136 0.000421
v 0.027700 0.000070 0.000456
v 0.027700 0.000000 0.000467
v 0.027700 -0.000070 0.000456
v 0.027700 -0.000136 0.000421
v 0.027700 -0.000195 0.000366
v 0.027700 -0.000245 0.000291
v 0.027700 -0.000282 0.000203
v 0.027700 -0.000305 0.000104
v 0.027700 -0.000313 0.000000
v 0.027700 -0.000305 -0.000104
v 0.027700 -0.000282 -0.000203
v 0.027700 -0.000245 -0.000291
v 0.027700 -0.000195 -0.000366
v 0.027700 -0.000136 -0.000421
v 0.027700 -0.000070 -0.000456
v 0.027700 -0.000000 -0.000467
v 0.027700 0.000070 -0.000456
v 0.027700 0.000136 -0.000421
v 0.027700 0.000195 -0.000366
v 0.027700 0.000245 -0.000291
v 0.027700 0.000282 -0.000203
v 0.027700 0.000305 -0.000104
v 0.027700 0.000313 0.000000
vt 0.00000 0.06438
vt 0.07143 0.06438
vt 0.14286 0.06438
vt 0.21429 0.06438
vt 0.28571 0.06438
vt 0.35714 0.06438
vt 0.42857 0.06438
vt 0.50000 0.06438
vt 0.57143 0.06438
vt 0.64286 0.06438
vt 0.71429 0.06438
vt 0.78571 0.06438
vt 0.85714 0.06438
vt 0.92857 0.06438
vt 1.00000 0.06438
vt 1.07143 0.06438
vt 1.14286 0.06438
vt 1.21429 0.06438
vt 1.28571 0.06438
vt 1.35714 0.06438
vt 1.42857 0.06438
vt 1.50000 0.06438
vt 1.57143 0.06438
vt 1.64286 0.06438
vt 1.71429 0.06438
vt 1.78571 0.06438
vt 1.85714 0.06438
vt 1.92857 0.06438
vt 2.00000 0.06438
vt 0.00000 0.12875
vt 0.07143 0.12875
vt 0.14286 0.12875
vt 0.21429 0.12875
vt 0.28571 0.12875
vt 0.35714 0.12875
vt 0.42857 0.12875
vt 0.50000 0.12875
vt 0.57143 0.12875
vt 0.64286 0.12875
vt 0.71429 0.12875
vt 0.78571 0.12875
vt 0.85714 0.12875
vt 0.92857 0.12875
vt 1.00000 0.12875
vt 1.07143 0.12875
vt 1.14286 0.12875
vt 1.21429 0.12875
vt 1.28571 0.12875
vt 1.35714 0.12875
vt 1.42857 0.12875
vt 1.50000 0.12875
vt 1.57143 0.12875
vt 1.64286 0.12875
vt 1.71429 0.12875
vt 1.78571 0.12875
vt 1.85714 0.12875
vt 1.92857 0.12875
vt 2.00000 0.12875
vt 0.00000 0.19313
vt 0.07143 0.19313
vt 0.14286 0.19313
vt 0.21429 0.19313
vt 0.28571 0.19313
vt 0.35714 0.19313
vt 0.42857 0.19313
vt 0.50000 0.19313
vt 0.57143 0.19313
vt 0.64286 0.19313
vt 0.71429 0.19313
vt 0.78571 0.19313
vt 0.85714 0.19313
vt 0.92857 0.19313
vt 1.00000 0.19313
vt 1.07143 0.19313
vt 1.14286 0.19313
vt 1.21429 0.19313
vt 1.28571 0.19313
vt 1.35714 0.19313
vt 1.42857 0.19313
vt 1.50000 0.19313
vt 1.57143 0.19313
vt 1.64286 0.19313
vt 1.71429 0.19313
vt 1.78571 0.19313
vt 1.85714 0.19313
vt 1.92857 0.19313
vt 2.00000 0.19313
vt 0.00000 0.25750
vt 0.07143 0.25750
vt 0.14286 0.25750
vt 0.21429 0.25750
vt 0.28571 0.25750
vt 0.35714 0.25750
vt 0.42857 0.25750
vt 0.50000 0.25750
vt 0.57143 0.25750
vt 0.64286 0.25750
vt 0.71429 0.25750
vt 0.78571 0.25750
vt 0.85714 0.25750
vt 0.92857 0.25750
vt 1.00000 0.25750
vt 1.07143 0.25750
vt 1.14286 0.25750
vt 1.21429 0.25750
vt 1.28571 0.25750
vt 1.35714 0.25750
vt 1.42857 0.25750
vt 1.50000 0.25750
vt 1.57143 0.25750
vt 1.64286 0.25750
vt 1.71429 0.25750
vt 1.78571 0.25750
vt 1.85714 0.25750
vt 1.92857 0.25750
vt 2.00000 0.25750
vt 0.00000 0.32188
vt 0.07143 0.32188
vt 0.14286 0.32188
vt 0.21429 0.32188
vt 0.28571 0.32188
vt 0.35714 0.32188
vt 0.42857 0.32188
vt 0.50000 0.32188
vt 0.57143 0.32188
vt 0.64286 0.32188
vt 0.71429 0.32188
vt 0.78571 0.32188
vt 0.85714 0.32188
vt 0.92857 0.32188
vt 1.00000 0.32188
vt 1.07143 0.32188
vt 1.14286 0.32188
vt 1.21429 0.32188
vt 1.28571 0.32188
vt 1.35714 0.32188
vt 1.42857 0.32188
vt 1.50000 0.32188
vt 1.57143 0.32188
vt 1.64286 0.32188
vt 1.71429 0.32188
vt 1.78571 0.32188
vt 1.85714 0.32188
vt 1.92857 0.32188
vt 2.00000 0.32188
vt 0.00000 0.38625
vt 0.07143 0.38625
vt 0.14286 0.38625
vt 0.21429 0.38625
vt 0.28571 0.38625
vt 0.35714 0.38625
vt 0.42857 0.38625
vt 0.50000 0.38625
vt 0.57143 0.38625
vt 0.64286 0.38625
vt 0.71429 0.38625
vt 0.78571 0.38625
vt 0.85714 0.38625
vt 0.92857 0.38625
vt 1.00000 0.38625
vt 1.07143 0.38625
vt 1.14286 0.38625
vt 1.21429 0.38625
vt 1.28571 0.38625
vt 1.35714 0.38625
vt 1.42857 0.38625
vt 1.50000 0.38625
vt 1.57143 0.38625
vt 1.64286 0.38625
vt 1.71429 0.38625
vt 1.78571 0.38625
vt 1.85714 0.38625
vt 1.92857 0.38625
vt 2.00000 0.38625
vt 0.00000 0.45063
vt 0.07143 0.45063
vt 0.14286 0.45063
vt 0.21429 0.45063
vt 0.28571 0.45063
vt 0.35714 0.45063
vt 0.42857 0.45063
vt 0.50000 0.45063
vt 0.57143 0.45063
vt 0.64286 0.45063
vt 0.71429 0.45063
vt 0.78571 0.45063
vt 0.85714 0.45063
vt 0.92857 0.45063
vt 1.00000 0.45063
vt 1.07143 0.45063
vt 1.14286 0.45063
vt 1.21429 0.45063
vt 1.28571 0.45063
vt 1.35714 0.45063
vt 1.42857 0.45063
vt 1.50000 0.45063
vt 1.57143 0.45063
vt 1.64286 0.45063
vt 1.71429 0.45063
vt 1.78571 0.45063
vt 1.85714 0.45063
vt 1.92857 0.45063
vt 2.00000 0.45063
vt 0.00000 0.51500
vt 0.07143 0.51500
vt 0.14286 0.51500
vt 0.21429 0.51500
vt 0.28571 0.51500
vt 0.35714 0.51500
vt 0.42857 0.51500
vt 0.50000 0.51500
vt 0.57143 0.51500
vt 0.64286 0.51500
vt 0.71429 0.51500
vt 0.78571 0.51500
vt 0.85714 0.51500
vt 0.92857 0.51500
vt 1.00000 0.51500
vt 1.07143 0.51500
vt 1.14286 0.51500
vt 1.21429 0.51500
vt 1.28571 0.51500
vt 1.35714 0.51500
vt 1.42857 0.51500
vt 1.50000 0.51500
vt 1.57143 0.51500
vt 1.64286 0.51500
vt 1.71429 0.51500
vt 1.78571 0.51500
vt 1.85714 0.51500
vt 1.92857 0.51500
vt 2.00000 0.51500
vt 0.00000 0.57938
vt 0.07143 0.57938
vt 0.14286 0.57938
vt 0.21429 0.57938
vt 0.28571 0.57938
vt 0.35714 0.57938
vt 0.42857 0.57938
vt 0.50000 0.57938
vt 0.57143 0.57938
vt 0.64286 0.57938
vt 0.71429 0.57938
vt 0.78571 0.57938
vt 0.85714 0.57938
vt 0.92857 0.57938
vt 1.00000 0.57938
vt 1.07143 0.57938
vt 1.14286 0.57938
vt 1.21429 0.57938
vt 1.28571 0.57938
vt 1.35714 0.57938
vt 1.42857 0.57938
vt 1.50000 0.57938
vt 1.57143 0.57938
vt 1.64286 0.57938
vt 1.71429 0.57938
vt 1.78571 0.57938
vt 1.85714 0.57938
vt 1.92857 0.57938
vt 2.00000 0.57938
vt 0.00000 0.64375
vt 0.07143 0.64375
vt 0.14286 0.64375
vt 0.21429 0.64375
vt 0.28571 0.64375
vt 0.35714 0.64375
vt 0.42857 0.64375
vt 0.50000 0.64375
vt 0.57143 0.64375
vt 0.64286 0.64375
vt 0.71429 0.64375
vt 0.78571 0.64375
vt 0.85714 0.64375
vt 0.92857 0.64375
vt 1.00000 0.64375
vt 1.07143 0.64375
vt 1.14286 0.64375
vt 1.21429 0.64375
vt 1.28571 0.64375
vt 1.35714 0.64375
vt 1.42857 0.64375
vt 1.50000 0.64375
vt 1.57143 0.64375
vt 1.64286 0.64375
vt 1.71429 0.64375
vt 1.78571 0.64375
vt 1.85714 0.64375
vt 1.92857 0.64375
vt 2.00000 0.64375
vt 0.00000 0.70813
vt 0.07143 0.70813
vt 0.14286 0.70813
vt 0.21429 0.70813
vt 0.28571 0.70813
vt 0.35714 0.70813
vt 0.42857 0.70813
vt 0.50000 0.70813
vt 0.57143 0.70813
vt 0.64286 0.70813
vt 0.71429 0.70813
vt 0.78571 0.70813
vt 0.85714 0.70813
vt 0.92857 0.70813
vt 1.00000 0.70813
vt 1.07143 0.70813
vt 1.14286 0.70813
vt 1.21429 0.70813
vt 1.28571 0.70813
vt 1.35714 0.70813
vt 1.42857 0.70813
vt 1.50000 0.70813
vt 1.57143 0.70813
vt 1.64286 0.70813
vt 1.71429 0.70813
vt 1.78571 0.70813
vt 1.85714 0.70813
vt 1.92857 0.70813
vt 2.00000 0.70813
vt 0.00000 0.77250
vt 0.07143 0.77250
vt 0.14286 0.77250
vt 0.21429 0.77250
vt 0.28571 0.77250
vt 0.35714 0.77250
vt 0.42857 0.77250
vt 0.50000 0.77250
vt 0.57143 0.77250
vt 0.64286 0.77250
vt 0.71429 0.77250
vt 0.78571 0.77250
vt 0.85714 0.77250
vt 0.92857 0.77250
vt 1.00000 0.77250
vt 1.07143 0.77250
vt 1.14286 0.77250
vt 1.21429 0.77250
vt 1.28571 0.77250
vt 1.35714 0.77250
vt 1.42857 0.77250
vt 1.50000 0.77250
vt 1.57143 0.77250
vt 1.64286 0.77250
vt 1.71429 0.77250
vt 1.78571 0.77250
vt 1.85714 0.77250
vt 1.92857 0.77250
vt 2.00000 0.77250
vt 0.00000 0.83688
vt 0.07143 0.83688
vt 0.14286 0.83688
vt 0.21429 0.83688
vt 0.28571 0.83688
vt 0.35714 0.83688
vt 0.42857 0.83688
vt 0.50000 0.83688
vt 0.57143 0.83688
vt 0.64286 0.83688
vt 0.71429 0.83688
vt 0.78571 0.83688
vt 0.85714 0.83688
vt 0.92857 0.83688
vt 1.00000 0.83688
vt 1.07143 0.83688
vt 1.14286 0.83688
vt 1.21429 0.83688
vt 1.28571 0.83688
vt 1.35714 0.83688
vt 1.42857 0.83688
vt 1.50000 0.83688
vt 1.57143 0.83688
vt 1.64286 0.83688
vt 1.71429 0.83688
vt 1.78571 0.83688
vt 1.85714 0.83688
vt 1.92857 0.83688
vt 2.00000 0.83688
vt 0.00000 0.90125
vt 0.07143 0.90125
vt 0.14286 0.90125
vt 0.21429 0.90125
vt 0.28571 0.90125
vt 0.35714 0.90125
vt 0.42857 0.90125
vt 0.50000 0.90125
vt 0.57143 0.90125
vt 0.64286 0.90125
vt 0.71429 0.90125
vt 0.78571 0.90125
vt 0.85714 0.90125
vt 0.92857 0.90125
vt 1.00000 0.90125
vt 1.07143 0.90125
vt 1.14286 0.90125
vt 1.21429 0.90125
vt 1.28571 0.90125
vt 1.35714 0.90125
vt 1.42857 0.90125
vt 1.50000 0.90125
vt 1.57143 0.90125
vt 1.64286 0.90125
vt 1.71429 0.90125
vt 1.78571 0.90125
vt 1.85714 0.90125
vt 1.92857 0.90125
vt 2.00000 0.90125
vt 0.00000 0.96563
vt 0.07143 0.96563
vt 0.14286 0.96563
vt 0.21429 0.96563
vt 0.28571 0.96563
vt 0.35714 0.96563
vt 0.42857 0.96563
vt 0.50000 0.96563
vt 0.57143 0.96563
vt 0.64286 0.96563
vt 0.71429 0.96563
vt 0.78571 0.96563
vt 0.85714 0.96563
vt 0.92857 0.96563
vt 1.00000 0.96563
vt 1.07143 0.96563
vt 1.14286 0.96563
vt 1.21429 0.96563
vt 1.28571 0.96563
vt 1.35714 0.96563
vt 1.42857 0.96563
vt 1.50000 0.96563
vt 1.57143 0.96563
vt 1.64286 0.96563
vt 1.71429 0.96563
vt 1.78571 0.96563
vt 1.85714 0.96563
vt 1.92857 0.96563
vt 2.00000 0.96563
vt 0.00000 1.03000
vt 0.07143 1.03000
vt 0.14286 1.03000
vt 0.21429 1.03000
vt 0.28571 1.03000
vt 0.35714 1.03000
vt 0.42857 1.03000
vt 0.50000 1.03000
vt 0.57143 1.03000
vt 0.64286 1.03000
vt 0.71429 1.03000
vt 0.78571 1.03000
vt 0.85714 1.03000
vt 0.92857 1.03000
vt 1.00000 1.03000
vt 1.07143 1.03000
vt 1.14286 1.03000
vt 1.21429 1.03000
vt 1.28571 1.03000
vt 1.35714 1.03000
vt 1.42857 1.03000
vt 1.50000 1.03000
vt 1.57143 1.03000
vt 1.64286 1.03000
vt 1.71429 1.03000
vt 1.78571 1.03000
vt 1.85714 1.03000
vt 1.92857 1.03000
vt 2.00000 1.03000
vn -0.34592 0.93500 0.07824
vn -0.28926 0.83402 0.46984
vn -0.19411 0.65813 0.72745
vn -0.10323 0.48391 0.86901
vn -0.03228 0.33370 0.94213
vn 0.01608 0.20519 0.97859
vn 0.04242 0.09070 0.99497
vn 0.04754 -0.01768 0.99871
vn 0.03174 -0.12745 0.99134
vn -0.00522 -0.24623 0.96920
vn -0.06385 -0.38192 0.92199
vn -0.14352 -0.54125 0.82852
vn -0.23777 -0.72112 0.65073
vn -0.32164 -0.88275 0.34250
vn -0.34592 -0.93500 -0.07824
vn -0.28926 -0.83402 -0.46984
vn -0.19411 -0.65813 -0.72745
vn -0.10323 -0.48391 -0.86901
vn -0.03228 -0.33370 -0.94213
vn 0.01608 -0.20519 -0.97859
vn 0.04242 -0.09070 -0.99497
vn 0.04754 0.01768 -0.99871
vn 0.03174 0.12745 -0.99134
vn -0.00522 0.24623 -0.96920
vn -0.06385 0.38192 -0.92199
vn -0.14352 0.54125 -0.82852
vn -0.23777 0.72112 -0.65073
vn -0.32164 0.88275 -0.34250
vn -0.34592 0.93500 0.07824
vn -0.29520 0.95541 0.00674
vn -0.25469 0.85701 0.44795
vn -0.17181 0.66442 0.72734
vn -0.09246 0.48202 0.87127
vn -0.03046 0.33231 0.94268
vn 0.01299 0.20858 0.97792
vn 0.03886 0.10083 0.99414
vn 0.04789 0.00049 0.99885
vn 0.04027 -0.09999 0.99417
vn 0.01562 -0.20824 0.97795
vn -0.02703 -0.33299 0.94254
vn -0.08893 -0.48441 0.87031
vn -0.16919 -0.66902 0.72373
vn -0.25369 -0.86209 0.43868
vn -0.29520 -0.95541 -0.00674
vn -0.25469 -0.85701 -0.44795
vn -0.17181 -0.66442 -0.72734
vn -0.09246 -0.48202 -0.87127
vn -0.03046 -0.33231 -0.94268
vn 0.01299 -0.20858 -0.97792
vn 0.03886 -0.10083 -0.99414
vn 0.04789 -0.00049 -0.99885
vn 0.04027 0.09999 -0.99417
vn 0.01562 0.20824 -0.97795
vn -0.02703 0.33299 -0.94254
vn -0.08893 0.48441 -0.87031
vn -0.16919 0.66902 -0.72373
vn -0.25369 0.86209 -0.43868
vn -0.29520 0.95541 0.00674
vn -0.19244 0.98130 0.00453
vn -0.15964 0.85691 0.49012
vn -0.09800 0.63670 0.76486
vn -0.04355 0.44938 0.89228
vn -0.00265 0.30541 0.95222
vn 0.02565 0.19037 0.98138
vn 0.04246 0.09175 0.99488
vn 0.04838 0.00046 0.99883
vn 0.04352 -0.09091 0.99491
vn 0.02766 -0.18981 0.98143
vn 0.00008 -0.30543 0.95221
vn -0.04053 -0.45045 0.89188
vn -0.09534 -0.63934 0.76299
vn -0.15819 -0.86041 0.48442
vn -0.19244 -0.98130 -0.00453
vn -0.15964 -0.85691 -0.49012
vn -0.09800 -0.63670 -0.76486
vn -0.04355 -0.44938 -0.89228
vn -0.00265 -0.30541 -0.95222
vn 0.02565 -0.19037 -0.98138
vn 0.04246 -0.09175 -0.99488
vn 0.04838 -0.00046 -0.99883
vn 0.04352 0.09091 -0.99491
vn 0.02766 0.18981 -0.98143
vn 0.00008 0.30543 -0.95221
vn -0.04053 0.45045 -0.89188
vn -0.09534 0.63934 -0.76299
vn -0.15819 0.86041 -0.48442
vn -0.19244 0.98130 0.00453
vn -0.51100 0.85949 0.01251
vn -0.42657 0.75967 0.49085
vn -0.27828 0.57261 0.77115
vn -0.14934 0.40614 0.90153
vn -0.05579 0.27574 0.95961
vn 0.00559 0.17140 0.98519
vn 0.03907 0.08245 0.99583
vn 0.04723 0.00043 0.99888
vn 0.03102 -0.08181 0.99616
vn -0.01012 -0.17141 0.98515
vn -0.07818 -0.27670 0.95777
vn -0.17625 -0.40812 0.89575
vn -0.30528 -0.57527 0.75886
vn -0.44529 -0.76189 0.47036
vn -0.51100 -0.85949 -0.01251
vn -0.42657 -0.75967 -0.49085
vn -0.27828 -0.57261 -0.77115
vn -0.14934 -0.40614 -0.90153
vn -0.05579 -0.27574 -0.95961
vn 0.00559 -0.17140 -0.98519
vn 0.03907 -0.08245 -0.99583
vn 0.04723 -0.00043 -0.99888
vn 0.03102 0.08181 -0.99616
vn -0.01012 0.17141 -0.98515
vn -0.07818 0.27670 -0.95777
vn -0.17625 0.40812 -0.89575
vn -0.30528 0.57527 -0.75886
vn -0.44529 0.76189 -0.47036
vn -0.51100 0.85949 0.01251
vn -0.55320 0.83293 0.01379
vn -0.45446 0.70024 0.55058
vn -0.29075 0.49810 0.81692
vn -0.15980 0.34240 0.92586
vn -0.06670 0.22904 0.97113
vn -0.00401 0.14135 0.98995
vn 0.03321 0.06776 0.99715
vn 0.04738 0.00036 0.99888
vn 0.03908 -0.06717 0.99698
vn 0.00721 -0.14130 0.98994
vn -0.05138 -0.23028 0.97177
vn -0.14295 -0.34643 0.92712
vn -0.27703 -0.50722 0.81608
vn -0.44931 -0.71347 0.53767
vn -0.55320 -0.83293 -0.01379
vn -0.45446 -0.70024 -0.55058
vn -0.29075 -0.49810 -0.81692
vn -0.15980 -0.34240 -0.92586
vn -0.06670 -0.22904 -0.97113
vn -0.00401 -0.14135 -0.98995
vn 0.03321 -0.06776 -0.99715
vn 0.04738 -0.00036 -0.99888
vn 0.03908 0.06717 -0.99698
vn 0.00721 0.14130 -0.98994
vn -0.05138 0.23028 -0.97177
vn -0.14295 0.34643 -0.92712
vn -0.27703 0.50722 -0.81608
vn -0.44931 0.71347 -0.53767
vn -0.55320 0.83293 0.01379
vn -0.10019 0.99496 0.00258
vn -0.07064 0.75919 0.64703
vn -0.02955 0.48652 0.87317
vn 0.00005 0.31918 0.94769
vn 0.02115 0.20957 0.97756
vn 0.03587 0.12847 0.99106
vn 0.04502 0.06145 0.99709
vn 0.04881 0.00034 0.99881
vn 0.04725 -0.06078 0.99703
vn 0.04020 -0.12786 0.99098
vn 0.02727 -0.20913 0.97751
vn 0.00746 -0.31909 0.94769
vn -0.02176 -0.48723 0.87300
vn -0.06456 -0.76126 0.64522
vn -0.10019 -0.99496 -0.00258
vn -0.07064 -0.75919 -0.64703
vn -0.02955 -0.48652 -0.87317
vn 0.00005 -0.31918 -0.94769
vn 0.02115 -0.20957 -0.97756
vn 0.03587 -0.12847 -0.99106
vn 0.04502 -0.06145 -0.99709
vn 0.04881 -0.00034 -0.99881
vn 0.04725 0.06078 -0.99703
vn 0.04020 0.12786 -0.99098
vn 0.02727 0.20913 -0.97751
vn 0.00746 0.31909 -0.94769
vn -0.02176 0.48723 -0.87300
vn -0.06456 0.76126 -0.64522
vn -0.10019 0.99496 0.00258
vn 0.19892 0.98000 -0.00533
vn 0.15252 0.74753 0.64648
vn 0.10283 0.47696 0.87289
vn 0.07583 0.31223 0.94697
vn 0.06132 0.20483 0.97688
vn 0.05355 0.12551 0.99065
vn 0.04998 0.06002 0.99694
vn 0.04949 0.00034 0.99877
vn 0.05172 -0.05930 0.99690
vn 0.05692 -0.12465 0.99057
vn 0.06605 -0.20368 0.97681
vn 0.08149 -0.31050 0.94707
vn 0.10862 -0.47403 0.87378
vn 0.15670 -0.74283 0.65088
vn 0.19892 -0.98000 0.00533
vn 0.15252 -0.74753 -0.64648
vn 0.10283 -0.47696 -0.87289
vn 0.07583 -0.31223 -0.94697
vn 0.06132 -0.20483 -0.97688
vn 0.05355 -0.12551 -0.99065
vn 0.04998 -0.06002 -0.99694
vn 0.04949 -0.00034 -0.99877
vn 0.05172 0.05930 -0.99690
vn 0.05692 0.12465 -0.99057
vn 0.06605 0.20368 -0.97681
vn 0.08149 0.31050 -0.94707
vn 0.10862 0.47403 -0.87378
vn 0.15670 0.74283 -0.65088
vn 0.19892 0.98000 -0.00533
vn 0.49236 0.87028 -0.01370
vn 0.39387 0.70947 0.58440
vn 0.25699 0.47848 0.83965
vn 0.16580 0.32000 0.93280
vn 0.10873 0.21162 0.97129
vn 0.07385 0.13006 0.98875
vn 0.05527 0.06225 0.99653
vn 0.05033 0.00037 0.99873
vn 0.05821 -0.06139 0.99642
vn 0.07944 -0.12876 0.98849
vn 0.11627 -0.20938 0.97090
vn 0.17402 -0.31587 0.93271
vn 0.26355 -0.47075 0.84199
vn 0.39554 -0.69783 0.59714
vn 0.49236 -0.87028 0.01370
vn 0.39387 -0.70947 -0.58440
vn 0.25699 -0.47848 -0.83965
vn 0.16580 -0.32000 -0.93280
vn 0.10873 -0.21162 -0.97129
vn 0.07385 -0.13006 -0.98875
vn 0.05527 -0.06225 -0.99653
vn 0.05033 -0.00037 -0.99873
vn 0.05821 0.06139 -0.99642
vn 0.07944 0.12876 -0.98849
vn 0.11627 0.20938 -0.97090
vn 0.17402 0.31587 -0.93271
vn 0.26355 0.47075 -0.84199
vn 0.39554 0.69783 -0.59714
vn 0.49236 0.87028 -0.01370
vn 0.65486 0.75551 -0.01885
vn 0.56917 0.66847 0.47874
vn 0.40461 0.49845 0.76671
vn 0.26461 0.35060 0.89837
vn 0.16500 0.23693 0.95741
vn 0.09971 0.14688 0.98412
vn 0.06289 0.07051 0.99553
vn 0.05128 0.00043 0.99868
vn 0.06377 -0.06940 0.99555
vn 0.10110 -0.14497 0.98426
vn 0.16606 -0.23339 0.95810
vn 0.26380 -0.34417 0.90109
vn 0.40000 -0.48789 0.77586
vn 0.56177 -0.65658 0.50330
vn 0.65486 -0.75551 0.01885
vn 0.56917 -0.66847 -0.47874
vn 0.40461 -0.49845 -0.76671
vn 0.26461 -0.35060 -0.89837
vn 0.16500 -0.23693 -0.95741
vn 0.09971 -0.14688 -0.98412
vn 0.06289 -0.07051 -0.99553
vn 0.05128 -0.00043 -0.99868
vn 0.06377 0.06940 -0.99555
vn 0.10110 0.14497 -0.98426
vn 0.16606 0.23339 -0.95810
vn 0.26380 0.34417 -0.90109
vn 0.40000 0.48789 -0.77586
vn 0.56177 0.65658 -0.50330
vn 0.65486 0.75551 -0.01885
vn 0.55540 0.83142 -0.01651
vn 0.49522 0.74475 0.44734
vn 0.36710 0.57020 0.73492
vn 0.24944 0.40897 0.87780
vn 0.16107 0.27969 0.94648
vn 0.10059 0.17459 0.97949
vn 0.06462 0.08413 0.99436
vn 0.05110 0.00054 0.99869
vn 0.05943 -0.08282 0.99479
vn 0.09043 -0.17255 0.98084
vn 0.14646 -0.27640 0.94982
vn 0.23143 -0.40391 0.88504
vn 0.34811 -0.56325 0.74938
vn 0.48106 -0.73815 0.47299
vn 0.55540 -0.83142 0.01651
vn 0.49522 -0.74475 -0.44734
vn 0.36710 -0.57020 -0.73492
vn 0.24944 -0.40897 -0.87780
vn 0.16107 -0.27969 -0.94648
vn 0.10059 -0.17459 -0.97949
vn 0.06462 -0.08413 -0.99436
vn 0.05110 -0.00054 -0.99869
vn 0.05943 0.08282 -0.99479
vn 0.09043 0.17255 -0.98084
vn 0.14646 0.27640 -0.94982
vn 0.23143 0.40391 -0.88504
vn 0.34811 0.56325 -0.74938
vn 0.48106 0.73815 -0.47299
vn 0.55540 0.83142 -0.01651
vn 0.35890 0.93331 -0.01115
vn 0.31755 0.83321 0.45269
vn 0.23616 0.63474 0.73575
vn 0.16431 0.45446 0.87548
vn 0.11192 0.31108 0.94377
vn 0.07699 0.19458 0.97786
vn 0.05696 0.09395 0.99395
vn 0.05036 0.00063 0.99873
vn 0.05674 -0.09251 0.99409
vn 0.07648 -0.19253 0.97831
vn 0.11094 -0.30786 0.94494
vn 0.16256 -0.44933 0.87845
vn 0.23341 -0.62719 0.74307
vn 0.31464 -0.82551 0.46855
vn 0.35890 -0.93331 0.01115
vn 0.31755 -0.83321 -0.45269
vn 0.23616 -0.63474 -0.73575
vn 0.16431 -0.45446 -0.87548
vn 0.11192 -0.31108 -0.94377
vn 0.07699 -0.19458 -0.97786
vn 0.05696 -0.09395 -0.99395
vn 0.05036 -0.00063 -0.99873
vn 0.05674 0.09251 -0.99409
vn 0.07648 0.19253 -0.97831
vn 0.11094 0.30786 -0.94494
vn 0.16256 0.44933 -0.87845
vn 0.23341 0.62719 -0.74307
vn 0.31464 0.82551 -0.46855
vn 0.35890 0.93331 -0.01115
vn 0.25218 0.96765 -0.00811
vn 0.22844 0.86961 0.43772
vn 0.17728 0.67169 0.71931
vn 0.13011 0.48606 0.86419
vn 0.09466 0.33499 0.93745
vn 0.07034 0.21044 0.97507
vn 0.05573 0.10187 0.99324
vn 0.05001 0.00071 0.99875
vn 0.05299 -0.10032 0.99354
vn 0.06506 -0.20847 0.97586
vn 0.08724 -0.33227 0.93914
vn 0.12128 -0.48221 0.86762
vn 0.16839 -0.66661 0.72614
vn 0.22216 -0.86488 0.45015
vn 0.25218 -0.96765 0.00811
vn 0.22844 -0.86961 -0.43772
vn 0.17728 -0.67169 -0.71931
vn 0.13011 -0.48606 -0.86419
vn 0.09466 -0.33499 -0.93745
vn 0.07034 -0.21044 -0.97507
vn 0.05573 -0.10187 -0.99324
vn 0.05001 -0.00071 -0.99875
vn 0.05299 0.10032 -0.99354
vn 0.06506 0.20847 -0.97586
vn 0.08724 0.33227 -0.93914
vn 0.12128 0.48221 -0.86762
vn 0.16839 0.66661 -0.72614
vn 0.22216 0.86488 -0.45015
vn 0.25218 0.96765 -0.00811
vn 0.14200 0.98986 -0.00479
vn 0.12913 0.88954 0.43823
vn 0.10419 0.68784 0.71835
vn 0.08242 0.49838 0.86303
vn 0.06695 0.34389 0.93662
vn 0.05694 0.21625 0.97468
vn 0.05136 0.10478 0.99317
vn 0.04959 0.00076 0.99877
vn 0.05144 -0.10317 0.99333
vn 0.05708 -0.21439 0.97508
vn 0.06710 -0.34155 0.93746
vn 0.08251 -0.49530 0.86479
vn 0.10413 -0.68395 0.72206
vn 0.12895 -0.88600 0.44539
vn 0.14200 -0.98986 0.00479
vn 0.12913 -0.88954 -0.43823
vn 0.10419 -0.68784 -0.71835
vn 0.08242 -0.49838 -0.86303
vn 0.06695 -0.34389 -0.93662
vn 0.05694 -0.21625 -0.97468
vn 0.05136 -0.10478 -0.99317
vn 0.04959 -0.00076 -0.99877
vn 0.05144 0.10317 -0.99333
vn 0.05708 0.21439 -0.97508
vn 0.06710 0.34155 -0.93746
vn 0.08251 0.49530 -0.86479
vn 0.10413 0.68395 -0.72206
vn 0.12895 0.88600 -0.44539
vn 0.14200 0.98986 -0.00479
vn 0.54764 0.83648 -0.01964
vn 0.50139 0.79525 0.34086
vn 0.39431 0.67294 0.62584
vn 0.27392 0.52030 0.80886
vn 0.17204 0.37149 0.91236
vn 0.10031 0.23704 0.96631
vn 0.06056 0.11539 0.99147
vn 0.05181 0.00088 0.99866
vn 0.07294 -0.11296 0.99092
vn 0.12313 -0.23230 0.96482
vn 0.20099 -0.36209 0.91022
vn 0.30212 -0.50388 0.80921
vn 0.41423 -0.65052 0.63658
vn 0.50994 -0.77672 0.36968
vn 0.54764 -0.83648 0.01964
vn 0.50139 -0.79525 -0.34086
vn 0.39431 -0.67294 -0.62584
vn 0.27392 -0.52030 -0.80886
vn 0.17204 -0.37149 -0.91236
vn 0.10031 -0.23704 -0.96631
vn 0.06056 -0.11539 -0.99147
vn 0.05181 -0.00088 -0.99866
vn 0.07294 0.11296 -0.99092
vn 0.12313 0.23230 -0.96482
vn 0.20099 0.36209 -0.91022
vn 0.30212 0.50388 -0.80921
vn 0.41423 0.65052 -0.63658
vn 0.50994 0.77672 -0.36968
vn 0.54764 0.83648 -0.01964
vn 0.73206 0.68056 -0.03029
vn 0.72332 0.67060 0.16461
vn 0.68153 0.63722 0.35981
vn 0.60764 0.57327 0.54967
vn 0.50984 0.47261 0.71882
vn 0.40801 0.33764 0.84825
vn 0.32830 0.18004 0.92726
vn 0.29143 0.01297 0.95650
vn 0.30622 -0.15424 0.93938
vn 0.36895 -0.31344 0.87500
vn 0.46368 -0.45331 0.76126
vn 0.56565 -0.56142 0.60402
vn 0.65148 -0.63206 0.41962
vn 0.70810 -0.66918 0.22537
vn 0.73206 -0.68056 0.03029
vn 0.72332 -0.67060 -0.16461
vn 0.68153 -0.63722 -0.35981
vn 0.60764 -0.57327 -0.54967
vn 0.50984 -0.47261 -0.71882
vn 0.40801 -0.33764 -0.84825
vn 0.32830 -0.18004 -0.92726
vn 0.29143 -0.01297 -0.95650
vn 0.30622 0.15424 -0.93938
vn 0.36895 0.31344 -0.87500
vn 0.46368 0.45331 -0.76126
vn 0.56565 0.56142 -0.60402
vn 0.65148 0.63206 -0.41962
vn 0.70810 0.66918 -0.22537
vn 0.73206 0.68056 -0.03029
vn 0.68300 0.72794 -0.06019
vn 0.68211 0.72498 0.09557
vn 0.67531 0.69361 0.25072
vn 0.66343 0.63134 0.40159
vn 0.64817 0.53535 0.54156
vn 0.63229 0.40492 0.66049
vn 0.61932 0.24413 0.74622
vn 0.61258 0.06333 0.78787
vn 0.61394 -0.12227 0.77983
vn 0.62297 -0.29639 0.72392
vn 0.63718 -0.44613 0.62847
vn 0.65310 -0.56437 0.50493
vn 0.66747 -0.64949 0.36420
vn 0.67791 -0.70320 0.21434
vn 0.68300 -0.72794 0.06019
vn 0.68211 -0.72498 -0.09557
vn 0.67531 -0.69361 -0.25072
vn 0.66343 -0.63134 -0.40159
vn 0.64817 -0.53535 -0.54156
vn 0.63229 -0.40492 -0.66049
vn 0.61932 -0.24413 -0.74622
vn 0.61258 -0.06333 -0.78787
vn 0.61394 0.12227 -0.77983
vn 0.62297 0.29639 -0.72392
vn 0.63718 0.44613 -0.62847
vn 0.65310 0.56437 -0.50493
vn 0.66747 0.64949 -0.36420
vn 0.67791 0.70320 -0.21434
vn 0.68300 0.72794 -0.06019
f 1/1/1 31/31/31 30/30/30
f 1/1/1 2/2/2 31/31/31
f 2/2/2 32/32/32 31/31/31
f 2/2/2 3/3/3 32/32/32
f 3/3/3 33/33/33 32/32/32
f 3/3/3 4/4/4 33/33/33
f 4/4/4 34/34/34 33/33/33
f 4/4/4 5/5/5 34/34/34
f 5/5/5 35/35/35 34/34/34
f 5/5/5 6/6/6 35/35/35
f 6/6/6 36/36/36 35/35/35
f 6/6/6 7/7/7 36/36/36
f 7/7/7 37/37/37 36/36/36
f 7/7/7 8/8/8 37/37/37
f 8/8/8 38/38/38 37/37/37
f 8/8/8 9/9/9 38/38/38
f 9/9/9 39/39/39 38/38/38
f 9/9/9 10/10/10 39/39/39
f 10/10/10 40/40/40 39/39/39
f 10/10/10 11/11/11 40/40/40
f 11/11/11 41/41/41 40/40/40
f 11/11/11 12/12/12 41/41/41
f 12/12/12 42/42/42 41/41/41
f 12/12/12 13/13/13 42/42/42
f 13/13/13 43/43/43 42/42/42
f 13/13/13 14/14/14 43/43/43
f 14/14/14 44/44/44 43/43/43
f 14/14/14 15/15/15 44/44/44
f 15/15/15 45/45/45 44/44/44
f 15/15/15 16/16/16 45/45/45
f 16/16/16 46/46/46 45/45/45
f 16/16/16 17/17/17 46/46/46
f 17/17/17 47/47/47 46/46/46
f 17/17/17 18/18/18 47/47/47
f 18/18/18 48/48/48 47/47/47
f 18/18/18 19/19/19 48/48/48
f 19/19/19 49/49/49 48/48/48
f 19/19/19 20/20/20 49/49/49
f 20/20/20 50/50/50 49/49/49
f 20/20/20 21/21/21 50/50/50
f 21/21/21 51/51/51 50/50/50
f 21/21/21 22/22/22 51/51/51
f 22/22/22 52/52/52 51/51/51
f 22/22/22 23/23/23 52/52/52
f 23/23/23 53/53/53 52/52/52
f 23/23/23 24/24/24 53/53/53
f 24/24/24 54/54/54 53/53/53
f 24/24/24 25/25/25 54/54/54
f 25/25/25 55/55/55 54/54/54
f 25/25/25 26/26/26 55/55/55
f 26/26/26 56/56/56 55/55/55
f 26/26/26 27/27/27 56/56/56
f 27/27/27 57/57/57 56/56/56
f 27/27/27 28/28/28 57/57/57
f 28/28/28 58/58/58 57/57/57
f 28/28/28 29/29/29 58/58/58
f 30/30/30 60/60/60 59/59/59
f 30/30/30 31/31/31 60/60/60
f 31/31/31 61/61/61 60/60/60
f 31/31/31 32/32/32 61/61/61
f 32/32/32 62/62/62 61/61/61
f 32/32/32 33/33/33 62/62/62
f 33/33/33 63/63/63 62/62/62
f 33/33/33 34/34/34 63/63/63
f 34/34/34 64/64/64 63/63/63
f 34/34/34 35/35/35 64/64/64
f 35/35/35 65/65/65 64/64/64
f 35/35/35 36/36/36 65/65/65
f 36/36/36 66/66/66 65/65/65
f 36/36/36 37/37/37 66/66/66
f 37/37/37 67/67/67 66/66/66
f 37/37/37 38/38/38 67/67/67
f 38/38/38 68/68/68 67/67/67
f 38/38/38 39/39/39 68/68/68
f 39/39/39 69/69/69 68/68/68
f 39/39/39 40/40/40 69/69/69
f 40/40/40 70/70/70 69/69/69
f 40/40/40 41/41/41 70/70/70
f 41/41/41 71/71/71 70/70/70
f 41/41/41 42/42/42 71/71/71
f 42/42/42 72/72/72 71/71/71
f 42/42/42 43/43/43 72/72/72
f 43/43/43 73/73/73 72/72/72
f 43/43/43 44/44/44 73/73/73
f 44/44/44 74/74/74 73/73/73
f 44/44/44 45/45/45 74/74/74
f 45/45/45 75/75/75 74/74/74
f 45/45/45 46/46/46 75/75/75
f 46/46/46 76/76/76 75/75/75
f 46/46/46 47/47/47 76/76/76
f 47/47/47 77/77/77 76/76/76
f 47/47/47 48/48/48 77/77/77
f 48/48/48 78/78/78 77/77/77
f 48/48/48 49/49/49 78/78/78
f 49/49/49 79/79/79 78/78/78
f 49/49/49 50/50/50 79/79/79
f 50/50/50 80/80/80 79/79/79
f 50/50/50 51/51/51 80/80/80
f 51/51/51 81/81/81 80/80/80
f 51/51/51 52/52/52 81/81/81
f 52/52/52 82/82/82 81/81/81
f 52/52/52 53/53/53 82/82/82
f 53/53/53 83/83/83 82/82/82
f 53/53/53 54/54/54 83/83/83
f 54/54/54 84/84/84 83/83/83
f 54/54/54 55/55/55 84/84/84
f 55/55/55 85/85/85 84/84/84
f 55/55/55 56/56/56 85/85/85
f 56/56/56 86/86/86 85/85/85
f 56/56/56 57/57/57 86/86/86
f 57/57/57 87/87/87 86/86/86
f 57/57/57 58/58/58 87/87/87
f 59/59/59 89/89/89 88/88/88
f 59/59/59 60/60/60 89/89/89
f 60/60/60 90/90/90 89/89/89
f 60/60/60 61/61/61 90/90/90
f 61/61/61 91/91/91 90/90/90
f 61/61/61 62/62/62 91/91/91
f 62/62/62 92/92/92 91/91/91
f 62/62/62 63/63/63 92/92/92
f 63/63/63 93/93/93 92/92/92
f 63/63/63 64/64/64 93/93/93
f 64/64/64 94/94/94 93/93/93
f 64/64/64 65/65/65 94/94/94
f 65/65/65 95/95/95 94/94/94
f 65/65/65 66/66/66 95/95/95
f 66/66/66 96/96/96 95/95/95
f 66/66/66 67/67/67 96/96/96
f 67/67/67 97/97/97 96/96/96
f 67/67/67 68/68/68 97/97/97
f 68/68/68 98/98/98 97/97/97
f 68/68/68 69/69/69 98/98/98
f 69/69/69 99/99/99 98/98/98
f 69/69/69 70/70/70 99/99/99
f 70/70/70 100/100/100 99/99/99
f 70/70/70 71/71/71 100/100/100
f 71/71/71 101/101/101 100/100/100
f 71/71/71 72/72/72 101/101/101
f 72/72/72 102/102/102 101/101/101
f 72/72/72 73/73/73 102/102/102
f 73/73/73 103/103/103 102/102/102
f 73/73/73 74/74/74 103/103/103
f 74/74/74 104/104/104 103/103/103
f 74/74/74 75/75/75 104/104/104
f 75/75/75 105/105/105 104/104/104
f 75/75/75 76/76/76 105/105/105
f 76/76/76 106/106/106 105/105/105
f 76/76/76 77/77/77 106/106/106
f 77/77/77 107/107/107 106/106/106
f 77/77/77 78/78/78 107/107/107
f 78/78/78 108/108/108 107/107/107
f 78/78/78 79/79/79 108/108/108
f 79/79/79 109/109/109 108/108/108
f 79/79/79 80/80/80 109/109/109
f 80/80/80 110/110/110 109/109/109
f 80/80/80 81/81/81 110/110/110
f 81/81/81 111/111/111 110/110/110
f 81/81/81 82/82/82 111/111/111
f 82/82/82 112/112/112 111/111/111
f 82/82/82 83/83/83 112/112/112
f 83/83/83 113/113/113 112/112/112
f 83/83/83 84/84/84 113/113/113
f 84/84/84 114/114/114 113/113/113
f 84/84/84 85/85/85 114/114/114
f 85/85/85 115/115/115 114/114/114
f 85/85/85 86/86/86 115/115/115
f 86/86/86 116/116/116 115/115/115
f 86/86/86 87/87/87 116/116/116
f 88/88/88 118/118/118 117/117/117
f 88/88/88 89/89/89 118/118/118
f 89/89/89 119/119/119 118/118/118
f 89/89/89 90/90/90 119/119/119
f 90/90/90 120/120/120 119/119/119
f 90/90/90 91/91/91 120/120/120
f 91/91/91 121/121/121 120/120/120
f 91/91/91 92/92/92 121/121/121
f 92/92/92 122/122/122 121/121/121
f 92/92/92 93/93/93 122/122/122
f 93/93/93 123/123/123 122/122/122
f 93/93/93 94/94/94 123/123/123
f 94/94/94 124/124/124 123/123/123
f 94/94/94 95/95/95 124/124/124
f 95/95/95 125/125/125 124/124/124
f 95/95/95 96/96/96 125/125/125
f 96/96/96 126/126/126 125/125/125
f 96/96/96 97/97/97 126/126/126
f 97/97/97 127/127/127 126/126/126
f 97/97/97 98/98/98 127/127/127
f 98/98/98 128/128/128 127/127/127
f 98/98/98 99/99/99 128/128/128
f 99/99/99 129/129/129 128/128/128
f 99/99/99 100/100/100 129/129/129
f 100/100/100 130/130/130 129/129/129
f 100/100/100 101/101/101 130/130/130
f 101/101/101 131/131/131 130/130/130
f 101/101/101 102/102/102 131/131/131
f 102/102/102 132/132/132 131/131/131
f 102/102/102 103/103/103 132/132/132
f 103/103/103 133/133/133 132/132/132
f 103/103/103 104/104/104 133/133/133
f 104/104/104 134/134/134 133/133/133
f 104/104/104 105/105/105 134/134/134
f 105/105/105 135/135/135 134/134/134
f 105/105/105 106/106/106 135/135/135
f 106/106/106 136/136/136 135/135/135
f 106/106/106 107/107/107 136/136/136
f 107/107/107 137/137/137 136/136/136
f 107/107/107 108/108/108 137/137/137
f 108/108/108 138/138/138 137/137/137
f 108/108/108 109/109/109 138/138/138
f 109/109/109 139/139/139 138/138/138
f 109/109/109 110/110/110 139/139/139
f 110/110/110 140/140/140 139/139/139
f 110/110/110 111/111/111 140/140/140
f 111/111/111 141/141/141 140/140/140
f 111/111/111 112/112/112 141/141/141
f 112/112/112 142/142/142 141/141/141
f 112/112/112 113/113/113 142/142/142
f 113/113/113 143/143/143 142/142/142
f 113/113/113 114/114/114 143/143/143
f 114/114/114 144/144/144 143/143/143
f 114/114/114 115/115/115 144/144/144
f 115/115/115 145/145/145 144/144/144
f 115/115/115 116/116/116 145/145/145
f 117/117/117 147/147/147 146/146/146
f 117/117/117 118/118/118 147/147/147
f 118/118/118 148/148/148 147/147/147
f 118/118/118 119/119/119 148/148/148
f 119/119/119 149/149/149 148/148/148
f 119/119/119 120/120/120 149/149/149
f 120/120/120 150/150/150 149/149/149
f 120/120/120 121/121/121 150/150/150
f 121/121/121 151/151/151 150/150/150
f 121/121/121 122/122/122 151/151/151
f 122/122/122 152/152/152 151/151/151
f 122/122/122 123/123/123 152/152/152
f 123/123/123 153/153/153 152/152/152
f 123/123/123 124/124/124 153/153/153
f 124/124/124 154/154/154 153/153/153
f 124/124/124 125/125/125 154/154/154
f 125/125/125 155/155/155 154/154/154
f 125/125/125 126/126/126 155/155/155
f 126/126/126 156/156/156 155/155/155
f 126/126/126 127/127/127 156/156/156
f 127/127/127 157/157/157 156/156/156
f 127/127/127 128/128/128 157/157/157
f 128/128/128 158/158/158 157/157/157
f 128/128/128 129/129/129 158/158/158
f 129/129/129 159/159/159 158/158/158
f 129/129/129 130/130/130 159/159/159
f 130/130/130 160/160/160 159/159/159
f 130/130/130 131/131/131 160/160/160
f 131/131/131 161/161/161 160/160/160
f 131/131/131 132/132/132 161/161/161
f 132/132/132 162/162/162 161/161/161
f 132/132/132 133/133/133 162/162/162
f 133/133/133 163/163/163 162/162/162
f 133/133/133 134/134/134 163/163/163
f 134/134/134 164/164/164 163/163/163
f 134/134/134 135/135/135 164/164/164
f 135/135/135 165/165/165 164/164/164
f 135/135/135 136/136/136 165/165/165
f 136/136/136 166/166/166 165/165/165
f 136/136/136 137/137/137 166/166/166
f 137/137/137 167/167/167 166/166/166
f 137/137/137 138/138/138 167/167/167
f 138/138/138 168/168/168 167/167/167
f 138/138/138 139/139/139 168/168/168
f 139/139/139 169/169/169 168/168/168
f 139/139/139 140/140/140 169/169/169
f 140/140/140 170/170/170 169/169/169
f 140/140/140 141/141/141 170/170/170
f 141/141/141 171/171/171 170/170/170
f 141/141/141 142/142/142 171/171/171
f 142/142/142 172/172/172 171/171/171
f 142/142/142 143/143/143 172/172/172
f 143/143/143 173/173/173 172/172/172
f 143/143/143 144/144/144 173/173/173
f 144/144/144 174/174/174 173/173/173
f 144/144/144 145/145/145 174/174/174
f 146/146/146 176/176/176 175/175/175
f 146/146/146 147/147/147 176/176/176
f 147/147/147 177/177/177 176/176/176
f 147/147/147 148/148/148 177/177/177
f 148/148/148 178/178/178 177/177/177
f 148/148/148 149/149/149 178/178/178
f 149/149/149 179/179/179 178/178/178
f 149/149/149 150/150/150 179/179/179
f 150/150/150 180/180/180 179/179/179
f 150/150/150 151/151/151 180/180/180
f 151/151/151 181/181/181 180/180/180
f 151/151/151 152/152/152 181/181/181
f 152/152/152 182/182/182 181/181/181
f 152/152/152 153/153/153 182/182/182
f 153/153/153 183/183/183 182/182/182
f 153/153/153 154/154/154 183/183/183
f 154/154/154 184/184/184 183/183/183
f 154/154/154 155/155/155 184/184/184
f 155/155/155 185/185/185 184/184/184
f 155/155/155 156/156/156 185/185/185
f 156/156/156 186/186/186 185/185/185
f 156/156/156 157/157/157 186/186/186
f 157/157/157 187/187/187 186/186/186
f 157/157/157 158/158/158 187/187/187
f 158/158/158 188/188/188 187/187/187
f 158/158/158 159/159/159 188/188/188
f 159/159/159 189/189/189 188/188/188
f 159/159/159 160/160/160 189/189/189
f 160/160/160 190/190/190 189/189/189
f 160/160/160 161/161/161 190/190/190
f 161/161/161 191/191/191 190/190/190
f 161/161/161 162/162/162 191/191/191
f 162/162/162 192/192/192 191/191/191
f 162/162/162 163/163/163 192/192/192
f 163/163/163 193/193/193 192/192/192
f 163/163/163 164/164/164 193/193/193
f 164/164/164 194/194/194 193/193/193
f 164/164/164 165/165/165 194/194/194
f 165/165/165 195/195/195 194/194/194
f 165/165/165 166/166/166 195/195/195
f 166/166/166 196/196/196 195/195/195
f 166/166/166 167/167/167 196/196/196
f 167/167/167 197/197/197 196/196/196
f 167/167/167 168/168/168 197/197/197
f 168/168/168 198/198/198 197/197/197
f 168/168/168 169/169/169 198/198/198
f 169/169/169 199/199/199 198/198/198
f 169/169/169 170/170/170 199/199/199
f 170/170/170 200/200/200 199/199/199
f 170/170/170 171/171/171 200/200/200
f 171/171/171 201/201/201 200/200/200
f 171/171/171 172/172/172 201/201/201
f 172/172/172 202/202/202 201/201/201
f 172/172/172 173/173/173 202/202/202
f 173/173/173 203/203/203 202/202/202
f 173/173/173 174/174/174 203/203/203
f 175/175/175 205/205/205 204/204/204
f 175/175/175 176/176/176 205/205/205
f 176/176/176 206/206/206 205/205/205
f 176/176/176 177/177/177 206/206/206
f 177/177/177 207/207/207 206/206/206
f 177/177/177 178/178/178 207/207/207
f 178/178/178 208/208/208 207/207/207
f 178/178/178 179/179/179 208/208/208
f 179/179/179 209/209/209 208/208/208
f 179/179/179 180/180/180 209/209/209
f 180/180/180 210/210/210 209/209/209
f 180/180/180 181/181/181 210/210/210
f 181/181/181 211/211/211 210/210/210
f 181/181/181 182/182/182 211/211/211
f 182/182/182 212/212/212 211/211/211
f 182/182/182 183/183/183 212/212/212
f 183/183/183 213/213/213 212/212/212
f 183/183/183 184/184/184 213/213/213
f 184/184/184 214/214/214 213/213/213
f 184/184/184 185/185/185 214/214/214
f 185/185/185 215/215/215 214/214/214
f 185/185/185 186/186/186 215/215/215
f 186/186/186 216/216/216 215/215/215
f 186/186/186 187/187/187 216/216/216
f 187/187/187 217/217/217 216/216/216
f 187/187/187 188/188/188 217/217/217
f 188/188/188 218/218/218 217/217/217
f 188/188/188 189/189/189 218/218/218
f 189/189/189 219/219/219 218/218/218
f 189/189/189 190/190/190 219/219/219
f 190/190/190 220/220/220 219/219/219
f 190/190/190 191/191/191 220/220/220
f 191/191/191 221/221/221 220/220/220
f 191/191/191 192/192/192 221/221/221
f 192/192/192 222/222/222 221/221/221
f 192/192/192 193/193/193 222/222/222
f 193/193/193 223/223/223 222/222/222
f 193/193/193 194/194/194 223/223/223
f 194/194/194 224/224/224 223/223/223
f 194/194/194 195/195/195 224/224/224
f 195/195/195 225/225/225 224/224/224
f 195/195/195 196/196/196 225/225/225
f 196/196/196 226/226/226 225/225/225
f 196/196/196 197/197/197 226/226/226
f 197/197/197 227/227/227 226/226/226
f 197/197/197 198/198/198 227/227/227
f 198/198/198 228/228/228 227/227/227
f 198/198/198 199/199/199 228/228/228
f 199/199/199 229/229/229 228/228/228
f 199/199/199 200/200/200 229/229/229
f 200/200/200 230/230/230 229/229/229
f 200/200/200 201/201/201 230/230/230
f 201/201/201 231/231/231 230/230/230
f 201/201/201 202/202/202 231/231/231
f 202/202/202 232/232/232 231/231/231
f 202/202/202 203/203/203 232/232/232
f 204/204/204 234/234/234 233/233/233
f 204/204/204 205/205/205 234/234/234
f 205/205/205 235/235/235 234/234/234
f 205/205/205 206/206/206 235/235/235
f 206/206/206 236/236/236 235/235/235
f 206/206/206 207/207/207 236/236/236
f 207/207/207 237/237/237 236/236/236
f 207/207/207 208/208/208 237/237/237
f 208/208/208 238/238/238 237/237/237
f 208/208/208 209/209/209 238/238/238
f 209/209/209 239/239/239 238/238/238
f 209/209/209 210/210/210 239/239/239
f 210/210/210 240/240/240 239/239/239
f 210/210/210 211/211/211 240/240/240
f 211/211/211 241/241/241 240/240/240
f 211/211/211 212/212/212 241/241/241
f 212/212/212 242/242/242 241/241/241
f 212/212/212 213/213/213 242/242/242
f 213/213/213 243/243/243 242/242/242
f 213/213/213 214/214/214 243/243/243
f 214/214/214 244/244/244 243/243/243
f 214/214/214 215/215/215 244/244/244
f 215/215/215 245/245/245 244/244/244
f 215/215/215 216/216/216 245/245/245
f 216/216/216 246/246/246 245/245/245
f 216/216/216 217/217/217 246/246/246
f 217/217/217 247/247/247 246/246/246
f 217/217/217 218/218/218 247/247/247
f 218/218/218 248/248/248 247/247/247
f 218/218/218 219/219/219 248/248/248
f 219/219/219 249/249/249 248/248/248
f 219/219/219 220/220/220 249/249/249
f 220/220/220 250/250/250 249/249/249
f 220/220/220 221/221/221 250/250/250
f 221/221/221 251/251/251 250/250/250
f 221/221/221 222/222/222 251/251/251
f 222/222/222 252/252/252 251/251/251
f 222/222/222 223/223/223 252/252/252
f 223/223/223 253/253/253 252/252/252
f 223/223/223 224/224/224 253/253/253
f 224/224/224 254/254/254 253/253/253
f 224/224/224 225/225/225 254/254/254
f 225/225/225 255/255/255 254/254/254
f 225/225/225 226/226/226 255/255/255
f 226/226/226 256/256/256 255/255/255
f 226/226/226 227/227/227 256/256/256
f 227/227/227 257/257/257 256/256/256
f 227/227/227 228/228/228 257/257/257
f 228/228/228 258/258/258 257/257/257
f 228/228/228 229/229/229 258/258/258
f 229/229/229 259/259/259 258/258/258
f 229/229/229 230/230/230 259/259/259
f 230/230/230 260/260/260 259/259/259
f 230/230/230 231/231/231 260/260/260
f 231/231/231 261/261/261 260/260/260
f 231/231/231 232/232/232 261/261/261
f 233/233/233 263/263/263 262/262/262
f 233/233/233 234/234/234 263/263/263
f 234/234/234 264/264/264 263/263/263
f 234/234/234 235/235/235 264/264/264
f 235/235/235 265/265/265 264/264/264
f 235/235/235 236/236/236 265/265/265
f 236/236/236 266/266/266 265/265/265
f 236/236/236 237/237/237 266/266/266
f 237/237/237 267/267/267 266/266/266
f 237/237/237 238/238/238 267/267/267
f 238/238/238 268/268/268 267/267/267
f 238/238/238 239/239/239 268/268/268
f 239/239/239 269/269/269 268/268/268
f 239/239/239 240/240/240 269/269/269
f 240/240/240 270/270/270 269/269/269
f 240/240/240 241/241/241 270/270/270
f 241/241/241 271/271/271 270/270/270
f 241/241/241 242/242/242 271/271/271
f 242/242/242 272/272/272 271/271/271
f 242/242/242 243/243/243 272/272/272
f 243/243/243 273/273/273 272/272/272
f 243/243/243 244/244/244 273/273/273
f 244/244/244 274/274/274 273/273/273
f 244/244/244 245/245/245 274/274/274
f 245/245/245 275/275/275 274/274/274
f 245/245/245 246/246/246 275/275/275
f 246/246/246 276/276/276 275/275/275
f 246/246/246 247/247/247 276/276/276
f 247/247/247 277/277/277 276/276/276
f 247/247/247 248/248/248 277/277/277
f 248/248/248 278/278/278 277/277/277
f 248/248/248 249/249/249 278/278/278
f 249/249/249 279/279/279 278/278/278
f 249/249/249 250/250/250 279/279/279
f 250/250/250 280/280/280 279/279/279
f 250/250/250 251/251/251 280/280/280
f 251/251/251 281/281/281 280/280/280
f 251/251/251 252/252/252 281/281/281
f 252/252/252 282/282/282 281/281/281
f 252/252/252 253/253/253 282/282/282
f 253/253/253 283/283/283 282/282/282
f 253/253/253 254/254/254 283/283/283
f 254/254/254 284/284/284 283/283/283
f 254/254/254 255/255/255 284/284/284
f 255/255/255 285/285/285 284/284/284
f 255/255/255 256/256/256 285/285/285
f 256/256/256 286/286/286 285/285/285
f 256/256/256 257/257/257 286/286/286
f 257/257/257 287/287/287 286/286/286
f 257/257/257 258/258/258 287/287/287
f 258/258/258 288/288/288 287/287/287
f 258/258/258 259/259/259 288/288/288
f 259/259/259 289/289/289 288/288/288
f 259/259/259 260/260/260 289/289/289
f 260/260/260 290/290/290 289/289/289
f 260/260/260 261/261/261 290/290/290
f 262/262/262 292/292/292 291/291/291
f 262/262/262 263/263/263 292/292/292
f 263/263/263 293/293/293 292/292/292
f 263/263/263 264/264/264 293/293/293
f 264/264/264 294/294/294 293/293/293
f 264/264/264 265/265/265 294/294/294
f 265/265/265 295/295/295 294/294/294
f 265/265/265 266/266/266 295/295/295
f 266/266/266 296/296/296 295/295/295
f 266/266/266 267/267/267 296/296/296
f 267/267/267 297/297/297 296/296/296
f 267/267/267 268/268/268 297/297/297
f 268/268/268 298/298/298 297/297/297
f 268/268/268 269/269/269 298/298/298
f 269/269/269 299/299/299 298/298/298
f 269/269/269 270/270/270 299/299/299
f 270/270/270 300/300/300 299/299/299
f 270/270/270 271/271/271 300/300/300
f 271/271/271 301/301/301 300/300/300
f 271/271/271 272/272/272 301/301/301
f 272/272/272 302/302/302 301/301/301
f 272/272/272 273/273/273 302/302/302
f 273/273/273 303/303/303 302/302/302
f 273/273/273 274/274/274 303/303/303
f 274/274/274 304/304/304 303/303/303
f 274/274/274 275/275/275 304/304/304
f 275/275/275 305/305/305 304/304/304
f 275/275/275 276/276/276 305/305/305
f 276/276/276 306/306/306 305/305/305
f 276/276/276 277/277/277 306/306/306
f 277/277/277 307/307/307 306/306/306
f 277/277/277 278/278/278 307/307/307
f 278/278/278 308/308/308 307/307/307
f 278/278/278 279/279/279 308/308/308
f 279/279/279 309/309/309 308/308/308
f 279/279/279 280/280/280 309/309/309
f 280/280/280 310/310/310 309/309/309
f 280/280/280 281/281/281 310/310/310
f 281/281/281 311/311/311 310/310/310
f 281/281/281 282/282/282 311/311/311
f 282/282/282 312/312/312 311/311/311
f 282/282/282 283/283/283 312/312/312
f 283/283/283 313/313/313 312/312/312
f 283/283/283 284/284/284 313/313/313
f 284/284/284 314/314/314 313/313/313
f 284/284/284 285/285/285 314/314/314
f 285/285/285 315/315/315 314/314/314
f 285/285/285 286/286/286 315/315/315
f 286/286/286 316/316/316 315/315/315
f 286/286/286 287/287/287 316/316/316
f 287/287/287 317/317/317 316/316/316
f 287/287/287 288/288/288 317/317/317
f 288/288/288 318/318/318 317/317/317
f 288/288/288 289/289/289 318/318/318
f 289/289/289 319/319/319 318/318/318
f 289/289/289 290/290/290 319/319/319
f 291/291/291 321/321/321 320/320/320
f 291/291/291 292/292/292 321/321/321
f 292/292/292 322/322/322 321/321/321
f 292/292/292 293/293/293 322/322/322
f 293/293/293 323/323/323 322/322/322
f 293/293/293 294/294/294 323/323/323
f 294/294/294 324/324/324 323/323/323
f 294/294/294 295/295/295 324/324/324
f 295/295/295 325/325/325 324/324/324
f 295/295/295 296/296/296 325/325/325
f 296/296/296 326/326/326 325/325/325
f 296/296/296 297/297/297 326/326/326
f 297/297/297 327/327/327 326/326/326
f 297/297/297 298/298/298 327/327/327
f 298/298/298 328/328/328 327/327/327
f 298/298/298 299/299/299 328/328/328
f 299/299/299 329/329/329 328/328/328
f 299/299/299 300/300/300 329/329/329
f 300/300/300 330/330/330 329/329/329
f 300/300/300 301/301/301 330/330/330
f 301/301/301 331/331/331 330/330/330
f 301/301/301 302/302/302 331/331/331
f 302/302/302 332/332/332 331/331/331
f 302/302/302 303/303/303 332/332/332
f 303/303/303 333/333/333 332/332/332
f 303/303/303 304/304/304 333/333/333
f 304/304/304 334/334/334 333/333/333
f 304/304/304 305/305/305 334/334/334
f 305/305/305 335/335/335 334/334/334
f 305/305/305 306/306/306 335/335/335
f 306/306/306 336/336/336 335/335/335
f 306/306/306 307/307/307 336/336/336
f 307/307/307 337/337/337 336/336/336
f 307/307/307 308/308/308 337/337/337
f 308/308/308 338/338/338 337/337/337
f 308/308/308 309/309/309 338/338/338
f 309/309/309 339/339/339 338/338/338
f 309/309/309 310/310/310 339/339/339
f 310/310/310 340/340/340 339/339/339
f 310/310/310 311/311/311 340/340/340
f 311/311/311 341/341/341 340/340/340
f 311/311/311 312/312/312 341/341/341
f 312/312/312 342/342/342 341/341/341
f 312/312/312 313/313/313 342/342/342
f 313/313/313 343/343/343 342/342/342
f 313/313/313 314/314/314 343/343/343
f 314/314/314 344/344/344 343/343/343
f 314/314/314 315/315/315 344/344/344
f 315/315/315 345/345/345 344/344/344
f 315/315/315 316/316/316 345/345/345
f 316/316/316 346/346/346 345/345/345
f 316/316/316 317/317/317 346/346/346
f 317/317/317 347/347/347 346/346/346
f 317/317/317 318/318/318 347/347/347
f 318/318/318 348/348/348 347/347/347
f 318/318/318 319/319/319 348/348/348
f 320/320/320 350/350/350 349/349/349
f 320/320/320 321/321/321 350/350/350
f 321/321/321 351/351/351 350/350/350
f 321/321/321 322/322/322 351/351/351
f 322/322/322 352/352/352 351/351/351
f 322/322/322 323/323/323 352/352/352
f 323/323/323 353/353/353 352/352/352
f 323/323/323 324/324/324 353/353/353
f 324/324/324 354/354/354 353/353/353
f 324/324/324 325/325/325 354/354/354
f 325/325/325 355/355/355 354/354/354
f 325/325/325 326/326/326 355/355/355
f 326/326/326 356/356/356 355/355/355
f 326/326/326 327/327/327 356/356/356
f 327/327/327 357/357/357 356/356/356
f 327/327/327 328/328/328 357/357/357
f 328/328/328 358/358/358 357/357/357
f 328/328/328 329/329/329 358/358/358
f 329/329/329 359/359/359 358/358/358
f 329/329/329 330/330/330 359/359/359
f 330/330/330 360/360/360 359/359/359
f 330/330/330 331/331/331 360/360/360
f 331/331/331 361/361/361 360/360/360
f 331/331/331 332/332/332 361/361/361
f 332/332/332 362/362/362 361/361/361
f 332/332/332 333/333/333 362/362/362
f 333/333/333 363/363/363 362/362/362
f 333/333/333 334/334/334 363/363/363
f 334/334/334 364/364/364 363/363/363
f 334/334/334 335/335/335 364/364/364
f 335/335/335 365/365/365 364/364/364
f 335/335/335 336/336/336 365/365/365
f 336/336/336 366/366/366 365/365/365
f 336/336/336 337/337/337 366/366/366
f 337/337/337 367/367/367 366/366/366
f 337/337/337 338/338/338 367/367/367
f 338/338/338 368/368/368 367/367/367
f 338/338/338 339/339/339 368/368/368
f 339/339/339 369/369/369 368/368/368
f 339/339/339 340/340/340 369/369/369
f 340/340/340 370/370/370 369/369/369
f 340/340/340 341/341/341 370/370/370
f 341/341/341 371/371/371 370/370/370
f 341/341/341 342/342/342 371/371/371
f 342/342/342 372/372/372 371/371/371
f 342/342/342 343/343/343 372/372/372
f 343/343/343 373/373/373 372/372/372
f 343/343/343 344/344/344 373/373/373
f 344/344/344 374/374/374 373/373/373
f 344/344/344 345/345/345 374/374/374
f 345/345/345 375/375/375 374/374/374
f 345/345/345 346/346/346 375/375/375
f 346/346/346 376/376/376 375/375/375
f 346/346/346 347/347/347 376/376/376
f 347/347/347 377/377/377 376/376/376
f 347/347/347 348/348/348 377/377/377
f 349/349/349 379/379/379 378/378/378
f 349/349/349 350/350/350 379/379/379
f 350/350/350 380/380/380 379/379/379
f 350/350/350 351/351/351 380/380/380
f 351/351/351 381/381/381 380/380/380
f 351/351/351 352/352/352 381/381/381
f 352/352/352 382/382/382 381/381/381
f 352/352/352 353/353/353 382/382/382
f 353/353/353 383/383/383 382/382/382
f 353/353/353 354/354/354 383/383/383
f 354/354/354 384/384/384 383/383/383
f 354/354/354 355/355/355 384/384/384
f 355/355/355 385/385/385 384/384/384
f 355/355/355 356/356/356 385/385/385
f 356/356/356 386/386/386 385/385/385
f 356/356/356 357/357/357 386/386/386
f 357/357/357 387/387/387 386/386/386
f 357/357/357 358/358/358 387/387/387
f 358/358/358 388/388/388 387/387/387
f 358/358/358 359/359/359 388/388/388
f 359/359/359 389/389/389 388/388/388
f 359/359/359 360/360/360 389/389/389
f 360/360/360 390/390/390 389/389/389
f 360/360/360 361/361/361 390/390/390
f 361/361/361 391/391/391 390/390/390
f 361/361/361 362/362/362 391/391/391
f 362/362/362 392/392/392 391/391/391
f 362/362/362 363/363/363 392/392/392
f 363/363/363 393/393/393 392/392/392
f 363/363/363 364/364/364 393/393/393
f 364/364/364 394/394/394 393/393/393
f 364/364/364 365/365/365 394/394/394
f 365/365/365 395/395/395 394/394/394
f 365/365/365 366/366/366 395/395/395
f 366/366/366 396/396/396 395/395/395
f 366/366/366 367/367/367 396/396/396
f 367/367/367 397/397/397 396/396/396
f 367/367/367 368/368/368 397/397/397
f 368/368/368 398/398/398 397/397/397
f 368/368/368 369/369/369 398/398/398
f 369/369/369 399/399/399 398/398/398
f 369/369/369 370/370/370 399/399/399
f 370/370/370 400/400/400 399/399/399
f 370/370/370 371/371/371 400/400/400
f 371/371/371 401/401/401 400/400/400
f 371/371/371 372/372/372 401/401/401
f 372/372/372 402/402/402 401/401/401
f 372/372/372 373/373/373 402/402/402
f 373/373/373 403/403/403 402/402/402
f 373/373/373 374/374/374 403/403/403
f 374/374/374 404/404/404 403/403/403
f 374/374/374 375/375/375 404/404/404
f 375/375/375 405/405/405 404/404/404
f 375/375/375 376/376/376 405/405/405
f 376/376/376 406/406/406 405/405/405
f 376/376/376 377/377/377 406/406/406
f 378/378/378 408/408/408 407/407/407
f 378/378/378 379/379/379 408/408/408
f 379/379/379 409/409/409 408/408/408
f 379/379/379 380/380/380 409/409/409
f 380/380/380 410/410/410 409/409/409
f 380/380/380 381/381/381 410/410/410
f 381/381/381 411/411/411 410/410/410
f 381/381/381 382/382/382 411/411/411
f 382/382/382 412/412/412 411/411/411
f 382/382/382 383/383/383 412/412/412
f 383/383/383 413/413/413 412/412/412
f 383/383/383 384/384/384 413/413/413
f 384/384/384 414/414/414 413/413/413
f 384/384/384 385/385/385 414/414/414
f 385/385/385 415/415/415 414/414/414
f 385/385/385 386/386/386 415/415/415
f 386/386/386 416/416/416 415/415/415
f 386/386/386 387/387/387 416/416/416
f 387/387/387 417/417/417 416/416/416
f 387/387/387 388/388/388 417/417/417
f 388/388/388 418/418/418 417/417/417
f 388/388/388 389/389/389 418/418/418
f 389/389/389 419/419/419 418/418/418
f 389/389/389 390/390/390 419/419/419
f 390/390/390 420/420/420 419/419/419
f 390/390/390 391/391/391 420/420/420
f 391/391/391 421/421/421 420/420/420
f 391/391/391 392/392/392 421/421/421
f 392/392/392 422/422/422 421/421/421
f 392/392/392 393/393/393 422/422/422
f 393/393/393 423/423/423 422/422/422
f 393/393/393 394/394/394 423/423/423
f 394/394/394 424/424/424 423/423/423
f 394/394/394 395/395/395 424/424/424
f 395/395/395 425/425/425 424/424/424
f 395/395/395 396/396/396 425/425/425
f 396/396/396 426/426/426 425/425/425
f 396/396/396 397/397/397 426/426/426
f 397/397/397 427/427/427 426/426/426
f 397/397/397 398/398/398 427/427/427
f 398/398/398 428/428/428 427/427/427
f 398/398/398 399/399/399 428/428/428
f 399/399/399 429/429/429 428/428/428
f 399/399/399 400/400/400 429/429/429
f 400/400/400 430/430/430 429/429/429
f 400/400/400 401/401/401 430/430/430
f 401/401/401 431/431/431 430/430/430
f 401/401/401 402/402/402 431/431/431
f 402/402/402 432/432/432 431/431/431
f 402/402/402 403/403/403 432/432/432
f 403/403/403 433/433/433 432/432/432
f 403/403/403 404/404/404 433/433/433
f 404/404/404 434/434/434 433/433/433
f 404/404/404 405/405/405 434/434/434
f 405/405/405 435/435/435 434/434/434
f 405/405/405 406/406/406 435/435/435
f 407/407/407 437/437/437 436/436/436
f 407/407/407 408/408/408 437/437/437
f 408/408/408 438/438/438 437/437/437
f 408/408/408 409/409/409 438/438/438
f 409/409/409 439/439/439 438/438/438
f 409/409/409 410/410/410 439/439/439
f 410/410/410 440/440/440 439/439/439
f 410/410/410 411/411/411 440/440/440
f 411/411/411 441/441/441 440/440/440
f 411/411/411 412/412/412 441/441/441
f 412/412/412 442/442/442 441/441/441
f 412/412/412 413/413/413 442/442/442
f 413/413/413 443/443/443 442/442/442
f 413/413/413 414/414/414 443/443/443
f 414/414/414 444/444/444 443/443/443
f 414/414/414 415/415/415 444/444/444
f 415/415/415 445/445/445 444/444/444
f 415/415/415 416/416/416 445/445/445
f 416/416/416 446/446/446 445/445/445
f 416/416/416 417/417/417 446/446/446
f 417/417/417 447/447/447 446/446/446
f 417/417/417 418/418/418 447/447/447
f 418/418/418 448/448/448 447/447/447
f 418/418/418 419/419/419 448/448/448
f 419/419/419 449/449/449 448/448/448
f 419/419/419 420/420/420 449/449/449
f 420/420/420 450/450/450 449/449/449
f 420/420/420 421/421/421 450/450/450
f 421/421/421 451/451/451 450/450/450
f 421/421/421 422/422/422 451/451/451
f 422/422/422 452/452/452 451/451/451
f 422/422/422 423/423/423 452/452/452
f 423/423/423 453/453/453 452/452/452
f 423/423/423 424/424/424 453/453/453
f 424/424/424 454/454/454 453/453/453
f 424/424/424 425/425/425 454/454/454
f 425/425/425 455/455/455 454/454/454
f 425/425/425 426/426/426 455/455/455
f 426/426/426 456/456/456 455/455/455
f 426/426/426 427/427/427 456/456/456
f 427/427/427 457/457/457 456/456/456
f 427/427/427 428/428/428 457/457/457
f 428/428/428 458/458/458 457/457/457
f 428/428/428 429/429/429 458/458/458
f 429/429/429 459/459/459 458/458/458
f 429/429/429 430/430/430 459/459/459
f 430/430/430 460/460/460 459/459/459
f 430/430/430 431/431/431 460/460/460
f 431/431/431 461/461/461 460/460/460
f 431/431/431 432/432/432 461/461/461
f 432/432/432 462/462/462 461/461/461
f 432/432/432 433/433/433 462/462/462
f 433/433/433 463/463/463 462/462/462
f 433/433/433 434/434/434 463/463/463
f 434/434/434 464/464/464 463/463/463
f 434/434/434 435/435/435 464/464/464
