# generated by tools/make_gecko_eye.py -- eyelid
v 0.000815 0.003479 0.003944
v 0.000815 0.003479 0.003944
v 0.000815 0.003479 0.003944
v 0.000815 0.003479 0.003944
v 0.000815 0.003479 0.003944
v 0.000815 0.003479 0.003944
v 0.000815 0.003479 0.003944
v 0.000815 0.003479 0.003944
v 0.000815 0.003479 0.003944
v 0.000815 0.003479 0.003944
v 0.000815 0.003479 0.003944
v 0.000815 0.003479 0.003944
v 0.000815 0.003479 0.003944
v 0.000815 0.003479 0.003944
v 0.000815 0.003479 0.003944
v 0.000815 0.003479 0.003944
v 0.000815 0.003479 0.003944
v 0.000815 0.003479 0.003944
v 0.000815 0.003479 0.003944
v 0.000815 0.003479 0.003944
v 0.000815 0.003479 0.003944
v 0.000815 0.003479 0.003944
v 0.000815 0.003479 0.003944
v 0.000815 0.003479 0.003944
v 0.000815 0.003479 0.003944
v 0.000815 0.003479 0.003944
v 0.000815 0.003479 0.003944
v 0.000815 0.003479 0.003944
v 0.000815 0.003479 0.003944
v 0.000815 0.003479 0.003944
v 0.000815 0.003479 0.003944
v 0.000815 0.003479 0.003944
v 0.000815 0.003479 0.003944
v 0.000811 0.003915 0.003584
v 0.000702 0.003915 0.003603
v 0.000597 0.003898 0.003633
v 0.000501 0.003864 0.003675
v 0.000416 0.003815 0.003727
v 0.000346 0.003752 0.003786
v 0.000295 0.003678 0.003850
v 0.000263 0.003596 0.003917
v 0.000252 0.003508 0.003983
v 0.000263 0.003419 0.004048
v 0.000295 0.003332 0.004108
v 0.000346 0.003249 0.004160
v 0.000416 0.003174 0.004203
v 0.000501 0.003111 0.004236
v 0.000597 0.003061 0.004256
v 0.000702 0.003027 0.004263
v 0.000811 0.003009 0.004258
v 0.000920 0.003008 0.004239
v 0.001025 0.003025 0.004208
v 0.001122 0.003059 0.004166
v 0.001206 0.003108 0.004115
v 0.001276 0.003171 0.004056
v 0.001328 0.003245 0.003992
v 0.001359 0.003328 0.003925
v 0.001370 0.003415 0.003858
v 0.001359 0.003504 0.003793
v 0.001328 0.003592 0.003734
v 0.001276 0.003675 0.003681
v 0.001206 0.003749 0.003638
v 0.001122 0.003812 0.003606
v 0.001025 0.003862 0.003585
v 0.000920 0.003897 0.003578
v 0.000811 0.003915 0.003584
v 0.000799 0.004310 0.003180
v 0.000582 0.004311 0.003218
v 0.000373 0.004277 0.003279
v 0.000181 0.004210 0.003363
v 0.000013 0.004112 0.003465
v -0.000126 0.003987 0.003582
v -0.000228 0.003840 0.003709
v -0.000292 0.003676 0.003842
v -0.000313 0.003502 0.003975
v -0.000292 0.003325 0.004104
v -0.000228 0.003150 0.004222
v -0.000126 0.002986 0.004326
v 0.000013 0.002838 0.004412
v 0.000181 0.002712 0.004477
v 0.000373 0.002613 0.004517
v 0.000582 0.002544 0.004532
v 0.000799 0.002509 0.004521
v 0.001016 0.002508 0.004483
v 0.001224 0.002542 0.004422
v 0.001417 0.002609 0.004338
v 0.001585 0.002707 0.004236
v 0.001723 0.002832 0.004119
v 0.001826 0.002979 0.003992
v 0.001889 0.003143 0.003859
v 0.001911 0.003317 0.003726
v 0.001889 0.003494 0.003597
v 0.001826 0.003668 0.003479
v 0.001723 0.003833 0.003374
v 0.001585 0.003981 0.003288
v 0.001417 0.004107 0.003224
v 0.001224 0.004206 0.003184
v 0.001016 0.004275 0.003169
v 0.000799 0.004310 0.003180
v 0.000779 0.004662 0.002738
v 0.000456 0.004663 0.002794
v 0.000146 0.004613 0.002885
v -0.000139 0.004513 0.003009
v -0.000390 0.004367 0.003161
v -0.000595 0.004182 0.003335
v -0.000748 0.003963 0.003524
v -0.000842 0.003720 0.003722
v -0.000874 0.003461 0.003920
v -0.000842 0.003197 0.004110
v -0.000748 0.002938 0.004287
v -0.000595 0.002694 0.004442
v -0.000390 0.002474 0.004570
v -0.000139 0.002286 0.004665
v 0.000146 0.002139 0.004725
v 0.000456 0.002037 0.004747
v 0.000779 0.001984 0.004730
v 0.001101 0.001983 0.004675
v 0.001411 0.002033 0.004583
v 0.001697 0.002133 0.004459
v 0.001947 0.002279 0.004307
v 0.002153 0.002464 0.004133
v 0.002305 0.002683 0.003944
v 0.002400 0.002927 0.003747
v 0.002431 0.003185 0.003549
v 0.002400 0.003449 0.003358
v 0.002305 0.003708 0.003182
v 0.002153 0.003952 0.003027
v 0.001947 0.004172 0.002899
v 0.001697 0.004360 0.002803
v 0.001411 0.004507 0.002743
v 0.001101 0.004609 0.002721
v 0.000779 0.004662 0.002738
v 0.000751 0.004966 0.002262
v 0.000326 0.004967 0.002335
v -0.000082 0.004901 0.002456
v -0.000458 0.004769 0.002619
v -0.000787 0.004578 0.002819
v -0.001058 0.004333 0.003048
v -0.001259 0.004045 0.003297
v -0.001383 0.003725 0.003557
v -0.001425 0.003385 0.003817
v -0.001383 0.003038 0.004068
v -0.001259 0.002697 0.004300
v -0.001058 0.002375 0.004504
v -0.000787 0.002086 0.004673
v -0.000458 0.001839 0.004799
v -0.000082 0.001645 0.004878
v 0.000326 0.001510 0.004907
v 0.000751 0.001441 0.004884
v 0.001175 0.001439 0.004811
v 0.001583 0.001506 0.004691
v 0.001959 0.001637 0.004528
v 0.002289 0.001829 0.004328
v 0.002559 0.002073 0.004099
v 0.002760 0.002361 0.003849
v 0.002884 0.002681 0.003590
v 0.002926 0.003022 0.003329
v 0.002884 0.003369 0.003078
v 0.002760 0.003710 0.002846
v 0.002559 0.004031 0.002642
v 0.002289 0.004321 0.002474
v 0.001959 0.004568 0.002348
v 0.001583 0.004762 0.002269
v 0.001175 0.004896 0.002240
v 0.000751 0.004966 0.002262
v 0.000715 0.005218 0.001758
v 0.000193 0.005220 0.001847
v -0.000308 0.005139 0.001995
v -0.000771 0.004977 0.002196
v -0.001176 0.004741 0.002442
v -0.001508 0.004441 0.002724
v -0.001755 0.004087 0.003030
v -0.001908 0.003693 0.003349
v -0.001959 0.003275 0.003669
v -0.001908 0.002848 0.003978
v -0.001755 0.002429 0.004263
v -0.001508 0.002034 0.004514
v -0.001176 0.001678 0.004721
v -0.000771 0.001374 0.004876
v -0.000308 0.001136 0.004973
v 0.000193 0.000970 0.005008
v 0.000715 0.000885 0.004981
v 0.001237 0.000883 0.004891
v 0.001738 0.000965 0.004743
v 0.002201 0.001126 0.004542
v 0.002606 0.001362 0.004297
v 0.002938 0.001662 0.004015
v 0.003186 0.002016 0.003709
v 0.003338 0.002410 0.003389
v 0.003389 0.002828 0.003069
v 0.003338 0.003255 0.002761
v 0.003186 0.003674 0.002475
v 0.002938 0.004070 0.002225
v 0.002606 0.004426 0.002018
v 0.002201 0.004729 0.001863
v 0.001738 0.004968 0.001766
v 0.001237 0.005133 0.001730
v 0.000715 0.005218 0.001758
v 0.000672 0.005416 0.001230
v 0.000059 0.005419 0.001336
v -0.000531 0.005323 0.001510
v -0.001074 0.005133 0.001746
v -0.001550 0.004856 0.002035
v -0.001941 0.004503 0.002366
v -0.002232 0.004087 0.002726
v -0.002411 0.003624 0.003101
v -0.002471 0.003132 0.003477
v -0.002411 0.002630 0.003840
v -0.002232 0.002137 0.004176
v -0.001941 0.001673 0.004470
v -0.001550 0.001254 0.004714
v -0.001074 0.000898 0.004896
v -0.000531 0.000617 0.005010
v 0.000059 0.000423 0.005051
v 0.000672 0.000323 0.005019
v 0.001286 0.000321 0.004914
v 0.001875 0.000416 0.004740
v 0.002419 0.000606 0.004504
v 0.002895 0.000883 0.004215
v 0.003286 0.001237 0.003884
v 0.003577 0.001653 0.003524
v 0.003755 0.002115 0.003148
v 0.003816 0.002607 0.002772
v 0.003755 0.003109 0.002409
v 0.003577 0.003602 0.002074
v 0.003286 0.004066 0.001779
v 0.002895 0.004485 0.001536
v 0.002419 0.004841 0.001354
v 0.001875 0.005122 0.001240
v 0.001286 0.005316 0.001198
v 0.000672 0.005416 0.001230
v 0.000623 0.005559 0.000686
v -0.000075 0.005561 0.000805
v -0.000746 0.005452 0.001003
v -0.001365 0.005236 0.001272
v -0.001907 0.004921 0.001601
v -0.002352 0.004518 0.001978
v -0.002683 0.004045 0.002388
v -0.002887 0.003518 0.002815
v -0.002955 0.002958 0.003244
v -0.002887 0.002387 0.003657
v -0.002683 0.001826 0.004038
v -0.002352 0.001297 0.004374
v -0.001907 0.000821 0.004651
v -0.001365 0.000415 0.004858
v -0.000746 0.000095 0.004988
v -0.000075 -0.000126 0.005035
v 0.000623 -0.000240 0.004999
v 0.001321 -0.000242 0.004879
v 0.001993 -0.000133 0.004681
v 0.002611 0.000083 0.004412
v 0.003154 0.000398 0.004083
v 0.003599 0.000800 0.003706
v 0.003929 0.001274 0.003296
v 0.004133 0.001801 0.002869
v 0.004202 0.002361 0.002440
v 0.004133 0.002932 0.002027
v 0.003929 0.003493 0.001646
v 0.003599 0.004022 0.001310
v 0.003154 0.004498 0.001033
v 0.002611 0.004904 0.000826
v 0.001993 0.005224 0.000696
v 0.001321 0.005445 0.000649
v 0.000623 0.005559 0.000686
v 0.000568 0.005643 0.000129
v -0.000208 0.005646 0.000262
v -0.000953 0.005525 0.000482
v -0.001640 0.005285 0.000781
v -0.002242 0.004935 0.001146
v -0.002737 0.004488 0.001565
v -0.003104 0.003962 0.002020
v -0.003330 0.003377 0.002495
v -0.003406 0.002755 0.002970
v -0.003330 0.002120 0.003429
v -0.003104 0.001497 0.003853
v -0.002737 0.000910 0.004226
v -0.002242 0.000381 0.004533
v -0.001640 -0.000070 0.004764
v -0.000953 -0.000425 0.004908
v -0.000208 -0.000670 0.004960
v 0.000568 -0.000797 0.004919
v 0.001343 -0.000800 0.004786
v 0.002089 -0.000679 0.004566
v 0.002776 -0.000438 0.004268
v 0.003378 -0.000088 0.003903
v 0.003872 0.000358 0.003484
v 0.004240 0.000884 0.003029
v 0.004466 0.001470 0.002554
v 0.004542 0.002091 0.002078
v 0.004466 0.002726 0.001620
v 0.004240 0.003349 0.001196
v 0.003872 0.003936 0.000823
v 0.003378 0.004465 0.000516
v 0.002776 0.004916 0.000285
v 0.002089 0.005271 0.000141
v 0.001343 0.005517 0.000088
v 0.000568 0.005643 0.000129
v 0.000677 0.002888 0.003150
v 0.000677 0.002888 0.003150
v 0.000677 0.002888 0.003150
v 0.000677 0.002888 0.003150
v 0.000677 0.002888 0.003150
v 0.000677 0.002888 0.003150
v 0.000677 0.002888 0.003150
v 0.000677 0.002888 0.003150
v 0.000677 0.002888 0.003150
v 0.000677 0.002888 0.003150
v 0.000677 0.002888 0.003150
v 0.000677 0.002888 0.003150
v 0.000677 0.002888 0.003150
v 0.000677 0.002888 0.003150
v 0.000677 0.002888 0.003150
v 0.000677 0.002888 0.003150
v 0.000677 0.002888 0.003150
v 0.000677 0.002888 0.003150
v 0.000677 0.002888 0.003150
v 0.000677 0.002888 0.003150
v 0.000677 0.002888 0.003150
v 0.000677 0.002888 0.003150
v 0.000677 0.002888 0.003150
v 0.000677 0.002888 0.003150
v 0.000677 0.002888 0.003150
v 0.000677 0.002888 0.003150
v 0.000677 0.002888 0.003150
v 0.000677 0.002888 0.003150
v 0.000677 0.002888 0.003150
v 0.000677 0.002888 0.003150
v 0.000677 0.002888 0.003150
v 0.000677 0.002888 0.003150
v 0.000677 0.002888 0.003150
v 0.000673 0.003243 0.002856
v 0.000585 0.003243 0.002871
v 0.000499 0.003229 0.002896
v 0.000420 0.003202 0.002931
v 0.000351 0.003162 0.002972
v 0.000295 0.003111 0.003020
v 0.000253 0.003050 0.003073
v 0.000227 0.002983 0.003127
v 0.000218 0.002912 0.003182
v 0.000227 0.002839 0.003234
v 0.000253 0.002768 0.003283
v 0.000295 0.002700 0.003325
v 0.000351 0.002640 0.003361
v 0.000420 0.002588 0.003387
v 0.000499 0.002548 0.003404
v 0.000585 0.002519 0.003410
v 0.000673 0.002505 0.003405
v 0.000762 0.002505 0.003390
v 0.000848 0.002518 0.003364
v 0.000926 0.002546 0.003330
v 0.000996 0.002586 0.003288
v 0.001052 0.002637 0.003240
v 0.001094 0.002698 0.003188
v 0.001120 0.002765 0.003134
v 0.001129 0.002836 0.003079
v 0.001120 0.002909 0.003027
v 0.001094 0.002980 0.002978
v 0.001052 0.003047 0.002935
v 0.000996 0.003108 0.002900
v 0.000926 0.003160 0.002874
v 0.000848 0.003200 0.002857
v 0.000762 0.003228 0.002851
v 0.000673 0.003243 0.002856
v 0.000663 0.003565 0.002527
v 0.000487 0.003566 0.002558
v 0.000317 0.003538 0.002608
v 0.000160 0.003484 0.002676
v 0.000023 0.003404 0.002759
v -0.000090 0.003302 0.002854
v -0.000174 0.003182 0.002958
v -0.000225 0.003049 0.003066
v -0.000243 0.002907 0.003175
v -0.000225 0.002762 0.003279
v -0.000174 0.002620 0.003376
v -0.000090 0.002486 0.003461
v 0.000023 0.002366 0.003531
v 0.000160 0.002263 0.003584
v 0.000317 0.002182 0.003616
v 0.000487 0.002126 0.003628
v 0.000663 0.002097 0.003619
v 0.000840 0.002097 0.003589
v 0.001010 0.002124 0.003539
v 0.001167 0.002179 0.003471
v 0.001304 0.002259 0.003387
v 0.001417 0.002361 0.003292
v 0.001500 0.002481 0.003188
v 0.001552 0.002614 0.003080
v 0.001569 0.002756 0.002972
v 0.001552 0.002900 0.002867
v 0.001500 0.003042 0.002770
v 0.001417 0.003176 0.002685
v 0.001304 0.003297 0.002615
v 0.001167 0.003400 0.002563
v 0.001010 0.003481 0.002530
v 0.000840 0.003536 0.002518
v 0.000663 0.003565 0.002527
v 0.000647 0.003852 0.002167
v 0.000384 0.003853 0.002212
v 0.000132 0.003812 0.002287
v -0.000101 0.003730 0.002388
v -0.000305 0.003612 0.002511
v -0.000473 0.003460 0.002653
v -0.000597 0.003282 0.002808
v -0.000674 0.003084 0.002968
v -0.000700 0.002873 0.003130
v -0.000674 0.002658 0.003285
v -0.000597 0.002447 0.003429
v -0.000473 0.002248 0.003555
v -0.000305 0.002069 0.003659
v -0.000101 0.001916 0.003737
v 0.000132 0.001796 0.003786
v 0.000384 0.001713 0.003804
v 0.000647 0.001670 0.003790
v 0.000910 0.001669 0.003745
v 0.001162 0.001710 0.003670
v 0.001395 0.001791 0.003569
v 0.001599 0.001910 0.003445
v 0.001767 0.002061 0.003304
v 0.001891 0.002240 0.003149
v 0.001968 0.002438 0.002989
v 0.001994 0.002648 0.002827
v 0.001968 0.002863 0.002672
v 0.001891 0.003075 0.002528
v 0.001767 0.003274 0.002402
v 0.001599 0.003453 0.002298
v 0.001395 0.003606 0.002220
v 0.001162 0.003726 0.002171
v 0.000910 0.003809 0.002153
v 0.000647 0.003852 0.002167
v 0.000624 0.004099 0.001779
v 0.000278 0.004101 0.001839
v -0.000054 0.004047 0.001937
v -0.000361 0.003939 0.002070
v -0.000629 0.003783 0.002233
v -0.000850 0.003584 0.002419
v -0.001013 0.003350 0.002622
v -0.001114 0.003089 0.002834
v -0.001148 0.002811 0.003046
v -0.001114 0.002528 0.003251
v -0.001013 0.002250 0.003440
v -0.000850 0.001989 0.003606
v -0.000629 0.001753 0.003743
v -0.000361 0.001552 0.003846
v -0.000054 0.001393 0.003910
v 0.000278 0.001284 0.003934
v 0.000624 0.001227 0.003915
v 0.000970 0.001226 0.003856
v 0.001302 0.001280 0.003758
v 0.001609 0.001387 0.003625
v 0.001877 0.001543 0.003462
v 0.002098 0.001743 0.003275
v 0.002262 0.001977 0.003072
v 0.002362 0.002238 0.002861
v 0.002396 0.002515 0.002648
v 0.002362 0.002798 0.002444
v 0.002262 0.003076 0.002255
v 0.002098 0.003338 0.002089
v 0.001877 0.003574 0.001951
v 0.001609 0.003775 0.001849
v 0.001302 0.003933 0.001784
v 0.000970 0.004043 0.001761
v 0.000624 0.004099 0.001779
v 0.000595 0.004305 0.001368
v 0.000170 0.004307 0.001441
v -0.000239 0.004240 0.001562
v -0.000615 0.004108 0.001725
v -0.000946 0.003917 0.001926
v -0.001216 0.003672 0.002155
v -0.001418 0.003383 0.002405
v -0.001542 0.003062 0.002665
v -0.001584 0.002722 0.002926
v -0.001542 0.002374 0.003177
v -0.001418 0.002032 0.003409
v -0.001216 0.001710 0.003614
v -0.000946 0.001420 0.003782
v -0.000615 0.001173 0.003909
v -0.000239 0.000978 0.003988
v 0.000170 0.000844 0.004017
v 0.000595 0.000775 0.003994
v 0.001020 0.000773 0.003921
v 0.001429 0.000839 0.003801
v 0.001806 0.000971 0.003637
v 0.002136 0.001163 0.003437
v 0.002407 0.001408 0.003207
v 0.002608 0.001696 0.002958
v 0.002732 0.002017 0.002698
v 0.002774 0.002358 0.002437
v 0.002732 0.002706 0.002185
v 0.002608 0.003047 0.001953
v 0.002407 0.003369 0.001748
v 0.002136 0.003659 0.001580
v 0.001806 0.003906 0.001454
v 0.001429 0.004101 0.001375
v 0.001020 0.004236 0.001346
v 0.000595 0.004305 0.001368
v 0.000560 0.004467 0.000938
v 0.000061 0.004468 0.001024
v -0.000420 0.004390 0.001166
v -0.000863 0.004236 0.001358
v -0.001251 0.004010 0.001594
v -0.001569 0.003722 0.001863
v -0.001806 0.003383 0.002157
v -0.001952 0.003006 0.002463
v -0.002001 0.002605 0.002769
v -0.001952 0.002196 0.003065
v -0.001806 0.001795 0.003338
v -0.001569 0.001416 0.003578
v -0.001251 0.001075 0.003776
v -0.000863 0.000785 0.003925
v -0.000420 0.000556 0.004018
v 0.000061 0.000398 0.004052
v 0.000560 0.000316 0.004025
v 0.001060 0.000314 0.003940
v 0.001541 0.000392 0.003798
v 0.001983 0.000547 0.003606
v 0.002372 0.000773 0.003370
v 0.002690 0.001061 0.003100
v 0.002927 0.001400 0.002807
v 0.003072 0.001777 0.002501
v 0.003122 0.002178 0.002194
v 0.003072 0.002587 0.001899
v 0.002927 0.002988 0.001626
v 0.002690 0.003367 0.001385
v 0.002372 0.003708 0.001187
v 0.001983 0.003998 0.001039
v 0.001541 0.004227 0.000946
v 0.001060 0.004385 0.000912
v 0.000560 0.004467 0.000938
v 0.000520 0.004582 0.000494
v -0.000049 0.004585 0.000592
v -0.000596 0.004496 0.000753
v -0.001100 0.004320 0.000972
v -0.001542 0.004063 0.001240
v -0.001904 0.003735 0.001547
v -0.002174 0.003349 0.001881
v -0.002340 0.002920 0.002230
v -0.002396 0.002464 0.002579
v -0.002340 0.001998 0.002915
v -0.002174 0.001541 0.003226
v -0.001904 0.001110 0.003500
v -0.001542 0.000722 0.003725
v -0.001100 0.000391 0.003894
v -0.000596 0.000131 0.004000
v -0.000049 -0.000049 0.004039
v 0.000520 -0.000142 0.004009
v 0.001089 -0.000144 0.003911
v 0.001636 -0.000055 0.003750
v 0.002140 0.000121 0.003531
v 0.002582 0.000378 0.003263
v 0.002945 0.000705 0.002956
v 0.003214 0.001091 0.002622
v 0.003380 0.001521 0.002273
v 0.003436 0.001977 0.001924
v 0.003380 0.002442 0.001588
v 0.003214 0.002899 0.001277
v 0.002945 0.003330 0.001003
v 0.002582 0.003718 0.000778
v 0.002140 0.004049 0.000609
v 0.001636 0.004310 0.000503
v 0.001089 0.004490 0.000464
v 0.000520 0.004582 0.000494
v 0.000475 0.004651 0.000041
v -0.000157 0.004654 0.000150
v -0.000764 0.004555 0.000329
v -0.001324 0.004359 0.000572
v -0.001815 0.004074 0.000870
v -0.002217 0.003710 0.001211
v -0.002517 0.003281 0.001582
v -0.002701 0.002805 0.001968
v -0.002763 0.002298 0.002356
v -0.002701 0.001781 0.002730
v -0.002517 0.001273 0.003075
v -0.002217 0.000795 0.003379
v -0.001815 0.000364 0.003630
v -0.001324 -0.000004 0.003817
v -0.000764 -0.000293 0.003935
v -0.000157 -0.000493 0.003978
v 0.000475 -0.000596 0.003944
v 0.001107 -0.000598 0.003836
v 0.001714 -0.000500 0.003657
v 0.002274 -0.000304 0.003413
v 0.002765 -0.000019 0.003116
v 0.003168 0.000345 0.002775
v 0.003467 0.000774 0.002404
v 0.003651 0.001251 0.002017
v 0.003713 0.001757 0.001629
v 0.003651 0.002274 0.001256
v 0.003467 0.002782 0.000910
v 0.003168 0.003261 0.000606
v 0.002765 0.003692 0.000356
v 0.002274 0.004059 0.000168
v 0.001714 0.004348 0.000051
v 0.001107 0.004548 0.000008
v 0.000475 0.004651 0.000041
vt 0.22000 0.90000
vt 0.22000 0.90000
vt 0.22000 0.90000
vt 0.22000 0.90000
vt 0.22000 0.90000
vt 0.22000 0.90000
vt 0.22000 0.90000
vt 0.22000 0.90000
vt 0.22000 0.90000
vt 0.22000 0.90000
vt 0.22000 0.90000
vt 0.22000 0.90000
vt 0.22000 0.90000
vt 0.22000 0.90000
vt 0.22000 0.90000
vt 0.22000 0.90000
vt 0.22000 0.90000
vt 0.22000 0.90000
vt 0.22000 0.90000
vt 0.22000 0.90000
vt 0.22000 0.90000
vt 0.22000 0.90000
vt 0.22000 0.90000
vt 0.22000 0.90000
vt 0.22000 0.90000
vt 0.22000 0.90000
vt 0.22000 0.90000
vt 0.22000 0.90000
vt 0.22000 0.90000
vt 0.22000 0.90000
vt 0.22000 0.90000
vt 0.22000 0.90000
vt 0.22000 0.90000
vt 0.22625 0.90000
vt 0.22613 0.89971
vt 0.22577 0.89943
vt 0.22520 0.89917
vt 0.22442 0.89894
vt 0.22347 0.89875
vt 0.22239 0.89861
vt 0.22122 0.89853
vt 0.22000 0.89850
vt 0.21878 0.89853
vt 0.21761 0.89861
vt 0.21653 0.89875
vt 0.21558 0.89894
vt 0.21480 0.89917
vt 0.21423 0.89943
vt 0.21387 0.89971
vt 0.21375 0.90000
vt 0.21387 0.90029
vt 0.21423 0.90057
vt 0.21480 0.90083
vt 0.21558 0.90106
vt 0.21653 0.90125
vt 0.21761 0.90139
vt 0.21878 0.90147
vt 0.22000 0.90150
vt 0.22122 0.90147
vt 0.22239 0.90139
vt 0.22347 0.90125
vt 0.22442 0.90106
vt 0.22520 0.90083
vt 0.22577 0.90057
vt 0.22613 0.90029
vt 0.22625 0.90000
vt 0.23250 0.90000
vt 0.23226 0.89941
vt 0.23155 0.89885
vt 0.23039 0.89833
vt 0.22884 0.89788
vt 0.22694 0.89751
vt 0.22478 0.89723
vt 0.22244 0.89706
vt 0.22000 0.89700
vt 0.21756 0.89706
vt 0.21522 0.89723
vt 0.21306 0.89751
vt 0.21116 0.89788
vt 0.20961 0.89833
vt 0.20845 0.89885
vt 0.20774 0.89941
vt 0.20750 0.90000
vt 0.20774 0.90059
vt 0.20845 0.90115
vt 0.20961 0.90167
vt 0.21116 0.90212
vt 0.21306 0.90249
vt 0.21522 0.90277
vt 0.21756 0.90294
vt 0.22000 0.90300
vt 0.22244 0.90294
vt 0.22478 0.90277
vt 0.22694 0.90249
vt 0.22884 0.90212
vt 0.23039 0.90167
vt 0.23155 0.90115
vt 0.23226 0.90059
vt 0.23250 0.90000
vt 0.23875 0.90000
vt 0.23839 0.89912
vt 0.23732 0.89828
vt 0.23559 0.89750
vt 0.23326 0.89682
vt 0.23042 0.89626
vt 0.22718 0.89584
vt 0.22366 0.89559
vt 0.22000 0.89550
vt 0.21634 0.89559
vt 0.21282 0.89584
vt 0.20958 0.89626
vt 0.20674 0.89682
vt 0.20441 0.89750
vt 0.20268 0.89828
vt 0.20161 0.89912
vt 0.20125 0.90000
vt 0.20161 0.90088
vt 0.20268 0.90172
vt 0.20441 0.90250
vt 0.20674 0.90318
vt 0.20958 0.90374
vt 0.21282 0.90416
vt 0.21634 0.90441
vt 0.22000 0.90450
vt 0.22366 0.90441
vt 0.22718 0.90416
vt 0.23042 0.90374
vt 0.23326 0.90318
vt 0.23559 0.90250
vt 0.23732 0.90172
vt 0.23839 0.90088
vt 0.23875 0.90000
vt 0.24500 0.90000
vt 0.24452 0.89883
vt 0.24310 0.89770
vt 0.24079 0.89667
vt 0.23768 0.89576
vt 0.23389 0.89501
vt 0.22957 0.89446
vt 0.22488 0.89412
vt 0.22000 0.89400
vt 0.21512 0.89412
vt 0.21043 0.89446
vt 0.20611 0.89501
vt 0.20232 0.89576
vt 0.19921 0.89667
vt 0.19690 0.89770
vt 0.19548 0.89883
vt 0.19500 0.90000
vt 0.19548 0.90117
vt 0.19690 0.90230
vt 0.19921 0.90333
vt 0.20232 0.90424
vt 0.20611 0.90499
vt 0.21043 0.90554
vt 0.21512 0.90588
vt 0.22000 0.90600
vt 0.22488 0.90588
vt 0.22957 0.90554
vt 0.23389 0.90499
vt 0.23768 0.90424
vt 0.24079 0.90333
vt 0.24310 0.90230
vt 0.24452 0.90117
vt 0.24500 0.90000
vt 0.25125 0.90000
vt 0.25065 0.89854
vt 0.24887 0.89713
vt 0.24598 0.89583
vt 0.24210 0.89470
vt 0.23736 0.89376
vt 0.23196 0.89307
vt 0.22610 0.89264
vt 0.22000 0.89250
vt 0.21390 0.89264
vt 0.20804 0.89307
vt 0.20264 0.89376
vt 0.19790 0.89470
vt 0.19402 0.89583
vt 0.19113 0.89713
vt 0.18935 0.89854
vt 0.18875 0.90000
vt 0.18935 0.90146
vt 0.19113 0.90287
vt 0.19402 0.90417
vt 0.19790 0.90530
vt 0.20264 0.90624
vt 0.20804 0.90693
vt 0.21390 0.90736
vt 0.22000 0.90750
vt 0.22610 0.90736
vt 0.23196 0.90693
vt 0.23736 0.90624
vt 0.24210 0.90530
vt 0.24598 0.90417
vt 0.24887 0.90287
vt 0.25065 0.90146
vt 0.25125 0.90000
vt 0.25750 0.90000
vt 0.25678 0.89824
vt 0.25465 0.89656
vt 0.25118 0.89500
vt 0.24652 0.89364
vt 0.24083 0.89252
vt 0.23435 0.89169
vt 0.22732 0.89117
vt 0.22000 0.89100
vt 0.21268 0.89117
vt 0.20565 0.89169
vt 0.19917 0.89252
vt 0.19348 0.89364
vt 0.18882 0.89500
vt 0.18535 0.89656
vt 0.18322 0.89824
vt 0.18250 0.90000
vt 0.18322 0.90176
vt 0.18535 0.90344
vt 0.18882 0.90500
vt 0.19348 0.90636
vt 0.19917 0.90748
vt 0.20565 0.90831
vt 0.21268 0.90883
vt 0.22000 0.90900
vt 0.22732 0.90883
vt 0.23435 0.90831
vt 0.24083 0.90748
vt 0.24652 0.90636
vt 0.25118 0.90500
vt 0.25465 0.90344
vt 0.25678 0.90176
vt 0.25750 0.90000
vt 0.26375 0.90000
vt 0.26291 0.89795
vt 0.26042 0.89598
vt 0.25638 0.89417
vt 0.25094 0.89258
vt 0.24431 0.89127
vt 0.23674 0.89030
vt 0.22854 0.88970
vt 0.22000 0.88950
vt 0.21146 0.88970
vt 0.20326 0.89030
vt 0.19569 0.89127
vt 0.18906 0.89258
vt 0.18362 0.89417
vt 0.17958 0.89598
vt 0.17709 0.89795
vt 0.17625 0.90000
vt 0.17709 0.90205
vt 0.17958 0.90402
vt 0.18362 0.90583
vt 0.18906 0.90742
vt 0.19569 0.90873
vt 0.20326 0.90970
vt 0.21146 0.91030
vt 0.22000 0.91050
vt 0.22854 0.91030
vt 0.23674 0.90970
vt 0.24431 0.90873
vt 0.25094 0.90742
vt 0.25638 0.90583
vt 0.26042 0.90402
vt 0.26291 0.90205
vt 0.26375 0.90000
vt 0.27000 0.90000
vt 0.26904 0.89766
vt 0.26619 0.89541
vt 0.26157 0.89333
vt 0.25536 0.89151
vt 0.24778 0.89002
vt 0.23913 0.88891
vt 0.22975 0.88823
vt 0.22000 0.88800
vt 0.21025 0.88823
vt 0.20087 0.88891
vt 0.19222 0.89002
vt 0.18464 0.89151
vt 0.17843 0.89333
vt 0.17381 0.89541
vt 0.17096 0.89766
vt 0.17000 0.90000
vt 0.17096 0.90234
vt 0.17381 0.90459
vt 0.17843 0.90667
vt 0.18464 0.90849
vt 0.19222 0.90998
vt 0.20087 0.91109
vt 0.21025 0.91177
vt 0.22000 0.91200
vt 0.22975 0.91177
vt 0.23913 0.91109
vt 0.24778 0.90998
vt 0.25536 0.90849
vt 0.26157 0.90667
vt 0.26619 0.90459
vt 0.26904 0.90234
vt 0.27000 0.90000
vt 0.22000 0.90000
vt 0.22000 0.90000
vt 0.22000 0.90000
vt 0.22000 0.90000
vt 0.22000 0.90000
vt 0.22000 0.90000
vt 0.22000 0.90000
vt 0.22000 0.90000
vt 0.22000 0.90000
vt 0.22000 0.90000
vt 0.22000 0.90000
vt 0.22000 0.90000
vt 0.22000 0.90000
vt 0.22000 0.90000
vt 0.22000 0.90000
vt 0.22000 0.90000
vt 0.22000 0.90000
vt 0.22000 0.90000
vt 0.22000 0.90000
vt 0.22000 0.90000
vt 0.22000 0.90000
vt 0.22000 0.90000
vt 0.22000 0.90000
vt 0.22000 0.90000
vt 0.22000 0.90000
vt 0.22000 0.90000
vt 0.22000 0.90000
vt 0.22000 0.90000
vt 0.22000 0.90000
vt 0.22000 0.90000
vt 0.22000 0.90000
vt 0.22000 0.90000
vt 0.22000 0.90000
vt 0.22625 0.90000
vt 0.22613 0.89971
vt 0.22577 0.89943
vt 0.22520 0.89917
vt 0.22442 0.89894
vt 0.22347 0.89875
vt 0.22239 0.89861
vt 0.22122 0.89853
vt 0.22000 0.89850
vt 0.21878 0.89853
vt 0.21761 0.89861
vt 0.21653 0.89875
vt 0.21558 0.89894
vt 0.21480 0.89917
vt 0.21423 0.89943
vt 0.21387 0.89971
vt 0.21375 0.90000
vt 0.21387 0.90029
vt 0.21423 0.90057
vt 0.21480 0.90083
vt 0.21558 0.90106
vt 0.21653 0.90125
vt 0.21761 0.90139
vt 0.21878 0.90147
vt 0.22000 0.90150
vt 0.22122 0.90147
vt 0.22239 0.90139
vt 0.22347 0.90125
vt 0.22442 0.90106
vt 0.22520 0.90083
vt 0.22577 0.90057
vt 0.22613 0.90029
vt 0.22625 0.90000
vt 0.23250 0.90000
vt 0.23226 0.89941
vt 0.23155 0.89885
vt 0.23039 0.89833
vt 0.22884 0.89788
vt 0.22694 0.89751
vt 0.22478 0.89723
vt 0.22244 0.89706
vt 0.22000 0.89700
vt 0.21756 0.89706
vt 0.21522 0.89723
vt 0.21306 0.89751
vt 0.21116 0.89788
vt 0.20961 0.89833
vt 0.20845 0.89885
vt 0.20774 0.89941
vt 0.20750 0.90000
vt 0.20774 0.90059
vt 0.20845 0.90115
vt 0.20961 0.90167
vt 0.21116 0.90212
vt 0.21306 0.90249
vt 0.21522 0.90277
vt 0.21756 0.90294
vt 0.22000 0.90300
vt 0.22244 0.90294
vt 0.22478 0.90277
vt 0.22694 0.90249
vt 0.22884 0.90212
vt 0.23039 0.90167
vt 0.23155 0.90115
vt 0.23226 0.90059
vt 0.23250 0.90000
vt 0.23875 0.90000
vt 0.23839 0.89912
vt 0.23732 0.89828
vt 0.23559 0.89750
vt 0.23326 0.89682
vt 0.23042 0.89626
vt 0.22718 0.89584
vt 0.22366 0.89559
vt 0.22000 0.89550
vt 0.21634 0.89559
vt 0.21282 0.89584
vt 0.20958 0.89626
vt 0.20674 0.89682
vt 0.20441 0.89750
vt 0.20268 0.89828
vt 0.20161 0.89912
vt 0.20125 0.90000
vt 0.20161 0.90088
vt 0.20268 0.90172
vt 0.20441 0.90250
vt 0.20674 0.90318
vt 0.20958 0.90374
vt 0.21282 0.90416
vt 0.21634 0.90441
vt 0.22000 0.90450
vt 0.22366 0.90441
vt 0.22718 0.90416
vt 0.23042 0.90374
vt 0.23326 0.90318
vt 0.23559 0.90250
vt 0.23732 0.90172
vt 0.23839 0.90088
vt 0.23875 0.90000
vt 0.24500 0.90000
vt 0.24452 0.89883
vt 0.24310 0.89770
vt 0.24079 0.89667
vt 0.23768 0.89576
vt 0.23389 0.89501
vt 0.22957 0.89446
vt 0.22488 0.89412
vt 0.22000 0.89400
vt 0.21512 0.89412
vt 0.21043 0.89446
vt 0.20611 0.89501
vt 0.20232 0.89576
vt 0.19921 0.89667
vt 0.19690 0.89770
vt 0.19548 0.89883
vt 0.19500 0.90000
vt 0.19548 0.90117
vt 0.19690 0.90230
vt 0.19921 0.90333
vt 0.20232 0.90424
vt 0.20611 0.90499
vt 0.21043 0.90554
vt 0.21512 0.90588
vt 0.22000 0.90600
vt 0.22488 0.90588
vt 0.22957 0.90554
vt 0.23389 0.90499
vt 0.23768 0.90424
vt 0.24079 0.90333
vt 0.24310 0.90230
vt 0.24452 0.90117
vt 0.24500 0.90000
vt 0.25125 0.90000
vt 0.25065 0.89854
vt 0.24887 0.89713
vt 0.24598 0.89583
vt 0.24210 0.89470
vt 0.23736 0.89376
vt 0.23196 0.89307
vt 0.22610 0.89264
vt 0.22000 0.89250
vt 0.21390 0.89264
vt 0.20804 0.89307
vt 0.20264 0.89376
vt 0.19790 0.89470
vt 0.19402 0.89583
vt 0.19113 0.89713
vt 0.18935 0.89854
vt 0.18875 0.90000
vt 0.18935 0.90146
vt 0.19113 0.90287
vt 0.19402 0.90417
vt 0.19790 0.90530
vt 0.20264 0.90624
vt 0.20804 0.90693
vt 0.21390 0.90736
vt 0.22000 0.90750
vt 0.22610 0.90736
vt 0.23196 0.90693
vt 0.23736 0.90624
vt 0.24210 0.90530
vt 0.24598 0.90417
vt 0.24887 0.90287
vt 0.25065 0.90146
vt 0.25125 0.90000
vt 0.25750 0.90000
vt 0.25678 0.89824
vt 0.25465 0.89656
vt 0.25118 0.89500
vt 0.24652 0.89364
vt 0.24083 0.89252
vt 0.23435 0.89169
vt 0.22732 0.89117
vt 0.22000 0.89100
vt 0.21268 0.89117
vt 0.20565 0.89169
vt 0.19917 0.89252
vt 0.19348 0.89364
vt 0.18882 0.89500
vt 0.18535 0.89656
vt 0.18322 0.89824
vt 0.18250 0.90000
vt 0.18322 0.90176
vt 0.18535 0.90344
vt 0.18882 0.90500
vt 0.19348 0.90636
vt 0.19917 0.90748
vt 0.20565 0.90831
vt 0.21268 0.90883
vt 0.22000 0.90900
vt 0.22732 0.90883
vt 0.23435 0.90831
vt 0.24083 0.90748
vt 0.24652 0.90636
vt 0.25118 0.90500
vt 0.25465 0.90344
vt 0.25678 0.90176
vt 0.25750 0.90000
vt 0.26375 0.90000
vt 0.26291 0.89795
vt 0.26042 0.89598
vt 0.25638 0.89417
vt 0.25094 0.89258
vt 0.24431 0.89127
vt 0.23674 0.89030
vt 0.22854 0.88970
vt 0.22000 0.88950
vt 0.21146 0.88970
vt 0.20326 0.89030
vt 0.19569 0.89127
vt 0.18906 0.89258
vt 0.18362 0.89417
vt 0.17958 0.89598
vt 0.17709 0.89795
vt 0.17625 0.90000
vt 0.17709 0.90205
vt 0.17958 0.90402
vt 0.18362 0.90583
vt 0.18906 0.90742
vt 0.19569 0.90873
vt 0.20326 0.90970
vt 0.21146 0.91030
vt 0.22000 0.91050
vt 0.22854 0.91030
vt 0.23674 0.90970
vt 0.24431 0.90873
vt 0.25094 0.90742
vt 0.25638 0.90583
vt 0.26042 0.90402
vt 0.26291 0.90205
vt 0.26375 0.90000
vt 0.27000 0.90000
vt 0.26904 0.89766
vt 0.26619 0.89541
vt 0.26157 0.89333
vt 0.25536 0.89151
vt 0.24778 0.89002
vt 0.23913 0.88891
vt 0.22975 0.88823
vt 0.22000 0.88800
vt 0.21025 0.88823
vt 0.20087 0.88891
vt 0.19222 0.89002
vt 0.18464 0.89151
vt 0.17843 0.89333
vt 0.17381 0.89541
vt 0.17096 0.89766
vt 0.17000 0.90000
vt 0.17096 0.90234
vt 0.17381 0.90459
vt 0.17843 0.90667
vt 0.18464 0.90849
vt 0.19222 0.90998
vt 0.20087 0.91109
vt 0.21025 0.91177
vt 0.22000 0.91200
vt 0.22975 0.91177
vt 0.23913 0.91109
vt 0.24778 0.90998
vt 0.25536 0.90849
vt 0.26157 0.90667
vt 0.26619 0.90459
vt 0.26904 0.90234
vt 0.27000 0.90000
vn -0.13321 -0.63267 -0.76288
vn -0.12319 -0.63189 -0.76521
vn -0.11376 -0.62951 -0.76862
vn -0.10527 -0.62562 -0.77299
vn -0.09805 -0.62038 -0.77815
vn -0.09238 -0.61397 -0.78390
vn -0.08847 -0.60666 -0.79003
vn -0.08648 -0.59871 -0.79628
vn -0.08648 -0.59044 -0.80244
vn -0.08847 -0.58216 -0.80825
vn -0.09238 -0.57419 -0.81349
vn -0.09805 -0.56684 -0.81797
vn -0.10527 -0.56039 -0.82151
vn -0.11376 -0.55508 -0.82398
vn -0.12319 -0.55113 -0.82527
vn -0.13321 -0.54868 -0.82535
vn -0.14342 -0.54783 -0.82421
vn -0.15343 -0.54861 -0.82188
vn -0.16286 -0.55099 -0.81847
vn -0.17135 -0.55487 -0.81410
vn -0.17857 -0.56012 -0.80894
vn -0.18424 -0.56652 -0.80318
vn -0.18815 -0.57384 -0.79706
vn -0.19014 -0.58179 -0.79080
vn -0.19014 -0.59006 -0.78465
vn -0.18815 -0.59834 -0.77884
vn -0.18424 -0.60631 -0.77359
vn -0.17857 -0.61366 -0.76912
vn -0.17135 -0.62011 -0.76557
vn -0.16286 -0.62541 -0.76311
vn -0.15343 -0.62937 -0.76181
vn -0.14342 -0.63181 -0.76174
vn 0.00000 0.00000 0.00000
vn -0.12458 -0.69171 -0.71135
vn -0.10896 -0.68410 -0.72120
vn -0.08661 -0.67963 -0.72842
vn -0.06622 -0.67159 -0.73796
vn -0.04857 -0.66028 -0.74944
vn -0.03434 -0.64615 -0.76244
vn -0.02407 -0.62973 -0.77644
vn -0.01815 -0.61165 -0.79092
vn -0.01682 -0.59261 -0.80531
vn -0.02013 -0.57335 -0.81906
vn -0.02795 -0.55459 -0.83165
vn -0.03998 -0.53707 -0.84259
vn -0.05575 -0.52145 -0.85146
vn -0.07466 -0.50834 -0.85791
vn -0.09599 -0.49824 -0.86171
vn -0.11891 -0.49154 -0.86270
vn -0.14254 -0.48849 -0.86085
vn -0.16598 -0.48921 -0.85623
vn -0.18832 -0.49368 -0.84901
vn -0.20871 -0.50172 -0.83947
vn -0.22636 -0.51303 -0.82799
vn -0.24060 -0.52716 -0.81499
vn -0.25087 -0.54358 -0.80099
vn -0.25678 -0.56166 -0.78651
vn -0.25811 -0.58070 -0.77212
vn -0.25481 -0.59996 -0.75837
vn -0.24699 -0.61872 -0.74578
vn -0.23496 -0.63624 -0.73484
vn -0.21919 -0.65186 -0.72597
vn -0.20028 -0.66497 -0.71952
vn -0.17895 -0.67507 -0.71572
vn -0.15603 -0.68178 -0.71473
vn -0.14793 -0.67081 -0.72672
vn -0.11236 -0.76125 -0.63865
vn -0.08853 -0.75041 -0.65502
vn -0.04863 -0.74310 -0.66741
vn -0.01205 -0.72942 -0.68396
vn 0.01979 -0.70987 -0.70405
vn 0.04568 -0.68523 -0.72689
vn 0.06462 -0.65643 -0.75162
vn 0.07587 -0.62458 -0.77727
vn 0.07901 -0.59090 -0.80287
vn 0.07392 -0.55669 -0.82742
vn 0.06080 -0.52327 -0.85000
vn 0.04014 -0.49191 -0.86972
vn 0.01274 -0.46382 -0.88584
vn -0.02035 -0.44009 -0.89772
vn -0.05785 -0.42162 -0.90493
vn -0.09832 -0.40912 -0.90717
vn -0.14021 -0.40308 -0.90436
vn -0.18191 -0.40372 -0.89661
vn -0.22182 -0.41103 -0.88423
vn -0.25839 -0.42471 -0.86767
vn -0.29024 -0.44425 -0.84759
vn -0.31612 -0.46890 -0.82474
vn -0.33506 -0.49770 -0.80002
vn -0.34631 -0.52955 -0.77437
vn -0.34946 -0.56323 -0.74877
vn -0.34437 -0.59743 -0.72421
vn -0.33124 -0.63086 -0.70164
vn -0.31058 -0.66222 -0.68191
vn -0.28318 -0.69031 -0.66580
vn -0.25009 -0.71404 -0.65391
vn -0.21259 -0.73251 -0.64671
vn -0.17212 -0.74501 -0.64447
vn -0.15502 -0.73622 -0.65875
vn -0.09869 -0.82423 -0.55760
vn -0.06598 -0.81318 -0.57825
vn -0.00785 -0.80294 -0.59600
vn 0.04552 -0.78341 -0.61984
vn 0.09210 -0.75533 -0.64884
vn 0.13008 -0.71979 -0.68189
vn 0.15801 -0.67815 -0.71774
vn 0.17482 -0.63201 -0.75498
vn 0.17985 -0.58315 -0.79221
vn 0.17293 -0.53344 -0.82798
vn 0.15430 -0.48479 -0.86091
vn 0.12469 -0.43907 -0.88976
vn 0.08524 -0.39804 -0.91340
vn 0.03745 -0.36328 -0.93093
vn -0.01682 -0.33612 -0.94167
vn -0.07550 -0.31761 -0.94521
vn -0.13633 -0.30845 -0.94142
vn -0.19698 -0.30900 -0.93044
vn -0.25510 -0.31924 -0.91269
vn -0.30848 -0.33878 -0.88886
vn -0.35506 -0.36685 -0.85986
vn -0.39304 -0.40240 -0.82680
vn -0.42097 -0.44404 -0.79096
vn -0.43778 -0.49018 -0.75371
vn -0.44281 -0.53904 -0.71649
vn -0.43588 -0.58875 -0.68072
vn -0.41726 -0.63740 -0.64778
vn -0.38765 -0.68312 -0.61894
vn -0.34819 -0.72414 -0.59530
vn -0.30041 -0.75891 -0.57777
vn -0.24614 -0.78606 -0.56703
vn -0.18746 -0.80458 -0.56348
vn -0.16112 -0.79960 -0.57851
vn -0.08386 -0.87866 -0.47002
vn -0.04241 -0.86826 -0.49429
vn 0.03358 -0.85516 -0.51728
vn 0.10344 -0.82990 -0.54824
vn 0.16446 -0.79346 -0.58598
vn 0.21431 -0.74724 -0.62905
vn 0.25107 -0.69302 -0.67579
vn 0.27333 -0.63287 -0.72440
vn 0.28023 -0.56912 -0.77303
vn 0.27151 -0.50421 -0.81979
vn 0.24750 -0.44064 -0.86289
vn 0.20913 -0.38084 -0.90068
vn 0.15787 -0.32712 -0.93170
vn 0.09568 -0.28154 -0.95477
vn 0.02497 -0.24586 -0.96898
vn -0.05156 -0.22144 -0.97381
vn -0.13096 -0.20922 -0.96906
vn -0.21018 -0.20967 -0.95492
vn -0.28617 -0.22278 -0.93192
vn -0.35602 -0.24804 -0.90096
vn -0.41705 -0.28448 -0.86322
vn -0.46690 -0.33070 -0.82015
vn -0.50366 -0.38492 -0.77341
vn -0.52592 -0.44506 -0.72480
vn -0.53282 -0.50881 -0.67617
vn -0.52410 -0.57372 -0.62941
vn -0.50009 -0.63730 -0.58631
vn -0.46172 -0.69709 -0.54852
vn -0.41046 -0.75081 -0.51750
vn -0.34827 -0.79639 -0.49444
vn -0.27756 -0.83208 -0.48022
vn -0.20103 -0.85650 -0.47539
vn -0.16559 -0.85528 -0.49100
vn -0.06809 -0.92365 -0.37713
vn -0.01826 -0.91434 -0.40454
vn 0.07489 -0.89849 -0.43257
vn 0.16056 -0.86774 -0.47037
vn 0.23546 -0.82328 -0.51649
vn 0.29671 -0.76682 -0.56916
vn 0.34196 -0.70053 -0.62636
vn 0.36946 -0.62695 -0.68588
vn 0.37817 -0.54891 -0.74544
vn 0.36774 -0.46941 -0.80276
vn 0.33858 -0.39151 -0.85562
vn 0.29180 -0.31820 -0.90200
vn 0.22921 -0.25229 -0.94011
vn 0.15321 -0.19632 -0.96849
vn 0.06673 -0.15245 -0.98606
vn -0.02693 -0.12235 -0.99212
vn -0.12414 -0.10718 -0.98646
vn -0.22119 -0.10753 -0.96928
vn -0.31434 -0.12338 -0.94126
vn -0.40001 -0.15413 -0.90346
vn -0.47491 -0.19858 -0.85733
vn -0.53616 -0.25504 -0.80466
vn -0.58141 -0.32134 -0.74747
vn -0.60891 -0.39492 -0.68794
vn -0.61762 -0.47296 -0.62838
vn -0.60719 -0.55246 -0.57107
vn -0.57803 -0.63036 -0.51820
vn -0.53125 -0.70367 -0.47183
vn -0.46866 -0.76958 -0.43371
vn -0.39266 -0.82554 -0.40533
vn -0.30618 -0.86942 -0.38777
vn -0.21252 -0.89952 -0.38170
vn -0.16827 -0.90191 -0.39779
vn -0.05157 -0.95859 -0.28008
vn 0.00616 -0.95066 -0.31017
vn 0.11551 -0.93223 -0.34294
vn 0.21611 -0.89631 -0.38719
vn 0.30412 -0.84430 -0.44122
vn 0.37614 -0.77818 -0.50295
vn 0.42940 -0.70049 -0.57002
vn 0.46187 -0.61423 -0.63984
vn 0.47229 -0.52271 -0.70973
vn 0.46026 -0.42944 -0.77701
vn 0.42624 -0.33802 -0.83908
vn 0.37155 -0.25194 -0.89358
vn 0.29828 -0.17453 -0.93839
vn 0.20925 -0.10875 -0.97180
vn 0.10788 -0.05713 -0.99252
vn -0.00193 -0.02166 -0.99976
vn -0.11597 -0.00370 -0.99325
vn -0.22985 -0.00394 -0.97322
vn -0.33920 -0.02238 -0.94045
vn -0.43980 -0.05829 -0.89620
vn -0.52781 -0.11031 -0.84217
vn -0.59982 -0.17643 -0.78044
vn -0.65309 -0.25411 -0.71337
vn -0.68556 -0.34037 -0.64355
vn -0.69598 -0.43189 -0.57366
vn -0.68395 -0.52516 -0.50639
vn -0.64993 -0.61659 -0.44431
vn -0.59524 -0.70266 -0.38982
vn -0.52197 -0.78008 -0.34501
vn -0.43294 -0.84586 -0.31160
vn -0.33157 -0.89747 -0.29087
vn -0.22175 -0.93294 -0.28363
vn -0.16913 -0.93879 -0.30012
vn -0.03448 -0.98307 -0.17998
vn 0.03055 -0.97673 -0.21230
vn 0.15493 -0.95591 -0.24946
vn 0.26941 -0.91521 -0.29969
vn 0.36958 -0.85618 -0.36105
vn 0.45161 -0.78111 -0.43119
vn 0.51233 -0.69286 -0.50741
vn 0.54941 -0.59484 -0.58679
vn 0.56143 -0.49080 -0.66626
vn 0.54793 -0.38476 -0.74279
vn 0.50942 -0.28077 -0.81342
vn 0.44739 -0.18285 -0.87545
vn 0.36422 -0.09475 -0.92648
vn 0.26310 -0.01985 -0.96456
vn 0.14793 0.03895 -0.98823
vn 0.02312 0.07942 -0.99657
vn -0.10653 0.09998 -0.98927
vn -0.23603 0.09985 -0.96660
vn -0.36041 0.07903 -0.92944
vn -0.47488 0.03833 -0.87921
vn -0.57506 -0.02070 -0.81785
vn -0.65708 -0.09577 -0.74771
vn -0.71780 -0.18402 -0.67149
vn -0.75489 -0.28204 -0.59211
vn -0.76691 -0.38608 -0.51264
vn -0.75341 -0.49212 -0.43611
vn -0.71490 -0.59611 -0.36548
vn -0.65287 -0.69403 -0.30345
vn -0.56970 -0.78213 -0.25242
vn -0.46858 -0.85703 -0.21434
vn -0.35340 -0.91583 -0.19067
vn -0.22859 -0.95630 -0.18233
vn -0.16815 -0.96544 -0.19915
vn 0.15373 -0.39768 0.90455
vn 0.23088 -0.59418 0.77048
vn 0.40819 -0.56446 0.71748
vn 0.57136 -0.50639 0.64584
vn 0.71414 -0.42221 0.55834
vn 0.83104 -0.31514 0.45833
vn 0.91755 -0.18931 0.34966
vn 0.97037 -0.04955 0.23649
vn 0.98746 0.09878 0.12319
vn 0.96815 0.24996 0.01410
vn 0.91320 0.39820 -0.08658
vn 0.82472 0.53778 -0.17499
vn 0.70611 0.66336 -0.24772
vn 0.56192 0.77010 -0.30198
vn 0.39769 0.85391 -0.33569
vn 0.21974 0.91155 -0.34755
vn 0.03491 0.94082 -0.33711
vn -0.14971 0.94059 -0.30476
vn -0.32701 0.91087 -0.25175
vn -0.49019 0.85280 -0.18012
vn -0.63297 0.76862 -0.09262
vn -0.74986 0.66155 0.00739
vn -0.83638 0.53572 0.11607
vn -0.88920 0.39596 0.22923
vn -0.90628 0.24763 0.34254
vn -0.88698 0.09645 0.45162
vn -0.83203 -0.05178 0.55231
vn -0.74355 -0.19137 0.64071
vn -0.62493 -0.31695 0.71344
vn -0.48074 -0.42369 0.76771
vn -0.31652 -0.50749 0.80142
vn -0.13857 -0.56514 0.81328
vn -0.09865 -0.79711 0.59572
vn 0.13321 0.63267 0.76288
vn 0.12319 0.63189 0.76521
vn 0.11376 0.62951 0.76862
vn 0.10527 0.62562 0.77299
vn 0.09805 0.62038 0.77815
vn 0.09238 0.61397 0.78390
vn 0.08847 0.60666 0.79003
vn 0.08648 0.59871 0.79628
vn 0.08648 0.59044 0.80244
vn 0.08847 0.58216 0.80825
vn 0.09238 0.57419 0.81349
vn 0.09805 0.56684 0.81797
vn 0.10527 0.56039 0.82151
vn 0.11376 0.55508 0.82398
vn 0.12319 0.55113 0.82527
vn 0.13321 0.54868 0.82535
vn 0.14342 0.54783 0.82421
vn 0.15343 0.54861 0.82188
vn 0.16286 0.55099 0.81847
vn 0.17135 0.55487 0.81410
vn 0.17857 0.56012 0.80894
vn 0.18424 0.56652 0.80318
vn 0.18815 0.57384 0.79706
vn 0.19014 0.58179 0.79080
vn 0.19014 0.59006 0.78465
vn 0.18815 0.59834 0.77884
vn 0.18424 0.60631 0.77359
vn 0.17857 0.61366 0.76912
vn 0.17135 0.62011 0.76557
vn 0.16286 0.62541 0.76311
vn 0.15343 0.62937 0.76181
vn 0.14342 0.63181 0.76174
vn 0.00000 0.00000 0.00000
vn 0.12458 0.69171 0.71135
vn 0.10896 0.68410 0.72120
vn 0.08661 0.67963 0.72842
vn 0.06622 0.67159 0.73796
vn 0.04857 0.66028 0.74944
vn 0.03434 0.64615 0.76244
vn 0.02407 0.62973 0.77644
vn 0.01815 0.61165 0.79092
vn 0.01682 0.59261 0.80531
vn 0.02013 0.57335 0.81906
vn 0.02795 0.55459 0.83165
vn 0.03998 0.53707 0.84259
vn 0.05575 0.52145 0.85146
vn 0.07466 0.50834 0.85791
vn 0.09599 0.49824 0.86171
vn 0.11891 0.49154 0.86270
vn 0.14254 0.48849 0.86085
vn 0.16598 0.48921 0.85623
vn 0.18832 0.49368 0.84901
vn 0.20871 0.50172 0.83947
vn 0.22636 0.51303 0.82799
vn 0.24060 0.52716 0.81499
vn 0.25087 0.54358 0.80099
vn 0.25678 0.56166 0.78651
vn 0.25811 0.58070 0.77212
vn 0.25481 0.59996 0.75837
vn 0.24699 0.61872 0.74578
vn 0.23496 0.63624 0.73484
vn 0.21919 0.65186 0.72597
vn 0.20028 0.66497 0.71952
vn 0.17895 0.67507 0.71572
vn 0.15603 0.68178 0.71473
vn 0.14793 0.67081 0.72672
vn 0.11236 0.76125 0.63865
vn 0.08853 0.75041 0.65502
vn 0.04863 0.74310 0.66741
vn 0.01205 0.72942 0.68396
vn -0.01979 0.70987 0.70405
vn -0.04568 0.68523 0.72689
vn -0.06462 0.65643 0.75162
vn -0.07587 0.62458 0.77727
vn -0.07901 0.59090 0.80287
vn -0.07392 0.55669 0.82742
vn -0.06080 0.52327 0.85000
vn -0.04014 0.49191 0.86972
vn -0.01274 0.46382 0.88584
vn 0.02035 0.44009 0.89772
vn 0.05785 0.42162 0.90493
vn 0.09832 0.40912 0.90717
vn 0.14021 0.40308 0.90436
vn 0.18191 0.40372 0.89661
vn 0.22182 0.41103 0.88423
vn 0.25839 0.42471 0.86767
vn 0.29024 0.44425 0.84759
vn 0.31612 0.46890 0.82474
vn 0.33506 0.49770 0.80002
vn 0.34631 0.52955 0.77437
vn 0.34946 0.56323 0.74877
vn 0.34437 0.59743 0.72421
vn 0.33124 0.63086 0.70164
vn 0.31058 0.66222 0.68191
vn 0.28318 0.69031 0.66580
vn 0.25009 0.71404 0.65391
vn 0.21259 0.73251 0.64671
vn 0.17212 0.74501 0.64447
vn 0.15502 0.73622 0.65875
vn 0.09869 0.82423 0.55760
vn 0.06598 0.81318 0.57825
vn 0.00785 0.80294 0.59600
vn -0.04552 0.78341 0.61984
vn -0.09210 0.75533 0.64884
vn -0.13008 0.71979 0.68189
vn -0.15801 0.67815 0.71774
vn -0.17482 0.63201 0.75498
vn -0.17985 0.58315 0.79221
vn -0.17293 0.53344 0.82798
vn -0.15430 0.48479 0.86091
vn -0.12469 0.43907 0.88976
vn -0.08524 0.39804 0.91340
vn -0.03745 0.36328 0.93093
vn 0.01682 0.33612 0.94167
vn 0.07550 0.31761 0.94521
vn 0.13633 0.30845 0.94142
vn 0.19698 0.30900 0.93044
vn 0.25510 0.31924 0.91269
vn 0.30848 0.33878 0.88886
vn 0.35506 0.36685 0.85986
vn 0.39304 0.40240 0.82680
vn 0.42097 0.44404 0.79096
vn 0.43778 0.49018 0.75371
vn 0.44281 0.53904 0.71649
vn 0.43588 0.58875 0.68072
vn 0.41726 0.63740 0.64778
vn 0.38765 0.68312 0.61894
vn 0.34819 0.72414 0.59530
vn 0.30041 0.75891 0.57777
vn 0.24614 0.78606 0.56703
vn 0.18746 0.80458 0.56348
vn 0.16112 0.79960 0.57851
vn 0.08386 0.87866 0.47002
vn 0.04241 0.86826 0.49429
vn -0.03358 0.85516 0.51728
vn -0.10344 0.82990 0.54824
vn -0.16446 0.79346 0.58598
vn -0.21431 0.74724 0.62905
vn -0.25107 0.69302 0.67579
vn -0.27333 0.63287 0.72440
vn -0.28023 0.56912 0.77303
vn -0.27151 0.50421 0.81979
vn -0.24750 0.44064 0.86289
vn -0.20913 0.38084 0.90068
vn -0.15787 0.32712 0.93170
vn -0.09568 0.28154 0.95477
vn -0.02497 0.24586 0.96898
vn 0.05156 0.22144 0.97381
vn 0.13096 0.20922 0.96906
vn 0.21018 0.20967 0.95492
vn 0.28617 0.22278 0.93192
vn 0.35602 0.24804 0.90096
vn 0.41705 0.28448 0.86322
vn 0.46690 0.33070 0.82015
vn 0.50366 0.38492 0.77341
vn 0.52592 0.44506 0.72480
vn 0.53282 0.50881 0.67617
vn 0.52410 0.57372 0.62941
vn 0.50009 0.63730 0.58631
vn 0.46172 0.69709 0.54852
vn 0.41046 0.75081 0.51750
vn 0.34827 0.79639 0.49444
vn 0.27756 0.83208 0.48022
vn 0.20103 0.85650 0.47539
vn 0.16559 0.85528 0.49100
vn 0.06809 0.92365 0.37713
vn 0.01826 0.91434 0.40454
vn -0.07489 0.89849 0.43257
vn -0.16056 0.86774 0.47037
vn -0.23546 0.82328 0.51649
vn -0.29671 0.76682 0.56916
vn -0.34196 0.70053 0.62636
vn -0.36946 0.62695 0.68588
vn -0.37817 0.54891 0.74544
vn -0.36774 0.46941 0.80276
vn -0.33858 0.39151 0.85562
vn -0.29180 0.31820 0.90200
vn -0.22921 0.25229 0.94011
vn -0.15321 0.19632 0.96849
vn -0.06673 0.15245 0.98606
vn 0.02693 0.12235 0.99212
vn 0.12414 0.10718 0.98646
vn 0.22119 0.10753 0.96928
vn 0.31434 0.12338 0.94126
vn 0.40001 0.15413 0.90346
vn 0.47491 0.19858 0.85733
vn 0.53616 0.25504 0.80466
vn 0.58141 0.32134 0.74747
vn 0.60891 0.39492 0.68794
vn 0.61762 0.47296 0.62838
vn 0.60719 0.55246 0.57107
vn 0.57803 0.63036 0.51820
vn 0.53125 0.70367 0.47183
vn 0.46866 0.76958 0.43371
vn 0.39266 0.82554 0.40533
vn 0.30618 0.86942 0.38777
vn 0.21252 0.89952 0.38170
vn 0.16827 0.90191 0.39779
vn 0.05157 0.95859 0.28008
vn -0.00616 0.95066 0.31017
vn -0.11551 0.93223 0.34294
vn -0.21611 0.89631 0.38719
vn -0.30412 0.84430 0.44122
vn -0.37614 0.77818 0.50295
vn -0.42940 0.70049 0.57002
vn -0.46187 0.61423 0.63984
vn -0.47229 0.52271 0.70973
vn -0.46026 0.42944 0.77701
vn -0.42624 0.33802 0.83908
vn -0.37155 0.25194 0.89358
vn -0.29828 0.17453 0.93839
vn -0.20925 0.10875 0.97180
vn -0.10788 0.05713 0.99252
vn 0.00193 0.02166 0.99976
vn 0.11597 0.00370 0.99325
vn 0.22985 0.00394 0.97322
vn 0.33920 0.02238 0.94045
vn 0.43980 0.05829 0.89620
vn 0.52781 0.11031 0.84217
vn 0.59982 0.17643 0.78044
vn 0.65309 0.25411 0.71337
vn 0.68556 0.34037 0.64355
vn 0.69598 0.43189 0.57366
vn 0.68395 0.52516 0.50639
vn 0.64993 0.61659 0.44431
vn 0.59524 0.70266 0.38982
vn 0.52197 0.78008 0.34501
vn 0.43294 0.84586 0.31160
vn 0.33157 0.89747 0.29087
vn 0.22175 0.93294 0.28363
vn 0.16913 0.93879 0.30012
vn 0.03448 0.98307 0.17998
vn -0.03055 0.97673 0.21230
vn -0.15493 0.95591 0.24946
vn -0.26941 0.91521 0.29969
vn -0.36958 0.85618 0.36105
vn -0.45161 0.78111 0.43119
vn -0.51233 0.69286 0.50741
vn -0.54941 0.59484 0.58679
vn -0.56143 0.49080 0.66626
vn -0.54793 0.38476 0.74279
vn -0.50942 0.28077 0.81342
vn -0.44739 0.18285 0.87545
vn -0.36422 0.09475 0.92648
vn -0.26310 0.01985 0.96456
vn -0.14793 -0.03895 0.98823
vn -0.02312 -0.07942 0.99657
vn 0.10653 -0.09998 0.98927
vn 0.23603 -0.09985 0.96660
vn 0.36041 -0.07903 0.92944
vn 0.47488 -0.03833 0.87921
vn 0.57506 0.02070 0.81785
vn 0.65708 0.09577 0.74771
vn 0.71780 0.18402 0.67149
vn 0.75489 0.28204 0.59211
vn 0.76691 0.38608 0.51264
vn 0.75341 0.49212 0.43611
vn 0.71490 0.59611 0.36548
vn 0.65287 0.69403 0.30345
vn 0.56970 0.78213 0.25242
vn 0.46858 0.85703 0.21434
vn 0.35340 0.91583 0.19067
vn 0.22859 0.95630 0.18233
vn 0.16815 0.96544 0.19915
vn 0.16163 0.31461 0.93536
vn 0.18195 0.28007 0.94258
vn 0.24622 0.28810 0.92540
vn 0.30604 0.30640 0.90136
vn 0.35910 0.33428 0.87138
vn 0.40336 0.37065 0.83661
vn 0.43712 0.41413 0.79839
vn 0.45908 0.46304 0.75818
vn 0.46840 0.51550 0.71754
vn 0.46473 0.56949 0.67802
vn 0.44820 0.62295 0.64114
vn 0.41944 0.67381 0.60832
vn 0.37957 0.72012 0.58082
vn 0.33012 0.76011 0.55970
vn 0.27297 0.79223 0.54576
vn 0.21035 0.81525 0.53955
vn 0.14464 0.82829 0.54131
vn 0.07837 0.83084 0.55096
vn 0.01409 0.82281 0.56814
vn -0.04572 0.80451 0.59218
vn -0.09878 0.77664 0.62216
vn -0.14304 0.74026 0.65693
vn -0.17680 0.69679 0.69515
vn -0.19876 0.64788 0.73536
vn -0.20809 0.59542 0.77600
vn -0.20441 0.54142 0.81552
vn -0.18788 0.48797 0.85240
vn -0.15913 0.43711 0.88522
vn -0.11926 0.39079 0.91272
vn -0.06980 0.35081 0.93384
vn -0.01266 0.31868 0.94778
vn 0.04997 0.29566 0.95398
vn 0.09437 0.26756 0.95891
f 1/1/1 35/35/35 34/34/34
f 1/1/1 2/2/2 35/35/35
f 298/298/298 331/331/331 332/332/332
f 298/298/298 332/332/332 299/299/299
f 2/2/2 36/36/36 35/35/35
f 2/2/2 3/3/3 36/36/36
f 299/299/299 332/332/332 333/333/333
f 299/299/299 333/333/333 300/300/300
f 3/3/3 37/37/37 36/36/36
f 3/3/3 4/4/4 37/37/37
f 300/300/300 333/333/333 334/334/334
f 300/300/300 334/334/334 301/301/301
f 4/4/4 38/38/38 37/37/37
f 4/4/4 5/5/5 38/38/38
f 301/301/301 334/334/334 335/335/335
f 301/301/301 335/335/335 302/302/302
f 5/5/5 39/39/39 38/38/38
f 5/5/5 6/6/6 39/39/39
f 302/302/302 335/335/335 336/336/336
f 302/302/302 336/336/336 303/303/303
f 6/6/6 40/40/40 39/39/39
f 6/6/6 7/7/7 40/40/40
f 303/303/303 336/336/336 337/337/337
f 303/303/303 337/337/337 304/304/304
f 7/7/7 41/41/41 40/40/40
f 7/7/7 8/8/8 41/41/41
f 304/304/304 337/337/337 338/338/338
f 304/304/304 338/338/338 305/305/305
f 8/8/8 42/42/42 41/41/41
f 8/8/8 9/9/9 42/42/42
f 305/305/305 338/338/338 339/339/339
f 305/305/305 339/339/339 306/306/306
f 9/9/9 43/43/43 42/42/42
f 9/9/9 10/10/10 43/43/43
f 306/306/306 339/339/339 340/340/340
f 306/306/306 340/340/340 307/307/307
f 10/10/10 44/44/44 43/43/43
f 10/10/10 11/11/11 44/44/44
f 307/307/307 340/340/340 341/341/341
f 307/307/307 341/341/341 308/308/308
f 11/11/11 45/45/45 44/44/44
f 11/11/11 12/12/12 45/45/45
f 308/308/308 341/341/341 342/342/342
f 308/308/308 342/342/342 309/309/309
f 12/12/12 46/46/46 45/45/45
f 12/12/12 13/13/13 46/46/46
f 309/309/309 342/342/342 343/343/343
f 309/309/309 343/343/343 310/310/310
f 13/13/13 47/47/47 46/46/46
f 13/13/13 14/14/14 47/47/47
f 310/310/310 343/343/343 344/344/344
f 310/310/310 344/344/344 311/311/311
f 14/14/14 48/48/48 47/47/47
f 14/14/14 15/15/15 48/48/48
f 311/311/311 344/344/344 345/345/345
f 311/311/311 345/345/345 312/312/312
f 15/15/15 49/49/49 48/48/48
f 15/15/15 16/16/16 49/49/49
f 312/312/312 345/345/345 346/346/346
f 312/312/312 346/346/346 313/313/313
f 16/16/16 50/50/50 49/49/49
f 16/16/16 17/17/17 50/50/50
f 313/313/313 346/346/346 347/347/347
f 313/313/313 347/347/347 314/314/314
f 17/17/17 51/51/51 50/50/50
f 17/17/17 18/18/18 51/51/51
f 314/314/314 347/347/347 348/348/348
f 314/314/314 348/348/348 315/315/315
f 18/18/18 52/52/52 51/51/51
f 18/18/18 19/19/19 52/52/52
f 315/315/315 348/348/348 349/349/349
f 315/315/315 349/349/349 316/316/316
f 19/19/19 53/53/53 52/52/52
f 19/19/19 20/20/20 53/53/53
f 316/316/316 349/349/349 350/350/350
f 316/316/316 350/350/350 317/317/317
f 20/20/20 54/54/54 53/53/53
f 20/20/20 21/21/21 54/54/54
f 317/317/317 350/350/350 351/351/351
f 317/317/317 351/351/351 318/318/318
f 21/21/21 55/55/55 54/54/54
f 21/21/21 22/22/22 55/55/55
f 318/318/318 351/351/351 352/352/352
f 318/318/318 352/352/352 319/319/319
f 22/22/22 56/56/56 55/55/55
f 22/22/22 23/23/23 56/56/56
f 319/319/319 352/352/352 353/353/353
f 319/319/319 353/353/353 320/320/320
f 23/23/23 57/57/57 56/56/56
f 23/23/23 24/24/24 57/57/57
f 320/320/320 353/353/353 354/354/354
f 320/320/320 354/354/354 321/321/321
f 24/24/24 58/58/58 57/57/57
f 24/24/24 25/25/25 58/58/58
f 321/321/321 354/354/354 355/355/355
f 321/321/321 355/355/355 322/322/322
f 25/25/25 59/59/59 58/58/58
f 25/25/25 26/26/26 59/59/59
f 322/322/322 355/355/355 356/356/356
f 322/322/322 356/356/356 323/323/323
f 26/26/26 60/60/60 59/59/59
f 26/26/26 27/27/27 60/60/60
f 323/323/323 356/356/356 357/357/357
f 323/323/323 357/357/357 324/324/324
f 27/27/27 61/61/61 60/60/60
f 27/27/27 28/28/28 61/61/61
f 324/324/324 357/357/357 358/358/358
f 324/324/324 358/358/358 325/325/325
f 28/28/28 62/62/62 61/61/61
f 28/28/28 29/29/29 62/62/62
f 325/325/325 358/358/358 359/359/359
f 325/325/325 359/359/359 326/326/326
f 29/29/29 63/63/63 62/62/62
f 29/29/29 30/30/30 63/63/63
f 326/326/326 359/359/359 360/360/360
f 326/326/326 360/360/360 327/327/327
f 30/30/30 64/64/64 63/63/63
f 30/30/30 31/31/31 64/64/64
f 327/327/327 360/360/360 361/361/361
f 327/327/327 361/361/361 328/328/328
f 31/31/31 65/65/65 64/64/64
f 31/31/31 32/32/32 65/65/65
f 328/328/328 361/361/361 362/362/362
f 328/328/328 362/362/362 329/329/329
f 32/32/32 66/66/66 65/65/65
f 32/32/32 33/33/33 66/66/66
f 329/329/329 362/362/362 363/363/363
f 329/329/329 363/363/363 330/330/330
f 34/34/34 68/68/68 67/67/67
f 34/34/34 35/35/35 68/68/68
f 331/331/331 364/364/364 365/365/365
f 331/331/331 365/365/365 332/332/332
f 35/35/35 69/69/69 68/68/68
f 35/35/35 36/36/36 69/69/69
f 332/332/332 365/365/365 366/366/366
f 332/332/332 366/366/366 333/333/333
f 36/36/36 70/70/70 69/69/69
f 36/36/36 37/37/37 70/70/70
f 333/333/333 366/366/366 367/367/367
f 333/333/333 367/367/367 334/334/334
f 37/37/37 71/71/71 70/70/70
f 37/37/37 38/38/38 71/71/71
f 334/334/334 367/367/367 368/368/368
f 334/334/334 368/368/368 335/335/335
f 38/38/38 72/72/72 71/71/71
f 38/38/38 39/39/39 72/72/72
f 335/335/335 368/368/368 369/369/369
f 335/335/335 369/369/369 336/336/336
f 39/39/39 73/73/73 72/72/72
f 39/39/39 40/40/40 73/73/73
f 336/336/336 369/369/369 370/370/370
f 336/336/336 370/370/370 337/337/337
f 40/40/40 74/74/74 73/73/73
f 40/40/40 41/41/41 74/74/74
f 337/337/337 370/370/370 371/371/371
f 337/337/337 371/371/371 338/338/338
f 41/41/41 75/75/75 74/74/74
f 41/41/41 42/42/42 75/75/75
f 338/338/338 371/371/371 372/372/372
f 338/338/338 372/372/372 339/339/339
f 42/42/42 76/76/76 75/75/75
f 42/42/42 43/43/43 76/76/76
f 339/339/339 372/372/372 373/373/373
f 339/339/339 373/373/373 340/340/340
f 43/43/43 77/77/77 76/76/76
f 43/43/43 44/44/44 77/77/77
f 340/340/340 373/373/373 374/374/374
f 340/340/340 374/374/374 341/341/341
f 44/44/44 78/78/78 77/77/77
f 44/44/44 45/45/45 78/78/78
f 341/341/341 374/374/374 375/375/375
f 341/341/341 375/375/375 342/342/342
f 45/45/45 79/79/79 78/78/78
f 45/45/45 46/46/46 79/79/79
f 342/342/342 375/375/375 376/376/376
f 342/342/342 376/376/376 343/343/343
f 46/46/46 80/80/80 79/79/79
f 46/46/46 47/47/47 80/80/80
f 343/343/343 376/376/376 377/377/377
f 343/343/343 377/377/377 344/344/344
f 47/47/47 81/81/81 80/80/80
f 47/47/47 48/48/48 81/81/81
f 344/344/344 377/377/377 378/378/378
f 344/344/344 378/378/378 345/345/345
f 48/48/48 82/82/82 81/81/81
f 48/48/48 49/49/49 82/82/82
f 345/345/345 378/378/378 379/379/379
f 345/345/345 379/379/379 346/346/346
f 49/49/49 83/83/83 82/82/82
f 49/49/49 50/50/50 83/83/83
f 346/346/346 379/379/379 380/380/380
f 346/346/346 380/380/380 347/347/347
f 50/50/50 84/84/84 83/83/83
f 50/50/50 51/51/51 84/84/84
f 347/347/347 380/380/380 381/381/381
f 347/347/347 381/381/381 348/348/348
f 51/51/51 85/85/85 84/84/84
f 51/51/51 52/52/52 85/85/85
f 348/348/348 381/381/381 382/382/382
f 348/348/348 382/382/382 349/349/349
f 52/52/52 86/86/86 85/85/85
f 52/52/52 53/53/53 86/86/86
f 349/349/349 382/382/382 383/383/383
f 349/349/349 383/383/383 350/350/350
f 53/53/53 87/87/87 86/86/86
f 53/53/53 54/54/54 87/87/87
f 350/350/350 383/383/383 384/384/384
f 350/350/350 384/384/384 351/351/351
f 54/54/54 88/88/88 87/87/87
f 54/54/54 55/55/55 88/88/88
f 351/351/351 384/384/384 385/385/385
f 351/351/351 385/385/385 352/352/352
f 55/55/55 89/89/89 88/88/88
f 55/55/55 56/56/56 89/89/89
f 352/352/352 385/385/385 386/386/386
f 352/352/352 386/386/386 353/353/353
f 56/56/56 90/90/90 89/89/89
f 56/56/56 57/57/57 90/90/90
f 353/353/353 386/386/386 387/387/387
f 353/353/353 387/387/387 354/354/354
f 57/57/57 91/91/91 90/90/90
f 57/57/57 58/58/58 91/91/91
f 354/354/354 387/387/387 388/388/388
f 354/354/354 388/388/388 355/355/355
f 58/58/58 92/92/92 91/91/91
f 58/58/58 59/59/59 92/92/92
f 355/355/355 388/388/388 389/389/389
f 355/355/355 389/389/389 356/356/356
f 59/59/59 93/93/93 92/92/92
f 59/59/59 60/60/60 93/93/93
f 356/356/356 389/389/389 390/390/390
f 356/356/356 390/390/390 357/357/357
f 60/60/60 94/94/94 93/93/93
f 60/60/60 61/61/61 94/94/94
f 357/357/357 390/390/390 391/391/391
f 357/357/357 391/391/391 358/358/358
f 61/61/61 95/95/95 94/94/94
f 61/61/61 62/62/62 95/95/95
f 358/358/358 391/391/391 392/392/392
f 358/358/358 392/392/392 359/359/359
f 62/62/62 96/96/96 95/95/95
f 62/62/62 63/63/63 96/96/96
f 359/359/359 392/392/392 393/393/393
f 359/359/359 393/393/393 360/360/360
f 63/63/63 97/97/97 96/96/96
f 63/63/63 64/64/64 97/97/97
f 360/360/360 393/393/393 394/394/394
f 360/360/360 394/394/394 361/361/361
f 64/64/64 98/98/98 97/97/97
f 64/64/64 65/65/65 98/98/98
f 361/361/361 394/394/394 395/395/395
f 361/361/361 395/395/395 362/362/362
f 65/65/65 99/99/99 98/98/98
f 65/65/65 66/66/66 99/99/99
f 362/362/362 395/395/395 396/396/396
f 362/362/362 396/396/396 363/363/363
f 67/67/67 101/101/101 100/100/100
f 67/67/67 68/68/68 101/101/101
f 364/364/364 397/397/397 398/398/398
f 364/364/364 398/398/398 365/365/365
f 68/68/68 102/102/102 101/101/101
f 68/68/68 69/69/69 102/102/102
f 365/365/365 398/398/398 399/399/399
f 365/365/365 399/399/399 366/366/366
f 69/69/69 103/103/103 102/102/102
f 69/69/69 70/70/70 103/103/103
f 366/366/366 399/399/399 400/400/400
f 366/366/366 400/400/400 367/367/367
f 70/70/70 104/104/104 103/103/103
f 70/70/70 71/71/71 104/104/104
f 367/367/367 400/400/400 401/401/401
f 367/367/367 401/401/401 368/368/368
f 71/71/71 105/105/105 104/104/104
f 71/71/71 72/72/72 105/105/105
f 368/368/368 401/401/401 402/402/402
f 368/368/368 402/402/402 369/369/369
f 72/72/72 106/106/106 105/105/105
f 72/72/72 73/73/73 106/106/106
f 369/369/369 402/402/402 403/403/403
f 369/369/369 403/403/403 370/370/370
f 73/73/73 107/107/107 106/106/106
f 73/73/73 74/74/74 107/107/107
f 370/370/370 403/403/403 404/404/404
f 370/370/370 404/404/404 371/371/371
f 74/74/74 108/108/108 107/107/107
f 74/74/74 75/75/75 108/108/108
f 371/371/371 404/404/404 405/405/405
f 371/371/371 405/405/405 372/372/372
f 75/75/75 109/109/109 108/108/108
f 75/75/75 76/76/76 109/109/109
f 372/372/372 405/405/405 406/406/406
f 372/372/372 406/406/406 373/373/373
f 76/76/76 110/110/110 109/109/109
f 76/76/76 77/77/77 110/110/110
f 373/373/373 406/406/406 407/407/407
f 373/373/373 407/407/407 374/374/374
f 77/77/77 111/111/111 110/110/110
f 77/77/77 78/78/78 111/111/111
f 374/374/374 407/407/407 408/408/408
f 374/374/374 408/408/408 375/375/375
f 78/78/78 112/112/112 111/111/111
f 78/78/78 79/79/79 112/112/112
f 375/375/375 408/408/408 409/409/409
f 375/375/375 409/409/409 376/376/376
f 79/79/79 113/113/113 112/112/112
f 79/79/79 80/80/80 113/113/113
f 376/376/376 409/409/409 410/410/410
f 376/376/376 410/410/410 377/377/377
f 80/80/80 114/114/114 113/113/113
f 80/80/80 81/81/81 114/114/114
f 377/377/377 410/410/410 411/411/411
f 377/377/377 411/411/411 378/378/378
f 81/81/81 115/115/115 114/114/114
f 81/81/81 82/82/82 115/115/115
f 378/378/378 411/411/411 412/412/412
f 378/378/378 412/412/412 379/379/379
f 82/82/82 116/116/116 115/115/115
f 82/82/82 83/83/83 116/116/116
f 379/379/379 412/412/412 413/413/413
f 379/379/379 413/413/413 380/380/380
f 83/83/83 117/117/117 116/116/116
f 83/83/83 84/84/84 117/117/117
f 380/380/380 413/413/413 414/414/414
f 380/380/380 414/414/414 381/381/381
f 84/84/84 118/118/118 117/117/117
f 84/84/84 85/85/85 118/118/118
f 381/381/381 414/414/414 415/415/415
f 381/381/381 415/415/415 382/382/382
f 85/85/85 119/119/119 118/118/118
f 85/85/85 86/86/86 119/119/119
f 382/382/382 415/415/415 416/416/416
f 382/382/382 416/416/416 383/383/383
f 86/86/86 120/120/120 119/119/119
f 86/86/86 87/87/87 120/120/120
f 383/383/383 416/416/416 417/417/417
f 383/383/383 417/417/417 384/384/384
f 87/87/87 121/121/121 120/120/120
f 87/87/87 88/88/88 121/121/121
f 384/384/384 417/417/417 418/418/418
f 384/384/384 418/418/418 385/385/385
f 88/88/88 122/122/122 121/121/121
f 88/88/88 89/89/89 122/122/122
f 385/385/385 418/418/418 419/419/419
f 385/385/385 419/419/419 386/386/386
f 89/89/89 123/123/123 122/122/122
f 89/89/89 90/90/90 123/123/123
f 386/386/386 419/419/419 420/420/420
f 386/386/386 420/420/420 387/387/387
f 90/90/90 124/124/124 123/123/123
f 90/90/90 91/91/91 124/124/124
f 387/387/387 420/420/420 421/421/421
f 387/387/387 421/421/421 388/388/388
f 91/91/91 125/125/125 124/124/124
f 91/91/91 92/92/92 125/125/125
f 388/388/388 421/421/421 422/422/422
f 388/388/388 422/422/422 389/389/389
f 92/92/92 126/126/126 125/125/125
f 92/92/92 93/93/93 126/126/126
f 389/389/389 422/422/422 423/423/423
f 389/389/389 423/423/423 390/390/390
f 93/93/93 127/127/127 126/126/126
f 93/93/93 94/94/94 127/127/127
f 390/390/390 423/423/423 424/424/424
f 390/390/390 424/424/424 391/391/391
f 94/94/94 128/128/128 127/127/127
f 94/94/94 95/95/95 128/128/128
f 391/391/391 424/424/424 425/425/425
f 391/391/391 425/425/425 392/392/392
f 95/95/95 129/129/129 128/128/128
f 95/95/95 96/96/96 129/129/129
f 392/392/392 425/425/425 426/426/426
f 392/392/392 426/426/426 393/393/393
f 96/96/96 130/130/130 129/129/129
f 96/96/96 97/97/97 130/130/130
f 393/393/393 426/426/426 427/427/427
f 393/393/393 427/427/427 394/394/394
f 97/97/97 131/131/131 130/130/130
f 97/97/97 98/98/98 131/131/131
f 394/394/394 427/427/427 428/428/428
f 394/394/394 428/428/428 395/395/395
f 98/98/98 132/132/132 131/131/131
f 98/98/98 99/99/99 132/132/132
f 395/395/395 428/428/428 429/429/429
f 395/395/395 429/429/429 396/396/396
f 100/100/100 134/134/134 133/133/133
f 100/100/100 101/101/101 134/134/134
f 397/397/397 430/430/430 431/431/431
f 397/397/397 431/431/431 398/398/398
f 101/101/101 135/135/135 134/134/134
f 101/101/101 102/102/102 135/135/135
f 398/398/398 431/431/431 432/432/432
f 398/398/398 432/432/432 399/399/399
f 102/102/102 136/136/136 135/135/135
f 102/102/102 103/103/103 136/136/136
f 399/399/399 432/432/432 433/433/433
f 399/399/399 433/433/433 400/400/400
f 103/103/103 137/137/137 136/136/136
f 103/103/103 104/104/104 137/137/137
f 400/400/400 433/433/433 434/434/434
f 400/400/400 434/434/434 401/401/401
f 104/104/104 138/138/138 137/137/137
f 104/104/104 105/105/105 138/138/138
f 401/401/401 434/434/434 435/435/435
f 401/401/401 435/435/435 402/402/402
f 105/105/105 139/139/139 138/138/138
f 105/105/105 106/106/106 139/139/139
f 402/402/402 435/435/435 436/436/436
f 402/402/402 436/436/436 403/403/403
f 106/106/106 140/140/140 139/139/139
f 106/106/106 107/107/107 140/140/140
f 403/403/403 436/436/436 437/437/437
f 403/403/403 437/437/437 404/404/404
f 107/107/107 141/141/141 140/140/140
f 107/107/107 108/108/108 141/141/141
f 404/404/404 437/437/437 438/438/438
f 404/404/404 438/438/438 405/405/405
f 108/108/108 142/142/142 141/141/141
f 108/108/108 109/109/109 142/142/142
f 405/405/405 438/438/438 439/439/439
f 405/405/405 439/439/439 406/406/406
f 109/109/109 143/143/143 142/142/142
f 109/109/109 110/110/110 143/143/143
f 406/406/406 439/439/439 440/440/440
f 406/406/406 440/440/440 407/407/407
f 110/110/110 144/144/144 143/143/143
f 110/110/110 111/111/111 144/144/144
f 407/407/407 440/440/440 441/441/441
f 407/407/407 441/441/441 408/408/408
f 111/111/111 145/145/145 144/144/144
f 111/111/111 112/112/112 145/145/145
f 408/408/408 441/441/441 442/442/442
f 408/408/408 442/442/442 409/409/409
f 112/112/112 146/146/146 145/145/145
f 112/112/112 113/113/113 146/146/146
f 409/409/409 442/442/442 443/443/443
f 409/409/409 443/443/443 410/410/410
f 113/113/113 147/147/147 146/146/146
f 113/113/113 114/114/114 147/147/147
f 410/410/410 443/443/443 444/444/444
f 410/410/410 444/444/444 411/411/411
f 114/114/114 148/148/148 147/147/147
f 114/114/114 115/115/115 148/148/148
f 411/411/411 444/444/444 445/445/445
f 411/411/411 445/445/445 412/412/412
f 115/115/115 149/149/149 148/148/148
f 115/115/115 116/116/116 149/149/149
f 412/412/412 445/445/445 446/446/446
f 412/412/412 446/446/446 413/413/413
f 116/116/116 150/150/150 149/149/149
f 116/116/116 117/117/117 150/150/150
f 413/413/413 446/446/446 447/447/447
f 413/413/413 447/447/447 414/414/414
f 117/117/117 151/151/151 150/150/150
f 117/117/117 118/118/118 151/151/151
f 414/414/414 447/447/447 448/448/448
f 414/414/414 448/448/448 415/415/415
f 118/118/118 152/152/152 151/151/151
f 118/118/118 119/119/119 152/152/152
f 415/415/415 448/448/448 449/449/449
f 415/415/415 449/449/449 416/416/416
f 119/119/119 153/153/153 152/152/152
f 119/119/119 120/120/120 153/153/153
f 416/416/416 449/449/449 450/450/450
f 416/416/416 450/450/450 417/417/417
f 120/120/120 154/154/154 153/153/153
f 120/120/120 121/121/121 154/154/154
f 417/417/417 450/450/450 451/451/451
f 417/417/417 451/451/451 418/418/418
f 121/121/121 155/155/155 154/154/154
f 121/121/121 122/122/122 155/155/155
f 418/418/418 451/451/451 452/452/452
f 418/418/418 452/452/452 419/419/419
f 122/122/122 156/156/156 155/155/155
f 122/122/122 123/123/123 156/156/156
f 419/419/419 452/452/452 453/453/453
f 419/419/419 453/453/453 420/420/420
f 123/123/123 157/157/157 156/156/156
f 123/123/123 124/124/124 157/157/157
f 420/420/420 453/453/453 454/454/454
f 420/420/420 454/454/454 421/421/421
f 124/124/124 158/158/158 157/157/157
f 124/124/124 125/125/125 158/158/158
f 421/421/421 454/454/454 455/455/455
f 421/421/421 455/455/455 422/422/422
f 125/125/125 159/159/159 158/158/158
f 125/125/125 126/126/126 159/159/159
f 422/422/422 455/455/455 456/456/456
f 422/422/422 456/456/456 423/423/423
f 126/126/126 160/160/160 159/159/159
f 126/126/126 127/127/127 160/160/160
f 423/423/423 456/456/456 457/457/457
f 423/423/423 457/457/457 424/424/424
f 127/127/127 161/161/161 160/160/160
f 127/127/127 128/128/128 161/161/161
f 424/424/424 457/457/457 458/458/458
f 424/424/424 458/458/458 425/425/425
f 128/128/128 162/162/162 161/161/161
f 128/128/128 129/129/129 162/162/162
f 425/425/425 458/458/458 459/459/459
f 425/425/425 459/459/459 426/426/426
f 129/129/129 163/163/163 162/162/162
f 129/129/129 130/130/130 163/163/163
f 426/426/426 459/459/459 460/460/460
f 426/426/426 460/460/460 427/427/427
f 130/130/130 164/164/164 163/163/163
f 130/130/130 131/131/131 164/164/164
f 427/427/427 460/460/460 461/461/461
f 427/427/427 461/461/461 428/428/428
f 131/131/131 165/165/165 164/164/164
f 131/131/131 132/132/132 165/165/165
f 428/428/428 461/461/461 462/462/462
f 428/428/428 462/462/462 429/429/429
f 133/133/133 167/167/167 166/166/166
f 133/133/133 134/134/134 167/167/167
f 430/430/430 463/463/463 464/464/464
f 430/430/430 464/464/464 431/431/431
f 134/134/134 168/168/168 167/167/167
f 134/134/134 135/135/135 168/168/168
f 431/431/431 464/464/464 465/465/465
f 431/431/431 465/465/465 432/432/432
f 135/135/135 169/169/169 168/168/168
f 135/135/135 136/136/136 169/169/169
f 432/432/432 465/465/465 466/466/466
f 432/432/432 466/466/466 433/433/433
f 136/136/136 170/170/170 169/169/169
f 136/136/136 137/137/137 170/170/170
f 433/433/433 466/466/466 467/467/467
f 433/433/433 467/467/467 434/434/434
f 137/137/137 171/171/171 170/170/170
f 137/137/137 138/138/138 171/171/171
f 434/434/434 467/467/467 468/468/468
f 434/434/434 468/468/468 435/435/435
f 138/138/138 172/172/172 171/171/171
f 138/138/138 139/139/139 172/172/172
f 435/435/435 468/468/468 469/469/469
f 435/435/435 469/469/469 436/436/436
f 139/139/139 173/173/173 172/172/172
f 139/139/139 140/140/140 173/173/173
f 436/436/436 469/469/469 470/470/470
f 436/436/436 470/470/470 437/437/437
f 140/140/140 174/174/174 173/173/173
f 140/140/140 141/141/141 174/174/174
f 437/437/437 470/470/470 471/471/471
f 437/437/437 471/471/471 438/438/438
f 141/141/141 175/175/175 174/174/174
f 141/141/141 142/142/142 175/175/175
f 438/438/438 471/471/471 472/472/472
f 438/438/438 472/472/472 439/439/439
f 142/142/142 176/176/176 175/175/175
f 142/142/142 143/143/143 176/176/176
f 439/439/439 472/472/472 473/473/473
f 439/439/439 473/473/473 440/440/440
f 143/143/143 177/177/177 176/176/176
f 143/143/143 144/144/144 177/177/177
f 440/440/440 473/473/473 474/474/474
f 440/440/440 474/474/474 441/441/441
f 144/144/144 178/178/178 177/177/177
f 144/144/144 145/145/145 178/178/178
f 441/441/441 474/474/474 475/475/475
f 441/441/441 475/475/475 442/442/442
f 145/145/145 179/179/179 178/178/178
f 145/145/145 146/146/146 179/179/179
f 442/442/442 475/475/475 476/476/476
f 442/442/442 476/476/476 443/443/443
f 146/146/146 180/180/180 179/179/179
f 146/146/146 147/147/147 180/180/180
f 443/443/443 476/476/476 477/477/477
f 443/443/443 477/477/477 444/444/444
f 147/147/147 181/181/181 180/180/180
f 147/147/147 148/148/148 181/181/181
f 444/444/444 477/477/477 478/478/478
f 444/444/444 478/478/478 445/445/445
f 148/148/148 182/182/182 181/181/181
f 148/148/148 149/149/149 182/182/182
f 445/445/445 478/478/478 479/479/479
f 445/445/445 479/479/479 446/446/446
f 149/149/149 183/183/183 182/182/182
f 149/149/149 150/150/150 183/183/183
f 446/446/446 479/479/479 480/480/480
f 446/446/446 480/480/480 447/447/447
f 150/150/150 184/184/184 183/183/183
f 150/150/150 151/151/151 184/184/184
f 447/447/447 480/480/480 481/481/481
f 447/447/447 481/481/481 448/448/448
f 151/151/151 185/185/185 184/184/184
f 151/151/151 152/152/152 185/185/185
f 448/448/448 481/481/481 482/482/482
f 448/448/448 482/482/482 449/449/449
f 152/152/152 186/186/186 185/185/185
f 152/152/152 153/153/153 186/186/186
f 449/449/449 482/482/482 483/483/483
f 449/449/449 483/483/483 450/450/450
f 153/153/153 187/187/187 186/186/186
f 153/153/153 154/154/154 187/187/187
f 450/450/450 483/483/483 484/484/484
f 450/450/450 484/484/484 451/451/451
f 154/154/154 188/188/188 187/187/187
f 154/154/154 155/155/155 188/188/188
f 451/451/451 484/484/484 485/485/485
f 451/451/451 485/485/485 452/452/452
f 155/155/155 189/189/189 188/188/188
f 155/155/155 156/156/156 189/189/189
f 452/452/452 485/485/485 486/486/486
f 452/452/452 486/486/486 453/453/453
f 156/156/156 190/190/190 189/189/189
f 156/156/156 157/157/157 190/190/190
f 453/453/453 486/486/486 487/487/487
f 453/453/453 487/487/487 454/454/454
f 157/157/157 191/191/191 190/190/190
f 157/157/157 158/158/158 191/191/191
f 454/454/454 487/487/487 488/488/488
f 454/454/454 488/488/488 455/455/455
f 158/158/158 192/192/192 191/191/191
f 158/158/158 159/159/159 192/192/192
f 455/455/455 488/488/488 489/489/489
f 455/455/455 489/489/489 456/456/456
f 159/159/159 193/193/193 192/192/192
f 159/159/159 160/160/160 193/193/193
f 456/456/456 489/489/489 490/490/490
f 456/456/456 490/490/490 457/457/457
f 160/160/160 194/194/194 193/193/193
f 160/160/160 161/161/161 194/194/194
f 457/457/457 490/490/490 491/491/491
f 457/457/457 491/491/491 458/458/458
f 161/161/161 195/195/195 194/194/194
f 161/161/161 162/162/162 195/195/195
f 458/458/458 491/491/491 492/492/492
f 458/458/458 492/492/492 459/459/459
f 162/162/162 196/196/196 195/195/195
f 162/162/162 163/163/163 196/196/196
f 459/459/459 492/492/492 493/493/493
f 459/459/459 493/493/493 460/460/460
f 163/163/163 197/197/197 196/196/196
f 163/163/163 164/164/164 197/197/197
f 460/460/460 493/493/493 494/494/494
f 460/460/460 494/494/494 461/461/461
f 164/164/164 198/198/198 197/197/197
f 164/164/164 165/165/165 198/198/198
f 461/461/461 494/494/494 495/495/495
f 461/461/461 495/495/495 462/462/462
f 166/166/166 200/200/200 199/199/199
f 166/166/166 167/167/167 200/200/200
f 463/463/463 496/496/496 497/497/497
f 463/463/463 497/497/497 464/464/464
f 167/167/167 201/201/201 200/200/200
f 167/167/167 168/168/168 201/201/201
f 464/464/464 497/497/497 498/498/498
f 464/464/464 498/498/498 465/465/465
f 168/168/168 202/202/202 201/201/201
f 168/168/168 169/169/169 202/202/202
f 465/465/465 498/498/498 499/499/499
f 465/465/465 499/499/499 466/466/466
f 169/169/169 203/203/203 202/202/202
f 169/169/169 170/170/170 203/203/203
f 466/466/466 499/499/499 500/500/500
f 466/466/466 500/500/500 467/467/467
f 170/170/170 204/204/204 203/203/203
f 170/170/170 171/171/171 204/204/204
f 467/467/467 500/500/500 501/501/501
f 467/467/467 501/501/501 468/468/468
f 171/171/171 205/205/205 204/204/204
f 171/171/171 172/172/172 205/205/205
f 468/468/468 501/501/501 502/502/502
f 468/468/468 502/502/502 469/469/469
f 172/172/172 206/206/206 205/205/205
f 172/172/172 173/173/173 206/206/206
f 469/469/469 502/502/502 503/503/503
f 469/469/469 503/503/503 470/470/470
f 173/173/173 207/207/207 206/206/206
f 173/173/173 174/174/174 207/207/207
f 470/470/470 503/503/503 504/504/504
f 470/470/470 504/504/504 471/471/471
f 174/174/174 208/208/208 207/207/207
f 174/174/174 175/175/175 208/208/208
f 471/471/471 504/504/504 505/505/505
f 471/471/471 505/505/505 472/472/472
f 175/175/175 209/209/209 208/208/208
f 175/175/175 176/176/176 209/209/209
f 472/472/472 505/505/505 506/506/506
f 472/472/472 506/506/506 473/473/473
f 176/176/176 210/210/210 209/209/209
f 176/176/176 177/177/177 210/210/210
f 473/473/473 506/506/506 507/507/507
f 473/473/473 507/507/507 474/474/474
f 177/177/177 211/211/211 210/210/210
f 177/177/177 178/178/178 211/211/211
f 474/474/474 507/507/507 508/508/508
f 474/474/474 508/508/508 475/475/475
f 178/178/178 212/212/212 211/211/211
f 178/178/178 179/179/179 212/212/212
f 475/475/475 508/508/508 509/509/509
f 475/475/475 509/509/509 476/476/476
f 179/179/179 213/213/213 212/212/212
f 179/179/179 180/180/180 213/213/213
f 476/476/476 509/509/509 510/510/510
f 476/476/476 510/510/510 477/477/477
f 180/180/180 214/214/214 213/213/213
f 180/180/180 181/181/181 214/214/214
f 477/477/477 510/510/510 511/511/511
f 477/477/477 511/511/511 478/478/478
f 181/181/181 215/215/215 214/214/214
f 181/181/181 182/182/182 215/215/215
f 478/478/478 511/511/511 512/512/512
f 478/478/478 512/512/512 479/479/479
f 182/182/182 216/216/216 215/215/215
f 182/182/182 183/183/183 216/216/216
f 479/479/479 512/512/512 513/513/513
f 479/479/479 513/513/513 480/480/480
f 183/183/183 217/217/217 216/216/216
f 183/183/183 184/184/184 217/217/217
f 480/480/480 513/513/513 514/514/514
f 480/480/480 514/514/514 481/481/481
f 184/184/184 218/218/218 217/217/217
f 184/184/184 185/185/185 218/218/218
f 481/481/481 514/514/514 515/515/515
f 481/481/481 515/515/515 482/482/482
f 185/185/185 219/219/219 218/218/218
f 185/185/185 186/186/186 219/219/219
f 482/482/482 515/515/515 516/516/516
f 482/482/482 516/516/516 483/483/483
f 186/186/186 220/220/220 219/219/219
f 186/186/186 187/187/187 220/220/220
f 483/483/483 516/516/516 517/517/517
f 483/483/483 517/517/517 484/484/484
f 187/187/187 221/221/221 220/220/220
f 187/187/187 188/188/188 221/221/221
f 484/484/484 517/517/517 518/518/518
f 484/484/484 518/518/518 485/485/485
f 188/188/188 222/222/222 221/221/221
f 188/188/188 189/189/189 222/222/222
f 485/485/485 518/518/518 519/519/519
f 485/485/485 519/519/519 486/486/486
f 189/189/189 223/223/223 222/222/222
f 189/189/189 190/190/190 223/223/223
f 486/486/486 519/519/519 520/520/520
f 486/486/486 520/520/520 487/487/487
f 190/190/190 224/224/224 223/223/223
f 190/190/190 191/191/191 224/224/224
f 487/487/487 520/520/520 521/521/521
f 487/487/487 521/521/521 488/488/488
f 191/191/191 225/225/225 224/224/224
f 191/191/191 192/192/192 225/225/225
f 488/488/488 521/521/521 522/522/522
f 488/488/488 522/522/522 489/489/489
f 192/192/192 226/226/226 225/225/225
f 192/192/192 193/193/193 226/226/226
f 489/489/489 522/522/522 523/523/523
f 489/489/489 523/523/523 490/490/490
f 193/193/193 227/227/227 226/226/226
f 193/193/193 194/194/194 227/227/227
f 490/490/490 523/523/523 524/524/524
f 490/490/490 524/524/524 491/491/491
f 194/194/194 228/228/228 227/227/227
f 194/194/194 195/195/195 228/228/228
f 491/491/491 524/524/524 525/525/525
f 491/491/491 525/525/525 492/492/492
f 195/195/195 229/229/229 228/228/228
f 195/195/195 196/196/196 229/229/229
f 492/492/492 525/525/525 526/526/526
f 492/492/492 526/526/526 493/493/493
f 196/196/196 230/230/230 229/229/229
f 196/196/196 197/197/197 230/230/230
f 493/493/493 526/526/526 527/527/527
f 493/493/493 527/527/527 494/494/494
f 197/197/197 231/231/231 230/230/230
f 197/197/197 198/198/198 231/231/231
f 494/494/494 527/527/527 528/528/528
f 494/494/494 528/528/528 495/495/495
f 199/199/199 233/233/233 232/232/232
f 199/199/199 200/200/200 233/233/233
f 496/496/496 529/529/529 530/530/530
f 496/496/496 530/530/530 497/497/497
f 200/200/200 234/234/234 233/233/233
f 200/200/200 201/201/201 234/234/234
f 497/497/497 530/530/530 531/531/531
f 497/497/497 531/531/531 498/498/498
f 201/201/201 235/235/235 234/234/234
f 201/201/201 202/202/202 235/235/235
f 498/498/498 531/531/531 532/532/532
f 498/498/498 532/532/532 499/499/499
f 202/202/202 236/236/236 235/235/235
f 202/202/202 203/203/203 236/236/236
f 499/499/499 532/532/532 533/533/533
f 499/499/499 533/533/533 500/500/500
f 203/203/203 237/237/237 236/236/236
f 203/203/203 204/204/204 237/237/237
f 500/500/500 533/533/533 534/534/534
f 500/500/500 534/534/534 501/501/501
f 204/204/204 238/238/238 237/237/237
f 204/204/204 205/205/205 238/238/238
f 501/501/501 534/534/534 535/535/535
f 501/501/501 535/535/535 502/502/502
f 205/205/205 239/239/239 238/238/238
f 205/205/205 206/206/206 239/239/239
f 502/502/502 535/535/535 536/536/536
f 502/502/502 536/536/536 503/503/503
f 206/206/206 240/240/240 239/239/239
f 206/206/206 207/207/207 240/240/240
f 503/503/503 536/536/536 537/537/537
f 503/503/503 537/537/537 504/504/504
f 207/207/207 241/241/241 240/240/240
f 207/207/207 208/208/208 241/241/241
f 504/504/504 537/537/537 538/538/538
f 504/504/504 538/538/538 505/505/505
f 208/208/208 242/242/242 241/241/241
f 208/208/208 209/209/209 242/242/242
f 505/505/505 538/538/538 539/539/539
f 505/505/505 539/539/539 506/506/506
f 209/209/209 243/243/243 242/242/242
f 209/209/209 210/210/210 243/243/243
f 506/506/506 539/539/539 540/540/540
f 506/506/506 540/540/540 507/507/507
f 210/210/210 244/244/244 243/243/243
f 210/210/210 211/211/211 244/244/244
f 507/507/507 540/540/540 541/541/541
f 507/507/507 541/541/541 508/508/508
f 211/211/211 245/245/245 244/244/244
f 211/211/211 212/212/212 245/245/245
f 508/508/508 541/541/541 542/542/542
f 508/508/508 542/542/542 509/509/509
f 212/212/212 246/246/246 245/245/245
f 212/212/212 213/213/213 246/246/246
f 509/509/509 542/542/542 543/543/543
f 509/509/509 543/543/543 510/510/510
f 213/213/213 247/247/247 246/246/246
f 213/213/213 214/214/214 247/247/247
f 510/510/510 543/543/543 544/544/544
f 510/510/510 544/544/544 511/511/511
f 214/214/214 248/248/248 247/247/247
f 214/214/214 215/215/215 248/248/248
f 511/511/511 544/544/544 545/545/545
f 511/511/511 545/545/545 512/512/512
f 215/215/215 249/249/249 248/248/248
f 215/215/215 216/216/216 249/249/249
f 512/512/512 545/545/545 546/546/546
f 512/512/512 546/546/546 513/513/513
f 216/216/216 250/250/250 249/249/249
f 216/216/216 217/217/217 250/250/250
f 513/513/513 546/546/546 547/547/547
f 513/513/513 547/547/547 514/514/514
f 217/217/217 251/251/251 250/250/250
f 217/217/217 218/218/218 251/251/251
f 514/514/514 547/547/547 548/548/548
f 514/514/514 548/548/548 515/515/515
f 218/218/218 252/252/252 251/251/251
f 218/218/218 219/219/219 252/252/252
f 515/515/515 548/548/548 549/549/549
f 515/515/515 549/549/549 516/516/516
f 219/219/219 253/253/253 252/252/252
f 219/219/219 220/220/220 253/253/253
f 516/516/516 549/549/549 550/550/550
f 516/516/516 550/550/550 517/517/517
f 220/220/220 254/254/254 253/253/253
f 220/220/220 221/221/221 254/254/254
f 517/517/517 550/550/550 551/551/551
f 517/517/517 551/551/551 518/518/518
f 221/221/221 255/255/255 254/254/254
f 221/221/221 222/222/222 255/255/255
f 518/518/518 551/551/551 552/552/552
f 518/518/518 552/552/552 519/519/519
f 222/222/222 256/256/256 255/255/255
f 222/222/222 223/223/223 256/256/256
f 519/519/519 552/552/552 553/553/553
f 519/519/519 553/553/553 520/520/520
f 223/223/223 257/257/257 256/256/256
f 223/223/223 224/224/224 257/257/257
f 520/520/520 553/553/553 554/554/554
f 520/520/520 554/554/554 521/521/521
f 224/224/224 258/258/258 257/257/257
f 224/224/224 225/225/225 258/258/258
f 521/521/521 554/554/554 555/555/555
f 521/521/521 555/555/555 522/522/522
f 225/225/225 259/259/259 258/258/258
f 225/225/225 226/226/226 259/259/259
f 522/522/522 555/555/555 556/556/556
f 522/522/522 556/556/556 523/523/523
f 226/226/226 260/260/260 259/259/259
f 226/226/226 227/227/227 260/260/260
f 523/523/523 556/556/556 557/557/557
f 523/523/523 557/557/557 524/524/524
f 227/227/227 261/261/261 260/260/260
f 227/227/227 228/228/228 261/261/261
f 524/524/524 557/557/557 558/558/558
f 524/524/524 558/558/558 525/525/525
f 228/228/228 262/262/262 261/261/261
f 228/228/228 229/229/229 262/262/262
f 525/525/525 558/558/558 559/559/559
f 525/525/525 559/559/559 526/526/526
f 229/229/229 263/263/263 262/262/262
f 229/229/229 230/230/230 263/263/263
f 526/526/526 559/559/559 560/560/560
f 526/526/526 560/560/560 527/527/527
f 230/230/230 264/264/264 263/263/263
f 230/230/230 231/231/231 264/264/264
f 527/527/527 560/560/560 561/561/561
f 527/527/527 561/561/561 528/528/528
f 232/232/232 266/266/266 265/265/265
f 232/232/232 233/233/233 266/266/266
f 529/529/529 562/562/562 563/563/563
f 529/529/529 563/563/563 530/530/530
f 233/233/233 267/267/267 266/266/266
f 233/233/233 234/234/234 267/267/267
f 530/530/530 563/563/563 564/564/564
f 530/530/530 564/564/564 531/531/531
f 234/234/234 268/268/268 267/267/267
f 234/234/234 235/235/235 268/268/268
f 531/531/531 564/564/564 565/565/565
f 531/531/531 565/565/565 532/532/532
f 235/235/235 269/269/269 268/268/268
f 235/235/235 236/236/236 269/269/269
f 532/532/532 565/565/565 566/566/566
f 532/532/532 566/566/566 533/533/533
f 236/236/236 270/270/270 269/269/269
f 236/236/236 237/237/237 270/270/270
f 533/533/533 566/566/566 567/567/567
f 533/533/533 567/567/567 534/534/534
f 237/237/237 271/271/271 270/270/270
f 237/237/237 238/238/238 271/271/271
f 534/534/534 567/567/567 568/568/568
f 534/534/534 568/568/568 535/535/535
f 238/238/238 272/272/272 271/271/271
f 238/238/238 239/239/239 272/272/272
f 535/535/535 568/568/568 569/569/569
f 535/535/535 569/569/569 536/536/536
f 239/239/239 273/273/273 272/272/272
f 239/239/239 240/240/240 273/273/273
f 536/536/536 569/569/569 570/570/570
f 536/536/536 570/570/570 537/537/537
f 240/240/240 274/274/274 273/273/273
f 240/240/240 241/241/241 274/274/274
f 537/537/537 570/570/570 571/571/571
f 537/537/537 571/571/571 538/538/538
f 241/241/241 275/275/275 274/274/274
f 241/241/241 242/242/242 275/275/275
f 538/538/538 571/571/571 572/572/572
f 538/538/538 572/572/572 539/539/539
f 242/242/242 276/276/276 275/275/275
f 242/242/242 243/243/243 276/276/276
f 539/539/539 572/572/572 573/573/573
f 539/539/539 573/573/573 540/540/540
f 243/243/243 277/277/277 276/276/276
f 243/243/243 244/244/244 277/277/277
f 540/540/540 573/573/573 574/574/574
f 540/540/540 574/574/574 541/541/541
f 244/244/244 278/278/278 277/277/277
f 244/244/244 245/245/245 278/278/278
f 541/541/541 574/574/574 575/575/575
f 541/541/541 575/575/575 542/542/542
f 245/245/245 279/279/279 278/278/278
f 245/245/245 246/246/246 279/279/279
f 542/542/542 575/575/575 576/576/576
f 542/542/542 576/576/576 543/543/543
f 246/246/246 280/280/280 279/279/279
f 246/246/246 247/247/247 280/280/280
f 543/543/543 576/576/576 577/577/577
f 543/543/543 577/577/577 544/544/544
f 247/247/247 281/281/281 280/280/280
f 247/247/247 248/248/248 281/281/281
f 544/544/544 577/577/577 578/578/578
f 544/544/544 578/578/578 545/545/545
f 248/248/248 282/282/282 281/281/281
f 248/248/248 249/249/249 282/282/282
f 545/545/545 578/578/578 579/579/579
f 545/545/545 579/579/579 546/546/546
f 249/249/249 283/283/283 282/282/282
f 249/249/249 250/250/250 283/283/283
f 546/546/546 579/579/579 580/580/580
f 546/546/546 580/580/580 547/547/547
f 250/250/250 284/284/284 283/283/283
f 250/250/250 251/251/251 284/284/284
f 547/547/547 580/580/580 581/581/581
f 547/547/547 581/581/581 548/548/548
f 251/251/251 285/285/285 284/284/284
f 251/251/251 252/252/252 285/285/285
f 548/548/548 581/581/581 582/582/582
f 548/548/548 582/582/582 549/549/549
f 252/252/252 286/286/286 285/285/285
f 252/252/252 253/253/253 286/286/286
f 549/549/549 582/582/582 583/583/583
f 549/549/549 583/583/583 550/550/550
f 253/253/253 287/287/287 286/286/286
f 253/253/253 254/254/254 287/287/287
f 550/550/550 583/583/583 584/584/584
f 550/550/550 584/584/584 551/551/551
f 254/254/254 288/288/288 287/287/287
f 254/254/254 255/255/255 288/288/288
f 551/551/551 584/584/584 585/585/585
f 551/551/551 585/585/585 552/552/552
f 255/255/255 289/289/289 288/288/288
f 255/255/255 256/256/256 289/289/289
f 552/552/552 585/585/585 586/586/586
f 552/552/552 586/586/586 553/553/553
f 256/256/256 290/290/290 289/289/289
f 256/256/256 257/257/257 290/290/290
f 553/553/553 586/586/586 587/587/587
f 553/553/553 587/587/587 554/554/554
f 257/257/257 291/291/291 290/290/290
f 257/257/257 258/258/258 291/291/291
f 554/554/554 587/587/587 588/588/588
f 554/554/554 588/588/588 555/555/555
f 258/258/258 292/292/292 291/291/291
f 258/258/258 259/259/259 292/292/292
f 555/555/555 588/588/588 589/589/589
f 555/555/555 589/589/589 556/556/556
f 259/259/259 293/293/293 292/292/292
f 259/259/259 260/260/260 293/293/293
f 556/556/556 589/589/589 590/590/590
f 556/556/556 590/590/590 557/557/557
f 260/260/260 294/294/294 293/293/293
f 260/260/260 261/261/261 294/294/294
f 557/557/557 590/590/590 591/591/591
f 557/557/557 591/591/591 558/558/558
f 261/261/261 295/295/295 294/294/294
f 261/261/261 262/262/262 295/295/295
f 558/558/558 591/591/591 592/592/592
f 558/558/558 592/592/592 559/559/559
f 262/262/262 296/296/296 295/295/295
f 262/262/262 263/263/263 296/296/296
f 559/559/559 592/592/592 593/593/593
f 559/559/559 593/593/593 560/560/560
f 263/263/263 297/297/297 296/296/296
f 263/263/263 264/264/264 297/297/297
f 560/560/560 593/593/593 594/594/594
f 560/560/560 594/594/594 561/561/561
f 265/265/265 266/266/266 563/563/563
f 265/265/265 563/563/563 562/562/562
f 266/266/266 267/267/267 564/564/564
f 266/266/266 564/564/564 563/563/563
f 267/267/267 268/268/268 565/565/565
f 267/267/267 565/565/565 564/564/564
f 268/268/268 269/269/269 566/566/566
f 268/268/268 566/566/566 565/565/565
f 269/269/269 270/270/270 567/567/567
f 269/269/269 567/567/567 566/566/566
f 270/270/270 271/271/271 568/568/568
f 270/270/270 568/568/568 567/567/567
f 271/271/271 272/272/272 569/569/569
f 271/271/271 569/569/569 568/568/568
f 272/272/272 273/273/273 570/570/570
f 272/272/272 570/570/570 569/569/569
f 273/273/273 274/274/274 571/571/571
f 273/273/273 571/571/571 570/570/570
f 274/274/274 275/275/275 572/572/572
f 274/274/274 572/572/572 571/571/571
f 275/275/275 276/276/276 573/573/573
f 275/275/275 573/573/573 572/572/572
f 276/276/276 277/277/277 574/574/574
f 276/276/276 574/574/574 573/573/573
f 277/277/277 278/278/278 575/575/575
f 277/277/277 575/575/575 574/574/574
f 278/278/278 279/279/279 576/576/576
f 278/278/278 576/576/576 575/575/575
f 279/279/279 280/280/280 577/577/577
f 279/279/279 577/577/577 576/576/576
f 280/280/280 281/281/281 578/578/578
f 280/280/280 578/578/578 577/577/577
f 281/281/281 282/282/282 579/579/579
f 281/281/281 579/579/579 578/578/578
f 282/282/282 283/283/283 580/580/580
f 282/282/282 580/580/580 579/579/579
f 283/283/283 284/284/284 581/581/581
f 283/283/283 581/581/581 580/580/580
f 284/284/284 285/285/285 582/582/582
f 284/284/284 582/582/582 581/581/581
f 285/285/285 286/286/286 583/583/583
f 285/285/285 583/583/583 582/582/582
f 286/286/286 287/287/287 584/584/584
f 286/286/286 584/584/584 583/583/583
f 287/287/287 288/288/288 585/585/585
f 287/287/287 585/585/585 584/584/584
f 288/288/288 289/289/289 586/586/586
f 288/288/288 586/586/586 585/585/585
f 289/289/289 290/290/290 587/587/587
f 289/289/289 587/587/587 586/586/586
f 290/290/290 291/291/291 588/588/588
f 290/290/290 588/588/588 587/587/587
f 291/291/291 292/292/292 589/589/589
f 291/291/291 589/589/589 588/588/588
f 292/292/292 293/293/293 590/590/590
f 292/292/292 590/590/590 589/589/589
f 293/293/293 294/294/294 591/591/591
f 293/293/293 591/591/591 590/590/590
f 294/294/294 295/295/295 592/592/592
f 294/294/294 592/592/592 591/591/591
f 295/295/295 296/296/296 593/593/593
f 295/295/295 593/593/593 592/592/592
f 296/296/296 297/297/297 594/594/594
f 296/296/296 594/594/594 593/593/593
