# generated by tools/make_gecko_mesh.py -- do not hand-edit
v 0.013377 0.011667 0.000254
v 0.013377 0.011374 0.002141
v 0.013377 0.010511 0.003934
v 0.013377 0.009121 0.005542
v 0.013377 0.007274 0.006885
v 0.013377 0.005062 0.007896
v 0.013377 0.002596 0.008523
v 0.013377 0.000000 0.008736
v 0.013377 -0.002596 0.008523
v 0.013377 -0.005062 0.007896
v 0.013377 -0.007274 0.006885
v 0.013377 -0.009121 0.005542
v 0.013377 -0.010511 0.003934
v 0.013377 -0.011374 0.002141
v 0.013377 -0.011667 0.000254
v 0.013377 -0.011374 -0.001634
v 0.013377 -0.010511 -0.003427
v 0.013377 -0.009121 -0.005035
v 0.013377 -0.007274 -0.006378
v 0.013377 -0.005062 -0.007389
v 0.013377 -0.002596 -0.008016
v 0.013377 -0.000000 -0.008229
v 0.013377 0.002596 -0.008016
v 0.013377 0.005062 -0.007389
v 0.013377 0.007274 -0.006378
v 0.013377 0.009121 -0.005035
v 0.013377 0.010511 -0.003427
v 0.013377 0.011374 -0.001634
v 0.013377 0.011667 0.000254
v 0.012443 0.011424 0.000094
v 0.012443 0.011180 0.002406
v 0.012443 0.010454 0.004175
v 0.012443 0.009265 0.005650
v 0.012443 0.007642 0.006830
v 0.012443 0.005613 0.007695
v 0.012443 0.003180 0.008222
v 0.012443 0.000000 0.008400
v 0.012443 -0.003180 0.008222
v 0.012443 -0.005613 0.007695
v 0.012443 -0.007642 0.006830
v 0.012443 -0.009265 0.005650
v 0.012443 -0.010454 0.004175
v 0.012443 -0.011180 0.002406
v 0.012443 -0.011424 0.000094
v 0.012443 -0.011138 -0.001754
v 0.012443 -0.010293 -0.003510
v 0.012443 -0.008932 -0.005085
v 0.012443 -0.007123 -0.006400
v 0.012443 -0.004957 -0.007389
v 0.012443 -0.002542 -0.008004
v 0.012443 -0.000000 -0.008212
v 0.012443 0.002542 -0.008004
v 0.012443 0.004957 -0.007389
v 0.012443 0.007123 -0.006400
v 0.012443 0.008932 -0.005085
v 0.012443 0.010293 -0.003510
v 0.012443 0.011138 -0.001754
v 0.012443 0.011424 0.000094
v 0.011509 0.011182 0.000019
v 0.011509 0.010943 0.002288
v 0.011509 0.010233 0.004025
v 0.011509 0.009069 0.005473
v 0.011509 0.007480 0.006631
v 0.011509 0.005494 0.007480
v 0.011509 0.003112 0.007998
v 0.011509 0.000000 0.008172
v 0.011509 -0.003112 0.007998
v 0.011509 -0.005494 0.007480
v 0.011509 -0.007480 0.006631
v 0.011509 -0.009069 0.005473
v 0.011509 -0.010233 0.004025
v 0.011509 -0.010943 0.002288
v 0.011509 -0.011182 0.000019
v 0.011509 -0.010902 -0.001795
v 0.011509 -0.010075 -0.003518
v 0.011509 -0.008743 -0.005064
v 0.011509 -0.006972 -0.006355
v 0.011509 -0.004852 -0.007326
v 0.011509 -0.002488 -0.007929
v 0.011509 -0.000000 -0.008134
v 0.011509 0.002488 -0.007929
v 0.011509 0.004852 -0.007326
v 0.011509 0.006972 -0.006355
v 0.011509 0.008743 -0.005064
v 0.011509 0.010075 -0.003518
v 0.011509 0.010902 -0.001795
v 0.011509 0.011182 0.000019
v 0.010574 0.010837 0.000000
v 0.010574 0.010605 0.002216
v 0.010574 0.009916 0.003912
v 0.010574 0.008789 0.005326
v 0.010574 0.007249 0.006457
v 0.010574 0.005324 0.007286
v 0.010574 0.003016 0.007792
v 0.010574 0.000000 0.007962
v 0.010574 -0.003016 0.007792
v 0.010574 -0.005324 0.007286
v 0.010574 -0.007249 0.006457
v 0.010574 -0.008789 0.005326
v 0.010574 -0.009916 0.003912
v 0.010574 -0.010605 0.002216
v 0.010574 -0.010837 0.000000
v 0.010574 -0.010565 -0.001772
v 0.010574 -0.009764 -0.003455
v 0.010574 -0.008472 -0.004964
v 0.010574 -0.006757 -0.006225
v 0.010574 -0.004702 -0.007174
v 0.010574 -0.002411 -0.007762
v 0.010574 -0.000000 -0.007962
v 0.010574 0.002411 -0.007762
v 0.010574 0.004702 -0.007174
v 0.010574 0.006757 -0.006225
v 0.010574 0.008472 -0.004964
v 0.010574 0.009764 -0.003455
v 0.010574 0.010565 -0.001772
v 0.010574 0.010837 -0.000000
v 0.009640 0.010436 -0.000000
v 0.009640 0.010213 0.002159
v 0.009640 0.009550 0.003811
v 0.009640 0.008464 0.005189
v 0.009640 0.006981 0.006291
v 0.009640 0.005128 0.007098
v 0.009640 0.002905 0.007591
v 0.009640 0.000000 0.007757
v 0.009640 -0.002905 0.007591
v 0.009640 -0.005128 0.007098
v 0.009640 -0.006981 0.006291
v 0.009640 -0.008464 0.005189
v 0.009640 -0.009550 0.003811
v 0.009640 -0.010213 0.002159
v 0.009640 -0.010436 0.000000
v 0.009640 -0.010174 -0.001726
v 0.009640 -0.009403 -0.003366
v 0.009640 -0.008159 -0.004836
v 0.009640 -0.006507 -0.006065
v 0.009640 -0.004528 -0.006989
v 0.009640 -0.002322 -0.007563
v 0.009640 -0.000000 -0.007757
v 0.009640 0.002322 -0.007563
v 0.009640 0.004528 -0.006989
v 0.009640 0.006507 -0.006065
v 0.009640 0.008159 -0.004836
v 0.009640 0.009403 -0.003366
v 0.009640 0.010174 -0.001726
v 0.009640 0.010436 -0.000000
v 0.008706 0.010097 0.000000
v 0.008706 0.009881 0.002119
v 0.008706 0.009239 0.003741
v 0.008706 0.008189 0.005093
v 0.008706 0.006754 0.006175
v 0.008706 0.004961 0.006967
v 0.008706 0.002810 0.007451
v 0.008706 0.000000 0.007613
v 0.008706 -0.002810 0.007451
v 0.008706 -0.004961 0.006967
v 0.008706 -0.006754 0.006175
v 0.008706 -0.008189 0.005093
v 0.008706 -0.009239 0.003741
v 0.008706 -0.009881 0.002119
v 0.008706 -0.010097 0.000000
v 0.008706 -0.009844 -0.001694
v 0.008706 -0.009097 -0.003303
v 0.008706 -0.007894 -0.004747
v 0.008706 -0.006295 -0.005952
v 0.008706 -0.004381 -0.006859
v 0.008706 -0.002247 -0.007422
v 0.008706 -0.000000 -0.007613
v 0.008706 0.002247 -0.007422
v 0.008706 0.004381 -0.006859
v 0.008706 0.006295 -0.005952
v 0.008706 0.007894 -0.004747
v 0.008706 0.009097 -0.003303
v 0.008706 0.009844 -0.001694
v 0.008706 0.010097 0.000000
v 0.007772 0.009956 0.000000
v 0.007772 0.009743 0.002123
v 0.007772 0.009110 0.003748
v 0.007772 0.008074 0.005103
v 0.007772 0.006660 0.006187
v 0.007772 0.004892 0.006981
v 0.007772 0.002771 0.007466
v 0.007772 0.000000 0.007629
v 0.007772 -0.002771 0.007466
v 0.007772 -0.004892 0.006981
v 0.007772 -0.006660 0.006187
v 0.007772 -0.008074 0.005103
v 0.007772 -0.009110 0.003748
v 0.007772 -0.009743 0.002123
v 0.007772 -0.009956 0.000000
v 0.007772 -0.009706 -0.001698
v 0.007772 -0.008970 -0.003310
v 0.007772 -0.007784 -0.004757
v 0.007772 -0.006207 -0.005965
v 0.007772 -0.004320 -0.006874
v 0.007772 -0.002215 -0.007438
v 0.007772 -0.000000 -0.007629
v 0.007772 0.002215 -0.007438
v 0.007772 0.004320 -0.006874
v 0.007772 0.006207 -0.005965
v 0.007772 0.007784 -0.004757
v 0.007772 0.008970 -0.003310
v 0.007772 0.009706 -0.001698
v 0.007772 0.009956 -0.000000
v 0.006838 0.010091 0.000000
v 0.006838 0.009875 0.002189
v 0.006838 0.009234 0.003864
v 0.006838 0.008184 0.005261
v 0.006838 0.006750 0.006379
v 0.006838 0.004958 0.007197
v 0.006838 0.002809 0.007697
v 0.006838 0.000000 0.007865
v 0.006838 -0.002809 0.007697
v 0.006838 -0.004958 0.007197
v 0.006838 -0.006750 0.006379
v 0.006838 -0.008184 0.005261
v 0.006838 -0.009234 0.003864
v 0.006838 -0.009875 0.002189
v 0.006838 -0.010091 0.000000
v 0.006838 -0.009838 -0.001750
v 0.006838 -0.009091 -0.003412
v 0.006838 -0.007889 -0.004904
v 0.006838 -0.006291 -0.006149
v 0.006838 -0.004378 -0.007086
v 0.006838 -0.002245 -0.007668
v 0.006838 -0.000000 -0.007865
v 0.006838 0.002245 -0.007668
v 0.006838 0.004378 -0.007086
v 0.006838 0.006291 -0.006149
v 0.006838 0.007889 -0.004904
v 0.006838 0.009091 -0.003412
v 0.006838 0.009838 -0.001750
v 0.006838 0.010091 0.000000
v 0.005904 0.010469 0.000000
v 0.005904 0.010245 0.002310
v 0.005904 0.009579 0.004077
v 0.005904 0.008490 0.005551
v 0.005904 0.007003 0.006730
v 0.005904 0.005144 0.007594
v 0.005904 0.002914 0.008121
v 0.005904 0.000000 0.008298
v 0.005904 -0.002914 0.008121
v 0.005904 -0.005144 0.007594
v 0.005904 -0.007003 0.006730
v 0.005904 -0.008490 0.005551
v 0.005904 -0.009579 0.004077
v 0.005904 -0.010245 0.002310
v 0.005904 -0.010469 0.000000
v 0.005904 -0.010206 -0.001847
v 0.005904 -0.009432 -0.003601
v 0.005904 -0.008185 -0.005174
v 0.005904 -0.006527 -0.006488
v 0.005904 -0.004542 -0.007477
v 0.005904 -0.002329 -0.008090
v 0.005904 -0.000000 -0.008298
v 0.005904 0.002329 -0.008090
v 0.005904 0.004542 -0.007477
v 0.005904 0.006527 -0.006488
v 0.005904 0.008185 -0.005174
v 0.005904 0.009432 -0.003601
v 0.005904 0.010206 -0.001847
v 0.005904 0.010469 -0.000000
v 0.004970 0.010964 0.000000
v 0.004970 0.010729 0.002458
v 0.004970 0.010033 0.004339
v 0.004970 0.008892 0.005908
v 0.004970 0.007334 0.007163
v 0.004970 0.005387 0.008082
v 0.004970 0.003052 0.008643
v 0.004970 0.000000 0.008832
v 0.004970 -0.003052 0.008643
v 0.004970 -0.005387 0.008082
v 0.004970 -0.007334 0.007163
v 0.004970 -0.008892 0.005908
v 0.004970 -0.010033 0.004339
v 0.004970 -0.010729 0.002458
v 0.004970 -0.010964 0.000000
v 0.004970 -0.010689 -0.001965
v 0.004970 -0.009878 -0.003832
v 0.004970 -0.008572 -0.005507
v 0.004970 -0.006836 -0.006905
v 0.004970 -0.004757 -0.007957
v 0.004970 -0.002440 -0.008610
v 0.004970 -0.000000 -0.008832
v 0.004970 0.002440 -0.008610
v 0.004970 0.004757 -0.007957
v 0.004970 0.006836 -0.006905
v 0.004970 0.008572 -0.005507
v 0.004970 0.009878 -0.003832
v 0.004970 0.010689 -0.001965
v 0.004970 0.010964 0.000000
v 0.004036 0.011435 0.000000
v 0.004036 0.011190 0.002601
v 0.004036 0.010464 0.004592
v 0.004036 0.009274 0.006252
v 0.004036 0.007649 0.007580
v 0.004036 0.005618 0.008552
v 0.004036 0.003183 0.009146
v 0.004036 0.000000 0.009346
v 0.004036 -0.003183 0.009146
v 0.004036 -0.005618 0.008552
v 0.004036 -0.007649 0.007580
v 0.004036 -0.009274 0.006252
v 0.004036 -0.010464 0.004592
v 0.004036 -0.011190 0.002601
v 0.004036 -0.011435 0.000000
v 0.004036 -0.011148 -0.002080
v 0.004036 -0.010302 -0.004055
v 0.004036 -0.008940 -0.005827
v 0.004036 -0.007130 -0.007307
v 0.004036 -0.004961 -0.008421
v 0.004036 -0.002545 -0.009112
v 0.004036 -0.000000 -0.009346
v 0.004036 0.002545 -0.009112
v 0.004036 0.004961 -0.008421
v 0.004036 0.007130 -0.007307
v 0.004036 0.008940 -0.005827
v 0.004036 0.010302 -0.004055
v 0.004036 0.011148 -0.002080
v 0.004036 0.011435 0.000000
v 0.003102 0.011793 0.000000
v 0.003102 0.011541 0.002716
v 0.003102 0.010791 0.004795
v 0.003102 0.009564 0.006528
v 0.003102 0.007889 0.007914
v 0.003102 0.005794 0.008930
v 0.003102 0.003282 0.009550
v 0.003102 0.000000 0.009759
v 0.003102 -0.003282 0.009550
v 0.003102 -0.005794 0.008930
v 0.003102 -0.007889 0.007914
v 0.003102 -0.009564 0.006528
v 0.003102 -0.010791 0.004795
v 0.003102 -0.011541 0.002716
v 0.003102 -0.011793 0.000000
v 0.003102 -0.011497 -0.002171
v 0.003102 -0.010625 -0.004234
v 0.003102 -0.009220 -0.006084
v 0.003102 -0.007353 -0.007630
v 0.003102 -0.005117 -0.008792
v 0.003102 -0.002624 -0.009514
v 0.003102 -0.000000 -0.009759
v 0.003102 0.002624 -0.009514
v 0.003102 0.005117 -0.008792
v 0.003102 0.007353 -0.007630
v 0.003102 0.009220 -0.006084
v 0.003102 0.010625 -0.004234
v 0.003102 0.011497 -0.002171
v 0.003102 0.011793 -0.000000
v 0.002167 0.012019 0.000000
v 0.002167 0.011762 0.002795
v 0.002167 0.010998 0.004934
v 0.002167 0.009748 0.006717
v 0.002167 0.008040 0.008144
v 0.002167 0.005905 0.009188
v 0.002167 0.003345 0.009826
v 0.002167 0.000000 0.010041
v 0.002167 -0.003345 0.009826
v 0.002167 -0.005905 0.009188
v 0.002167 -0.008040 0.008144
v 0.002167 -0.009748 0.006717
v 0.002167 -0.010998 0.004934
v 0.002167 -0.011762 0.002795
v 0.002167 -0.012019 0.000000
v 0.002167 -0.011718 -0.002234
v 0.002167 -0.010829 -0.004357
v 0.002167 -0.009397 -0.006261
v 0.002167 -0.007494 -0.007850
v 0.002167 -0.005215 -0.009047
v 0.002167 -0.002674 -0.009789
v 0.002167 -0.000000 -0.010041
v 0.002167 0.002674 -0.009789
v 0.002167 0.005215 -0.009047
v 0.002167 0.007494 -0.007850
v 0.002167 0.009397 -0.006261
v 0.002167 0.010829 -0.004357
v 0.002167 0.011718 -0.002234
v 0.002167 0.012019 0.000000
v 0.001233 0.012139 0.000000
v 0.001233 0.011879 0.002840
v 0.001233 0.011108 0.005014
v 0.001233 0.009845 0.006826
v 0.001233 0.008120 0.008276
v 0.001233 0.005964 0.009337
v 0.001233 0.003379 0.009986
v 0.001233 0.000000 0.010204
v 0.001233 -0.003379 0.009986
v 0.001233 -0.005964 0.009337
v 0.001233 -0.008120 0.008276
v 0.001233 -0.009845 0.006826
v 0.001233 -0.011108 0.005014
v 0.001233 -0.011879 0.002840
v 0.001233 -0.012139 0.000000
v 0.001233 -0.011834 -0.002271
v 0.001233 -0.010936 -0.004427
v 0.001233 -0.009490 -0.006362
v 0.001233 -0.007568 -0.007978
v 0.001233 -0.005267 -0.009193
v 0.001233 -0.002701 -0.009948
v 0.001233 -0.000000 -0.010204
v 0.001233 0.002701 -0.009948
v 0.001233 0.005267 -0.009193
v 0.001233 0.007568 -0.007978
v 0.001233 0.009490 -0.006362
v 0.001233 0.010936 -0.004427
v 0.001233 0.011834 -0.002271
v 0.001233 0.012139 0.000000
v 0.000299 0.012207 0.000000
v 0.000299 0.011946 0.002863
v 0.000299 0.011170 0.005053
v 0.000299 0.009900 0.006880
v 0.000299 0.008166 0.008341
v 0.000299 0.005998 0.009411
v 0.000299 0.003398 0.010065
v 0.000299 0.000000 0.010284
v 0.000299 -0.003398 0.010065
v 0.000299 -0.005998 0.009411
v 0.000299 -0.008166 0.008341
v 0.000299 -0.009900 0.006880
v 0.000299 -0.011170 0.005053
v 0.000299 -0.011946 0.002863
v 0.000299 -0.012207 0.000000
v 0.000299 -0.011901 -0.002288
v 0.000299 -0.010998 -0.004462
v 0.000299 -0.009544 -0.006412
v 0.000299 -0.007611 -0.008041
v 0.000299 -0.005296 -0.009266
v 0.000299 -0.002716 -0.010027
v 0.000299 -0.000000 -0.010284
v 0.000299 0.002716 -0.010027
v 0.000299 0.005296 -0.009266
v 0.000299 0.007611 -0.008041
v 0.000299 0.009544 -0.006412
v 0.000299 0.010998 -0.004462
v 0.000299 0.011901 -0.002288
v 0.000299 0.012207 -0.000000
vt 0.00000 0.92730
vt 0.07143 0.92730
vt 0.14286 0.92730
vt 0.21429 0.92730
vt 0.28571 0.92730
vt 0.35714 0.92730
vt 0.42857 0.92730
vt 0.50000 0.92730
vt 0.57143 0.92730
vt 0.64286 0.92730
vt 0.71429 0.92730
vt 0.78571 0.92730
vt 0.85714 0.92730
vt 0.92857 0.92730
vt 1.00000 0.92730
vt 1.07143 0.92730
vt 1.14286 0.92730
vt 1.21429 0.92730
vt 1.28571 0.92730
vt 1.35714 0.92730
vt 1.42857 0.92730
vt 1.50000 0.92730
vt 1.57143 0.92730
vt 1.64286 0.92730
vt 1.71429 0.92730
vt 1.78571 0.92730
vt 1.85714 0.92730
vt 1.92857 0.92730
vt 2.00000 0.92730
vt 0.00000 0.95889
vt 0.07143 0.95889
vt 0.14286 0.95889
vt 0.21429 0.95889
vt 0.28571 0.95889
vt 0.35714 0.95889
vt 0.42857 0.95889
vt 0.50000 0.95889
vt 0.57143 0.95889
vt 0.64286 0.95889
vt 0.71429 0.95889
vt 0.78571 0.95889
vt 0.85714 0.95889
vt 0.92857 0.95889
vt 1.00000 0.95889
vt 1.07143 0.95889
vt 1.14286 0.95889
vt 1.21429 0.95889
vt 1.28571 0.95889
vt 1.35714 0.95889
vt 1.42857 0.95889
vt 1.50000 0.95889
vt 1.57143 0.95889
vt 1.64286 0.95889
vt 1.71429 0.95889
vt 1.78571 0.95889
vt 1.85714 0.95889
vt 1.92857 0.95889
vt 2.00000 0.95889
vt 0.00000 0.99013
vt 0.07143 0.99013
vt 0.14286 0.99013
vt 0.21429 0.99013
vt 0.28571 0.99013
vt 0.35714 0.99013
vt 0.42857 0.99013
vt 0.50000 0.99013
vt 0.57143 0.99013
vt 0.64286 0.99013
vt 0.71429 0.99013
vt 0.78571 0.99013
vt 0.85714 0.99013
vt 0.92857 0.99013
vt 1.00000 0.99013
vt 1.07143 0.99013
vt 1.14286 0.99013
vt 1.21429 0.99013
vt 1.28571 0.99013
vt 1.35714 0.99013
vt 1.42857 0.99013
vt 1.50000 0.99013
vt 1.57143 0.99013
vt 1.64286 0.99013
vt 1.71429 0.99013
vt 1.78571 0.99013
vt 1.85714 0.99013
vt 1.92857 0.99013
vt 2.00000 0.99013
vt 0.00000 1.02127
vt 0.07143 1.02127
vt 0.14286 1.02127
vt 0.21429 1.02127
vt 0.28571 1.02127
vt 0.35714 1.02127
vt 0.42857 1.02127
vt 0.50000 1.02127
vt 0.57143 1.02127
vt 0.64286 1.02127
vt 0.71429 1.02127
vt 0.78571 1.02127
vt 0.85714 1.02127
vt 0.92857 1.02127
vt 1.00000 1.02127
vt 1.07143 1.02127
vt 1.14286 1.02127
vt 1.21429 1.02127
vt 1.28571 1.02127
vt 1.35714 1.02127
vt 1.42857 1.02127
vt 1.50000 1.02127
vt 1.57143 1.02127
vt 1.64286 1.02127
vt 1.71429 1.02127
vt 1.78571 1.02127
vt 1.85714 1.02127
vt 1.92857 1.02127
vt 2.00000 1.02127
vt 0.00000 1.05241
vt 0.07143 1.05241
vt 0.14286 1.05241
vt 0.21429 1.05241
vt 0.28571 1.05241
vt 0.35714 1.05241
vt 0.42857 1.05241
vt 0.50000 1.05241
vt 0.57143 1.05241
vt 0.64286 1.05241
vt 0.71429 1.05241
vt 0.78571 1.05241
vt 0.85714 1.05241
vt 0.92857 1.05241
vt 1.00000 1.05241
vt 1.07143 1.05241
vt 1.14286 1.05241
vt 1.21429 1.05241
vt 1.28571 1.05241
vt 1.35714 1.05241
vt 1.42857 1.05241
vt 1.50000 1.05241
vt 1.57143 1.05241
vt 1.64286 1.05241
vt 1.71429 1.05241
vt 1.78571 1.05241
vt 1.85714 1.05241
vt 1.92857 1.05241
vt 2.00000 1.05241
vt 0.00000 1.08354
vt 0.07143 1.08354
vt 0.14286 1.08354
vt 0.21429 1.08354
vt 0.28571 1.08354
vt 0.35714 1.08354
vt 0.42857 1.08354
vt 0.50000 1.08354
vt 0.57143 1.08354
vt 0.64286 1.08354
vt 0.71429 1.08354
vt 0.78571 1.08354
vt 0.85714 1.08354
vt 0.92857 1.08354
vt 1.00000 1.08354
vt 1.07143 1.08354
vt 1.14286 1.08354
vt 1.21429 1.08354
vt 1.28571 1.08354
vt 1.35714 1.08354
vt 1.42857 1.08354
vt 1.50000 1.08354
vt 1.57143 1.08354
vt 1.64286 1.08354
vt 1.71429 1.08354
vt 1.78571 1.08354
vt 1.85714 1.08354
vt 1.92857 1.08354
vt 2.00000 1.08354
vt 0.00000 1.11468
vt 0.07143 1.11468
vt 0.14286 1.11468
vt 0.21429 1.11468
vt 0.28571 1.11468
vt 0.35714 1.11468
vt 0.42857 1.11468
vt 0.50000 1.11468
vt 0.57143 1.11468
vt 0.64286 1.11468
vt 0.71429 1.11468
vt 0.78571 1.11468
vt 0.85714 1.11468
vt 0.92857 1.11468
vt 1.00000 1.11468
vt 1.07143 1.11468
vt 1.14286 1.11468
vt 1.21429 1.11468
vt 1.28571 1.11468
vt 1.35714 1.11468
vt 1.42857 1.11468
vt 1.50000 1.11468
vt 1.57143 1.11468
vt 1.64286 1.11468
vt 1.71429 1.11468
vt 1.78571 1.11468
vt 1.85714 1.11468
vt 1.92857 1.11468
vt 2.00000 1.11468
vt 0.00000 1.14582
vt 0.07143 1.14582
vt 0.14286 1.14582
vt 0.21429 1.14582
vt 0.28571 1.14582
vt 0.35714 1.14582
vt 0.42857 1.14582
vt 0.50000 1.14582
vt 0.57143 1.14582
vt 0.64286 1.14582
vt 0.71429 1.14582
vt 0.78571 1.14582
vt 0.85714 1.14582
vt 0.92857 1.14582
vt 1.00000 1.14582
vt 1.07143 1.14582
vt 1.14286 1.14582
vt 1.21429 1.14582
vt 1.28571 1.14582
vt 1.35714 1.14582
vt 1.42857 1.14582
vt 1.50000 1.14582
vt 1.57143 1.14582
vt 1.64286 1.14582
vt 1.71429 1.14582
vt 1.78571 1.14582
vt 1.85714 1.14582
vt 1.92857 1.14582
vt 2.00000 1.14582
vt 0.00000 1.17695
vt 0.07143 1.17695
vt 0.14286 1.17695
vt 0.21429 1.17695
vt 0.28571 1.17695
vt 0.35714 1.17695
vt 0.42857 1.17695
vt 0.50000 1.17695
vt 0.57143 1.17695
vt 0.64286 1.17695
vt 0.71429 1.17695
vt 0.78571 1.17695
vt 0.85714 1.17695
vt 0.92857 1.17695
vt 1.00000 1.17695
vt 1.07143 1.17695
vt 1.14286 1.17695
vt 1.21429 1.17695
vt 1.28571 1.17695
vt 1.35714 1.17695
vt 1.42857 1.17695
vt 1.50000 1.17695
vt 1.57143 1.17695
vt 1.64286 1.17695
vt 1.71429 1.17695
vt 1.78571 1.17695
vt 1.85714 1.17695
vt 1.92857 1.17695
vt 2.00000 1.17695
vt 0.00000 1.20809
vt 0.07143 1.20809
vt 0.14286 1.20809
vt 0.21429 1.20809
vt 0.28571 1.20809
vt 0.35714 1.20809
vt 0.42857 1.20809
vt 0.50000 1.20809
vt 0.57143 1.20809
vt 0.64286 1.20809
vt 0.71429 1.20809
vt 0.78571 1.20809
vt 0.85714 1.20809
vt 0.92857 1.20809
vt 1.00000 1.20809
vt 1.07143 1.20809
vt 1.14286 1.20809
vt 1.21429 1.20809
vt 1.28571 1.20809
vt 1.35714 1.20809
vt 1.42857 1.20809
vt 1.50000 1.20809
vt 1.57143 1.20809
vt 1.64286 1.20809
vt 1.71429 1.20809
vt 1.78571 1.20809
vt 1.85714 1.20809
vt 1.92857 1.20809
vt 2.00000 1.20809
vt 0.00000 1.23923
vt 0.07143 1.23923
vt 0.14286 1.23923
vt 0.21429 1.23923
vt 0.28571 1.23923
vt 0.35714 1.23923
vt 0.42857 1.23923
vt 0.50000 1.23923
vt 0.57143 1.23923
vt 0.64286 1.23923
vt 0.71429 1.23923
vt 0.78571 1.23923
vt 0.85714 1.23923
vt 0.92857 1.23923
vt 1.00000 1.23923
vt 1.07143 1.23923
vt 1.14286 1.23923
vt 1.21429 1.23923
vt 1.28571 1.23923
vt 1.35714 1.23923
vt 1.42857 1.23923
vt 1.50000 1.23923
vt 1.57143 1.23923
vt 1.64286 1.23923
vt 1.71429 1.23923
vt 1.78571 1.23923
vt 1.85714 1.23923
vt 1.92857 1.23923
vt 2.00000 1.23923
vt 0.00000 1.27036
vt 0.07143 1.27036
vt 0.14286 1.27036
vt 0.21429 1.27036
vt 0.28571 1.27036
vt 0.35714 1.27036
vt 0.42857 1.27036
vt 0.50000 1.27036
vt 0.57143 1.27036
vt 0.64286 1.27036
vt 0.71429 1.27036
vt 0.78571 1.27036
vt 0.85714 1.27036
vt 0.92857 1.27036
vt 1.00000 1.27036
vt 1.07143 1.27036
vt 1.14286 1.27036
vt 1.21429 1.27036
vt 1.28571 1.27036
vt 1.35714 1.27036
vt 1.42857 1.27036
vt 1.50000 1.27036
vt 1.57143 1.27036
vt 1.64286 1.27036
vt 1.71429 1.27036
vt 1.78571 1.27036
vt 1.85714 1.27036
vt 1.92857 1.27036
vt 2.00000 1.27036
vt 0.00000 1.30150
vt 0.07143 1.30150
vt 0.14286 1.30150
vt 0.21429 1.30150
vt 0.28571 1.30150
vt 0.35714 1.30150
vt 0.42857 1.30150
vt 0.50000 1.30150
vt 0.57143 1.30150
vt 0.64286 1.30150
vt 0.71429 1.30150
vt 0.78571 1.30150
vt 0.85714 1.30150
vt 0.92857 1.30150
vt 1.00000 1.30150
vt 1.07143 1.30150
vt 1.14286 1.30150
vt 1.21429 1.30150
vt 1.28571 1.30150
vt 1.35714 1.30150
vt 1.42857 1.30150
vt 1.50000 1.30150
vt 1.57143 1.30150
vt 1.64286 1.30150
vt 1.71429 1.30150
vt 1.78571 1.30150
vt 1.85714 1.30150
vt 1.92857 1.30150
vt 2.00000 1.30150
vt 0.00000 1.33264
vt 0.07143 1.33264
vt 0.14286 1.33264
vt 0.21429 1.33264
vt 0.28571 1.33264
vt 0.35714 1.33264
vt 0.42857 1.33264
vt 0.50000 1.33264
vt 0.57143 1.33264
vt 0.64286 1.33264
vt 0.71429 1.33264
vt 0.78571 1.33264
vt 0.85714 1.33264
vt 0.92857 1.33264
vt 1.00000 1.33264
vt 1.07143 1.33264
vt 1.14286 1.33264
vt 1.21429 1.33264
vt 1.28571 1.33264
vt 1.35714 1.33264
vt 1.42857 1.33264
vt 1.50000 1.33264
vt 1.57143 1.33264
vt 1.64286 1.33264
vt 1.71429 1.33264
vt 1.78571 1.33264
vt 1.85714 1.33264
vt 1.92857 1.33264
vt 2.00000 1.33264
vt 0.00000 1.36377
vt 0.07143 1.36377
vt 0.14286 1.36377
vt 0.21429 1.36377
vt 0.28571 1.36377
vt 0.35714 1.36377
vt 0.42857 1.36377
vt 0.50000 1.36377
vt 0.57143 1.36377
vt 0.64286 1.36377
vt 0.71429 1.36377
vt 0.78571 1.36377
vt 0.85714 1.36377
vt 0.92857 1.36377
vt 1.00000 1.36377
vt 1.07143 1.36377
vt 1.14286 1.36377
vt 1.21429 1.36377
vt 1.28571 1.36377
vt 1.35714 1.36377
vt 1.42857 1.36377
vt 1.50000 1.36377
vt 1.57143 1.36377
vt 1.64286 1.36377
vt 1.71429 1.36377
vt 1.78571 1.36377
vt 1.85714 1.36377
vt 1.92857 1.36377
vt 2.00000 1.36377
vn -0.22271 0.97410 0.03908
vn -0.06221 0.94342 0.32570
vn 0.12251 0.81086 0.57227
vn 0.18450 0.63655 0.74884
vn 0.10972 0.46446 0.87877
vn -0.06664 0.29069 0.95449
vn -0.26149 0.11827 0.95793
vn -0.31521 -0.02012 0.94881
vn -0.17060 -0.17690 0.96933
vn 0.02491 -0.34943 0.93663
vn 0.15601 -0.52162 0.83879
vn 0.16457 -0.69752 0.69742
vn 0.03519 -0.86595 0.49890
vn -0.17286 -0.95913 0.22402
vn -0.24308 -0.96875 -0.04934
vn -0.18951 -0.92147 -0.33908
vn -0.13566 -0.80165 -0.58220
vn -0.09000 -0.64304 -0.76053
vn -0.05589 -0.47238 -0.87962
vn -0.03321 -0.30249 -0.95258
vn -0.02082 -0.13653 -0.99042
vn -0.01778 0.02691 -0.99948
vn -0.02384 0.19088 -0.98132
vn -0.03950 0.35812 -0.93284
vn -0.06583 0.52897 -0.84608
vn -0.10386 0.69771 -0.70881
vn -0.15284 0.84715 -0.50889
vn -0.20775 0.94653 -0.24684
vn -0.22271 0.97410 0.03908
vn -0.24777 0.96876 -0.01070
vn -0.22422 0.94550 0.23614
vn -0.12533 0.85004 0.51160
vn -0.05388 0.68351 0.72795
vn -0.05365 0.49047 0.86981
vn -0.11809 0.30181 0.94603
vn -0.21270 0.12755 0.96876
vn -0.27662 0.00200 0.96098
vn -0.25533 -0.12668 0.95852
vn -0.16286 -0.29939 0.94013
vn -0.07569 -0.48952 0.86870
vn -0.03943 -0.68371 0.72868
vn -0.07835 -0.85371 0.51481
vn -0.17383 -0.95562 0.23784
vn -0.23461 -0.97207 -0.00584
vn -0.21215 -0.93272 -0.29160
vn -0.16650 -0.82268 -0.54357
vn -0.12475 -0.66921 -0.73252
vn -0.09167 -0.50024 -0.86102
vn -0.06855 -0.33039 -0.94135
vn -0.05503 -0.16408 -0.98491
vn -0.05054 -0.00054 -0.99872
vn -0.05480 0.16299 -0.98511
vn -0.06799 0.32927 -0.94179
vn -0.09061 0.49912 -0.86178
vn -0.12293 0.66820 -0.73375
vn -0.16374 0.82206 -0.54535
vn -0.20839 0.93288 -0.29379
vn -0.24777 0.96876 -0.01070
vn -0.29937 0.95408 -0.01072
vn -0.30351 0.92743 0.21854
vn -0.30145 0.82248 0.48234
vn -0.28616 0.65985 0.69478
vn -0.26522 0.47299 0.84020
vn -0.24590 0.29027 0.92481
vn -0.23237 0.12226 0.96491
vn -0.22858 0.00038 0.97352
vn -0.23420 -0.12109 0.96462
vn -0.24855 -0.28875 0.92458
vn -0.26882 -0.47102 0.84016
vn -0.29048 -0.65747 0.69524
vn -0.30622 -0.82001 0.48354
vn -0.30981 -0.92493 0.22027
vn -0.29810 -0.95450 -0.00858
vn -0.27834 -0.91705 -0.28557
vn -0.24459 -0.80986 -0.53321
vn -0.20813 -0.66093 -0.72101
vn -0.17600 -0.49574 -0.85045
vn -0.15190 -0.32829 -0.93228
vn -0.13729 -0.16331 -0.97698
vn -0.13255 -0.00057 -0.99118
vn -0.13770 0.16213 -0.97711
vn -0.15259 0.32701 -0.93262
vn -0.17667 0.49437 -0.85111
vn -0.20839 0.65955 -0.72220
vn -0.24402 0.80878 -0.53509
vn -0.27668 0.91677 -0.28807
vn -0.29937 0.95408 -0.01072
vn -0.37046 0.92879 -0.01067
vn -0.36642 0.90607 0.21159
vn -0.34821 0.81033 0.47130
vn -0.31529 0.65628 0.68549
vn -0.27781 0.47410 0.83549
vn -0.24559 0.29242 0.92422
vn -0.22406 0.12353 0.96671
vn -0.21742 0.00046 0.97608
vn -0.22484 -0.12215 0.96671
vn -0.24686 -0.29071 0.92442
vn -0.27952 -0.47202 0.83610
vn -0.31726 -0.65398 0.68677
vn -0.35032 -0.80820 0.47339
vn -0.36925 -0.90433 0.21408
vn -0.36944 -0.92922 -0.00797
vn -0.35680 -0.89263 -0.27551
vn -0.32602 -0.79154 -0.51690
vn -0.28778 -0.64994 -0.70339
vn -0.25124 -0.49033 -0.83454
vn -0.22234 -0.32611 -0.91881
vn -0.20420 -0.16268 -0.96532
vn -0.19818 -0.00067 -0.98017
vn -0.20460 0.16129 -0.96547
vn -0.22304 0.32458 -0.91919
vn -0.25204 0.48862 -0.83530
vn -0.28843 0.64815 -0.70478
vn -0.32626 0.78998 -0.51912
vn -0.35650 0.89181 -0.27852
vn -0.37046 0.92879 -0.01067
vn -0.36655 0.93034 -0.01061
vn -0.36319 0.90784 0.20960
vn -0.33834 0.81576 0.46910
vn -0.29858 0.66389 0.68563
vn -0.25444 0.48136 0.83878
vn -0.21681 0.29749 0.92978
vn -0.19128 0.12577 0.97344
vn -0.18458 0.00042 0.98282
vn -0.19370 -0.12441 0.97314
vn -0.21790 -0.29587 0.93004
vn -0.25522 -0.47948 0.83962
vn -0.29904 -0.66197 0.68729
vn -0.33831 -0.81434 0.47160
vn -0.36164 -0.90778 0.21248
vn -0.36853 -0.92958 -0.00785
vn -0.35553 -0.89398 -0.27277
vn -0.32432 -0.79471 -0.51309
vn -0.28383 -0.65472 -0.70056
vn -0.24405 -0.49539 -0.83369
vn -0.21198 -0.33015 -0.91982
vn -0.19157 -0.16486 -0.96753
vn -0.18471 -0.00062 -0.98279
vn -0.19189 0.16357 -0.96769
vn -0.21255 0.32871 -0.92020
vn -0.24474 0.49375 -0.83446
vn -0.28448 0.65295 -0.70195
vn -0.32479 0.79309 -0.51529
vn -0.35577 0.89296 -0.27576
vn -0.36655 0.93034 -0.01061
vn -0.24464 0.96956 -0.01043
vn -0.24503 0.94522 0.21570
vn -0.21659 0.84900 0.48196
vn -0.17624 0.68936 0.70265
vn -0.13352 0.49815 0.85675
vn -0.09816 0.30679 0.94670
vn -0.07372 0.12923 0.98887
vn -0.06989 0.00016 0.99755
vn -0.07987 -0.12855 0.98848
vn -0.10023 -0.30596 0.94675
vn -0.13449 -0.49711 0.85720
vn -0.17620 -0.68829 0.70371
vn -0.21509 -0.84839 0.48371
vn -0.23849 -0.94640 0.21783
vn -0.25186 -0.96773 -0.00852
vn -0.23656 -0.93027 -0.28041
vn -0.20621 -0.82520 -0.52585
vn -0.16681 -0.67799 -0.71590
vn -0.12804 -0.51159 -0.84964
vn -0.09674 -0.34011 -0.93540
vn -0.07679 -0.16941 -0.98255
vn -0.07004 -0.00024 -0.99754
vn -0.07702 0.16888 -0.98262
vn -0.09715 0.33945 -0.93559
vn -0.12855 0.51072 -0.85008
vn -0.16729 0.67695 -0.71676
vn -0.20657 0.82418 -0.52731
vn -0.23675 0.92961 -0.28244
vn -0.24464 0.96956 -0.01043
vn 0.00448 0.99994 -0.00963
vn 0.00178 0.97547 0.22014
vn 0.02986 0.87208 0.48844
vn 0.06245 0.70392 0.70753
vn 0.09322 0.50570 0.85766
vn 0.11670 0.30991 0.94358
vn 0.13289 0.12982 0.98259
vn 0.13246 -0.00032 0.99119
vn 0.12456 -0.13066 0.98357
vn 0.11394 -0.31074 0.94364
vn 0.09196 -0.50638 0.85739
vn 0.06260 -0.70433 0.70710
vn 0.03216 -0.87222 0.48806
vn 0.01185 -0.97546 0.21984
vn -0.00661 -0.99993 -0.00962
vn 0.00774 -0.95837 -0.28542
vn 0.03032 -0.84628 -0.53187
vn 0.05968 -0.69154 -0.71987
vn 0.08866 -0.51918 -0.85005
vn 0.11218 -0.34370 -0.93236
vn 0.12722 -0.17047 -0.97712
vn 0.13230 0.00047 -0.99121
vn 0.12699 0.17137 -0.97699
vn 0.11175 0.34449 -0.93212
vn 0.08811 0.51978 -0.84974
vn 0.05909 0.69191 -0.71956
vn 0.02984 0.84642 -0.53167
vn 0.00746 0.95839 -0.28537
vn 0.00448 0.99994 -0.00963
vn 0.27204 0.96225 -0.00812
vn 0.27170 0.93929 0.20953
vn 0.29300 0.83697 0.46221
vn 0.31215 0.67498 0.66855
vn 0.32640 0.48533 0.81113
vn 0.33495 0.29777 0.89395
vn 0.34016 0.12457 0.93208
vn 0.33721 -0.00080 0.94143
vn 0.33380 -0.12689 0.93406
vn 0.33287 -0.30025 0.89389
vn 0.32543 -0.48773 0.81007
vn 0.31220 -0.67689 0.66660
vn 0.29465 -0.83781 0.45961
vn 0.27944 -0.93766 0.20665
vn 0.26333 -0.96465 -0.01011
vn 0.27196 -0.92321 -0.27152
vn 0.28290 -0.81539 -0.50509
vn 0.29769 -0.66650 -0.68349
vn 0.31294 -0.50046 -0.80722
vn 0.32578 -0.33120 -0.88554
vn 0.33420 -0.16396 -0.92813
vn 0.33706 0.00117 -0.94148
vn 0.33401 0.16627 -0.92779
vn 0.32543 0.33343 -0.88483
vn 0.31247 0.50253 -0.80612
vn 0.29719 0.66829 -0.68196
vn 0.28247 0.81673 -0.50315
vn 0.27171 0.92393 -0.26929
vn 0.27204 0.96225 -0.00812
vn 0.42706 0.90420 -0.00693
vn 0.43102 0.88125 0.19396
vn 0.44621 0.78614 0.42765
vn 0.45744 0.63660 0.62088
vn 0.46284 0.46032 0.75755
vn 0.46354 0.28385 0.83938
vn 0.46229 0.11904 0.87870
vn 0.45943 -0.00105 0.88821
vn 0.45969 -0.12193 0.87967
vn 0.46275 -0.28702 0.83874
vn 0.46247 -0.46348 0.75585
vn 0.45741 -0.63927 0.61815
vn 0.44674 -0.78773 0.42415
vn 0.43395 -0.88063 0.19018
vn 0.42358 -0.90580 -0.00992
vn 0.42709 -0.86843 -0.25185
vn 0.43171 -0.77004 -0.46975
vn 0.43851 -0.63245 -0.63853
vn 0.44613 -0.47691 -0.75732
vn 0.45298 -0.31653 -0.83344
vn 0.45767 -0.15680 -0.87519
vn 0.45931 0.00154 -0.88828
vn 0.45758 0.15985 -0.87468
vn 0.45281 0.31949 -0.83240
vn 0.44591 0.47969 -0.75569
vn 0.43827 0.63489 -0.63626
vn 0.43151 0.77191 -0.46686
vn 0.42697 0.86946 -0.24847
vn 0.42706 0.90420 -0.00693
vn 0.45988 0.88795 -0.00661
vn 0.46753 0.86392 0.18722
vn 0.48051 0.77312 0.41401
vn 0.49025 0.62873 0.60362
vn 0.49411 0.45669 0.73979
vn 0.49326 0.28262 0.82269
vn 0.48996 0.11884 0.86361
vn 0.48834 -0.00107 0.87266
vn 0.49057 -0.12157 0.86288
vn 0.49357 -0.28567 0.82145
vn 0.49428 -0.45974 0.73779
vn 0.49024 -0.63142 0.60081
vn 0.48027 -0.77506 0.41064
vn 0.46677 -0.86507 0.18378
vn 0.46054 -0.88758 -0.00965
vn 0.46154 -0.85302 -0.24357
vn 0.46516 -0.75890 -0.45573
vn 0.47065 -0.62583 -0.62195
vn 0.47696 -0.47366 -0.74037
vn 0.48274 -0.31524 -0.81705
vn 0.48677 -0.15641 -0.85941
vn 0.48822 0.00157 -0.87272
vn 0.48680 0.15951 -0.85883
vn 0.48280 0.31822 -0.81587
vn 0.47703 0.47641 -0.73856
vn 0.47073 0.62820 -0.61950
vn 0.46523 0.76068 -0.45270
vn 0.46158 0.85399 -0.24009
vn 0.45988 0.88795 -0.00661
vn 0.40415 0.91466 -0.00699
vn 0.41444 0.89006 0.18981
vn 0.42752 0.79962 0.42171
vn 0.43908 0.65279 0.61732
vn 0.44513 0.47554 0.75876
vn 0.44606 0.29480 0.84506
vn 0.44327 0.12417 0.88775
vn 0.44322 -0.00093 0.89641
vn 0.44626 -0.12637 0.88593
vn 0.44728 -0.29729 0.84354
vn 0.44587 -0.47801 0.75677
vn 0.43931 -0.65499 0.61482
vn 0.42697 -0.80138 0.41892
vn 0.41136 -0.89205 0.18714
vn 0.40757 -0.91313 -0.00951
vn 0.40773 -0.87904 -0.24709
vn 0.41293 -0.78389 -0.46368
vn 0.42049 -0.64833 -0.63471
vn 0.42879 -0.49206 -0.75764
vn 0.43618 -0.32824 -0.83786
vn 0.44124 -0.16319 -0.88243
vn 0.44310 0.00137 -0.89647
vn 0.44144 0.16587 -0.88183
vn 0.43654 0.33076 -0.83668
vn 0.42927 0.49430 -0.75590
vn 0.42099 0.65019 -0.63247
vn 0.41337 0.78523 -0.46102
vn 0.40798 0.87974 -0.24414
vn 0.40415 0.91466 -0.00699
vn 0.29628 0.95507 -0.00762
vn 0.30711 0.93133 0.19572
vn 0.32019 0.84040 0.43727
vn 0.33379 0.68918 0.64313
vn 0.34296 0.50362 0.79294
vn 0.34693 0.31271 0.88422
vn 0.34606 0.13189 0.92890
vn 0.34752 -0.00071 0.93767
vn 0.35049 -0.13347 0.92701
vn 0.34889 -0.31448 0.88282
vn 0.34436 -0.50532 0.79124
vn 0.33455 -0.69064 0.64116
vn 0.31988 -0.84159 0.43521
vn 0.30330 -0.93297 0.19385
vn 0.30083 -0.95363 -0.00940
vn 0.30105 -0.91897 -0.25468
vn 0.30820 -0.82161 -0.47956
vn 0.31832 -0.68174 -0.65871
vn 0.32916 -0.51909 -0.78880
vn 0.33859 -0.34724 -0.87452
vn 0.34501 -0.17311 -0.92250
vn 0.34741 0.00104 -0.93771
vn 0.34545 0.17513 -0.92195
vn 0.33941 0.34908 -0.87347
vn 0.33023 0.52064 -0.78733
vn 0.31945 0.68294 -0.65692
vn 0.30916 0.82241 -0.47755
vn 0.30160 0.91937 -0.25256
vn 0.29628 0.95507 -0.00762
vn 0.18021 0.98360 -0.00816
vn 0.18891 0.96147 0.19970
vn 0.19974 0.87118 0.44849
vn 0.21239 0.71789 0.66297
vn 0.22229 0.52663 0.82052
vn 0.22791 0.32777 0.91686
vn 0.22876 0.13848 0.96358
vn 0.23113 -0.00046 0.97292
vn 0.23354 -0.13949 0.96229
vn 0.23038 -0.32887 0.91584
vn 0.22435 -0.52762 0.81932
vn 0.21391 -0.71868 0.66162
vn 0.20015 -0.87178 0.44715
vn 0.18592 -0.96230 0.19853
vn 0.18422 -0.98284 -0.00921
vn 0.18458 -0.94787 -0.25975
vn 0.19172 -0.84987 -0.49089
vn 0.20185 -0.70784 -0.67692
vn 0.21267 -0.54103 -0.81367
vn 0.22208 -0.36315 -0.90488
vn 0.22852 -0.18160 -0.95645
vn 0.23103 0.00068 -0.97295
vn 0.22926 0.18290 -0.95603
vn 0.22344 0.36428 -0.90409
vn 0.21443 0.54192 -0.81261
vn 0.20369 0.70847 -0.67571
vn 0.19327 0.85025 -0.48961
vn 0.18547 0.94805 -0.25848
vn 0.18021 0.98360 -0.00816
vn 0.09953 0.99500 -0.00845
vn 0.10389 0.97411 0.20079
vn 0.10989 0.88499 0.45246
vn 0.11707 0.73187 0.67131
vn 0.12284 0.53865 0.83353
vn 0.12625 0.33604 0.93335
vn 0.12678 0.14222 0.98168
vn 0.12871 -0.00025 0.99168
vn 0.13067 -0.14279 0.98109
vn 0.12884 -0.33664 0.93278
vn 0.12542 -0.53916 0.83281
vn 0.11936 -0.73223 0.67052
vn 0.11133 -0.88521 0.45168
vn 0.10306 -0.97434 0.20011
vn 0.10154 -0.99479 -0.00902
vn 0.10155 -0.95994 -0.26117
vn 0.10537 -0.86256 -0.49486
vn 0.11105 -0.72053 -0.68447
vn 0.11731 -0.55244 -0.82526
vn 0.12292 -0.37185 -0.92012
vn 0.12691 -0.18643 -0.97424
vn 0.12866 0.00037 -0.99169
vn 0.12791 0.18713 -0.97397
vn 0.12477 0.37245 -0.91963
vn 0.11970 0.55289 -0.82461
vn 0.11354 0.72082 -0.68376
vn 0.10744 0.86272 -0.49414
vn 0.10273 0.96000 -0.26046
vn 0.09953 0.99500 -0.00845
vn 0.07342 0.99620 -0.04690
vn 0.07441 0.98405 0.16160
vn 0.07789 0.90741 0.41296
vn 0.08156 0.76436 0.63961
vn 0.08421 0.57551 0.81345
vn 0.08550 0.37185 0.92435
vn 0.08573 0.17394 0.98102
vn 0.08556 0.02136 0.99610
vn 0.08589 -0.11521 0.98962
vn 0.08623 -0.30586 0.94816
vn 0.08557 -0.50825 0.85695
vn 0.08345 -0.70526 0.70402
vn 0.07991 -0.86688 0.49207
vn 0.07589 -0.96730 0.24202
vn 0.07347 -0.99694 0.02675
vn 0.07365 -0.97301 -0.21869
vn 0.07509 -0.88534 -0.45884
vn 0.07743 -0.74969 -0.65725
vn 0.08014 -0.58478 -0.80722
vn 0.08268 -0.40509 -0.91053
vn 0.08457 -0.21922 -0.97200
vn 0.08551 -0.03132 -0.99585
vn 0.08533 0.15678 -0.98394
vn 0.08406 0.34360 -0.93535
vn 0.08192 0.52601 -0.84652
vn 0.07928 0.69711 -0.71256
vn 0.07663 0.84445 -0.53012
vn 0.07453 0.95025 -0.30244
vn 0.07342 0.99620 -0.04690
f 1/1/1 30/30/30 31/31/31
f 1/1/1 31/31/31 2/2/2
f 2/2/2 31/31/31 32/32/32
f 2/2/2 32/32/32 3/3/3
f 3/3/3 32/32/32 33/33/33
f 3/3/3 33/33/33 4/4/4
f 4/4/4 33/33/33 34/34/34
f 4/4/4 34/34/34 5/5/5
f 5/5/5 34/34/34 35/35/35
f 5/5/5 35/35/35 6/6/6
f 6/6/6 35/35/35 36/36/36
f 6/6/6 36/36/36 7/7/7
f 7/7/7 36/36/36 37/37/37
f 7/7/7 37/37/37 8/8/8
f 8/8/8 37/37/37 38/38/38
f 8/8/8 38/38/38 9/9/9
f 9/9/9 38/38/38 39/39/39
f 9/9/9 39/39/39 10/10/10
f 10/10/10 39/39/39 40/40/40
f 10/10/10 40/40/40 11/11/11
f 11/11/11 40/40/40 41/41/41
f 11/11/11 41/41/41 12/12/12
f 12/12/12 41/41/41 42/42/42
f 12/12/12 42/42/42 13/13/13
f 13/13/13 42/42/42 43/43/43
f 13/13/13 43/43/43 14/14/14
f 14/14/14 43/43/43 44/44/44
f 14/14/14 44/44/44 15/15/15
f 15/15/15 44/44/44 45/45/45
f 15/15/15 45/45/45 16/16/16
f 16/16/16 45/45/45 46/46/46
f 16/16/16 46/46/46 17/17/17
f 17/17/17 46/46/46 47/47/47
f 17/17/17 47/47/47 18/18/18
f 18/18/18 47/47/47 48/48/48
f 18/18/18 48/48/48 19/19/19
f 19/19/19 48/48/48 49/49/49
f 19/19/19 49/49/49 20/20/20
f 20/20/20 49/49/49 50/50/50
f 20/20/20 50/50/50 21/21/21
f 21/21/21 50/50/50 51/51/51
f 21/21/21 51/51/51 22/22/22
f 22/22/22 51/51/51 52/52/52
f 22/22/22 52/52/52 23/23/23
f 23/23/23 52/52/52 53/53/53
f 23/23/23 53/53/53 24/24/24
f 24/24/24 53/53/53 54/54/54
f 24/24/24 54/54/54 25/25/25
f 25/25/25 54/54/54 55/55/55
f 25/25/25 55/55/55 26/26/26
f 26/26/26 55/55/55 56/56/56
f 26/26/26 56/56/56 27/27/27
f 27/27/27 56/56/56 57/57/57
f 27/27/27 57/57/57 28/28/28
f 28/28/28 57/57/57 58/58/58
f 28/28/28 58/58/58 29/29/29
f 30/30/30 59/59/59 60/60/60
f 30/30/30 60/60/60 31/31/31
f 31/31/31 60/60/60 61/61/61
f 31/31/31 61/61/61 32/32/32
f 32/32/32 61/61/61 62/62/62
f 32/32/32 62/62/62 33/33/33
f 33/33/33 62/62/62 63/63/63
f 33/33/33 63/63/63 34/34/34
f 34/34/34 63/63/63 64/64/64
f 34/34/34 64/64/64 35/35/35
f 35/35/35 64/64/64 65/65/65
f 35/35/35 65/65/65 36/36/36
f 36/36/36 65/65/65 66/66/66
f 36/36/36 66/66/66 37/37/37
f 37/37/37 66/66/66 67/67/67
f 37/37/37 67/67/67 38/38/38
f 38/38/38 67/67/67 68/68/68
f 38/38/38 68/68/68 39/39/39
f 39/39/39 68/68/68 69/69/69
f 39/39/39 69/69/69 40/40/40
f 40/40/40 69/69/69 70/70/70
f 40/40/40 70/70/70 41/41/41
f 41/41/41 70/70/70 71/71/71
f 41/41/41 71/71/71 42/42/42
f 42/42/42 71/71/71 72/72/72
f 42/42/42 72/72/72 43/43/43
f 43/43/43 72/72/72 73/73/73
f 43/43/43 73/73/73 44/44/44
f 44/44/44 73/73/73 74/74/74
f 44/44/44 74/74/74 45/45/45
f 45/45/45 74/74/74 75/75/75
f 45/45/45 75/75/75 46/46/46
f 46/46/46 75/75/75 76/76/76
f 46/46/46 76/76/76 47/47/47
f 47/47/47 76/76/76 77/77/77
f 47/47/47 77/77/77 48/48/48
f 48/48/48 77/77/77 78/78/78
f 48/48/48 78/78/78 49/49/49
f 49/49/49 78/78/78 79/79/79
f 49/49/49 79/79/79 50/50/50
f 50/50/50 79/79/79 80/80/80
f 50/50/50 80/80/80 51/51/51
f 51/51/51 80/80/80 81/81/81
f 51/51/51 81/81/81 52/52/52
f 52/52/52 81/81/81 82/82/82
f 52/52/52 82/82/82 53/53/53
f 53/53/53 82/82/82 83/83/83
f 53/53/53 83/83/83 54/54/54
f 54/54/54 83/83/83 84/84/84
f 54/54/54 84/84/84 55/55/55
f 55/55/55 84/84/84 85/85/85
f 55/55/55 85/85/85 56/56/56
f 56/56/56 85/85/85 86/86/86
f 56/56/56 86/86/86 57/57/57
f 57/57/57 86/86/86 87/87/87
f 57/57/57 87/87/87 58/58/58
f 59/59/59 88/88/88 89/89/89
f 59/59/59 89/89/89 60/60/60
f 60/60/60 89/89/89 90/90/90
f 60/60/60 90/90/90 61/61/61
f 61/61/61 90/90/90 91/91/91
f 61/61/61 91/91/91 62/62/62
f 62/62/62 91/91/91 92/92/92
f 62/62/62 92/92/92 63/63/63
f 63/63/63 92/92/92 93/93/93
f 63/63/63 93/93/93 64/64/64
f 64/64/64 93/93/93 94/94/94
f 64/64/64 94/94/94 65/65/65
f 65/65/65 94/94/94 95/95/95
f 65/65/65 95/95/95 66/66/66
f 66/66/66 95/95/95 96/96/96
f 66/66/66 96/96/96 67/67/67
f 67/67/67 96/96/96 97/97/97
f 67/67/67 97/97/97 68/68/68
f 68/68/68 97/97/97 98/98/98
f 68/68/68 98/98/98 69/69/69
f 69/69/69 98/98/98 99/99/99
f 69/69/69 99/99/99 70/70/70
f 70/70/70 99/99/99 100/100/100
f 70/70/70 100/100/100 71/71/71
f 71/71/71 100/100/100 101/101/101
f 71/71/71 101/101/101 72/72/72
f 72/72/72 101/101/101 102/102/102
f 72/72/72 102/102/102 73/73/73
f 73/73/73 102/102/102 103/103/103
f 73/73/73 103/103/103 74/74/74
f 74/74/74 103/103/103 104/104/104
f 74/74/74 104/104/104 75/75/75
f 75/75/75 104/104/104 105/105/105
f 75/75/75 105/105/105 76/76/76
f 76/76/76 105/105/105 106/106/106
f 76/76/76 106/106/106 77/77/77
f 77/77/77 106/106/106 107/107/107
f 77/77/77 107/107/107 78/78/78
f 78/78/78 107/107/107 108/108/108
f 78/78/78 108/108/108 79/79/79
f 79/79/79 108/108/108 109/109/109
f 79/79/79 109/109/109 80/80/80
f 80/80/80 109/109/109 110/110/110
f 80/80/80 110/110/110 81/81/81
f 81/81/81 110/110/110 111/111/111
f 81/81/81 111/111/111 82/82/82
f 82/82/82 111/111/111 112/112/112
f 82/82/82 112/112/112 83/83/83
f 83/83/83 112/112/112 113/113/113
f 83/83/83 113/113/113 84/84/84
f 84/84/84 113/113/113 114/114/114
f 84/84/84 114/114/114 85/85/85
f 85/85/85 114/114/114 115/115/115
f 85/85/85 115/115/115 86/86/86
f 86/86/86 115/115/115 116/116/116
f 86/86/86 116/116/116 87/87/87
f 88/88/88 117/117/117 118/118/118
f 88/88/88 118/118/118 89/89/89
f 89/89/89 118/118/118 119/119/119
f 89/89/89 119/119/119 90/90/90
f 90/90/90 119/119/119 120/120/120
f 90/90/90 120/120/120 91/91/91
f 91/91/91 120/120/120 121/121/121
f 91/91/91 121/121/121 92/92/92
f 92/92/92 121/121/121 122/122/122
f 92/92/92 122/122/122 93/93/93
f 93/93/93 122/122/122 123/123/123
f 93/93/93 123/123/123 94/94/94
f 94/94/94 123/123/123 124/124/124
f 94/94/94 124/124/124 95/95/95
f 95/95/95 124/124/124 125/125/125
f 95/95/95 125/125/125 96/96/96
f 96/96/96 125/125/125 126/126/126
f 96/96/96 126/126/126 97/97/97
f 97/97/97 126/126/126 127/127/127
f 97/97/97 127/127/127 98/98/98
f 98/98/98 127/127/127 128/128/128
f 98/98/98 128/128/128 99/99/99
f 99/99/99 128/128/128 129/129/129
f 99/99/99 129/129/129 100/100/100
f 100/100/100 129/129/129 130/130/130
f 100/100/100 130/130/130 101/101/101
f 101/101/101 130/130/130 131/131/131
f 101/101/101 131/131/131 102/102/102
f 102/102/102 131/131/131 132/132/132
f 102/102/102 132/132/132 103/103/103
f 103/103/103 132/132/132 133/133/133
f 103/103/103 133/133/133 104/104/104
f 104/104/104 133/133/133 134/134/134
f 104/104/104 134/134/134 105/105/105
f 105/105/105 134/134/134 135/135/135
f 105/105/105 135/135/135 106/106/106
f 106/106/106 135/135/135 136/136/136
f 106/106/106 136/136/136 107/107/107
f 107/107/107 136/136/136 137/137/137
f 107/107/107 137/137/137 108/108/108
f 108/108/108 137/137/137 138/138/138
f 108/108/108 138/138/138 109/109/109
f 109/109/109 138/138/138 139/139/139
f 109/109/109 139/139/139 110/110/110
f 110/110/110 139/139/139 140/140/140
f 110/110/110 140/140/140 111/111/111
f 111/111/111 140/140/140 141/141/141
f 111/111/111 141/141/141 112/112/112
f 112/112/112 141/141/141 142/142/142
f 112/112/112 142/142/142 113/113/113
f 113/113/113 142/142/142 143/143/143
f 113/113/113 143/143/143 114/114/114
f 114/114/114 143/143/143 144/144/144
f 114/114/114 144/144/144 115/115/115
f 115/115/115 144/144/144 145/145/145
f 115/115/115 145/145/145 116/116/116
f 117/117/117 146/146/146 147/147/147
f 117/117/117 147/147/147 118/118/118
f 118/118/118 147/147/147 148/148/148
f 118/118/118 148/148/148 119/119/119
f 119/119/119 148/148/148 149/149/149
f 119/119/119 149/149/149 120/120/120
f 120/120/120 149/149/149 150/150/150
f 120/120/120 150/150/150 121/121/121
f 121/121/121 150/150/150 151/151/151
f 121/121/121 151/151/151 122/122/122
f 122/122/122 151/151/151 152/152/152
f 122/122/122 152/152/152 123/123/123
f 123/123/123 152/152/152 153/153/153
f 123/123/123 153/153/153 124/124/124
f 124/124/124 153/153/153 154/154/154
f 124/124/124 154/154/154 125/125/125
f 125/125/125 154/154/154 155/155/155
f 125/125/125 155/155/155 126/126/126
f 126/126/126 155/155/155 156/156/156
f 126/126/126 156/156/156 127/127/127
f 127/127/127 156/156/156 157/157/157
f 127/127/127 157/157/157 128/128/128
f 128/128/128 157/157/157 158/158/158
f 128/128/128 158/158/158 129/129/129
f 129/129/129 158/158/158 159/159/159
f 129/129/129 159/159/159 130/130/130
f 130/130/130 159/159/159 160/160/160
f 130/130/130 160/160/160 131/131/131
f 131/131/131 160/160/160 161/161/161
f 131/131/131 161/161/161 132/132/132
f 132/132/132 161/161/161 162/162/162
f 132/132/132 162/162/162 133/133/133
f 133/133/133 162/162/162 163/163/163
f 133/133/133 163/163/163 134/134/134
f 134/134/134 163/163/163 164/164/164
f 134/134/134 164/164/164 135/135/135
f 135/135/135 164/164/164 165/165/165
f 135/135/135 165/165/165 136/136/136
f 136/136/136 165/165/165 166/166/166
f 136/136/136 166/166/166 137/137/137
f 137/137/137 166/166/166 167/167/167
f 137/137/137 167/167/167 138/138/138
f 138/138/138 167/167/167 168/168/168
f 138/138/138 168/168/168 139/139/139
f 139/139/139 168/168/168 169/169/169
f 139/139/139 169/169/169 140/140/140
f 140/140/140 169/169/169 170/170/170
f 140/140/140 170/170/170 141/141/141
f 141/141/141 170/170/170 171/171/171
f 141/141/141 171/171/171 142/142/142
f 142/142/142 171/171/171 172/172/172
f 142/142/142 172/172/172 143/143/143
f 143/143/143 172/172/172 173/173/173
f 143/143/143 173/173/173 144/144/144
f 144/144/144 173/173/173 174/174/174
f 144/144/144 174/174/174 145/145/145
f 146/146/146 175/175/175 176/176/176
f 146/146/146 176/176/176 147/147/147
f 147/147/147 176/176/176 177/177/177
f 147/147/147 177/177/177 148/148/148
f 148/148/148 177/177/177 178/178/178
f 148/148/148 178/178/178 149/149/149
f 149/149/149 178/178/178 179/179/179
f 149/149/149 179/179/179 150/150/150
f 150/150/150 179/179/179 180/180/180
f 150/150/150 180/180/180 151/151/151
f 151/151/151 180/180/180 181/181/181
f 151/151/151 181/181/181 152/152/152
f 152/152/152 181/181/181 182/182/182
f 152/152/152 182/182/182 153/153/153
f 153/153/153 182/182/182 183/183/183
f 153/153/153 183/183/183 154/154/154
f 154/154/154 183/183/183 184/184/184
f 154/154/154 184/184/184 155/155/155
f 155/155/155 184/184/184 185/185/185
f 155/155/155 185/185/185 156/156/156
f 156/156/156 185/185/185 186/186/186
f 156/156/156 186/186/186 157/157/157
f 157/157/157 186/186/186 187/187/187
f 157/157/157 187/187/187 158/158/158
f 158/158/158 187/187/187 188/188/188
f 158/158/158 188/188/188 159/159/159
f 159/159/159 188/188/188 189/189/189
f 159/159/159 189/189/189 160/160/160
f 160/160/160 189/189/189 190/190/190
f 160/160/160 190/190/190 161/161/161
f 161/161/161 190/190/190 191/191/191
f 161/161/161 191/191/191 162/162/162
f 162/162/162 191/191/191 192/192/192
f 162/162/162 192/192/192 163/163/163
f 163/163/163 192/192/192 193/193/193
f 163/163/163 193/193/193 164/164/164
f 164/164/164 193/193/193 194/194/194
f 164/164/164 194/194/194 165/165/165
f 165/165/165 194/194/194 195/195/195
f 165/165/165 195/195/195 166/166/166
f 166/166/166 195/195/195 196/196/196
f 166/166/166 196/196/196 167/167/167
f 167/167/167 196/196/196 197/197/197
f 167/167/167 197/197/197 168/168/168
f 168/168/168 197/197/197 198/198/198
f 168/168/168 198/198/198 169/169/169
f 169/169/169 198/198/198 199/199/199
f 169/169/169 199/199/199 170/170/170
f 170/170/170 199/199/199 200/200/200
f 170/170/170 200/200/200 171/171/171
f 171/171/171 200/200/200 201/201/201
f 171/171/171 201/201/201 172/172/172
f 172/172/172 201/201/201 202/202/202
f 172/172/172 202/202/202 173/173/173
f 173/173/173 202/202/202 203/203/203
f 173/173/173 203/203/203 174/174/174
f 175/175/175 204/204/204 205/205/205
f 175/175/175 205/205/205 176/176/176
f 176/176/176 205/205/205 206/206/206
f 176/176/176 206/206/206 177/177/177
f 177/177/177 206/206/206 207/207/207
f 177/177/177 207/207/207 178/178/178
f 178/178/178 207/207/207 208/208/208
f 178/178/178 208/208/208 179/179/179
f 179/179/179 208/208/208 209/209/209
f 179/179/179 209/209/209 180/180/180
f 180/180/180 209/209/209 210/210/210
f 180/180/180 210/210/210 181/181/181
f 181/181/181 210/210/210 211/211/211
f 181/181/181 211/211/211 182/182/182
f 182/182/182 211/211/211 212/212/212
f 182/182/182 212/212/212 183/183/183
f 183/183/183 212/212/212 213/213/213
f 183/183/183 213/213/213 184/184/184
f 184/184/184 213/213/213 214/214/214
f 184/184/184 214/214/214 185/185/185
f 185/185/185 214/214/214 215/215/215
f 185/185/185 215/215/215 186/186/186
f 186/186/186 215/215/215 216/216/216
f 186/186/186 216/216/216 187/187/187
f 187/187/187 216/216/216 217/217/217
f 187/187/187 217/217/217 188/188/188
f 188/188/188 217/217/217 218/218/218
f 188/188/188 218/218/218 189/189/189
f 189/189/189 218/218/218 219/219/219
f 189/189/189 219/219/219 190/190/190
f 190/190/190 219/219/219 220/220/220
f 190/190/190 220/220/220 191/191/191
f 191/191/191 220/220/220 221/221/221
f 191/191/191 221/221/221 192/192/192
f 192/192/192 221/221/221 222/222/222
f 192/192/192 222/222/222 193/193/193
f 193/193/193 222/222/222 223/223/223
f 193/193/193 223/223/223 194/194/194
f 194/194/194 223/223/223 224/224/224
f 194/194/194 224/224/224 195/195/195
f 195/195/195 224/224/224 225/225/225
f 195/195/195 225/225/225 196/196/196
f 196/196/196 225/225/225 226/226/226
f 196/196/196 226/226/226 197/197/197
f 197/197/197 226/226/226 227/227/227
f 197/197/197 227/227/227 198/198/198
f 198/198/198 227/227/227 228/228/228
f 198/198/198 228/228/228 199/199/199
f 199/199/199 228/228/228 229/229/229
f 199/199/199 229/229/229 200/200/200
f 200/200/200 229/229/229 230/230/230
f 200/200/200 230/230/230 201/201/201
f 201/201/201 230/230/230 231/231/231
f 201/201/201 231/231/231 202/202/202
f 202/202/202 231/231/231 232/232/232
f 202/202/202 232/232/232 203/203/203
f 204/204/204 233/233/233 234/234/234
f 204/204/204 234/234/234 205/205/205
f 205/205/205 234/234/234 235/235/235
f 205/205/205 235/235/235 206/206/206
f 206/206/206 235/235/235 236/236/236
f 206/206/206 236/236/236 207/207/207
f 207/207/207 236/236/236 237/237/237
f 207/207/207 237/237/237 208/208/208
f 208/208/208 237/237/237 238/238/238
f 208/208/208 238/238/238 209/209/209
f 209/209/209 238/238/238 239/239/239
f 209/209/209 239/239/239 210/210/210
f 210/210/210 239/239/239 240/240/240
f 210/210/210 240/240/240 211/211/211
f 211/211/211 240/240/240 241/241/241
f 211/211/211 241/241/241 212/212/212
f 212/212/212 241/241/241 242/242/242
f 212/212/212 242/242/242 213/213/213
f 213/213/213 242/242/242 243/243/243
f 213/213/213 243/243/243 214/214/214
f 214/214/214 243/243/243 244/244/244
f 214/214/214 244/244/244 215/215/215
f 215/215/215 244/244/244 245/245/245
f 215/215/215 245/245/245 216/216/216
f 216/216/216 245/245/245 246/246/246
f 216/216/216 246/246/246 217/217/217
f 217/217/217 246/246/246 247/247/247
f 217/217/217 247/247/247 218/218/218
f 218/218/218 247/247/247 248/248/248
f 218/218/218 248/248/248 219/219/219
f 219/219/219 248/248/248 249/249/249
f 219/219/219 249/249/249 220/220/220
f 220/220/220 249/249/249 250/250/250
f 220/220/220 250/250/250 221/221/221
f 221/221/221 250/250/250 251/251/251
f 221/221/221 251/251/251 222/222/222
f 222/222/222 251/251/251 252/252/252
f 222/222/222 252/252/252 223/223/223
f 223/223/223 252/252/252 253/253/253
f 223/223/223 253/253/253 224/224/224
f 224/224/224 253/253/253 254/254/254
f 224/224/224 254/254/254 225/225/225
f 225/225/225 254/254/254 255/255/255
f 225/225/225 255/255/255 226/226/226
f 226/226/226 255/255/255 256/256/256
f 226/226/226 256/256/256 227/227/227
f 227/227/227 256/256/256 257/257/257
f 227/227/227 257/257/257 228/228/228
f 228/228/228 257/257/257 258/258/258
f 228/228/228 258/258/258 229/229/229
f 229/229/229 258/258/258 259/259/259
f 229/229/229 259/259/259 230/230/230
f 230/230/230 259/259/259 260/260/260
f 230/230/230 260/260/260 231/231/231
f 231/231/231 260/260/260 261/261/261
f 231/231/231 261/261/261 232/232/232
f 233/233/233 262/262/262 263/263/263
f 233/233/233 263/263/263 234/234/234
f 234/234/234 263/263/263 264/264/264
f 234/234/234 264/264/264 235/235/235
f 235/235/235 264/264/264 265/265/265
f 235/235/235 265/265/265 236/236/236
f 236/236/236 265/265/265 266/266/266
f 236/236/236 266/266/266 237/237/237
f 237/237/237 266/266/266 267/267/267
f 237/237/237 267/267/267 238/238/238
f 238/238/238 267/267/267 268/268/268
f 238/238/238 268/268/268 239/239/239
f 239/239/239 268/268/268 269/269/269
f 239/239/239 269/269/269 240/240/240
f 240/240/240 269/269/269 270/270/270
f 240/240/240 270/270/270 241/241/241
f 241/241/241 270/270/270 271/271/271
f 241/241/241 271/271/271 242/242/242
f 242/242/242 271/271/271 272/272/272
f 242/242/242 272/272/272 243/243/243
f 243/243/243 272/272/272 273/273/273
f 243/243/243 273/273/273 244/244/244
f 244/244/244 273/273/273 274/274/274
f 244/244/244 274/274/274 245/245/245
f 245/245/245 274/274/274 275/275/275
f 245/245/245 275/275/275 246/246/246
f 246/246/246 275/275/275 276/276/276
f 246/246/246 276/276/276 247/247/247
f 247/247/247 276/276/276 277/277/277
f 247/247/247 277/277/277 248/248/248
f 248/248/248 277/277/277 278/278/278
f 248/248/248 278/278/278 249/249/249
f 249/249/249 278/278/278 279/279/279
f 249/249/249 279/279/279 250/250/250
f 250/250/250 279/279/279 280/280/280
f 250/250/250 280/280/280 251/251/251
f 251/251/251 280/280/280 281/281/281
f 251/251/251 281/281/281 252/252/252
f 252/252/252 281/281/281 282/282/282
f 252/252/252 282/282/282 253/253/253
f 253/253/253 282/282/282 283/283/283
f 253/253/253 283/283/283 254/254/254
f 254/254/254 283/283/283 284/284/284
f 254/254/254 284/284/284 255/255/255
f 255/255/255 284/284/284 285/285/285
f 255/255/255 285/285/285 256/256/256
f 256/256/256 285/285/285 286/286/286
f 256/256/256 286/286/286 257/257/257
f 257/257/257 286/286/286 287/287/287
f 257/257/257 287/287/287 258/258/258
f 258/258/258 287/287/287 288/288/288
f 258/258/258 288/288/288 259/259/259
f 259/259/259 288/288/288 289/289/289
f 259/259/259 289/289/289 260/260/260
f 260/260/260 289/289/289 290/290/290
f 260/260/260 290/290/290 261/261/261
f 262/262/262 291/291/291 292/292/292
f 262/262/262 292/292/292 263/263/263
f 263/263/263 292/292/292 293/293/293
f 263/263/263 293/293/293 264/264/264
f 264/264/264 293/293/293 294/294/294
f 264/264/264 294/294/294 265/265/265
f 265/265/265 294/294/294 295/295/295
f 265/265/265 295/295/295 266/266/266
f 266/266/266 295/295/295 296/296/296
f 266/266/266 296/296/296 267/267/267
f 267/267/267 296/296/296 297/297/297
f 267/267/267 297/297/297 268/268/268
f 268/268/268 297/297/297 298/298/298
f 268/268/268 298/298/298 269/269/269
f 269/269/269 298/298/298 299/299/299
f 269/269/269 299/299/299 270/270/270
f 270/270/270 299/299/299 300/300/300
f 270/270/270 300/300/300 271/271/271
f 271/271/271 300/300/300 301/301/301
f 271/271/271 301/301/301 272/272/272
f 272/272/272 301/301/301 302/302/302
f 272/272/272 302/302/302 273/273/273
f 273/273/273 302/302/302 303/303/303
f 273/273/273 303/303/303 274/274/274
f 274/274/274 303/303/303 304/304/304
f 274/274/274 304/304/304 275/275/275
f 275/275/275 304/304/304 305/305/305
f 275/275/275 305/305/305 276/276/276
f 276/276/276 305/305/305 306/306/306
f 276/276/276 306/306/306 277/277/277
f 277/277/277 306/306/306 307/307/307
f 277/277/277 307/307/307 278/278/278
f 278/278/278 307/307/307 308/308/308
f 278/278/278 308/308/308 279/279/279
f 279/279/279 308/308/308 309/309/309
f 279/279/279 309/309/309 280/280/280
f 280/280/280 309/309/309 310/310/310
f 280/280/280 310/310/310 281/281/281
f 281/281/281 310/310/310 311/311/311
f 281/281/281 311/311/311 282/282/282
f 282/282/282 311/311/311 312/312/312
f 282/282/282 312/312/312 283/283/283
f 283/283/283 312/312/312 313/313/313
f 283/283/283 313/313/313 284/284/284
f 284/284/284 313/313/313 314/314/314
f 284/284/284 314/314/314 285/285/285
f 285/285/285 314/314/314 315/315/315
f 285/285/285 315/315/315 286/286/286
f 286/286/286 315/315/315 316/316/316
f 286/286/286 316/316/316 287/287/287
f 287/287/287 316/316/316 317/317/317
f 287/287/287 317/317/317 288/288/288
f 288/288/288 317/317/317 318/318/318
f 288/288/288 318/318/318 289/289/289
f 289/289/289 318/318/318 319/319/319
f 289/289/289 319/319/319 290/290/290
f 291/291/291 320/320/320 321/321/321
f 291/291/291 321/321/321 292/292/292
f 292/292/292 321/321/321 322/322/322
f 292/292/292 322/322/322 293/293/293
f 293/293/293 322/322/322 323/323/323
f 293/293/293 323/323/323 294/294/294
f 294/294/294 323/323/323 324/324/324
f 294/294/294 324/324/324 295/295/295
f 295/295/295 324/324/324 325/325/325
f 295/295/295 325/325/325 296/296/296
f 296/296/296 325/325/325 326/326/326
f 296/296/296 326/326/326 297/297/297
f 297/297/297 326/326/326 327/327/327
f 297/297/297 327/327/327 298/298/298
f 298/298/298 327/327/327 328/328/328
f 298/298/298 328/328/328 299/299/299
f 299/299/299 328/328/328 329/329/329
f 299/299/299 329/329/329 300/300/300
f 300/300/300 329/329/329 330/330/330
f 300/300/300 330/330/330 301/301/301
f 301/301/301 330/330/330 331/331/331
f 301/301/301 331/331/331 302/302/302
f 302/302/302 331/331/331 332/332/332
f 302/302/302 332/332/332 303/303/303
f 303/303/303 332/332/332 333/333/333
f 303/303/303 333/333/333 304/304/304
f 304/304/304 333/333/333 334/334/334
f 304/304/304 334/334/334 305/305/305
f 305/305/305 334/334/334 335/335/335
f 305/305/305 335/335/335 306/306/306
f 306/306/306 335/335/335 336/336/336
f 306/306/306 336/336/336 307/307/307
f 307/307/307 336/336/336 337/337/337
f 307/307/307 337/337/337 308/308/308
f 308/308/308 337/337/337 338/338/338
f 308/308/308 338/338/338 309/309/309
f 309/309/309 338/338/338 339/339/339
f 309/309/309 339/339/339 310/310/310
f 310/310/310 339/339/339 340/340/340
f 310/310/310 340/340/340 311/311/311
f 311/311/311 340/340/340 341/341/341
f 311/311/311 341/341/341 312/312/312
f 312/312/312 341/341/341 342/342/342
f 312/312/312 342/342/342 313/313/313
f 313/313/313 342/342/342 343/343/343
f 313/313/313 343/343/343 314/314/314
f 314/314/314 343/343/343 344/344/344
f 314/314/314 344/344/344 315/315/315
f 315/315/315 344/344/344 345/345/345
f 315/315/315 345/345/345 316/316/316
f 316/316/316 345/345/345 346/346/346
f 316/316/316 346/346/346 317/317/317
f 317/317/317 346/346/346 347/347/347
f 317/317/317 347/347/347 318/318/318
f 318/318/318 347/347/347 348/348/348
f 318/318/318 348/348/348 319/319/319
f 320/320/320 349/349/349 350/350/350
f 320/320/320 350/350/350 321/321/321
f 321/321/321 350/350/350 351/351/351
f 321/321/321 351/351/351 322/322/322
f 322/322/322 351/351/351 352/352/352
f 322/322/322 352/352/352 323/323/323
f 323/323/323 352/352/352 353/353/353
f 323/323/323 353/353/353 324/324/324
f 324/324/324 353/353/353 354/354/354
f 324/324/324 354/354/354 325/325/325
f 325/325/325 354/354/354 355/355/355
f 325/325/325 355/355/355 326/326/326
f 326/326/326 355/355/355 356/356/356
f 326/326/326 356/356/356 327/327/327
f 327/327/327 356/356/356 357/357/357
f 327/327/327 357/357/357 328/328/328
f 328/328/328 357/357/357 358/358/358
f 328/328/328 358/358/358 329/329/329
f 329/329/329 358/358/358 359/359/359
f 329/329/329 359/359/359 330/330/330
f 330/330/330 359/359/359 360/360/360
f 330/330/330 360/360/360 331/331/331
f 331/331/331 360/360/360 361/361/361
f 331/331/331 361/361/361 332/332/332
f 332/332/332 361/361/361 362/362/362
f 332/332/332 362/362/362 333/333/333
f 333/333/333 362/362/362 363/363/363
f 333/333/333 363/363/363 334/334/334
f 334/334/334 363/363/363 364/364/364
f 334/334/334 364/364/364 335/335/335
f 335/335/335 364/364/364 365/365/365
f 335/335/335 365/365/365 336/336/336
f 336/336/336 365/365/365 366/366/366
f 336/336/336 366/366/366 337/337/337
f 337/337/337 366/366/366 367/367/367
f 337/337/337 367/367/367 338/338/338
f 338/338/338 367/367/367 368/368/368
f 338/338/338 368/368/368 339/339/339
f 339/339/339 368/368/368 369/369/369
f 339/339/339 369/369/369 340/340/340
f 340/340/340 369/369/369 370/370/370
f 340/340/340 370/370/370 341/341/341
f 341/341/341 370/370/370 371/371/371
f 341/341/341 371/371/371 342/342/342
f 342/342/342 371/371/371 372/372/372
f 342/342/342 372/372/372 343/343/343
f 343/343/343 372/372/372 373/373/373
f 343/343/343 373/373/373 344/344/344
f 344/344/344 373/373/373 374/374/374
f 344/344/344 374/374/374 345/345/345
f 345/345/345 374/374/374 375/375/375
f 345/345/345 375/375/375 346/346/346
f 346/346/346 375/375/375 376/376/376
f 346/346/346 376/376/376 347/347/347
f 347/347/347 376/376/376 377/377/377
f 347/347/347 377/377/377 348/348/348
f 349/349/349 378/378/378 379/379/379
f 349/349/349 379/379/379 350/350/350
f 350/350/350 379/379/379 380/380/380
f 350/350/350 380/380/380 351/351/351
f 351/351/351 380/380/380 381/381/381
f 351/351/351 381/381/381 352/352/352
f 352/352/352 381/381/381 382/382/382
f 352/352/352 382/382/382 353/353/353
f 353/353/353 382/382/382 383/383/383
f 353/353/353 383/383/383 354/354/354
f 354/354/354 383/383/383 384/384/384
f 354/354/354 384/384/384 355/355/355
f 355/355/355 384/384/384 385/385/385
f 355/355/355 385/385/385 356/356/356
f 356/356/356 385/385/385 386/386/386
f 356/356/356 386/386/386 357/357/357
f 357/357/357 386/386/386 387/387/387
f 357/357/357 387/387/387 358/358/358
f 358/358/358 387/387/387 388/388/388
f 358/358/358 388/388/388 359/359/359
f 359/359/359 388/388/388 389/389/389
f 359/359/359 389/389/389 360/360/360
f 360/360/360 389/389/389 390/390/390
f 360/360/360 390/390/390 361/361/361
f 361/361/361 390/390/390 391/391/391
f 361/361/361 391/391/391 362/362/362
f 362/362/362 391/391/391 392/392/392
f 362/362/362 392/392/392 363/363/363
f 363/363/363 392/392/392 393/393/393
f 363/363/363 393/393/393 364/364/364
f 364/364/364 393/393/393 394/394/394
f 364/364/364 394/394/394 365/365/365
f 365/365/365 394/394/394 395/395/395
f 365/365/365 395/395/395 366/366/366
f 366/366/366 395/395/395 396/396/396
f 366/366/366 396/396/396 367/367/367
f 367/367/367 396/396/396 397/397/397
f 367/367/367 397/397/397 368/368/368
f 368/368/368 397/397/397 398/398/398
f 368/368/368 398/398/398 369/369/369
f 369/369/369 398/398/398 399/399/399
f 369/369/369 399/399/399 370/370/370
f 370/370/370 399/399/399 400/400/400
f 370/370/370 400/400/400 371/371/371
f 371/371/371 400/400/400 401/401/401
f 371/371/371 401/401/401 372/372/372
f 372/372/372 401/401/401 402/402/402
f 372/372/372 402/402/402 373/373/373
f 373/373/373 402/402/402 403/403/403
f 373/373/373 403/403/403 374/374/374
f 374/374/374 403/403/403 404/404/404
f 374/374/374 404/404/404 375/375/375
f 375/375/375 404/404/404 405/405/405
f 375/375/375 405/405/405 376/376/376
f 376/376/376 405/405/405 406/406/406
f 376/376/376 406/406/406 377/377/377
f 378/378/378 407/407/407 408/408/408
f 378/378/378 408/408/408 379/379/379
f 379/379/379 408/408/408 409/409/409
f 379/379/379 409/409/409 380/380/380
f 380/380/380 409/409/409 410/410/410
f 380/380/380 410/410/410 381/381/381
f 381/381/381 410/410/410 411/411/411
f 381/381/381 411/411/411 382/382/382
f 382/382/382 411/411/411 412/412/412
f 382/382/382 412/412/412 383/383/383
f 383/383/383 412/412/412 413/413/413
f 383/383/383 413/413/413 384/384/384
f 384/384/384 413/413/413 414/414/414
f 384/384/384 414/414/414 385/385/385
f 385/385/385 414/414/414 415/415/415
f 385/385/385 415/415/415 386/386/386
f 386/386/386 415/415/415 416/416/416
f 386/386/386 416/416/416 387/387/387
f 387/387/387 416/416/416 417/417/417
f 387/387/387 417/417/417 388/388/388
f 388/388/388 417/417/417 418/418/418
f 388/388/388 418/418/418 389/389/389
f 389/389/389 418/418/418 419/419/419
f 389/389/389 419/419/419 390/390/390
f 390/390/390 419/419/419 420/420/420
f 390/390/390 420/420/420 391/391/391
f 391/391/391 420/420/420 421/421/421
f 391/391/391 421/421/421 392/392/392
f 392/392/392 421/421/421 422/422/422
f 392/392/392 422/422/422 393/393/393
f 393/393/393 422/422/422 423/423/423
f 393/393/393 423/423/423 394/394/394
f 394/394/394 423/423/423 424/424/424
f 394/394/394 424/424/424 395/395/395
f 395/395/395 424/424/424 425/425/425
f 395/395/395 425/425/425 396/396/396
f 396/396/396 425/425/425 426/426/426
f 396/396/396 426/426/426 397/397/397
f 397/397/397 426/426/426 427/427/427
f 397/397/397 427/427/427 398/398/398
f 398/398/398 427/427/427 428/428/428
f 398/398/398 428/428/428 399/399/399
f 399/399/399 428/428/428 429/429/429
f 399/399/399 429/429/429 400/400/400
f 400/400/400 429/429/429 430/430/430
f 400/400/400 430/430/430 401/401/401
f 401/401/401 430/430/430 431/431/431
f 401/401/401 431/431/431 402/402/402
f 402/402/402 431/431/431 432/432/432
f 402/402/402 432/432/432 403/403/403
f 403/403/403 432/432/432 433/433/433
f 403/403/403 433/433/433 404/404/404
f 404/404/404 433/433/433 434/434/434
f 404/404/404 434/434/434 405/405/405
f 405/405/405 434/434/434 435/435/435
f 405/405/405 435/435/435 406/406/406
