# generated by tools/make_gecko_mesh.py -- do not hand-edit
v 0.000000 -0.004480 0.000000
v 0.000000 -0.004368 -0.000997
v 0.000000 -0.004036 -0.001944
v 0.000000 -0.003503 -0.002793
v 0.000000 -0.002793 -0.003503
v 0.000000 -0.001944 -0.004036
v 0.000000 -0.000997 -0.004368
v 0.000000 0.000000 -0.004480
v 0.000000 0.000997 -0.004368
v 0.000000 0.001944 -0.004036
v 0.000000 0.002793 -0.003503
v 0.000000 0.003503 -0.002793
v 0.000000 0.004036 -0.001944
v 0.000000 0.004368 -0.000997
v 0.000000 0.004480 0.000000
v 0.000000 0.004368 0.000997
v 0.000000 0.004036 0.001944
v 0.000000 0.003503 0.002793
v 0.000000 0.002793 0.003503
v 0.000000 0.001944 0.004036
v 0.000000 0.000997 0.004368
v 0.000000 0.000000 0.004480
v 0.000000 -0.000997 0.004368
v 0.000000 -0.001944 0.004036
v 0.000000 -0.002793 0.003503
v 0.000000 -0.003503 0.002793
v 0.000000 -0.004036 0.001944
v 0.000000 -0.004368 0.000997
v 0.000000 -0.004480 0.000000
v 0.001000 -0.004293 0.000000
v 0.001000 -0.004186 -0.000955
v 0.001000 -0.003868 -0.001863
v 0.001000 -0.003357 -0.002677
v 0.001000 -0.002677 -0.003357
v 0.001000 -0.001863 -0.003868
v 0.001000 -0.000955 -0.004186
v 0.001000 0.000000 -0.004293
v 0.001000 0.000955 -0.004186
v 0.001000 0.001863 -0.003868
v 0.001000 0.002677 -0.003357
v 0.001000 0.003357 -0.002677
v 0.001000 0.003868 -0.001863
v 0.001000 0.004186 -0.000955
v 0.001000 0.004293 0.000000
v 0.001000 0.004186 0.000955
v 0.001000 0.003868 0.001863
v 0.001000 0.003357 0.002677
v 0.001000 0.002677 0.003357
v 0.001000 0.001863 0.003868
v 0.001000 0.000955 0.004186
v 0.001000 0.000000 0.004293
v 0.001000 -0.000955 0.004186
v 0.001000 -0.001863 0.003868
v 0.001000 -0.002677 0.003357
v 0.001000 -0.003357 0.002677
v 0.001000 -0.003868 0.001863
v 0.001000 -0.004186 0.000955
v 0.001000 -0.004293 0.000000
v 0.002000 -0.004107 0.000000
v 0.002000 -0.004004 -0.000914
v 0.002000 -0.003700 -0.001782
v 0.002000 -0.003211 -0.002560
v 0.002000 -0.002560 -0.003211
v 0.002000 -0.001782 -0.003700
v 0.002000 -0.000914 -0.004004
v 0.002000 0.000000 -0.004107
v 0.002000 0.000914 -0.004004
v 0.002000 0.001782 -0.003700
v 0.002000 0.002560 -0.003211
v 0.002000 0.003211 -0.002560
v 0.002000 0.003700 -0.001782
v 0.002000 0.004004 -0.000914
v 0.002000 0.004107 0.000000
v 0.002000 0.004004 0.000914
v 0.002000 0.003700 0.001782
v 0.002000 0.003211 0.002560
v 0.002000 0.002560 0.003211
v 0.002000 0.001782 0.003700
v 0.002000 0.000914 0.004004
v 0.002000 0.000000 0.004107
v 0.002000 -0.000914 0.004004
v 0.002000 -0.001782 0.003700
v 0.002000 -0.002560 0.003211
v 0.002000 -0.003211 0.002560
v 0.002000 -0.003700 0.001782
v 0.002000 -0.004004 0.000914
v 0.002000 -0.004107 0.000000
v 0.003000 -0.003920 0.000000
v 0.003000 -0.003822 -0.000872
v 0.003000 -0.003532 -0.001701
v 0.003000 -0.003065 -0.002444
v 0.003000 -0.002444 -0.003065
v 0.003000 -0.001701 -0.003532
v 0.003000 -0.000872 -0.003822
v 0.003000 0.000000 -0.003920
v 0.003000 0.000872 -0.003822
v 0.003000 0.001701 -0.003532
v 0.003000 0.002444 -0.003065
v 0.003000 0.003065 -0.002444
v 0.003000 0.003532 -0.001701
v 0.003000 0.003822 -0.000872
v 0.003000 0.003920 0.000000
v 0.003000 0.003822 0.000872
v 0.003000 0.003532 0.001701
v 0.003000 0.003065 0.002444
v 0.003000 0.002444 0.003065
v 0.003000 0.001701 0.003532
v 0.003000 0.000872 0.003822
v 0.003000 0.000000 0.003920
v 0.003000 -0.000872 0.003822
v 0.003000 -0.001701 0.003532
v 0.003000 -0.002444 0.003065
v 0.003000 -0.003065 0.002444
v 0.003000 -0.003532 0.001701
v 0.003000 -0.003822 0.000872
v 0.003000 -0.003920 0.000000
v 0.004000 -0.003733 0.000000
v 0.004000 -0.003640 -0.000831
v 0.004000 -0.003364 -0.001620
v 0.004000 -0.002919 -0.002328
v 0.004000 -0.002328 -0.002919
v 0.004000 -0.001620 -0.003364
v 0.004000 -0.000831 -0.003640
v 0.004000 0.000000 -0.003733
v 0.004000 0.000831 -0.003640
v 0.004000 0.001620 -0.003364
v 0.004000 0.002328 -0.002919
v 0.004000 0.002919 -0.002328
v 0.004000 0.003364 -0.001620
v 0.004000 0.003640 -0.000831
v 0.004000 0.003733 0.000000
v 0.004000 0.003640 0.000831
v 0.004000 0.003364 0.001620
v 0.004000 0.002919 0.002328
v 0.004000 0.002328 0.002919
v 0.004000 0.001620 0.003364
v 0.004000 0.000831 0.003640
v 0.004000 0.000000 0.003733
v 0.004000 -0.000831 0.003640
v 0.004000 -0.001620 0.003364
v 0.004000 -0.002328 0.002919
v 0.004000 -0.002919 0.002328
v 0.004000 -0.003364 0.001620
v 0.004000 -0.003640 0.000831
v 0.004000 -0.003733 0.000000
v 0.005000 -0.003547 0.000000
v 0.005000 -0.003458 -0.000789
v 0.005000 -0.003195 -0.001539
v 0.005000 -0.002773 -0.002211
v 0.005000 -0.002211 -0.002773
v 0.005000 -0.001539 -0.003195
v 0.005000 -0.000789 -0.003458
v 0.005000 0.000000 -0.003547
v 0.005000 0.000789 -0.003458
v 0.005000 0.001539 -0.003195
v 0.005000 0.002211 -0.002773
v 0.005000 0.002773 -0.002211
v 0.005000 0.003195 -0.001539
v 0.005000 0.003458 -0.000789
v 0.005000 0.003547 0.000000
v 0.005000 0.003458 0.000789
v 0.005000 0.003195 0.001539
v 0.005000 0.002773 0.002211
v 0.005000 0.002211 0.002773
v 0.005000 0.001539 0.003195
v 0.005000 0.000789 0.003458
v 0.005000 0.000000 0.003547
v 0.005000 -0.000789 0.003458
v 0.005000 -0.001539 0.003195
v 0.005000 -0.002211 0.002773
v 0.005000 -0.002773 0.002211
v 0.005000 -0.003195 0.001539
v 0.005000 -0.003458 0.000789
v 0.005000 -0.003547 0.000000
v 0.006000 -0.003360 0.000000
v 0.006000 -0.003276 -0.000748
v 0.006000 -0.003027 -0.001458
v 0.006000 -0.002627 -0.002095
v 0.006000 -0.002095 -0.002627
v 0.006000 -0.001458 -0.003027
v 0.006000 -0.000748 -0.003276
v 0.006000 0.000000 -0.003360
v 0.006000 0.000748 -0.003276
v 0.006000 0.001458 -0.003027
v 0.006000 0.002095 -0.002627
v 0.006000 0.002627 -0.002095
v 0.006000 0.003027 -0.001458
v 0.006000 0.003276 -0.000748
v 0.006000 0.003360 0.000000
v 0.006000 0.003276 0.000748
v 0.006000 0.003027 0.001458
v 0.006000 0.002627 0.002095
v 0.006000 0.002095 0.002627
v 0.006000 0.001458 0.003027
v 0.006000 0.000748 0.003276
v 0.006000 0.000000 0.003360
v 0.006000 -0.000748 0.003276
v 0.006000 -0.001458 0.003027
v 0.006000 -0.002095 0.002627
v 0.006000 -0.002627 0.002095
v 0.006000 -0.003027 0.001458
v 0.006000 -0.003276 0.000748
v 0.006000 -0.003360 0.000000
vt 0.00000 0.00000
vt 0.03571 0.00000
vt 0.07143 0.00000
vt 0.10714 0.00000
vt 0.14286 0.00000
vt 0.17857 0.00000
vt 0.21429 0.00000
vt 0.25000 0.00000
vt 0.28571 0.00000
vt 0.32143 0.00000
vt 0.35714 0.00000
vt 0.39286 0.00000
vt 0.42857 0.00000
vt 0.46429 0.00000
vt 0.50000 0.00000
vt 0.53571 0.00000
vt 0.57143 0.00000
vt 0.60714 0.00000
vt 0.64286 0.00000
vt 0.67857 0.00000
vt 0.71429 0.00000
vt 0.75000 0.00000
vt 0.78571 0.00000
vt 0.82143 0.00000
vt 0.85714 0.00000
vt 0.89286 0.00000
vt 0.92857 0.00000
vt 0.96429 0.00000
vt 1.00000 0.00000
vt 0.00000 0.03333
vt 0.03571 0.03333
vt 0.07143 0.03333
vt 0.10714 0.03333
vt 0.14286 0.03333
vt 0.17857 0.03333
vt 0.21429 0.03333
vt 0.25000 0.03333
vt 0.28571 0.03333
vt 0.32143 0.03333
vt 0.35714 0.03333
vt 0.39286 0.03333
vt 0.42857 0.03333
vt 0.46429 0.03333
vt 0.50000 0.03333
vt 0.53571 0.03333
vt 0.57143 0.03333
vt 0.60714 0.03333
vt 0.64286 0.03333
vt 0.67857 0.03333
vt 0.71429 0.03333
vt 0.75000 0.03333
vt 0.78571 0.03333
vt 0.82143 0.03333
vt 0.85714 0.03333
vt 0.89286 0.03333
vt 0.92857 0.03333
vt 0.96429 0.03333
vt 1.00000 0.03333
vt 0.00000 0.06667
vt 0.03571 0.06667
vt 0.07143 0.06667
vt 0.10714 0.06667
vt 0.14286 0.06667
vt 0.17857 0.06667
vt 0.21429 0.06667
vt 0.25000 0.06667
vt 0.28571 0.06667
vt 0.32143 0.06667
vt 0.35714 0.06667
vt 0.39286 0.06667
vt 0.42857 0.06667
vt 0.46429 0.06667
vt 0.50000 0.06667
vt 0.53571 0.06667
vt 0.57143 0.06667
vt 0.60714 0.06667
vt 0.64286 0.06667
vt 0.67857 0.06667
vt 0.71429 0.06667
vt 0.75000 0.06667
vt 0.78571 0.06667
vt 0.82143 0.06667
vt 0.85714 0.06667
vt 0.89286 0.06667
vt 0.92857 0.06667
vt 0.96429 0.06667
vt 1.00000 0.06667
vt 0.00000 0.10000
vt 0.03571 0.10000
vt 0.07143 0.10000
vt 0.10714 0.10000
vt 0.14286 0.10000
vt 0.17857 0.10000
vt 0.21429 0.10000
vt 0.25000 0.10000
vt 0.28571 0.10000
vt 0.32143 0.10000
vt 0.35714 0.10000
vt 0.39286 0.10000
vt 0.42857 0.10000
vt 0.46429 0.10000
vt 0.50000 0.10000
vt 0.53571 0.10000
vt 0.57143 0.10000
vt 0.60714 0.10000
vt 0.64286 0.10000
vt 0.67857 0.10000
vt 0.71429 0.10000
vt 0.75000 0.10000
vt 0.78571 0.10000
vt 0.82143 0.10000
vt 0.85714 0.10000
vt 0.89286 0.10000
vt 0.92857 0.10000
vt 0.96429 0.10000
vt 1.00000 0.10000
vt 0.00000 0.13333
vt 0.03571 0.13333
vt 0.07143 0.13333
vt 0.10714 0.13333
vt 0.14286 0.13333
vt 0.17857 0.13333
vt 0.21429 0.13333
vt 0.25000 0.13333
vt 0.28571 0.13333
vt 0.32143 0.13333
vt 0.35714 0.13333
vt 0.39286 0.13333
vt 0.42857 0.13333
vt 0.46429 0.13333
vt 0.50000 0.13333
vt 0.53571 0.13333
vt 0.57143 0.13333
vt 0.60714 0.13333
vt 0.64286 0.13333
vt 0.67857 0.13333
vt 0.71429 0.13333
vt 0.75000 0.13333
vt 0.78571 0.13333
vt 0.82143 0.13333
vt 0.85714 0.13333
vt 0.89286 0.13333
vt 0.92857 0.13333
vt 0.96429 0.13333
vt 1.00000 0.13333
vt 0.00000 0.16667
vt 0.03571 0.16667
vt 0.07143 0.16667
vt 0.10714 0.16667
vt 0.14286 0.16667
vt 0.17857 0.16667
vt 0.21429 0.16667
vt 0.25000 0.16667
vt 0.28571 0.16667
vt 0.32143 0.16667
vt 0.35714 0.16667
vt 0.39286 0.16667
vt 0.42857 0.16667
vt 0.46429 0.16667
vt 0.50000 0.16667
vt 0.53571 0.16667
vt 0.57143 0.16667
vt 0.60714 0.16667
vt 0.64286 0.16667
vt 0.67857 0.16667
vt 0.71429 0.16667
vt 0.75000 0.16667
vt 0.78571 0.16667
vt 0.82143 0.16667
vt 0.85714 0.16667
vt 0.89286 0.16667
vt 0.92857 0.16667
vt 0.96429 0.16667
vt 1.00000 0.16667
vt 0.00000 0.20000
vt 0.03571 0.20000
vt 0.07143 0.20000
vt 0.10714 0.20000
vt 0.14286 0.20000
vt 0.17857 0.20000
vt 0.21429 0.20000
vt 0.25000 0.20000
vt 0.28571 0.20000
vt 0.32143 0.20000
vt 0.35714 0.20000
vt 0.39286 0.20000
vt 0.42857 0.20000
vt 0.46429 0.20000
vt 0.50000 0.20000
vt 0.53571 0.20000
vt 0.57143 0.20000
vt 0.60714 0.20000
vt 0.64286 0.20000
vt 0.67857 0.20000
vt 0.71429 0.20000
vt 0.75000 0.20000
vt 0.78571 0.20000
vt 0.82143 0.20000
vt 0.85714 0.20000
vt 0.89286 0.20000
vt 0.92857 0.20000
vt 0.96429 0.20000
vt 1.00000 0.20000
vn 0.18338 -0.98239 -0.03586
vn 0.18338 -0.94978 -0.25356
vn 0.18338 -0.86954 -0.45855
vn 0.18338 -0.74571 -0.64054
vn 0.18338 -0.58447 -0.79042
vn 0.18338 -0.39394 -0.90066
vn 0.18338 -0.18364 -0.96574
vn 0.18338 0.03586 -0.98239
vn 0.18338 0.25356 -0.94978
vn 0.18338 0.45855 -0.86954
vn 0.18338 0.64054 -0.74571
vn 0.18338 0.79042 -0.58447
vn 0.18338 0.90066 -0.39394
vn 0.18338 0.96574 -0.18364
vn 0.18338 0.98239 0.03586
vn 0.18338 0.94978 0.25356
vn 0.18338 0.86954 0.45855
vn 0.18338 0.74571 0.64054
vn 0.18338 0.58447 0.79042
vn 0.18338 0.39394 0.90066
vn 0.18338 0.18364 0.96574
vn 0.18338 -0.03586 0.98239
vn 0.18338 -0.25356 0.94978
vn 0.18338 -0.45855 0.86954
vn 0.18338 -0.64054 0.74571
vn 0.18338 -0.79042 0.58447
vn 0.18338 -0.90066 0.39394
vn 0.18338 -0.96574 0.18364
vn 0.18338 -0.98239 -0.03586
vn 0.18350 -0.98302 0.00161
vn 0.18350 -0.95873 -0.21718
vn 0.18350 -0.88637 -0.42507
vn 0.18350 -0.76956 -0.61165
vn 0.18350 -0.61416 -0.76755
vn 0.18350 -0.42796 -0.88497
vn 0.18350 -0.22031 -0.95802
vn 0.18350 -0.00161 -0.98302
vn 0.18350 0.21718 -0.95873
vn 0.18350 0.42507 -0.88637
vn 0.18350 0.61165 -0.76956
vn 0.18350 0.76755 -0.61416
vn 0.18350 0.88497 -0.42796
vn 0.18350 0.95802 -0.22031
vn 0.18350 0.98302 -0.00161
vn 0.18350 0.95873 0.21718
vn 0.18350 0.88637 0.42507
vn 0.18350 0.76956 0.61165
vn 0.18350 0.61416 0.76755
vn 0.18350 0.42796 0.88497
vn 0.18350 0.22031 0.95802
vn 0.18350 0.00161 0.98302
vn 0.18350 -0.21718 0.95873
vn 0.18350 -0.42507 0.88637
vn 0.18350 -0.61165 0.76956
vn 0.18350 -0.76755 0.61416
vn 0.18350 -0.88497 0.42796
vn 0.18350 -0.95802 0.22031
vn 0.18350 -0.98302 0.00161
vn 0.18350 -0.98302 0.00168
vn 0.18350 -0.95875 -0.21711
vn 0.18350 -0.88640 -0.42500
vn 0.18350 -0.76960 -0.61159
vn 0.18350 -0.61421 -0.76751
vn 0.18350 -0.42803 -0.88494
vn 0.18350 -0.22038 -0.95800
vn 0.18350 -0.00168 -0.98302
vn 0.18350 0.21711 -0.95875
vn 0.18350 0.42500 -0.88640
vn 0.18350 0.61159 -0.76960
vn 0.18350 0.76751 -0.61421
vn 0.18350 0.88494 -0.42803
vn 0.18350 0.95800 -0.22038
vn 0.18350 0.98302 -0.00168
vn 0.18350 0.95875 0.21711
vn 0.18350 0.88640 0.42500
vn 0.18350 0.76960 0.61159
vn 0.18350 0.61421 0.76751
vn 0.18350 0.42803 0.88494
vn 0.18350 0.22038 0.95800
vn 0.18350 0.00168 0.98302
vn 0.18350 -0.21711 0.95875
vn 0.18350 -0.42500 0.88640
vn 0.18350 -0.61159 0.76960
vn 0.18350 -0.76751 0.61421
vn 0.18350 -0.88494 0.42803
vn 0.18350 -0.95800 0.22038
vn 0.18350 -0.98302 0.00168
vn 0.18350 -0.98302 0.00176
vn 0.18350 -0.95876 -0.21703
vn 0.18350 -0.88643 -0.42493
vn 0.18350 -0.76965 -0.61153
vn 0.18350 -0.61428 -0.76746
vn 0.18350 -0.42810 -0.88491
vn 0.18350 -0.22046 -0.95798
vn 0.18350 -0.00176 -0.98302
vn 0.18350 0.21703 -0.95876
vn 0.18350 0.42493 -0.88643
vn 0.18350 0.61153 -0.76965
vn 0.18350 0.76746 -0.61428
vn 0.18350 0.88491 -0.42810
vn 0.18350 0.95798 -0.22046
vn 0.18350 0.98302 -0.00176
vn 0.18350 0.95876 0.21703
vn 0.18350 0.88643 0.42493
vn 0.18350 0.76965 0.61153
vn 0.18350 0.61428 0.76746
vn 0.18350 0.42810 0.88491
vn 0.18350 0.22046 0.95798
vn 0.18350 0.00176 0.98302
vn 0.18350 -0.21703 0.95876
vn 0.18350 -0.42493 0.88643
vn 0.18350 -0.61153 0.76965
vn 0.18350 -0.76746 0.61428
vn 0.18350 -0.88491 0.42810
vn 0.18350 -0.95798 0.22046
vn 0.18350 -0.98302 0.00176
vn 0.18350 -0.98302 0.00185
vn 0.18350 -0.95878 -0.21694
vn 0.18350 -0.88647 -0.42485
vn 0.18350 -0.76971 -0.61146
vn 0.18350 -0.61435 -0.76740
vn 0.18350 -0.42818 -0.88487
vn 0.18350 -0.22054 -0.95796
vn 0.18350 -0.00185 -0.98302
vn 0.18350 0.21694 -0.95878
vn 0.18350 0.42485 -0.88647
vn 0.18350 0.61146 -0.76971
vn 0.18350 0.76740 -0.61435
vn 0.18350 0.88487 -0.42818
vn 0.18350 0.95796 -0.22054
vn 0.18350 0.98302 -0.00185
vn 0.18350 0.95878 0.21694
vn 0.18350 0.88647 0.42485
vn 0.18350 0.76971 0.61146
vn 0.18350 0.61435 0.76740
vn 0.18350 0.42818 0.88487
vn 0.18350 0.22054 0.95796
vn 0.18350 0.00185 0.98302
vn 0.18350 -0.21694 0.95878
vn 0.18350 -0.42485 0.88647
vn 0.18350 -0.61146 0.76971
vn 0.18350 -0.76740 0.61435
vn 0.18350 -0.88487 0.42818
vn 0.18350 -0.95796 0.22054
vn 0.18350 -0.98302 0.00185
vn 0.18350 -0.98302 0.00194
vn 0.18350 -0.95880 -0.21685
vn 0.18350 -0.88651 -0.42476
vn 0.18350 -0.76977 -0.61138
vn 0.18350 -0.61442 -0.76734
vn 0.18350 -0.42827 -0.88483
vn 0.18350 -0.22064 -0.95794
vn 0.18350 -0.00194 -0.98302
vn 0.18350 0.21685 -0.95880
vn 0.18350 0.42476 -0.88651
vn 0.18350 0.61138 -0.76977
vn 0.18350 0.76734 -0.61442
vn 0.18350 0.88483 -0.42827
vn 0.18350 0.95794 -0.22064
vn 0.18350 0.98302 -0.00194
vn 0.18350 0.95880 0.21685
vn 0.18350 0.88651 0.42476
vn 0.18350 0.76977 0.61138
vn 0.18350 0.61442 0.76734
vn 0.18350 0.42827 0.88483
vn 0.18350 0.22064 0.95794
vn 0.18350 0.00194 0.98302
vn 0.18350 -0.21685 0.95880
vn 0.18350 -0.42476 0.88651
vn 0.18350 -0.61138 0.76977
vn 0.18350 -0.76734 0.61442
vn 0.18350 -0.88483 0.42827
vn 0.18350 -0.95794 0.22064
vn 0.18350 -0.98302 0.00194
vn 0.18336 -0.98230 0.03823
vn 0.18336 -0.96618 -0.18131
vn 0.18336 -0.90161 -0.39176
vn 0.18336 -0.79183 -0.58256
vn 0.18336 -0.64235 -0.74416
vn 0.18336 -0.46065 -0.86843
vn 0.18336 -0.25586 -0.94917
vn 0.18336 -0.03823 -0.98230
vn 0.18336 0.18131 -0.96618
vn 0.18336 0.39176 -0.90161
vn 0.18336 0.58256 -0.79183
vn 0.18336 0.74416 -0.64235
vn 0.18336 0.86843 -0.46065
vn 0.18336 0.94917 -0.25586
vn 0.18336 0.98230 -0.03823
vn 0.18336 0.96618 0.18131
vn 0.18336 0.90161 0.39176
vn 0.18336 0.79183 0.58256
vn 0.18336 0.64235 0.74416
vn 0.18336 0.46065 0.86843
vn 0.18336 0.25586 0.94917
vn 0.18336 0.03823 0.98230
vn 0.18336 -0.18131 0.96618
vn 0.18336 -0.39176 0.90161
vn 0.18336 -0.58256 0.79183
vn 0.18336 -0.74416 0.64235
vn 0.18336 -0.86843 0.46065
vn 0.18336 -0.94917 0.25586
vn 0.18336 -0.98230 0.03823
f 1/1/1 31/31/31 30/30/30
f 1/1/1 2/2/2 31/31/31
f 2/2/2 32/32/32 31/31/31
f 2/2/2 3/3/3 32/32/32
f 3/3/3 33/33/33 32/32/32
f 3/3/3 4/4/4 33/33/33
f 4/4/4 34/34/34 33/33/33
f 4/4/4 5/5/5 34/34/34
f 5/5/5 35/35/35 34/34/34
f 5/5/5 6/6/6 35/35/35
f 6/6/6 36/36/36 35/35/35
f 6/6/6 7/7/7 36/36/36
f 7/7/7 37/37/37 36/36/36
f 7/7/7 8/8/8 37/37/37
f 8/8/8 38/38/38 37/37/37
f 8/8/8 9/9/9 38/38/38
f 9/9/9 39/39/39 38/38/38
f 9/9/9 10/10/10 39/39/39
f 10/10/10 40/40/40 39/39/39
f 10/10/10 11/11/11 40/40/40
f 11/11/11 41/41/41 40/40/40
f 11/11/11 12/12/12 41/41/41
f 12/12/12 42/42/42 41/41/41
f 12/12/12 13/13/13 42/42/42
f 13/13/13 43/43/43 42/42/42
f 13/13/13 14/14/14 43/43/43
f 14/14/14 44/44/44 43/43/43
f 14/14/14 15/15/15 44/44/44
f 15/15/15 45/45/45 44/44/44
f 15/15/15 16/16/16 45/45/45
f 16/16/16 46/46/46 45/45/45
f 16/16/16 17/17/17 46/46/46
f 17/17/17 47/47/47 46/46/46
f 17/17/17 18/18/18 47/47/47
f 18/18/18 48/48/48 47/47/47
f 18/18/18 19/19/19 48/48/48
f 19/19/19 49/49/49 48/48/48
f 19/19/19 20/20/20 49/49/49
f 20/20/20 50/50/50 49/49/49
f 20/20/20 21/21/21 50/50/50
f 21/21/21 51/51/51 50/50/50
f 21/21/21 22/22/22 51/51/51
f 22/22/22 52/52/52 51/51/51
f 22/22/22 23/23/23 52/52/52
f 23/23/23 53/53/53 52/52/52
f 23/23/23 24/24/24 53/53/53
f 24/24/24 54/54/54 53/53/53
f 24/24/24 25/25/25 54/54/54
f 25/25/25 55/55/55 54/54/54
f 25/25/25 26/26/26 55/55/55
f 26/26/26 56/56/56 55/55/55
f 26/26/26 27/27/27 56/56/56
f 27/27/27 57/57/57 56/56/56
f 27/27/27 28/28/28 57/57/57
f 28/28/28 58/58/58 57/57/57
f 28/28/28 29/29/29 58/58/58
f 30/30/30 60/60/60 59/59/59
f 30/30/30 31/31/31 60/60/60
f 31/31/31 61/61/61 60/60/60
f 31/31/31 32/32/32 61/61/61
f 32/32/32 62/62/62 61/61/61
f 32/32/32 33/33/33 62/62/62
f 33/33/33 63/63/63 62/62/62
f 33/33/33 34/34/34 63/63/63
f 34/34/34 64/64/64 63/63/63
f 34/34/34 35/35/35 64/64/64
f 35/35/35 65/65/65 64/64/64
f 35/35/35 36/36/36 65/65/65
f 36/36/36 66/66/66 65/65/65
f 36/36/36 37/37/37 66/66/66
f 37/37/37 67/67/67 66/66/66
f 37/37/37 38/38/38 67/67/67
f 38/38/38 68/68/68 67/67/67
f 38/38/38 39/39/39 68/68/68
f 39/39/39 69/69/69 68/68/68
f 39/39/39 40/40/40 69/69/69
f 40/40/40 70/70/70 69/69/69
f 40/40/40 41/41/41 70/70/70
f 41/41/41 71/71/71 70/70/70
f 41/41/41 42/42/42 71/71/71
f 42/42/42 72/72/72 71/71/71
f 42/42/42 43/43/43 72/72/72
f 43/43/43 73/73/73 72/72/72
f 43/43/43 44/44/44 73/73/73
f 44/44/44 74/74/74 73/73/73
f 44/44/44 45/45/45 74/74/74
f 45/45/45 75/75/75 74/74/74
f 45/45/45 46/46/46 75/75/75
f 46/46/46 76/76/76 75/75/75
f 46/46/46 47/47/47 76/76/76
f 47/47/47 77/77/77 76/76/76
f 47/47/47 48/48/48 77/77/77
f 48/48/48 78/78/78 77/77/77
f 48/48/48 49/49/49 78/78/78
f 49/49/49 79/79/79 78/78/78
f 49/49/49 50/50/50 79/79/79
f 50/50/50 80/80/80 79/79/79
f 50/50/50 51/51/51 80/80/80
f 51/51/51 81/81/81 80/80/80
f 51/51/51 52/52/52 81/81/81
f 52/52/52 82/82/82 81/81/81
f 52/52/52 53/53/53 82/82/82
f 53/53/53 83/83/83 82/82/82
f 53/53/53 54/54/54 83/83/83
f 54/54/54 84/84/84 83/83/83
f 54/54/54 55/55/55 84/84/84
f 55/55/55 85/85/85 84/84/84
f 55/55/55 56/56/56 85/85/85
f 56/56/56 86/86/86 85/85/85
f 56/56/56 57/57/57 86/86/86
f 57/57/57 87/87/87 86/86/86
f 57/57/57 58/58/58 87/87/87
f 59/59/59 89/89/89 88/88/88
f 59/59/59 60/60/60 89/89/89
f 60/60/60 90/90/90 89/89/89
f 60/60/60 61/61/61 90/90/90
f 61/61/61 91/91/91 90/90/90
f 61/61/61 62/62/62 91/91/91
f 62/62/62 92/92/92 91/91/91
f 62/62/62 63/63/63 92/92/92
f 63/63/63 93/93/93 92/92/92
f 63/63/63 64/64/64 93/93/93
f 64/64/64 94/94/94 93/93/93
f 64/64/64 65/65/65 94/94/94
f 65/65/65 95/95/95 94/94/94
f 65/65/65 66/66/66 95/95/95
f 66/66/66 96/96/96 95/95/95
f 66/66/66 67/67/67 96/96/96
f 67/67/67 97/97/97 96/96/96
f 67/67/67 68/68/68 97/97/97
f 68/68/68 98/98/98 97/97/97
f 68/68/68 69/69/69 98/98/98
f 69/69/69 99/99/99 98/98/98
f 69/69/69 70/70/70 99/99/99
f 70/70/70 100/100/100 99/99/99
f 70/70/70 71/71/71 100/100/100
f 71/71/71 101/101/101 100/100/100
f 71/71/71 72/72/72 101/101/101
f 72/72/72 102/102/102 101/101/101
f 72/72/72 73/73/73 102/102/102
f 73/73/73 103/103/103 102/102/102
f 73/73/73 74/74/74 103/103/103
f 74/74/74 104/104/104 103/103/103
f 74/74/74 75/75/75 104/104/104
f 75/75/75 105/105/105 104/104/104
f 75/75/75 76/76/76 105/105/105
f 76/76/76 106/106/106 105/105/105
f 76/76/76 77/77/77 106/106/106
f 77/77/77 107/107/107 106/106/106
f 77/77/77 78/78/78 107/107/107
f 78/78/78 108/108/108 107/107/107
f 78/78/78 79/79/79 108/108/108
f 79/79/79 109/109/109 108/108/108
f 79/79/79 80/80/80 109/109/109
f 80/80/80 110/110/110 109/109/109
f 80/80/80 81/81/81 110/110/110
f 81/81/81 111/111/111 110/110/110
f 81/81/81 82/82/82 111/111/111
f 82/82/82 112/112/112 111/111/111
f 82/82/82 83/83/83 112/112/112
f 83/83/83 113/113/113 112/112/112
f 83/83/83 84/84/84 113/113/113
f 84/84/84 114/114/114 113/113/113
f 84/84/84 85/85/85 114/114/114
f 85/85/85 115/115/115 114/114/114
f 85/85/85 86/86/86 115/115/115
f 86/86/86 116/116/116 115/115/115
f 86/86/86 87/87/87 116/116/116
f 88/88/88 118/118/118 117/117/117
f 88/88/88 89/89/89 118/118/118
f 89/89/89 119/119/119 118/118/118
f 89/89/89 90/90/90 119/119/119
f 90/90/90 120/120/120 119/119/119
f 90/90/90 91/91/91 120/120/120
f 91/91/91 121/121/121 120/120/120
f 91/91/91 92/92/92 121/121/121
f 92/92/92 122/122/122 121/121/121
f 92/92/92 93/93/93 122/122/122
f 93/93/93 123/123/123 122/122/122
f 93/93/93 94/94/94 123/123/123
f 94/94/94 124/124/124 123/123/123
f 94/94/94 95/95/95 124/124/124
f 95/95/95 125/125/125 124/124/124
f 95/95/95 96/96/96 125/125/125
f 96/96/96 126/126/126 125/125/125
f 96/96/96 97/97/97 126/126/126
f 97/97/97 127/127/127 126/126/126
f 97/97/97 98/98/98 127/127/127
f 98/98/98 128/128/128 127/127/127
f 98/98/98 99/99/99 128/128/128
f 99/99/99 129/129/129 128/128/128
f 99/99/99 100/100/100 129/129/129
f 100/100/100 130/130/130 129/129/129
f 100/100/100 101/101/101 130/130/130
f 101/101/101 131/131/131 130/130/130
f 101/101/101 102/102/102 131/131/131
f 102/102/102 132/132/132 131/131/131
f 102/102/102 103/103/103 132/132/132
f 103/103/103 133/133/133 132/132/132
f 103/103/103 104/104/104 133/133/133
f 104/104/104 134/134/134 133/133/133
f 104/104/104 105/105/105 134/134/134
f 105/105/105 135/135/135 134/134/134
f 105/105/105 106/106/106 135/135/135
f 106/106/106 136/136/136 135/135/135
f 106/106/106 107/107/107 136/136/136
f 107/107/107 137/137/137 136/136/136
f 107/107/107 108/108/108 137/137/137
f 108/108/108 138/138/138 137/137/137
f 108/108/108 109/109/109 138/138/138
f 109/109/109 139/139/139 138/138/138
f 109/109/109 110/110/110 139/139/139
f 110/110/110 140/140/140 139/139/139
f 110/110/110 111/111/111 140/140/140
f 111/111/111 141/141/141 140/140/140
f 111/111/111 112/112/112 141/141/141
f 112/112/112 142/142/142 141/141/141
f 112/112/112 113/113/113 142/142/142
f 113/113/113 143/143/143 142/142/142
f 113/113/113 114/114/114 143/143/143
f 114/114/114 144/144/144 143/143/143
f 114/114/114 115/115/115 144/144/144
f 115/115/115 145/145/145 144/144/144
f 115/115/115 116/116/116 145/145/145
f 117/117/117 147/147/147 146/146/146
f 117/117/117 118/118/118 147/147/147
f 118/118/118 148/148/148 147/147/147
f 118/118/118 119/119/119 148/148/148
f 119/119/119 149/149/149 148/148/148
f 119/119/119 120/120/120 149/149/149
f 120/120/120 150/150/150 149/149/149
f 120/120/120 121/121/121 150/150/150
f 121/121/121 151/151/151 150/150/150
f 121/121/121 122/122/122 151/151/151
f 122/122/122 152/152/152 151/151/151
f 122/122/122 123/123/123 152/152/152
f 123/123/123 153/153/153 152/152/152
f 123/123/123 124/124/124 153/153/153
f 124/124/124 154/154/154 153/153/153
f 124/124/124 125/125/125 154/154/154
f 125/125/125 155/155/155 154/154/154
f 125/125/125 126/126/126 155/155/155
f 126/126/126 156/156/156 155/155/155
f 126/126/126 127/127/127 156/156/156
f 127/127/127 157/157/157 156/156/156
f 127/127/127 128/128/128 157/157/157
f 128/128/128 158/158/158 157/157/157
f 128/128/128 129/129/129 158/158/158
f 129/129/129 159/159/159 158/158/158
f 129/129/129 130/130/130 159/159/159
f 130/130/130 160/160/160 159/159/159
f 130/130/130 131/131/131 160/160/160
f 131/131/131 161/161/161 160/160/160
f 131/131/131 132/132/132 161/161/161
f 132/132/132 162/162/162 161/161/161
f 132/132/132 133/133/133 162/162/162
f 133/133/133 163/163/163 162/162/162
f 133/133/133 134/134/134 163/163/163
f 134/134/134 164/164/164 163/163/163
f 134/134/134 135/135/135 164/164/164
f 135/135/135 165/165/165 164/164/164
f 135/135/135 136/136/136 165/165/165
f 136/136/136 166/166/166 165/165/165
f 136/136/136 137/137/137 166/166/166
f 137/137/137 167/167/167 166/166/166
f 137/137/137 138/138/138 167/167/167
f 138/138/138 168/168/168 167/167/167
f 138/138/138 139/139/139 168/168/168
f 139/139/139 169/169/169 168/168/168
f 139/139/139 140/140/140 169/169/169
f 140/140/140 170/170/170 169/169/169
f 140/140/140 141/141/141 170/170/170
f 141/141/141 171/171/171 170/170/170
f 141/141/141 142/142/142 171/171/171
f 142/142/142 172/172/172 171/171/171
f 142/142/142 143/143/143 172/172/172
f 143/143/143 173/173/173 172/172/172
f 143/143/143 144/144/144 173/173/173
f 144/144/144 174/174/174 173/173/173
f 144/144/144 145/145/145 174/174/174
f 146/146/146 176/176/176 175/175/175
f 146/146/146 147/147/147 176/176/176
f 147/147/147 177/177/177 176/176/176
f 147/147/147 148/148/148 177/177/177
f 148/148/148 178/178/178 177/177/177
f 148/148/148 149/149/149 178/178/178
f 149/149/149 179/179/179 178/178/178
f 149/149/149 150/150/150 179/179/179
f 150/150/150 180/180/180 179/179/179
f 150/150/150 151/151/151 180/180/180
f 151/151/151 181/181/181 180/180/180
f 151/151/151 152/152/152 181/181/181
f 152/152/152 182/182/182 181/181/181
f 152/152/152 153/153/153 182/182/182
f 153/153/153 183/183/183 182/182/182
f 153/153/153 154/154/154 183/183/183
f 154/154/154 184/184/184 183/183/183
f 154/154/154 155/155/155 184/184/184
f 155/155/155 185/185/185 184/184/184
f 155/155/155 156/156/156 185/185/185
f 156/156/156 186/186/186 185/185/185
f 156/156/156 157/157/157 186/186/186
f 157/157/157 187/187/187 186/186/186
f 157/157/157 158/158/158 187/187/187
f 158/158/158 188/188/188 187/187/187
f 158/158/158 159/159/159 188/188/188
f 159/159/159 189/189/189 188/188/188
f 159/159/159 160/160/160 189/189/189
f 160/160/160 190/190/190 189/189/189
f 160/160/160 161/161/161 190/190/190
f 161/161/161 191/191/191 190/190/190
f 161/161/161 162/162/162 191/191/191
f 162/162/162 192/192/192 191/191/191
f 162/162/162 163/163/163 192/192/192
f 163/163/163 193/193/193 192/192/192
f 163/163/163 164/164/164 193/193/193
f 164/164/164 194/194/194 193/193/193
f 164/164/164 165/165/165 194/194/194
f 165/165/165 195/195/195 194/194/194
f 165/165/165 166/166/166 195/195/195
f 166/166/166 196/196/196 195/195/195
f 166/166/166 167/167/167 196/196/196
f 167/167/167 197/197/197 196/196/196
f 167/167/167 168/168/168 197/197/197
f 168/168/168 198/198/198 197/197/197
f 168/168/168 169/169/169 198/198/198
f 169/169/169 199/199/199 198/198/198
f 169/169/169 170/170/170 199/199/199
f 170/170/170 200/200/200 199/199/199
f 170/170/170 171/171/171 200/200/200
f 171/171/171 201/201/201 200/200/200
f 171/171/171 172/172/172 201/201/201
f 172/172/172 202/202/202 201/201/201
f 172/172/172 173/173/173 202/202/202
f 173/173/173 203/203/203 202/202/202
f 173/173/173 174/174/174 203/203/203
