# generated by tools/make_gecko_eye.py -- eye rim
v 0.012595 -0.010394 0.006675
v 0.012712 -0.010610 0.006717
v 0.012922 -0.010738 0.006748
v 0.013170 -0.010745 0.006760
v 0.013390 -0.010628 0.006748
v 0.013521 -0.010420 0.006717
v 0.013530 -0.010175 0.006675
v 0.013413 -0.009960 0.006632
v 0.013203 -0.009832 0.006601
v 0.012955 -0.009825 0.006590
v 0.012735 -0.009941 0.006601
v 0.012604 -0.010150 0.006632
v 0.012595 -0.010394 0.006675
v 0.012672 -0.010495 0.006032
v 0.012787 -0.010709 0.006084
v 0.012994 -0.010833 0.006142
v 0.013238 -0.010834 0.006191
v 0.013453 -0.010712 0.006216
v 0.013581 -0.010499 0.006212
v 0.013589 -0.010253 0.006179
v 0.013473 -0.010039 0.006127
v 0.013266 -0.009915 0.006069
v 0.013022 -0.009914 0.006021
v 0.012808 -0.010036 0.005995
v 0.012679 -0.010249 0.005999
v 0.012672 -0.010495 0.006032
v 0.012846 -0.010570 0.005405
v 0.012959 -0.010783 0.005467
v 0.013159 -0.010904 0.005551
v 0.013393 -0.010900 0.005636
v 0.013597 -0.010774 0.005697
v 0.013718 -0.010558 0.005719
v 0.013723 -0.010311 0.005696
v 0.013611 -0.010098 0.005634
v 0.013411 -0.009977 0.005550
v 0.013177 -0.009981 0.005465
v 0.012972 -0.010107 0.005404
v 0.012851 -0.010323 0.005382
v 0.012846 -0.010570 0.005405
v 0.013115 -0.010617 0.004809
v 0.013223 -0.010829 0.004880
v 0.013412 -0.010948 0.004990
v 0.013630 -0.010942 0.005108
v 0.013820 -0.010813 0.005204
v 0.013929 -0.010595 0.005251
v 0.013930 -0.010347 0.005238
v 0.013822 -0.010135 0.005166
v 0.013633 -0.010016 0.005057
v 0.013415 -0.010022 0.004938
v 0.013225 -0.010152 0.004842
v 0.013116 -0.010369 0.004795
v 0.013115 -0.010617 0.004809
v 0.013471 -0.010636 0.004259
v 0.013574 -0.010847 0.004339
v 0.013748 -0.010965 0.004471
v 0.013945 -0.010958 0.004622
v 0.014114 -0.010828 0.004749
v 0.014209 -0.010610 0.004819
v 0.014204 -0.010361 0.004814
v 0.014101 -0.010150 0.004734
v 0.013928 -0.010032 0.004602
v 0.013730 -0.010039 0.004451
v 0.013561 -0.010169 0.004324
v 0.013466 -0.010387 0.004253
v 0.013471 -0.010636 0.004259
v 0.013905 -0.010625 0.003768
v 0.014002 -0.010836 0.003856
v 0.014157 -0.010955 0.004009
v 0.014330 -0.010949 0.004187
v 0.014474 -0.010819 0.004343
v 0.014550 -0.010601 0.004434
v 0.014539 -0.010353 0.004436
v 0.014443 -0.010141 0.004349
v 0.014287 -0.010022 0.004196
v 0.014114 -0.010029 0.004017
v 0.013970 -0.010158 0.003862
v 0.013894 -0.010376 0.003771
v 0.013905 -0.010625 0.003768
v 0.014408 -0.010584 0.003350
v 0.014496 -0.010797 0.003443
v 0.014631 -0.010917 0.003614
v 0.014774 -0.010913 0.003817
v 0.014890 -0.010786 0.003996
v 0.014945 -0.010569 0.004105
v 0.014926 -0.010322 0.004114
v 0.014837 -0.010109 0.004020
v 0.014703 -0.009989 0.003849
v 0.014559 -0.009993 0.003647
v 0.014444 -0.010120 0.003467
v 0.014389 -0.010337 0.003358
v 0.014408 -0.010584 0.003350
v 0.014966 -0.010516 0.003013
v 0.015046 -0.010729 0.003111
v 0.015156 -0.010852 0.003297
v 0.015268 -0.010852 0.003519
v 0.015351 -0.010729 0.003718
v 0.015383 -0.010515 0.003841
v 0.015355 -0.010269 0.003854
v 0.015275 -0.010055 0.003756
v 0.015165 -0.009932 0.003570
v 0.015053 -0.009932 0.003348
v 0.014970 -0.010056 0.003149
v 0.014938 -0.010269 0.003026
v 0.014966 -0.010516 0.003013
v 0.015565 -0.010421 0.002766
v 0.015636 -0.010636 0.002868
v 0.015721 -0.010763 0.003064
v 0.015799 -0.010768 0.003300
v 0.015847 -0.010650 0.003513
v 0.015854 -0.010441 0.003647
v 0.015817 -0.010196 0.003664
v 0.015746 -0.009981 0.003562
v 0.015661 -0.009854 0.003366
v 0.015583 -0.009848 0.003130
v 0.015535 -0.009966 0.002917
v 0.015528 -0.010176 0.002783
v 0.015565 -0.010421 0.002766
v 0.016192 -0.010302 0.002615
v 0.016253 -0.010519 0.002720
v 0.016312 -0.010651 0.002922
v 0.016353 -0.010663 0.003167
v 0.016366 -0.010552 0.003389
v 0.016346 -0.010347 0.003528
v 0.016300 -0.010104 0.003548
v 0.016238 -0.009887 0.003443
v 0.016179 -0.009755 0.003241
v 0.016138 -0.009743 0.002997
v 0.016125 -0.009854 0.002775
v 0.016145 -0.010059 0.002635
v 0.016192 -0.010302 0.002615
v 0.016830 -0.010162 0.002565
v 0.016881 -0.010381 0.002670
v 0.016913 -0.010519 0.002874
v 0.016918 -0.010539 0.003122
v 0.016894 -0.010436 0.003347
v 0.016847 -0.010237 0.003489
v 0.016791 -0.009996 0.003509
v 0.016740 -0.009777 0.003404
v 0.016707 -0.009639 0.003200
v 0.016703 -0.009619 0.002952
v 0.016727 -0.009722 0.002727
v 0.016773 -0.009921 0.002585
v 0.016830 -0.010162 0.002565
v 0.017464 -0.010004 0.002615
v 0.017505 -0.010225 0.002720
v 0.017511 -0.010370 0.002922
v 0.017479 -0.010399 0.003167
v 0.017419 -0.010305 0.003389
v 0.017345 -0.010113 0.003528
v 0.017279 -0.009875 0.003548
v 0.017238 -0.009653 0.003443
v 0.017232 -0.009509 0.003241
v 0.017264 -0.009479 0.002997
v 0.017324 -0.009573 0.002775
v 0.017398 -0.009765 0.002635
v 0.017464 -0.010004 0.002615
v 0.018078 -0.009832 0.002766
v 0.018110 -0.010056 0.002868
v 0.018090 -0.010208 0.003064
v 0.018023 -0.010247 0.003300
v 0.017927 -0.010163 0.003513
v 0.017828 -0.009978 0.003647
v 0.017752 -0.009742 0.003664
v 0.017720 -0.009518 0.003562
v 0.017740 -0.009367 0.003366
v 0.017807 -0.009327 0.003130
v 0.017903 -0.009411 0.002917
v 0.018002 -0.009596 0.002783
v 0.018078 -0.009832 0.002766
v 0.018657 -0.009651 0.003013
v 0.018680 -0.009878 0.003111
v 0.018636 -0.010037 0.003297
v 0.018536 -0.010087 0.003519
v 0.018406 -0.010013 0.003718
v 0.018283 -0.009836 0.003841
v 0.018198 -0.009603 0.003854
v 0.018175 -0.009376 0.003756
v 0.018220 -0.009216 0.003570
v 0.018320 -0.009167 0.003348
v 0.018449 -0.009240 0.003149
v 0.018573 -0.009418 0.003026
v 0.018657 -0.009651 0.003013
v 0.019187 -0.009464 0.003350
v 0.019202 -0.009694 0.003443
v 0.019136 -0.009861 0.003614
v 0.019005 -0.009922 0.003817
v 0.018845 -0.009859 0.003996
v 0.018699 -0.009689 0.004105
v 0.018607 -0.009459 0.004114
v 0.018592 -0.009229 0.004020
v 0.018659 -0.009062 0.003849
v 0.018789 -0.009002 0.003647
v 0.018949 -0.009065 0.003467
v 0.019095 -0.009234 0.003358
v 0.019187 -0.009464 0.003350
v 0.019655 -0.009277 0.003768
v 0.019663 -0.009510 0.003856
v 0.019577 -0.009685 0.004009
v 0.019419 -0.009756 0.004187
v 0.019232 -0.009704 0.004343
v 0.019067 -0.009542 0.004434
v 0.018967 -0.009315 0.004436
v 0.018959 -0.009082 0.004349
v 0.019046 -0.008907 0.004196
v 0.019203 -0.008836 0.004017
v 0.019390 -0.008888 0.003862
v 0.019555 -0.009050 0.003771
v 0.019655 -0.009277 0.003768
v 0.020050 -0.009094 0.004259
v 0.020051 -0.009329 0.004339
v 0.019948 -0.009512 0.004471
v 0.019768 -0.009594 0.004622
v 0.019559 -0.009552 0.004749
v 0.019377 -0.009399 0.004819
v 0.019271 -0.009174 0.004814
v 0.019269 -0.008939 0.004734
v 0.019372 -0.008756 0.004602
v 0.019552 -0.008674 0.004451
v 0.019762 -0.008716 0.004324
v 0.019944 -0.008870 0.004253
v 0.020050 -0.009094 0.004259
v 0.020360 -0.008920 0.004809
v 0.020357 -0.009158 0.004880
v 0.020241 -0.009348 0.004990
v 0.020043 -0.009440 0.005108
v 0.019816 -0.009408 0.005204
v 0.019621 -0.009262 0.005251
v 0.019510 -0.009040 0.005238
v 0.019513 -0.008802 0.005166
v 0.019629 -0.008611 0.005057
v 0.019827 -0.008520 0.004938
v 0.020054 -0.008551 0.004842
v 0.020250 -0.008698 0.004795
v 0.020360 -0.008920 0.004809
v 0.020580 -0.008758 0.005405
v 0.020574 -0.008999 0.005467
v 0.020448 -0.009196 0.005551
v 0.020237 -0.009297 0.005636
v 0.019998 -0.009274 0.005697
v 0.019793 -0.009135 0.005719
v 0.019679 -0.008915 0.005696
v 0.019686 -0.008675 0.005634
v 0.019811 -0.008478 0.005550
v 0.020022 -0.008377 0.005465
v 0.020261 -0.008399 0.005404
v 0.020466 -0.008539 0.005382
v 0.020580 -0.008758 0.005405
v 0.020703 -0.008613 0.006032
v 0.020695 -0.008856 0.006084
v 0.020564 -0.009059 0.006142
v 0.020346 -0.009168 0.006191
v 0.020100 -0.009154 0.006216
v 0.019890 -0.009021 0.006212
v 0.019774 -0.008804 0.006179
v 0.019782 -0.008561 0.006127
v 0.019913 -0.008358 0.006069
v 0.020131 -0.008249 0.006021
v 0.020378 -0.008263 0.005995
v 0.020587 -0.008396 0.005999
v 0.020703 -0.008613 0.006032
v 0.020727 -0.008489 0.006675
v 0.020718 -0.008733 0.006717
v 0.020587 -0.008942 0.006748
v 0.020367 -0.009058 0.006760
v 0.020119 -0.009051 0.006748
v 0.019909 -0.008923 0.006717
v 0.019792 -0.008708 0.006675
v 0.019801 -0.008463 0.006632
v 0.019933 -0.008255 0.006601
v 0.020152 -0.008138 0.006590
v 0.020400 -0.008145 0.006601
v 0.020610 -0.008274 0.006632
v 0.020727 -0.008489 0.006675
v 0.020650 -0.008388 0.007318
v 0.020643 -0.008634 0.007350
v 0.020514 -0.008847 0.007354
v 0.020300 -0.008969 0.007329
v 0.020056 -0.008968 0.007280
v 0.019849 -0.008844 0.007222
v 0.019733 -0.008630 0.007170
v 0.019741 -0.008384 0.007137
v 0.019869 -0.008171 0.007133
v 0.020084 -0.008049 0.007159
v 0.020328 -0.008050 0.007207
v 0.020535 -0.008174 0.007265
v 0.020650 -0.008388 0.007318
v 0.020476 -0.008313 0.007945
v 0.020471 -0.008560 0.007968
v 0.020350 -0.008776 0.007945
v 0.020145 -0.008903 0.007884
v 0.019911 -0.008906 0.007799
v 0.019711 -0.008785 0.007715
v 0.019599 -0.008572 0.007653
v 0.019604 -0.008325 0.007630
v 0.019725 -0.008109 0.007652
v 0.019929 -0.007983 0.007714
v 0.020163 -0.007979 0.007798
v 0.020363 -0.008100 0.007883
v 0.020476 -0.008313 0.007945
v 0.020207 -0.008266 0.008540
v 0.020206 -0.008514 0.008554
v 0.020097 -0.008732 0.008507
v 0.019907 -0.008861 0.008411
v 0.019689 -0.008867 0.008292
v 0.019500 -0.008748 0.008183
v 0.019392 -0.008536 0.008112
v 0.019393 -0.008288 0.008098
v 0.019502 -0.008070 0.008145
v 0.019692 -0.007941 0.008241
v 0.019910 -0.007935 0.008360
v 0.020099 -0.008054 0.008469
v 0.020207 -0.008266 0.008540
v 0.019851 -0.008247 0.009090
v 0.019856 -0.008496 0.009096
v 0.019761 -0.008714 0.009025
v 0.019592 -0.008845 0.008898
v 0.019394 -0.008852 0.008747
v 0.019221 -0.008734 0.008615
v 0.019118 -0.008522 0.008535
v 0.019113 -0.008274 0.008530
v 0.019208 -0.008055 0.008600
v 0.019377 -0.007925 0.008728
v 0.019574 -0.007918 0.008878
v 0.019748 -0.008036 0.009011
v 0.019851 -0.008247 0.009090
v 0.019417 -0.008259 0.009581
v 0.019428 -0.008507 0.009579
v 0.019352 -0.008725 0.009487
v 0.019208 -0.008854 0.009332
v 0.019035 -0.008861 0.009153
v 0.018880 -0.008742 0.009000
v 0.018783 -0.008531 0.008913
v 0.018772 -0.008282 0.008915
v 0.018848 -0.008064 0.009006
v 0.018992 -0.007935 0.009162
v 0.019165 -0.007928 0.009340
v 0.019320 -0.008047 0.009493
v 0.019417 -0.008259 0.009581
v 0.018914 -0.008299 0.010000
v 0.018934 -0.008546 0.009991
v 0.018878 -0.008763 0.009882
v 0.018763 -0.008890 0.009702
v 0.018619 -0.008894 0.009500
v 0.018485 -0.008774 0.009329
v 0.018396 -0.008562 0.009235
v 0.018377 -0.008314 0.009244
v 0.018432 -0.008098 0.009353
v 0.018548 -0.007970 0.009532
v 0.018691 -0.007966 0.009735
v 0.018826 -0.008086 0.009906
v 0.018914 -0.008299 0.010000
v 0.018357 -0.008367 0.010337
v 0.018384 -0.008614 0.010323
v 0.018352 -0.008827 0.010200
v 0.018269 -0.008951 0.010001
v 0.018158 -0.008951 0.009779
v 0.018047 -0.008828 0.009594
v 0.017967 -0.008614 0.009495
v 0.017939 -0.008368 0.009509
v 0.017971 -0.008154 0.009632
v 0.018054 -0.008031 0.009831
v 0.018166 -0.008031 0.010052
v 0.018277 -0.008154 0.010238
v 0.018357 -0.008367 0.010337
v 0.017757 -0.008462 0.010583
v 0.017794 -0.008707 0.010566
v 0.017787 -0.008917 0.010432
v 0.017739 -0.009035 0.010219
v 0.017661 -0.009029 0.009983
v 0.017576 -0.008902 0.009788
v 0.017505 -0.008687 0.009685
v 0.017468 -0.008442 0.009702
v 0.017475 -0.008233 0.009836
v 0.017523 -0.008115 0.010049
v 0.017601 -0.008120 0.010285
v 0.017686 -0.008247 0.010481
v 0.017757 -0.008462 0.010583
v 0.017130 -0.008581 0.010734
v 0.017177 -0.008824 0.010714
v 0.017197 -0.009029 0.010574
v 0.017184 -0.009140 0.010352
v 0.017143 -0.009128 0.010108
v 0.017084 -0.008996 0.009906
v 0.017022 -0.008779 0.009801
v 0.016976 -0.008536 0.009821
v 0.016956 -0.008331 0.009960
v 0.016969 -0.008220 0.010182
v 0.017010 -0.008232 0.010427
v 0.017069 -0.008364 0.010629
v 0.017130 -0.008581 0.010734
v 0.016492 -0.008721 0.010785
v 0.016549 -0.008962 0.010764
v 0.016595 -0.009161 0.010622
v 0.016619 -0.009264 0.010397
v 0.016615 -0.009244 0.010150
v 0.016582 -0.009106 0.009946
v 0.016531 -0.008887 0.009840
v 0.016475 -0.008646 0.009860
v 0.016428 -0.008447 0.010002
v 0.016404 -0.008344 0.010227
v 0.016409 -0.008364 0.010475
v 0.016441 -0.008502 0.010679
v 0.016492 -0.008721 0.010785
v 0.015858 -0.008879 0.010734
v 0.015925 -0.009118 0.010714
v 0.015998 -0.009310 0.010574
v 0.016058 -0.009404 0.010352
v 0.016090 -0.009374 0.010108
v 0.016084 -0.009230 0.009906
v 0.016043 -0.009008 0.009801
v 0.015977 -0.008770 0.009821
v 0.015903 -0.008578 0.009960
v 0.015843 -0.008484 0.010182
v 0.015811 -0.008513 0.010427
v 0.015817 -0.008658 0.010629
v 0.015858 -0.008879 0.010734
v 0.015244 -0.009051 0.010583
v 0.015320 -0.009287 0.010566
v 0.015419 -0.009472 0.010432
v 0.015515 -0.009556 0.010219
v 0.015582 -0.009517 0.009983
v 0.015602 -0.009365 0.009788
v 0.015570 -0.009141 0.009685
v 0.015494 -0.008905 0.009702
v 0.015395 -0.008720 0.009836
v 0.015299 -0.008636 0.010049
v 0.015232 -0.008675 0.010285
v 0.015212 -0.008827 0.010481
v 0.015244 -0.009051 0.010583
v 0.014665 -0.009232 0.010337
v 0.014749 -0.009466 0.010323
v 0.014873 -0.009643 0.010200
v 0.015002 -0.009716 0.010001
v 0.015102 -0.009667 0.009779
v 0.015147 -0.009507 0.009594
v 0.015124 -0.009280 0.009495
v 0.015039 -0.009047 0.009509
v 0.014916 -0.008870 0.009632
v 0.014786 -0.008796 0.009831
v 0.014686 -0.008846 0.010052
v 0.014642 -0.009006 0.010238
v 0.014665 -0.009232 0.010337
v 0.014135 -0.009419 0.010000
v 0.014227 -0.009649 0.009991
v 0.014373 -0.009818 0.009882
v 0.014533 -0.009881 0.009702
v 0.014664 -0.009821 0.009500
v 0.014730 -0.009654 0.009329
v 0.014715 -0.009424 0.009235
v 0.014623 -0.009194 0.009244
v 0.014477 -0.009024 0.009353
v 0.014317 -0.008962 0.009532
v 0.014186 -0.009022 0.009735
v 0.014120 -0.009189 0.009906
v 0.014135 -0.009419 0.010000
v 0.013667 -0.009606 0.009581
v 0.013767 -0.009833 0.009579
v 0.013932 -0.009995 0.009487
v 0.014119 -0.010047 0.009332
v 0.014276 -0.009976 0.009153
v 0.014363 -0.009801 0.009000
v 0.014355 -0.009568 0.008913
v 0.014255 -0.009341 0.008915
v 0.014090 -0.009179 0.009006
v 0.013903 -0.009127 0.009162
v 0.013745 -0.009198 0.009340
v 0.013659 -0.009373 0.009493
v 0.013667 -0.009606 0.009581
v 0.013272 -0.009789 0.009090
v 0.013379 -0.010014 0.009096
v 0.013561 -0.010167 0.009025
v 0.013770 -0.010209 0.008898
v 0.013950 -0.010127 0.008747
v 0.014053 -0.009944 0.008615
v 0.014051 -0.009709 0.008535
v 0.013945 -0.009484 0.008530
v 0.013763 -0.009331 0.008600
v 0.013554 -0.009289 0.008728
v 0.013374 -0.009371 0.008878
v 0.013271 -0.009554 0.009011
v 0.013272 -0.009789 0.009090
v 0.012962 -0.009963 0.008540
v 0.013073 -0.010185 0.008554
v 0.013268 -0.010332 0.008507
v 0.013495 -0.010363 0.008411
v 0.013693 -0.010272 0.008292
v 0.013809 -0.010082 0.008183
v 0.013812 -0.009843 0.008112
v 0.013701 -0.009622 0.008098
v 0.013506 -0.009475 0.008145
v 0.013279 -0.009444 0.008241
v 0.013081 -0.009535 0.008360
v 0.012965 -0.009725 0.008469
v 0.012962 -0.009963 0.008540
v 0.012742 -0.010125 0.007945
v 0.012856 -0.010345 0.007968
v 0.013061 -0.010484 0.007945
v 0.013300 -0.010506 0.007884
v 0.013511 -0.010406 0.007799
v 0.013636 -0.010208 0.007715
v 0.013643 -0.009968 0.007653
v 0.013529 -0.009749 0.007630
v 0.013324 -0.009609 0.007652
v 0.013085 -0.009587 0.007714
v 0.012874 -0.009687 0.007798
v 0.012748 -0.009885 0.007883
v 0.012742 -0.010125 0.007945
v 0.012619 -0.010270 0.007318
v 0.012735 -0.010487 0.007350
v 0.012944 -0.010621 0.007354
v 0.013191 -0.010635 0.007329
v 0.013409 -0.010525 0.007280
v 0.013540 -0.010322 0.007222
v 0.013548 -0.010079 0.007170
v 0.013432 -0.009862 0.007137
v 0.013222 -0.009729 0.007133
v 0.012976 -0.009715 0.007159
v 0.012758 -0.009824 0.007207
v 0.012627 -0.010027 0.007265
v 0.012619 -0.010270 0.007318
v 0.012595 -0.010394 0.006675
v 0.012712 -0.010610 0.006717
v 0.012922 -0.010738 0.006748
v 0.013170 -0.010745 0.006760
v 0.013390 -0.010628 0.006748
v 0.013521 -0.010420 0.006717
v 0.013530 -0.010175 0.006675
v 0.013413 -0.009960 0.006632
v 0.013203 -0.009832 0.006601
v 0.012955 -0.009825 0.006590
v 0.012735 -0.009941 0.006601
v 0.012604 -0.010150 0.006632
v 0.012595 -0.010394 0.006675
vt 0.00000 0.00000
vt 0.00000 0.08333
vt 0.00000 0.16667
vt 0.00000 0.25000
vt 0.00000 0.33333
vt 0.00000 0.41667
vt 0.00000 0.50000
vt 0.00000 0.58333
vt 0.00000 0.66667
vt 0.00000 0.75000
vt 0.00000 0.83333
vt 0.00000 0.91667
vt 0.00000 1.00000
vt 0.02500 0.00000
vt 0.02500 0.08333
vt 0.02500 0.16667
vt 0.02500 0.25000
vt 0.02500 0.33333
vt 0.02500 0.41667
vt 0.02500 0.50000
vt 0.02500 0.58333
vt 0.02500 0.66667
vt 0.02500 0.75000
vt 0.02500 0.83333
vt 0.02500 0.91667
vt 0.02500 1.00000
vt 0.05000 0.00000
vt 0.05000 0.08333
vt 0.05000 0.16667
vt 0.05000 0.25000
vt 0.05000 0.33333
vt 0.05000 0.41667
vt 0.05000 0.50000
vt 0.05000 0.58333
vt 0.05000 0.66667
vt 0.05000 0.75000
vt 0.05000 0.83333
vt 0.05000 0.91667
vt 0.05000 1.00000
vt 0.07500 0.00000
vt 0.07500 0.08333
vt 0.07500 0.16667
vt 0.07500 0.25000
vt 0.07500 0.33333
vt 0.07500 0.41667
vt 0.07500 0.50000
vt 0.07500 0.58333
vt 0.07500 0.66667
vt 0.07500 0.75000
vt 0.07500 0.83333
vt 0.07500 0.91667
vt 0.07500 1.00000
vt 0.10000 0.00000
vt 0.10000 0.08333
vt 0.10000 0.16667
vt 0.10000 0.25000
vt 0.10000 0.33333
vt 0.10000 0.41667
vt 0.10000 0.50000
vt 0.10000 0.58333
vt 0.10000 0.66667
vt 0.10000 0.75000
vt 0.10000 0.83333
vt 0.10000 0.91667
vt 0.10000 1.00000
vt 0.12500 0.00000
vt 0.12500 0.08333
vt 0.12500 0.16667
vt 0.12500 0.25000
vt 0.12500 0.33333
vt 0.12500 0.41667
vt 0.12500 0.50000
vt 0.12500 0.58333
vt 0.12500 0.66667
vt 0.12500 0.75000
vt 0.12500 0.83333
vt 0.12500 0.91667
vt 0.12500 1.00000
vt 0.15000 0.00000
vt 0.15000 0.08333
vt 0.15000 0.16667
vt 0.15000 0.25000
vt 0.15000 0.33333
vt 0.15000 0.41667
vt 0.15000 0.50000
vt 0.15000 0.58333
vt 0.15000 0.66667
vt 0.15000 0.75000
vt 0.15000 0.83333
vt 0.15000 0.91667
vt 0.15000 1.00000
vt 0.17500 0.00000
vt 0.17500 0.08333
vt 0.17500 0.16667
vt 0.17500 0.25000
vt 0.17500 0.33333
vt 0.17500 0.41667
vt 0.17500 0.50000
vt 0.17500 0.58333
vt 0.17500 0.66667
vt 0.17500 0.75000
vt 0.17500 0.83333
vt 0.17500 0.91667
vt 0.17500 1.00000
vt 0.20000 0.00000
vt 0.20000 0.08333
vt 0.20000 0.16667
vt 0.20000 0.25000
vt 0.20000 0.33333
vt 0.20000 0.41667
vt 0.20000 0.50000
vt 0.20000 0.58333
vt 0.20000 0.66667
vt 0.20000 0.75000
vt 0.20000 0.83333
vt 0.20000 0.91667
vt 0.20000 1.00000
vt 0.22500 0.00000
vt 0.22500 0.08333
vt 0.22500 0.16667
vt 0.22500 0.25000
vt 0.22500 0.33333
vt 0.22500 0.41667
vt 0.22500 0.50000
vt 0.22500 0.58333
vt 0.22500 0.66667
vt 0.22500 0.75000
vt 0.22500 0.83333
vt 0.22500 0.91667
vt 0.22500 1.00000
vt 0.25000 0.00000
vt 0.25000 0.08333
vt 0.25000 0.16667
vt 0.25000 0.25000
vt 0.25000 0.33333
vt 0.25000 0.41667
vt 0.25000 0.50000
vt 0.25000 0.58333
vt 0.25000 0.66667
vt 0.25000 0.75000
vt 0.25000 0.83333
vt 0.25000 0.91667
vt 0.25000 1.00000
vt 0.27500 0.00000
vt 0.27500 0.08333
vt 0.27500 0.16667
vt 0.27500 0.25000
vt 0.27500 0.33333
vt 0.27500 0.41667
vt 0.27500 0.50000
vt 0.27500 0.58333
vt 0.27500 0.66667
vt 0.27500 0.75000
vt 0.27500 0.83333
vt 0.27500 0.91667
vt 0.27500 1.00000
vt 0.30000 0.00000
vt 0.30000 0.08333
vt 0.30000 0.16667
vt 0.30000 0.25000
vt 0.30000 0.33333
vt 0.30000 0.41667
vt 0.30000 0.50000
vt 0.30000 0.58333
vt 0.30000 0.66667
vt 0.30000 0.75000
vt 0.30000 0.83333
vt 0.30000 0.91667
vt 0.30000 1.00000
vt 0.32500 0.00000
vt 0.32500 0.08333
vt 0.32500 0.16667
vt 0.32500 0.25000
vt 0.32500 0.33333
vt 0.32500 0.41667
vt 0.32500 0.50000
vt 0.32500 0.58333
vt 0.32500 0.66667
vt 0.32500 0.75000
vt 0.32500 0.83333
vt 0.32500 0.91667
vt 0.32500 1.00000
vt 0.35000 0.00000
vt 0.35000 0.08333
vt 0.35000 0.16667
vt 0.35000 0.25000
vt 0.35000 0.33333
vt 0.35000 0.41667
vt 0.35000 0.50000
vt 0.35000 0.58333
vt 0.35000 0.66667
vt 0.35000 0.75000
vt 0.35000 0.83333
vt 0.35000 0.91667
vt 0.35000 1.00000
vt 0.37500 0.00000
vt 0.37500 0.08333
vt 0.37500 0.16667
vt 0.37500 0.25000
vt 0.37500 0.33333
vt 0.37500 0.41667
vt 0.37500 0.50000
vt 0.37500 0.58333
vt 0.37500 0.66667
vt 0.37500 0.75000
vt 0.37500 0.83333
vt 0.37500 0.91667
vt 0.37500 1.00000
vt 0.40000 0.00000
vt 0.40000 0.08333
vt 0.40000 0.16667
vt 0.40000 0.25000
vt 0.40000 0.33333
vt 0.40000 0.41667
vt 0.40000 0.50000
vt 0.40000 0.58333
vt 0.40000 0.66667
vt 0.40000 0.75000
vt 0.40000 0.83333
vt 0.40000 0.91667
vt 0.40000 1.00000
vt 0.42500 0.00000
vt 0.42500 0.08333
vt 0.42500 0.16667
vt 0.42500 0.25000
vt 0.42500 0.33333
vt 0.42500 0.41667
vt 0.42500 0.50000
vt 0.42500 0.58333
vt 0.42500 0.66667
vt 0.42500 0.75000
vt 0.42500 0.83333
vt 0.42500 0.91667
vt 0.42500 1.00000
vt 0.45000 0.00000
vt 0.45000 0.08333
vt 0.45000 0.16667
vt 0.45000 0.25000
vt 0.45000 0.33333
vt 0.45000 0.41667
vt 0.45000 0.50000
vt 0.45000 0.58333
vt 0.45000 0.66667
vt 0.45000 0.75000
vt 0.45000 0.83333
vt 0.45000 0.91667
vt 0.45000 1.00000
vt 0.47500 0.00000
vt 0.47500 0.08333
vt 0.47500 0.16667
vt 0.47500 0.25000
vt 0.47500 0.33333
vt 0.47500 0.41667
vt 0.47500 0.50000
vt 0.47500 0.58333
vt 0.47500 0.66667
vt 0.47500 0.75000
vt 0.47500 0.83333
vt 0.47500 0.91667
vt 0.47500 1.00000
vt 0.50000 0.00000
vt 0.50000 0.08333
vt 0.50000 0.16667
vt 0.50000 0.25000
vt 0.50000 0.33333
vt 0.50000 0.41667
vt 0.50000 0.50000
vt 0.50000 0.58333
vt 0.50000 0.66667
vt 0.50000 0.75000
vt 0.50000 0.83333
vt 0.50000 0.91667
vt 0.50000 1.00000
vt 0.52500 0.00000
vt 0.52500 0.08333
vt 0.52500 0.16667
vt 0.52500 0.25000
vt 0.52500 0.33333
vt 0.52500 0.41667
vt 0.52500 0.50000
vt 0.52500 0.58333
vt 0.52500 0.66667
vt 0.52500 0.75000
vt 0.52500 0.83333
vt 0.52500 0.91667
vt 0.52500 1.00000
vt 0.55000 0.00000
vt 0.55000 0.08333
vt 0.55000 0.16667
vt 0.55000 0.25000
vt 0.55000 0.33333
vt 0.55000 0.41667
vt 0.55000 0.50000
vt 0.55000 0.58333
vt 0.55000 0.66667
vt 0.55000 0.75000
vt 0.55000 0.83333
vt 0.55000 0.91667
vt 0.55000 1.00000
vt 0.57500 0.00000
vt 0.57500 0.08333
vt 0.57500 0.16667
vt 0.57500 0.25000
vt 0.57500 0.33333
vt 0.57500 0.41667
vt 0.57500 0.50000
vt 0.57500 0.58333
vt 0.57500 0.66667
vt 0.57500 0.75000
vt 0.57500 0.83333
vt 0.57500 0.91667
vt 0.57500 1.00000
vt 0.60000 0.00000
vt 0.60000 0.08333
vt 0.60000 0.16667
vt 0.60000 0.25000
vt 0.60000 0.33333
vt 0.60000 0.41667
vt 0.60000 0.50000
vt 0.60000 0.58333
vt 0.60000 0.66667
vt 0.60000 0.75000
vt 0.60000 0.83333
vt 0.60000 0.91667
vt 0.60000 1.00000
vt 0.62500 0.00000
vt 0.62500 0.08333
vt 0.62500 0.16667
vt 0.62500 0.25000
vt 0.62500 0.33333
vt 0.62500 0.41667
vt 0.62500 0.50000
vt 0.62500 0.58333
vt 0.62500 0.66667
vt 0.62500 0.75000
vt 0.62500 0.83333
vt 0.62500 0.91667
vt 0.62500 1.00000
vt 0.65000 0.00000
vt 0.65000 0.08333
vt 0.65000 0.16667
vt 0.65000 0.25000
vt 0.65000 0.33333
vt 0.65000 0.41667
vt 0.65000 0.50000
vt 0.65000 0.58333
vt 0.65000 0.66667
vt 0.65000 0.75000
vt 0.65000 0.83333
vt 0.65000 0.91667
vt 0.65000 1.00000
vt 0.67500 0.00000
vt 0.67500 0.08333
vt 0.67500 0.16667
vt 0.67500 0.25000
vt 0.67500 0.33333
vt 0.67500 0.41667
vt 0.67500 0.50000
vt 0.67500 0.58333
vt 0.67500 0.66667
vt 0.67500 0.75000
vt 0.67500 0.83333
vt 0.67500 0.91667
vt 0.67500 1.00000
vt 0.70000 0.00000
vt 0.70000 0.08333
vt 0.70000 0.16667
vt 0.70000 0.25000
vt 0.70000 0.33333
vt 0.70000 0.41667
vt 0.70000 0.50000
vt 0.70000 0.58333
vt 0.70000 0.66667
vt 0.70000 0.75000
vt 0.70000 0.83333
vt 0.70000 0.91667
vt 0.70000 1.00000
vt 0.72500 0.00000
vt 0.72500 0.08333
vt 0.72500 0.16667
vt 0.72500 0.25000
vt 0.72500 0.33333
vt 0.72500 0.41667
vt 0.72500 0.50000
vt 0.72500 0.58333
vt 0.72500 0.66667
vt 0.72500 0.75000
vt 0.72500 0.83333
vt 0.72500 0.91667
vt 0.72500 1.00000
vt 0.75000 0.00000
vt 0.75000 0.08333
vt 0.75000 0.16667
vt 0.75000 0.25000
vt 0.75000 0.33333
vt 0.75000 0.41667
vt 0.75000 0.50000
vt 0.75000 0.58333
vt 0.75000 0.66667
vt 0.75000 0.75000
vt 0.75000 0.83333
vt 0.75000 0.91667
vt 0.75000 1.00000
vt 0.77500 0.00000
vt 0.77500 0.08333
vt 0.77500 0.16667
vt 0.77500 0.25000
vt 0.77500 0.33333
vt 0.77500 0.41667
vt 0.77500 0.50000
vt 0.77500 0.58333
vt 0.77500 0.66667
vt 0.77500 0.75000
vt 0.77500 0.83333
vt 0.77500 0.91667
vt 0.77500 1.00000
vt 0.80000 0.00000
vt 0.80000 0.08333
vt 0.80000 0.16667
vt 0.80000 0.25000
vt 0.80000 0.33333
vt 0.80000 0.41667
vt 0.80000 0.50000
vt 0.80000 0.58333
vt 0.80000 0.66667
vt 0.80000 0.75000
vt 0.80000 0.83333
vt 0.80000 0.91667
vt 0.80000 1.00000
vt 0.82500 0.00000
vt 0.82500 0.08333
vt 0.82500 0.16667
vt 0.82500 0.25000
vt 0.82500 0.33333
vt 0.82500 0.41667
vt 0.82500 0.50000
vt 0.82500 0.58333
vt 0.82500 0.66667
vt 0.82500 0.75000
vt 0.82500 0.83333
vt 0.82500 0.91667
vt 0.82500 1.00000
vt 0.85000 0.00000
vt 0.85000 0.08333
vt 0.85000 0.16667
vt 0.85000 0.25000
vt 0.85000 0.33333
vt 0.85000 0.41667
vt 0.85000 0.50000
vt 0.85000 0.58333
vt 0.85000 0.66667
vt 0.85000 0.75000
vt 0.85000 0.83333
vt 0.85000 0.91667
vt 0.85000 1.00000
vt 0.87500 0.00000
vt 0.87500 0.08333
vt 0.87500 0.16667
vt 0.87500 0.25000
vt 0.87500 0.33333
vt 0.87500 0.41667
vt 0.87500 0.50000
vt 0.87500 0.58333
vt 0.87500 0.66667
vt 0.87500 0.75000
vt 0.87500 0.83333
vt 0.87500 0.91667
vt 0.87500 1.00000
vt 0.90000 0.00000
vt 0.90000 0.08333
vt 0.90000 0.16667
vt 0.90000 0.25000
vt 0.90000 0.33333
vt 0.90000 0.41667
vt 0.90000 0.50000
vt 0.90000 0.58333
vt 0.90000 0.66667
vt 0.90000 0.75000
vt 0.90000 0.83333
vt 0.90000 0.91667
vt 0.90000 1.00000
vt 0.92500 0.00000
vt 0.92500 0.08333
vt 0.92500 0.16667
vt 0.92500 0.25000
vt 0.92500 0.33333
vt 0.92500 0.41667
vt 0.92500 0.50000
vt 0.92500 0.58333
vt 0.92500 0.66667
vt 0.92500 0.75000
vt 0.92500 0.83333
vt 0.92500 0.91667
vt 0.92500 1.00000
vt 0.95000 0.00000
vt 0.95000 0.08333
vt 0.95000 0.16667
vt 0.95000 0.25000
vt 0.95000 0.33333
vt 0.95000 0.41667
vt 0.95000 0.50000
vt 0.95000 0.58333
vt 0.95000 0.66667
vt 0.95000 0.75000
vt 0.95000 0.83333
vt 0.95000 0.91667
vt 0.95000 1.00000
vt 0.97500 0.00000
vt 0.97500 0.08333
vt 0.97500 0.16667
vt 0.97500 0.25000
vt 0.97500 0.33333
vt 0.97500 0.41667
vt 0.97500 0.50000
vt 0.97500 0.58333
vt 0.97500 0.66667
vt 0.97500 0.75000
vt 0.97500 0.83333
vt 0.97500 0.91667
vt 0.97500 1.00000
vt 1.00000 0.00000
vt 1.00000 0.08333
vt 1.00000 0.16667
vt 1.00000 0.25000
vt 1.00000 0.33333
vt 1.00000 0.41667
vt 1.00000 0.50000
vt 1.00000 0.58333
vt 1.00000 0.66667
vt 1.00000 0.75000
vt 1.00000 0.83333
vt 1.00000 0.91667
vt 1.00000 1.00000
vn -0.87673 -0.48011 -0.02888
vn -0.66532 -0.74559 0.03794
vn -0.20833 -0.96972 0.12748
vn 0.30626 -0.93417 0.18310
vn 0.73898 -0.64656 0.18940
vn 0.97208 -0.18479 0.14462
vn 0.94337 0.32610 0.06099
vn 0.66114 0.74925 -0.03901
vn 0.20084 0.97115 -0.12859
vn -0.31352 0.93167 -0.18357
vn -0.74272 0.64232 -0.18918
vn -0.97250 0.18277 -0.14435
vn -0.99263 0.01448 -0.12032
vn -0.85956 -0.49495 -0.12720
vn -0.71761 -0.69522 -0.04133
vn -0.28893 -0.95384 0.08195
vn 0.21764 -0.95870 0.18309
vn 0.66724 -0.70669 0.23534
vn 0.93814 -0.26334 0.22481
vn 0.95532 0.25232 0.15396
vn 0.71339 0.69954 0.04136
vn 0.27919 0.95666 -0.08281
vn -0.22872 0.95578 -0.18487
vn -0.67418 0.69946 -0.23716
vn -0.93953 0.25753 -0.22574
vn -0.98539 0.00766 -0.17013
vn -0.81548 -0.51126 -0.27130
vn -0.68194 -0.71097 -0.17172
vn -0.26884 -0.96317 0.00601
vn 0.21685 -0.95910 0.18196
vn 0.64573 -0.69801 0.30954
vn 0.90158 -0.24792 0.35451
vn 0.91348 0.27028 0.30413
vn 0.67764 0.71518 0.17126
vn 0.25925 0.96577 -0.00824
vn -0.22744 0.95596 -0.18549
vn -0.65210 0.69068 -0.31262
vn -0.90264 0.24213 -0.35584
vn -0.94868 -0.01071 -0.31604
vn -0.74989 -0.52109 -0.40760
vn -0.62672 -0.72095 -0.29572
vn -0.23735 -0.96916 -0.06631
vn 0.21624 -0.95947 0.18072
vn 0.61313 -0.69264 0.37990
vn 0.84560 -0.23827 0.47769
vn 0.84916 0.28158 0.44681
vn 0.62241 0.72507 0.29475
vn 0.22813 0.97161 0.06276
vn -0.22609 0.95620 -0.18590
vn -0.61873 0.68528 -0.38414
vn -0.84627 0.23250 -0.47934
vn -0.89005 -0.02272 -0.45530
vn -0.66440 -0.52419 -0.53273
vn -0.55332 -0.72493 -0.41026
vn -0.19524 -0.97166 -0.13324
vn 0.21585 -0.95981 0.17939
vn 0.57023 -0.69071 0.44469
vn 0.77158 -0.23461 0.59129
vn 0.76392 0.28596 0.57849
vn 0.54908 0.72897 0.40880
vn 0.18659 0.97401 0.12841
vn -0.22471 0.95649 -0.18610
vn -0.57491 0.68337 -0.44997
vn -0.77182 0.22890 -0.59321
vn -0.81093 -0.02806 -0.58448
vn -0.56112 -0.52049 -0.64361
vn -0.46355 -0.72280 -0.51253
vn -0.14355 -0.97062 -0.19311
vn 0.21566 -0.96011 0.17800
vn 0.51809 -0.69228 0.50233
vn 0.68134 -0.23704 0.69252
vn 0.65988 0.28329 0.69592
vn 0.45945 0.72678 0.51058
vn 0.13565 0.97293 0.18712
vn -0.22332 0.95682 -0.18607
vn -0.52171 0.68502 -0.50849
vn -0.68111 0.23140 -0.69465
vn -0.71327 -0.02660 -0.70039
vn -0.44260 -0.51008 -0.73752
vn -0.35960 -0.71462 -0.60001
vn -0.08355 -0.96605 -0.24446
vn 0.21570 -0.96036 0.17659
vn 0.45800 -0.69729 0.55138
vn 0.57710 -0.24550 0.77890
vn 0.53959 0.27364 0.79622
vn 0.35573 0.71857 0.59760
vn 0.07656 0.96838 0.23743
vn -0.22195 0.95719 -0.18583
vn -0.46044 0.69018 -0.55826
vn -0.57639 0.23994 -0.78116
vn -0.59948 -0.01839 -0.80018
vn -0.31174 -0.49321 -0.81213
vn -0.24406 -0.70058 -0.67054
vn -0.01672 -0.95808 -0.28602
vn 0.21595 -0.96056 0.17520
vn 0.39144 -0.70563 0.59065
vn 0.46143 -0.25977 0.84829
vn 0.40601 0.25726 0.87691
vn 0.24047 0.70452 0.66771
vn 0.01079 0.96049 0.27810
vn -0.22066 0.95757 -0.18537
vn -0.39260 0.69872 -0.59804
vn -0.46022 0.25433 -0.85060
vn -0.47235 -0.00362 -0.88140
vn -0.17178 -0.47030 -0.86562
vn -0.11975 -0.68104 -0.72239
vn 0.05530 -0.94689 -0.31678
vn 0.21641 -0.96070 0.17385
vn 0.32003 -0.71709 0.61917
vn 0.33718 -0.27952 0.89899
vn 0.26243 0.23454 0.93601
vn 0.11650 0.68499 0.71918
vn -0.06005 0.94944 0.30814
vn -0.21945 0.95798 -0.18471
vn -0.31987 0.71043 -0.62687
vn -0.33548 0.27419 -0.90126
vn -0.33503 0.01735 -0.94205
vn -0.02616 -0.44192 -0.89667
vn 0.01026 -0.65647 -0.75428
vn 0.13073 -0.93276 -0.33596
vn 0.21707 -0.96078 0.17259
vn 0.24556 -0.73138 0.63622
vn 0.20741 -0.30424 0.92974
vn 0.11239 0.20605 0.97207
vn -0.01311 0.66045 0.75075
vn -0.13421 0.93552 0.32680
vn -0.21838 0.95839 -0.18387
vn -0.24404 0.72503 -0.64403
vn -0.20522 0.29905 -0.93191
vn -0.19089 0.04399 -0.98063
vn 0.12153 -0.40876 -0.90451
vn 0.14277 -0.62748 -0.76543
vn 0.20772 -0.91604 -0.34311
vn 0.21792 -0.96079 0.17144
vn 0.16983 -0.74817 0.64140
vn 0.07531 -0.33334 0.93980
vn -0.04042 0.17248 0.98418
vn -0.14518 0.63152 0.76165
vn -0.20987 0.91905 0.33362
vn -0.21745 0.95879 -0.18285
vn -0.16697 0.74215 -0.64910
vn -0.07266 0.32828 -0.94178
vn -0.04348 0.07566 -0.99619
vn 0.26767 -0.37164 -0.88895
vn 0.27452 -0.59478 -0.75556
vn 0.28437 -0.89714 -0.33804
vn 0.21893 -0.96074 0.17043
vn 0.09473 -0.76703 0.63458
vn -0.05587 -0.36609 0.92890
vn -0.19223 0.13467 0.97207
vn -0.27645 0.59890 0.75159
vn -0.28517 0.90045 0.32844
vn -0.21670 0.95918 -0.18170
vn -0.09057 0.76138 -0.64195
vn 0.05893 0.36118 -0.93063
vn 0.10357 0.11157 -0.98834
vn 0.40864 -0.33148 -0.85038
vn 0.40226 -0.55918 -0.72492
vn 0.35879 -0.87653 -0.32088
vn 0.22008 -0.96063 0.16958
vn 0.02210 -0.78750 0.61592
vn -0.18289 -0.40169 0.89733
vn -0.33931 0.09354 0.93601
vn -0.40370 0.56340 0.72084
vn -0.35825 0.88017 0.31139
vn -0.21614 0.95954 -0.18044
vn -0.01672 0.78223 -0.62277
vn 0.18632 0.39693 -0.89874
vn 0.24664 0.15083 -0.95730
vn 0.54098 -0.28925 -0.78973
vn 0.52284 -0.52156 -0.67425
vn 0.42915 -0.85471 -0.29205
vn 0.22133 -0.96046 0.16892
vn -0.04627 -0.80907 0.58588
vn -0.30262 -0.43926 0.84585
vn -0.47803 0.05011 0.87691
vn -0.52379 0.52588 0.67014
vn -0.42731 0.85871 0.28287
vn -0.21579 0.95988 -0.17909
vn 0.05278 0.80420 -0.59201
vn 0.30637 0.43465 -0.84689
vn 0.38221 0.19249 -0.90381
vn 0.66143 -0.24601 -0.70851
vn 0.63330 -0.48284 -0.60481
vn 0.49372 -0.83223 -0.25227
vn 0.22267 -0.96023 0.16846
vn -0.10870 -0.83122 0.54521
vn -0.41213 -0.47788 0.77574
vn -0.60498 0.00544 0.79622
vn -0.63376 0.48729 0.60075
vn -0.49065 0.83661 0.24361
vn -0.21565 0.96017 -0.17770
vn 0.11620 0.82674 -0.55045
vn 0.41613 0.47340 -0.77636
vn 0.50694 0.23551 -0.82919
vn 0.76703 -0.20282 -0.60872
vn 0.73092 -0.44397 -0.51830
vn 0.55091 -0.80963 -0.20250
vn 0.22405 -0.95995 0.16822
vn -0.16366 -0.85340 0.49490
vn -0.50870 -0.51660 0.68873
vn -0.71704 -0.03936 0.69592
vn -0.73090 0.44855 0.51437
vn -0.54671 0.81441 0.19455
vn -0.21573 0.96041 -0.17629
vn 0.17198 0.84931 -0.49910
vn 0.51288 0.51225 -0.68888
vn 0.61775 0.27884 -0.73528
vn 0.85517 -0.16074 -0.49280
vn 0.81330 -0.40592 -0.41687
vn 0.59930 -0.78747 -0.14398
vn 0.22544 -0.95963 0.16819
vn -0.20977 -0.87506 0.43619
vn -0.58997 -0.55446 0.58694
vn -0.81144 -0.08319 0.57849
vn -0.81283 0.41064 0.41314
vn -0.59411 0.79264 0.13692
vn -0.21603 0.96059 -0.17490
vn 0.21875 0.87134 -0.43923
vn 0.59426 0.55022 -0.58661
vn 0.71192 0.32140 -0.62440
vn 0.92368 -0.12080 -0.36363
vn 0.87840 -0.36961 -0.30299
vn 0.63772 -0.76629 -0.07815
vn 0.22681 -0.95927 0.16839
vn -0.24592 -0.89567 0.37053
vn -0.65394 -0.59053 0.47290
vn -0.88586 -0.12497 0.44681
vn -0.87752 0.37448 0.29954
vn -0.63169 0.77186 0.07212
vn -0.21654 0.96072 -0.17357
vn 0.25536 0.89229 -0.37230
vn 0.65825 0.58640 -0.47206
vn 0.78713 0.36216 -0.49927
vn 0.97088 -0.08400 -0.22437
vn 0.92462 -0.33594 -0.17949
vn 0.66521 -0.74663 -0.00663
vn 0.22813 -0.95889 0.16880
vn -0.27122 -0.91472 0.29954
vn -0.69902 -0.62393 0.34941
vn -0.93846 -0.16368 0.30413
vn -0.92339 0.34096 0.17637
vn -0.65852 0.75256 0.00176
vn -0.21724 0.96079 -0.17233
vn 0.28091 0.91165 -0.29998
vn 0.70328 0.61987 -0.34807
vn 0.84153 0.40010 -0.36298
vn 0.99560 -0.05123 -0.07846
vn 0.95083 -0.30575 -0.04939
vn 0.68109 -0.72896 0.06883
vn 0.22935 -0.95849 0.16942
vn -0.28503 -0.93175 0.22496
vn -0.72411 -0.65382 0.21950
vn -0.96796 -0.19836 0.15396
vn -0.94929 0.31091 0.04666
vn -0.67393 0.73524 -0.07244
vn -0.21812 0.96079 -0.17121
vn 0.29477 0.92893 -0.22404
vn 0.72825 0.64983 -0.21767
vn 0.87377 0.43430 -0.21887
vn 0.99724 -0.02330 0.07051
vn 0.95638 -0.27977 0.08409
vn 0.68497 -0.71372 0.14635
vn 0.23046 -0.95808 0.17023
vn -0.28702 -0.94632 0.14863
vn -0.72859 -0.67948 0.08639
vn -0.97363 -0.22815 0.00000
vn -0.95461 0.28507 -0.08639
vn -0.67755 0.72030 -0.14863
vn -0.21917 0.96072 -0.17023
vn 0.29659 0.94372 -0.14635
vn 0.73252 0.67553 -0.08409
vn 0.88307 0.46391 -0.07051
vn 0.97575 -0.00091 0.21887
vn 0.94113 -0.25865 0.21767
vn 0.67677 -0.70128 0.22404
vn 0.23142 -0.95767 0.17121
vn -0.27714 -0.95810 0.07244
vn -0.71235 -0.70028 -0.04666
vn -0.95532 -0.25232 -0.15396
vn -0.93919 0.26407 -0.21950
vn -0.66929 0.70812 -0.22496
vn -0.22034 0.96060 -0.16942
vn 0.28634 0.95565 -0.06883
vn 0.71601 0.69634 0.04939
vn 0.86920 0.48820 0.07846
vn 0.93167 0.01540 0.36298
vn 0.90545 -0.24290 0.34807
vn 0.65668 -0.69194 0.29998
vn 0.23221 -0.95728 0.17233
vn -0.25563 -0.96677 -0.00176
vn -0.67578 -0.71569 -0.17637
vn -0.91348 -0.27028 -0.30413
vn -0.90344 0.24843 -0.34941
vn -0.64936 0.69901 -0.29954
vn -0.22162 0.96041 -0.16880
vn 0.26426 0.96443 0.00663
vn 0.67912 0.71174 0.17949
vn 0.83249 0.50657 0.22437
vn 0.86608 0.02523 0.49927
vn 0.85024 -0.23292 0.47206
vn 0.62519 -0.68595 0.37230
vn 0.23281 -0.95691 0.17357
vn -0.22303 -0.97214 -0.07212
vn -0.61980 -0.72534 -0.29954
vn -0.84916 -0.28158 -0.44681
vn -0.84821 0.23854 -0.47290
vn -0.61823 0.69318 -0.37053
vn -0.22296 0.96017 -0.16839
vn 0.23090 0.96983 0.07815
vn 0.62275 0.72137 0.30299
vn 0.77386 0.51858 0.36363
vn 0.78059 0.02833 0.62440
vn 0.77684 -0.22894 0.58661
vn 0.58308 -0.68345 0.43923
vn 0.23321 -0.95657 0.17490
vn -0.18013 -0.97407 -0.13692
vn -0.54578 -0.72900 -0.41314
vn -0.76392 -0.28596 -0.57849
vn -0.77488 0.23464 -0.58694
vn -0.57669 0.69077 -0.43619
vn -0.22435 0.95988 -0.16819
vn 0.18708 0.97174 0.14398
vn 0.54830 0.72497 0.41687
vn 0.69473 0.52392 0.49280
vn 0.67731 0.02463 0.73528
vn 0.68706 -0.23107 0.68888
vn 0.53139 -0.68449 0.49910
vn 0.23340 -0.95627 0.17629
vn -0.12799 -0.97251 -0.19455
vn -0.45554 -0.72657 -0.51437
vn -0.65988 -0.28329 -0.69592
vn -0.68525 0.23683 -0.68873
vn -0.52575 0.69186 -0.49490
vn -0.22574 0.95955 -0.16822
vn 0.13387 0.97009 0.20250
vn 0.45760 0.72247 0.51830
vn 0.59707 0.52246 0.60872
vn 0.55879 0.01422 0.82919
vn 0.58312 -0.23925 0.77636
vn 0.47139 -0.68906 0.55045
vn 0.23336 -0.95602 0.17770
vn -0.06790 -0.96749 -0.24361
vn -0.35130 -0.71811 -0.60075
vn -0.53959 -0.27364 -0.79622
vn -0.58153 0.24505 -0.77574
vn -0.46667 0.69640 -0.54521
vn -0.22710 0.95919 -0.16846
vn 0.07260 0.96493 0.25227
vn 0.35287 0.71393 0.60481
vn 0.48328 0.51425 0.70851
vn 0.42794 -0.00265 0.90381
vn 0.46757 -0.25329 0.84689
vn 0.40455 -0.69703 0.59201
vn 0.23311 -0.95582 0.17909
vn -0.00133 -0.95916 -0.28287
vn -0.23563 -0.70384 -0.67014
vn -0.40601 -0.25726 -0.87691
vn -0.46626 0.25909 -0.84585
vn -0.40089 0.70429 -0.58588
vn -0.22840 0.95880 -0.16892
vn 0.00476 0.95639 0.29205
vn 0.23671 0.69954 0.67425
vn 0.35616 0.49948 0.78973
vn 0.28798 -0.02556 0.95730
vn 0.34326 -0.27283 0.89874
vn 0.33254 -0.70822 0.62277
vn 0.23265 -0.95568 0.18044
vn 0.07007 -0.94770 -0.31139
vn -0.11138 -0.68409 -0.72084
vn -0.26243 -0.23454 -0.93601
vn -0.34230 0.27862 -0.89733
vn -0.33005 0.71534 -0.61592
vn -0.22960 0.95840 -0.16958
vn -0.06797 0.94468 0.32088
vn 0.11196 0.67968 0.72492
vn 0.21884 0.47851 0.85038
vn 0.14235 -0.05394 0.98834
vn 0.21325 -0.29740 0.93063
vn 0.25710 -0.72235 0.64195
vn 0.23198 -0.95560 0.18170
vn 0.14455 -0.93340 -0.32844
vn 0.01839 -0.65937 -0.75159
vn -0.11239 -0.20605 -0.97207
vn -0.21269 0.30316 -0.92890
vn -0.25589 0.72927 -0.63458
vn -0.23068 0.95799 -0.17043
vn -0.14380 0.93008 0.33804
vn -0.01830 0.65482 0.75556
vn 0.07470 0.45187 0.88895
vn -0.00534 -0.08710 0.99619
vn 0.08074 -0.32639 0.94178
vn 0.18012 -0.73907 0.64910
vn 0.23114 -0.95558 0.18285
vn 0.22027 -0.91661 -0.33362
vn 0.15049 -0.63027 -0.76165
vn 0.04042 -0.17248 -0.98418
vn -0.08062 0.33209 -0.93980
vn -0.18023 0.74573 -0.64140
vn -0.23161 0.95758 -0.17144
vn -0.22086 0.91296 0.34311
vn -0.15085 0.62559 0.76543
vn -0.07271 0.42020 0.90451
vn -0.15147 -0.12422 0.98063
vn -0.05100 -0.35909 0.93191
vn 0.10347 -0.75797 0.64403
vn 0.23013 -0.95563 0.18387
vn 0.29537 -0.89775 -0.32680
vn 0.28167 -0.59752 -0.75075
vn 0.19223 -0.13467 -0.97207
vn 0.05066 0.36471 -0.92974
vn -0.10493 0.76434 -0.63622
vn -0.23236 0.95720 -0.17259
vn -0.29726 0.89374 0.33596
vn -0.28245 0.59269 0.75428
vn -0.21977 0.38429 0.89667
vn -0.29245 -0.16438 0.94205
vn -0.17874 -0.39469 0.90126
vn 0.02905 -0.77858 0.62687
vn 0.22898 -0.95575 0.18471
vn 0.36800 -0.87728 -0.30814
vn 0.40869 -0.56192 -0.71918
vn 0.33931 -0.09354 -0.93601
vn 0.17790 0.40021 -0.89899
vn -0.03185 0.78461 -0.61917
vn -0.23292 0.95683 -0.17385
vn -0.37112 0.87288 0.31678
vn -0.40984 0.55694 0.72239
vn -0.36284 0.34503 0.86562
vn -0.42479 -0.20661 0.88140
vn -0.29932 -0.43231 0.85060
vn -0.04132 -0.80040 0.59804
vn 0.22772 -0.95592 0.18537
vn 0.43638 -0.85571 -0.27810
vn 0.52842 -0.52435 -0.66771
vn 0.47803 -0.05011 -0.87691
vn 0.29799 0.43773 -0.84829
vn 0.03721 0.80607 -0.59065
vn -0.23327 0.95650 -0.17520
vn -0.44061 0.85091 0.28602
vn -0.52989 0.51922 0.67054
vn -0.49840 0.30337 0.81213
vn -0.54524 -0.24985 0.80018
vn -0.40979 -0.47103 0.78116
vn -0.10588 -0.82288 0.55826
vn 0.22639 -0.95615 0.18583
vn 0.49881 -0.83356 -0.23743
vn 0.63793 -0.48573 -0.59760
vn 0.60498 -0.00544 -0.79622
vn 0.40796 0.47632 -0.77890
vn 0.10055 0.82817 -0.55138
vn -0.23341 0.95621 -0.17659
vn -0.50403 0.82837 0.24446
vn -0.63964 0.48047 0.60001
vn -0.62313 0.26035 0.73752
vn -0.65083 -0.29304 0.70039
vn -0.50741 -0.50990 0.69465
vn -0.16307 -0.84548 0.50849
vn 0.22501 -0.95642 0.18607
vn 0.55376 -0.81138 -0.18712
vn 0.73450 -0.44701 -0.51058
vn 0.71704 0.03936 -0.69592
vn 0.50510 0.51506 -0.69252
vn 0.15661 0.85038 -0.50233
vn -0.23333 0.95597 -0.17800
vn -0.55981 0.80580 0.19311
vn -0.73640 0.44162 0.51253
vn -0.73394 0.21702 0.64361
vn -0.73897 -0.33512 0.58448
vn -0.58978 -0.54795 0.59321
vn -0.21147 -0.86764 0.44997
vn 0.22362 -0.95675 0.18610
vn 0.59988 -0.78972 -0.12841
vn 0.81577 -0.40915 -0.40880
vn 0.81144 0.08319 -0.57849
vn 0.58703 0.55297 -0.59129
vn 0.20401 0.87214 -0.44469
vn -0.23303 0.95578 -0.17939
vn -0.60659 0.78377 0.13324
vn -0.81778 0.40364 0.41026
vn -0.82811 0.17446 0.53273
vn -0.80749 -0.37506 0.45530
vn -0.65488 -0.58426 0.47934
vn -0.24988 -0.88882 0.38414
vn 0.22224 -0.95710 0.18590
vn 0.63603 -0.76911 -0.06276
vn 0.87974 -0.37308 -0.29475
vn 0.88586 0.12497 -0.44681
vn 0.65172 0.58913 -0.47769
vn 0.24159 0.89292 -0.37990
vn -0.23252 0.95565 -0.18072
vn -0.64320 0.76282 0.06631
vn -0.88177 0.36747 0.29572
vn -0.90332 0.13370 0.40760
vn -0.85468 -0.41186 0.31604
vn -0.70111 -0.61793 0.35584
vn -0.27737 -0.90848 0.31262
vn 0.22093 -0.95749 0.18549
vn 0.66132 -0.75006 0.00824
vn 0.92482 -0.33968 -0.17126
vn 0.93846 0.16368 -0.30413
vn 0.69759 0.62265 -0.35451
vn 0.26841 0.91222 -0.30954
vn -0.23182 0.95559 -0.18196
vn -0.66875 0.74346 -0.00601
vn -0.92680 0.33400 0.17172
vn -0.95772 0.09576 0.27130
vn -0.87941 -0.44463 0.17013
vn -0.72731 -0.64812 0.22574
vn -0.29325 -0.92615 0.23716
vn 0.21970 -0.95789 0.18487
vn 0.67513 -0.73304 0.08281
vn 0.94991 -0.30979 -0.04136
vn 0.96796 0.19836 -0.15396
vn 0.72349 0.65270 -0.22481
vn 0.28383 0.92955 -0.23534
vn -0.23093 0.95559 -0.18309
vn -0.68261 0.72618 -0.08195
vn -0.95176 0.30404 0.04133
vn -0.98996 0.06156 0.12720
vn -0.88286 -0.45396 0.12032
vn -0.79006 -0.59579 0.14435
vn -0.38005 -0.90542 0.18918
vn 0.13302 -0.97397 0.18357
vn 0.61138 -0.78082 0.12859
vn 0.92517 -0.37754 0.03901
vn 0.99003 0.12694 -0.06099
vn 0.78879 0.59741 -0.14462
vn 0.37481 0.90755 -0.18940
vn -0.14064 0.97298 -0.18310
vn -0.61745 0.77622 -0.12748
vn -0.92730 0.37240 -0.03794
vn -0.99876 0.04063 0.02888
f 1/1/1 14/14/14 15/15/15
f 1/1/1 15/15/15 2/2/2
f 2/2/2 15/15/15 16/16/16
f 2/2/2 16/16/16 3/3/3
f 3/3/3 16/16/16 17/17/17
f 3/3/3 17/17/17 4/4/4
f 4/4/4 17/17/17 18/18/18
f 4/4/4 18/18/18 5/5/5
f 5/5/5 18/18/18 19/19/19
f 5/5/5 19/19/19 6/6/6
f 6/6/6 19/19/19 20/20/20
f 6/6/6 20/20/20 7/7/7
f 7/7/7 20/20/20 21/21/21
f 7/7/7 21/21/21 8/8/8
f 8/8/8 21/21/21 22/22/22
f 8/8/8 22/22/22 9/9/9
f 9/9/9 22/22/22 23/23/23
f 9/9/9 23/23/23 10/10/10
f 10/10/10 23/23/23 24/24/24
f 10/10/10 24/24/24 11/11/11
f 11/11/11 24/24/24 25/25/25
f 11/11/11 25/25/25 12/12/12
f 12/12/12 25/25/25 26/26/26
f 12/12/12 26/26/26 13/13/13
f 14/14/14 27/27/27 28/28/28
f 14/14/14 28/28/28 15/15/15
f 15/15/15 28/28/28 29/29/29
f 15/15/15 29/29/29 16/16/16
f 16/16/16 29/29/29 30/30/30
f 16/16/16 30/30/30 17/17/17
f 17/17/17 30/30/30 31/31/31
f 17/17/17 31/31/31 18/18/18
f 18/18/18 31/31/31 32/32/32
f 18/18/18 32/32/32 19/19/19
f 19/19/19 32/32/32 33/33/33
f 19/19/19 33/33/33 20/20/20
f 20/20/20 33/33/33 34/34/34
f 20/20/20 34/34/34 21/21/21
f 21/21/21 34/34/34 35/35/35
f 21/21/21 35/35/35 22/22/22
f 22/22/22 35/35/35 36/36/36
f 22/22/22 36/36/36 23/23/23
f 23/23/23 36/36/36 37/37/37
f 23/23/23 37/37/37 24/24/24
f 24/24/24 37/37/37 38/38/38
f 24/24/24 38/38/38 25/25/25
f 25/25/25 38/38/38 39/39/39
f 25/25/25 39/39/39 26/26/26
f 27/27/27 40/40/40 41/41/41
f 27/27/27 41/41/41 28/28/28
f 28/28/28 41/41/41 42/42/42
f 28/28/28 42/42/42 29/29/29
f 29/29/29 42/42/42 43/43/43
f 29/29/29 43/43/43 30/30/30
f 30/30/30 43/43/43 44/44/44
f 30/30/30 44/44/44 31/31/31
f 31/31/31 44/44/44 45/45/45
f 31/31/31 45/45/45 32/32/32
f 32/32/32 45/45/45 46/46/46
f 32/32/32 46/46/46 33/33/33
f 33/33/33 46/46/46 47/47/47
f 33/33/33 47/47/47 34/34/34
f 34/34/34 47/47/47 48/48/48
f 34/34/34 48/48/48 35/35/35
f 35/35/35 48/48/48 49/49/49
f 35/35/35 49/49/49 36/36/36
f 36/36/36 49/49/49 50/50/50
f 36/36/36 50/50/50 37/37/37
f 37/37/37 50/50/50 51/51/51
f 37/37/37 51/51/51 38/38/38
f 38/38/38 51/51/51 52/52/52
f 38/38/38 52/52/52 39/39/39
f 40/40/40 53/53/53 54/54/54
f 40/40/40 54/54/54 41/41/41
f 41/41/41 54/54/54 55/55/55
f 41/41/41 55/55/55 42/42/42
f 42/42/42 55/55/55 56/56/56
f 42/42/42 56/56/56 43/43/43
f 43/43/43 56/56/56 57/57/57
f 43/43/43 57/57/57 44/44/44
f 44/44/44 57/57/57 58/58/58
f 44/44/44 58/58/58 45/45/45
f 45/45/45 58/58/58 59/59/59
f 45/45/45 59/59/59 46/46/46
f 46/46/46 59/59/59 60/60/60
f 46/46/46 60/60/60 47/47/47
f 47/47/47 60/60/60 61/61/61
f 47/47/47 61/61/61 48/48/48
f 48/48/48 61/61/61 62/62/62
f 48/48/48 62/62/62 49/49/49
f 49/49/49 62/62/62 63/63/63
f 49/49/49 63/63/63 50/50/50
f 50/50/50 63/63/63 64/64/64
f 50/50/50 64/64/64 51/51/51
f 51/51/51 64/64/64 65/65/65
f 51/51/51 65/65/65 52/52/52
f 53/53/53 66/66/66 67/67/67
f 53/53/53 67/67/67 54/54/54
f 54/54/54 67/67/67 68/68/68
f 54/54/54 68/68/68 55/55/55
f 55/55/55 68/68/68 69/69/69
f 55/55/55 69/69/69 56/56/56
f 56/56/56 69/69/69 70/70/70
f 56/56/56 70/70/70 57/57/57
f 57/57/57 70/70/70 71/71/71
f 57/57/57 71/71/71 58/58/58
f 58/58/58 71/71/71 72/72/72
f 58/58/58 72/72/72 59/59/59
f 59/59/59 72/72/72 73/73/73
f 59/59/59 73/73/73 60/60/60
f 60/60/60 73/73/73 74/74/74
f 60/60/60 74/74/74 61/61/61
f 61/61/61 74/74/74 75/75/75
f 61/61/61 75/75/75 62/62/62
f 62/62/62 75/75/75 76/76/76
f 62/62/62 76/76/76 63/63/63
f 63/63/63 76/76/76 77/77/77
f 63/63/63 77/77/77 64/64/64
f 64/64/64 77/77/77 78/78/78
f 64/64/64 78/78/78 65/65/65
f 66/66/66 79/79/79 80/80/80
f 66/66/66 80/80/80 67/67/67
f 67/67/67 80/80/80 81/81/81
f 67/67/67 81/81/81 68/68/68
f 68/68/68 81/81/81 82/82/82
f 68/68/68 82/82/82 69/69/69
f 69/69/69 82/82/82 83/83/83
f 69/69/69 83/83/83 70/70/70
f 70/70/70 83/83/83 84/84/84
f 70/70/70 84/84/84 71/71/71
f 71/71/71 84/84/84 85/85/85
f 71/71/71 85/85/85 72/72/72
f 72/72/72 85/85/85 86/86/86
f 72/72/72 86/86/86 73/73/73
f 73/73/73 86/86/86 87/87/87
f 73/73/73 87/87/87 74/74/74
f 74/74/74 87/87/87 88/88/88
f 74/74/74 88/88/88 75/75/75
f 75/75/75 88/88/88 89/89/89
f 75/75/75 89/89/89 76/76/76
f 76/76/76 89/89/89 90/90/90
f 76/76/76 90/90/90 77/77/77
f 77/77/77 90/90/90 91/91/91
f 77/77/77 91/91/91 78/78/78
f 79/79/79 92/92/92 93/93/93
f 79/79/79 93/93/93 80/80/80
f 80/80/80 93/93/93 94/94/94
f 80/80/80 94/94/94 81/81/81
f 81/81/81 94/94/94 95/95/95
f 81/81/81 95/95/95 82/82/82
f 82/82/82 95/95/95 96/96/96
f 82/82/82 96/96/96 83/83/83
f 83/83/83 96/96/96 97/97/97
f 83/83/83 97/97/97 84/84/84
f 84/84/84 97/97/97 98/98/98
f 84/84/84 98/98/98 85/85/85
f 85/85/85 98/98/98 99/99/99
f 85/85/85 99/99/99 86/86/86
f 86/86/86 99/99/99 100/100/100
f 86/86/86 100/100/100 87/87/87
f 87/87/87 100/100/100 101/101/101
f 87/87/87 101/101/101 88/88/88
f 88/88/88 101/101/101 102/102/102
f 88/88/88 102/102/102 89/89/89
f 89/89/89 102/102/102 103/103/103
f 89/89/89 103/103/103 90/90/90
f 90/90/90 103/103/103 104/104/104
f 90/90/90 104/104/104 91/91/91
f 92/92/92 105/105/105 106/106/106
f 92/92/92 106/106/106 93/93/93
f 93/93/93 106/106/106 107/107/107
f 93/93/93 107/107/107 94/94/94
f 94/94/94 107/107/107 108/108/108
f 94/94/94 108/108/108 95/95/95
f 95/95/95 108/108/108 109/109/109
f 95/95/95 109/109/109 96/96/96
f 96/96/96 109/109/109 110/110/110
f 96/96/96 110/110/110 97/97/97
f 97/97/97 110/110/110 111/111/111
f 97/97/97 111/111/111 98/98/98
f 98/98/98 111/111/111 112/112/112
f 98/98/98 112/112/112 99/99/99
f 99/99/99 112/112/112 113/113/113
f 99/99/99 113/113/113 100/100/100
f 100/100/100 113/113/113 114/114/114
f 100/100/100 114/114/114 101/101/101
f 101/101/101 114/114/114 115/115/115
f 101/101/101 115/115/115 102/102/102
f 102/102/102 115/115/115 116/116/116
f 102/102/102 116/116/116 103/103/103
f 103/103/103 116/116/116 117/117/117
f 103/103/103 117/117/117 104/104/104
f 105/105/105 118/118/118 119/119/119
f 105/105/105 119/119/119 106/106/106
f 106/106/106 119/119/119 120/120/120
f 106/106/106 120/120/120 107/107/107
f 107/107/107 120/120/120 121/121/121
f 107/107/107 121/121/121 108/108/108
f 108/108/108 121/121/121 122/122/122
f 108/108/108 122/122/122 109/109/109
f 109/109/109 122/122/122 123/123/123
f 109/109/109 123/123/123 110/110/110
f 110/110/110 123/123/123 124/124/124
f 110/110/110 124/124/124 111/111/111
f 111/111/111 124/124/124 125/125/125
f 111/111/111 125/125/125 112/112/112
f 112/112/112 125/125/125 126/126/126
f 112/112/112 126/126/126 113/113/113
f 113/113/113 126/126/126 127/127/127
f 113/113/113 127/127/127 114/114/114
f 114/114/114 127/127/127 128/128/128
f 114/114/114 128/128/128 115/115/115
f 115/115/115 128/128/128 129/129/129
f 115/115/115 129/129/129 116/116/116
f 116/116/116 129/129/129 130/130/130
f 116/116/116 130/130/130 117/117/117
f 118/118/118 131/131/131 132/132/132
f 118/118/118 132/132/132 119/119/119
f 119/119/119 132/132/132 133/133/133
f 119/119/119 133/133/133 120/120/120
f 120/120/120 133/133/133 134/134/134
f 120/120/120 134/134/134 121/121/121
f 121/121/121 134/134/134 135/135/135
f 121/121/121 135/135/135 122/122/122
f 122/122/122 135/135/135 136/136/136
f 122/122/122 136/136/136 123/123/123
f 123/123/123 136/136/136 137/137/137
f 123/123/123 137/137/137 124/124/124
f 124/124/124 137/137/137 138/138/138
f 124/124/124 138/138/138 125/125/125
f 125/125/125 138/138/138 139/139/139
f 125/125/125 139/139/139 126/126/126
f 126/126/126 139/139/139 140/140/140
f 126/126/126 140/140/140 127/127/127
f 127/127/127 140/140/140 141/141/141
f 127/127/127 141/141/141 128/128/128
f 128/128/128 141/141/141 142/142/142
f 128/128/128 142/142/142 129/129/129
f 129/129/129 142/142/142 143/143/143
f 129/129/129 143/143/143 130/130/130
f 131/131/131 144/144/144 145/145/145
f 131/131/131 145/145/145 132/132/132
f 132/132/132 145/145/145 146/146/146
f 132/132/132 146/146/146 133/133/133
f 133/133/133 146/146/146 147/147/147
f 133/133/133 147/147/147 134/134/134
f 134/134/134 147/147/147 148/148/148
f 134/134/134 148/148/148 135/135/135
f 135/135/135 148/148/148 149/149/149
f 135/135/135 149/149/149 136/136/136
f 136/136/136 149/149/149 150/150/150
f 136/136/136 150/150/150 137/137/137
f 137/137/137 150/150/150 151/151/151
f 137/137/137 151/151/151 138/138/138
f 138/138/138 151/151/151 152/152/152
f 138/138/138 152/152/152 139/139/139
f 139/139/139 152/152/152 153/153/153
f 139/139/139 153/153/153 140/140/140
f 140/140/140 153/153/153 154/154/154
f 140/140/140 154/154/154 141/141/141
f 141/141/141 154/154/154 155/155/155
f 141/141/141 155/155/155 142/142/142
f 142/142/142 155/155/155 156/156/156
f 142/142/142 156/156/156 143/143/143
f 144/144/144 157/157/157 158/158/158
f 144/144/144 158/158/158 145/145/145
f 145/145/145 158/158/158 159/159/159
f 145/145/145 159/159/159 146/146/146
f 146/146/146 159/159/159 160/160/160
f 146/146/146 160/160/160 147/147/147
f 147/147/147 160/160/160 161/161/161
f 147/147/147 161/161/161 148/148/148
f 148/148/148 161/161/161 162/162/162
f 148/148/148 162/162/162 149/149/149
f 149/149/149 162/162/162 163/163/163
f 149/149/149 163/163/163 150/150/150
f 150/150/150 163/163/163 164/164/164
f 150/150/150 164/164/164 151/151/151
f 151/151/151 164/164/164 165/165/165
f 151/151/151 165/165/165 152/152/152
f 152/152/152 165/165/165 166/166/166
f 152/152/152 166/166/166 153/153/153
f 153/153/153 166/166/166 167/167/167
f 153/153/153 167/167/167 154/154/154
f 154/154/154 167/167/167 168/168/168
f 154/154/154 168/168/168 155/155/155
f 155/155/155 168/168/168 169/169/169
f 155/155/155 169/169/169 156/156/156
f 157/157/157 170/170/170 171/171/171
f 157/157/157 171/171/171 158/158/158
f 158/158/158 171/171/171 172/172/172
f 158/158/158 172/172/172 159/159/159
f 159/159/159 172/172/172 173/173/173
f 159/159/159 173/173/173 160/160/160
f 160/160/160 173/173/173 174/174/174
f 160/160/160 174/174/174 161/161/161
f 161/161/161 174/174/174 175/175/175
f 161/161/161 175/175/175 162/162/162
f 162/162/162 175/175/175 176/176/176
f 162/162/162 176/176/176 163/163/163
f 163/163/163 176/176/176 177/177/177
f 163/163/163 177/177/177 164/164/164
f 164/164/164 177/177/177 178/178/178
f 164/164/164 178/178/178 165/165/165
f 165/165/165 178/178/178 179/179/179
f 165/165/165 179/179/179 166/166/166
f 166/166/166 179/179/179 180/180/180
f 166/166/166 180/180/180 167/167/167
f 167/167/167 180/180/180 181/181/181
f 167/167/167 181/181/181 168/168/168
f 168/168/168 181/181/181 182/182/182
f 168/168/168 182/182/182 169/169/169
f 170/170/170 183/183/183 184/184/184
f 170/170/170 184/184/184 171/171/171
f 171/171/171 184/184/184 185/185/185
f 171/171/171 185/185/185 172/172/172
f 172/172/172 185/185/185 186/186/186
f 172/172/172 186/186/186 173/173/173
f 173/173/173 186/186/186 187/187/187
f 173/173/173 187/187/187 174/174/174
f 174/174/174 187/187/187 188/188/188
f 174/174/174 188/188/188 175/175/175
f 175/175/175 188/188/188 189/189/189
f 175/175/175 189/189/189 176/176/176
f 176/176/176 189/189/189 190/190/190
f 176/176/176 190/190/190 177/177/177
f 177/177/177 190/190/190 191/191/191
f 177/177/177 191/191/191 178/178/178
f 178/178/178 191/191/191 192/192/192
f 178/178/178 192/192/192 179/179/179
f 179/179/179 192/192/192 193/193/193
f 179/179/179 193/193/193 180/180/180
f 180/180/180 193/193/193 194/194/194
f 180/180/180 194/194/194 181/181/181
f 181/181/181 194/194/194 195/195/195
f 181/181/181 195/195/195 182/182/182
f 183/183/183 196/196/196 197/197/197
f 183/183/183 197/197/197 184/184/184
f 184/184/184 197/197/197 198/198/198
f 184/184/184 198/198/198 185/185/185
f 185/185/185 198/198/198 199/199/199
f 185/185/185 199/199/199 186/186/186
f 186/186/186 199/199/199 200/200/200
f 186/186/186 200/200/200 187/187/187
f 187/187/187 200/200/200 201/201/201
f 187/187/187 201/201/201 188/188/188
f 188/188/188 201/201/201 202/202/202
f 188/188/188 202/202/202 189/189/189
f 189/189/189 202/202/202 203/203/203
f 189/189/189 203/203/203 190/190/190
f 190/190/190 203/203/203 204/204/204
f 190/190/190 204/204/204 191/191/191
f 191/191/191 204/204/204 205/205/205
f 191/191/191 205/205/205 192/192/192
f 192/192/192 205/205/205 206/206/206
f 192/192/192 206/206/206 193/193/193
f 193/193/193 206/206/206 207/207/207
f 193/193/193 207/207/207 194/194/194
f 194/194/194 207/207/207 208/208/208
f 194/194/194 208/208/208 195/195/195
f 196/196/196 209/209/209 210/210/210
f 196/196/196 210/210/210 197/197/197
f 197/197/197 210/210/210 211/211/211
f 197/197/197 211/211/211 198/198/198
f 198/198/198 211/211/211 212/212/212
f 198/198/198 212/212/212 199/199/199
f 199/199/199 212/212/212 213/213/213
f 199/199/199 213/213/213 200/200/200
f 200/200/200 213/213/213 214/214/214
f 200/200/200 214/214/214 201/201/201
f 201/201/201 214/214/214 215/215/215
f 201/201/201 215/215/215 202/202/202
f 202/202/202 215/215/215 216/216/216
f 202/202/202 216/216/216 203/203/203
f 203/203/203 216/216/216 217/217/217
f 203/203/203 217/217/217 204/204/204
f 204/204/204 217/217/217 218/218/218
f 204/204/204 218/218/218 205/205/205
f 205/205/205 218/218/218 219/219/219
f 205/205/205 219/219/219 206/206/206
f 206/206/206 219/219/219 220/220/220
f 206/206/206 220/220/220 207/207/207
f 207/207/207 220/220/220 221/221/221
f 207/207/207 221/221/221 208/208/208
f 209/209/209 222/222/222 223/223/223
f 209/209/209 223/223/223 210/210/210
f 210/210/210 223/223/223 224/224/224
f 210/210/210 224/224/224 211/211/211
f 211/211/211 224/224/224 225/225/225
f 211/211/211 225/225/225 212/212/212
f 212/212/212 225/225/225 226/226/226
f 212/212/212 226/226/226 213/213/213
f 213/213/213 226/226/226 227/227/227
f 213/213/213 227/227/227 214/214/214
f 214/214/214 227/227/227 228/228/228
f 214/214/214 228/228/228 215/215/215
f 215/215/215 228/228/228 229/229/229
f 215/215/215 229/229/229 216/216/216
f 216/216/216 229/229/229 230/230/230
f 216/216/216 230/230/230 217/217/217
f 217/217/217 230/230/230 231/231/231
f 217/217/217 231/231/231 218/218/218
f 218/218/218 231/231/231 232/232/232
f 218/218/218 232/232/232 219/219/219
f 219/219/219 232/232/232 233/233/233
f 219/219/219 233/233/233 220/220/220
f 220/220/220 233/233/233 234/234/234
f 220/220/220 234/234/234 221/221/221
f 222/222/222 235/235/235 236/236/236
f 222/222/222 236/236/236 223/223/223
f 223/223/223 236/236/236 237/237/237
f 223/223/223 237/237/237 224/224/224
f 224/224/224 237/237/237 238/238/238
f 224/224/224 238/238/238 225/225/225
f 225/225/225 238/238/238 239/239/239
f 225/225/225 239/239/239 226/226/226
f 226/226/226 239/239/239 240/240/240
f 226/226/226 240/240/240 227/227/227
f 227/227/227 240/240/240 241/241/241
f 227/227/227 241/241/241 228/228/228
f 228/228/228 241/241/241 242/242/242
f 228/228/228 242/242/242 229/229/229
f 229/229/229 242/242/242 243/243/243
f 229/229/229 243/243/243 230/230/230
f 230/230/230 243/243/243 244/244/244
f 230/230/230 244/244/244 231/231/231
f 231/231/231 244/244/244 245/245/245
f 231/231/231 245/245/245 232/232/232
f 232/232/232 245/245/245 246/246/246
f 232/232/232 246/246/246 233/233/233
f 233/233/233 246/246/246 247/247/247
f 233/233/233 247/247/247 234/234/234
f 235/235/235 248/248/248 249/249/249
f 235/235/235 249/249/249 236/236/236
f 236/236/236 249/249/249 250/250/250
f 236/236/236 250/250/250 237/237/237
f 237/237/237 250/250/250 251/251/251
f 237/237/237 251/251/251 238/238/238
f 238/238/238 251/251/251 252/252/252
f 238/238/238 252/252/252 239/239/239
f 239/239/239 252/252/252 253/253/253
f 239/239/239 253/253/253 240/240/240
f 240/240/240 253/253/253 254/254/254
f 240/240/240 254/254/254 241/241/241
f 241/241/241 254/254/254 255/255/255
f 241/241/241 255/255/255 242/242/242
f 242/242/242 255/255/255 256/256/256
f 242/242/242 256/256/256 243/243/243
f 243/243/243 256/256/256 257/257/257
f 243/243/243 257/257/257 244/244/244
f 244/244/244 257/257/257 258/258/258
f 244/244/244 258/258/258 245/245/245
f 245/245/245 258/258/258 259/259/259
f 245/245/245 259/259/259 246/246/246
f 246/246/246 259/259/259 260/260/260
f 246/246/246 260/260/260 247/247/247
f 248/248/248 261/261/261 262/262/262
f 248/248/248 262/262/262 249/249/249
f 249/249/249 262/262/262 263/263/263
f 249/249/249 263/263/263 250/250/250
f 250/250/250 263/263/263 264/264/264
f 250/250/250 264/264/264 251/251/251
f 251/251/251 264/264/264 265/265/265
f 251/251/251 265/265/265 252/252/252
f 252/252/252 265/265/265 266/266/266
f 252/252/252 266/266/266 253/253/253
f 253/253/253 266/266/266 267/267/267
f 253/253/253 267/267/267 254/254/254
f 254/254/254 267/267/267 268/268/268
f 254/254/254 268/268/268 255/255/255
f 255/255/255 268/268/268 269/269/269
f 255/255/255 269/269/269 256/256/256
f 256/256/256 269/269/269 270/270/270
f 256/256/256 270/270/270 257/257/257
f 257/257/257 270/270/270 271/271/271
f 257/257/257 271/271/271 258/258/258
f 258/258/258 271/271/271 272/272/272
f 258/258/258 272/272/272 259/259/259
f 259/259/259 272/272/272 273/273/273
f 259/259/259 273/273/273 260/260/260
f 261/261/261 274/274/274 275/275/275
f 261/261/261 275/275/275 262/262/262
f 262/262/262 275/275/275 276/276/276
f 262/262/262 276/276/276 263/263/263
f 263/263/263 276/276/276 277/277/277
f 263/263/263 277/277/277 264/264/264
f 264/264/264 277/277/277 278/278/278
f 264/264/264 278/278/278 265/265/265
f 265/265/265 278/278/278 279/279/279
f 265/265/265 279/279/279 266/266/266
f 266/266/266 279/279/279 280/280/280
f 266/266/266 280/280/280 267/267/267
f 267/267/267 280/280/280 281/281/281
f 267/267/267 281/281/281 268/268/268
f 268/268/268 281/281/281 282/282/282
f 268/268/268 282/282/282 269/269/269
f 269/269/269 282/282/282 283/283/283
f 269/269/269 283/283/283 270/270/270
f 270/270/270 283/283/283 284/284/284
f 270/270/270 284/284/284 271/271/271
f 271/271/271 284/284/284 285/285/285
f 271/271/271 285/285/285 272/272/272
f 272/272/272 285/285/285 286/286/286
f 272/272/272 286/286/286 273/273/273
f 274/274/274 287/287/287 288/288/288
f 274/274/274 288/288/288 275/275/275
f 275/275/275 288/288/288 289/289/289
f 275/275/275 289/289/289 276/276/276
f 276/276/276 289/289/289 290/290/290
f 276/276/276 290/290/290 277/277/277
f 277/277/277 290/290/290 291/291/291
f 277/277/277 291/291/291 278/278/278
f 278/278/278 291/291/291 292/292/292
f 278/278/278 292/292/292 279/279/279
f 279/279/279 292/292/292 293/293/293
f 279/279/279 293/293/293 280/280/280
f 280/280/280 293/293/293 294/294/294
f 280/280/280 294/294/294 281/281/281
f 281/281/281 294/294/294 295/295/295
f 281/281/281 295/295/295 282/282/282
f 282/282/282 295/295/295 296/296/296
f 282/282/282 296/296/296 283/283/283
f 283/283/283 296/296/296 297/297/297
f 283/283/283 297/297/297 284/284/284
f 284/284/284 297/297/297 298/298/298
f 284/284/284 298/298/298 285/285/285
f 285/285/285 298/298/298 299/299/299
f 285/285/285 299/299/299 286/286/286
f 287/287/287 300/300/300 301/301/301
f 287/287/287 301/301/301 288/288/288
f 288/288/288 301/301/301 302/302/302
f 288/288/288 302/302/302 289/289/289
f 289/289/289 302/302/302 303/303/303
f 289/289/289 303/303/303 290/290/290
f 290/290/290 303/303/303 304/304/304
f 290/290/290 304/304/304 291/291/291
f 291/291/291 304/304/304 305/305/305
f 291/291/291 305/305/305 292/292/292
f 292/292/292 305/305/305 306/306/306
f 292/292/292 306/306/306 293/293/293
f 293/293/293 306/306/306 307/307/307
f 293/293/293 307/307/307 294/294/294
f 294/294/294 307/307/307 308/308/308
f 294/294/294 308/308/308 295/295/295
f 295/295/295 308/308/308 309/309/309
f 295/295/295 309/309/309 296/296/296
f 296/296/296 309/309/309 310/310/310
f 296/296/296 310/310/310 297/297/297
f 297/297/297 310/310/310 311/311/311
f 297/297/297 311/311/311 298/298/298
f 298/298/298 311/311/311 312/312/312
f 298/298/298 312/312/312 299/299/299
f 300/300/300 313/313/313 314/314/314
f 300/300/300 314/314/314 301/301/301
f 301/301/301 314/314/314 315/315/315
f 301/301/301 315/315/315 302/302/302
f 302/302/302 315/315/315 316/316/316
f 302/302/302 316/316/316 303/303/303
f 303/303/303 316/316/316 317/317/317
f 303/303/303 317/317/317 304/304/304
f 304/304/304 317/317/317 318/318/318
f 304/304/304 318/318/318 305/305/305
f 305/305/305 318/318/318 319/319/319
f 305/305/305 319/319/319 306/306/306
f 306/306/306 319/319/319 320/320/320
f 306/306/306 320/320/320 307/307/307
f 307/307/307 320/320/320 321/321/321
f 307/307/307 321/321/321 308/308/308
f 308/308/308 321/321/321 322/322/322
f 308/308/308 322/322/322 309/309/309
f 309/309/309 322/322/322 323/323/323
f 309/309/309 323/323/323 310/310/310
f 310/310/310 323/323/323 324/324/324
f 310/310/310 324/324/324 311/311/311
f 311/311/311 324/324/324 325/325/325
f 311/311/311 325/325/325 312/312/312
f 313/313/313 326/326/326 327/327/327
f 313/313/313 327/327/327 314/314/314
f 314/314/314 327/327/327 328/328/328
f 314/314/314 328/328/328 315/315/315
f 315/315/315 328/328/328 329/329/329
f 315/315/315 329/329/329 316/316/316
f 316/316/316 329/329/329 330/330/330
f 316/316/316 330/330/330 317/317/317
f 317/317/317 330/330/330 331/331/331
f 317/317/317 331/331/331 318/318/318
f 318/318/318 331/331/331 332/332/332
f 318/318/318 332/332/332 319/319/319
f 319/319/319 332/332/332 333/333/333
f 319/319/319 333/333/333 320/320/320
f 320/320/320 333/333/333 334/334/334
f 320/320/320 334/334/334 321/321/321
f 321/321/321 334/334/334 335/335/335
f 321/321/321 335/335/335 322/322/322
f 322/322/322 335/335/335 336/336/336
f 322/322/322 336/336/336 323/323/323
f 323/323/323 336/336/336 337/337/337
f 323/323/323 337/337/337 324/324/324
f 324/324/324 337/337/337 338/338/338
f 324/324/324 338/338/338 325/325/325
f 326/326/326 339/339/339 340/340/340
f 326/326/326 340/340/340 327/327/327
f 327/327/327 340/340/340 341/341/341
f 327/327/327 341/341/341 328/328/328
f 328/328/328 341/341/341 342/342/342
f 328/328/328 342/342/342 329/329/329
f 329/329/329 342/342/342 343/343/343
f 329/329/329 343/343/343 330/330/330
f 330/330/330 343/343/343 344/344/344
f 330/330/330 344/344/344 331/331/331
f 331/331/331 344/344/344 345/345/345
f 331/331/331 345/345/345 332/332/332
f 332/332/332 345/345/345 346/346/346
f 332/332/332 346/346/346 333/333/333
f 333/333/333 346/346/346 347/347/347
f 333/333/333 347/347/347 334/334/334
f 334/334/334 347/347/347 348/348/348
f 334/334/334 348/348/348 335/335/335
f 335/335/335 348/348/348 349/349/349
f 335/335/335 349/349/349 336/336/336
f 336/336/336 349/349/349 350/350/350
f 336/336/336 350/350/350 337/337/337
f 337/337/337 350/350/350 351/351/351
f 337/337/337 351/351/351 338/338/338
f 339/339/339 352/352/352 353/353/353
f 339/339/339 353/353/353 340/340/340
f 340/340/340 353/353/353 354/354/354
f 340/340/340 354/354/354 341/341/341
f 341/341/341 354/354/354 355/355/355
f 341/341/341 355/355/355 342/342/342
f 342/342/342 355/355/355 356/356/356
f 342/342/342 356/356/356 343/343/343
f 343/343/343 356/356/356 357/357/357
f 343/343/343 357/357/357 344/344/344
f 344/344/344 357/357/357 358/358/358
f 344/344/344 358/358/358 345/345/345
f 345/345/345 358/358/358 359/359/359
f 345/345/345 359/359/359 346/346/346
f 346/346/346 359/359/359 360/360/360
f 346/346/346 360/360/360 347/347/347
f 347/347/347 360/360/360 361/361/361
f 347/347/347 361/361/361 348/348/348
f 348/348/348 361/361/361 362/362/362
f 348/348/348 362/362/362 349/349/349
f 349/349/349 362/362/362 363/363/363
f 349/349/349 363/363/363 350/350/350
f 350/350/350 363/363/363 364/364/364
f 350/350/350 364/364/364 351/351/351
f 352/352/352 365/365/365 366/366/366
f 352/352/352 366/366/366 353/353/353
f 353/353/353 366/366/366 367/367/367
f 353/353/353 367/367/367 354/354/354
f 354/354/354 367/367/367 368/368/368
f 354/354/354 368/368/368 355/355/355
f 355/355/355 368/368/368 369/369/369
f 355/355/355 369/369/369 356/356/356
f 356/356/356 369/369/369 370/370/370
f 356/356/356 370/370/370 357/357/357
f 357/357/357 370/370/370 371/371/371
f 357/357/357 371/371/371 358/358/358
f 358/358/358 371/371/371 372/372/372
f 358/358/358 372/372/372 359/359/359
f 359/359/359 372/372/372 373/373/373
f 359/359/359 373/373/373 360/360/360
f 360/360/360 373/373/373 374/374/374
f 360/360/360 374/374/374 361/361/361
f 361/361/361 374/374/374 375/375/375
f 361/361/361 375/375/375 362/362/362
f 362/362/362 375/375/375 376/376/376
f 362/362/362 376/376/376 363/363/363
f 363/363/363 376/376/376 377/377/377
f 363/363/363 377/377/377 364/364/364
f 365/365/365 378/378/378 379/379/379
f 365/365/365 379/379/379 366/366/366
f 366/366/366 379/379/379 380/380/380
f 366/366/366 380/380/380 367/367/367
f 367/367/367 380/380/380 381/381/381
f 367/367/367 381/381/381 368/368/368
f 368/368/368 381/381/381 382/382/382
f 368/368/368 382/382/382 369/369/369
f 369/369/369 382/382/382 383/383/383
f 369/369/369 383/383/383 370/370/370
f 370/370/370 383/383/383 384/384/384
f 370/370/370 384/384/384 371/371/371
f 371/371/371 384/384/384 385/385/385
f 371/371/371 385/385/385 372/372/372
f 372/372/372 385/385/385 386/386/386
f 372/372/372 386/386/386 373/373/373
f 373/373/373 386/386/386 387/387/387
f 373/373/373 387/387/387 374/374/374
f 374/374/374 387/387/387 388/388/388
f 374/374/374 388/388/388 375/375/375
f 375/375/375 388/388/388 389/389/389
f 375/375/375 389/389/389 376/376/376
f 376/376/376 389/389/389 390/390/390
f 376/376/376 390/390/390 377/377/377
f 378/378/378 391/391/391 392/392/392
f 378/378/378 392/392/392 379/379/379
f 379/379/379 392/392/392 393/393/393
f 379/379/379 393/393/393 380/380/380
f 380/380/380 393/393/393 394/394/394
f 380/380/380 394/394/394 381/381/381
f 381/381/381 394/394/394 395/395/395
f 381/381/381 395/395/395 382/382/382
f 382/382/382 395/395/395 396/396/396
f 382/382/382 396/396/396 383/383/383
f 383/383/383 396/396/396 397/397/397
f 383/383/383 397/397/397 384/384/384
f 384/384/384 397/397/397 398/398/398
f 384/384/384 398/398/398 385/385/385
f 385/385/385 398/398/398 399/399/399
f 385/385/385 399/399/399 386/386/386
f 386/386/386 399/399/399 400/400/400
f 386/386/386 400/400/400 387/387/387
f 387/387/387 400/400/400 401/401/401
f 387/387/387 401/401/401 388/388/388
f 388/388/388 401/401/401 402/402/402
f 388/388/388 402/402/402 389/389/389
f 389/389/389 402/402/402 403/403/403
f 389/389/389 403/403/403 390/390/390
f 391/391/391 404/404/404 405/405/405
f 391/391/391 405/405/405 392/392/392
f 392/392/392 405/405/405 406/406/406
f 392/392/392 406/406/406 393/393/393
f 393/393/393 406/406/406 407/407/407
f 393/393/393 407/407/407 394/394/394
f 394/394/394 407/407/407 408/408/408
f 394/394/394 408/408/408 395/395/395
f 395/395/395 408/408/408 409/409/409
f 395/395/395 409/409/409 396/396/396
f 396/396/396 409/409/409 410/410/410
f 396/396/396 410/410/410 397/397/397
f 397/397/397 410/410/410 411/411/411
f 397/397/397 411/411/411 398/398/398
f 398/398/398 411/411/411 412/412/412
f 398/398/398 412/412/412 399/399/399
f 399/399/399 412/412/412 413/413/413
f 399/399/399 413/413/413 400/400/400
f 400/400/400 413/413/413 414/414/414
f 400/400/400 414/414/414 401/401/401
f 401/401/401 414/414/414 415/415/415
f 401/401/401 415/415/415 402/402/402
f 402/402/402 415/415/415 416/416/416
f 402/402/402 416/416/416 403/403/403
f 404/404/404 417/417/417 418/418/418
f 404/404/404 418/418/418 405/405/405
f 405/405/405 418/418/418 419/419/419
f 405/405/405 419/419/419 406/406/406
f 406/406/406 419/419/419 420/420/420
f 406/406/406 420/420/420 407/407/407
f 407/407/407 420/420/420 421/421/421
f 407/407/407 421/421/421 408/408/408
f 408/408/408 421/421/421 422/422/422
f 408/408/408 422/422/422 409/409/409
f 409/409/409 422/422/422 423/423/423
f 409/409/409 423/423/423 410/410/410
f 410/410/410 423/423/423 424/424/424
f 410/410/410 424/424/424 411/411/411
f 411/411/411 424/424/424 425/425/425
f 411/411/411 425/425/425 412/412/412
f 412/412/412 425/425/425 426/426/426
f 412/412/412 426/426/426 413/413/413
f 413/413/413 426/426/426 427/427/427
f 413/413/413 427/427/427 414/414/414
f 414/414/414 427/427/427 428/428/428
f 414/414/414 428/428/428 415/415/415
f 415/415/415 428/428/428 429/429/429
f 415/415/415 429/429/429 416/416/416
f 417/417/417 430/430/430 431/431/431
f 417/417/417 431/431/431 418/418/418
f 418/418/418 431/431/431 432/432/432
f 418/418/418 432/432/432 419/419/419
f 419/419/419 432/432/432 433/433/433
f 419/419/419 433/433/433 420/420/420
f 420/420/420 433/433/433 434/434/434
f 420/420/420 434/434/434 421/421/421
f 421/421/421 434/434/434 435/435/435
f 421/421/421 435/435/435 422/422/422
f 422/422/422 435/435/435 436/436/436
f 422/422/422 436/436/436 423/423/423
f 423/423/423 436/436/436 437/437/437
f 423/423/423 437/437/437 424/424/424
f 424/424/424 437/437/437 438/438/438
f 424/424/424 438/438/438 425/425/425
f 425/425/425 438/438/438 439/439/439
f 425/425/425 439/439/439 426/426/426
f 426/426/426 439/439/439 440/440/440
f 426/426/426 440/440/440 427/427/427
f 427/427/427 440/440/440 441/441/441
f 427/427/427 441/441/441 428/428/428
f 428/428/428 441/441/441 442/442/442
f 428/428/428 442/442/442 429/429/429
f 430/430/430 443/443/443 444/444/444
f 430/430/430 444/444/444 431/431/431
f 431/431/431 444/444/444 445/445/445
f 431/431/431 445/445/445 432/432/432
f 432/432/432 445/445/445 446/446/446
f 432/432/432 446/446/446 433/433/433
f 433/433/433 446/446/446 447/447/447
f 433/433/433 447/447/447 434/434/434
f 434/434/434 447/447/447 448/448/448
f 434/434/434 448/448/448 435/435/435
f 435/435/435 448/448/448 449/449/449
f 435/435/435 449/449/449 436/436/436
f 436/436/436 449/449/449 450/450/450
f 436/436/436 450/450/450 437/437/437
f 437/437/437 450/450/450 451/451/451
f 437/437/437 451/451/451 438/438/438
f 438/438/438 451/451/451 452/452/452
f 438/438/438 452/452/452 439/439/439
f 439/439/439 452/452/452 453/453/453
f 439/439/439 453/453/453 440/440/440
f 440/440/440 453/453/453 454/454/454
f 440/440/440 454/454/454 441/441/441
f 441/441/441 454/454/454 455/455/455
f 441/441/441 455/455/455 442/442/442
f 443/443/443 456/456/456 457/457/457
f 443/443/443 457/457/457 444/444/444
f 444/444/444 457/457/457 458/458/458
f 444/444/444 458/458/458 445/445/445
f 445/445/445 458/458/458 459/459/459
f 445/445/445 459/459/459 446/446/446
f 446/446/446 459/459/459 460/460/460
f 446/446/446 460/460/460 447/447/447
f 447/447/447 460/460/460 461/461/461
f 447/447/447 461/461/461 448/448/448
f 448/448/448 461/461/461 462/462/462
f 448/448/448 462/462/462 449/449/449
f 449/449/449 462/462/462 463/463/463
f 449/449/449 463/463/463 450/450/450
f 450/450/450 463/463/463 464/464/464
f 450/450/450 464/464/464 451/451/451
f 451/451/451 464/464/464 465/465/465
f 451/451/451 465/465/465 452/452/452
f 452/452/452 465/465/465 466/466/466
f 452/452/452 466/466/466 453/453/453
f 453/453/453 466/466/466 467/467/467
f 453/453/453 467/467/467 454/454/454
f 454/454/454 467/467/467 468/468/468
f 454/454/454 468/468/468 455/455/455
f 456/456/456 469/469/469 470/470/470
f 456/456/456 470/470/470 457/457/457
f 457/457/457 470/470/470 471/471/471
f 457/457/457 471/471/471 458/458/458
f 458/458/458 471/471/471 472/472/472
f 458/458/458 472/472/472 459/459/459
f 459/459/459 472/472/472 473/473/473
f 459/459/459 473/473/473 460/460/460
f 460/460/460 473/473/473 474/474/474
f 460/460/460 474/474/474 461/461/461
f 461/461/461 474/474/474 475/475/475
f 461/461/461 475/475/475 462/462/462
f 462/462/462 475/475/475 476/476/476
f 462/462/462 476/476/476 463/463/463
f 463/463/463 476/476/476 477/477/477
f 463/463/463 477/477/477 464/464/464
f 464/464/464 477/477/477 478/478/478
f 464/464/464 478/478/478 465/465/465
f 465/465/465 478/478/478 479/479/479
f 465/465/465 479/479/479 466/466/466
f 466/466/466 479/479/479 480/480/480
f 466/466/466 480/480/480 467/467/467
f 467/467/467 480/480/480 481/481/481
f 467/467/467 481/481/481 468/468/468
f 469/469/469 482/482/482 483/483/483
f 469/469/469 483/483/483 470/470/470
f 470/470/470 483/483/483 484/484/484
f 470/470/470 484/484/484 471/471/471
f 471/471/471 484/484/484 485/485/485
f 471/471/471 485/485/485 472/472/472
f 472/472/472 485/485/485 486/486/486
f 472/472/472 486/486/486 473/473/473
f 473/473/473 486/486/486 487/487/487
f 473/473/473 487/487/487 474/474/474
f 474/474/474 487/487/487 488/488/488
f 474/474/474 488/488/488 475/475/475
f 475/475/475 488/488/488 489/489/489
f 475/475/475 489/489/489 476/476/476
f 476/476/476 489/489/489 490/490/490
f 476/476/476 490/490/490 477/477/477
f 477/477/477 490/490/490 491/491/491
f 477/477/477 491/491/491 478/478/478
f 478/478/478 491/491/491 492/492/492
f 478/478/478 492/492/492 479/479/479
f 479/479/479 492/492/492 493/493/493
f 479/479/479 493/493/493 480/480/480
f 480/480/480 493/493/493 494/494/494
f 480/480/480 494/494/494 481/481/481
f 482/482/482 495/495/495 496/496/496
f 482/482/482 496/496/496 483/483/483
f 483/483/483 496/496/496 497/497/497
f 483/483/483 497/497/497 484/484/484
f 484/484/484 497/497/497 498/498/498
f 484/484/484 498/498/498 485/485/485
f 485/485/485 498/498/498 499/499/499
f 485/485/485 499/499/499 486/486/486
f 486/486/486 499/499/499 500/500/500
f 486/486/486 500/500/500 487/487/487
f 487/487/487 500/500/500 501/501/501
f 487/487/487 501/501/501 488/488/488
f 488/488/488 501/501/501 502/502/502
f 488/488/488 502/502/502 489/489/489
f 489/489/489 502/502/502 503/503/503
f 489/489/489 503/503/503 490/490/490
f 490/490/490 503/503/503 504/504/504
f 490/490/490 504/504/504 491/491/491
f 491/491/491 504/504/504 505/505/505
f 491/491/491 505/505/505 492/492/492
f 492/492/492 505/505/505 506/506/506
f 492/492/492 506/506/506 493/493/493
f 493/493/493 506/506/506 507/507/507
f 493/493/493 507/507/507 494/494/494
f 495/495/495 508/508/508 509/509/509
f 495/495/495 509/509/509 496/496/496
f 496/496/496 509/509/509 510/510/510
f 496/496/496 510/510/510 497/497/497
f 497/497/497 510/510/510 511/511/511
f 497/497/497 511/511/511 498/498/498
f 498/498/498 511/511/511 512/512/512
f 498/498/498 512/512/512 499/499/499
f 499/499/499 512/512/512 513/513/513
f 499/499/499 513/513/513 500/500/500
f 500/500/500 513/513/513 514/514/514
f 500/500/500 514/514/514 501/501/501
f 501/501/501 514/514/514 515/515/515
f 501/501/501 515/515/515 502/502/502
f 502/502/502 515/515/515 516/516/516
f 502/502/502 516/516/516 503/503/503
f 503/503/503 516/516/516 517/517/517
f 503/503/503 517/517/517 504/504/504
f 504/504/504 517/517/517 518/518/518
f 504/504/504 518/518/518 505/505/505
f 505/505/505 518/518/518 519/519/519
f 505/505/505 519/519/519 506/506/506
f 506/506/506 519/519/519 520/520/520
f 506/506/506 520/520/520 507/507/507
f 508/508/508 521/521/521 522/522/522
f 508/508/508 522/522/522 509/509/509
f 509/509/509 522/522/522 523/523/523
f 509/509/509 523/523/523 510/510/510
f 510/510/510 523/523/523 524/524/524
f 510/510/510 524/524/524 511/511/511
f 511/511/511 524/524/524 525/525/525
f 511/511/511 525/525/525 512/512/512
f 512/512/512 525/525/525 526/526/526
f 512/512/512 526/526/526 513/513/513
f 513/513/513 526/526/526 527/527/527
f 513/513/513 527/527/527 514/514/514
f 514/514/514 527/527/527 528/528/528
f 514/514/514 528/528/528 515/515/515
f 515/515/515 528/528/528 529/529/529
f 515/515/515 529/529/529 516/516/516
f 516/516/516 529/529/529 530/530/530
f 516/516/516 530/530/530 517/517/517
f 517/517/517 530/530/530 531/531/531
f 517/517/517 531/531/531 518/518/518
f 518/518/518 531/531/531 532/532/532
f 518/518/518 532/532/532 519/519/519
f 519/519/519 532/532/532 533/533/533
f 519/519/519 533/533/533 520/520/520
