# generated by tools/make_gecko_mesh.py -- do not hand-edit
v 0.000209 0.003516 0.000000
v 0.000209 0.003434 0.000777
v 0.000209 0.003191 0.001445
v 0.000209 0.002796 0.002025
v 0.000209 0.002265 0.002500
v 0.000209 0.001617 0.002852
v 0.000209 0.000869 0.003069
v 0.000209 0.000000 0.003143
v 0.000209 -0.000869 0.003069
v 0.000209 -0.001617 0.002852
v 0.000209 -0.002265 0.002500
v 0.000209 -0.002796 0.002025
v 0.000209 -0.003191 0.001445
v 0.000209 -0.003434 0.000777
v 0.000209 -0.003516 0.000000
v 0.000209 -0.003428 -0.000699
v 0.000209 -0.003168 -0.001364
v 0.000209 -0.002749 -0.001960
v 0.000209 -0.002192 -0.002457
v 0.000209 -0.001525 -0.002832
v 0.000209 -0.000782 -0.003064
v 0.000209 -0.000000 -0.003143
v 0.000209 0.000782 -0.003064
v 0.000209 0.001525 -0.002832
v 0.000209 0.002192 -0.002457
v 0.000209 0.002749 -0.001960
v 0.000209 0.003168 -0.001364
v 0.000209 0.003428 -0.000699
v 0.000209 0.003516 0.000000
v -0.000725 0.003224 0.000000
v -0.000725 0.003149 0.000712
v -0.000725 0.002926 0.001325
v -0.000725 0.002564 0.001857
v -0.000725 0.002077 0.002292
v -0.000725 0.001483 0.002616
v -0.000725 0.000797 0.002815
v -0.000725 0.000000 0.002882
v -0.000725 -0.000797 0.002815
v -0.000725 -0.001483 0.002616
v -0.000725 -0.002077 0.002292
v -0.000725 -0.002564 0.001857
v -0.000725 -0.002926 0.001325
v -0.000725 -0.003149 0.000712
v -0.000725 -0.003224 0.000000
v -0.000725 -0.003143 -0.000641
v -0.000725 -0.002905 -0.001250
v -0.000725 -0.002521 -0.001797
v -0.000725 -0.002010 -0.002253
v -0.000725 -0.001399 -0.002597
v -0.000725 -0.000717 -0.002810
v -0.000725 -0.000000 -0.002882
v -0.000725 0.000717 -0.002810
v -0.000725 0.001399 -0.002597
v -0.000725 0.002010 -0.002253
v -0.000725 0.002521 -0.001797
v -0.000725 0.002905 -0.001250
v -0.000725 0.003143 -0.000641
v -0.000725 0.003224 0.000000
v -0.001659 0.002966 0.000000
v -0.001659 0.002897 0.000655
v -0.001659 0.002692 0.001219
v -0.001659 0.002359 0.001709
v -0.001659 0.001911 0.002109
v -0.001659 0.001364 0.002406
v -0.001659 0.000733 0.002589
v -0.001659 0.000000 0.002651
v -0.001659 -0.000733 0.002589
v -0.001659 -0.001364 0.002406
v -0.001659 -0.001911 0.002109
v -0.001659 -0.002359 0.001709
v -0.001659 -0.002692 0.001219
v -0.001659 -0.002897 0.000655
v -0.001659 -0.002966 0.000000
v -0.001659 -0.002892 -0.000590
v -0.001659 -0.002672 -0.001150
v -0.001659 -0.002319 -0.001653
v -0.001659 -0.001849 -0.002073
v -0.001659 -0.001287 -0.002389
v -0.001659 -0.000660 -0.002585
v -0.001659 -0.000000 -0.002651
v -0.001659 0.000660 -0.002585
v -0.001659 0.001287 -0.002389
v -0.001659 0.001849 -0.002073
v -0.001659 0.002319 -0.001653
v -0.001659 0.002672 -0.001150
v -0.001659 0.002892 -0.000590
v -0.001659 0.002966 0.000000
v -0.002593 0.002756 0.000000
v -0.002593 0.002691 0.000609
v -0.002593 0.002501 0.001133
v -0.002593 0.002192 0.001587
v -0.002593 0.001776 0.001959
v -0.002593 0.001267 0.002236
v -0.002593 0.000681 0.002406
v -0.002593 0.000000 0.002464
v -0.002593 -0.000681 0.002406
v -0.002593 -0.001267 0.002236
v -0.002593 -0.001776 0.001959
v -0.002593 -0.002192 0.001587
v -0.002593 -0.002501 0.001133
v -0.002593 -0.002691 0.000609
v -0.002593 -0.002756 0.000000
v -0.002593 -0.002687 -0.000548
v -0.002593 -0.002483 -0.001069
v -0.002593 -0.002155 -0.001536
v -0.002593 -0.001718 -0.001926
v -0.002593 -0.001196 -0.002220
v -0.002593 -0.000613 -0.002402
v -0.002593 -0.000000 -0.002464
v -0.002593 0.000613 -0.002402
v -0.002593 0.001196 -0.002220
v -0.002593 0.001718 -0.001926
v -0.002593 0.002155 -0.001536
v -0.002593 0.002483 -0.001069
v -0.002593 0.002687 -0.000548
v -0.002593 0.002756 0.000000
v -0.003527 0.002608 0.000000
v -0.003527 0.002547 0.000576
v -0.003527 0.002367 0.001072
v -0.003527 0.002074 0.001502
v -0.003527 0.001680 0.001854
v -0.003527 0.001199 0.002116
v -0.003527 0.000644 0.002277
v -0.003527 0.000000 0.002331
v -0.003527 -0.000644 0.002277
v -0.003527 -0.001199 0.002116
v -0.003527 -0.001680 0.001854
v -0.003527 -0.002074 0.001502
v -0.003527 -0.002367 0.001072
v -0.003527 -0.002547 0.000576
v -0.003527 -0.002608 0.000000
v -0.003527 -0.002542 -0.000519
v -0.003527 -0.002349 -0.001011
v -0.003527 -0.002039 -0.001453
v -0.003527 -0.001626 -0.001822
v -0.003527 -0.001131 -0.002100
v -0.003527 -0.000580 -0.002273
v -0.003527 -0.000000 -0.002331
v -0.003527 0.000580 -0.002273
v -0.003527 0.001131 -0.002100
v -0.003527 0.001626 -0.001822
v -0.003527 0.002039 -0.001453
v -0.003527 0.002349 -0.001011
v -0.003527 0.002542 -0.000519
v -0.003527 0.002608 0.000000
v -0.004461 0.002535 0.000000
v -0.004461 0.002476 0.000560
v -0.004461 0.002301 0.001042
v -0.004461 0.002017 0.001460
v -0.004461 0.001634 0.001803
v -0.004461 0.001166 0.002057
v -0.004461 0.000627 0.002214
v -0.004461 0.000000 0.002266
v -0.004461 -0.000627 0.002214
v -0.004461 -0.001166 0.002057
v -0.004461 -0.001634 0.001803
v -0.004461 -0.002017 0.001460
v -0.004461 -0.002301 0.001042
v -0.004461 -0.002476 0.000560
v -0.004461 -0.002535 0.000000
v -0.004461 -0.002472 -0.000504
v -0.004461 -0.002284 -0.000983
v -0.004461 -0.001982 -0.001413
v -0.004461 -0.001581 -0.001772
v -0.004461 -0.001100 -0.002042
v -0.004461 -0.000564 -0.002210
v -0.004461 -0.000000 -0.002266
v -0.004461 0.000564 -0.002210
v -0.004461 0.001100 -0.002042
v -0.004461 0.001581 -0.001772
v -0.004461 0.001982 -0.001413
v -0.004461 0.002284 -0.000983
v -0.004461 0.002472 -0.000504
v -0.004461 0.002535 0.000000
v -0.005395 0.002496 0.000000
v -0.005395 0.002437 0.000551
v -0.005395 0.002265 0.001026
v -0.005395 0.001985 0.001438
v -0.005395 0.001608 0.001774
v -0.005395 0.001148 0.002025
v -0.005395 0.000617 0.002179
v -0.005395 0.000000 0.002231
v -0.005395 -0.000617 0.002179
v -0.005395 -0.001148 0.002025
v -0.005395 -0.001608 0.001774
v -0.005395 -0.001985 0.001438
v -0.005395 -0.002265 0.001026
v -0.005395 -0.002437 0.000551
v -0.005395 -0.002496 0.000000
v -0.005395 -0.002433 -0.000496
v -0.005395 -0.002248 -0.000968
v -0.005395 -0.001951 -0.001391
v -0.005395 -0.001556 -0.001744
v -0.005395 -0.001083 -0.002010
v -0.005395 -0.000555 -0.002175
v -0.005395 -0.000000 -0.002231
v -0.005395 0.000555 -0.002175
v -0.005395 0.001083 -0.002010
v -0.005395 0.001556 -0.001744
v -0.005395 0.001951 -0.001391
v -0.005395 0.002248 -0.000968
v -0.005395 0.002433 -0.000496
v -0.005395 0.002496 0.000000
v -0.006329 0.002337 0.000000
v -0.006329 0.002282 0.000516
v -0.006329 0.002121 0.000961
v -0.006329 0.001859 0.001346
v -0.006329 0.001506 0.001661
v -0.006329 0.001075 0.001896
v -0.006329 0.000577 0.002040
v -0.006329 0.000000 0.002089
v -0.006329 -0.000577 0.002040
v -0.006329 -0.001075 0.001896
v -0.006329 -0.001506 0.001661
v -0.006329 -0.001859 0.001346
v -0.006329 -0.002121 0.000961
v -0.006329 -0.002282 0.000516
v -0.006329 -0.002337 0.000000
v -0.006329 -0.002278 -0.000465
v -0.006329 -0.002105 -0.000906
v -0.006329 -0.001827 -0.001302
v -0.006329 -0.001457 -0.001633
v -0.006329 -0.001014 -0.001882
v -0.006329 -0.000520 -0.002036
v -0.006329 -0.000000 -0.002089
v -0.006329 0.000520 -0.002036
v -0.006329 0.001014 -0.001882
v -0.006329 0.001457 -0.001633
v -0.006329 0.001827 -0.001302
v -0.006329 0.002105 -0.000906
v -0.006329 0.002278 -0.000465
v -0.006329 0.002337 0.000000
v -0.007263 0.002087 0.000000
v -0.007263 0.002039 0.000461
v -0.007263 0.001894 0.000858
v -0.007263 0.001660 0.001202
v -0.007263 0.001345 0.001484
v -0.007263 0.000960 0.001693
v -0.007263 0.000516 0.001822
v -0.007263 0.000000 0.001866
v -0.007263 -0.000516 0.001822
v -0.007263 -0.000960 0.001693
v -0.007263 -0.001345 0.001484
v -0.007263 -0.001660 0.001202
v -0.007263 -0.001894 0.000858
v -0.007263 -0.002039 0.000461
v -0.007263 -0.002087 0.000000
v -0.007263 -0.002035 -0.000415
v -0.007263 -0.001881 -0.000810
v -0.007263 -0.001632 -0.001163
v -0.007263 -0.001301 -0.001459
v -0.007263 -0.000906 -0.001681
v -0.007263 -0.000464 -0.001819
v -0.007263 -0.000000 -0.001866
v -0.007263 0.000464 -0.001819
v -0.007263 0.000906 -0.001681
v -0.007263 0.001301 -0.001459
v -0.007263 0.001632 -0.001163
v -0.007263 0.001881 -0.000810
v -0.007263 0.002035 -0.000415
v -0.007263 0.002087 0.000000
v -0.008197 0.001789 0.000000
v -0.008197 0.001747 0.000395
v -0.008197 0.001624 0.000736
v -0.008197 0.001423 0.001031
v -0.008197 0.001153 0.001272
v -0.008197 0.000823 0.001452
v -0.008197 0.000442 0.001562
v -0.008197 0.000000 0.001599
v -0.008197 -0.000442 0.001562
v -0.008197 -0.000823 0.001452
v -0.008197 -0.001153 0.001272
v -0.008197 -0.001423 0.001031
v -0.008197 -0.001624 0.000736
v -0.008197 -0.001747 0.000395
v -0.008197 -0.001789 0.000000
v -0.008197 -0.001744 -0.000356
v -0.008197 -0.001612 -0.000694
v -0.008197 -0.001399 -0.000997
v -0.008197 -0.001116 -0.001250
v -0.008197 -0.000776 -0.001441
v -0.008197 -0.000398 -0.001559
v -0.008197 -0.000000 -0.001599
v -0.008197 0.000398 -0.001559
v -0.008197 0.000776 -0.001441
v -0.008197 0.001116 -0.001250
v -0.008197 0.001399 -0.000997
v -0.008197 0.001612 -0.000694
v -0.008197 0.001744 -0.000356
v -0.008197 0.001789 0.000000
v -0.009132 0.001484 0.000000
v -0.009132 0.001450 0.000328
v -0.009132 0.001347 0.000610
v -0.009132 0.001181 0.000855
v -0.009132 0.000957 0.001055
v -0.009132 0.000683 0.001204
v -0.009132 0.000367 0.001296
v -0.009132 0.000000 0.001327
v -0.009132 -0.000367 0.001296
v -0.009132 -0.000683 0.001204
v -0.009132 -0.000957 0.001055
v -0.009132 -0.001181 0.000855
v -0.009132 -0.001347 0.000610
v -0.009132 -0.001450 0.000328
v -0.009132 -0.001484 0.000000
v -0.009132 -0.001447 -0.000295
v -0.009132 -0.001337 -0.000576
v -0.009132 -0.001161 -0.000827
v -0.009132 -0.000926 -0.001037
v -0.009132 -0.000644 -0.001196
v -0.009132 -0.000330 -0.001294
v -0.009132 -0.000000 -0.001327
v -0.009132 0.000330 -0.001294
v -0.009132 0.000644 -0.001196
v -0.009132 0.000926 -0.001037
v -0.009132 0.001161 -0.000827
v -0.009132 0.001337 -0.000576
v -0.009132 0.001447 -0.000295
v -0.009132 0.001484 0.000000
v -0.010066 0.001215 0.000000
v -0.010066 0.001187 0.000268
v -0.010066 0.001103 0.000499
v -0.010066 0.000966 0.000700
v -0.010066 0.000783 0.000864
v -0.010066 0.000559 0.000986
v -0.010066 0.000300 0.001061
v -0.010066 0.000000 0.001086
v -0.010066 -0.000300 0.001061
v -0.010066 -0.000559 0.000986
v -0.010066 -0.000783 0.000864
v -0.010066 -0.000966 0.000700
v -0.010066 -0.001103 0.000499
v -0.010066 -0.001187 0.000268
v -0.010066 -0.001215 0.000000
v -0.010066 -0.001184 -0.000242
v -0.010066 -0.001095 -0.000471
v -0.010066 -0.000950 -0.000677
v -0.010066 -0.000757 -0.000849
v -0.010066 -0.000527 -0.000978
v -0.010066 -0.000270 -0.001059
v -0.010066 -0.000000 -0.001086
v -0.010066 0.000270 -0.001059
v -0.010066 0.000527 -0.000978
v -0.010066 0.000757 -0.000849
v -0.010066 0.000950 -0.000677
v -0.010066 0.001095 -0.000471
v -0.010066 0.001184 -0.000242
v -0.010066 0.001215 0.000000
v -0.011000 0.001022 0.000000
v -0.011000 0.000999 0.000226
v -0.011000 0.000928 0.000420
v -0.011000 0.000813 0.000589
v -0.011000 0.000659 0.000727
v -0.011000 0.000470 0.000830
v -0.011000 0.000253 0.000893
v -0.011000 0.000000 0.000914
v -0.011000 -0.000253 0.000893
v -0.011000 -0.000470 0.000830
v -0.011000 -0.000659 0.000727
v -0.011000 -0.000813 0.000589
v -0.011000 -0.000928 0.000420
v -0.011000 -0.000999 0.000226
v -0.011000 -0.001022 0.000000
v -0.011000 -0.000997 -0.000203
v -0.011000 -0.000921 -0.000397
v -0.011000 -0.000799 -0.000570
v -0.011000 -0.000637 -0.000715
v -0.011000 -0.000444 -0.000823
v -0.011000 -0.000228 -0.000891
v -0.011000 -0.000000 -0.000914
v -0.011000 0.000228 -0.000891
v -0.011000 0.000444 -0.000823
v -0.011000 0.000637 -0.000715
v -0.011000 0.000799 -0.000570
v -0.011000 0.000921 -0.000397
v -0.011000 0.000997 -0.000203
v -0.011000 0.001022 0.000000
v -0.011934 0.000949 0.000000
v -0.011934 0.000927 0.000210
v -0.011934 0.000861 0.000390
v -0.011934 0.000755 0.000547
v -0.011934 0.000612 0.000675
v -0.011934 0.000436 0.000770
v -0.011934 0.000235 0.000829
v -0.011934 0.000000 0.000848
v -0.011934 -0.000235 0.000829
v -0.011934 -0.000436 0.000770
v -0.011934 -0.000612 0.000675
v -0.011934 -0.000755 0.000547
v -0.011934 -0.000861 0.000390
v -0.011934 -0.000927 0.000210
v -0.011934 -0.000949 0.000000
v -0.011934 -0.000925 -0.000189
v -0.011934 -0.000855 -0.000368
v -0.011934 -0.000742 -0.000529
v -0.011934 -0.000592 -0.000663
v -0.011934 -0.000412 -0.000764
v -0.011934 -0.000211 -0.000827
v -0.011934 -0.000000 -0.000848
v -0.011934 0.000211 -0.000827
v -0.011934 0.000412 -0.000764
v -0.011934 0.000592 -0.000663
v -0.011934 0.000742 -0.000529
v -0.011934 0.000855 -0.000368
v -0.011934 0.000925 -0.000189
v -0.011934 0.000949 0.000000
v -0.012117 0.000930 0.000000
v -0.012117 0.000909 0.000206
v -0.012117 0.000845 0.000382
v -0.012117 0.000740 0.000536
v -0.012117 0.000600 0.000661
v -0.012117 0.000428 0.000754
v -0.012117 0.000230 0.000812
v -0.012117 0.000001 0.000831
v -0.012117 -0.000229 0.000812
v -0.012117 -0.000427 0.000754
v -0.012117 -0.000598 0.000661
v -0.012117 -0.000739 0.000536
v -0.012117 -0.000843 0.000382
v -0.012117 -0.000907 0.000206
v -0.012117 -0.000929 0.000000
v -0.012117 -0.000906 -0.000185
v -0.012117 -0.000837 -0.000361
v -0.012117 -0.000726 -0.000518
v -0.012117 -0.000579 -0.000650
v -0.012117 -0.000403 -0.000749
v -0.012117 -0.000206 -0.000810
v -0.012117 0.000001 -0.000831
v -0.012117 0.000208 -0.000810
v -0.012117 0.000404 -0.000749
v -0.012117 0.000580 -0.000650
v -0.012117 0.000728 -0.000518
v -0.012117 0.000838 -0.000361
v -0.012117 0.000907 -0.000185
v -0.012117 0.000930 0.000000
v -0.012301 0.000872 0.000000
v -0.012301 0.000852 0.000193
v -0.012301 0.000792 0.000358
v -0.012301 0.000695 0.000501
v -0.012301 0.000563 0.000619
v -0.012301 0.000403 0.000706
v -0.012301 0.000218 0.000760
v -0.012301 0.000003 0.000778
v -0.012301 -0.000212 0.000760
v -0.012301 -0.000397 0.000706
v -0.012301 -0.000558 0.000619
v -0.012301 -0.000689 0.000501
v -0.012301 -0.000787 0.000358
v -0.012301 -0.000847 0.000193
v -0.012301 -0.000867 0.000000
v -0.012301 -0.000845 -0.000173
v -0.012301 -0.000781 -0.000337
v -0.012301 -0.000677 -0.000484
v -0.012301 -0.000540 -0.000607
v -0.012301 -0.000375 -0.000700
v -0.012301 -0.000191 -0.000758
v -0.012301 0.000003 -0.000777
v -0.012301 0.000196 -0.000758
v -0.012301 0.000380 -0.000700
v -0.012301 0.000545 -0.000607
v -0.012301 0.000683 -0.000484
v -0.012301 0.000786 -0.000337
v -0.012301 0.000851 -0.000173
v -0.012301 0.000872 0.000000
v -0.012485 0.000766 0.000001
v -0.012485 0.000748 0.000169
v -0.012485 0.000696 0.000313
v -0.012485 0.000610 0.000438
v -0.012485 0.000496 0.000541
v -0.012485 0.000356 0.000617
v -0.012485 0.000194 0.000664
v -0.012485 0.000007 0.000680
v -0.012485 -0.000181 0.000664
v -0.012485 -0.000343 0.000617
v -0.012485 -0.000483 0.000541
v -0.012485 -0.000597 0.000438
v -0.012485 -0.000682 0.000313
v -0.012485 -0.000735 0.000169
v -0.012485 -0.000753 0.000001
v -0.012485 -0.000734 -0.000150
v -0.012485 -0.000677 -0.000293
v -0.012485 -0.000587 -0.000422
v -0.012485 -0.000467 -0.000530
v -0.012485 -0.000323 -0.000610
v -0.012485 -0.000162 -0.000661
v -0.012485 0.000007 -0.000678
v -0.012485 0.000175 -0.000661
v -0.012485 0.000336 -0.000610
v -0.012485 0.000480 -0.000530
v -0.012485 0.000600 -0.000422
v -0.012485 0.000691 -0.000293
v -0.012485 0.000747 -0.000150
v -0.012485 0.000766 0.000001
v -0.012668 0.000582 0.000002
v -0.012668 0.000569 0.000128
v -0.012668 0.000530 0.000236
v -0.012668 0.000466 0.000330
v -0.012668 0.000380 0.000407
v -0.012668 0.000275 0.000464
v -0.012668 0.000154 0.000499
v -0.012668 0.000013 0.000511
v -0.012668 -0.000128 0.000499
v -0.012668 -0.000249 0.000464
v -0.012668 -0.000354 0.000407
v -0.012668 -0.000440 0.000330
v -0.012668 -0.000504 0.000236
v -0.012668 -0.000543 0.000128
v -0.012668 -0.000556 0.000002
v -0.012668 -0.000542 -0.000111
v -0.012668 -0.000500 -0.000219
v -0.012668 -0.000432 -0.000315
v -0.012668 -0.000342 -0.000396
v -0.012668 -0.000234 -0.000456
v -0.012668 -0.000114 -0.000494
v -0.012668 0.000013 -0.000507
v -0.012668 0.000140 -0.000494
v -0.012668 0.000260 -0.000456
v -0.012668 0.000368 -0.000396
v -0.012668 0.000458 -0.000315
v -0.012668 0.000526 -0.000219
v -0.012668 0.000568 -0.000111
v -0.012668 0.000582 0.000002
v -0.012852 0.000033 0.000005
v -0.012852 0.000033 0.000005
v -0.012852 0.000033 0.000005
v -0.012852 0.000033 0.000005
v -0.012852 0.000033 0.000005
v -0.012852 0.000033 0.000005
v -0.012852 0.000033 0.000005
v -0.012852 0.000033 0.000005
v -0.012852 0.000033 0.000005
v -0.012852 0.000033 0.000005
v -0.012852 0.000033 0.000005
v -0.012852 0.000033 0.000005
v -0.012852 0.000033 0.000005
v -0.012852 0.000033 0.000005
v -0.012852 0.000033 0.000005
v -0.012852 0.000033 0.000005
v -0.012852 0.000033 0.000005
v -0.012852 0.000033 0.000005
v -0.012852 0.000033 0.000005
v -0.012852 0.000033 0.000005
v -0.012852 0.000033 0.000005
v -0.012852 0.000033 0.000005
v -0.012852 0.000033 0.000005
v -0.012852 0.000033 0.000005
v -0.012852 0.000033 0.000005
v -0.012852 0.000033 0.000005
v -0.012852 0.000033 0.000005
v -0.012852 0.000033 0.000005
v -0.012852 0.000033 0.000005
vt 0.00000 5.84748
vt 0.07143 5.84748
vt 0.14286 5.84748
vt 0.21429 5.84748
vt 0.28571 5.84748
vt 0.35714 5.84748
vt 0.42857 5.84748
vt 0.50000 5.84748
vt 0.57143 5.84748
vt 0.64286 5.84748
vt 0.71429 5.84748
vt 0.78571 5.84748
vt 0.85714 5.84748
vt 0.92857 5.84748
vt 1.00000 5.84748
vt 1.07143 5.84748
vt 1.14286 5.84748
vt 1.21429 5.84748
vt 1.28571 5.84748
vt 1.35714 5.84748
vt 1.42857 5.84748
vt 1.50000 5.84748
vt 1.57143 5.84748
vt 1.64286 5.84748
vt 1.71429 5.84748
vt 1.78571 5.84748
vt 1.85714 5.84748
vt 1.92857 5.84748
vt 2.00000 5.84748
vt 0.00000 5.87861
vt 0.07143 5.87861
vt 0.14286 5.87861
vt 0.21429 5.87861
vt 0.28571 5.87861
vt 0.35714 5.87861
vt 0.42857 5.87861
vt 0.50000 5.87861
vt 0.57143 5.87861
vt 0.64286 5.87861
vt 0.71429 5.87861
vt 0.78571 5.87861
vt 0.85714 5.87861
vt 0.92857 5.87861
vt 1.00000 5.87861
vt 1.07143 5.87861
vt 1.14286 5.87861
vt 1.21429 5.87861
vt 1.28571 5.87861
vt 1.35714 5.87861
vt 1.42857 5.87861
vt 1.50000 5.87861
vt 1.57143 5.87861
vt 1.64286 5.87861
vt 1.71429 5.87861
vt 1.78571 5.87861
vt 1.85714 5.87861
vt 1.92857 5.87861
vt 2.00000 5.87861
vt 0.00000 5.90975
vt 0.07143 5.90975
vt 0.14286 5.90975
vt 0.21429 5.90975
vt 0.28571 5.90975
vt 0.35714 5.90975
vt 0.42857 5.90975
vt 0.50000 5.90975
vt 0.57143 5.90975
vt 0.64286 5.90975
vt 0.71429 5.90975
vt 0.78571 5.90975
vt 0.85714 5.90975
vt 0.92857 5.90975
vt 1.00000 5.90975
vt 1.07143 5.90975
vt 1.14286 5.90975
vt 1.21429 5.90975
vt 1.28571 5.90975
vt 1.35714 5.90975
vt 1.42857 5.90975
vt 1.50000 5.90975
vt 1.57143 5.90975
vt 1.64286 5.90975
vt 1.71429 5.90975
vt 1.78571 5.90975
vt 1.85714 5.90975
vt 1.92857 5.90975
vt 2.00000 5.90975
vt 0.00000 5.94089
vt 0.07143 5.94089
vt 0.14286 5.94089
vt 0.21429 5.94089
vt 0.28571 5.94089
vt 0.35714 5.94089
vt 0.42857 5.94089
vt 0.50000 5.94089
vt 0.57143 5.94089
vt 0.64286 5.94089
vt 0.71429 5.94089
vt 0.78571 5.94089
vt 0.85714 5.94089
vt 0.92857 5.94089
vt 1.00000 5.94089
vt 1.07143 5.94089
vt 1.14286 5.94089
vt 1.21429 5.94089
vt 1.28571 5.94089
vt 1.35714 5.94089
vt 1.42857 5.94089
vt 1.50000 5.94089
vt 1.57143 5.94089
vt 1.64286 5.94089
vt 1.71429 5.94089
vt 1.78571 5.94089
vt 1.85714 5.94089
vt 1.92857 5.94089
vt 2.00000 5.94089
vt 0.00000 5.97202
vt 0.07143 5.97202
vt 0.14286 5.97202
vt 0.21429 5.97202
vt 0.28571 5.97202
vt 0.35714 5.97202
vt 0.42857 5.97202
vt 0.50000 5.97202
vt 0.57143 5.97202
vt 0.64286 5.97202
vt 0.71429 5.97202
vt 0.78571 5.97202
vt 0.85714 5.97202
vt 0.92857 5.97202
vt 1.00000 5.97202
vt 1.07143 5.97202
vt 1.14286 5.97202
vt 1.21429 5.97202
vt 1.28571 5.97202
vt 1.35714 5.97202
vt 1.42857 5.97202
vt 1.50000 5.97202
vt 1.57143 5.97202
vt 1.64286 5.97202
vt 1.71429 5.97202
vt 1.78571 5.97202
vt 1.85714 5.97202
vt 1.92857 5.97202
vt 2.00000 5.97202
vt 0.00000 6.00316
vt 0.07143 6.00316
vt 0.14286 6.00316
vt 0.21429 6.00316
vt 0.28571 6.00316
vt 0.35714 6.00316
vt 0.42857 6.00316
vt 0.50000 6.00316
vt 0.57143 6.00316
vt 0.64286 6.00316
vt 0.71429 6.00316
vt 0.78571 6.00316
vt 0.85714 6.00316
vt 0.92857 6.00316
vt 1.00000 6.00316
vt 1.07143 6.00316
vt 1.14286 6.00316
vt 1.21429 6.00316
vt 1.28571 6.00316
vt 1.35714 6.00316
vt 1.42857 6.00316
vt 1.50000 6.00316
vt 1.57143 6.00316
vt 1.64286 6.00316
vt 1.71429 6.00316
vt 1.78571 6.00316
vt 1.85714 6.00316
vt 1.92857 6.00316
vt 2.00000 6.00316
vt 0.00000 6.03430
vt 0.07143 6.03430
vt 0.14286 6.03430
vt 0.21429 6.03430
vt 0.28571 6.03430
vt 0.35714 6.03430
vt 0.42857 6.03430
vt 0.50000 6.03430
vt 0.57143 6.03430
vt 0.64286 6.03430
vt 0.71429 6.03430
vt 0.78571 6.03430
vt 0.85714 6.03430
vt 0.92857 6.03430
vt 1.00000 6.03430
vt 1.07143 6.03430
vt 1.14286 6.03430
vt 1.21429 6.03430
vt 1.28571 6.03430
vt 1.35714 6.03430
vt 1.42857 6.03430
vt 1.50000 6.03430
vt 1.57143 6.03430
vt 1.64286 6.03430
vt 1.71429 6.03430
vt 1.78571 6.03430
vt 1.85714 6.03430
vt 1.92857 6.03430
vt 2.00000 6.03430
vt 0.00000 6.06543
vt 0.07143 6.06543
vt 0.14286 6.06543
vt 0.21429 6.06543
vt 0.28571 6.06543
vt 0.35714 6.06543
vt 0.42857 6.06543
vt 0.50000 6.06543
vt 0.57143 6.06543
vt 0.64286 6.06543
vt 0.71429 6.06543
vt 0.78571 6.06543
vt 0.85714 6.06543
vt 0.92857 6.06543
vt 1.00000 6.06543
vt 1.07143 6.06543
vt 1.14286 6.06543
vt 1.21429 6.06543
vt 1.28571 6.06543
vt 1.35714 6.06543
vt 1.42857 6.06543
vt 1.50000 6.06543
vt 1.57143 6.06543
vt 1.64286 6.06543
vt 1.71429 6.06543
vt 1.78571 6.06543
vt 1.85714 6.06543
vt 1.92857 6.06543
vt 2.00000 6.06543
vt 0.00000 6.09657
vt 0.07143 6.09657
vt 0.14286 6.09657
vt 0.21429 6.09657
vt 0.28571 6.09657
vt 0.35714 6.09657
vt 0.42857 6.09657
vt 0.50000 6.09657
vt 0.57143 6.09657
vt 0.64286 6.09657
vt 0.71429 6.09657
vt 0.78571 6.09657
vt 0.85714 6.09657
vt 0.92857 6.09657
vt 1.00000 6.09657
vt 1.07143 6.09657
vt 1.14286 6.09657
vt 1.21429 6.09657
vt 1.28571 6.09657
vt 1.35714 6.09657
vt 1.42857 6.09657
vt 1.50000 6.09657
vt 1.57143 6.09657
vt 1.64286 6.09657
vt 1.71429 6.09657
vt 1.78571 6.09657
vt 1.85714 6.09657
vt 1.92857 6.09657
vt 2.00000 6.09657
vt 0.00000 6.12771
vt 0.07143 6.12771
vt 0.14286 6.12771
vt 0.21429 6.12771
vt 0.28571 6.12771
vt 0.35714 6.12771
vt 0.42857 6.12771
vt 0.50000 6.12771
vt 0.57143 6.12771
vt 0.64286 6.12771
vt 0.71429 6.12771
vt 0.78571 6.12771
vt 0.85714 6.12771
vt 0.92857 6.12771
vt 1.00000 6.12771
vt 1.07143 6.12771
vt 1.14286 6.12771
vt 1.21429 6.12771
vt 1.28571 6.12771
vt 1.35714 6.12771
vt 1.42857 6.12771
vt 1.50000 6.12771
vt 1.57143 6.12771
vt 1.64286 6.12771
vt 1.71429 6.12771
vt 1.78571 6.12771
vt 1.85714 6.12771
vt 1.92857 6.12771
vt 2.00000 6.12771
vt 0.00000 6.15884
vt 0.07143 6.15884
vt 0.14286 6.15884
vt 0.21429 6.15884
vt 0.28571 6.15884
vt 0.35714 6.15884
vt 0.42857 6.15884
vt 0.50000 6.15884
vt 0.57143 6.15884
vt 0.64286 6.15884
vt 0.71429 6.15884
vt 0.78571 6.15884
vt 0.85714 6.15884
vt 0.92857 6.15884
vt 1.00000 6.15884
vt 1.07143 6.15884
vt 1.14286 6.15884
vt 1.21429 6.15884
vt 1.28571 6.15884
vt 1.35714 6.15884
vt 1.42857 6.15884
vt 1.50000 6.15884
vt 1.57143 6.15884
vt 1.64286 6.15884
vt 1.71429 6.15884
vt 1.78571 6.15884
vt 1.85714 6.15884
vt 1.92857 6.15884
vt 2.00000 6.15884
vt 0.00000 6.18998
vt 0.07143 6.18998
vt 0.14286 6.18998
vt 0.21429 6.18998
vt 0.28571 6.18998
vt 0.35714 6.18998
vt 0.42857 6.18998
vt 0.50000 6.18998
vt 0.57143 6.18998
vt 0.64286 6.18998
vt 0.71429 6.18998
vt 0.78571 6.18998
vt 0.85714 6.18998
vt 0.92857 6.18998
vt 1.00000 6.18998
vt 1.07143 6.18998
vt 1.14286 6.18998
vt 1.21429 6.18998
vt 1.28571 6.18998
vt 1.35714 6.18998
vt 1.42857 6.18998
vt 1.50000 6.18998
vt 1.57143 6.18998
vt 1.64286 6.18998
vt 1.71429 6.18998
vt 1.78571 6.18998
vt 1.85714 6.18998
vt 1.92857 6.18998
vt 2.00000 6.18998
vt 0.00000 6.22112
vt 0.07143 6.22112
vt 0.14286 6.22112
vt 0.21429 6.22112
vt 0.28571 6.22112
vt 0.35714 6.22112
vt 0.42857 6.22112
vt 0.50000 6.22112
vt 0.57143 6.22112
vt 0.64286 6.22112
vt 0.71429 6.22112
vt 0.78571 6.22112
vt 0.85714 6.22112
vt 0.92857 6.22112
vt 1.00000 6.22112
vt 1.07143 6.22112
vt 1.14286 6.22112
vt 1.21429 6.22112
vt 1.28571 6.22112
vt 1.35714 6.22112
vt 1.42857 6.22112
vt 1.50000 6.22112
vt 1.57143 6.22112
vt 1.64286 6.22112
vt 1.71429 6.22112
vt 1.78571 6.22112
vt 1.85714 6.22112
vt 1.92857 6.22112
vt 2.00000 6.22112
vt 0.00000 6.25226
vt 0.07143 6.25226
vt 0.14286 6.25226
vt 0.21429 6.25226
vt 0.28571 6.25226
vt 0.35714 6.25226
vt 0.42857 6.25226
vt 0.50000 6.25226
vt 0.57143 6.25226
vt 0.64286 6.25226
vt 0.71429 6.25226
vt 0.78571 6.25226
vt 0.85714 6.25226
vt 0.92857 6.25226
vt 1.00000 6.25226
vt 1.07143 6.25226
vt 1.14286 6.25226
vt 1.21429 6.25226
vt 1.28571 6.25226
vt 1.35714 6.25226
vt 1.42857 6.25226
vt 1.50000 6.25226
vt 1.57143 6.25226
vt 1.64286 6.25226
vt 1.71429 6.25226
vt 1.78571 6.25226
vt 1.85714 6.25226
vt 1.92857 6.25226
vt 2.00000 6.25226
vt 0.00000 6.24614
vt 0.07143 6.24614
vt 0.14286 6.24614
vt 0.21429 6.24614
vt 0.28571 6.24614
vt 0.35714 6.24614
vt 0.42857 6.24614
vt 0.50000 6.24614
vt 0.57143 6.24614
vt 0.64286 6.24614
vt 0.71429 6.24614
vt 0.78571 6.24614
vt 0.85714 6.24614
vt 0.92857 6.24614
vt 1.00000 6.24614
vt 1.07143 6.24614
vt 1.14286 6.24614
vt 1.21429 6.24614
vt 1.28571 6.24614
vt 1.35714 6.24614
vt 1.42857 6.24614
vt 1.50000 6.24614
vt 1.57143 6.24614
vt 1.64286 6.24614
vt 1.71429 6.24614
vt 1.78571 6.24614
vt 1.85714 6.24614
vt 1.92857 6.24614
vt 2.00000 6.24614
vt 0.00000 6.24002
vt 0.07143 6.24002
vt 0.14286 6.24002
vt 0.21429 6.24002
vt 0.28571 6.24002
vt 0.35714 6.24002
vt 0.42857 6.24002
vt 0.50000 6.24002
vt 0.57143 6.24002
vt 0.64286 6.24002
vt 0.71429 6.24002
vt 0.78571 6.24002
vt 0.85714 6.24002
vt 0.92857 6.24002
vt 1.00000 6.24002
vt 1.07143 6.24002
vt 1.14286 6.24002
vt 1.21429 6.24002
vt 1.28571 6.24002
vt 1.35714 6.24002
vt 1.42857 6.24002
vt 1.50000 6.24002
vt 1.57143 6.24002
vt 1.64286 6.24002
vt 1.71429 6.24002
vt 1.78571 6.24002
vt 1.85714 6.24002
vt 1.92857 6.24002
vt 2.00000 6.24002
vt 0.00000 6.23390
vt 0.07143 6.23390
vt 0.14286 6.23390
vt 0.21429 6.23390
vt 0.28571 6.23390
vt 0.35714 6.23390
vt 0.42857 6.23390
vt 0.50000 6.23390
vt 0.57143 6.23390
vt 0.64286 6.23390
vt 0.71429 6.23390
vt 0.78571 6.23390
vt 0.85714 6.23390
vt 0.92857 6.23390
vt 1.00000 6.23390
vt 1.07143 6.23390
vt 1.14286 6.23390
vt 1.21429 6.23390
vt 1.28571 6.23390
vt 1.35714 6.23390
vt 1.42857 6.23390
vt 1.50000 6.23390
vt 1.57143 6.23390
vt 1.64286 6.23390
vt 1.71429 6.23390
vt 1.78571 6.23390
vt 1.85714 6.23390
vt 1.92857 6.23390
vt 2.00000 6.23390
vt 0.00000 6.22778
vt 0.07143 6.22778
vt 0.14286 6.22778
vt 0.21429 6.22778
vt 0.28571 6.22778
vt 0.35714 6.22778
vt 0.42857 6.22778
vt 0.50000 6.22778
vt 0.57143 6.22778
vt 0.64286 6.22778
vt 0.71429 6.22778
vt 0.78571 6.22778
vt 0.85714 6.22778
vt 0.92857 6.22778
vt 1.00000 6.22778
vt 1.07143 6.22778
vt 1.14286 6.22778
vt 1.21429 6.22778
vt 1.28571 6.22778
vt 1.35714 6.22778
vt 1.42857 6.22778
vt 1.50000 6.22778
vt 1.57143 6.22778
vt 1.64286 6.22778
vt 1.71429 6.22778
vt 1.78571 6.22778
vt 1.85714 6.22778
vt 1.92857 6.22778
vt 2.00000 6.22778
vt 0.00000 6.22166
vt 0.07143 6.22166
vt 0.14286 6.22166
vt 0.21429 6.22166
vt 0.28571 6.22166
vt 0.35714 6.22166
vt 0.42857 6.22166
vt 0.50000 6.22166
vt 0.57143 6.22166
vt 0.64286 6.22166
vt 0.71429 6.22166
vt 0.78571 6.22166
vt 0.85714 6.22166
vt 0.92857 6.22166
vt 1.00000 6.22166
vt 1.07143 6.22166
vt 1.14286 6.22166
vt 1.21429 6.22166
vt 1.28571 6.22166
vt 1.35714 6.22166
vt 1.42857 6.22166
vt 1.50000 6.22166
vt 1.57143 6.22166
vt 1.64286 6.22166
vt 1.71429 6.22166
vt 1.78571 6.22166
vt 1.85714 6.22166
vt 1.92857 6.22166
vt 2.00000 6.22166
vn -0.29799 0.95409 0.03016
vn -0.29830 0.92237 0.24545
vn -0.29613 0.83296 0.46743
vn -0.29091 0.69434 0.65823
vn -0.28368 0.52171 0.80458
vn -0.27627 0.33286 0.90160
vn -0.27058 0.14119 0.95229
vn -0.26883 -0.02556 0.96285
vn -0.27211 -0.20016 0.94122
vn -0.27851 -0.39300 0.87635
vn -0.28607 -0.57862 0.76378
vn -0.29284 -0.74248 0.60246
vn -0.29713 -0.86680 0.40046
vn -0.29828 -0.93846 0.17411
vn -0.29790 -0.95379 -0.03915
vn -0.29573 -0.91565 -0.27227
vn -0.29083 -0.82463 -0.48519
vn -0.28448 -0.69200 -0.66348
vn -0.27811 -0.53051 -0.80076
vn -0.27290 -0.35122 -0.89564
vn -0.26965 -0.16230 -0.94918
vn -0.26880 0.03048 -0.96271
vn -0.27043 0.22257 -0.93666
vn -0.27436 0.40917 -0.87023
vn -0.28004 0.58386 -0.76202
vn -0.28655 0.73756 -0.61147
vn -0.29260 0.85845 -0.42125
vn -0.29676 0.93381 -0.19981
vn -0.29799 0.95409 0.03016
vn -0.28245 0.95925 -0.00710
vn -0.28333 0.93638 0.20717
vn -0.28162 0.85616 0.43322
vn -0.27704 0.72440 0.63126
vn -0.27030 0.55539 0.78643
vn -0.26306 0.36715 0.89219
vn -0.25706 0.17360 0.95067
vn -0.25481 0.00232 0.96699
vn -0.25739 -0.16824 0.95155
vn -0.26300 -0.36168 0.89444
vn -0.27013 -0.55022 0.79012
vn -0.27684 -0.72004 0.63632
vn -0.28139 -0.85312 0.43932
vn -0.28283 -0.93507 0.21368
vn -0.28302 -0.95911 -0.00081
vn -0.28118 -0.93066 -0.23412
vn -0.27686 -0.84752 -0.45284
vn -0.27092 -0.72040 -0.63846
vn -0.26474 -0.56221 -0.78348
vn -0.25950 -0.38450 -0.88590
vn -0.25603 -0.19599 -0.94659
vn -0.25481 -0.00276 -0.96699
vn -0.25597 0.19052 -0.94772
vn -0.25937 0.37925 -0.88820
vn -0.26457 0.55737 -0.78699
vn -0.27074 0.71626 -0.64317
vn -0.27670 0.84445 -0.45864
vn -0.28109 0.92901 -0.24069
vn -0.28245 0.95925 -0.00710
vn -0.24325 0.96994 -0.00694
vn -0.24434 0.94674 0.20972
vn -0.24271 0.86547 0.43823
vn -0.23866 0.73196 0.63818
vn -0.23270 0.56083 0.79455
vn -0.22632 0.37047 0.90085
vn -0.22097 0.17500 0.95945
vn -0.21913 0.00216 0.97569
vn -0.22153 -0.16998 0.96022
vn -0.22636 -0.36535 0.90293
vn -0.23259 -0.55599 0.79798
vn -0.23846 -0.72787 0.64291
vn -0.24244 -0.86264 0.44393
vn -0.24360 -0.94556 0.21581
vn -0.24408 -0.96976 -0.00106
vn -0.24229 -0.94083 -0.23694
vn -0.23848 -0.85643 -0.45788
vn -0.23326 -0.72759 -0.64514
vn -0.22783 -0.56749 -0.79123
vn -0.22324 -0.38789 -0.89426
vn -0.22021 -0.19756 -0.95524
vn -0.21913 -0.00258 -0.97569
vn -0.22015 0.19246 -0.95629
vn -0.22314 0.38299 -0.89640
vn -0.22769 0.56296 -0.79450
vn -0.23311 0.72371 -0.64954
vn -0.23836 0.85355 -0.46330
vn -0.24222 0.93928 -0.24309
vn -0.24325 0.96994 -0.00694
vn -0.18850 0.98205 -0.00650
vn -0.18979 0.95847 0.21289
vn -0.18835 0.87593 0.44416
vn -0.18508 0.74035 0.64624
vn -0.18032 0.56678 0.80390
vn -0.17524 0.37400 0.91072
vn -0.17087 0.17635 0.96938
vn -0.16962 0.00180 0.98551
vn -0.17170 -0.17217 0.96999
vn -0.17539 -0.36973 0.91243
vn -0.18029 -0.56274 0.80674
vn -0.18492 -0.73694 0.65017
vn -0.18803 -0.87357 0.44891
vn -0.18880 -0.95752 0.21797
vn -0.18961 -0.98186 -0.00160
vn -0.18796 -0.95230 -0.24042
vn -0.18493 -0.86640 -0.46384
vn -0.18078 -0.73555 -0.65291
vn -0.17648 -0.57327 -0.80014
vn -0.17285 -0.39151 -0.90379
vn -0.17046 -0.19911 -0.96504
vn -0.16962 -0.00214 -0.98551
vn -0.17042 0.19487 -0.96591
vn -0.17279 0.38742 -0.90557
vn -0.17639 0.56949 -0.80285
vn -0.18069 0.73232 -0.65656
vn -0.18485 0.86399 -0.46834
vn -0.18791 0.95100 -0.24554
vn -0.18850 0.98205 -0.00650
vn -0.11704 0.99311 -0.00570
vn -0.11853 0.96913 0.21619
vn -0.11738 0.88530 0.44997
vn -0.11523 0.74774 0.65392
vn -0.11215 0.57187 0.81264
vn -0.10887 0.37686 0.91985
vn -0.10590 0.17724 0.97845
vn -0.10540 0.00118 0.99443
vn -0.10702 -0.17449 0.97883
vn -0.10915 -0.37406 0.92096
vn -0.11220 -0.56922 0.81450
vn -0.11509 -0.74550 0.65649
vn -0.11700 -0.88375 0.45309
vn -0.11726 -0.96853 0.21954
vn -0.11844 -0.99296 -0.00248
vn -0.11704 -0.96269 -0.24401
vn -0.11510 -0.87532 -0.46964
vn -0.11247 -0.74255 -0.66028
vn -0.10974 -0.57822 -0.80847
vn -0.10744 -0.39447 -0.91261
vn -0.10593 -0.20018 -0.97402
vn -0.10540 -0.00140 -0.99443
vn -0.10592 0.19740 -0.97458
vn -0.10742 0.39179 -0.91376
vn -0.10970 0.57574 -0.81024
vn -0.11243 0.74043 -0.66267
vn -0.11507 0.87374 -0.47259
vn -0.11702 0.96183 -0.24737
vn -0.11704 0.99311 -0.00570
vn -0.05966 0.99821 -0.00496
vn -0.06032 0.97406 0.21812
vn -0.05976 0.88949 0.45303
vn -0.05866 0.75092 0.65778
vn -0.05709 0.57393 0.81691
vn -0.05541 0.37787 0.92420
vn -0.05393 0.17733 0.98267
vn -0.05363 0.00062 0.99856
vn -0.05441 -0.17589 0.98290
vn -0.05554 -0.37640 0.92479
vn -0.05712 -0.57253 0.81789
vn -0.05861 -0.74974 0.65914
vn -0.05960 -0.88866 0.45467
vn -0.05977 -0.97370 0.21987
vn -0.06027 -0.99818 -0.00326
vn -0.05960 -0.96742 -0.24606
vn -0.05861 -0.87928 -0.47268
vn -0.05725 -0.74556 -0.66398
vn -0.05585 -0.58023 -0.81253
vn -0.05467 -0.39553 -0.91683
vn -0.05390 -0.20036 -0.97824
vn -0.05363 -0.00074 -0.99856
vn -0.05389 0.19890 -0.97854
vn -0.05466 0.39412 -0.91743
vn -0.05584 0.57893 -0.81346
vn -0.05724 0.74444 -0.66523
vn -0.05860 0.87845 -0.47423
vn -0.05960 0.96697 -0.24783
vn -0.05966 0.99821 -0.00496
vn -0.10600 0.99435 -0.00563
vn -0.10409 0.97069 0.21662
vn -0.10417 0.88657 0.45070
vn -0.10256 0.74873 0.65489
vn -0.10004 0.57255 0.81374
vn -0.09739 0.37725 0.92098
vn -0.09573 0.17736 0.97948
vn -0.09390 0.00112 0.99558
vn -0.09396 -0.17479 0.98011
vn -0.09685 -0.37461 0.92211
vn -0.09986 -0.57003 0.81553
vn -0.10268 -0.74657 0.65733
vn -0.10470 -0.88501 0.45364
vn -0.10603 -0.96978 0.21974
vn -0.10385 -0.99459 -0.00256
vn -0.10429 -0.96404 -0.24443
vn -0.10257 -0.87649 -0.47036
vn -0.10021 -0.74348 -0.66120
vn -0.09778 -0.57889 -0.80952
vn -0.09572 -0.39488 -0.91373
vn -0.09437 -0.20035 -0.97517
vn -0.09390 -0.00134 -0.99558
vn -0.09436 0.19770 -0.97571
vn -0.09570 0.39232 -0.91484
vn -0.09774 0.57652 -0.81121
vn -0.10018 0.74145 -0.66349
vn -0.10254 0.87498 -0.47318
vn -0.10428 0.96322 -0.24764
vn -0.10600 0.99435 -0.00563
vn -0.21300 0.97703 -0.00734
vn -0.21179 0.95426 0.21101
vn -0.21110 0.87222 0.44122
vn -0.20772 0.73754 0.64256
vn -0.20262 0.56499 0.79983
vn -0.19719 0.37317 0.90656
vn -0.19314 0.17635 0.96519
vn -0.19058 0.00243 0.98167
vn -0.19175 -0.17078 0.96647
vn -0.19667 -0.36746 0.90901
vn -0.20235 -0.55956 0.80371
vn -0.20770 -0.73291 0.64785
vn -0.21142 -0.86890 0.44757
vn -0.21319 -0.95243 0.21776
vn -0.21145 -0.97739 -0.00072
vn -0.21101 -0.94798 -0.23836
vn -0.20765 -0.86282 -0.46089
vn -0.20304 -0.73287 -0.64937
vn -0.19825 -0.57152 -0.79628
vn -0.19420 -0.39065 -0.89982
vn -0.19153 -0.19908 -0.96108
vn -0.19058 -0.00290 -0.98167
vn -0.19147 0.19335 -0.96227
vn -0.19410 0.38513 -0.90222
vn -0.19811 0.56642 -0.79995
vn -0.20289 0.72850 -0.65431
vn -0.20752 0.85957 -0.46698
vn -0.21094 0.94623 -0.24528
vn -0.21300 0.97703 -0.00734
vn -0.28060 0.95978 -0.00883
vn -0.28020 0.93767 0.20560
vn -0.27895 0.85769 0.43191
vn -0.27456 0.72614 0.63035
vn -0.26796 0.55719 0.78596
vn -0.26090 0.36887 0.89211
vn -0.25532 0.17516 0.95086
vn -0.25249 0.00359 0.96759
vn -0.25446 -0.16691 0.95257
vn -0.26041 -0.36044 0.89569
vn -0.26759 -0.54920 0.79169
vn -0.27436 -0.71936 0.63816
vn -0.27902 -0.85288 0.44129
vn -0.28091 -0.93521 0.21558
vn -0.27982 -0.96005 0.00090
vn -0.27869 -0.93182 -0.23250
vn -0.27441 -0.84898 -0.45158
vn -0.26853 -0.72204 -0.63762
vn -0.26239 -0.56391 -0.78304
vn -0.25718 -0.38619 -0.88584
vn -0.25373 -0.19761 -0.94688
vn -0.25249 -0.00428 -0.96759
vn -0.25362 0.18915 -0.94863
vn -0.25699 0.37805 -0.88940
vn -0.26213 0.55642 -0.78847
vn -0.26825 0.71563 -0.64491
vn -0.27418 0.84422 -0.46056
vn -0.27855 0.92926 -0.24268
vn -0.28060 0.95978 -0.00883
vn -0.30693 0.95168 -0.01011
vn -0.30721 0.92986 0.20244
vn -0.30564 0.85106 0.42694
vn -0.30086 0.72112 0.62408
vn -0.29371 0.55395 0.77902
vn -0.28601 0.36732 0.88503
vn -0.27975 0.17509 0.94397
vn -0.27697 0.00456 0.96087
vn -0.27938 -0.16457 0.94597
vn -0.28558 -0.35660 0.88954
vn -0.29326 -0.54380 0.78630
vn -0.30051 -0.71253 0.63403
vn -0.30549 -0.84502 0.43888
vn -0.30731 -0.92697 0.21515
vn -0.30684 -0.95176 0.00224
vn -0.30527 -0.92429 -0.22912
vn -0.30068 -0.84268 -0.44663
vn -0.29434 -0.71726 -0.63159
vn -0.28771 -0.56072 -0.77641
vn -0.28207 -0.38454 -0.87896
vn -0.27832 -0.19740 -0.93998
vn -0.27697 -0.00544 -0.96086
vn -0.27818 0.18664 -0.94222
vn -0.28180 0.37420 -0.88349
vn -0.28735 0.55121 -0.78332
vn -0.29396 0.70914 -0.64087
vn -0.30035 0.83666 -0.45804
vn -0.30508 0.92106 -0.24204
vn -0.30693 0.95168 -0.01011
vn -0.29459 0.95556 -0.01105
vn -0.29549 0.93368 0.20231
vn -0.29377 0.85483 0.42775
vn -0.28910 0.72448 0.62574
vn -0.28213 0.55670 0.78134
vn -0.27463 0.36937 0.88778
vn -0.26837 0.17644 0.94702
vn -0.26594 0.00523 0.96397
vn -0.26853 -0.16435 0.94915
vn -0.27431 -0.35705 0.89290
vn -0.28169 -0.54504 0.78967
vn -0.28866 -0.71463 0.63716
vn -0.29343 -0.84794 0.44147
vn -0.29498 -0.93055 0.21695
vn -0.29517 -0.95544 0.00313
vn -0.29332 -0.92816 -0.22909
vn -0.28889 -0.84633 -0.44752
vn -0.28276 -0.72046 -0.63323
vn -0.27635 -0.56336 -0.77862
vn -0.27089 -0.38657 -0.88158
vn -0.26726 -0.19881 -0.94289
vn -0.26594 -0.00624 -0.96397
vn -0.26710 0.18648 -0.94545
vn -0.27059 0.37471 -0.88677
vn -0.27595 0.55245 -0.78655
vn -0.28234 0.71114 -0.64387
vn -0.28853 0.83940 -0.46060
vn -0.29312 0.92444 -0.24392
vn -0.29459 0.95556 -0.01105
vn -0.24175 0.97028 -0.01105
vn -0.24332 0.94791 0.20558
vn -0.24159 0.86771 0.43440
vn -0.23755 0.73501 0.63508
vn -0.23161 0.56435 0.79238
vn -0.22521 0.37412 0.89962
vn -0.21969 0.17854 0.95909
vn -0.21801 0.00517 0.97593
vn -0.22053 -0.16656 0.96105
vn -0.22515 -0.36191 0.90462
vn -0.23130 -0.55278 0.80058
vn -0.23714 -0.72524 0.64637
vn -0.24109 -0.86090 0.44802
vn -0.24213 -0.94494 0.22012
vn -0.24309 -0.97000 0.00301
vn -0.24110 -0.94218 -0.23274
vn -0.23735 -0.85868 -0.45424
vn -0.23217 -0.73048 -0.64226
vn -0.22676 -0.57079 -0.78916
vn -0.22216 -0.39141 -0.89300
vn -0.21911 -0.20116 -0.95474
vn -0.21801 -0.00616 -0.97593
vn -0.21898 0.18896 -0.95726
vn -0.22192 0.37967 -0.89811
vn -0.22643 0.55997 -0.79697
vn -0.23182 0.72122 -0.65277
vn -0.23705 0.85179 -0.46719
vn -0.24093 0.93847 -0.24743
vn -0.24175 0.97028 -0.01105
vn -0.14242 0.98977 -0.00895
vn -0.14473 0.96647 0.21209
vn -0.14319 0.88387 0.44528
vn -0.14056 0.74756 0.64916
vn -0.13681 0.57277 0.80822
vn -0.13278 0.37859 0.91599
vn -0.12901 0.17951 0.97526
vn -0.12859 0.00356 0.99169
vn -0.13072 -0.17124 0.97652
vn -0.13315 -0.37014 0.91939
vn -0.13679 -0.56476 0.81384
vn -0.14027 -0.74078 0.65694
vn -0.14256 -0.87916 0.45470
vn -0.14273 -0.96451 0.22216
vn -0.14466 -0.98948 0.00078
vn -0.14271 -0.96028 -0.23977
vn -0.14039 -0.87405 -0.46510
vn -0.13720 -0.74238 -0.65578
vn -0.13389 -0.57900 -0.80426
vn -0.13110 -0.39605 -0.90882
vn -0.12925 -0.20244 -0.97073
vn -0.12859 -0.00425 -0.99169
vn -0.12919 0.19404 -0.97245
vn -0.13100 0.38795 -0.91232
vn -0.13376 0.57152 -0.80961
vn -0.13706 0.73595 -0.66301
vn -0.14027 0.86926 -0.47403
vn -0.14264 0.95770 -0.24993
vn -0.14242 0.98977 -0.00895
vn -0.08198 0.99611 -0.03226
vn -0.08189 0.97831 0.19026
vn -0.08161 0.90095 0.42618
vn -0.08037 0.76836 0.63495
vn -0.07842 0.59519 0.79975
vn -0.07630 0.40073 0.91302
vn -0.07461 0.20016 0.97692
vn -0.07370 0.02034 0.99707
vn -0.07427 -0.15314 0.98541
vn -0.07617 -0.35256 0.93268
vn -0.07852 -0.54936 0.83189
vn -0.08080 -0.72941 0.67929
vn -0.08246 -0.87352 0.47976
vn -0.08323 -0.96531 0.24749
vn -0.08290 -0.99628 0.02336
vn -0.08264 -0.97259 -0.21736
vn -0.08133 -0.89086 -0.44693
vn -0.07945 -0.76203 -0.64265
vn -0.07743 -0.60002 -0.79623
vn -0.07566 -0.41736 -0.90559
vn -0.07441 -0.22334 -0.97190
vn -0.07385 -0.02426 -0.99697
vn -0.07401 0.17533 -0.98172
vn -0.07487 0.37107 -0.92558
vn -0.07632 0.55723 -0.82684
vn -0.07811 0.72531 -0.68397
vn -0.07991 0.86349 -0.49799
vn -0.08129 0.95787 -0.27544
vn -0.08198 0.99611 -0.03226
vn -0.20426 0.97890 -0.00565
vn -0.20118 0.95606 0.21324
vn -0.20144 0.87320 0.44378
vn -0.19900 0.73772 0.64511
vn -0.19514 0.56446 0.80206
vn -0.19119 0.37215 0.90827
vn -0.18912 0.17505 0.96623
vn -0.18701 0.00119 0.98236
vn -0.18863 -0.17232 0.96681
vn -0.19556 -0.36902 0.90862
vn -0.20283 -0.56090 0.80265
vn -0.20964 -0.73379 0.64623
vn -0.21466 -0.86911 0.44562
vn -0.21791 -0.95182 0.21578
vn -0.21454 -0.97671 -0.00241
vn -0.21521 -0.94664 -0.23990
vn -0.21152 -0.86126 -0.46206
vn -0.20624 -0.73125 -0.65018
vn -0.20053 -0.56994 -0.79684
vn -0.19537 -0.38914 -0.90022
vn -0.19144 -0.19762 -0.96140
vn -0.18914 -0.00141 -0.98195
vn -0.18861 0.19493 -0.96251
vn -0.18978 0.38688 -0.90239
vn -0.19236 0.56840 -0.79995
vn -0.19578 0.73071 -0.65402
vn -0.19922 0.86193 -0.46625
vn -0.20174 0.94856 -0.24399
vn -0.20426 0.97890 -0.00565
vn -0.40780 0.91304 -0.00725
vn -0.40485 0.89291 0.19702
vn -0.40447 0.81627 0.41244
vn -0.39997 0.69132 0.60174
vn -0.39298 0.53086 0.75084
vn -0.38570 0.35153 0.85303
vn -0.38117 0.16650 0.90939
vn -0.37845 0.00258 0.92562
vn -0.38241 -0.16045 0.90995
vn -0.39392 -0.34414 0.85229
vn -0.40647 -0.52172 0.75006
vn -0.41811 -0.68034 0.60193
vn -0.42653 -0.80388 0.41455
vn -0.43125 -0.87944 0.20149
vn -0.42811 -0.90373 -0.00028
vn -0.42797 -0.87661 -0.21998
vn -0.42171 -0.79997 -0.42686
vn -0.41265 -0.68202 -0.60379
vn -0.40271 -0.53402 -0.74340
vn -0.39362 -0.36641 -0.84309
vn -0.38663 -0.18741 -0.90299
vn -0.38249 -0.00307 -0.92395
vn -0.38152 0.18175 -0.90632
vn -0.38359 0.36223 -0.84950
vn -0.38816 0.53226 -0.75235
vn -0.39420 0.68347 -0.61439
vn -0.40027 0.80504 -0.43782
vn -0.40469 0.88509 -0.22986
vn -0.40780 0.91304 -0.00725
vn -0.61476 0.78866 -0.00938
vn -0.61189 0.77307 0.16723
vn -0.61136 0.70783 0.35387
vn -0.60626 0.60204 0.51962
vn -0.59822 0.46521 0.65247
vn -0.58970 0.31047 0.74556
vn -0.58415 0.14889 0.79787
vn -0.58103 0.00461 0.81387
vn -0.58580 -0.13805 0.79861
vn -0.59900 -0.29708 0.74360
vn -0.61326 -0.44847 0.65022
vn -0.62626 -0.58173 0.51903
vn -0.63551 -0.68470 0.35680
vn -0.64056 -0.74779 0.17462
vn -0.63766 -0.77032 0.00278
vn -0.63734 -0.74820 -0.18439
vn -0.63059 -0.68623 -0.36255
vn -0.62063 -0.58913 -0.51745
vn -0.60945 -0.46495 -0.64218
vn -0.59902 -0.32178 -0.73324
vn -0.59084 -0.16669 -0.78938
vn -0.58593 -0.00548 -0.81034
vn -0.58472 0.15675 -0.79595
vn -0.58710 0.31487 -0.74577
vn -0.59240 0.46285 -0.65942
vn -0.59940 0.59319 -0.53744
vn -0.60637 0.69699 -0.38277
vn -0.61144 0.76504 -0.20215
vn -0.61476 0.78866 -0.00938
vn -0.86901 0.49451 -0.01651
vn -0.86691 0.48939 0.09467
vn -0.86696 0.45074 0.21263
vn -0.86432 0.38803 0.31998
vn -0.85983 0.30524 0.40930
vn -0.85481 0.20900 0.47500
vn -0.85147 0.10570 0.51365
vn -0.84890 0.01116 0.52843
vn -0.85114 -0.08019 0.51878
vn -0.85900 -0.18060 0.47906
vn -0.86721 -0.27400 0.41579
vn -0.87453 -0.35456 0.33088
vn -0.87973 -0.41652 0.22934
vn -0.88275 -0.45499 0.11716
vn -0.88087 -0.47322 0.01154
vn -0.88113 -0.46159 -0.10265
vn -0.87779 -0.42841 -0.21438
vn -0.87254 -0.37378 -0.31460
vn -0.86635 -0.30095 -0.39859
vn -0.86028 -0.21380 -0.46283
vn -0.85531 -0.11647 -0.50486
vn -0.85215 -0.01317 -0.52313
vn -0.85120 0.09183 -0.51674
vn -0.85246 0.19411 -0.48542
vn -0.85552 0.28897 -0.42964
vn -0.85960 0.37142 -0.35092
vn -0.86368 0.43638 -0.25226
vn -0.86670 0.47926 -0.13836
vn -0.86901 0.49451 -0.01651
vn -0.94785 0.31623 -0.03986
vn -0.94794 0.31669 0.03347
vn -0.94788 0.29947 0.10880
vn -0.94695 0.26572 0.18075
vn -0.94509 0.21780 0.24364
vn -0.94271 0.15933 0.29311
vn -0.94049 0.09474 0.32633
vn -0.93925 0.02888 0.34202
vn -0.93997 -0.02871 0.34004
vn -0.94277 -0.09297 0.32022
vn -0.94633 -0.15436 0.28397
vn -0.94976 -0.20859 0.23334
vn -0.95238 -0.25211 0.17149
vn -0.95384 -0.28227 0.10255
vn -0.95420 -0.29752 0.03144
vn -0.95411 -0.29711 -0.03745
vn -0.95305 -0.28198 -0.11038
vn -0.95101 -0.25292 -0.17778
vn -0.94837 -0.21139 -0.23647
vn -0.94556 -0.15938 -0.28375
vn -0.94306 -0.09930 -0.31744
vn -0.94127 -0.03384 -0.33596
vn -0.94043 0.03407 -0.33827
vn -0.94064 0.10133 -0.32393
vn -0.94177 0.16468 -0.29318
vn -0.94351 0.22084 -0.24704
vn -0.94541 0.26660 -0.18739
vn -0.94700 0.29913 -0.11709
vn -0.94785 0.31623 -0.03986
f 1/1/1 30/30/30 31/31/31
f 1/1/1 31/31/31 2/2/2
f 2/2/2 31/31/31 32/32/32
f 2/2/2 32/32/32 3/3/3
f 3/3/3 32/32/32 33/33/33
f 3/3/3 33/33/33 4/4/4
f 4/4/4 33/33/33 34/34/34
f 4/4/4 34/34/34 5/5/5
f 5/5/5 34/34/34 35/35/35
f 5/5/5 35/35/35 6/6/6
f 6/6/6 35/35/35 36/36/36
f 6/6/6 36/36/36 7/7/7
f 7/7/7 36/36/36 37/37/37
f 7/7/7 37/37/37 8/8/8
f 8/8/8 37/37/37 38/38/38
f 8/8/8 38/38/38 9/9/9
f 9/9/9 38/38/38 39/39/39
f 9/9/9 39/39/39 10/10/10
f 10/10/10 39/39/39 40/40/40
f 10/10/10 40/40/40 11/11/11
f 11/11/11 40/40/40 41/41/41
f 11/11/11 41/41/41 12/12/12
f 12/12/12 41/41/41 42/42/42
f 12/12/12 42/42/42 13/13/13
f 13/13/13 42/42/42 43/43/43
f 13/13/13 43/43/43 14/14/14
f 14/14/14 43/43/43 44/44/44
f 14/14/14 44/44/44 15/15/15
f 15/15/15 44/44/44 45/45/45
f 15/15/15 45/45/45 16/16/16
f 16/16/16 45/45/45 46/46/46
f 16/16/16 46/46/46 17/17/17
f 17/17/17 46/46/46 47/47/47
f 17/17/17 47/47/47 18/18/18
f 18/18/18 47/47/47 48/48/48
f 18/18/18 48/48/48 19/19/19
f 19/19/19 48/48/48 49/49/49
f 19/19/19 49/49/49 20/20/20
f 20/20/20 49/49/49 50/50/50
f 20/20/20 50/50/50 21/21/21
f 21/21/21 50/50/50 51/51/51
f 21/21/21 51/51/51 22/22/22
f 22/22/22 51/51/51 52/52/52
f 22/22/22 52/52/52 23/23/23
f 23/23/23 52/52/52 53/53/53
f 23/23/23 53/53/53 24/24/24
f 24/24/24 53/53/53 54/54/54
f 24/24/24 54/54/54 25/25/25
f 25/25/25 54/54/54 55/55/55
f 25/25/25 55/55/55 26/26/26
f 26/26/26 55/55/55 56/56/56
f 26/26/26 56/56/56 27/27/27
f 27/27/27 56/56/56 57/57/57
f 27/27/27 57/57/57 28/28/28
f 28/28/28 57/57/57 58/58/58
f 28/28/28 58/58/58 29/29/29
f 30/30/30 59/59/59 60/60/60
f 30/30/30 60/60/60 31/31/31
f 31/31/31 60/60/60 61/61/61
f 31/31/31 61/61/61 32/32/32
f 32/32/32 61/61/61 62/62/62
f 32/32/32 62/62/62 33/33/33
f 33/33/33 62/62/62 63/63/63
f 33/33/33 63/63/63 34/34/34
f 34/34/34 63/63/63 64/64/64
f 34/34/34 64/64/64 35/35/35
f 35/35/35 64/64/64 65/65/65
f 35/35/35 65/65/65 36/36/36
f 36/36/36 65/65/65 66/66/66
f 36/36/36 66/66/66 37/37/37
f 37/37/37 66/66/66 67/67/67
f 37/37/37 67/67/67 38/38/38
f 38/38/38 67/67/67 68/68/68
f 38/38/38 68/68/68 39/39/39
f 39/39/39 68/68/68 69/69/69
f 39/39/39 69/69/69 40/40/40
f 40/40/40 69/69/69 70/70/70
f 40/40/40 70/70/70 41/41/41
f 41/41/41 70/70/70 71/71/71
f 41/41/41 71/71/71 42/42/42
f 42/42/42 71/71/71 72/72/72
f 42/42/42 72/72/72 43/43/43
f 43/43/43 72/72/72 73/73/73
f 43/43/43 73/73/73 44/44/44
f 44/44/44 73/73/73 74/74/74
f 44/44/44 74/74/74 45/45/45
f 45/45/45 74/74/74 75/75/75
f 45/45/45 75/75/75 46/46/46
f 46/46/46 75/75/75 76/76/76
f 46/46/46 76/76/76 47/47/47
f 47/47/47 76/76/76 77/77/77
f 47/47/47 77/77/77 48/48/48
f 48/48/48 77/77/77 78/78/78
f 48/48/48 78/78/78 49/49/49
f 49/49/49 78/78/78 79/79/79
f 49/49/49 79/79/79 50/50/50
f 50/50/50 79/79/79 80/80/80
f 50/50/50 80/80/80 51/51/51
f 51/51/51 80/80/80 81/81/81
f 51/51/51 81/81/81 52/52/52
f 52/52/52 81/81/81 82/82/82
f 52/52/52 82/82/82 53/53/53
f 53/53/53 82/82/82 83/83/83
f 53/53/53 83/83/83 54/54/54
f 54/54/54 83/83/83 84/84/84
f 54/54/54 84/84/84 55/55/55
f 55/55/55 84/84/84 85/85/85
f 55/55/55 85/85/85 56/56/56
f 56/56/56 85/85/85 86/86/86
f 56/56/56 86/86/86 57/57/57
f 57/57/57 86/86/86 87/87/87
f 57/57/57 87/87/87 58/58/58
f 59/59/59 88/88/88 89/89/89
f 59/59/59 89/89/89 60/60/60
f 60/60/60 89/89/89 90/90/90
f 60/60/60 90/90/90 61/61/61
f 61/61/61 90/90/90 91/91/91
f 61/61/61 91/91/91 62/62/62
f 62/62/62 91/91/91 92/92/92
f 62/62/62 92/92/92 63/63/63
f 63/63/63 92/92/92 93/93/93
f 63/63/63 93/93/93 64/64/64
f 64/64/64 93/93/93 94/94/94
f 64/64/64 94/94/94 65/65/65
f 65/65/65 94/94/94 95/95/95
f 65/65/65 95/95/95 66/66/66
f 66/66/66 95/95/95 96/96/96
f 66/66/66 96/96/96 67/67/67
f 67/67/67 96/96/96 97/97/97
f 67/67/67 97/97/97 68/68/68
f 68/68/68 97/97/97 98/98/98
f 68/68/68 98/98/98 69/69/69
f 69/69/69 98/98/98 99/99/99
f 69/69/69 99/99/99 70/70/70
f 70/70/70 99/99/99 100/100/100
f 70/70/70 100/100/100 71/71/71
f 71/71/71 100/100/100 101/101/101
f 71/71/71 101/101/101 72/72/72
f 72/72/72 101/101/101 102/102/102
f 72/72/72 102/102/102 73/73/73
f 73/73/73 102/102/102 103/103/103
f 73/73/73 103/103/103 74/74/74
f 74/74/74 103/103/103 104/104/104
f 74/74/74 104/104/104 75/75/75
f 75/75/75 104/104/104 105/105/105
f 75/75/75 105/105/105 76/76/76
f 76/76/76 105/105/105 106/106/106
f 76/76/76 106/106/106 77/77/77
f 77/77/77 106/106/106 107/107/107
f 77/77/77 107/107/107 78/78/78
f 78/78/78 107/107/107 108/108/108
f 78/78/78 108/108/108 79/79/79
f 79/79/79 108/108/108 109/109/109
f 79/79/79 109/109/109 80/80/80
f 80/80/80 109/109/109 110/110/110
f 80/80/80 110/110/110 81/81/81
f 81/81/81 110/110/110 111/111/111
f 81/81/81 111/111/111 82/82/82
f 82/82/82 111/111/111 112/112/112
f 82/82/82 112/112/112 83/83/83
f 83/83/83 112/112/112 113/113/113
f 83/83/83 113/113/113 84/84/84
f 84/84/84 113/113/113 114/114/114
f 84/84/84 114/114/114 85/85/85
f 85/85/85 114/114/114 115/115/115
f 85/85/85 115/115/115 86/86/86
f 86/86/86 115/115/115 116/116/116
f 86/86/86 116/116/116 87/87/87
f 88/88/88 117/117/117 118/118/118
f 88/88/88 118/118/118 89/89/89
f 89/89/89 118/118/118 119/119/119
f 89/89/89 119/119/119 90/90/90
f 90/90/90 119/119/119 120/120/120
f 90/90/90 120/120/120 91/91/91
f 91/91/91 120/120/120 121/121/121
f 91/91/91 121/121/121 92/92/92
f 92/92/92 121/121/121 122/122/122
f 92/92/92 122/122/122 93/93/93
f 93/93/93 122/122/122 123/123/123
f 93/93/93 123/123/123 94/94/94
f 94/94/94 123/123/123 124/124/124
f 94/94/94 124/124/124 95/95/95
f 95/95/95 124/124/124 125/125/125
f 95/95/95 125/125/125 96/96/96
f 96/96/96 125/125/125 126/126/126
f 96/96/96 126/126/126 97/97/97
f 97/97/97 126/126/126 127/127/127
f 97/97/97 127/127/127 98/98/98
f 98/98/98 127/127/127 128/128/128
f 98/98/98 128/128/128 99/99/99
f 99/99/99 128/128/128 129/129/129
f 99/99/99 129/129/129 100/100/100
f 100/100/100 129/129/129 130/130/130
f 100/100/100 130/130/130 101/101/101
f 101/101/101 130/130/130 131/131/131
f 101/101/101 131/131/131 102/102/102
f 102/102/102 131/131/131 132/132/132
f 102/102/102 132/132/132 103/103/103
f 103/103/103 132/132/132 133/133/133
f 103/103/103 133/133/133 104/104/104
f 104/104/104 133/133/133 134/134/134
f 104/104/104 134/134/134 105/105/105
f 105/105/105 134/134/134 135/135/135
f 105/105/105 135/135/135 106/106/106
f 106/106/106 135/135/135 136/136/136
f 106/106/106 136/136/136 107/107/107
f 107/107/107 136/136/136 137/137/137
f 107/107/107 137/137/137 108/108/108
f 108/108/108 137/137/137 138/138/138
f 108/108/108 138/138/138 109/109/109
f 109/109/109 138/138/138 139/139/139
f 109/109/109 139/139/139 110/110/110
f 110/110/110 139/139/139 140/140/140
f 110/110/110 140/140/140 111/111/111
f 111/111/111 140/140/140 141/141/141
f 111/111/111 141/141/141 112/112/112
f 112/112/112 141/141/141 142/142/142
f 112/112/112 142/142/142 113/113/113
f 113/113/113 142/142/142 143/143/143
f 113/113/113 143/143/143 114/114/114
f 114/114/114 143/143/143 144/144/144
f 114/114/114 144/144/144 115/115/115
f 115/115/115 144/144/144 145/145/145
f 115/115/115 145/145/145 116/116/116
f 117/117/117 146/146/146 147/147/147
f 117/117/117 147/147/147 118/118/118
f 118/118/118 147/147/147 148/148/148
f 118/118/118 148/148/148 119/119/119
f 119/119/119 148/148/148 149/149/149
f 119/119/119 149/149/149 120/120/120
f 120/120/120 149/149/149 150/150/150
f 120/120/120 150/150/150 121/121/121
f 121/121/121 150/150/150 151/151/151
f 121/121/121 151/151/151 122/122/122
f 122/122/122 151/151/151 152/152/152
f 122/122/122 152/152/152 123/123/123
f 123/123/123 152/152/152 153/153/153
f 123/123/123 153/153/153 124/124/124
f 124/124/124 153/153/153 154/154/154
f 124/124/124 154/154/154 125/125/125
f 125/125/125 154/154/154 155/155/155
f 125/125/125 155/155/155 126/126/126
f 126/126/126 155/155/155 156/156/156
f 126/126/126 156/156/156 127/127/127
f 127/127/127 156/156/156 157/157/157
f 127/127/127 157/157/157 128/128/128
f 128/128/128 157/157/157 158/158/158
f 128/128/128 158/158/158 129/129/129
f 129/129/129 158/158/158 159/159/159
f 129/129/129 159/159/159 130/130/130
f 130/130/130 159/159/159 160/160/160
f 130/130/130 160/160/160 131/131/131
f 131/131/131 160/160/160 161/161/161
f 131/131/131 161/161/161 132/132/132
f 132/132/132 161/161/161 162/162/162
f 132/132/132 162/162/162 133/133/133
f 133/133/133 162/162/162 163/163/163
f 133/133/133 163/163/163 134/134/134
f 134/134/134 163/163/163 164/164/164
f 134/134/134 164/164/164 135/135/135
f 135/135/135 164/164/164 165/165/165
f 135/135/135 165/165/165 136/136/136
f 136/136/136 165/165/165 166/166/166
f 136/136/136 166/166/166 137/137/137
f 137/137/137 166/166/166 167/167/167
f 137/137/137 167/167/167 138/138/138
f 138/138/138 167/167/167 168/168/168
f 138/138/138 168/168/168 139/139/139
f 139/139/139 168/168/168 169/169/169
f 139/139/139 169/169/169 140/140/140
f 140/140/140 169/169/169 170/170/170
f 140/140/140 170/170/170 141/141/141
f 141/141/141 170/170/170 171/171/171
f 141/141/141 171/171/171 142/142/142
f 142/142/142 171/171/171 172/172/172
f 142/142/142 172/172/172 143/143/143
f 143/143/143 172/172/172 173/173/173
f 143/143/143 173/173/173 144/144/144
f 144/144/144 173/173/173 174/174/174
f 144/144/144 174/174/174 145/145/145
f 146/146/146 175/175/175 176/176/176
f 146/146/146 176/176/176 147/147/147
f 147/147/147 176/176/176 177/177/177
f 147/147/147 177/177/177 148/148/148
f 148/148/148 177/177/177 178/178/178
f 148/148/148 178/178/178 149/149/149
f 149/149/149 178/178/178 179/179/179
f 149/149/149 179/179/179 150/150/150
f 150/150/150 179/179/179 180/180/180
f 150/150/150 180/180/180 151/151/151
f 151/151/151 180/180/180 181/181/181
f 151/151/151 181/181/181 152/152/152
f 152/152/152 181/181/181 182/182/182
f 152/152/152 182/182/182 153/153/153
f 153/153/153 182/182/182 183/183/183
f 153/153/153 183/183/183 154/154/154
f 154/154/154 183/183/183 184/184/184
f 154/154/154 184/184/184 155/155/155
f 155/155/155 184/184/184 185/185/185
f 155/155/155 185/185/185 156/156/156
f 156/156/156 185/185/185 186/186/186
f 156/156/156 186/186/186 157/157/157
f 157/157/157 186/186/186 187/187/187
f 157/157/157 187/187/187 158/158/158
f 158/158/158 187/187/187 188/188/188
f 158/158/158 188/188/188 159/159/159
f 159/159/159 188/188/188 189/189/189
f 159/159/159 189/189/189 160/160/160
f 160/160/160 189/189/189 190/190/190
f 160/160/160 190/190/190 161/161/161
f 161/161/161 190/190/190 191/191/191
f 161/161/161 191/191/191 162/162/162
f 162/162/162 191/191/191 192/192/192
f 162/162/162 192/192/192 163/163/163
f 163/163/163 192/192/192 193/193/193
f 163/163/163 193/193/193 164/164/164
f 164/164/164 193/193/193 194/194/194
f 164/164/164 194/194/194 165/165/165
f 165/165/165 194/194/194 195/195/195
f 165/165/165 195/195/195 166/166/166
f 166/166/166 195/195/195 196/196/196
f 166/166/166 196/196/196 167/167/167
f 167/167/167 196/196/196 197/197/197
f 167/167/167 197/197/197 168/168/168
f 168/168/168 197/197/197 198/198/198
f 168/168/168 198/198/198 169/169/169
f 169/169/169 198/198/198 199/199/199
f 169/169/169 199/199/199 170/170/170
f 170/170/170 199/199/199 200/200/200
f 170/170/170 200/200/200 171/171/171
f 171/171/171 200/200/200 201/201/201
f 171/171/171 201/201/201 172/172/172
f 172/172/172 201/201/201 202/202/202
f 172/172/172 202/202/202 173/173/173
f 173/173/173 202/202/202 203/203/203
f 173/173/173 203/203/203 174/174/174
f 175/175/175 204/204/204 205/205/205
f 175/175/175 205/205/205 176/176/176
f 176/176/176 205/205/205 206/206/206
f 176/176/176 206/206/206 177/177/177
f 177/177/177 206/206/206 207/207/207
f 177/177/177 207/207/207 178/178/178
f 178/178/178 207/207/207 208/208/208
f 178/178/178 208/208/208 179/179/179
f 179/179/179 208/208/208 209/209/209
f 179/179/179 209/209/209 180/180/180
f 180/180/180 209/209/209 210/210/210
f 180/180/180 210/210/210 181/181/181
f 181/181/181 210/210/210 211/211/211
f 181/181/181 211/211/211 182/182/182
f 182/182/182 211/211/211 212/212/212
f 182/182/182 212/212/212 183/183/183
f 183/183/183 212/212/212 213/213/213
f 183/183/183 213/213/213 184/184/184
f 184/184/184 213/213/213 214/214/214
f 184/184/184 214/214/214 185/185/185
f 185/185/185 214/214/214 215/215/215
f 185/185/185 215/215/215 186/186/186
f 186/186/186 215/215/215 216/216/216
f 186/186/186 216/216/216 187/187/187
f 187/187/187 216/216/216 217/217/217
f 187/187/187 217/217/217 188/188/188
f 188/188/188 217/217/217 218/218/218
f 188/188/188 218/218/218 189/189/189
f 189/189/189 218/218/218 219/219/219
f 189/189/189 219/219/219 190/190/190
f 190/190/190 219/219/219 220/220/220
f 190/190/190 220/220/220 191/191/191
f 191/191/191 220/220/220 221/221/221
f 191/191/191 221/221/221 192/192/192
f 192/192/192 221/221/221 222/222/222
f 192/192/192 222/222/222 193/193/193
f 193/193/193 222/222/222 223/223/223
f 193/193/193 223/223/223 194/194/194
f 194/194/194 223/223/223 224/224/224
f 194/194/194 224/224/224 195/195/195
f 195/195/195 224/224/224 225/225/225
f 195/195/195 225/225/225 196/196/196
f 196/196/196 225/225/225 226/226/226
f 196/196/196 226/226/226 197/197/197
f 197/197/197 226/226/226 227/227/227
f 197/197/197 227/227/227 198/198/198
f 198/198/198 227/227/227 228/228/228
f 198/198/198 228/228/228 199/199/199
f 199/199/199 228/228/228 229/229/229
f 199/199/199 229/229/229 200/200/200
f 200/200/200 229/229/229 230/230/230
f 200/200/200 230/230/230 201/201/201
f 201/201/201 230/230/230 231/231/231
f 201/201/201 231/231/231 202/202/202
f 202/202/202 231/231/231 232/232/232
f 202/202/202 232/232/232 203/203/203
f 204/204/204 233/233/233 234/234/234
f 204/204/204 234/234/234 205/205/205
f 205/205/205 234/234/234 235/235/235
f 205/205/205 235/235/235 206/206/206
f 206/206/206 235/235/235 236/236/236
f 206/206/206 236/236/236 207/207/207
f 207/207/207 236/236/236 237/237/237
f 207/207/207 237/237/237 208/208/208
f 208/208/208 237/237/237 238/238/238
f 208/208/208 238/238/238 209/209/209
f 209/209/209 238/238/238 239/239/239
f 209/209/209 239/239/239 210/210/210
f 210/210/210 239/239/239 240/240/240
f 210/210/210 240/240/240 211/211/211
f 211/211/211 240/240/240 241/241/241
f 211/211/211 241/241/241 212/212/212
f 212/212/212 241/241/241 242/242/242
f 212/212/212 242/242/242 213/213/213
f 213/213/213 242/242/242 243/243/243
f 213/213/213 243/243/243 214/214/214
f 214/214/214 243/243/243 244/244/244
f 214/214/214 244/244/244 215/215/215
f 215/215/215 244/244/244 245/245/245
f 215/215/215 245/245/245 216/216/216
f 216/216/216 245/245/245 246/246/246
f 216/216/216 246/246/246 217/217/217
f 217/217/217 246/246/246 247/247/247
f 217/217/217 247/247/247 218/218/218
f 218/218/218 247/247/247 248/248/248
f 218/218/218 248/248/248 219/219/219
f 219/219/219 248/248/248 249/249/249
f 219/219/219 249/249/249 220/220/220
f 220/220/220 249/249/249 250/250/250
f 220/220/220 250/250/250 221/221/221
f 221/221/221 250/250/250 251/251/251
f 221/221/221 251/251/251 222/222/222
f 222/222/222 251/251/251 252/252/252
f 222/222/222 252/252/252 223/223/223
f 223/223/223 252/252/252 253/253/253
f 223/223/223 253/253/253 224/224/224
f 224/224/224 253/253/253 254/254/254
f 224/224/224 254/254/254 225/225/225
f 225/225/225 254/254/254 255/255/255
f 225/225/225 255/255/255 226/226/226
f 226/226/226 255/255/255 256/256/256
f 226/226/226 256/256/256 227/227/227
f 227/227/227 256/256/256 257/257/257
f 227/227/227 257/257/257 228/228/228
f 228/228/228 257/257/257 258/258/258
f 228/228/228 258/258/258 229/229/229
f 229/229/229 258/258/258 259/259/259
f 229/229/229 259/259/259 230/230/230
f 230/230/230 259/259/259 260/260/260
f 230/230/230 260/260/260 231/231/231
f 231/231/231 260/260/260 261/261/261
f 231/231/231 261/261/261 232/232/232
f 233/233/233 262/262/262 263/263/263
f 233/233/233 263/263/263 234/234/234
f 234/234/234 263/263/263 264/264/264
f 234/234/234 264/264/264 235/235/235
f 235/235/235 264/264/264 265/265/265
f 235/235/235 265/265/265 236/236/236
f 236/236/236 265/265/265 266/266/266
f 236/236/236 266/266/266 237/237/237
f 237/237/237 266/266/266 267/267/267
f 237/237/237 267/267/267 238/238/238
f 238/238/238 267/267/267 268/268/268
f 238/238/238 268/268/268 239/239/239
f 239/239/239 268/268/268 269/269/269
f 239/239/239 269/269/269 240/240/240
f 240/240/240 269/269/269 270/270/270
f 240/240/240 270/270/270 241/241/241
f 241/241/241 270/270/270 271/271/271
f 241/241/241 271/271/271 242/242/242
f 242/242/242 271/271/271 272/272/272
f 242/242/242 272/272/272 243/243/243
f 243/243/243 272/272/272 273/273/273
f 243/243/243 273/273/273 244/244/244
f 244/244/244 273/273/273 274/274/274
f 244/244/244 274/274/274 245/245/245
f 245/245/245 274/274/274 275/275/275
f 245/245/245 275/275/275 246/246/246
f 246/246/246 275/275/275 276/276/276
f 246/246/246 276/276/276 247/247/247
f 247/247/247 276/276/276 277/277/277
f 247/247/247 277/277/277 248/248/248
f 248/248/248 277/277/277 278/278/278
f 248/248/248 278/278/278 249/249/249
f 249/249/249 278/278/278 279/279/279
f 249/249/249 279/279/279 250/250/250
f 250/250/250 279/279/279 280/280/280
f 250/250/250 280/280/280 251/251/251
f 251/251/251 280/280/280 281/281/281
f 251/251/251 281/281/281 252/252/252
f 252/252/252 281/281/281 282/282/282
f 252/252/252 282/282/282 253/253/253
f 253/253/253 282/282/282 283/283/283
f 253/253/253 283/283/283 254/254/254
f 254/254/254 283/283/283 284/284/284
f 254/254/254 284/284/284 255/255/255
f 255/255/255 284/284/284 285/285/285
f 255/255/255 285/285/285 256/256/256
f 256/256/256 285/285/285 286/286/286
f 256/256/256 286/286/286 257/257/257
f 257/257/257 286/286/286 287/287/287
f 257/257/257 287/287/287 258/258/258
f 258/258/258 287/287/287 288/288/288
f 258/258/258 288/288/288 259/259/259
f 259/259/259 288/288/288 289/289/289
f 259/259/259 289/289/289 260/260/260
f 260/260/260 289/289/289 290/290/290
f 260/260/260 290/290/290 261/261/261
f 262/262/262 291/291/291 292/292/292
f 262/262/262 292/292/292 263/263/263
f 263/263/263 292/292/292 293/293/293
f 263/263/263 293/293/293 264/264/264
f 264/264/264 293/293/293 294/294/294
f 264/264/264 294/294/294 265/265/265
f 265/265/265 294/294/294 295/295/295
f 265/265/265 295/295/295 266/266/266
f 266/266/266 295/295/295 296/296/296
f 266/266/266 296/296/296 267/267/267
f 267/267/267 296/296/296 297/297/297
f 267/267/267 297/297/297 268/268/268
f 268/268/268 297/297/297 298/298/298
f 268/268/268 298/298/298 269/269/269
f 269/269/269 298/298/298 299/299/299
f 269/269/269 299/299/299 270/270/270
f 270/270/270 299/299/299 300/300/300
f 270/270/270 300/300/300 271/271/271
f 271/271/271 300/300/300 301/301/301
f 271/271/271 301/301/301 272/272/272
f 272/272/272 301/301/301 302/302/302
f 272/272/272 302/302/302 273/273/273
f 273/273/273 302/302/302 303/303/303
f 273/273/273 303/303/303 274/274/274
f 274/274/274 303/303/303 304/304/304
f 274/274/274 304/304/304 275/275/275
f 275/275/275 304/304/304 305/305/305
f 275/275/275 305/305/305 276/276/276
f 276/276/276 305/305/305 306/306/306
f 276/276/276 306/306/306 277/277/277
f 277/277/277 306/306/306 307/307/307
f 277/277/277 307/307/307 278/278/278
f 278/278/278 307/307/307 308/308/308
f 278/278/278 308/308/308 279/279/279
f 279/279/279 308/308/308 309/309/309
f 279/279/279 309/309/309 280/280/280
f 280/280/280 309/309/309 310/310/310
f 280/280/280 310/310/310 281/281/281
f 281/281/281 310/310/310 311/311/311
f 281/281/281 311/311/311 282/282/282
f 282/282/282 311/311/311 312/312/312
f 282/282/282 312/312/312 283/283/283
f 283/283/283 312/312/312 313/313/313
f 283/283/283 313/313/313 284/284/284
f 284/284/284 313/313/313 314/314/314
f 284/284/284 314/314/314 285/285/285
f 285/285/285 314/314/314 315/315/315
f 285/285/285 315/315/315 286/286/286
f 286/286/286 315/315/315 316/316/316
f 286/286/286 316/316/316 287/287/287
f 287/287/287 316/316/316 317/317/317
f 287/287/287 317/317/317 288/288/288
f 288/288/288 317/317/317 318/318/318
f 288/288/288 318/318/318 289/289/289
f 289/289/289 318/318/318 319/319/319
f 289/289/289 319/319/319 290/290/290
f 291/291/291 320/320/320 321/321/321
f 291/291/291 321/321/321 292/292/292
f 292/292/292 321/321/321 322/322/322
f 292/292/292 322/322/322 293/293/293
f 293/293/293 322/322/322 323/323/323
f 293/293/293 323/323/323 294/294/294
f 294/294/294 323/323/323 324/324/324
f 294/294/294 324/324/324 295/295/295
f 295/295/295 324/324/324 325/325/325
f 295/295/295 325/325/325 296/296/296
f 296/296/296 325/325/325 326/326/326
f 296/296/296 326/326/326 297/297/297
f 297/297/297 326/326/326 327/327/327
f 297/297/297 327/327/327 298/298/298
f 298/298/298 327/327/327 328/328/328
f 298/298/298 328/328/328 299/299/299
f 299/299/299 328/328/328 329/329/329
f 299/299/299 329/329/329 300/300/300
f 300/300/300 329/329/329 330/330/330
f 300/300/300 330/330/330 301/301/301
f 301/301/301 330/330/330 331/331/331
f 301/301/301 331/331/331 302/302/302
f 302/302/302 331/331/331 332/332/332
f 302/302/302 332/332/332 303/303/303
f 303/303/303 332/332/332 333/333/333
f 303/303/303 333/333/333 304/304/304
f 304/304/304 333/333/333 334/334/334
f 304/304/304 334/334/334 305/305/305
f 305/305/305 334/334/334 335/335/335
f 305/305/305 335/335/335 306/306/306
f 306/306/306 335/335/335 336/336/336
f 306/306/306 336/336/336 307/307/307
f 307/307/307 336/336/336 337/337/337
f 307/307/307 337/337/337 308/308/308
f 308/308/308 337/337/337 338/338/338
f 308/308/308 338/338/338 309/309/309
f 309/309/309 338/338/338 339/339/339
f 309/309/309 339/339/339 310/310/310
f 310/310/310 339/339/339 340/340/340
f 310/310/310 340/340/340 311/311/311
f 311/311/311 340/340/340 341/341/341
f 311/311/311 341/341/341 312/312/312
f 312/312/312 341/341/341 342/342/342
f 312/312/312 342/342/342 313/313/313
f 313/313/313 342/342/342 343/343/343
f 313/313/313 343/343/343 314/314/314
f 314/314/314 343/343/343 344/344/344
f 314/314/314 344/344/344 315/315/315
f 315/315/315 344/344/344 345/345/345
f 315/315/315 345/345/345 316/316/316
f 316/316/316 345/345/345 346/346/346
f 316/316/316 346/346/346 317/317/317
f 317/317/317 346/346/346 347/347/347
f 317/317/317 347/347/347 318/318/318
f 318/318/318 347/347/347 348/348/348
f 318/318/318 348/348/348 319/319/319
f 320/320/320 349/349/349 350/350/350
f 320/320/320 350/350/350 321/321/321
f 321/321/321 350/350/350 351/351/351
f 321/321/321 351/351/351 322/322/322
f 322/322/322 351/351/351 352/352/352
f 322/322/322 352/352/352 323/323/323
f 323/323/323 352/352/352 353/353/353
f 323/323/323 353/353/353 324/324/324
f 324/324/324 353/353/353 354/354/354
f 324/324/324 354/354/354 325/325/325
f 325/325/325 354/354/354 355/355/355
f 325/325/325 355/355/355 326/326/326
f 326/326/326 355/355/355 356/356/356
f 326/326/326 356/356/356 327/327/327
f 327/327/327 356/356/356 357/357/357
f 327/327/327 357/357/357 328/328/328
f 328/328/328 357/357/357 358/358/358
f 328/328/328 358/358/358 329/329/329
f 329/329/329 358/358/358 359/359/359
f 329/329/329 359/359/359 330/330/330
f 330/330/330 359/359/359 360/360/360
f 330/330/330 360/360/360 331/331/331
f 331/331/331 360/360/360 361/361/361
f 331/331/331 361/361/361 332/332/332
f 332/332/332 361/361/361 362/362/362
f 332/332/332 362/362/362 333/333/333
f 333/333/333 362/362/362 363/363/363
f 333/333/333 363/363/363 334/334/334
f 334/334/334 363/363/363 364/364/364
f 334/334/334 364/364/364 335/335/335
f 335/335/335 364/364/364 365/365/365
f 335/335/335 365/365/365 336/336/336
f 336/336/336 365/365/365 366/366/366
f 336/336/336 366/366/366 337/337/337
f 337/337/337 366/366/366 367/367/367
f 337/337/337 367/367/367 338/338/338
f 338/338/338 367/367/367 368/368/368
f 338/338/338 368/368/368 339/339/339
f 339/339/339 368/368/368 369/369/369
f 339/339/339 369/369/369 340/340/340
f 340/340/340 369/369/369 370/370/370
f 340/340/340 370/370/370 341/341/341
f 341/341/341 370/370/370 371/371/371
f 341/341/341 371/371/371 342/342/342
f 342/342/342 371/371/371 372/372/372
f 342/342/342 372/372/372 343/343/343
f 343/343/343 372/372/372 373/373/373
f 343/343/343 373/373/373 344/344/344
f 344/344/344 373/373/373 374/374/374
f 344/344/344 374/374/374 345/345/345
f 345/345/345 374/374/374 375/375/375
f 345/345/345 375/375/375 346/346/346
f 346/346/346 375/375/375 376/376/376
f 346/346/346 376/376/376 347/347/347
f 347/347/347 376/376/376 377/377/377
f 347/347/347 377/377/377 348/348/348
f 349/349/349 378/378/378 379/379/379
f 349/349/349 379/379/379 350/350/350
f 350/350/350 379/379/379 380/380/380
f 350/350/350 380/380/380 351/351/351
f 351/351/351 380/380/380 381/381/381
f 351/351/351 381/381/381 352/352/352
f 352/352/352 381/381/381 382/382/382
f 352/352/352 382/382/382 353/353/353
f 353/353/353 382/382/382 383/383/383
f 353/353/353 383/383/383 354/354/354
f 354/354/354 383/383/383 384/384/384
f 354/354/354 384/384/384 355/355/355
f 355/355/355 384/384/384 385/385/385
f 355/355/355 385/385/385 356/356/356
f 356/356/356 385/385/385 386/386/386
f 356/356/356 386/386/386 357/357/357
f 357/357/357 386/386/386 387/387/387
f 357/357/357 387/387/387 358/358/358
f 358/358/358 387/387/387 388/388/388
f 358/358/358 388/388/388 359/359/359
f 359/359/359 388/388/388 389/389/389
f 359/359/359 389/389/389 360/360/360
f 360/360/360 389/389/389 390/390/390
f 360/360/360 390/390/390 361/361/361
f 361/361/361 390/390/390 391/391/391
f 361/361/361 391/391/391 362/362/362
f 362/362/362 391/391/391 392/392/392
f 362/362/362 392/392/392 363/363/363
f 363/363/363 392/392/392 393/393/393
f 363/363/363 393/393/393 364/364/364
f 364/364/364 393/393/393 394/394/394
f 364/364/364 394/394/394 365/365/365
f 365/365/365 394/394/394 395/395/395
f 365/365/365 395/395/395 366/366/366
f 366/366/366 395/395/395 396/396/396
f 366/366/366 396/396/396 367/367/367
f 367/367/367 396/396/396 397/397/397
f 367/367/367 397/397/397 368/368/368
f 368/368/368 397/397/397 398/398/398
f 368/368/368 398/398/398 369/369/369
f 369/369/369 398/398/398 399/399/399
f 369/369/369 399/399/399 370/370/370
f 370/370/370 399/399/399 400/400/400
f 370/370/370 400/400/400 371/371/371
f 371/371/371 400/400/400 401/401/401
f 371/371/371 401/401/401 372/372/372
f 372/372/372 401/401/401 402/402/402
f 372/372/372 402/402/402 373/373/373
f 373/373/373 402/402/402 403/403/403
f 373/373/373 403/403/403 374/374/374
f 374/374/374 403/403/403 404/404/404
f 374/374/374 404/404/404 375/375/375
f 375/375/375 404/404/404 405/405/405
f 375/375/375 405/405/405 376/376/376
f 376/376/376 405/405/405 406/406/406
f 376/376/376 406/406/406 377/377/377
f 378/378/378 407/407/407 408/408/408
f 378/378/378 408/408/408 379/379/379
f 379/379/379 408/408/408 409/409/409
f 379/379/379 409/409/409 380/380/380
f 380/380/380 409/409/409 410/410/410
f 380/380/380 410/410/410 381/381/381
f 381/381/381 410/410/410 411/411/411
f 381/381/381 411/411/411 382/382/382
f 382/382/382 411/411/411 412/412/412
f 382/382/382 412/412/412 383/383/383
f 383/383/383 412/412/412 413/413/413
f 383/383/383 413/413/413 384/384/384
f 384/384/384 413/413/413 414/414/414
f 384/384/384 414/414/414 385/385/385
f 385/385/385 414/414/414 415/415/415
f 385/385/385 415/415/415 386/386/386
f 386/386/386 415/415/415 416/416/416
f 386/386/386 416/416/416 387/387/387
f 387/387/387 416/416/416 417/417/417
f 387/387/387 417/417/417 388/388/388
f 388/388/388 417/417/417 418/418/418
f 388/388/388 418/418/418 389/389/389
f 389/389/389 418/418/418 419/419/419
f 389/389/389 419/419/419 390/390/390
f 390/390/390 419/419/419 420/420/420
f 390/390/390 420/420/420 391/391/391
f 391/391/391 420/420/420 421/421/421
f 391/391/391 421/421/421 392/392/392
f 392/392/392 421/421/421 422/422/422
f 392/392/392 422/422/422 393/393/393
f 393/393/393 422/422/422 423/423/423
f 393/393/393 423/423/423 394/394/394
f 394/394/394 423/423/423 424/424/424
f 394/394/394 424/424/424 395/395/395
f 395/395/395 424/424/424 425/425/425
f 395/395/395 425/425/425 396/396/396
f 396/396/396 425/425/425 426/426/426
f 396/396/396 426/426/426 397/397/397
f 397/397/397 426/426/426 427/427/427
f 397/397/397 427/427/427 398/398/398
f 398/398/398 427/427/427 428/428/428
f 398/398/398 428/428/428 399/399/399
f 399/399/399 428/428/428 429/429/429
f 399/399/399 429/429/429 400/400/400
f 400/400/400 429/429/429 430/430/430
f 400/400/400 430/430/430 401/401/401
f 401/401/401 430/430/430 431/431/431
f 401/401/401 431/431/431 402/402/402
f 402/402/402 431/431/431 432/432/432
f 402/402/402 432/432/432 403/403/403
f 403/403/403 432/432/432 433/433/433
f 403/403/403 433/433/433 404/404/404
f 404/404/404 433/433/433 434/434/434
f 404/404/404 434/434/434 405/405/405
f 405/405/405 434/434/434 435/435/435
f 405/405/405 435/435/435 406/406/406
f 407/407/407 436/436/436 437/437/437
f 407/407/407 437/437/437 408/408/408
f 408/408/408 437/437/437 438/438/438
f 408/408/408 438/438/438 409/409/409
f 409/409/409 438/438/438 439/439/439
f 409/409/409 439/439/439 410/410/410
f 410/410/410 439/439/439 440/440/440
f 410/410/410 440/440/440 411/411/411
f 411/411/411 440/440/440 441/441/441
f 411/411/411 441/441/441 412/412/412
f 412/412/412 441/441/441 442/442/442
f 412/412/412 442/442/442 413/413/413
f 413/413/413 442/442/442 443/443/443
f 413/413/413 443/443/443 414/414/414
f 414/414/414 443/443/443 444/444/444
f 414/414/414 444/444/444 415/415/415
f 415/415/415 444/444/444 445/445/445
f 415/415/415 445/445/445 416/416/416
f 416/416/416 445/445/445 446/446/446
f 416/416/416 446/446/446 417/417/417
f 417/417/417 446/446/446 447/447/447
f 417/417/417 447/447/447 418/418/418
f 418/418/418 447/447/447 448/448/448
f 418/418/418 448/448/448 419/419/419
f 419/419/419 448/448/448 449/449/449
f 419/419/419 449/449/449 420/420/420
f 420/420/420 449/449/449 450/450/450
f 420/420/420 450/450/450 421/421/421
f 421/421/421 450/450/450 451/451/451
f 421/421/421 451/451/451 422/422/422
f 422/422/422 451/451/451 452/452/452
f 422/422/422 452/452/452 423/423/423
f 423/423/423 452/452/452 453/453/453
f 423/423/423 453/453/453 424/424/424
f 424/424/424 453/453/453 454/454/454
f 424/424/424 454/454/454 425/425/425
f 425/425/425 454/454/454 455/455/455
f 425/425/425 455/455/455 426/426/426
f 426/426/426 455/455/455 456/456/456
f 426/426/426 456/456/456 427/427/427
f 427/427/427 456/456/456 457/457/457
f 427/427/427 457/457/457 428/428/428
f 428/428/428 457/457/457 458/458/458
f 428/428/428 458/458/458 429/429/429
f 429/429/429 458/458/458 459/459/459
f 429/429/429 459/459/459 430/430/430
f 430/430/430 459/459/459 460/460/460
f 430/430/430 460/460/460 431/431/431
f 431/431/431 460/460/460 461/461/461
f 431/431/431 461/461/461 432/432/432
f 432/432/432 461/461/461 462/462/462
f 432/432/432 462/462/462 433/433/433
f 433/433/433 462/462/462 463/463/463
f 433/433/433 463/463/463 434/434/434
f 434/434/434 463/463/463 464/464/464
f 434/434/434 464/464/464 435/435/435
f 436/436/436 465/465/465 466/466/466
f 436/436/436 466/466/466 437/437/437
f 437/437/437 466/466/466 467/467/467
f 437/437/437 467/467/467 438/438/438
f 438/438/438 467/467/467 468/468/468
f 438/438/438 468/468/468 439/439/439
f 439/439/439 468/468/468 469/469/469
f 439/439/439 469/469/469 440/440/440
f 440/440/440 469/469/469 470/470/470
f 440/440/440 470/470/470 441/441/441
f 441/441/441 470/470/470 471/471/471
f 441/441/441 471/471/471 442/442/442
f 442/442/442 471/471/471 472/472/472
f 442/442/442 472/472/472 443/443/443
f 443/443/443 472/472/472 473/473/473
f 443/443/443 473/473/473 444/444/444
f 444/444/444 473/473/473 474/474/474
f 444/444/444 474/474/474 445/445/445
f 445/445/445 474/474/474 475/475/475
f 445/445/445 475/475/475 446/446/446
f 446/446/446 475/475/475 476/476/476
f 446/446/446 476/476/476 447/447/447
f 447/447/447 476/476/476 477/477/477
f 447/447/447 477/477/477 448/448/448
f 448/448/448 477/477/477 478/478/478
f 448/448/448 478/478/478 449/449/449
f 449/449/449 478/478/478 479/479/479
f 449/449/449 479/479/479 450/450/450
f 450/450/450 479/479/479 480/480/480
f 450/450/450 480/480/480 451/451/451
f 451/451/451 480/480/480 481/481/481
f 451/451/451 481/481/481 452/452/452
f 452/452/452 481/481/481 482/482/482
f 452/452/452 482/482/482 453/453/453
f 453/453/453 482/482/482 483/483/483
f 453/453/453 483/483/483 454/454/454
f 454/454/454 483/483/483 484/484/484
f 454/454/454 484/484/484 455/455/455
f 455/455/455 484/484/484 485/485/485
f 455/455/455 485/485/485 456/456/456
f 456/456/456 485/485/485 486/486/486
f 456/456/456 486/486/486 457/457/457
f 457/457/457 486/486/486 487/487/487
f 457/457/457 487/487/487 458/458/458
f 458/458/458 487/487/487 488/488/488
f 458/458/458 488/488/488 459/459/459
f 459/459/459 488/488/488 489/489/489
f 459/459/459 489/489/489 460/460/460
f 460/460/460 489/489/489 490/490/490
f 460/460/460 490/490/490 461/461/461
f 461/461/461 490/490/490 491/491/491
f 461/461/461 491/491/491 462/462/462
f 462/462/462 491/491/491 492/492/492
f 462/462/462 492/492/492 463/463/463
f 463/463/463 492/492/492 493/493/493
f 463/463/463 493/493/493 464/464/464
f 465/465/465 494/494/494 495/495/495
f 465/465/465 495/495/495 466/466/466
f 466/466/466 495/495/495 496/496/496
f 466/466/466 496/496/496 467/467/467
f 467/467/467 496/496/496 497/497/497
f 467/467/467 497/497/497 468/468/468
f 468/468/468 497/497/497 498/498/498
f 468/468/468 498/498/498 469/469/469
f 469/469/469 498/498/498 499/499/499
f 469/469/469 499/499/499 470/470/470
f 470/470/470 499/499/499 500/500/500
f 470/470/470 500/500/500 471/471/471
f 471/471/471 500/500/500 501/501/501
f 471/471/471 501/501/501 472/472/472
f 472/472/472 501/501/501 502/502/502
f 472/472/472 502/502/502 473/473/473
f 473/473/473 502/502/502 503/503/503
f 473/473/473 503/503/503 474/474/474
f 474/474/474 503/503/503 504/504/504
f 474/474/474 504/504/504 475/475/475
f 475/475/475 504/504/504 505/505/505
f 475/475/475 505/505/505 476/476/476
f 476/476/476 505/505/505 506/506/506
f 476/476/476 506/506/506 477/477/477
f 477/477/477 506/506/506 507/507/507
f 477/477/477 507/507/507 478/478/478
f 478/478/478 507/507/507 508/508/508
f 478/478/478 508/508/508 479/479/479
f 479/479/479 508/508/508 509/509/509
f 479/479/479 509/509/509 480/480/480
f 480/480/480 509/509/509 510/510/510
f 480/480/480 510/510/510 481/481/481
f 481/481/481 510/510/510 511/511/511
f 481/481/481 511/511/511 482/482/482
f 482/482/482 511/511/511 512/512/512
f 482/482/482 512/512/512 483/483/483
f 483/483/483 512/512/512 513/513/513
f 483/483/483 513/513/513 484/484/484
f 484/484/484 513/513/513 514/514/514
f 484/484/484 514/514/514 485/485/485
f 485/485/485 514/514/514 515/515/515
f 485/485/485 515/515/515 486/486/486
f 486/486/486 515/515/515 516/516/516
f 486/486/486 516/516/516 487/487/487
f 487/487/487 516/516/516 517/517/517
f 487/487/487 517/517/517 488/488/488
f 488/488/488 517/517/517 518/518/518
f 488/488/488 518/518/518 489/489/489
f 489/489/489 518/518/518 519/519/519
f 489/489/489 519/519/519 490/490/490
f 490/490/490 519/519/519 520/520/520
f 490/490/490 520/520/520 491/491/491
f 491/491/491 520/520/520 521/521/521
f 491/491/491 521/521/521 492/492/492
f 492/492/492 521/521/521 522/522/522
f 492/492/492 522/522/522 493/493/493
f 494/494/494 523/523/523 524/524/524
f 494/494/494 524/524/524 495/495/495
f 495/495/495 524/524/524 525/525/525
f 495/495/495 525/525/525 496/496/496
f 496/496/496 525/525/525 526/526/526
f 496/496/496 526/526/526 497/497/497
f 497/497/497 526/526/526 527/527/527
f 497/497/497 527/527/527 498/498/498
f 498/498/498 527/527/527 528/528/528
f 498/498/498 528/528/528 499/499/499
f 499/499/499 528/528/528 529/529/529
f 499/499/499 529/529/529 500/500/500
f 500/500/500 529/529/529 530/530/530
f 500/500/500 530/530/530 501/501/501
f 501/501/501 530/530/530 531/531/531
f 501/501/501 531/531/531 502/502/502
f 502/502/502 531/531/531 532/532/532
f 502/502/502 532/532/532 503/503/503
f 503/503/503 532/532/532 533/533/533
f 503/503/503 533/533/533 504/504/504
f 504/504/504 533/533/533 534/534/534
f 504/504/504 534/534/534 505/505/505
f 505/505/505 534/534/534 535/535/535
f 505/505/505 535/535/535 506/506/506
f 506/506/506 535/535/535 536/536/536
f 506/506/506 536/536/536 507/507/507
f 507/507/507 536/536/536 537/537/537
f 507/507/507 537/537/537 508/508/508
f 508/508/508 537/537/537 538/538/538
f 508/508/508 538/538/538 509/509/509
f 509/509/509 538/538/538 539/539/539
f 509/509/509 539/539/539 510/510/510
f 510/510/510 539/539/539 540/540/540
f 510/510/510 540/540/540 511/511/511
f 511/511/511 540/540/540 541/541/541
f 511/511/511 541/541/541 512/512/512
f 512/512/512 541/541/541 542/542/542
f 512/512/512 542/542/542 513/513/513
f 513/513/513 542/542/542 543/543/543
f 513/513/513 543/543/543 514/514/514
f 514/514/514 543/543/543 544/544/544
f 514/514/514 544/544/544 515/515/515
f 515/515/515 544/544/544 545/545/545
f 515/515/515 545/545/545 516/516/516
f 516/516/516 545/545/545 546/546/546
f 516/516/516 546/546/546 517/517/517
f 517/517/517 546/546/546 547/547/547
f 517/517/517 547/547/547 518/518/518
f 518/518/518 547/547/547 548/548/548
f 518/518/518 548/548/548 519/519/519
f 519/519/519 548/548/548 549/549/549
f 519/519/519 549/549/549 520/520/520
f 520/520/520 549/549/549 550/550/550
f 520/520/520 550/550/550 521/521/521
f 521/521/521 550/550/550 551/551/551
f 521/521/521 551/551/551 522/522/522
