# generated by tools/make_gecko_mesh.py -- do not hand-edit
v 0.010531 0.015357 0.000000
v 0.010531 0.014999 0.003392
v 0.010531 0.013937 0.006314
v 0.010531 0.012215 0.008846
v 0.010531 0.009896 0.010919
v 0.010531 0.007063 0.012459
v 0.010531 0.003795 0.013408
v 0.010531 0.000000 0.013728
v 0.010531 -0.003795 0.013408
v 0.010531 -0.007063 0.012459
v 0.010531 -0.009896 0.010919
v 0.010531 -0.012215 0.008846
v 0.010531 -0.013937 0.006314
v 0.010531 -0.014999 0.003392
v 0.010531 -0.015357 0.000000
v 0.010531 -0.014972 -0.003055
v 0.010531 -0.013836 -0.005956
v 0.010531 -0.012007 -0.008559
v 0.010531 -0.009575 -0.010733
v 0.010531 -0.006663 -0.012369
v 0.010531 -0.003417 -0.013384
v 0.010531 -0.000000 -0.013728
v 0.010531 0.003417 -0.013384
v 0.010531 0.006663 -0.012369
v 0.010531 0.009575 -0.010733
v 0.010531 0.012007 -0.008559
v 0.010531 0.013836 -0.005956
v 0.010531 0.014972 -0.003055
v 0.010531 0.015357 0.000000
v 0.009597 0.015313 0.000000
v 0.009597 0.014955 0.003383
v 0.009597 0.013897 0.006296
v 0.009597 0.012179 0.008821
v 0.009597 0.009867 0.010888
v 0.009597 0.007043 0.012423
v 0.009597 0.003784 0.013369
v 0.009597 0.000000 0.013689
v 0.009597 -0.003784 0.013369
v 0.009597 -0.007043 0.012423
v 0.009597 -0.009867 0.010888
v 0.009597 -0.012179 0.008821
v 0.009597 -0.013897 0.006296
v 0.009597 -0.014955 0.003383
v 0.009597 -0.015313 0.000000
v 0.009597 -0.014929 -0.003046
v 0.009597 -0.013796 -0.005939
v 0.009597 -0.011972 -0.008535
v 0.009597 -0.009547 -0.010702
v 0.009597 -0.006644 -0.012333
v 0.009597 -0.003407 -0.013346
v 0.009597 -0.000000 -0.013689
v 0.009597 0.003407 -0.013346
v 0.009597 0.006644 -0.012333
v 0.009597 0.009547 -0.010702
v 0.009597 0.011972 -0.008535
v 0.009597 0.013796 -0.005939
v 0.009597 0.014929 -0.003046
v 0.009597 0.015313 0.000000
v 0.008663 0.015687 0.000000
v 0.008663 0.015321 0.003465
v 0.008663 0.014237 0.006449
v 0.008663 0.012477 0.009036
v 0.008663 0.010108 0.011154
v 0.008663 0.007215 0.012727
v 0.008663 0.003877 0.013696
v 0.008663 0.000000 0.014023
v 0.008663 -0.003877 0.013696
v 0.008663 -0.007215 0.012727
v 0.008663 -0.010108 0.011154
v 0.008663 -0.012477 0.009036
v 0.008663 -0.014237 0.006449
v 0.008663 -0.015321 0.003465
v 0.008663 -0.015687 0.000000
v 0.008663 -0.015294 -0.003120
v 0.008663 -0.014133 -0.006084
v 0.008663 -0.012265 -0.008743
v 0.008663 -0.009781 -0.010964
v 0.008663 -0.006806 -0.012634
v 0.008663 -0.003491 -0.013672
v 0.008663 -0.000000 -0.014023
v 0.008663 0.003491 -0.013672
v 0.008663 0.006806 -0.012634
v 0.008663 0.009781 -0.010964
v 0.008663 0.012265 -0.008743
v 0.008663 0.014133 -0.006084
v 0.008663 0.015294 -0.003120
v 0.008663 0.015687 -0.000000
v 0.007729 0.015750 0.000000
v 0.007729 0.015383 0.003479
v 0.007729 0.014294 0.006476
v 0.007729 0.012527 0.009073
v 0.007729 0.010149 0.011199
v 0.007729 0.007244 0.012778
v 0.007729 0.003892 0.013751
v 0.007729 0.000000 0.014080
v 0.007729 -0.003892 0.013751
v 0.007729 -0.007244 0.012778
v 0.007729 -0.010149 0.011199
v 0.007729 -0.012527 0.009073
v 0.007729 -0.014294 0.006476
v 0.007729 -0.015383 0.003479
v 0.007729 -0.015750 0.000000
v 0.007729 -0.015356 -0.003133
v 0.007729 -0.014191 -0.006109
v 0.007729 -0.012314 -0.008779
v 0.007729 -0.009820 -0.011008
v 0.007729 -0.006834 -0.012686
v 0.007729 -0.003505 -0.013727
v 0.007729 -0.000000 -0.014080
v 0.007729 0.003505 -0.013727
v 0.007729 0.006834 -0.012686
v 0.007729 0.009820 -0.011008
v 0.007729 0.012314 -0.008779
v 0.007729 0.014191 -0.006109
v 0.007729 0.015356 -0.003133
v 0.007729 0.015750 0.000000
v 0.006795 0.015157 0.000000
v 0.006795 0.014803 0.003348
v 0.006795 0.013756 0.006232
v 0.006795 0.012056 0.008731
v 0.006795 0.009767 0.010777
v 0.006795 0.006971 0.012297
v 0.006795 0.003746 0.013233
v 0.006795 0.000000 0.013550
v 0.006795 -0.003746 0.013233
v 0.006795 -0.006971 0.012297
v 0.006795 -0.009767 0.010777
v 0.006795 -0.012056 0.008731
v 0.006795 -0.013756 0.006232
v 0.006795 -0.014803 0.003348
v 0.006795 -0.015157 0.000000
v 0.006795 -0.014777 -0.003015
v 0.006795 -0.013656 -0.005879
v 0.006795 -0.011850 -0.008448
v 0.006795 -0.009450 -0.010594
v 0.006795 -0.006576 -0.012208
v 0.006795 -0.003373 -0.013210
v 0.006795 -0.000000 -0.013550
v 0.006795 0.003373 -0.013210
v 0.006795 0.006576 -0.012208
v 0.006795 0.009450 -0.010594
v 0.006795 0.011850 -0.008448
v 0.006795 0.013656 -0.005879
v 0.006795 0.014777 -0.003015
v 0.006795 0.015157 0.000000
v 0.005861 0.014467 0.000000
v 0.005861 0.014129 0.003196
v 0.005861 0.013129 0.005948
v 0.005861 0.011506 0.008333
v 0.005861 0.009322 0.010286
v 0.005861 0.006653 0.011737
v 0.005861 0.003575 0.012630
v 0.005861 0.000000 0.012932
v 0.005861 -0.003575 0.012630
v 0.005861 -0.006653 0.011737
v 0.005861 -0.009322 0.010286
v 0.005861 -0.011506 0.008333
v 0.005861 -0.013129 0.005948
v 0.005861 -0.014129 0.003196
v 0.005861 -0.014467 0.000000
v 0.005861 -0.014104 -0.002878
v 0.005861 -0.013034 -0.005611
v 0.005861 -0.011310 -0.008063
v 0.005861 -0.009020 -0.010111
v 0.005861 -0.006277 -0.011652
v 0.005861 -0.003219 -0.012608
v 0.005861 -0.000000 -0.012932
v 0.005861 0.003219 -0.012608
v 0.005861 0.006277 -0.011652
v 0.005861 0.009020 -0.010111
v 0.005861 0.011310 -0.008063
v 0.005861 0.013034 -0.005611
v 0.005861 0.014104 -0.002878
v 0.005861 0.014467 0.000000
v 0.004927 0.014359 0.000000
v 0.004927 0.014024 0.003172
v 0.004927 0.013032 0.005903
v 0.004927 0.011421 0.008271
v 0.004927 0.009253 0.010209
v 0.004927 0.006604 0.011649
v 0.004927 0.003548 0.012536
v 0.004927 0.000000 0.012836
v 0.004927 -0.003548 0.012536
v 0.004927 -0.006604 0.011649
v 0.004927 -0.009253 0.010209
v 0.004927 -0.011421 0.008271
v 0.004927 -0.013032 0.005903
v 0.004927 -0.014024 0.003172
v 0.004927 -0.014359 0.000000
v 0.004927 -0.013999 -0.002856
v 0.004927 -0.012937 -0.005569
v 0.004927 -0.011226 -0.008003
v 0.004927 -0.008953 -0.010036
v 0.004927 -0.006230 -0.011565
v 0.004927 -0.003195 -0.012514
v 0.004927 -0.000000 -0.012836
v 0.004927 0.003195 -0.012514
v 0.004927 0.006230 -0.011565
v 0.004927 0.008953 -0.010036
v 0.004927 0.011226 -0.008003
v 0.004927 0.012937 -0.005569
v 0.004927 0.013999 -0.002856
v 0.004927 0.014359 0.000000
v 0.003992 0.014664 0.000000
v 0.003992 0.014322 0.003239
v 0.003992 0.013309 0.006029
v 0.003992 0.011664 0.008447
v 0.003992 0.009449 0.010427
v 0.003992 0.006744 0.011897
v 0.003992 0.003624 0.012803
v 0.003992 0.000000 0.013109
v 0.003992 -0.003624 0.012803
v 0.003992 -0.006744 0.011897
v 0.003992 -0.009449 0.010427
v 0.003992 -0.011664 0.008447
v 0.003992 -0.013309 0.006029
v 0.003992 -0.014322 0.003239
v 0.003992 -0.014664 0.000000
v 0.003992 -0.014297 -0.002917
v 0.003992 -0.013212 -0.005688
v 0.003992 -0.011465 -0.008173
v 0.003992 -0.009143 -0.010249
v 0.003992 -0.006363 -0.011811
v 0.003992 -0.003263 -0.012780
v 0.003992 -0.000000 -0.013109
v 0.003992 0.003263 -0.012780
v 0.003992 0.006363 -0.011811
v 0.003992 0.009143 -0.010249
v 0.003992 0.011465 -0.008173
v 0.003992 0.013212 -0.005688
v 0.003992 0.014297 -0.002917
v 0.003992 0.014664 0.000000
v 0.003058 0.014608 0.000000
v 0.003058 0.014267 0.003227
v 0.003058 0.013258 0.006006
v 0.003058 0.011619 0.008415
v 0.003058 0.009413 0.010387
v 0.003058 0.006718 0.011851
v 0.003058 0.003610 0.012754
v 0.003058 0.000000 0.013059
v 0.003058 -0.003610 0.012754
v 0.003058 -0.006718 0.011851
v 0.003058 -0.009413 0.010387
v 0.003058 -0.011619 0.008415
v 0.003058 -0.013258 0.006006
v 0.003058 -0.014267 0.003227
v 0.003058 -0.014608 0.000000
v 0.003058 -0.014242 -0.002906
v 0.003058 -0.013161 -0.005666
v 0.003058 -0.011421 -0.008142
v 0.003058 -0.009108 -0.010210
v 0.003058 -0.006338 -0.011766
v 0.003058 -0.003251 -0.012731
v 0.003058 -0.000000 -0.013059
v 0.003058 0.003251 -0.012731
v 0.003058 0.006338 -0.011766
v 0.003058 0.009108 -0.010210
v 0.003058 0.011421 -0.008142
v 0.003058 0.013161 -0.005666
v 0.003058 0.014242 -0.002906
v 0.003058 0.014608 0.000000
v 0.002124 0.013926 0.000000
v 0.002124 0.013601 0.003076
v 0.002124 0.012638 0.005725
v 0.002124 0.011076 0.008022
v 0.002124 0.008973 0.009901
v 0.002124 0.006405 0.011298
v 0.002124 0.003441 0.012158
v 0.002124 0.000000 0.012449
v 0.002124 -0.003441 0.012158
v 0.002124 -0.006405 0.011298
v 0.002124 -0.008973 0.009901
v 0.002124 -0.011076 0.008022
v 0.002124 -0.012638 0.005725
v 0.002124 -0.013601 0.003076
v 0.002124 -0.013926 0.000000
v 0.002124 -0.013577 -0.002770
v 0.002124 -0.012547 -0.005401
v 0.002124 -0.010888 -0.007762
v 0.002124 -0.008683 -0.009733
v 0.002124 -0.006042 -0.011216
v 0.002124 -0.003099 -0.012137
v 0.002124 -0.000000 -0.012449
v 0.002124 0.003099 -0.012137
v 0.002124 0.006042 -0.011216
v 0.002124 0.008683 -0.009733
v 0.002124 0.010888 -0.007762
v 0.002124 0.012547 -0.005401
v 0.002124 0.013577 -0.002770
v 0.002124 0.013926 0.000000
v 0.001190 0.013246 0.000000
v 0.001190 0.012937 0.002926
v 0.001190 0.012021 0.005446
v 0.001190 0.010535 0.007630
v 0.001190 0.008535 0.009418
v 0.001190 0.006092 0.010746
v 0.001190 0.003273 0.011564
v 0.001190 0.000000 0.011841
v 0.001190 -0.003273 0.011564
v 0.001190 -0.006092 0.010746
v 0.001190 -0.008535 0.009418
v 0.001190 -0.010535 0.007630
v 0.001190 -0.012021 0.005446
v 0.001190 -0.012937 0.002926
v 0.001190 -0.013246 0.000000
v 0.001190 -0.012914 -0.002635
v 0.001190 -0.011934 -0.005138
v 0.001190 -0.010356 -0.007383
v 0.001190 -0.008259 -0.009258
v 0.001190 -0.005747 -0.010668
v 0.001190 -0.002947 -0.011544
v 0.001190 -0.000000 -0.011841
v 0.001190 0.002947 -0.011544
v 0.001190 0.005747 -0.010668
v 0.001190 0.008259 -0.009258
v 0.001190 0.010356 -0.007383
v 0.001190 0.011934 -0.005138
v 0.001190 0.012914 -0.002635
v 0.001190 0.013246 0.000000
v 0.000256 0.013198 0.000000
v 0.000256 0.012890 0.002916
v 0.000256 0.011978 0.005426
v 0.000256 0.010497 0.007603
v 0.000256 0.008505 0.009384
v 0.000256 0.006070 0.010708
v 0.000256 0.003262 0.011523
v 0.000256 0.000000 0.011798
v 0.000256 -0.003262 0.011523
v 0.000256 -0.006070 0.010708
v 0.000256 -0.008505 0.009384
v 0.000256 -0.010497 0.007603
v 0.000256 -0.011978 0.005426
v 0.000256 -0.012890 0.002916
v 0.000256 -0.013198 0.000000
v 0.000256 -0.012867 -0.002625
v 0.000256 -0.011891 -0.005119
v 0.000256 -0.010319 -0.007356
v 0.000256 -0.008229 -0.009224
v 0.000256 -0.005726 -0.010630
v 0.000256 -0.002937 -0.011503
v 0.000256 -0.000000 -0.011798
v 0.000256 0.002937 -0.011503
v 0.000256 0.005726 -0.010630
v 0.000256 0.008229 -0.009224
v 0.000256 0.010319 -0.007356
v 0.000256 0.011891 -0.005119
v 0.000256 0.012867 -0.002625
v 0.000256 0.013198 0.000000
v -0.000678 0.013529 0.000000
v -0.000678 0.013214 0.002989
v -0.000678 0.012279 0.005562
v -0.000678 0.010761 0.007793
v -0.000678 0.008718 0.009620
v -0.000678 0.006222 0.010976
v -0.000678 0.003343 0.011812
v -0.000678 0.000000 0.012094
v -0.000678 -0.003343 0.011812
v -0.000678 -0.006222 0.010976
v -0.000678 -0.008718 0.009620
v -0.000678 -0.010761 0.007793
v -0.000678 -0.012279 0.005562
v -0.000678 -0.013214 0.002989
v -0.000678 -0.013529 0.000000
v -0.000678 -0.013190 -0.002691
v -0.000678 -0.012190 -0.005248
v -0.000678 -0.010578 -0.007541
v -0.000678 -0.008435 -0.009456
v -0.000678 -0.005870 -0.010897
v -0.000678 -0.003011 -0.011791
v -0.000678 -0.000000 -0.012094
v -0.000678 0.003011 -0.011791
v -0.000678 0.005870 -0.010897
v -0.000678 0.008435 -0.009456
v -0.000678 0.010578 -0.007541
v -0.000678 0.012190 -0.005248
v -0.000678 0.013190 -0.002691
v -0.000678 0.013529 0.000000
v -0.001612 0.013479 -0.000000
v -0.001612 0.013164 0.002978
v -0.001612 0.012233 0.005542
v -0.001612 0.010721 0.007764
v -0.001612 0.008686 0.009584
v -0.001612 0.006199 0.010935
v -0.001612 0.003331 0.011768
v -0.001612 0.000000 0.012049
v -0.001612 -0.003331 0.011768
v -0.001612 -0.006199 0.010935
v -0.001612 -0.008686 0.009584
v -0.001612 -0.010721 0.007764
v -0.001612 -0.012233 0.005542
v -0.001612 -0.013164 0.002978
v -0.001612 -0.013479 0.000000
v -0.001612 -0.013141 -0.002681
v -0.001612 -0.012144 -0.005228
v -0.001612 -0.010538 -0.007513
v -0.001612 -0.008404 -0.009420
v -0.001612 -0.005848 -0.010856
v -0.001612 -0.002999 -0.011747
v -0.001612 -0.000000 -0.012049
v -0.001612 0.002999 -0.011747
v -0.001612 0.005848 -0.010856
v -0.001612 0.008404 -0.009420
v -0.001612 0.010538 -0.007513
v -0.001612 0.012144 -0.005228
v -0.001612 0.013141 -0.002681
v -0.001612 0.013479 -0.000000
v -0.002546 0.012866 0.000000
v -0.002546 0.012566 0.002842
v -0.002546 0.011677 0.005290
v -0.002546 0.010234 0.007412
v -0.002546 0.008291 0.009148
v -0.002546 0.005917 0.010438
v -0.002546 0.003180 0.011233
v -0.002546 0.000000 0.011502
v -0.002546 -0.003180 0.011233
v -0.002546 -0.005917 0.010438
v -0.002546 -0.008291 0.009148
v -0.002546 -0.010234 0.007412
v -0.002546 -0.011677 0.005290
v -0.002546 -0.012566 0.002842
v -0.002546 -0.012866 0.000000
v -0.002546 -0.012544 -0.002559
v -0.002546 -0.011592 -0.004990
v -0.002546 -0.010059 -0.007171
v -0.002546 -0.008022 -0.008992
v -0.002546 -0.005583 -0.010363
v -0.002546 -0.002863 -0.011213
v -0.002546 -0.000000 -0.011502
v -0.002546 0.002863 -0.011213
v -0.002546 0.005583 -0.010363
v -0.002546 0.008022 -0.008992
v -0.002546 0.010059 -0.007171
v -0.002546 0.011592 -0.004990
v -0.002546 0.012544 -0.002559
v -0.002546 0.012866 0.000000
v -0.003480 0.012346 0.000000
v -0.003480 0.012057 0.002727
v -0.003480 0.011204 0.005076
v -0.003480 0.009819 0.007112
v -0.003480 0.007955 0.008778
v -0.003480 0.005678 0.010016
v -0.003480 0.003051 0.010779
v -0.003480 0.000000 0.011036
v -0.003480 -0.003051 0.010779
v -0.003480 -0.005678 0.010016
v -0.003480 -0.007955 0.008778
v -0.003480 -0.009819 0.007112
v -0.003480 -0.011204 0.005076
v -0.003480 -0.012057 0.002727
v -0.003480 -0.012346 0.000000
v -0.003480 -0.012036 -0.002456
v -0.003480 -0.011123 -0.004788
v -0.003480 -0.009652 -0.006881
v -0.003480 -0.007697 -0.008628
v -0.003480 -0.005357 -0.009943
v -0.003480 -0.002747 -0.010759
v -0.003480 -0.000000 -0.011036
v -0.003480 0.002747 -0.010759
v -0.003480 0.005357 -0.009943
v -0.003480 0.007697 -0.008628
v -0.003480 0.009652 -0.006881
v -0.003480 0.011123 -0.004788
v -0.003480 0.012036 -0.002456
v -0.003480 0.012346 -0.000000
v -0.004414 0.012481 0.000000
v -0.004414 0.012190 0.002757
v -0.004414 0.011327 0.005131
v -0.004414 0.009927 0.007190
v -0.004414 0.008043 0.008874
v -0.004414 0.005740 0.010126
v -0.004414 0.003084 0.010897
v -0.004414 0.000000 0.011158
v -0.004414 -0.003084 0.010897
v -0.004414 -0.005740 0.010126
v -0.004414 -0.008043 0.008874
v -0.004414 -0.009927 0.007190
v -0.004414 -0.011327 0.005131
v -0.004414 -0.012190 0.002757
v -0.004414 -0.012481 0.000000
v -0.004414 -0.012168 -0.002483
v -0.004414 -0.011245 -0.004841
v -0.004414 -0.009758 -0.006957
v -0.004414 -0.007782 -0.008723
v -0.004414 -0.005415 -0.010053
v -0.004414 -0.002777 -0.010878
v -0.004414 -0.000000 -0.011158
v -0.004414 0.002777 -0.010878
v -0.004414 0.005415 -0.010053
v -0.004414 0.007782 -0.008723
v -0.004414 0.009758 -0.006957
v -0.004414 0.011245 -0.004841
v -0.004414 0.012168 -0.002483
v -0.004414 0.012481 -0.000000
v -0.005349 0.012964 0.000000
v -0.005349 0.012661 0.002864
v -0.005349 0.011766 0.005330
v -0.005349 0.010311 0.007468
v -0.005349 0.008354 0.009218
v -0.005349 0.005962 0.010518
v -0.005349 0.003204 0.011319
v -0.005349 0.000000 0.011589
v -0.005349 -0.003204 0.011319
v -0.005349 -0.005962 0.010518
v -0.005349 -0.008354 0.009218
v -0.005349 -0.010311 0.007468
v -0.005349 -0.011766 0.005330
v -0.005349 -0.012661 0.002864
v -0.005349 -0.012964 0.000000
v -0.005349 -0.012639 -0.002579
v -0.005349 -0.011680 -0.005028
v -0.005349 -0.010136 -0.007226
v -0.005349 -0.008083 -0.009061
v -0.005349 -0.005625 -0.010441
v -0.005349 -0.002885 -0.011299
v -0.005349 -0.000000 -0.011589
v -0.005349 0.002885 -0.011299
v -0.005349 0.005625 -0.010441
v -0.005349 0.008083 -0.009061
v -0.005349 0.010136 -0.007226
v -0.005349 0.011680 -0.005028
v -0.005349 0.012639 -0.002579
v -0.005349 0.012964 0.000000
v -0.006283 0.013031 0.000000
v -0.006283 0.012726 0.002879
v -0.006283 0.011826 0.005357
v -0.006283 0.010364 0.007506
v -0.006283 0.008397 0.009265
v -0.006283 0.005993 0.010572
v -0.006283 0.003220 0.011377
v -0.006283 0.000000 0.011648
v -0.006283 -0.003220 0.011377
v -0.006283 -0.005993 0.010572
v -0.006283 -0.008397 0.009265
v -0.006283 -0.010364 0.007506
v -0.006283 -0.011826 0.005357
v -0.006283 -0.012726 0.002879
v -0.006283 -0.013031 0.000000
v -0.006283 -0.012704 -0.002592
v -0.006283 -0.011740 -0.005054
v -0.006283 -0.010188 -0.007263
v -0.006283 -0.008124 -0.009107
v -0.006283 -0.005654 -0.010495
v -0.006283 -0.002900 -0.011356
v -0.006283 -0.000000 -0.011648
v -0.006283 0.002900 -0.011356
v -0.006283 0.005654 -0.010495
v -0.006283 0.008124 -0.009107
v -0.006283 0.010188 -0.007263
v -0.006283 0.011740 -0.005054
v -0.006283 0.012704 -0.002592
v -0.006283 0.013031 -0.000000
v -0.007217 0.012482 0.000000
v -0.007217 0.012190 0.002757
v -0.007217 0.011328 0.005132
v -0.007217 0.009928 0.007190
v -0.007217 0.008043 0.008875
v -0.007217 0.005741 0.010126
v -0.007217 0.003084 0.010898
v -0.007217 0.000000 0.011158
v -0.007217 -0.003084 0.010898
v -0.007217 -0.005741 0.010126
v -0.007217 -0.008043 0.008875
v -0.007217 -0.009928 0.007190
v -0.007217 -0.011328 0.005132
v -0.007217 -0.012190 0.002757
v -0.007217 -0.012482 0.000000
v -0.007217 -0.012169 -0.002483
v -0.007217 -0.011246 -0.004841
v -0.007217 -0.009759 -0.006957
v -0.007217 -0.007782 -0.008724
v -0.007217 -0.005416 -0.010053
v -0.007217 -0.002777 -0.010878
v -0.007217 -0.000000 -0.011158
v -0.007217 0.002777 -0.010878
v -0.007217 0.005416 -0.010053
v -0.007217 0.007782 -0.008724
v -0.007217 0.009759 -0.006957
v -0.007217 0.011246 -0.004841
v -0.007217 0.012169 -0.002483
v -0.007217 0.012482 0.000000
v -0.008151 0.011997 0.000000
v -0.008151 0.011717 0.002650
v -0.008151 0.010888 0.004932
v -0.008151 0.009542 0.006911
v -0.008151 0.007731 0.008530
v -0.008151 0.005518 0.009733
v -0.008151 0.002965 0.010475
v -0.008151 0.000000 0.010725
v -0.008151 -0.002965 0.010475
v -0.008151 -0.005518 0.009733
v -0.008151 -0.007731 0.008530
v -0.008151 -0.009542 0.006911
v -0.008151 -0.010888 0.004932
v -0.008151 -0.011717 0.002650
v -0.008151 -0.011997 0.000000
v -0.008151 -0.011697 -0.002387
v -0.008151 -0.010809 -0.004653
v -0.008151 -0.009380 -0.006687
v -0.008151 -0.007480 -0.008385
v -0.008151 -0.005205 -0.009663
v -0.008151 -0.002670 -0.010456
v -0.008151 -0.000000 -0.010725
v -0.008151 0.002670 -0.010456
v -0.008151 0.005205 -0.009663
v -0.008151 0.007480 -0.008385
v -0.008151 0.009380 -0.006687
v -0.008151 0.010809 -0.004653
v -0.008151 0.011697 -0.002387
v -0.008151 0.011997 0.000000
vt 0.00000 3.97927
vt 0.07143 3.97927
vt 0.14286 3.97927
vt 0.21429 3.97927
vt 0.28571 3.97927
vt 0.35714 3.97927
vt 0.42857 3.97927
vt 0.50000 3.97927
vt 0.57143 3.97927
vt 0.64286 3.97927
vt 0.71429 3.97927
vt 0.78571 3.97927
vt 0.85714 3.97927
vt 0.92857 3.97927
vt 1.00000 3.97927
vt 1.07143 3.97927
vt 1.14286 3.97927
vt 1.21429 3.97927
vt 1.28571 3.97927
vt 1.35714 3.97927
vt 1.42857 3.97927
vt 1.50000 3.97927
vt 1.57143 3.97927
vt 1.64286 3.97927
vt 1.71429 3.97927
vt 1.78571 3.97927
vt 1.85714 3.97927
vt 1.92857 3.97927
vt 2.00000 3.97927
vt 0.00000 4.01040
vt 0.07143 4.01040
vt 0.14286 4.01040
vt 0.21429 4.01040
vt 0.28571 4.01040
vt 0.35714 4.01040
vt 0.42857 4.01040
vt 0.50000 4.01040
vt 0.57143 4.01040
vt 0.64286 4.01040
vt 0.71429 4.01040
vt 0.78571 4.01040
vt 0.85714 4.01040
vt 0.92857 4.01040
vt 1.00000 4.01040
vt 1.07143 4.01040
vt 1.14286 4.01040
vt 1.21429 4.01040
vt 1.28571 4.01040
vt 1.35714 4.01040
vt 1.42857 4.01040
vt 1.50000 4.01040
vt 1.57143 4.01040
vt 1.64286 4.01040
vt 1.71429 4.01040
vt 1.78571 4.01040
vt 1.85714 4.01040
vt 1.92857 4.01040
vt 2.00000 4.01040
vt 0.00000 4.04154
vt 0.07143 4.04154
vt 0.14286 4.04154
vt 0.21429 4.04154
vt 0.28571 4.04154
vt 0.35714 4.04154
vt 0.42857 4.04154
vt 0.50000 4.04154
vt 0.57143 4.04154
vt 0.64286 4.04154
vt 0.71429 4.04154
vt 0.78571 4.04154
vt 0.85714 4.04154
vt 0.92857 4.04154
vt 1.00000 4.04154
vt 1.07143 4.04154
vt 1.14286 4.04154
vt 1.21429 4.04154
vt 1.28571 4.04154
vt 1.35714 4.04154
vt 1.42857 4.04154
vt 1.50000 4.04154
vt 1.57143 4.04154
vt 1.64286 4.04154
vt 1.71429 4.04154
vt 1.78571 4.04154
vt 1.85714 4.04154
vt 1.92857 4.04154
vt 2.00000 4.04154
vt 0.00000 4.07268
vt 0.07143 4.07268
vt 0.14286 4.07268
vt 0.21429 4.07268
vt 0.28571 4.07268
vt 0.35714 4.07268
vt 0.42857 4.07268
vt 0.50000 4.07268
vt 0.57143 4.07268
vt 0.64286 4.07268
vt 0.71429 4.07268
vt 0.78571 4.07268
vt 0.85714 4.07268
vt 0.92857 4.07268
vt 1.00000 4.07268
vt 1.07143 4.07268
vt 1.14286 4.07268
vt 1.21429 4.07268
vt 1.28571 4.07268
vt 1.35714 4.07268
vt 1.42857 4.07268
vt 1.50000 4.07268
vt 1.57143 4.07268
vt 1.64286 4.07268
vt 1.71429 4.07268
vt 1.78571 4.07268
vt 1.85714 4.07268
vt 1.92857 4.07268
vt 2.00000 4.07268
vt 0.00000 4.10381
vt 0.07143 4.10381
vt 0.14286 4.10381
vt 0.21429 4.10381
vt 0.28571 4.10381
vt 0.35714 4.10381
vt 0.42857 4.10381
vt 0.50000 4.10381
vt 0.57143 4.10381
vt 0.64286 4.10381
vt 0.71429 4.10381
vt 0.78571 4.10381
vt 0.85714 4.10381
vt 0.92857 4.10381
vt 1.00000 4.10381
vt 1.07143 4.10381
vt 1.14286 4.10381
vt 1.21429 4.10381
vt 1.28571 4.10381
vt 1.35714 4.10381
vt 1.42857 4.10381
vt 1.50000 4.10381
vt 1.57143 4.10381
vt 1.64286 4.10381
vt 1.71429 4.10381
vt 1.78571 4.10381
vt 1.85714 4.10381
vt 1.92857 4.10381
vt 2.00000 4.10381
vt 0.00000 4.13495
vt 0.07143 4.13495
vt 0.14286 4.13495
vt 0.21429 4.13495
vt 0.28571 4.13495
vt 0.35714 4.13495
vt 0.42857 4.13495
vt 0.50000 4.13495
vt 0.57143 4.13495
vt 0.64286 4.13495
vt 0.71429 4.13495
vt 0.78571 4.13495
vt 0.85714 4.13495
vt 0.92857 4.13495
vt 1.00000 4.13495
vt 1.07143 4.13495
vt 1.14286 4.13495
vt 1.21429 4.13495
vt 1.28571 4.13495
vt 1.35714 4.13495
vt 1.42857 4.13495
vt 1.50000 4.13495
vt 1.57143 4.13495
vt 1.64286 4.13495
vt 1.71429 4.13495
vt 1.78571 4.13495
vt 1.85714 4.13495
vt 1.92857 4.13495
vt 2.00000 4.13495
vt 0.00000 4.16609
vt 0.07143 4.16609
vt 0.14286 4.16609
vt 0.21429 4.16609
vt 0.28571 4.16609
vt 0.35714 4.16609
vt 0.42857 4.16609
vt 0.50000 4.16609
vt 0.57143 4.16609
vt 0.64286 4.16609
vt 0.71429 4.16609
vt 0.78571 4.16609
vt 0.85714 4.16609
vt 0.92857 4.16609
vt 1.00000 4.16609
vt 1.07143 4.16609
vt 1.14286 4.16609
vt 1.21429 4.16609
vt 1.28571 4.16609
vt 1.35714 4.16609
vt 1.42857 4.16609
vt 1.50000 4.16609
vt 1.57143 4.16609
vt 1.64286 4.16609
vt 1.71429 4.16609
vt 1.78571 4.16609
vt 1.85714 4.16609
vt 1.92857 4.16609
vt 2.00000 4.16609
vt 0.00000 4.19723
vt 0.07143 4.19723
vt 0.14286 4.19723
vt 0.21429 4.19723
vt 0.28571 4.19723
vt 0.35714 4.19723
vt 0.42857 4.19723
vt 0.50000 4.19723
vt 0.57143 4.19723
vt 0.64286 4.19723
vt 0.71429 4.19723
vt 0.78571 4.19723
vt 0.85714 4.19723
vt 0.92857 4.19723
vt 1.00000 4.19723
vt 1.07143 4.19723
vt 1.14286 4.19723
vt 1.21429 4.19723
vt 1.28571 4.19723
vt 1.35714 4.19723
vt 1.42857 4.19723
vt 1.50000 4.19723
vt 1.57143 4.19723
vt 1.64286 4.19723
vt 1.71429 4.19723
vt 1.78571 4.19723
vt 1.85714 4.19723
vt 1.92857 4.19723
vt 2.00000 4.19723
vt 0.00000 4.22836
vt 0.07143 4.22836
vt 0.14286 4.22836
vt 0.21429 4.22836
vt 0.28571 4.22836
vt 0.35714 4.22836
vt 0.42857 4.22836
vt 0.50000 4.22836
vt 0.57143 4.22836
vt 0.64286 4.22836
vt 0.71429 4.22836
vt 0.78571 4.22836
vt 0.85714 4.22836
vt 0.92857 4.22836
vt 1.00000 4.22836
vt 1.07143 4.22836
vt 1.14286 4.22836
vt 1.21429 4.22836
vt 1.28571 4.22836
vt 1.35714 4.22836
vt 1.42857 4.22836
vt 1.50000 4.22836
vt 1.57143 4.22836
vt 1.64286 4.22836
vt 1.71429 4.22836
vt 1.78571 4.22836
vt 1.85714 4.22836
vt 1.92857 4.22836
vt 2.00000 4.22836
vt 0.00000 4.25950
vt 0.07143 4.25950
vt 0.14286 4.25950
vt 0.21429 4.25950
vt 0.28571 4.25950
vt 0.35714 4.25950
vt 0.42857 4.25950
vt 0.50000 4.25950
vt 0.57143 4.25950
vt 0.64286 4.25950
vt 0.71429 4.25950
vt 0.78571 4.25950
vt 0.85714 4.25950
vt 0.92857 4.25950
vt 1.00000 4.25950
vt 1.07143 4.25950
vt 1.14286 4.25950
vt 1.21429 4.25950
vt 1.28571 4.25950
vt 1.35714 4.25950
vt 1.42857 4.25950
vt 1.50000 4.25950
vt 1.57143 4.25950
vt 1.64286 4.25950
vt 1.71429 4.25950
vt 1.78571 4.25950
vt 1.85714 4.25950
vt 1.92857 4.25950
vt 2.00000 4.25950
vt 0.00000 4.29064
vt 0.07143 4.29064
vt 0.14286 4.29064
vt 0.21429 4.29064
vt 0.28571 4.29064
vt 0.35714 4.29064
vt 0.42857 4.29064
vt 0.50000 4.29064
vt 0.57143 4.29064
vt 0.64286 4.29064
vt 0.71429 4.29064
vt 0.78571 4.29064
vt 0.85714 4.29064
vt 0.92857 4.29064
vt 1.00000 4.29064
vt 1.07143 4.29064
vt 1.14286 4.29064
vt 1.21429 4.29064
vt 1.28571 4.29064
vt 1.35714 4.29064
vt 1.42857 4.29064
vt 1.50000 4.29064
vt 1.57143 4.29064
vt 1.64286 4.29064
vt 1.71429 4.29064
vt 1.78571 4.29064
vt 1.85714 4.29064
vt 1.92857 4.29064
vt 2.00000 4.29064
vt 0.00000 4.32177
vt 0.07143 4.32177
vt 0.14286 4.32177
vt 0.21429 4.32177
vt 0.28571 4.32177
vt 0.35714 4.32177
vt 0.42857 4.32177
vt 0.50000 4.32177
vt 0.57143 4.32177
vt 0.64286 4.32177
vt 0.71429 4.32177
vt 0.78571 4.32177
vt 0.85714 4.32177
vt 0.92857 4.32177
vt 1.00000 4.32177
vt 1.07143 4.32177
vt 1.14286 4.32177
vt 1.21429 4.32177
vt 1.28571 4.32177
vt 1.35714 4.32177
vt 1.42857 4.32177
vt 1.50000 4.32177
vt 1.57143 4.32177
vt 1.64286 4.32177
vt 1.71429 4.32177
vt 1.78571 4.32177
vt 1.85714 4.32177
vt 1.92857 4.32177
vt 2.00000 4.32177
vt 0.00000 4.35291
vt 0.07143 4.35291
vt 0.14286 4.35291
vt 0.21429 4.35291
vt 0.28571 4.35291
vt 0.35714 4.35291
vt 0.42857 4.35291
vt 0.50000 4.35291
vt 0.57143 4.35291
vt 0.64286 4.35291
vt 0.71429 4.35291
vt 0.78571 4.35291
vt 0.85714 4.35291
vt 0.92857 4.35291
vt 1.00000 4.35291
vt 1.07143 4.35291
vt 1.14286 4.35291
vt 1.21429 4.35291
vt 1.28571 4.35291
vt 1.35714 4.35291
vt 1.42857 4.35291
vt 1.50000 4.35291
vt 1.57143 4.35291
vt 1.64286 4.35291
vt 1.71429 4.35291
vt 1.78571 4.35291
vt 1.85714 4.35291
vt 1.92857 4.35291
vt 2.00000 4.35291
vt 0.00000 4.38405
vt 0.07143 4.38405
vt 0.14286 4.38405
vt 0.21429 4.38405
vt 0.28571 4.38405
vt 0.35714 4.38405
vt 0.42857 4.38405
vt 0.50000 4.38405
vt 0.57143 4.38405
vt 0.64286 4.38405
vt 0.71429 4.38405
vt 0.78571 4.38405
vt 0.85714 4.38405
vt 0.92857 4.38405
vt 1.00000 4.38405
vt 1.07143 4.38405
vt 1.14286 4.38405
vt 1.21429 4.38405
vt 1.28571 4.38405
vt 1.35714 4.38405
vt 1.42857 4.38405
vt 1.50000 4.38405
vt 1.57143 4.38405
vt 1.64286 4.38405
vt 1.71429 4.38405
vt 1.78571 4.38405
vt 1.85714 4.38405
vt 1.92857 4.38405
vt 2.00000 4.38405
vt 0.00000 4.41518
vt 0.07143 4.41518
vt 0.14286 4.41518
vt 0.21429 4.41518
vt 0.28571 4.41518
vt 0.35714 4.41518
vt 0.42857 4.41518
vt 0.50000 4.41518
vt 0.57143 4.41518
vt 0.64286 4.41518
vt 0.71429 4.41518
vt 0.78571 4.41518
vt 0.85714 4.41518
vt 0.92857 4.41518
vt 1.00000 4.41518
vt 1.07143 4.41518
vt 1.14286 4.41518
vt 1.21429 4.41518
vt 1.28571 4.41518
vt 1.35714 4.41518
vt 1.42857 4.41518
vt 1.50000 4.41518
vt 1.57143 4.41518
vt 1.64286 4.41518
vt 1.71429 4.41518
vt 1.78571 4.41518
vt 1.85714 4.41518
vt 1.92857 4.41518
vt 2.00000 4.41518
vt 0.00000 4.44632
vt 0.07143 4.44632
vt 0.14286 4.44632
vt 0.21429 4.44632
vt 0.28571 4.44632
vt 0.35714 4.44632
vt 0.42857 4.44632
vt 0.50000 4.44632
vt 0.57143 4.44632
vt 0.64286 4.44632
vt 0.71429 4.44632
vt 0.78571 4.44632
vt 0.85714 4.44632
vt 0.92857 4.44632
vt 1.00000 4.44632
vt 1.07143 4.44632
vt 1.14286 4.44632
vt 1.21429 4.44632
vt 1.28571 4.44632
vt 1.35714 4.44632
vt 1.42857 4.44632
vt 1.50000 4.44632
vt 1.57143 4.44632
vt 1.64286 4.44632
vt 1.71429 4.44632
vt 1.78571 4.44632
vt 1.85714 4.44632
vt 1.92857 4.44632
vt 2.00000 4.44632
vt 0.00000 4.47746
vt 0.07143 4.47746
vt 0.14286 4.47746
vt 0.21429 4.47746
vt 0.28571 4.47746
vt 0.35714 4.47746
vt 0.42857 4.47746
vt 0.50000 4.47746
vt 0.57143 4.47746
vt 0.64286 4.47746
vt 0.71429 4.47746
vt 0.78571 4.47746
vt 0.85714 4.47746
vt 0.92857 4.47746
vt 1.00000 4.47746
vt 1.07143 4.47746
vt 1.14286 4.47746
vt 1.21429 4.47746
vt 1.28571 4.47746
vt 1.35714 4.47746
vt 1.42857 4.47746
vt 1.50000 4.47746
vt 1.57143 4.47746
vt 1.64286 4.47746
vt 1.71429 4.47746
vt 1.78571 4.47746
vt 1.85714 4.47746
vt 1.92857 4.47746
vt 2.00000 4.47746
vt 0.00000 4.50859
vt 0.07143 4.50859
vt 0.14286 4.50859
vt 0.21429 4.50859
vt 0.28571 4.50859
vt 0.35714 4.50859
vt 0.42857 4.50859
vt 0.50000 4.50859
vt 0.57143 4.50859
vt 0.64286 4.50859
vt 0.71429 4.50859
vt 0.78571 4.50859
vt 0.85714 4.50859
vt 0.92857 4.50859
vt 1.00000 4.50859
vt 1.07143 4.50859
vt 1.14286 4.50859
vt 1.21429 4.50859
vt 1.28571 4.50859
vt 1.35714 4.50859
vt 1.42857 4.50859
vt 1.50000 4.50859
vt 1.57143 4.50859
vt 1.64286 4.50859
vt 1.71429 4.50859
vt 1.78571 4.50859
vt 1.85714 4.50859
vt 1.92857 4.50859
vt 2.00000 4.50859
vt 0.00000 4.53973
vt 0.07143 4.53973
vt 0.14286 4.53973
vt 0.21429 4.53973
vt 0.28571 4.53973
vt 0.35714 4.53973
vt 0.42857 4.53973
vt 0.50000 4.53973
vt 0.57143 4.53973
vt 0.64286 4.53973
vt 0.71429 4.53973
vt 0.78571 4.53973
vt 0.85714 4.53973
vt 0.92857 4.53973
vt 1.00000 4.53973
vt 1.07143 4.53973
vt 1.14286 4.53973
vt 1.21429 4.53973
vt 1.28571 4.53973
vt 1.35714 4.53973
vt 1.42857 4.53973
vt 1.50000 4.53973
vt 1.57143 4.53973
vt 1.64286 4.53973
vt 1.71429 4.53973
vt 1.78571 4.53973
vt 1.85714 4.53973
vt 1.92857 4.53973
vt 2.00000 4.53973
vt 0.00000 4.57087
vt 0.07143 4.57087
vt 0.14286 4.57087
vt 0.21429 4.57087
vt 0.28571 4.57087
vt 0.35714 4.57087
vt 0.42857 4.57087
vt 0.50000 4.57087
vt 0.57143 4.57087
vt 0.64286 4.57087
vt 0.71429 4.57087
vt 0.78571 4.57087
vt 0.85714 4.57087
vt 0.92857 4.57087
vt 1.00000 4.57087
vt 1.07143 4.57087
vt 1.14286 4.57087
vt 1.21429 4.57087
vt 1.28571 4.57087
vt 1.35714 4.57087
vt 1.42857 4.57087
vt 1.50000 4.57087
vt 1.57143 4.57087
vt 1.64286 4.57087
vt 1.71429 4.57087
vt 1.78571 4.57087
vt 1.85714 4.57087
vt 1.92857 4.57087
vt 2.00000 4.57087
vt 0.00000 4.60200
vt 0.07143 4.60200
vt 0.14286 4.60200
vt 0.21429 4.60200
vt 0.28571 4.60200
vt 0.35714 4.60200
vt 0.42857 4.60200
vt 0.50000 4.60200
vt 0.57143 4.60200
vt 0.64286 4.60200
vt 0.71429 4.60200
vt 0.78571 4.60200
vt 0.85714 4.60200
vt 0.92857 4.60200
vt 1.00000 4.60200
vt 1.07143 4.60200
vt 1.14286 4.60200
vt 1.21429 4.60200
vt 1.28571 4.60200
vt 1.35714 4.60200
vt 1.42857 4.60200
vt 1.50000 4.60200
vt 1.57143 4.60200
vt 1.64286 4.60200
vt 1.71429 4.60200
vt 1.78571 4.60200
vt 1.85714 4.60200
vt 1.92857 4.60200
vt 2.00000 4.60200
vn -0.04723 0.99832 0.03361
vn -0.04728 0.96469 0.25909
vn -0.04690 0.86998 0.49084
vn -0.04599 0.72342 0.68887
vn -0.04475 0.54175 0.83935
vn -0.04348 0.34419 0.93789
vn -0.04252 0.14479 0.98855
vn -0.04224 -0.02806 0.99871
vn -0.04280 -0.20965 0.97684
vn -0.04389 -0.41063 0.91075
vn -0.04518 -0.60495 0.79498
vn -0.04634 -0.77711 0.62766
vn -0.04708 -0.90775 0.41687
vn -0.04728 -0.98251 0.18008
vn -0.04721 -0.99795 -0.04315
vn -0.04683 -0.95682 -0.28688
vn -0.04598 -0.85986 -0.50845
vn -0.04489 -0.71965 -0.69288
vn -0.04380 -0.55012 -0.83394
vn -0.04292 -0.36297 -0.93081
vn -0.04237 -0.16656 -0.98512
vn -0.04223 0.03346 -0.99855
vn -0.04251 0.23279 -0.97160
vn -0.04318 0.42684 -0.90329
vn -0.04415 0.60920 -0.79179
vn -0.04526 0.77040 -0.63595
vn -0.04630 0.89775 -0.43807
vn -0.04702 0.97726 -0.20677
vn -0.04723 0.99832 0.03361
vn 0.17843 0.98395 -0.00365
vn 0.17150 0.96109 0.21656
vn 0.17291 0.87705 0.44820
vn 0.17063 0.74031 0.65025
vn 0.16679 0.56579 0.80750
vn 0.16279 0.37232 0.91371
vn 0.16125 0.17421 0.97142
vn 0.15663 -0.00030 0.98766
vn 0.15510 -0.17507 0.97226
vn 0.16103 -0.37314 0.91369
vn 0.16630 -0.56651 0.80710
vn 0.17117 -0.74081 0.64954
vn 0.17482 -0.87715 0.44727
vn 0.17828 -0.96010 0.21546
vn 0.17090 -0.98528 -0.00446
vn 0.17362 -0.95409 -0.24405
vn 0.17079 -0.86724 -0.46767
vn 0.16693 -0.73548 -0.65666
vn 0.16295 -0.57241 -0.80361
vn 0.15959 -0.39001 -0.90688
vn 0.15739 -0.19707 -0.96767
vn 0.15663 0.00036 -0.98766
vn 0.15739 0.19778 -0.96753
vn 0.15960 0.39068 -0.90658
vn 0.16296 0.57304 -0.80316
vn 0.16695 0.73602 -0.65605
vn 0.17080 0.86764 -0.46693
vn 0.17363 0.95431 -0.24320
vn 0.17843 0.98395 -0.00365
vn 0.22466 0.97443 -0.00349
vn 0.23001 0.94936 0.21405
vn 0.22697 0.86716 0.44330
vn 0.22270 0.73238 0.64345
vn 0.21677 0.56008 0.79957
vn 0.21040 0.36880 0.90538
vn 0.20406 0.17270 0.96360
vn 0.20428 -0.00039 0.97891
vn 0.20847 -0.17343 0.96253
vn 0.21169 -0.36961 0.90475
vn 0.21716 -0.56090 0.79890
vn 0.22235 -0.73317 0.64266
vn 0.22563 -0.86795 0.44243
vn 0.22522 -0.95069 0.21322
vn 0.22999 -0.97318 -0.00453
vn 0.22599 -0.94371 -0.24153
vn 0.22238 -0.85808 -0.46288
vn 0.21746 -0.72802 -0.65016
vn 0.21237 -0.56684 -0.79598
vn 0.20808 -0.38632 -0.89859
vn 0.20526 -0.19521 -0.95904
vn 0.20428 0.00046 -0.97891
vn 0.20526 0.19612 -0.95886
vn 0.20809 0.38720 -0.89821
vn 0.21239 0.56765 -0.79540
vn 0.21749 0.72871 -0.64937
vn 0.22240 0.85859 -0.46191
vn 0.22600 0.94399 -0.24044
vn 0.22466 0.97443 -0.00349
vn -0.27642 0.96103 -0.00458
vn -0.26651 0.94049 0.21081
vn -0.26849 0.85827 0.43736
vn -0.26509 0.72517 0.63550
vn -0.25934 0.55504 0.79036
vn -0.25333 0.36594 0.89549
vn -0.25091 0.17174 0.95265
vn -0.24410 0.00046 0.96975
vn -0.24194 -0.17108 0.95509
vn -0.25073 -0.36510 0.89657
vn -0.25857 -0.55412 0.79126
vn -0.26580 -0.72414 0.63637
vn -0.27120 -0.85698 0.43823
vn -0.27622 -0.93753 0.21150
vn -0.26563 -0.96407 -0.00334
vn -0.26950 -0.93323 -0.23758
vn -0.26530 -0.84914 -0.45670
vn -0.25956 -0.72106 -0.64241
vn -0.25361 -0.56200 -0.78730
vn -0.24857 -0.38353 -0.88945
vn -0.24526 -0.19436 -0.94978
vn -0.24410 -0.00055 -0.96975
vn -0.24525 0.19327 -0.95000
vn -0.24855 0.38248 -0.88991
vn -0.25357 0.56103 -0.78800
vn -0.25953 0.72024 -0.64335
vn -0.26527 0.84853 -0.45785
vn -0.26948 0.93290 -0.23889
vn -0.27642 0.96103 -0.00458
vn -0.56645 0.82408 -0.00474
vn -0.56600 0.80463 0.17948
vn -0.56402 0.73614 0.37414
vn -0.55733 0.62501 0.54657
vn -0.54722 0.48170 0.68448
vn -0.53621 0.32002 0.78107
vn -0.52738 0.15145 0.83603
vn -0.52303 0.00102 0.85231
vn -0.52637 -0.14921 0.83706
vn -0.53580 -0.31773 0.78228
vn -0.54699 -0.47953 0.68619
vn -0.55728 -0.62314 0.54876
vn -0.56421 -0.73469 0.37668
vn -0.56692 -0.80339 0.18212
vn -0.56544 -0.82479 -0.00205
vn -0.56360 -0.80073 -0.20294
vn -0.55712 -0.73176 -0.39260
vn -0.54811 -0.62505 -0.55578
vn -0.53859 -0.49016 -0.68532
vn -0.53042 -0.33636 -0.77815
vn -0.52496 -0.17135 -0.83370
vn -0.52303 -0.00121 -0.85231
vn -0.52490 0.16896 -0.83422
vn -0.53032 0.33408 -0.77920
vn -0.53846 0.48809 -0.68690
vn -0.54797 0.62331 -0.55786
vn -0.55700 0.73049 -0.39513
vn -0.56354 0.80005 -0.20577
vn -0.56645 0.82408 -0.00474
vn -0.39081 0.92046 -0.00476
vn -0.39938 0.89467 0.20014
vn -0.39462 0.81886 0.41683
vn -0.38799 0.69342 0.60715
vn -0.37871 0.53221 0.75719
vn -0.36863 0.35196 0.86037
vn -0.35843 0.16595 0.91869
vn -0.35887 0.00072 0.93339
vn -0.36563 -0.16379 0.91623
vn -0.37063 -0.34996 0.86032
vn -0.37922 -0.53048 0.75815
vn -0.38732 -0.69227 0.60889
vn -0.39242 -0.81874 0.41913
vn -0.39169 -0.89746 0.20286
vn -0.39937 -0.91679 -0.00281
vn -0.39307 -0.89119 -0.22646
vn -0.38748 -0.81208 -0.43633
vn -0.37980 -0.69095 -0.61509
vn -0.37178 -0.53963 -0.75537
vn -0.36496 -0.36896 -0.85479
vn -0.36045 -0.18733 -0.91377
vn -0.35887 -0.00086 -0.93339
vn -0.36042 0.18563 -0.91413
vn -0.36491 0.36733 -0.85552
vn -0.37171 0.53814 -0.75647
vn -0.37972 0.68968 -0.61656
vn -0.38741 0.81115 -0.43812
vn -0.39303 0.89068 -0.22849
vn -0.39081 0.92046 -0.00476
vn 0.10962 0.99397 -0.00383
vn 0.10248 0.97044 0.21851
vn 0.10433 0.88568 0.45243
vn 0.10320 0.74742 0.65628
vn 0.10104 0.57101 0.81470
vn 0.09882 0.37564 0.92148
vn 0.09874 0.17578 0.97946
vn 0.09468 -0.00019 0.99551
vn 0.09251 -0.17633 0.97997
vn 0.09703 -0.37616 0.92146
vn 0.10052 -0.57148 0.81444
vn 0.10373 -0.74775 0.65583
vn 0.10626 -0.88575 0.45183
vn 0.10938 -0.96984 0.21781
vn 0.10196 -0.99478 -0.00436
vn 0.10515 -0.96348 -0.24629
vn 0.10340 -0.87553 -0.47197
vn 0.10102 -0.74223 -0.66249
vn 0.09857 -0.57746 -0.81045
vn 0.09650 -0.39335 -0.91431
vn 0.09515 -0.19878 -0.97541
vn 0.09468 0.00023 -0.99551
vn 0.09515 0.19924 -0.97532
vn 0.09651 0.39379 -0.91412
vn 0.09857 0.57786 -0.81016
vn 0.10103 0.74258 -0.66210
vn 0.10340 0.87579 -0.47149
vn 0.10515 0.96362 -0.24574
vn 0.10962 0.99397 -0.00383
vn 0.12835 0.99172 -0.00376
vn 0.13473 0.96667 0.21773
vn 0.13183 0.88273 0.45101
vn 0.12896 0.74512 0.65435
vn 0.12519 0.56938 0.81248
vn 0.12111 0.37465 0.91922
vn 0.11638 0.17539 0.97760
vn 0.11786 -0.00024 0.99303
vn 0.12171 -0.17583 0.97687
vn 0.12266 -0.37514 0.91882
vn 0.12564 -0.56989 0.81206
vn 0.12852 -0.74562 0.65386
vn 0.13018 -0.88325 0.45048
vn 0.12885 -0.96758 0.21723
vn 0.13488 -0.99085 -0.00441
vn 0.13082 -0.96050 -0.24560
vn 0.12866 -0.87290 -0.47063
vn 0.12572 -0.74009 -0.66066
vn 0.12268 -0.57585 -0.80830
vn 0.12012 -0.39228 -0.91197
vn 0.11845 -0.19823 -0.97297
vn 0.11786 0.00028 -0.99303
vn 0.11845 0.19879 -0.97286
vn 0.12013 0.39282 -0.91173
vn 0.12269 0.57635 -0.80794
vn 0.12573 0.74052 -0.66017
vn 0.12867 0.87322 -0.47003
vn 0.13082 0.96068 -0.24492
vn 0.12835 0.99172 -0.00376
vn -0.37006 0.92900 -0.00474
vn -0.36165 0.90981 0.20360
vn -0.36276 0.83045 0.42281
vn -0.35806 0.70243 0.61513
vn -0.35048 0.53851 0.76628
vn -0.34245 0.35567 0.86961
vn -0.33806 0.16724 0.92615
vn -0.33114 0.00068 0.94358
vn -0.33018 -0.16617 0.92918
vn -0.34013 -0.35439 0.87104
vn -0.34976 -0.53715 0.76756
vn -0.35865 -0.70098 0.61644
vn -0.36508 -0.82874 0.42416
vn -0.37002 -0.90618 0.20476
vn -0.36076 -0.93265 -0.00293
vn -0.36349 -0.90289 -0.22951
vn -0.35818 -0.82242 -0.44196
vn -0.35090 -0.69938 -0.62268
vn -0.34332 -0.54591 -0.76427
vn -0.33688 -0.37307 -0.86448
vn -0.33263 -0.18933 -0.92386
vn -0.33114 -0.00081 -0.94358
vn -0.33260 0.18774 -0.92419
vn -0.33683 0.37154 -0.86516
vn -0.34326 0.54451 -0.76530
vn -0.35084 0.69818 -0.62406
vn -0.35813 0.82153 -0.44365
vn -0.36345 0.90241 -0.23142
vn -0.37006 0.92900 -0.00474
vn -0.58920 0.80798 -0.00485
vn -0.58974 0.78827 0.17562
vn -0.58742 0.72155 0.36648
vn -0.58064 0.61301 0.53579
vn -0.57042 0.47287 0.67158
vn -0.55927 0.31447 0.76703
vn -0.55003 0.14904 0.82174
vn -0.54611 0.00115 0.83771
vn -0.54993 -0.14639 0.82228
vn -0.55910 -0.31181 0.76823
vn -0.57024 -0.47039 0.67347
vn -0.58049 -0.61095 0.53831
vn -0.58734 -0.72010 0.36944
vn -0.58972 -0.78758 0.17875
vn -0.58923 -0.80797 -0.00181
vn -0.58687 -0.78492 -0.19871
vn -0.58039 -0.71769 -0.38481
vn -0.57135 -0.61345 -0.54519
vn -0.56179 -0.48142 -0.67277
vn -0.55356 -0.33061 -0.76437
vn -0.54806 -0.16858 -0.81928
vn -0.54611 -0.00138 -0.83771
vn -0.54799 0.16587 -0.81987
vn -0.55345 0.32803 -0.76557
vn -0.56164 0.47908 -0.67457
vn -0.57120 0.61149 -0.54756
vn -0.58025 0.71625 -0.38767
vn -0.58680 0.78416 -0.20191
vn -0.58920 0.80798 -0.00485
vn -0.36048 0.93275 -0.00482
vn -0.37010 0.90658 0.20281
vn -0.36508 0.82967 0.42234
vn -0.35865 0.70230 0.61493
vn -0.34975 0.53871 0.76646
vn -0.34009 0.35605 0.87038
vn -0.32999 0.16780 0.92895
vn -0.33106 0.00072 0.94361
vn -0.33809 -0.16562 0.92643
vn -0.34235 -0.35404 0.87032
vn -0.35033 -0.53697 0.76742
vn -0.35790 -0.70115 0.61668
vn -0.36260 -0.82957 0.42466
vn -0.36140 -0.90947 0.20557
vn -0.37017 -0.92896 -0.00285
vn -0.36341 -0.90293 -0.22945
vn -0.35811 -0.82248 -0.44192
vn -0.35083 -0.69944 -0.62266
vn -0.34324 -0.54598 -0.76426
vn -0.33681 -0.37313 -0.86448
vn -0.33255 -0.18939 -0.92387
vn -0.33106 -0.00086 -0.94361
vn -0.33253 0.18769 -0.92423
vn -0.33676 0.37150 -0.86521
vn -0.34318 0.54448 -0.76536
vn -0.35076 0.69816 -0.62413
vn -0.35805 0.82153 -0.44373
vn -0.36337 0.90242 -0.23150
vn -0.36048 0.93275 -0.00482
vn 0.15423 0.98803 -0.00366
vn 0.14787 0.96482 0.21740
vn 0.14921 0.88049 0.44996
vn 0.14726 0.74314 0.65273
vn 0.14394 0.56785 0.81045
vn 0.14050 0.37361 0.91688
vn 0.13926 0.17480 0.97471
vn 0.13510 -0.00030 0.99083
vn 0.13363 -0.17563 0.97535
vn 0.13888 -0.37441 0.91680
vn 0.14349 -0.56856 0.81003
vn 0.14775 -0.74366 0.65203
vn 0.15096 -0.88066 0.44906
vn 0.15408 -0.96408 0.21635
vn 0.14733 -0.98908 -0.00448
vn 0.14987 -0.95786 -0.24502
vn 0.14741 -0.87056 -0.46946
vn 0.14406 -0.73817 -0.65906
vn 0.14059 -0.57441 -0.80641
vn 0.13768 -0.39131 -0.90990
vn 0.13576 -0.19771 -0.97081
vn 0.13510 0.00036 -0.99083
vn 0.13577 0.19842 -0.97067
vn 0.13768 0.39199 -0.90961
vn 0.14060 0.57503 -0.80596
vn 0.14407 0.73871 -0.65845
vn 0.14742 0.87096 -0.46871
vn 0.14988 0.95808 -0.24417
vn 0.15423 0.98803 -0.00366
vn 0.14444 0.98951 -0.00368
vn 0.15113 0.96434 0.21728
vn 0.14804 0.88066 0.45003
vn 0.14488 0.74341 0.65295
vn 0.14069 0.56813 0.81082
vn 0.13617 0.37385 0.91744
vn 0.13100 0.17501 0.97581
vn 0.13247 -0.00029 0.99119
vn 0.13659 -0.17555 0.97495
vn 0.13779 -0.37446 0.91695
vn 0.14117 -0.56875 0.81031
vn 0.14442 -0.74402 0.65236
vn 0.14632 -0.88127 0.44938
vn 0.14498 -0.96542 0.21667
vn 0.15128 -0.98848 -0.00447
vn 0.14697 -0.95829 -0.24511
vn 0.14455 -0.87094 -0.46965
vn 0.14126 -0.73848 -0.65932
vn 0.13786 -0.57464 -0.80671
vn 0.13500 -0.39146 -0.91024
vn 0.13312 -0.19779 -0.97116
vn 0.13247 0.00035 -0.99119
vn 0.13313 0.19848 -0.97102
vn 0.13501 0.39212 -0.90995
vn 0.13787 0.57525 -0.80627
vn 0.14127 0.73900 -0.65873
vn 0.14456 0.87133 -0.46892
vn 0.14698 0.95850 -0.24429
vn 0.14444 0.98951 -0.00368
vn -0.33668 0.94161 -0.00478
vn -0.32883 0.92159 0.20627
vn -0.32986 0.84126 0.42834
vn -0.32548 0.71133 0.62296
vn -0.31842 0.54503 0.77560
vn -0.31096 0.35977 0.87970
vn -0.30688 0.16910 0.93661
vn -0.30046 0.00066 0.95380
vn -0.29956 -0.16798 0.93917
vn -0.30880 -0.35847 0.88099
vn -0.31775 -0.54367 0.77683
vn -0.32603 -0.70992 0.62427
vn -0.33203 -0.83969 0.42973
vn -0.33664 -0.91848 0.20751
vn -0.32800 -0.94467 -0.00299
vn -0.33054 -0.91469 -0.23254
vn -0.32560 -0.83285 -0.44760
vn -0.31882 -0.70788 -0.63029
vn -0.31176 -0.55225 -0.77319
vn -0.30578 -0.37723 -0.87418
vn -0.30184 -0.19138 -0.93395
vn -0.30046 -0.00079 -0.95380
vn -0.30181 0.18981 -0.93428
vn -0.30574 0.37572 -0.87485
vn -0.31170 0.55087 -0.77420
vn -0.31876 0.70670 -0.63164
vn -0.32555 0.83198 -0.44926
vn -0.33051 0.91422 -0.23442
vn -0.33668 0.94161 -0.00478
vn -0.51856 0.85503 -0.00497
vn -0.52008 0.83364 0.18590
vn -0.51746 0.76286 0.38766
vn -0.51069 0.64724 0.56593
vn -0.50063 0.49824 0.70790
vn -0.48969 0.33061 0.80678
vn -0.48045 0.15637 0.86297
vn -0.47713 0.00109 0.87883
vn -0.48128 -0.15378 0.86297
vn -0.48981 -0.32802 0.80777
vn -0.50054 -0.49585 0.70964
vn -0.51049 -0.64529 0.56834
vn -0.51712 -0.76162 0.39055
vn -0.51912 -0.83354 0.18901
vn -0.51963 -0.85439 -0.00207
vn -0.51679 -0.82989 -0.21028
vn -0.51041 -0.75778 -0.40650
vn -0.50158 -0.64654 -0.57482
vn -0.49227 -0.50641 -0.70796
vn -0.48431 -0.34718 -0.80306
vn -0.47900 -0.17677 -0.85983
vn -0.47713 -0.00130 -0.87883
vn -0.47895 0.17421 -0.86038
vn -0.48421 0.34473 -0.80418
vn -0.49214 0.50419 -0.70964
vn -0.50144 0.64466 -0.57704
vn -0.51029 0.75641 -0.40921
vn -0.51672 0.82915 -0.21332
vn -0.51856 0.85503 -0.00497
vn -0.19771 0.98025 -0.00462
vn -0.20911 0.95420 0.21394
vn -0.20414 0.87220 0.44452
vn -0.19966 0.73690 0.64585
vn -0.19383 0.56376 0.80287
vn -0.18749 0.37152 0.90930
vn -0.17974 0.17448 0.96812
vn -0.18276 0.00043 0.98316
vn -0.18934 -0.17318 0.96652
vn -0.19024 -0.37031 0.90922
vn -0.19460 -0.56271 0.80342
vn -0.19882 -0.73621 0.64689
vn -0.20117 -0.87217 0.44593
vn -0.19857 -0.95607 0.21563
vn -0.20943 -0.97782 -0.00344
vn -0.20239 -0.94902 -0.24166
vn -0.19913 -0.86304 -0.46424
vn -0.19469 -0.73233 -0.65253
vn -0.19008 -0.57035 -0.79910
vn -0.18620 -0.38899 -0.90223
vn -0.18365 -0.19702 -0.96305
vn -0.18276 -0.00051 -0.98316
vn -0.18364 0.19601 -0.96325
vn -0.18618 0.38801 -0.90265
vn -0.19006 0.56946 -0.79975
vn -0.19466 0.73156 -0.65340
vn -0.19911 0.86246 -0.46531
vn -0.20238 0.94871 -0.24288
vn -0.19771 0.98025 -0.00462
vn 0.31840 0.94795 -0.00300
vn 0.31347 0.92625 0.20926
vn 0.31354 0.84531 0.43260
vn 0.30905 0.71419 0.62802
vn 0.30206 0.54660 0.78102
vn 0.29467 0.36016 0.88513
vn 0.28996 0.16850 0.94209
vn 0.28500 -0.00067 0.95853
vn 0.28534 -0.17028 0.94318
vn 0.29339 -0.36188 0.88485
vn 0.30175 -0.54815 0.78005
vn 0.30949 -0.71535 0.62649
vn 0.31498 -0.84577 0.43065
vn 0.31850 -0.92504 0.20704
vn 0.31280 -0.94981 -0.00481
vn 0.31384 -0.91972 -0.23583
vn 0.30907 -0.83683 -0.45188
vn 0.30255 -0.71065 -0.63517
vn 0.29578 -0.55381 -0.77833
vn 0.29006 -0.37766 -0.87934
vn 0.28630 -0.19076 -0.93896
vn 0.28500 0.00079 -0.95853
vn 0.28632 0.19233 -0.93863
vn 0.29011 0.37917 -0.87868
vn 0.29584 0.55520 -0.77732
vn 0.30261 0.71183 -0.63381
vn 0.30912 0.83771 -0.45021
vn 0.31387 0.92019 -0.23394
vn 0.31840 0.94795 -0.00300
vn 0.27724 0.96080 -0.00317
vn 0.28405 0.93527 0.21117
vn 0.28026 0.85458 0.43720
vn 0.27510 0.72207 0.63477
vn 0.26794 0.55252 0.78926
vn 0.26023 0.36402 0.89430
vn 0.25245 0.17047 0.95248
vn 0.25289 -0.00058 0.96750
vn 0.25813 -0.17154 0.95076
vn 0.26190 -0.36522 0.89332
vn 0.26845 -0.55374 0.78823
vn 0.27467 -0.72327 0.63360
vn 0.27857 -0.85580 0.43590
vn 0.27792 -0.93738 0.20994
vn 0.28404 -0.95880 -0.00473
vn 0.27904 -0.93022 -0.23838
vn 0.27470 -0.84612 -0.45675
vn 0.26879 -0.71824 -0.64178
vn 0.26265 -0.55950 -0.78612
vn 0.25747 -0.38142 -0.88782
vn 0.25407 -0.19267 -0.94780
vn 0.25289 0.00069 -0.96750
vn 0.25408 0.19404 -0.94752
vn 0.25750 0.38274 -0.88724
vn 0.26269 0.56071 -0.78524
vn 0.26883 0.71927 -0.64060
vn 0.27474 0.84689 -0.45530
vn 0.27906 0.93063 -0.23674
vn 0.27724 0.96080 -0.00317
vn -0.25322 0.96740 -0.00468
vn -0.24377 0.94637 0.21206
vn -0.24569 0.86371 0.44005
vn -0.24256 0.72966 0.63934
vn -0.23727 0.55835 0.79496
vn -0.23173 0.36804 0.90047
vn -0.22957 0.17274 0.95784
vn -0.22316 0.00051 0.97478
vn -0.22105 -0.17190 0.95999
vn -0.22925 -0.36705 0.90151
vn -0.23653 -0.55730 0.79591
vn -0.24325 -0.72856 0.64034
vn -0.24828 -0.86244 0.44110
vn -0.25302 -0.94373 0.21297
vn -0.24294 -0.97004 -0.00330
vn -0.24666 -0.93916 -0.23902
vn -0.24278 -0.85438 -0.45944
vn -0.23746 -0.72534 -0.64614
vn -0.23195 -0.56519 -0.79168
vn -0.22730 -0.38565 -0.89421
vn -0.22423 -0.19543 -0.95474
vn -0.22316 -0.00061 -0.97478
vn -0.22422 0.19422 -0.95499
vn -0.22727 0.38448 -0.89472
vn -0.23192 0.56412 -0.79245
vn -0.23743 0.72442 -0.64718
vn -0.24275 0.85370 -0.46072
vn -0.24665 0.93880 -0.24047
vn -0.25322 0.96740 -0.00468
vn -0.48386 0.87513 -0.00500
vn -0.48512 0.85346 0.19041
vn -0.48264 0.78075 0.39686
vn -0.47605 0.66197 0.57894
vn -0.46626 0.50910 0.72348
vn -0.45566 0.33745 0.82371
vn -0.44678 0.15944 0.88032
vn -0.44348 0.00104 0.89628
vn -0.44738 -0.15698 0.88046
vn -0.45572 -0.33498 0.82468
vn -0.46617 -0.50680 0.72514
vn -0.47588 -0.66008 0.58124
vn -0.48237 -0.77951 0.39961
vn -0.48440 -0.85321 0.19337
vn -0.48467 -0.87469 -0.00221
vn -0.48201 -0.84930 -0.21529
vn -0.47578 -0.77504 -0.41586
vn -0.46718 -0.66071 -0.58754
vn -0.45814 -0.51707 -0.72301
vn -0.45042 -0.35422 -0.81955
vn -0.44529 -0.18023 -0.87706
vn -0.44348 -0.00124 -0.89628
vn -0.44524 0.17778 -0.87759
vn -0.45033 0.35187 -0.82061
vn -0.45802 0.51493 -0.72461
vn -0.46705 0.65890 -0.58967
vn -0.47568 0.77371 -0.41846
vn -0.48195 0.84859 -0.21822
vn -0.48386 0.87513 -0.00500
vn -0.46005 0.88702 -0.03936
vn -0.46057 0.87326 0.15905
vn -0.45907 0.80777 0.36980
vn -0.45339 0.69405 0.55923
vn -0.44427 0.54332 0.71234
vn -0.43396 0.37116 0.82093
vn -0.42511 0.19081 0.88480
vn -0.42049 0.02621 0.90692
vn -0.42280 -0.13052 0.89677
vn -0.43061 -0.31009 0.84759
vn -0.44073 -0.48596 0.75472
vn -0.45056 -0.64580 0.61639
vn -0.45762 -0.77387 0.43784
vn -0.46058 -0.85696 0.23126
vn -0.46019 -0.88729 0.03081
vn -0.45859 -0.86962 -0.18292
vn -0.45305 -0.80163 -0.39003
vn -0.44491 -0.69129 -0.56937
vn -0.43604 -0.54952 -0.71267
vn -0.42821 -0.38690 -0.81667
vn -0.42274 -0.21201 -0.88110
vn -0.42043 -0.03125 -0.90679
vn -0.42157 0.15032 -0.89425
vn -0.42601 0.32786 -0.84322
vn -0.43315 0.49554 -0.75288
vn -0.44184 0.64557 -0.62290
vn -0.45046 0.76798 -0.45530
vn -0.45709 0.85165 -0.25643
vn -0.46005 0.88702 -0.03936
f 1/1/1 30/30/30 31/31/31
f 1/1/1 31/31/31 2/2/2
f 2/2/2 31/31/31 32/32/32
f 2/2/2 32/32/32 3/3/3
f 3/3/3 32/32/32 33/33/33
f 3/3/3 33/33/33 4/4/4
f 4/4/4 33/33/33 34/34/34
f 4/4/4 34/34/34 5/5/5
f 5/5/5 34/34/34 35/35/35
f 5/5/5 35/35/35 6/6/6
f 6/6/6 35/35/35 36/36/36
f 6/6/6 36/36/36 7/7/7
f 7/7/7 36/36/36 37/37/37
f 7/7/7 37/37/37 8/8/8
f 8/8/8 37/37/37 38/38/38
f 8/8/8 38/38/38 9/9/9
f 9/9/9 38/38/38 39/39/39
f 9/9/9 39/39/39 10/10/10
f 10/10/10 39/39/39 40/40/40
f 10/10/10 40/40/40 11/11/11
f 11/11/11 40/40/40 41/41/41
f 11/11/11 41/41/41 12/12/12
f 12/12/12 41/41/41 42/42/42
f 12/12/12 42/42/42 13/13/13
f 13/13/13 42/42/42 43/43/43
f 13/13/13 43/43/43 14/14/14
f 14/14/14 43/43/43 44/44/44
f 14/14/14 44/44/44 15/15/15
f 15/15/15 44/44/44 45/45/45
f 15/15/15 45/45/45 16/16/16
f 16/16/16 45/45/45 46/46/46
f 16/16/16 46/46/46 17/17/17
f 17/17/17 46/46/46 47/47/47
f 17/17/17 47/47/47 18/18/18
f 18/18/18 47/47/47 48/48/48
f 18/18/18 48/48/48 19/19/19
f 19/19/19 48/48/48 49/49/49
f 19/19/19 49/49/49 20/20/20
f 20/20/20 49/49/49 50/50/50
f 20/20/20 50/50/50 21/21/21
f 21/21/21 50/50/50 51/51/51
f 21/21/21 51/51/51 22/22/22
f 22/22/22 51/51/51 52/52/52
f 22/22/22 52/52/52 23/23/23
f 23/23/23 52/52/52 53/53/53
f 23/23/23 53/53/53 24/24/24
f 24/24/24 53/53/53 54/54/54
f 24/24/24 54/54/54 25/25/25
f 25/25/25 54/54/54 55/55/55
f 25/25/25 55/55/55 26/26/26
f 26/26/26 55/55/55 56/56/56
f 26/26/26 56/56/56 27/27/27
f 27/27/27 56/56/56 57/57/57
f 27/27/27 57/57/57 28/28/28
f 28/28/28 57/57/57 58/58/58
f 28/28/28 58/58/58 29/29/29
f 30/30/30 59/59/59 60/60/60
f 30/30/30 60/60/60 31/31/31
f 31/31/31 60/60/60 61/61/61
f 31/31/31 61/61/61 32/32/32
f 32/32/32 61/61/61 62/62/62
f 32/32/32 62/62/62 33/33/33
f 33/33/33 62/62/62 63/63/63
f 33/33/33 63/63/63 34/34/34
f 34/34/34 63/63/63 64/64/64
f 34/34/34 64/64/64 35/35/35
f 35/35/35 64/64/64 65/65/65
f 35/35/35 65/65/65 36/36/36
f 36/36/36 65/65/65 66/66/66
f 36/36/36 66/66/66 37/37/37
f 37/37/37 66/66/66 67/67/67
f 37/37/37 67/67/67 38/38/38
f 38/38/38 67/67/67 68/68/68
f 38/38/38 68/68/68 39/39/39
f 39/39/39 68/68/68 69/69/69
f 39/39/39 69/69/69 40/40/40
f 40/40/40 69/69/69 70/70/70
f 40/40/40 70/70/70 41/41/41
f 41/41/41 70/70/70 71/71/71
f 41/41/41 71/71/71 42/42/42
f 42/42/42 71/71/71 72/72/72
f 42/42/42 72/72/72 43/43/43
f 43/43/43 72/72/72 73/73/73
f 43/43/43 73/73/73 44/44/44
f 44/44/44 73/73/73 74/74/74
f 44/44/44 74/74/74 45/45/45
f 45/45/45 74/74/74 75/75/75
f 45/45/45 75/75/75 46/46/46
f 46/46/46 75/75/75 76/76/76
f 46/46/46 76/76/76 47/47/47
f 47/47/47 76/76/76 77/77/77
f 47/47/47 77/77/77 48/48/48
f 48/48/48 77/77/77 78/78/78
f 48/48/48 78/78/78 49/49/49
f 49/49/49 78/78/78 79/79/79
f 49/49/49 79/79/79 50/50/50
f 50/50/50 79/79/79 80/80/80
f 50/50/50 80/80/80 51/51/51
f 51/51/51 80/80/80 81/81/81
f 51/51/51 81/81/81 52/52/52
f 52/52/52 81/81/81 82/82/82
f 52/52/52 82/82/82 53/53/53
f 53/53/53 82/82/82 83/83/83
f 53/53/53 83/83/83 54/54/54
f 54/54/54 83/83/83 84/84/84
f 54/54/54 84/84/84 55/55/55
f 55/55/55 84/84/84 85/85/85
f 55/55/55 85/85/85 56/56/56
f 56/56/56 85/85/85 86/86/86
f 56/56/56 86/86/86 57/57/57
f 57/57/57 86/86/86 87/87/87
f 57/57/57 87/87/87 58/58/58
f 59/59/59 88/88/88 89/89/89
f 59/59/59 89/89/89 60/60/60
f 60/60/60 89/89/89 90/90/90
f 60/60/60 90/90/90 61/61/61
f 61/61/61 90/90/90 91/91/91
f 61/61/61 91/91/91 62/62/62
f 62/62/62 91/91/91 92/92/92
f 62/62/62 92/92/92 63/63/63
f 63/63/63 92/92/92 93/93/93
f 63/63/63 93/93/93 64/64/64
f 64/64/64 93/93/93 94/94/94
f 64/64/64 94/94/94 65/65/65
f 65/65/65 94/94/94 95/95/95
f 65/65/65 95/95/95 66/66/66
f 66/66/66 95/95/95 96/96/96
f 66/66/66 96/96/96 67/67/67
f 67/67/67 96/96/96 97/97/97
f 67/67/67 97/97/97 68/68/68
f 68/68/68 97/97/97 98/98/98
f 68/68/68 98/98/98 69/69/69
f 69/69/69 98/98/98 99/99/99
f 69/69/69 99/99/99 70/70/70
f 70/70/70 99/99/99 100/100/100
f 70/70/70 100/100/100 71/71/71
f 71/71/71 100/100/100 101/101/101
f 71/71/71 101/101/101 72/72/72
f 72/72/72 101/101/101 102/102/102
f 72/72/72 102/102/102 73/73/73
f 73/73/73 102/102/102 103/103/103
f 73/73/73 103/103/103 74/74/74
f 74/74/74 103/103/103 104/104/104
f 74/74/74 104/104/104 75/75/75
f 75/75/75 104/104/104 105/105/105
f 75/75/75 105/105/105 76/76/76
f 76/76/76 105/105/105 106/106/106
f 76/76/76 106/106/106 77/77/77
f 77/77/77 106/106/106 107/107/107
f 77/77/77 107/107/107 78/78/78
f 78/78/78 107/107/107 108/108/108
f 78/78/78 108/108/108 79/79/79
f 79/79/79 108/108/108 109/109/109
f 79/79/79 109/109/109 80/80/80
f 80/80/80 109/109/109 110/110/110
f 80/80/80 110/110/110 81/81/81
f 81/81/81 110/110/110 111/111/111
f 81/81/81 111/111/111 82/82/82
f 82/82/82 111/111/111 112/112/112
f 82/82/82 112/112/112 83/83/83
f 83/83/83 112/112/112 113/113/113
f 83/83/83 113/113/113 84/84/84
f 84/84/84 113/113/113 114/114/114
f 84/84/84 114/114/114 85/85/85
f 85/85/85 114/114/114 115/115/115
f 85/85/85 115/115/115 86/86/86
f 86/86/86 115/115/115 116/116/116
f 86/86/86 116/116/116 87/87/87
f 88/88/88 117/117/117 118/118/118
f 88/88/88 118/118/118 89/89/89
f 89/89/89 118/118/118 119/119/119
f 89/89/89 119/119/119 90/90/90
f 90/90/90 119/119/119 120/120/120
f 90/90/90 120/120/120 91/91/91
f 91/91/91 120/120/120 121/121/121
f 91/91/91 121/121/121 92/92/92
f 92/92/92 121/121/121 122/122/122
f 92/92/92 122/122/122 93/93/93
f 93/93/93 122/122/122 123/123/123
f 93/93/93 123/123/123 94/94/94
f 94/94/94 123/123/123 124/124/124
f 94/94/94 124/124/124 95/95/95
f 95/95/95 124/124/124 125/125/125
f 95/95/95 125/125/125 96/96/96
f 96/96/96 125/125/125 126/126/126
f 96/96/96 126/126/126 97/97/97
f 97/97/97 126/126/126 127/127/127
f 97/97/97 127/127/127 98/98/98
f 98/98/98 127/127/127 128/128/128
f 98/98/98 128/128/128 99/99/99
f 99/99/99 128/128/128 129/129/129
f 99/99/99 129/129/129 100/100/100
f 100/100/100 129/129/129 130/130/130
f 100/100/100 130/130/130 101/101/101
f 101/101/101 130/130/130 131/131/131
f 101/101/101 131/131/131 102/102/102
f 102/102/102 131/131/131 132/132/132
f 102/102/102 132/132/132 103/103/103
f 103/103/103 132/132/132 133/133/133
f 103/103/103 133/133/133 104/104/104
f 104/104/104 133/133/133 134/134/134
f 104/104/104 134/134/134 105/105/105
f 105/105/105 134/134/134 135/135/135
f 105/105/105 135/135/135 106/106/106
f 106/106/106 135/135/135 136/136/136
f 106/106/106 136/136/136 107/107/107
f 107/107/107 136/136/136 137/137/137
f 107/107/107 137/137/137 108/108/108
f 108/108/108 137/137/137 138/138/138
f 108/108/108 138/138/138 109/109/109
f 109/109/109 138/138/138 139/139/139
f 109/109/109 139/139/139 110/110/110
f 110/110/110 139/139/139 140/140/140
f 110/110/110 140/140/140 111/111/111
f 111/111/111 140/140/140 141/141/141
f 111/111/111 141/141/141 112/112/112
f 112/112/112 141/141/141 142/142/142
f 112/112/112 142/142/142 113/113/113
f 113/113/113 142/142/142 143/143/143
f 113/113/113 143/143/143 114/114/114
f 114/114/114 143/143/143 144/144/144
f 114/114/114 144/144/144 115/115/115
f 115/115/115 144/144/144 145/145/145
f 115/115/115 145/145/145 116/116/116
f 117/117/117 146/146/146 147/147/147
f 117/117/117 147/147/147 118/118/118
f 118/118/118 147/147/147 148/148/148
f 118/118/118 148/148/148 119/119/119
f 119/119/119 148/148/148 149/149/149
f 119/119/119 149/149/149 120/120/120
f 120/120/120 149/149/149 150/150/150
f 120/120/120 150/150/150 121/121/121
f 121/121/121 150/150/150 151/151/151
f 121/121/121 151/151/151 122/122/122
f 122/122/122 151/151/151 152/152/152
f 122/122/122 152/152/152 123/123/123
f 123/123/123 152/152/152 153/153/153
f 123/123/123 153/153/153 124/124/124
f 124/124/124 153/153/153 154/154/154
f 124/124/124 154/154/154 125/125/125
f 125/125/125 154/154/154 155/155/155
f 125/125/125 155/155/155 126/126/126
f 126/126/126 155/155/155 156/156/156
f 126/126/126 156/156/156 127/127/127
f 127/127/127 156/156/156 157/157/157
f 127/127/127 157/157/157 128/128/128
f 128/128/128 157/157/157 158/158/158
f 128/128/128 158/158/158 129/129/129
f 129/129/129 158/158/158 159/159/159
f 129/129/129 159/159/159 130/130/130
f 130/130/130 159/159/159 160/160/160
f 130/130/130 160/160/160 131/131/131
f 131/131/131 160/160/160 161/161/161
f 131/131/131 161/161/161 132/132/132
f 132/132/132 161/161/161 162/162/162
f 132/132/132 162/162/162 133/133/133
f 133/133/133 162/162/162 163/163/163
f 133/133/133 163/163/163 134/134/134
f 134/134/134 163/163/163 164/164/164
f 134/134/134 164/164/164 135/135/135
f 135/135/135 164/164/164 165/165/165
f 135/135/135 165/165/165 136/136/136
f 136/136/136 165/165/165 166/166/166
f 136/136/136 166/166/166 137/137/137
f 137/137/137 166/166/166 167/167/167
f 137/137/137 167/167/167 138/138/138
f 138/138/138 167/167/167 168/168/168
f 138/138/138 168/168/168 139/139/139
f 139/139/139 168/168/168 169/169/169
f 139/139/139 169/169/169 140/140/140
f 140/140/140 169/169/169 170/170/170
f 140/140/140 170/170/170 141/141/141
f 141/141/141 170/170/170 171/171/171
f 141/141/141 171/171/171 142/142/142
f 142/142/142 171/171/171 172/172/172
f 142/142/142 172/172/172 143/143/143
f 143/143/143 172/172/172 173/173/173
f 143/143/143 173/173/173 144/144/144
f 144/144/144 173/173/173 174/174/174
f 144/144/144 174/174/174 145/145/145
f 146/146/146 175/175/175 176/176/176
f 146/146/146 176/176/176 147/147/147
f 147/147/147 176/176/176 177/177/177
f 147/147/147 177/177/177 148/148/148
f 148/148/148 177/177/177 178/178/178
f 148/148/148 178/178/178 149/149/149
f 149/149/149 178/178/178 179/179/179
f 149/149/149 179/179/179 150/150/150
f 150/150/150 179/179/179 180/180/180
f 150/150/150 180/180/180 151/151/151
f 151/151/151 180/180/180 181/181/181
f 151/151/151 181/181/181 152/152/152
f 152/152/152 181/181/181 182/182/182
f 152/152/152 182/182/182 153/153/153
f 153/153/153 182/182/182 183/183/183
f 153/153/153 183/183/183 154/154/154
f 154/154/154 183/183/183 184/184/184
f 154/154/154 184/184/184 155/155/155
f 155/155/155 184/184/184 185/185/185
f 155/155/155 185/185/185 156/156/156
f 156/156/156 185/185/185 186/186/186
f 156/156/156 186/186/186 157/157/157
f 157/157/157 186/186/186 187/187/187
f 157/157/157 187/187/187 158/158/158
f 158/158/158 187/187/187 188/188/188
f 158/158/158 188/188/188 159/159/159
f 159/159/159 188/188/188 189/189/189
f 159/159/159 189/189/189 160/160/160
f 160/160/160 189/189/189 190/190/190
f 160/160/160 190/190/190 161/161/161
f 161/161/161 190/190/190 191/191/191
f 161/161/161 191/191/191 162/162/162
f 162/162/162 191/191/191 192/192/192
f 162/162/162 192/192/192 163/163/163
f 163/163/163 192/192/192 193/193/193
f 163/163/163 193/193/193 164/164/164
f 164/164/164 193/193/193 194/194/194
f 164/164/164 194/194/194 165/165/165
f 165/165/165 194/194/194 195/195/195
f 165/165/165 195/195/195 166/166/166
f 166/166/166 195/195/195 196/196/196
f 166/166/166 196/196/196 167/167/167
f 167/167/167 196/196/196 197/197/197
f 167/167/167 197/197/197 168/168/168
f 168/168/168 197/197/197 198/198/198
f 168/168/168 198/198/198 169/169/169
f 169/169/169 198/198/198 199/199/199
f 169/169/169 199/199/199 170/170/170
f 170/170/170 199/199/199 200/200/200
f 170/170/170 200/200/200 171/171/171
f 171/171/171 200/200/200 201/201/201
f 171/171/171 201/201/201 172/172/172
f 172/172/172 201/201/201 202/202/202
f 172/172/172 202/202/202 173/173/173
f 173/173/173 202/202/202 203/203/203
f 173/173/173 203/203/203 174/174/174
f 175/175/175 204/204/204 205/205/205
f 175/175/175 205/205/205 176/176/176
f 176/176/176 205/205/205 206/206/206
f 176/176/176 206/206/206 177/177/177
f 177/177/177 206/206/206 207/207/207
f 177/177/177 207/207/207 178/178/178
f 178/178/178 207/207/207 208/208/208
f 178/178/178 208/208/208 179/179/179
f 179/179/179 208/208/208 209/209/209
f 179/179/179 209/209/209 180/180/180
f 180/180/180 209/209/209 210/210/210
f 180/180/180 210/210/210 181/181/181
f 181/181/181 210/210/210 211/211/211
f 181/181/181 211/211/211 182/182/182
f 182/182/182 211/211/211 212/212/212
f 182/182/182 212/212/212 183/183/183
f 183/183/183 212/212/212 213/213/213
f 183/183/183 213/213/213 184/184/184
f 184/184/184 213/213/213 214/214/214
f 184/184/184 214/214/214 185/185/185
f 185/185/185 214/214/214 215/215/215
f 185/185/185 215/215/215 186/186/186
f 186/186/186 215/215/215 216/216/216
f 186/186/186 216/216/216 187/187/187
f 187/187/187 216/216/216 217/217/217
f 187/187/187 217/217/217 188/188/188
f 188/188/188 217/217/217 218/218/218
f 188/188/188 218/218/218 189/189/189
f 189/189/189 218/218/218 219/219/219
f 189/189/189 219/219/219 190/190/190
f 190/190/190 219/219/219 220/220/220
f 190/190/190 220/220/220 191/191/191
f 191/191/191 220/220/220 221/221/221
f 191/191/191 221/221/221 192/192/192
f 192/192/192 221/221/221 222/222/222
f 192/192/192 222/222/222 193/193/193
f 193/193/193 222/222/222 223/223/223
f 193/193/193 223/223/223 194/194/194
f 194/194/194 223/223/223 224/224/224
f 194/194/194 224/224/224 195/195/195
f 195/195/195 224/224/224 225/225/225
f 195/195/195 225/225/225 196/196/196
f 196/196/196 225/225/225 226/226/226
f 196/196/196 226/226/226 197/197/197
f 197/197/197 226/226/226 227/227/227
f 197/197/197 227/227/227 198/198/198
f 198/198/198 227/227/227 228/228/228
f 198/198/198 228/228/228 199/199/199
f 199/199/199 228/228/228 229/229/229
f 199/199/199 229/229/229 200/200/200
f 200/200/200 229/229/229 230/230/230
f 200/200/200 230/230/230 201/201/201
f 201/201/201 230/230/230 231/231/231
f 201/201/201 231/231/231 202/202/202
f 202/202/202 231/231/231 232/232/232
f 202/202/202 232/232/232 203/203/203
f 204/204/204 233/233/233 234/234/234
f 204/204/204 234/234/234 205/205/205
f 205/205/205 234/234/234 235/235/235
f 205/205/205 235/235/235 206/206/206
f 206/206/206 235/235/235 236/236/236
f 206/206/206 236/236/236 207/207/207
f 207/207/207 236/236/236 237/237/237
f 207/207/207 237/237/237 208/208/208
f 208/208/208 237/237/237 238/238/238
f 208/208/208 238/238/238 209/209/209
f 209/209/209 238/238/238 239/239/239
f 209/209/209 239/239/239 210/210/210
f 210/210/210 239/239/239 240/240/240
f 210/210/210 240/240/240 211/211/211
f 211/211/211 240/240/240 241/241/241
f 211/211/211 241/241/241 212/212/212
f 212/212/212 241/241/241 242/242/242
f 212/212/212 242/242/242 213/213/213
f 213/213/213 242/242/242 243/243/243
f 213/213/213 243/243/243 214/214/214
f 214/214/214 243/243/243 244/244/244
f 214/214/214 244/244/244 215/215/215
f 215/215/215 244/244/244 245/245/245
f 215/215/215 245/245/245 216/216/216
f 216/216/216 245/245/245 246/246/246
f 216/216/216 246/246/246 217/217/217
f 217/217/217 246/246/246 247/247/247
f 217/217/217 247/247/247 218/218/218
f 218/218/218 247/247/247 248/248/248
f 218/218/218 248/248/248 219/219/219
f 219/219/219 248/248/248 249/249/249
f 219/219/219 249/249/249 220/220/220
f 220/220/220 249/249/249 250/250/250
f 220/220/220 250/250/250 221/221/221
f 221/221/221 250/250/250 251/251/251
f 221/221/221 251/251/251 222/222/222
f 222/222/222 251/251/251 252/252/252
f 222/222/222 252/252/252 223/223/223
f 223/223/223 252/252/252 253/253/253
f 223/223/223 253/253/253 224/224/224
f 224/224/224 253/253/253 254/254/254
f 224/224/224 254/254/254 225/225/225
f 225/225/225 254/254/254 255/255/255
f 225/225/225 255/255/255 226/226/226
f 226/226/226 255/255/255 256/256/256
f 226/226/226 256/256/256 227/227/227
f 227/227/227 256/256/256 257/257/257
f 227/227/227 257/257/257 228/228/228
f 228/228/228 257/257/257 258/258/258
f 228/228/228 258/258/258 229/229/229
f 229/229/229 258/258/258 259/259/259
f 229/229/229 259/259/259 230/230/230
f 230/230/230 259/259/259 260/260/260
f 230/230/230 260/260/260 231/231/231
f 231/231/231 260/260/260 261/261/261
f 231/231/231 261/261/261 232/232/232
f 233/233/233 262/262/262 263/263/263
f 233/233/233 263/263/263 234/234/234
f 234/234/234 263/263/263 264/264/264
f 234/234/234 264/264/264 235/235/235
f 235/235/235 264/264/264 265/265/265
f 235/235/235 265/265/265 236/236/236
f 236/236/236 265/265/265 266/266/266
f 236/236/236 266/266/266 237/237/237
f 237/237/237 266/266/266 267/267/267
f 237/237/237 267/267/267 238/238/238
f 238/238/238 267/267/267 268/268/268
f 238/238/238 268/268/268 239/239/239
f 239/239/239 268/268/268 269/269/269
f 239/239/239 269/269/269 240/240/240
f 240/240/240 269/269/269 270/270/270
f 240/240/240 270/270/270 241/241/241
f 241/241/241 270/270/270 271/271/271
f 241/241/241 271/271/271 242/242/242
f 242/242/242 271/271/271 272/272/272
f 242/242/242 272/272/272 243/243/243
f 243/243/243 272/272/272 273/273/273
f 243/243/243 273/273/273 244/244/244
f 244/244/244 273/273/273 274/274/274
f 244/244/244 274/274/274 245/245/245
f 245/245/245 274/274/274 275/275/275
f 245/245/245 275/275/275 246/246/246
f 246/246/246 275/275/275 276/276/276
f 246/246/246 276/276/276 247/247/247
f 247/247/247 276/276/276 277/277/277
f 247/247/247 277/277/277 248/248/248
f 248/248/248 277/277/277 278/278/278
f 248/248/248 278/278/278 249/249/249
f 249/249/249 278/278/278 279/279/279
f 249/249/249 279/279/279 250/250/250
f 250/250/250 279/279/279 280/280/280
f 250/250/250 280/280/280 251/251/251
f 251/251/251 280/280/280 281/281/281
f 251/251/251 281/281/281 252/252/252
f 252/252/252 281/281/281 282/282/282
f 252/252/252 282/282/282 253/253/253
f 253/253/253 282/282/282 283/283/283
f 253/253/253 283/283/283 254/254/254
f 254/254/254 283/283/283 284/284/284
f 254/254/254 284/284/284 255/255/255
f 255/255/255 284/284/284 285/285/285
f 255/255/255 285/285/285 256/256/256
f 256/256/256 285/285/285 286/286/286
f 256/256/256 286/286/286 257/257/257
f 257/257/257 286/286/286 287/287/287
f 257/257/257 287/287/287 258/258/258
f 258/258/258 287/287/287 288/288/288
f 258/258/258 288/288/288 259/259/259
f 259/259/259 288/288/288 289/289/289
f 259/259/259 289/289/289 260/260/260
f 260/260/260 289/289/289 290/290/290
f 260/260/260 290/290/290 261/261/261
f 262/262/262 291/291/291 292/292/292
f 262/262/262 292/292/292 263/263/263
f 263/263/263 292/292/292 293/293/293
f 263/263/263 293/293/293 264/264/264
f 264/264/264 293/293/293 294/294/294
f 264/264/264 294/294/294 265/265/265
f 265/265/265 294/294/294 295/295/295
f 265/265/265 295/295/295 266/266/266
f 266/266/266 295/295/295 296/296/296
f 266/266/266 296/296/296 267/267/267
f 267/267/267 296/296/296 297/297/297
f 267/267/267 297/297/297 268/268/268
f 268/268/268 297/297/297 298/298/298
f 268/268/268 298/298/298 269/269/269
f 269/269/269 298/298/298 299/299/299
f 269/269/269 299/299/299 270/270/270
f 270/270/270 299/299/299 300/300/300
f 270/270/270 300/300/300 271/271/271
f 271/271/271 300/300/300 301/301/301
f 271/271/271 301/301/301 272/272/272
f 272/272/272 301/301/301 302/302/302
f 272/272/272 302/302/302 273/273/273
f 273/273/273 302/302/302 303/303/303
f 273/273/273 303/303/303 274/274/274
f 274/274/274 303/303/303 304/304/304
f 274/274/274 304/304/304 275/275/275
f 275/275/275 304/304/304 305/305/305
f 275/275/275 305/305/305 276/276/276
f 276/276/276 305/305/305 306/306/306
f 276/276/276 306/306/306 277/277/277
f 277/277/277 306/306/306 307/307/307
f 277/277/277 307/307/307 278/278/278
f 278/278/278 307/307/307 308/308/308
f 278/278/278 308/308/308 279/279/279
f 279/279/279 308/308/308 309/309/309
f 279/279/279 309/309/309 280/280/280
f 280/280/280 309/309/309 310/310/310
f 280/280/280 310/310/310 281/281/281
f 281/281/281 310/310/310 311/311/311
f 281/281/281 311/311/311 282/282/282
f 282/282/282 311/311/311 312/312/312
f 282/282/282 312/312/312 283/283/283
f 283/283/283 312/312/312 313/313/313
f 283/283/283 313/313/313 284/284/284
f 284/284/284 313/313/313 314/314/314
f 284/284/284 314/314/314 285/285/285
f 285/285/285 314/314/314 315/315/315
f 285/285/285 315/315/315 286/286/286
f 286/286/286 315/315/315 316/316/316
f 286/286/286 316/316/316 287/287/287
f 287/287/287 316/316/316 317/317/317
f 287/287/287 317/317/317 288/288/288
f 288/288/288 317/317/317 318/318/318
f 288/288/288 318/318/318 289/289/289
f 289/289/289 318/318/318 319/319/319
f 289/289/289 319/319/319 290/290/290
f 291/291/291 320/320/320 321/321/321
f 291/291/291 321/321/321 292/292/292
f 292/292/292 321/321/321 322/322/322
f 292/292/292 322/322/322 293/293/293
f 293/293/293 322/322/322 323/323/323
f 293/293/293 323/323/323 294/294/294
f 294/294/294 323/323/323 324/324/324
f 294/294/294 324/324/324 295/295/295
f 295/295/295 324/324/324 325/325/325
f 295/295/295 325/325/325 296/296/296
f 296/296/296 325/325/325 326/326/326
f 296/296/296 326/326/326 297/297/297
f 297/297/297 326/326/326 327/327/327
f 297/297/297 327/327/327 298/298/298
f 298/298/298 327/327/327 328/328/328
f 298/298/298 328/328/328 299/299/299
f 299/299/299 328/328/328 329/329/329
f 299/299/299 329/329/329 300/300/300
f 300/300/300 329/329/329 330/330/330
f 300/300/300 330/330/330 301/301/301
f 301/301/301 330/330/330 331/331/331
f 301/301/301 331/331/331 302/302/302
f 302/302/302 331/331/331 332/332/332
f 302/302/302 332/332/332 303/303/303
f 303/303/303 332/332/332 333/333/333
f 303/303/303 333/333/333 304/304/304
f 304/304/304 333/333/333 334/334/334
f 304/304/304 334/334/334 305/305/305
f 305/305/305 334/334/334 335/335/335
f 305/305/305 335/335/335 306/306/306
f 306/306/306 335/335/335 336/336/336
f 306/306/306 336/336/336 307/307/307
f 307/307/307 336/336/336 337/337/337
f 307/307/307 337/337/337 308/308/308
f 308/308/308 337/337/337 338/338/338
f 308/308/308 338/338/338 309/309/309
f 309/309/309 338/338/338 339/339/339
f 309/309/309 339/339/339 310/310/310
f 310/310/310 339/339/339 340/340/340
f 310/310/310 340/340/340 311/311/311
f 311/311/311 340/340/340 341/341/341
f 311/311/311 341/341/341 312/312/312
f 312/312/312 341/341/341 342/342/342
f 312/312/312 342/342/342 313/313/313
f 313/313/313 342/342/342 343/343/343
f 313/313/313 343/343/343 314/314/314
f 314/314/314 343/343/343 344/344/344
f 314/314/314 344/344/344 315/315/315
f 315/315/315 344/344/344 345/345/345
f 315/315/315 345/345/345 316/316/316
f 316/316/316 345/345/345 346/346/346
f 316/316/316 346/346/346 317/317/317
f 317/317/317 346/346/346 347/347/347
f 317/317/317 347/347/347 318/318/318
f 318/318/318 347/347/347 348/348/348
f 318/318/318 348/348/348 319/319/319
f 320/320/320 349/349/349 350/350/350
f 320/320/320 350/350/350 321/321/321
f 321/321/321 350/350/350 351/351/351
f 321/321/321 351/351/351 322/322/322
f 322/322/322 351/351/351 352/352/352
f 322/322/322 352/352/352 323/323/323
f 323/323/323 352/352/352 353/353/353
f 323/323/323 353/353/353 324/324/324
f 324/324/324 353/353/353 354/354/354
f 324/324/324 354/354/354 325/325/325
f 325/325/325 354/354/354 355/355/355
f 325/325/325 355/355/355 326/326/326
f 326/326/326 355/355/355 356/356/356
f 326/326/326 356/356/356 327/327/327
f 327/327/327 356/356/356 357/357/357
f 327/327/327 357/357/357 328/328/328
f 328/328/328 357/357/357 358/358/358
f 328/328/328 358/358/358 329/329/329
f 329/329/329 358/358/358 359/359/359
f 329/329/329 359/359/359 330/330/330
f 330/330/330 359/359/359 360/360/360
f 330/330/330 360/360/360 331/331/331
f 331/331/331 360/360/360 361/361/361
f 331/331/331 361/361/361 332/332/332
f 332/332/332 361/361/361 362/362/362
f 332/332/332 362/362/362 333/333/333
f 333/333/333 362/362/362 363/363/363
f 333/333/333 363/363/363 334/334/334
f 334/334/334 363/363/363 364/364/364
f 334/334/334 364/364/364 335/335/335
f 335/335/335 364/364/364 365/365/365
f 335/335/335 365/365/365 336/336/336
f 336/336/336 365/365/365 366/366/366
f 336/336/336 366/366/366 337/337/337
f 337/337/337 366/366/366 367/367/367
f 337/337/337 367/367/367 338/338/338
f 338/338/338 367/367/367 368/368/368
f 338/338/338 368/368/368 339/339/339
f 339/339/339 368/368/368 369/369/369
f 339/339/339 369/369/369 340/340/340
f 340/340/340 369/369/369 370/370/370
f 340/340/340 370/370/370 341/341/341
f 341/341/341 370/370/370 371/371/371
f 341/341/341 371/371/371 342/342/342
f 342/342/342 371/371/371 372/372/372
f 342/342/342 372/372/372 343/343/343
f 343/343/343 372/372/372 373/373/373
f 343/343/343 373/373/373 344/344/344
f 344/344/344 373/373/373 374/374/374
f 344/344/344 374/374/374 345/345/345
f 345/345/345 374/374/374 375/375/375
f 345/345/345 375/375/375 346/346/346
f 346/346/346 375/375/375 376/376/376
f 346/346/346 376/376/376 347/347/347
f 347/347/347 376/376/376 377/377/377
f 347/347/347 377/377/377 348/348/348
f 349/349/349 378/378/378 379/379/379
f 349/349/349 379/379/379 350/350/350
f 350/350/350 379/379/379 380/380/380
f 350/350/350 380/380/380 351/351/351
f 351/351/351 380/380/380 381/381/381
f 351/351/351 381/381/381 352/352/352
f 352/352/352 381/381/381 382/382/382
f 352/352/352 382/382/382 353/353/353
f 353/353/353 382/382/382 383/383/383
f 353/353/353 383/383/383 354/354/354
f 354/354/354 383/383/383 384/384/384
f 354/354/354 384/384/384 355/355/355
f 355/355/355 384/384/384 385/385/385
f 355/355/355 385/385/385 356/356/356
f 356/356/356 385/385/385 386/386/386
f 356/356/356 386/386/386 357/357/357
f 357/357/357 386/386/386 387/387/387
f 357/357/357 387/387/387 358/358/358
f 358/358/358 387/387/387 388/388/388
f 358/358/358 388/388/388 359/359/359
f 359/359/359 388/388/388 389/389/389
f 359/359/359 389/389/389 360/360/360
f 360/360/360 389/389/389 390/390/390
f 360/360/360 390/390/390 361/361/361
f 361/361/361 390/390/390 391/391/391
f 361/361/361 391/391/391 362/362/362
f 362/362/362 391/391/391 392/392/392
f 362/362/362 392/392/392 363/363/363
f 363/363/363 392/392/392 393/393/393
f 363/363/363 393/393/393 364/364/364
f 364/364/364 393/393/393 394/394/394
f 364/364/364 394/394/394 365/365/365
f 365/365/365 394/394/394 395/395/395
f 365/365/365 395/395/395 366/366/366
f 366/366/366 395/395/395 396/396/396
f 366/366/366 396/396/396 367/367/367
f 367/367/367 396/396/396 397/397/397
f 367/367/367 397/397/397 368/368/368
f 368/368/368 397/397/397 398/398/398
f 368/368/368 398/398/398 369/369/369
f 369/369/369 398/398/398 399/399/399
f 369/369/369 399/399/399 370/370/370
f 370/370/370 399/399/399 400/400/400
f 370/370/370 400/400/400 371/371/371
f 371/371/371 400/400/400 401/401/401
f 371/371/371 401/401/401 372/372/372
f 372/372/372 401/401/401 402/402/402
f 372/372/372 402/402/402 373/373/373
f 373/373/373 402/402/402 403/403/403
f 373/373/373 403/403/403 374/374/374
f 374/374/374 403/403/403 404/404/404
f 374/374/374 404/404/404 375/375/375
f 375/375/375 404/404/404 405/405/405
f 375/375/375 405/405/405 376/376/376
f 376/376/376 405/405/405 406/406/406
f 376/376/376 406/406/406 377/377/377
f 378/378/378 407/407/407 408/408/408
f 378/378/378 408/408/408 379/379/379
f 379/379/379 408/408/408 409/409/409
f 379/379/379 409/409/409 380/380/380
f 380/380/380 409/409/409 410/410/410
f 380/380/380 410/410/410 381/381/381
f 381/381/381 410/410/410 411/411/411
f 381/381/381 411/411/411 382/382/382
f 382/382/382 411/411/411 412/412/412
f 382/382/382 412/412/412 383/383/383
f 383/383/383 412/412/412 413/413/413
f 383/383/383 413/413/413 384/384/384
f 384/384/384 413/413/413 414/414/414
f 384/384/384 414/414/414 385/385/385
f 385/385/385 414/414/414 415/415/415
f 385/385/385 415/415/415 386/386/386
f 386/386/386 415/415/415 416/416/416
f 386/386/386 416/416/416 387/387/387
f 387/387/387 416/416/416 417/417/417
f 387/387/387 417/417/417 388/388/388
f 388/388/388 417/417/417 418/418/418
f 388/388/388 418/418/418 389/389/389
f 389/389/389 418/418/418 419/419/419
f 389/389/389 419/419/419 390/390/390
f 390/390/390 419/419/419 420/420/420
f 390/390/390 420/420/420 391/391/391
f 391/391/391 420/420/420 421/421/421
f 391/391/391 421/421/421 392/392/392
f 392/392/392 421/421/421 422/422/422
f 392/392/392 422/422/422 393/393/393
f 393/393/393 422/422/422 423/423/423
f 393/393/393 423/423/423 394/394/394
f 394/394/394 423/423/423 424/424/424
f 394/394/394 424/424/424 395/395/395
f 395/395/395 424/424/424 425/425/425
f 395/395/395 425/425/425 396/396/396
f 396/396/396 425/425/425 426/426/426
f 396/396/396 426/426/426 397/397/397
f 397/397/397 426/426/426 427/427/427
f 397/397/397 427/427/427 398/398/398
f 398/398/398 427/427/427 428/428/428
f 398/398/398 428/428/428 399/399/399
f 399/399/399 428/428/428 429/429/429
f 399/399/399 429/429/429 400/400/400
f 400/400/400 429/429/429 430/430/430
f 400/400/400 430/430/430 401/401/401
f 401/401/401 430/430/430 431/431/431
f 401/401/401 431/431/431 402/402/402
f 402/402/402 431/431/431 432/432/432
f 402/402/402 432/432/432 403/403/403
f 403/403/403 432/432/432 433/433/433
f 403/403/403 433/433/433 404/404/404
f 404/404/404 433/433/433 434/434/434
f 404/404/404 434/434/434 405/405/405
f 405/405/405 434/434/434 435/435/435
f 405/405/405 435/435/435 406/406/406
f 407/407/407 436/436/436 437/437/437
f 407/407/407 437/437/437 408/408/408
f 408/408/408 437/437/437 438/438/438
f 408/408/408 438/438/438 409/409/409
f 409/409/409 438/438/438 439/439/439
f 409/409/409 439/439/439 410/410/410
f 410/410/410 439/439/439 440/440/440
f 410/410/410 440/440/440 411/411/411
f 411/411/411 440/440/440 441/441/441
f 411/411/411 441/441/441 412/412/412
f 412/412/412 441/441/441 442/442/442
f 412/412/412 442/442/442 413/413/413
f 413/413/413 442/442/442 443/443/443
f 413/413/413 443/443/443 414/414/414
f 414/414/414 443/443/443 444/444/444
f 414/414/414 444/444/444 415/415/415
f 415/415/415 444/444/444 445/445/445
f 415/415/415 445/445/445 416/416/416
f 416/416/416 445/445/445 446/446/446
f 416/416/416 446/446/446 417/417/417
f 417/417/417 446/446/446 447/447/447
f 417/417/417 447/447/447 418/418/418
f 418/418/418 447/447/447 448/448/448
f 418/418/418 448/448/448 419/419/419
f 419/419/419 448/448/448 449/449/449
f 419/419/419 449/449/449 420/420/420
f 420/420/420 449/449/449 450/450/450
f 420/420/420 450/450/450 421/421/421
f 421/421/421 450/450/450 451/451/451
f 421/421/421 451/451/451 422/422/422
f 422/422/422 451/451/451 452/452/452
f 422/422/422 452/452/452 423/423/423
f 423/423/423 452/452/452 453/453/453
f 423/423/423 453/453/453 424/424/424
f 424/424/424 453/453/453 454/454/454
f 424/424/424 454/454/454 425/425/425
f 425/425/425 454/454/454 455/455/455
f 425/425/425 455/455/455 426/426/426
f 426/426/426 455/455/455 456/456/456
f 426/426/426 456/456/456 427/427/427
f 427/427/427 456/456/456 457/457/457
f 427/427/427 457/457/457 428/428/428
f 428/428/428 457/457/457 458/458/458
f 428/428/428 458/458/458 429/429/429
f 429/429/429 458/458/458 459/459/459
f 429/429/429 459/459/459 430/430/430
f 430/430/430 459/459/459 460/460/460
f 430/430/430 460/460/460 431/431/431
f 431/431/431 460/460/460 461/461/461
f 431/431/431 461/461/461 432/432/432
f 432/432/432 461/461/461 462/462/462
f 432/432/432 462/462/462 433/433/433
f 433/433/433 462/462/462 463/463/463
f 433/433/433 463/463/463 434/434/434
f 434/434/434 463/463/463 464/464/464
f 434/434/434 464/464/464 435/435/435
f 436/436/436 465/465/465 466/466/466
f 436/436/436 466/466/466 437/437/437
f 437/437/437 466/466/466 467/467/467
f 437/437/437 467/467/467 438/438/438
f 438/438/438 467/467/467 468/468/468
f 438/438/438 468/468/468 439/439/439
f 439/439/439 468/468/468 469/469/469
f 439/439/439 469/469/469 440/440/440
f 440/440/440 469/469/469 470/470/470
f 440/440/440 470/470/470 441/441/441
f 441/441/441 470/470/470 471/471/471
f 441/441/441 471/471/471 442/442/442
f 442/442/442 471/471/471 472/472/472
f 442/442/442 472/472/472 443/443/443
f 443/443/443 472/472/472 473/473/473
f 443/443/443 473/473/473 444/444/444
f 444/444/444 473/473/473 474/474/474
f 444/444/444 474/474/474 445/445/445
f 445/445/445 474/474/474 475/475/475
f 445/445/445 475/475/475 446/446/446
f 446/446/446 475/475/475 476/476/476
f 446/446/446 476/476/476 447/447/447
f 447/447/447 476/476/476 477/477/477
f 447/447/447 477/477/477 448/448/448
f 448/448/448 477/477/477 478/478/478
f 448/448/448 478/478/478 449/449/449
f 449/449/449 478/478/478 479/479/479
f 449/449/449 479/479/479 450/450/450
f 450/450/450 479/479/479 480/480/480
f 450/450/450 480/480/480 451/451/451
f 451/451/451 480/480/480 481/481/481
f 451/451/451 481/481/481 452/452/452
f 452/452/452 481/481/481 482/482/482
f 452/452/452 482/482/482 453/453/453
f 453/453/453 482/482/482 483/483/483
f 453/453/453 483/483/483 454/454/454
f 454/454/454 483/483/483 484/484/484
f 454/454/454 484/484/484 455/455/455
f 455/455/455 484/484/484 485/485/485
f 455/455/455 485/485/485 456/456/456
f 456/456/456 485/485/485 486/486/486
f 456/456/456 486/486/486 457/457/457
f 457/457/457 486/486/486 487/487/487
f 457/457/457 487/487/487 458/458/458
f 458/458/458 487/487/487 488/488/488
f 458/458/458 488/488/488 459/459/459
f 459/459/459 488/488/488 489/489/489
f 459/459/459 489/489/489 460/460/460
f 460/460/460 489/489/489 490/490/490
f 460/460/460 490/490/490 461/461/461
f 461/461/461 490/490/490 491/491/491
f 461/461/461 491/491/491 462/462/462
f 462/462/462 491/491/491 492/492/492
f 462/462/462 492/492/492 463/463/463
f 463/463/463 492/492/492 493/493/493
f 463/463/463 493/493/493 464/464/464
f 465/465/465 494/494/494 495/495/495
f 465/465/465 495/495/495 466/466/466
f 466/466/466 495/495/495 496/496/496
f 466/466/466 496/496/496 467/467/467
f 467/467/467 496/496/496 497/497/497
f 467/467/467 497/497/497 468/468/468
f 468/468/468 497/497/497 498/498/498
f 468/468/468 498/498/498 469/469/469
f 469/469/469 498/498/498 499/499/499
f 469/469/469 499/499/499 470/470/470
f 470/470/470 499/499/499 500/500/500
f 470/470/470 500/500/500 471/471/471
f 471/471/471 500/500/500 501/501/501
f 471/471/471 501/501/501 472/472/472
f 472/472/472 501/501/501 502/502/502
f 472/472/472 502/502/502 473/473/473
f 473/473/473 502/502/502 503/503/503
f 473/473/473 503/503/503 474/474/474
f 474/474/474 503/503/503 504/504/504
f 474/474/474 504/504/504 475/475/475
f 475/475/475 504/504/504 505/505/505
f 475/475/475 505/505/505 476/476/476
f 476/476/476 505/505/505 506/506/506
f 476/476/476 506/506/506 477/477/477
f 477/477/477 506/506/506 507/507/507
f 477/477/477 507/507/507 478/478/478
f 478/478/478 507/507/507 508/508/508
f 478/478/478 508/508/508 479/479/479
f 479/479/479 508/508/508 509/509/509
f 479/479/479 509/509/509 480/480/480
f 480/480/480 509/509/509 510/510/510
f 480/480/480 510/510/510 481/481/481
f 481/481/481 510/510/510 511/511/511
f 481/481/481 511/511/511 482/482/482
f 482/482/482 511/511/511 512/512/512
f 482/482/482 512/512/512 483/483/483
f 483/483/483 512/512/512 513/513/513
f 483/483/483 513/513/513 484/484/484
f 484/484/484 513/513/513 514/514/514
f 484/484/484 514/514/514 485/485/485
f 485/485/485 514/514/514 515/515/515
f 485/485/485 515/515/515 486/486/486
f 486/486/486 515/515/515 516/516/516
f 486/486/486 516/516/516 487/487/487
f 487/487/487 516/516/516 517/517/517
f 487/487/487 517/517/517 488/488/488
f 488/488/488 517/517/517 518/518/518
f 488/488/488 518/518/518 489/489/489
f 489/489/489 518/518/518 519/519/519
f 489/489/489 519/519/519 490/490/490
f 490/490/490 519/519/519 520/520/520
f 490/490/490 520/520/520 491/491/491
f 491/491/491 520/520/520 521/521/521
f 491/491/491 521/521/521 492/492/492
f 492/492/492 521/521/521 522/522/522
f 492/492/492 522/522/522 493/493/493
f 494/494/494 523/523/523 524/524/524
f 494/494/494 524/524/524 495/495/495
f 495/495/495 524/524/524 525/525/525
f 495/495/495 525/525/525 496/496/496
f 496/496/496 525/525/525 526/526/526
f 496/496/496 526/526/526 497/497/497
f 497/497/497 526/526/526 527/527/527
f 497/497/497 527/527/527 498/498/498
f 498/498/498 527/527/527 528/528/528
f 498/498/498 528/528/528 499/499/499
f 499/499/499 528/528/528 529/529/529
f 499/499/499 529/529/529 500/500/500
f 500/500/500 529/529/529 530/530/530
f 500/500/500 530/530/530 501/501/501
f 501/501/501 530/530/530 531/531/531
f 501/501/501 531/531/531 502/502/502
f 502/502/502 531/531/531 532/532/532
f 502/502/502 532/532/532 503/503/503
f 503/503/503 532/532/532 533/533/533
f 503/503/503 533/533/533 504/504/504
f 504/504/504 533/533/533 534/534/534
f 504/504/504 534/534/534 505/505/505
f 505/505/505 534/534/534 535/535/535
f 505/505/505 535/535/535 506/506/506
f 506/506/506 535/535/535 536/536/536
f 506/506/506 536/536/536 507/507/507
f 507/507/507 536/536/536 537/537/537
f 507/507/507 537/537/537 508/508/508
f 508/508/508 537/537/537 538/538/538
f 508/508/508 538/538/538 509/509/509
f 509/509/509 538/538/538 539/539/539
f 509/509/509 539/539/539 510/510/510
f 510/510/510 539/539/539 540/540/540
f 510/510/510 540/540/540 511/511/511
f 511/511/511 540/540/540 541/541/541
f 511/511/511 541/541/541 512/512/512
f 512/512/512 541/541/541 542/542/542
f 512/512/512 542/542/542 513/513/513
f 513/513/513 542/542/542 543/543/543
f 513/513/513 543/543/543 514/514/514
f 514/514/514 543/543/543 544/544/544
f 514/514/514 544/544/544 515/515/515
f 515/515/515 544/544/544 545/545/545
f 515/515/515 545/545/545 516/516/516
f 516/516/516 545/545/545 546/546/546
f 516/516/516 546/546/546 517/517/517
f 517/517/517 546/546/546 547/547/547
f 517/517/517 547/547/547 518/518/518
f 518/518/518 547/547/547 548/548/548
f 518/518/518 548/548/548 519/519/519
f 519/519/519 548/548/548 549/549/549
f 519/519/519 549/549/549 520/520/520
f 520/520/520 549/549/549 550/550/550
f 520/520/520 550/550/550 521/521/521
f 521/521/521 550/550/550 551/551/551
f 521/521/521 551/551/551 522/522/522
f 523/523/523 552/552/552 553/553/553
f 523/523/523 553/553/553 524/524/524
f 524/524/524 553/553/553 554/554/554
f 524/524/524 554/554/554 525/525/525
f 525/525/525 554/554/554 555/555/555
f 525/525/525 555/555/555 526/526/526
f 526/526/526 555/555/555 556/556/556
f 526/526/526 556/556/556 527/527/527
f 527/527/527 556/556/556 557/557/557
f 527/527/527 557/557/557 528/528/528
f 528/528/528 557/557/557 558/558/558
f 528/528/528 558/558/558 529/529/529
f 529/529/529 558/558/558 559/559/559
f 529/529/529 559/559/559 530/530/530
f 530/530/530 559/559/559 560/560/560
f 530/530/530 560/560/560 531/531/531
f 531/531/531 560/560/560 561/561/561
f 531/531/531 561/561/561 532/532/532
f 532/532/532 561/561/561 562/562/562
f 532/532/532 562/562/562 533/533/533
f 533/533/533 562/562/562 563/563/563
f 533/533/533 563/563/563 534/534/534
f 534/534/534 563/563/563 564/564/564
f 534/534/534 564/564/564 535/535/535
f 535/535/535 564/564/564 565/565/565
f 535/535/535 565/565/565 536/536/536
f 536/536/536 565/565/565 566/566/566
f 536/536/536 566/566/566 537/537/537
f 537/537/537 566/566/566 567/567/567
f 537/537/537 567/567/567 538/538/538
f 538/538/538 567/567/567 568/568/568
f 538/538/538 568/568/568 539/539/539
f 539/539/539 568/568/568 569/569/569
f 539/539/539 569/569/569 540/540/540
f 540/540/540 569/569/569 570/570/570
f 540/540/540 570/570/570 541/541/541
f 541/541/541 570/570/570 571/571/571
f 541/541/541 571/571/571 542/542/542
f 542/542/542 571/571/571 572/572/572
f 542/542/542 572/572/572 543/543/543
f 543/543/543 572/572/572 573/573/573
f 543/543/543 573/573/573 544/544/544
f 544/544/544 573/573/573 574/574/574
f 544/544/544 574/574/574 545/545/545
f 545/545/545 574/574/574 575/575/575
f 545/545/545 575/575/575 546/546/546
f 546/546/546 575/575/575 576/576/576
f 546/546/546 576/576/576 547/547/547
f 547/547/547 576/576/576 577/577/577
f 547/547/547 577/577/577 548/548/548
f 548/548/548 577/577/577 578/578/578
f 548/548/548 578/578/578 549/549/549
f 549/549/549 578/578/578 579/579/579
f 549/549/549 579/579/579 550/550/550
f 550/550/550 579/579/579 580/580/580
f 550/550/550 580/580/580 551/551/551
f 552/552/552 581/581/581 582/582/582
f 552/552/552 582/582/582 553/553/553
f 553/553/553 582/582/582 583/583/583
f 553/553/553 583/583/583 554/554/554
f 554/554/554 583/583/583 584/584/584
f 554/554/554 584/584/584 555/555/555
f 555/555/555 584/584/584 585/585/585
f 555/555/555 585/585/585 556/556/556
f 556/556/556 585/585/585 586/586/586
f 556/556/556 586/586/586 557/557/557
f 557/557/557 586/586/586 587/587/587
f 557/557/557 587/587/587 558/558/558
f 558/558/558 587/587/587 588/588/588
f 558/558/558 588/588/588 559/559/559
f 559/559/559 588/588/588 589/589/589
f 559/559/559 589/589/589 560/560/560
f 560/560/560 589/589/589 590/590/590
f 560/560/560 590/590/590 561/561/561
f 561/561/561 590/590/590 591/591/591
f 561/561/561 591/591/591 562/562/562
f 562/562/562 591/591/591 592/592/592
f 562/562/562 592/592/592 563/563/563
f 563/563/563 592/592/592 593/593/593
f 563/563/563 593/593/593 564/564/564
f 564/564/564 593/593/593 594/594/594
f 564/564/564 594/594/594 565/565/565
f 565/565/565 594/594/594 595/595/595
f 565/565/565 595/595/595 566/566/566
f 566/566/566 595/595/595 596/596/596
f 566/566/566 596/596/596 567/567/567
f 567/567/567 596/596/596 597/597/597
f 567/567/567 597/597/597 568/568/568
f 568/568/568 597/597/597 598/598/598
f 568/568/568 598/598/598 569/569/569
f 569/569/569 598/598/598 599/599/599
f 569/569/569 599/599/599 570/570/570
f 570/570/570 599/599/599 600/600/600
f 570/570/570 600/600/600 571/571/571
f 571/571/571 600/600/600 601/601/601
f 571/571/571 601/601/601 572/572/572
f 572/572/572 601/601/601 602/602/602
f 572/572/572 602/602/602 573/573/573
f 573/573/573 602/602/602 603/603/603
f 573/573/573 603/603/603 574/574/574
f 574/574/574 603/603/603 604/604/604
f 574/574/574 604/604/604 575/575/575
f 575/575/575 604/604/604 605/605/605
f 575/575/575 605/605/605 576/576/576
f 576/576/576 605/605/605 606/606/606
f 576/576/576 606/606/606 577/577/577
f 577/577/577 606/606/606 607/607/607
f 577/577/577 607/607/607 578/578/578
f 578/578/578 607/607/607 608/608/608
f 578/578/578 608/608/608 579/579/579
f 579/579/579 608/608/608 609/609/609
f 579/579/579 609/609/609 580/580/580
