# generated by tools/make_gecko_mesh.py -- do not hand-edit
v 0.009666 0.012482 0.000000
v 0.009666 0.012190 0.002757
v 0.009666 0.011328 0.005132
v 0.009666 0.009928 0.007190
v 0.009666 0.008043 0.008875
v 0.009666 0.005741 0.010126
v 0.009666 0.003084 0.010898
v 0.009666 0.000000 0.011158
v 0.009666 -0.003084 0.010898
v 0.009666 -0.005741 0.010126
v 0.009666 -0.008043 0.008875
v 0.009666 -0.009928 0.007190
v 0.009666 -0.011328 0.005132
v 0.009666 -0.012190 0.002757
v 0.009666 -0.012482 0.000000
v 0.009666 -0.012169 -0.002483
v 0.009666 -0.011246 -0.004841
v 0.009666 -0.009759 -0.006957
v 0.009666 -0.007782 -0.008724
v 0.009666 -0.005416 -0.010053
v 0.009666 -0.002777 -0.010878
v 0.009666 -0.000000 -0.011158
v 0.009666 0.002777 -0.010878
v 0.009666 0.005416 -0.010053
v 0.009666 0.007782 -0.008724
v 0.009666 0.009759 -0.006957
v 0.009666 0.011246 -0.004841
v 0.009666 0.012169 -0.002483
v 0.009666 0.012482 0.000000
v 0.008732 0.011997 0.000000
v 0.008732 0.011717 0.002650
v 0.008732 0.010888 0.004932
v 0.008732 0.009542 0.006911
v 0.008732 0.007731 0.008530
v 0.008732 0.005518 0.009733
v 0.008732 0.002965 0.010475
v 0.008732 0.000000 0.010725
v 0.008732 -0.002965 0.010475
v 0.008732 -0.005518 0.009733
v 0.008732 -0.007731 0.008530
v 0.008732 -0.009542 0.006911
v 0.008732 -0.010888 0.004932
v 0.008732 -0.011717 0.002650
v 0.008732 -0.011997 0.000000
v 0.008732 -0.011697 -0.002387
v 0.008732 -0.010809 -0.004653
v 0.008732 -0.009380 -0.006687
v 0.008732 -0.007480 -0.008385
v 0.008732 -0.005205 -0.009663
v 0.008732 -0.002670 -0.010456
v 0.008732 -0.000000 -0.010725
v 0.008732 0.002670 -0.010456
v 0.008732 0.005205 -0.009663
v 0.008732 0.007480 -0.008385
v 0.008732 0.009380 -0.006687
v 0.008732 0.010809 -0.004653
v 0.008732 0.011697 -0.002387
v 0.008732 0.011997 0.000000
v 0.007798 0.012078 0.000000
v 0.007798 0.011796 0.002668
v 0.007798 0.010961 0.004966
v 0.007798 0.009606 0.006957
v 0.007798 0.007783 0.008587
v 0.007798 0.005555 0.009799
v 0.007798 0.002985 0.010545
v 0.007798 0.000000 0.010797
v 0.007798 -0.002985 0.010545
v 0.007798 -0.005555 0.009799
v 0.007798 -0.007783 0.008587
v 0.007798 -0.009606 0.006957
v 0.007798 -0.010961 0.004966
v 0.007798 -0.011796 0.002668
v 0.007798 -0.012078 0.000000
v 0.007798 -0.011775 -0.002402
v 0.007798 -0.010882 -0.004685
v 0.007798 -0.009443 -0.006732
v 0.007798 -0.007530 -0.008441
v 0.007798 -0.005240 -0.009728
v 0.007798 -0.002688 -0.010526
v 0.007798 -0.000000 -0.010797
v 0.007798 0.002688 -0.010526
v 0.007798 0.005240 -0.009728
v 0.007798 0.007530 -0.008441
v 0.007798 0.009443 -0.006732
v 0.007798 0.010882 -0.004685
v 0.007798 0.011775 -0.002402
v 0.007798 0.012078 -0.000000
v 0.006864 0.012342 0.000000
v 0.006864 0.012054 0.002727
v 0.006864 0.011201 0.005074
v 0.006864 0.009817 0.007110
v 0.006864 0.007953 0.008776
v 0.006864 0.005676 0.010013
v 0.006864 0.003050 0.010776
v 0.006864 0.000000 0.011033
v 0.006864 -0.003050 0.010776
v 0.006864 -0.005676 0.010013
v 0.006864 -0.007953 0.008776
v 0.006864 -0.009817 0.007110
v 0.006864 -0.011201 0.005074
v 0.006864 -0.012054 0.002727
v 0.006864 -0.012342 0.000000
v 0.006864 -0.012033 -0.002455
v 0.006864 -0.011120 -0.004787
v 0.006864 -0.009650 -0.006879
v 0.006864 -0.007695 -0.008626
v 0.006864 -0.005355 -0.009941
v 0.006864 -0.002746 -0.010757
v 0.006864 -0.000000 -0.011033
v 0.006864 0.002746 -0.010757
v 0.006864 0.005355 -0.009941
v 0.006864 0.007695 -0.008626
v 0.006864 0.009650 -0.006879
v 0.006864 0.011120 -0.004787
v 0.006864 0.012033 -0.002455
v 0.006864 0.012342 0.000000
v 0.005930 0.012112 0.000000
v 0.005930 0.011829 0.002676
v 0.005930 0.010992 0.004980
v 0.005930 0.009633 0.006977
v 0.005930 0.007805 0.008612
v 0.005930 0.005570 0.009826
v 0.005930 0.002993 0.010575
v 0.005930 0.000000 0.010827
v 0.005930 -0.002993 0.010575
v 0.005930 -0.005570 0.009826
v 0.005930 -0.007805 0.008612
v 0.005930 -0.009633 0.006977
v 0.005930 -0.010992 0.004980
v 0.005930 -0.011829 0.002676
v 0.005930 -0.012112 0.000000
v 0.005930 -0.011808 -0.002409
v 0.005930 -0.010912 -0.004698
v 0.005930 -0.009469 -0.006751
v 0.005930 -0.007552 -0.008465
v 0.005930 -0.005255 -0.009755
v 0.005930 -0.002695 -0.010556
v 0.005930 -0.000000 -0.010827
v 0.005930 0.002695 -0.010556
v 0.005930 0.005255 -0.009755
v 0.005930 0.007552 -0.008465
v 0.005930 0.009469 -0.006751
v 0.005930 0.010912 -0.004698
v 0.005930 0.011808 -0.002409
v 0.005930 0.012112 0.000000
v 0.004996 0.011388 0.000000
v 0.004996 0.011122 0.002516
v 0.004996 0.010335 0.004682
v 0.004996 0.009058 0.006560
v 0.004996 0.007338 0.008097
v 0.004996 0.005238 0.009239
v 0.004996 0.002814 0.009943
v 0.004996 0.000000 0.010180
v 0.004996 -0.002814 0.009943
v 0.004996 -0.005238 0.009239
v 0.004996 -0.007338 0.008097
v 0.004996 -0.009058 0.006560
v 0.004996 -0.010335 0.004682
v 0.004996 -0.011122 0.002516
v 0.004996 -0.011388 0.000000
v 0.004996 -0.011103 -0.002265
v 0.004996 -0.010260 -0.004417
v 0.004996 -0.008904 -0.006347
v 0.004996 -0.007100 -0.007959
v 0.004996 -0.004941 -0.009172
v 0.004996 -0.002534 -0.009925
v 0.004996 -0.000000 -0.010180
v 0.004996 0.002534 -0.009925
v 0.004996 0.004941 -0.009172
v 0.004996 0.007100 -0.007959
v 0.004996 0.008904 -0.006347
v 0.004996 0.010260 -0.004417
v 0.004996 0.011103 -0.002265
v 0.004996 0.011388 0.000000
v 0.004061 0.010825 0.000000
v 0.004061 0.010572 0.002391
v 0.004061 0.009824 0.004451
v 0.004061 0.008610 0.006236
v 0.004061 0.006975 0.007697
v 0.004061 0.004979 0.008782
v 0.004061 0.002675 0.009451
v 0.004061 0.000000 0.009677
v 0.004061 -0.002675 0.009451
v 0.004061 -0.004979 0.008782
v 0.004061 -0.006975 0.007697
v 0.004061 -0.008610 0.006236
v 0.004061 -0.009824 0.004451
v 0.004061 -0.010572 0.002391
v 0.004061 -0.010825 0.000000
v 0.004061 -0.010554 -0.002153
v 0.004061 -0.009753 -0.004199
v 0.004061 -0.008463 -0.006033
v 0.004061 -0.006749 -0.007566
v 0.004061 -0.004697 -0.008719
v 0.004061 -0.002409 -0.009434
v 0.004061 -0.000000 -0.009677
v 0.004061 0.002409 -0.009434
v 0.004061 0.004697 -0.008719
v 0.004061 0.006749 -0.007566
v 0.004061 0.008463 -0.006033
v 0.004061 0.009753 -0.004199
v 0.004061 0.010554 -0.002153
v 0.004061 0.010825 0.000000
v 0.003127 0.010790 0.000000
v 0.003127 0.010538 0.002384
v 0.003127 0.009792 0.004436
v 0.003127 0.008582 0.006215
v 0.003127 0.006953 0.007672
v 0.003127 0.004962 0.008754
v 0.003127 0.002666 0.009420
v 0.003127 0.000000 0.009645
v 0.003127 -0.002666 0.009420
v 0.003127 -0.004962 0.008754
v 0.003127 -0.006953 0.007672
v 0.003127 -0.008582 0.006215
v 0.003127 -0.009792 0.004436
v 0.003127 -0.010538 0.002384
v 0.003127 -0.010790 0.000000
v 0.003127 -0.010519 -0.002146
v 0.003127 -0.009721 -0.004185
v 0.003127 -0.008436 -0.006014
v 0.003127 -0.006727 -0.007541
v 0.003127 -0.004681 -0.008690
v 0.003127 -0.002401 -0.009403
v 0.003127 -0.000000 -0.009645
v 0.003127 0.002401 -0.009403
v 0.003127 0.004681 -0.008690
v 0.003127 0.006727 -0.007541
v 0.003127 0.008436 -0.006014
v 0.003127 0.009721 -0.004185
v 0.003127 0.010519 -0.002146
v 0.003127 0.010790 0.000000
v 0.002193 0.010886 0.000000
v 0.002193 0.010632 0.002405
v 0.002193 0.009880 0.004476
v 0.002193 0.008659 0.006271
v 0.002193 0.007015 0.007740
v 0.002193 0.005007 0.008832
v 0.002193 0.002690 0.009505
v 0.002193 0.000000 0.009732
v 0.002193 -0.002690 0.009505
v 0.002193 -0.005007 0.008832
v 0.002193 -0.007015 0.007740
v 0.002193 -0.008659 0.006271
v 0.002193 -0.009880 0.004476
v 0.002193 -0.010632 0.002405
v 0.002193 -0.010886 0.000000
v 0.002193 -0.010613 -0.002166
v 0.002193 -0.009808 -0.004222
v 0.002193 -0.008511 -0.006068
v 0.002193 -0.006788 -0.007609
v 0.002193 -0.004723 -0.008768
v 0.002193 -0.002422 -0.009488
v 0.002193 -0.000000 -0.009732
v 0.002193 0.002422 -0.009488
v 0.002193 0.004723 -0.008768
v 0.002193 0.006788 -0.007609
v 0.002193 0.008511 -0.006068
v 0.002193 0.009808 -0.004222
v 0.002193 0.010613 -0.002166
v 0.002193 0.010886 0.000000
v 0.001259 0.010570 0.000000
v 0.001259 0.010323 0.002335
v 0.001259 0.009593 0.004346
v 0.001259 0.008407 0.006089
v 0.001259 0.006811 0.007516
v 0.001259 0.004861 0.008575
v 0.001259 0.002612 0.009229
v 0.001259 0.000000 0.009449
v 0.001259 -0.002612 0.009229
v 0.001259 -0.004861 0.008575
v 0.001259 -0.006811 0.007516
v 0.001259 -0.008407 0.006089
v 0.001259 -0.009593 0.004346
v 0.001259 -0.010323 0.002335
v 0.001259 -0.010570 0.000000
v 0.001259 -0.010305 -0.002103
v 0.001259 -0.009523 -0.004100
v 0.001259 -0.008264 -0.005891
v 0.001259 -0.006590 -0.007388
v 0.001259 -0.004586 -0.008513
v 0.001259 -0.002352 -0.009212
v 0.001259 -0.000000 -0.009449
v 0.001259 0.002352 -0.009212
v 0.001259 0.004586 -0.008513
v 0.001259 0.006590 -0.007388
v 0.001259 0.008264 -0.005891
v 0.001259 0.009523 -0.004100
v 0.001259 0.010305 -0.002103
v 0.001259 0.010570 0.000000
v 0.000325 0.009917 0.000000
v 0.000325 0.009685 0.002191
v 0.000325 0.009000 0.004077
v 0.000325 0.007887 0.005712
v 0.000325 0.006390 0.007051
v 0.000325 0.004561 0.008045
v 0.000325 0.002451 0.008658
v 0.000325 0.000000 0.008865
v 0.000325 -0.002451 0.008658
v 0.000325 -0.004561 0.008045
v 0.000325 -0.006390 0.007051
v 0.000325 -0.007887 0.005712
v 0.000325 -0.009000 0.004077
v 0.000325 -0.009685 0.002191
v 0.000325 -0.009917 0.000000
v 0.000325 -0.009668 -0.001973
v 0.000325 -0.008934 -0.003846
v 0.000325 -0.007753 -0.005527
v 0.000325 -0.006183 -0.006931
v 0.000325 -0.004303 -0.007987
v 0.000325 -0.002207 -0.008643
v 0.000325 -0.000000 -0.008865
v 0.000325 0.002207 -0.008643
v 0.000325 0.004303 -0.007987
v 0.000325 0.006183 -0.006931
v 0.000325 0.007753 -0.005527
v 0.000325 0.008934 -0.003846
v 0.000325 0.009668 -0.001973
v 0.000325 0.009917 0.000000
v -0.000609 0.009478 0.000000
v -0.000609 0.009256 0.002094
v -0.000609 0.008601 0.003897
v -0.000609 0.007538 0.005459
v -0.000609 0.006107 0.006739
v -0.000609 0.004359 0.007689
v -0.000609 0.002342 0.008275
v -0.000609 0.000000 0.008472
v -0.000609 -0.002342 0.008275
v -0.000609 -0.004359 0.007689
v -0.000609 -0.006107 0.006739
v -0.000609 -0.007538 0.005459
v -0.000609 -0.008601 0.003897
v -0.000609 -0.009256 0.002094
v -0.000609 -0.009478 0.000000
v -0.000609 -0.009240 -0.001885
v -0.000609 -0.008539 -0.003676
v -0.000609 -0.007410 -0.005282
v -0.000609 -0.005909 -0.006624
v -0.000609 -0.004112 -0.007633
v -0.000609 -0.002109 -0.008260
v -0.000609 -0.000000 -0.008472
v -0.000609 0.002109 -0.008260
v -0.000609 0.004112 -0.007633
v -0.000609 0.005909 -0.006624
v -0.000609 0.007410 -0.005282
v -0.000609 0.008539 -0.003676
v -0.000609 0.009240 -0.001885
v -0.000609 0.009478 0.000000
v -0.001543 0.009501 0.000000
v -0.001543 0.009279 0.002099
v -0.001543 0.008622 0.003906
v -0.001543 0.007557 0.005473
v -0.001543 0.006122 0.006755
v -0.001543 0.004370 0.007708
v -0.001543 0.002348 0.008295
v -0.001543 0.000000 0.008493
v -0.001543 -0.002348 0.008295
v -0.001543 -0.004370 0.007708
v -0.001543 -0.006122 0.006755
v -0.001543 -0.007557 0.005473
v -0.001543 -0.008622 0.003906
v -0.001543 -0.009279 0.002099
v -0.001543 -0.009501 0.000000
v -0.001543 -0.009263 -0.001890
v -0.001543 -0.008560 -0.003685
v -0.001543 -0.007428 -0.005295
v -0.001543 -0.005924 -0.006640
v -0.001543 -0.004122 -0.007652
v -0.001543 -0.002114 -0.008280
v -0.001543 -0.000000 -0.008493
v -0.001543 0.002114 -0.008280
v -0.001543 0.004122 -0.007652
v -0.001543 0.005924 -0.006640
v -0.001543 0.007428 -0.005295
v -0.001543 0.008560 -0.003685
v -0.001543 0.009263 -0.001890
v -0.001543 0.009501 0.000000
v -0.002477 0.009631 -0.000000
v -0.002477 0.009406 0.002128
v -0.002477 0.008740 0.003960
v -0.002477 0.007660 0.005548
v -0.002477 0.006206 0.006848
v -0.002477 0.004429 0.007813
v -0.002477 0.002380 0.008408
v -0.002477 0.000000 0.008609
v -0.002477 -0.002380 0.008408
v -0.002477 -0.004429 0.007813
v -0.002477 -0.006206 0.006848
v -0.002477 -0.007660 0.005548
v -0.002477 -0.008740 0.003960
v -0.002477 -0.009406 0.002128
v -0.002477 -0.009631 0.000000
v -0.002477 -0.009389 -0.001916
v -0.002477 -0.008677 -0.003735
v -0.002477 -0.007530 -0.005368
v -0.002477 -0.006005 -0.006731
v -0.002477 -0.004179 -0.007757
v -0.002477 -0.002143 -0.008394
v -0.002477 -0.000000 -0.008609
v -0.002477 0.002143 -0.008394
v -0.002477 0.004179 -0.007757
v -0.002477 0.006005 -0.006731
v -0.002477 0.007530 -0.005368
v -0.002477 0.008677 -0.003735
v -0.002477 0.009389 -0.001916
v -0.002477 0.009631 -0.000000
v -0.003411 0.009452 0.000000
v -0.003411 0.009232 0.002088
v -0.003411 0.008578 0.003886
v -0.003411 0.007518 0.005445
v -0.003411 0.006091 0.006721
v -0.003411 0.004347 0.007669
v -0.003411 0.002336 0.008253
v -0.003411 0.000000 0.008450
v -0.003411 -0.002336 0.008253
v -0.003411 -0.004347 0.007669
v -0.003411 -0.006091 0.006721
v -0.003411 -0.007518 0.005445
v -0.003411 -0.008578 0.003886
v -0.003411 -0.009232 0.002088
v -0.003411 -0.009452 0.000000
v -0.003411 -0.009215 -0.001880
v -0.003411 -0.008516 -0.003666
v -0.003411 -0.007390 -0.005268
v -0.003411 -0.005893 -0.006606
v -0.003411 -0.004101 -0.007613
v -0.003411 -0.002103 -0.008238
v -0.003411 -0.000000 -0.008450
v -0.003411 0.002103 -0.008238
v -0.003411 0.004101 -0.007613
v -0.003411 0.005893 -0.006606
v -0.003411 0.007390 -0.005268
v -0.003411 0.008516 -0.003666
v -0.003411 0.009215 -0.001880
v -0.003411 0.009452 0.000000
v -0.004345 0.009068 0.000000
v -0.004345 0.008856 0.002003
v -0.004345 0.008229 0.003728
v -0.004345 0.007212 0.005223
v -0.004345 0.005843 0.006447
v -0.004345 0.004170 0.007356
v -0.004345 0.002241 0.007917
v -0.004345 0.000000 0.008106
v -0.004345 -0.002241 0.007917
v -0.004345 -0.004170 0.007356
v -0.004345 -0.005843 0.006447
v -0.004345 -0.007212 0.005223
v -0.004345 -0.008229 0.003728
v -0.004345 -0.008856 0.002003
v -0.004345 -0.009068 0.000000
v -0.004345 -0.008840 -0.001804
v -0.004345 -0.008170 -0.003517
v -0.004345 -0.007089 -0.005054
v -0.004345 -0.005654 -0.006337
v -0.004345 -0.003934 -0.007303
v -0.004345 -0.002018 -0.007903
v -0.004345 -0.000000 -0.008106
v -0.004345 0.002018 -0.007903
v -0.004345 0.003934 -0.007303
v -0.004345 0.005654 -0.006337
v -0.004345 0.007089 -0.005054
v -0.004345 0.008170 -0.003517
v -0.004345 0.008840 -0.001804
v -0.004345 0.009068 0.000000
v -0.005280 0.008918 0.000000
v -0.005280 0.008710 0.001970
v -0.005280 0.008094 0.003667
v -0.005280 0.007093 0.005137
v -0.005280 0.005747 0.006341
v -0.005280 0.004102 0.007235
v -0.005280 0.002204 0.007786
v -0.005280 0.000000 0.007972
v -0.005280 -0.002204 0.007786
v -0.005280 -0.004102 0.007235
v -0.005280 -0.005747 0.006341
v -0.005280 -0.007093 0.005137
v -0.005280 -0.008094 0.003667
v -0.005280 -0.008710 0.001970
v -0.005280 -0.008918 0.000000
v -0.005280 -0.008695 -0.001774
v -0.005280 -0.008035 -0.003459
v -0.005280 -0.006973 -0.004971
v -0.005280 -0.005560 -0.006233
v -0.005280 -0.003869 -0.007183
v -0.005280 -0.001985 -0.007773
v -0.005280 -0.000000 -0.007972
v -0.005280 0.001985 -0.007773
v -0.005280 0.003869 -0.007183
v -0.005280 0.005560 -0.006233
v -0.005280 0.006973 -0.004971
v -0.005280 0.008035 -0.003459
v -0.005280 0.008695 -0.001774
v -0.005280 0.008918 -0.000000
v -0.006214 0.009074 0.000000
v -0.006214 0.008862 0.002004
v -0.006214 0.008235 0.003730
v -0.006214 0.007217 0.005227
v -0.006214 0.005847 0.006451
v -0.006214 0.004173 0.007361
v -0.006214 0.002242 0.007922
v -0.006214 0.000000 0.008111
v -0.006214 -0.002242 0.007922
v -0.006214 -0.004173 0.007361
v -0.006214 -0.005847 0.006451
v -0.006214 -0.007217 0.005227
v -0.006214 -0.008235 0.003730
v -0.006214 -0.008862 0.002004
v -0.006214 -0.009074 0.000000
v -0.006214 -0.008846 -0.001805
v -0.006214 -0.008175 -0.003519
v -0.006214 -0.007094 -0.005057
v -0.006214 -0.005657 -0.006342
v -0.006214 -0.003937 -0.007308
v -0.006214 -0.002019 -0.007908
v -0.006214 -0.000000 -0.008111
v -0.006214 0.002019 -0.007908
v -0.006214 0.003937 -0.007308
v -0.006214 0.005657 -0.006342
v -0.006214 0.007094 -0.005057
v -0.006214 0.008175 -0.003519
v -0.006214 0.008846 -0.001805
v -0.006214 0.009074 -0.000000
v -0.007148 0.009187 0.000000
v -0.007148 0.008972 0.002029
v -0.007148 0.008337 0.003777
v -0.007148 0.007307 0.005292
v -0.007148 0.005920 0.006532
v -0.007148 0.004225 0.007453
v -0.007148 0.002270 0.008021
v -0.007148 0.000000 0.008212
v -0.007148 -0.002270 0.008021
v -0.007148 -0.004225 0.007453
v -0.007148 -0.005920 0.006532
v -0.007148 -0.007307 0.005292
v -0.007148 -0.008337 0.003777
v -0.007148 -0.008972 0.002029
v -0.007148 -0.009187 0.000000
v -0.007148 -0.008956 -0.001827
v -0.007148 -0.008277 -0.003563
v -0.007148 -0.007182 -0.005120
v -0.007148 -0.005728 -0.006421
v -0.007148 -0.003986 -0.007399
v -0.007148 -0.002044 -0.008006
v -0.007148 -0.000000 -0.008212
v -0.007148 0.002044 -0.008006
v -0.007148 0.003986 -0.007399
v -0.007148 0.005728 -0.006421
v -0.007148 0.007182 -0.005120
v -0.007148 0.008277 -0.003563
v -0.007148 0.008956 -0.001827
v -0.007148 0.009187 0.000000
vt 0.00000 4.57087
vt 0.07143 4.57087
vt 0.14286 4.57087
vt 0.21429 4.57087
vt 0.28571 4.57087
vt 0.35714 4.57087
vt 0.42857 4.57087
vt 0.50000 4.57087
vt 0.57143 4.57087
vt 0.64286 4.57087
vt 0.71429 4.57087
vt 0.78571 4.57087
vt 0.85714 4.57087
vt 0.92857 4.57087
vt 1.00000 4.57087
vt 1.07143 4.57087
vt 1.14286 4.57087
vt 1.21429 4.57087
vt 1.28571 4.57087
vt 1.35714 4.57087
vt 1.42857 4.57087
vt 1.50000 4.57087
vt 1.57143 4.57087
vt 1.64286 4.57087
vt 1.71429 4.57087
vt 1.78571 4.57087
vt 1.85714 4.57087
vt 1.92857 4.57087
vt 2.00000 4.57087
vt 0.00000 4.60200
vt 0.07143 4.60200
vt 0.14286 4.60200
vt 0.21429 4.60200
vt 0.28571 4.60200
vt 0.35714 4.60200
vt 0.42857 4.60200
vt 0.50000 4.60200
vt 0.57143 4.60200
vt 0.64286 4.60200
vt 0.71429 4.60200
vt 0.78571 4.60200
vt 0.85714 4.60200
vt 0.92857 4.60200
vt 1.00000 4.60200
vt 1.07143 4.60200
vt 1.14286 4.60200
vt 1.21429 4.60200
vt 1.28571 4.60200
vt 1.35714 4.60200
vt 1.42857 4.60200
vt 1.50000 4.60200
vt 1.57143 4.60200
vt 1.64286 4.60200
vt 1.71429 4.60200
vt 1.78571 4.60200
vt 1.85714 4.60200
vt 1.92857 4.60200
vt 2.00000 4.60200
vt 0.00000 4.63314
vt 0.07143 4.63314
vt 0.14286 4.63314
vt 0.21429 4.63314
vt 0.28571 4.63314
vt 0.35714 4.63314
vt 0.42857 4.63314
vt 0.50000 4.63314
vt 0.57143 4.63314
vt 0.64286 4.63314
vt 0.71429 4.63314
vt 0.78571 4.63314
vt 0.85714 4.63314
vt 0.92857 4.63314
vt 1.00000 4.63314
vt 1.07143 4.63314
vt 1.14286 4.63314
vt 1.21429 4.63314
vt 1.28571 4.63314
vt 1.35714 4.63314
vt 1.42857 4.63314
vt 1.50000 4.63314
vt 1.57143 4.63314
vt 1.64286 4.63314
vt 1.71429 4.63314
vt 1.78571 4.63314
vt 1.85714 4.63314
vt 1.92857 4.63314
vt 2.00000 4.63314
vt 0.00000 4.66428
vt 0.07143 4.66428
vt 0.14286 4.66428
vt 0.21429 4.66428
vt 0.28571 4.66428
vt 0.35714 4.66428
vt 0.42857 4.66428
vt 0.50000 4.66428
vt 0.57143 4.66428
vt 0.64286 4.66428
vt 0.71429 4.66428
vt 0.78571 4.66428
vt 0.85714 4.66428
vt 0.92857 4.66428
vt 1.00000 4.66428
vt 1.07143 4.66428
vt 1.14286 4.66428
vt 1.21429 4.66428
vt 1.28571 4.66428
vt 1.35714 4.66428
vt 1.42857 4.66428
vt 1.50000 4.66428
vt 1.57143 4.66428
vt 1.64286 4.66428
vt 1.71429 4.66428
vt 1.78571 4.66428
vt 1.85714 4.66428
vt 1.92857 4.66428
vt 2.00000 4.66428
vt 0.00000 4.69541
vt 0.07143 4.69541
vt 0.14286 4.69541
vt 0.21429 4.69541
vt 0.28571 4.69541
vt 0.35714 4.69541
vt 0.42857 4.69541
vt 0.50000 4.69541
vt 0.57143 4.69541
vt 0.64286 4.69541
vt 0.71429 4.69541
vt 0.78571 4.69541
vt 0.85714 4.69541
vt 0.92857 4.69541
vt 1.00000 4.69541
vt 1.07143 4.69541
vt 1.14286 4.69541
vt 1.21429 4.69541
vt 1.28571 4.69541
vt 1.35714 4.69541
vt 1.42857 4.69541
vt 1.50000 4.69541
vt 1.57143 4.69541
vt 1.64286 4.69541
vt 1.71429 4.69541
vt 1.78571 4.69541
vt 1.85714 4.69541
vt 1.92857 4.69541
vt 2.00000 4.69541
vt 0.00000 4.72655
vt 0.07143 4.72655
vt 0.14286 4.72655
vt 0.21429 4.72655
vt 0.28571 4.72655
vt 0.35714 4.72655
vt 0.42857 4.72655
vt 0.50000 4.72655
vt 0.57143 4.72655
vt 0.64286 4.72655
vt 0.71429 4.72655
vt 0.78571 4.72655
vt 0.85714 4.72655
vt 0.92857 4.72655
vt 1.00000 4.72655
vt 1.07143 4.72655
vt 1.14286 4.72655
vt 1.21429 4.72655
vt 1.28571 4.72655
vt 1.35714 4.72655
vt 1.42857 4.72655
vt 1.50000 4.72655
vt 1.57143 4.72655
vt 1.64286 4.72655
vt 1.71429 4.72655
vt 1.78571 4.72655
vt 1.85714 4.72655
vt 1.92857 4.72655
vt 2.00000 4.72655
vt 0.00000 4.75769
vt 0.07143 4.75769
vt 0.14286 4.75769
vt 0.21429 4.75769
vt 0.28571 4.75769
vt 0.35714 4.75769
vt 0.42857 4.75769
vt 0.50000 4.75769
vt 0.57143 4.75769
vt 0.64286 4.75769
vt 0.71429 4.75769
vt 0.78571 4.75769
vt 0.85714 4.75769
vt 0.92857 4.75769
vt 1.00000 4.75769
vt 1.07143 4.75769
vt 1.14286 4.75769
vt 1.21429 4.75769
vt 1.28571 4.75769
vt 1.35714 4.75769
vt 1.42857 4.75769
vt 1.50000 4.75769
vt 1.57143 4.75769
vt 1.64286 4.75769
vt 1.71429 4.75769
vt 1.78571 4.75769
vt 1.85714 4.75769
vt 1.92857 4.75769
vt 2.00000 4.75769
vt 0.00000 4.78882
vt 0.07143 4.78882
vt 0.14286 4.78882
vt 0.21429 4.78882
vt 0.28571 4.78882
vt 0.35714 4.78882
vt 0.42857 4.78882
vt 0.50000 4.78882
vt 0.57143 4.78882
vt 0.64286 4.78882
vt 0.71429 4.78882
vt 0.78571 4.78882
vt 0.85714 4.78882
vt 0.92857 4.78882
vt 1.00000 4.78882
vt 1.07143 4.78882
vt 1.14286 4.78882
vt 1.21429 4.78882
vt 1.28571 4.78882
vt 1.35714 4.78882
vt 1.42857 4.78882
vt 1.50000 4.78882
vt 1.57143 4.78882
vt 1.64286 4.78882
vt 1.71429 4.78882
vt 1.78571 4.78882
vt 1.85714 4.78882
vt 1.92857 4.78882
vt 2.00000 4.78882
vt 0.00000 4.81996
vt 0.07143 4.81996
vt 0.14286 4.81996
vt 0.21429 4.81996
vt 0.28571 4.81996
vt 0.35714 4.81996
vt 0.42857 4.81996
vt 0.50000 4.81996
vt 0.57143 4.81996
vt 0.64286 4.81996
vt 0.71429 4.81996
vt 0.78571 4.81996
vt 0.85714 4.81996
vt 0.92857 4.81996
vt 1.00000 4.81996
vt 1.07143 4.81996
vt 1.14286 4.81996
vt 1.21429 4.81996
vt 1.28571 4.81996
vt 1.35714 4.81996
vt 1.42857 4.81996
vt 1.50000 4.81996
vt 1.57143 4.81996
vt 1.64286 4.81996
vt 1.71429 4.81996
vt 1.78571 4.81996
vt 1.85714 4.81996
vt 1.92857 4.81996
vt 2.00000 4.81996
vt 0.00000 4.85110
vt 0.07143 4.85110
vt 0.14286 4.85110
vt 0.21429 4.85110
vt 0.28571 4.85110
vt 0.35714 4.85110
vt 0.42857 4.85110
vt 0.50000 4.85110
vt 0.57143 4.85110
vt 0.64286 4.85110
vt 0.71429 4.85110
vt 0.78571 4.85110
vt 0.85714 4.85110
vt 0.92857 4.85110
vt 1.00000 4.85110
vt 1.07143 4.85110
vt 1.14286 4.85110
vt 1.21429 4.85110
vt 1.28571 4.85110
vt 1.35714 4.85110
vt 1.42857 4.85110
vt 1.50000 4.85110
vt 1.57143 4.85110
vt 1.64286 4.85110
vt 1.71429 4.85110
vt 1.78571 4.85110
vt 1.85714 4.85110
vt 1.92857 4.85110
vt 2.00000 4.85110
vt 0.00000 4.88224
vt 0.07143 4.88224
vt 0.14286 4.88224
vt 0.21429 4.88224
vt 0.28571 4.88224
vt 0.35714 4.88224
vt 0.42857 4.88224
vt 0.50000 4.88224
vt 0.57143 4.88224
vt 0.64286 4.88224
vt 0.71429 4.88224
vt 0.78571 4.88224
vt 0.85714 4.88224
vt 0.92857 4.88224
vt 1.00000 4.88224
vt 1.07143 4.88224
vt 1.14286 4.88224
vt 1.21429 4.88224
vt 1.28571 4.88224
vt 1.35714 4.88224
vt 1.42857 4.88224
vt 1.50000 4.88224
vt 1.57143 4.88224
vt 1.64286 4.88224
vt 1.71429 4.88224
vt 1.78571 4.88224
vt 1.85714 4.88224
vt 1.92857 4.88224
vt 2.00000 4.88224
vt 0.00000 4.91337
vt 0.07143 4.91337
vt 0.14286 4.91337
vt 0.21429 4.91337
vt 0.28571 4.91337
vt 0.35714 4.91337
vt 0.42857 4.91337
vt 0.50000 4.91337
vt 0.57143 4.91337
vt 0.64286 4.91337
vt 0.71429 4.91337
vt 0.78571 4.91337
vt 0.85714 4.91337
vt 0.92857 4.91337
vt 1.00000 4.91337
vt 1.07143 4.91337
vt 1.14286 4.91337
vt 1.21429 4.91337
vt 1.28571 4.91337
vt 1.35714 4.91337
vt 1.42857 4.91337
vt 1.50000 4.91337
vt 1.57143 4.91337
vt 1.64286 4.91337
vt 1.71429 4.91337
vt 1.78571 4.91337
vt 1.85714 4.91337
vt 1.92857 4.91337
vt 2.00000 4.91337
vt 0.00000 4.94451
vt 0.07143 4.94451
vt 0.14286 4.94451
vt 0.21429 4.94451
vt 0.28571 4.94451
vt 0.35714 4.94451
vt 0.42857 4.94451
vt 0.50000 4.94451
vt 0.57143 4.94451
vt 0.64286 4.94451
vt 0.71429 4.94451
vt 0.78571 4.94451
vt 0.85714 4.94451
vt 0.92857 4.94451
vt 1.00000 4.94451
vt 1.07143 4.94451
vt 1.14286 4.94451
vt 1.21429 4.94451
vt 1.28571 4.94451
vt 1.35714 4.94451
vt 1.42857 4.94451
vt 1.50000 4.94451
vt 1.57143 4.94451
vt 1.64286 4.94451
vt 1.71429 4.94451
vt 1.78571 4.94451
vt 1.85714 4.94451
vt 1.92857 4.94451
vt 2.00000 4.94451
vt 0.00000 4.97565
vt 0.07143 4.97565
vt 0.14286 4.97565
vt 0.21429 4.97565
vt 0.28571 4.97565
vt 0.35714 4.97565
vt 0.42857 4.97565
vt 0.50000 4.97565
vt 0.57143 4.97565
vt 0.64286 4.97565
vt 0.71429 4.97565
vt 0.78571 4.97565
vt 0.85714 4.97565
vt 0.92857 4.97565
vt 1.00000 4.97565
vt 1.07143 4.97565
vt 1.14286 4.97565
vt 1.21429 4.97565
vt 1.28571 4.97565
vt 1.35714 4.97565
vt 1.42857 4.97565
vt 1.50000 4.97565
vt 1.57143 4.97565
vt 1.64286 4.97565
vt 1.71429 4.97565
vt 1.78571 4.97565
vt 1.85714 4.97565
vt 1.92857 4.97565
vt 2.00000 4.97565
vt 0.00000 5.00678
vt 0.07143 5.00678
vt 0.14286 5.00678
vt 0.21429 5.00678
vt 0.28571 5.00678
vt 0.35714 5.00678
vt 0.42857 5.00678
vt 0.50000 5.00678
vt 0.57143 5.00678
vt 0.64286 5.00678
vt 0.71429 5.00678
vt 0.78571 5.00678
vt 0.85714 5.00678
vt 0.92857 5.00678
vt 1.00000 5.00678
vt 1.07143 5.00678
vt 1.14286 5.00678
vt 1.21429 5.00678
vt 1.28571 5.00678
vt 1.35714 5.00678
vt 1.42857 5.00678
vt 1.50000 5.00678
vt 1.57143 5.00678
vt 1.64286 5.00678
vt 1.71429 5.00678
vt 1.78571 5.00678
vt 1.85714 5.00678
vt 1.92857 5.00678
vt 2.00000 5.00678
vt 0.00000 5.03792
vt 0.07143 5.03792
vt 0.14286 5.03792
vt 0.21429 5.03792
vt 0.28571 5.03792
vt 0.35714 5.03792
vt 0.42857 5.03792
vt 0.50000 5.03792
vt 0.57143 5.03792
vt 0.64286 5.03792
vt 0.71429 5.03792
vt 0.78571 5.03792
vt 0.85714 5.03792
vt 0.92857 5.03792
vt 1.00000 5.03792
vt 1.07143 5.03792
vt 1.14286 5.03792
vt 1.21429 5.03792
vt 1.28571 5.03792
vt 1.35714 5.03792
vt 1.42857 5.03792
vt 1.50000 5.03792
vt 1.57143 5.03792
vt 1.64286 5.03792
vt 1.71429 5.03792
vt 1.78571 5.03792
vt 1.85714 5.03792
vt 1.92857 5.03792
vt 2.00000 5.03792
vt 0.00000 5.06906
vt 0.07143 5.06906
vt 0.14286 5.06906
vt 0.21429 5.06906
vt 0.28571 5.06906
vt 0.35714 5.06906
vt 0.42857 5.06906
vt 0.50000 5.06906
vt 0.57143 5.06906
vt 0.64286 5.06906
vt 0.71429 5.06906
vt 0.78571 5.06906
vt 0.85714 5.06906
vt 0.92857 5.06906
vt 1.00000 5.06906
vt 1.07143 5.06906
vt 1.14286 5.06906
vt 1.21429 5.06906
vt 1.28571 5.06906
vt 1.35714 5.06906
vt 1.42857 5.06906
vt 1.50000 5.06906
vt 1.57143 5.06906
vt 1.64286 5.06906
vt 1.71429 5.06906
vt 1.78571 5.06906
vt 1.85714 5.06906
vt 1.92857 5.06906
vt 2.00000 5.06906
vt 0.00000 5.10019
vt 0.07143 5.10019
vt 0.14286 5.10019
vt 0.21429 5.10019
vt 0.28571 5.10019
vt 0.35714 5.10019
vt 0.42857 5.10019
vt 0.50000 5.10019
vt 0.57143 5.10019
vt 0.64286 5.10019
vt 0.71429 5.10019
vt 0.78571 5.10019
vt 0.85714 5.10019
vt 0.92857 5.10019
vt 1.00000 5.10019
vt 1.07143 5.10019
vt 1.14286 5.10019
vt 1.21429 5.10019
vt 1.28571 5.10019
vt 1.35714 5.10019
vt 1.42857 5.10019
vt 1.50000 5.10019
vt 1.57143 5.10019
vt 1.64286 5.10019
vt 1.71429 5.10019
vt 1.78571 5.10019
vt 1.85714 5.10019
vt 1.92857 5.10019
vt 2.00000 5.10019
vt 0.00000 5.13133
vt 0.07143 5.13133
vt 0.14286 5.13133
vt 0.21429 5.13133
vt 0.28571 5.13133
vt 0.35714 5.13133
vt 0.42857 5.13133
vt 0.50000 5.13133
vt 0.57143 5.13133
vt 0.64286 5.13133
vt 0.71429 5.13133
vt 0.78571 5.13133
vt 0.85714 5.13133
vt 0.92857 5.13133
vt 1.00000 5.13133
vt 1.07143 5.13133
vt 1.14286 5.13133
vt 1.21429 5.13133
vt 1.28571 5.13133
vt 1.35714 5.13133
vt 1.42857 5.13133
vt 1.50000 5.13133
vt 1.57143 5.13133
vt 1.64286 5.13133
vt 1.71429 5.13133
vt 1.78571 5.13133
vt 1.85714 5.13133
vt 1.92857 5.13133
vt 2.00000 5.13133
vn -0.46021 0.88733 0.02907
vn -0.46062 0.85745 0.22936
vn -0.45769 0.77481 0.43611
vn -0.45066 0.64708 0.61497
vn -0.44085 0.48745 0.75369
vn -0.43072 0.31165 0.84697
vn -0.42288 0.13202 0.89652
vn -0.42050 -0.02486 0.90695
vn -0.42507 -0.18921 0.88516
vn -0.43390 -0.36958 0.82167
vn -0.44421 -0.54187 0.71349
vn -0.45334 -0.69285 0.56074
vn -0.45907 -0.80696 0.37157
vn -0.46060 -0.87291 0.16086
vn -0.46009 -0.88708 -0.03750
vn -0.45716 -0.85217 -0.25457
vn -0.45055 -0.76889 -0.45366
vn -0.44195 -0.64678 -0.62158
vn -0.43325 -0.49694 -0.75189
vn -0.42609 -0.32938 -0.84259
vn -0.42162 -0.15190 -0.89396
vn -0.42045 0.02965 -0.90683
vn -0.42273 0.21043 -0.88149
vn -0.42818 0.38540 -0.81739
vn -0.43599 0.54815 -0.71375
vn -0.44485 0.69015 -0.57079
vn -0.45302 0.80082 -0.39175
vn -0.45859 0.86922 -0.18483
vn -0.46021 0.88733 0.02907
vn -0.20798 0.97812 -0.00466
vn -0.21775 0.95237 0.21348
vn -0.21329 0.87048 0.44359
vn -0.20883 0.73549 0.64455
vn -0.20290 0.56274 0.80134
vn -0.19648 0.37090 0.90765
vn -0.18904 0.17421 0.96639
vn -0.19128 0.00046 0.98154
vn -0.19724 -0.17286 0.96500
vn -0.19882 -0.36963 0.90766
vn -0.20355 -0.56163 0.80196
vn -0.20810 -0.73473 0.64566
vn -0.21076 -0.87035 0.44505
vn -0.20876 -0.95399 0.21521
vn -0.21798 -0.97595 -0.00339
vn -0.21174 -0.94711 -0.24112
vn -0.20835 -0.86137 -0.46328
vn -0.20372 -0.73099 -0.65127
vn -0.19892 -0.56937 -0.79765
vn -0.19487 -0.38836 -0.90067
vn -0.19220 -0.19673 -0.96143
vn -0.19128 -0.00055 -0.98154
vn -0.19219 0.19564 -0.96166
vn -0.19485 0.38731 -0.90112
vn -0.19889 0.56840 -0.79835
vn -0.20369 0.73016 -0.65221
vn -0.20833 0.86075 -0.46444
vn -0.21173 0.94678 -0.24243
vn -0.20798 0.97812 -0.00466
vn 0.18368 0.98298 -0.00351
vn 0.18079 0.95944 0.21633
vn 0.18078 0.87573 0.44769
vn 0.17799 0.73924 0.64949
vn 0.17369 0.56500 0.80661
vn 0.16915 0.37180 0.91277
vn 0.16622 0.17395 0.97062
vn 0.16327 -0.00040 0.98658
vn 0.16354 -0.17494 0.97090
vn 0.16839 -0.37279 0.91251
vn 0.17349 -0.56591 0.80601
vn 0.17824 -0.73996 0.64860
vn 0.18162 -0.87612 0.44658
vn 0.18375 -0.95915 0.21510
vn 0.18039 -0.98359 -0.00459
vn 0.18094 -0.95278 -0.24387
vn 0.17800 -0.86605 -0.46719
vn 0.17399 -0.73448 -0.65594
vn 0.16984 -0.57164 -0.80274
vn 0.16635 -0.38945 -0.90590
vn 0.16406 -0.19674 -0.96663
vn 0.16327 0.00047 -0.98658
vn 0.16407 0.19767 -0.96644
vn 0.16637 0.39035 -0.90551
vn 0.16986 0.57247 -0.80214
vn 0.17401 0.73520 -0.65514
vn 0.17802 0.86658 -0.46620
vn 0.18095 0.95307 -0.24274
vn 0.18368 0.98298 -0.00351
vn 0.01360 0.99990 -0.00406
vn 0.02229 0.97538 0.21939
vn 0.01923 0.89047 0.45463
vn 0.01808 0.75146 0.65953
vn 0.01699 0.57404 0.81865
vn 0.01573 0.37762 0.92583
vn 0.01270 0.17681 0.98416
vn 0.01624 -0.00004 0.99987
vn 0.02010 -0.17688 0.98403
vn 0.01787 -0.37770 0.92576
vn 0.01760 -0.57412 0.81858
vn 0.01744 -0.75154 0.65945
vn 0.01693 -0.89056 0.45454
vn 0.01408 -0.97555 0.21932
vn 0.02272 -0.99973 -0.00417
vn 0.01805 -0.96874 -0.24740
vn 0.01775 -0.88021 -0.47424
vn 0.01734 -0.74607 -0.66564
vn 0.01691 -0.58036 -0.81418
vn 0.01655 -0.39532 -0.91840
vn 0.01632 -0.19984 -0.97969
vn 0.01624 0.00005 -0.99987
vn 0.01632 0.19994 -0.97967
vn 0.01655 0.39540 -0.91836
vn 0.01691 0.58045 -0.81412
vn 0.01734 0.74615 -0.66556
vn 0.01775 0.88027 -0.47415
vn 0.01805 0.96877 -0.24729
vn 0.01360 0.99990 -0.00406
vn -0.45558 0.89018 -0.00503
vn -0.44995 0.87161 0.19453
vn -0.44987 0.79612 0.40474
vn -0.44415 0.67438 0.58987
vn -0.43518 0.51808 0.73635
vn -0.42559 0.34300 0.83739
vn -0.41925 0.16175 0.89335
vn -0.41297 0.00102 0.91074
vn -0.41362 -0.15986 0.89631
vn -0.42388 -0.34091 0.83911
vn -0.43460 -0.51598 0.73817
vn -0.44449 -0.67233 0.59194
vn -0.45145 -0.79407 0.40701
vn -0.45574 -0.86811 0.19669
vn -0.44914 -0.89346 -0.00232
vn -0.45018 -0.86555 -0.21948
vn -0.44414 -0.78946 -0.42367
vn -0.43582 -0.67254 -0.59813
vn -0.42709 -0.52595 -0.73551
vn -0.41965 -0.36007 -0.83322
vn -0.41471 -0.18311 -0.89134
vn -0.41297 -0.00121 -0.91074
vn -0.41466 0.18072 -0.89185
vn -0.41956 0.35777 -0.83425
vn -0.42698 0.52385 -0.73707
vn -0.43570 0.67076 -0.60021
vn -0.44404 0.78815 -0.42620
vn -0.45012 0.86485 -0.22233
vn -0.45558 0.89018 -0.00503
vn -0.56732 0.82348 -0.00518
vn -0.56943 0.80242 0.17851
vn -0.56659 0.73479 0.37291
vn -0.55967 0.62414 0.54518
vn -0.54936 0.48126 0.68308
vn -0.53810 0.31995 0.77979
vn -0.52839 0.15172 0.83533
vn -0.52522 0.00135 0.85096
vn -0.52974 -0.14846 0.83506
vn -0.53832 -0.31673 0.78095
vn -0.54927 -0.47831 0.68522
vn -0.55938 -0.62177 0.54818
vn -0.56608 -0.73334 0.37652
vn -0.56793 -0.80261 0.18242
vn -0.56901 -0.82233 -0.00160
vn -0.56583 -0.79937 -0.20211
vn -0.55936 -0.73066 -0.39148
vn -0.55035 -0.62425 -0.55447
vn -0.54082 -0.48968 -0.68391
vn -0.53263 -0.33619 -0.77671
vn -0.52716 -0.17147 -0.83228
vn -0.52522 -0.00161 -0.85096
vn -0.52709 0.16830 -0.83298
vn -0.53250 0.33316 -0.77811
vn -0.54065 0.48693 -0.68600
vn -0.55016 0.62194 -0.55724
vn -0.55920 0.72897 -0.39483
vn -0.56575 0.79847 -0.20586
vn -0.56732 0.82348 -0.00518
vn -0.30299 0.95298 -0.00493
vn -0.31157 0.92731 0.20744
vn -0.30710 0.84812 0.43172
vn -0.30145 0.71736 0.62811
vn -0.29365 0.54969 0.78206
vn -0.28520 0.36290 0.88711
vn -0.27639 0.17084 0.94574
vn -0.27737 0.00074 0.96076
vn -0.28353 -0.16876 0.94400
vn -0.28720 -0.36092 0.88727
vn -0.29417 -0.54793 0.78309
vn -0.30079 -0.71611 0.62985
vn -0.30489 -0.84776 0.43398
vn -0.30380 -0.92929 0.21006
vn -0.31163 -0.95020 -0.00291
vn -0.30562 -0.92282 -0.23450
vn -0.30097 -0.84006 -0.45136
vn -0.29460 -0.71377 -0.63541
vn -0.28797 -0.55668 -0.77922
vn -0.28236 -0.38017 -0.88076
vn -0.27866 -0.19287 -0.94082
vn -0.27737 -0.00088 -0.96076
vn -0.27864 0.19112 -0.94119
vn -0.28232 0.37849 -0.88150
vn -0.28791 0.55513 -0.78035
vn -0.29453 0.71245 -0.63691
vn -0.30092 0.83908 -0.45321
vn -0.30559 0.92230 -0.23660
vn -0.30299 0.95298 -0.00493
vn 0.03414 0.99941 -0.00401
vn 0.03184 0.97512 0.21939
vn 0.03244 0.89014 0.45453
vn 0.03209 0.75116 0.65934
vn 0.03142 0.57379 0.81840
vn 0.03073 0.37744 0.92552
vn 0.03072 0.17669 0.98379
vn 0.02942 -0.00008 0.99957
vn 0.02871 -0.17689 0.98381
vn 0.03015 -0.37764 0.92546
vn 0.03125 -0.57398 0.81827
vn 0.03226 -0.75131 0.65916
vn 0.03306 -0.89023 0.45431
vn 0.03406 -0.97510 0.21915
vn 0.03167 -0.99949 -0.00422
vn 0.03270 -0.96837 -0.24737
vn 0.03216 -0.87987 -0.47412
vn 0.03141 -0.74578 -0.66545
vn 0.03064 -0.58013 -0.81395
vn 0.02999 -0.39515 -0.91813
vn 0.02957 -0.19974 -0.97940
vn 0.02942 0.00010 -0.99957
vn 0.02957 0.19992 -0.97937
vn 0.02999 0.39533 -0.91805
vn 0.03064 0.58030 -0.81383
vn 0.03141 0.74593 -0.66529
vn 0.03216 0.87998 -0.47392
vn 0.03270 0.96843 -0.24714
vn 0.03414 0.99941 -0.00401
vn -0.11968 0.99280 -0.00448
vn -0.11275 0.96951 0.21759
vn -0.11447 0.88500 0.45130
vn -0.11316 0.74707 0.65505
vn -0.11073 0.57096 0.81348
vn -0.10823 0.37583 0.92035
vn -0.10788 0.17616 0.97843
vn -0.10380 0.00028 0.99460
vn -0.10179 -0.17562 0.97918
vn -0.10647 -0.37523 0.92080
vn -0.11021 -0.57035 0.81397
vn -0.11366 -0.74648 0.65563
vn -0.11635 -0.88442 0.45195
vn -0.11946 -0.96856 0.21822
vn -0.11222 -0.99368 -0.00370
vn -0.11525 -0.96256 -0.24533
vn -0.11334 -0.87490 -0.47086
vn -0.11074 -0.74189 -0.66131
vn -0.10806 -0.57739 -0.80929
vn -0.10580 -0.39352 -0.91321
vn -0.10431 -0.19916 -0.97440
vn -0.10380 -0.00034 -0.99460
vn -0.10431 0.19849 -0.97454
vn -0.10579 0.39287 -0.91349
vn -0.10805 0.57679 -0.80972
vn -0.11073 0.74138 -0.66189
vn -0.11333 0.87452 -0.47157
vn -0.11525 0.96236 -0.24614
vn -0.11968 0.99280 -0.00448
vn -0.46098 0.88740 -0.00523
vn -0.45731 0.86800 0.19348
vn -0.45655 0.79320 0.40298
vn -0.45060 0.67210 0.58757
vn -0.44143 0.51651 0.73373
vn -0.43157 0.34212 0.83469
vn -0.42453 0.16150 0.89090
vn -0.41910 0.00118 0.90794
vn -0.42066 -0.15910 0.89316
vn -0.43034 -0.33956 0.83636
vn -0.44096 -0.51402 0.73576
vn -0.45078 -0.66981 0.59004
vn -0.45760 -0.79116 0.40579
vn -0.46125 -0.86529 0.19629
vn -0.45661 -0.88966 -0.00208
vn -0.45660 -0.86244 -0.21844
vn -0.45052 -0.78675 -0.42196
vn -0.44213 -0.67038 -0.59591
vn -0.43334 -0.52439 -0.73297
vn -0.42583 -0.35911 -0.83049
vn -0.42085 -0.18274 -0.88853
vn -0.41910 -0.00141 -0.90794
vn -0.42080 0.17997 -0.88912
vn -0.42574 0.35645 -0.83168
vn -0.43321 0.52196 -0.73477
vn -0.44200 0.66832 -0.59832
vn -0.45040 0.78524 -0.42489
vn -0.45653 0.86163 -0.22175
vn -0.46098 0.88740 -0.00523
vn -0.50487 0.86318 -0.00538
vn -0.50784 0.84088 0.18712
vn -0.50475 0.76977 0.39073
vn -0.49791 0.65311 0.57056
vn -0.48783 0.50273 0.71364
vn -0.47686 0.33361 0.81321
vn -0.46723 0.15796 0.86991
vn -0.46461 0.00137 0.88552
vn -0.46936 -0.15460 0.86937
vn -0.47731 -0.33030 0.81429
vn -0.48781 -0.49970 0.71578
vn -0.49757 -0.65069 0.57361
vn -0.50402 -0.76836 0.39445
vn -0.50551 -0.84137 0.19118
vn -0.50747 -0.86167 -0.00173
vn -0.50389 -0.83740 -0.21178
vn -0.49757 -0.76457 -0.40971
vn -0.48882 -0.65221 -0.57938
vn -0.47960 -0.51080 -0.71349
vn -0.47171 -0.35021 -0.80922
vn -0.46646 -0.17845 -0.86635
vn -0.46461 -0.00163 -0.88552
vn -0.46640 0.17523 -0.86705
vn -0.47159 0.34713 -0.81062
vn -0.47944 0.50799 -0.71560
vn -0.48864 0.64985 -0.58218
vn -0.49743 0.76283 -0.41311
vn -0.50381 0.83648 -0.21560
vn -0.50487 0.86318 -0.00538
vn -0.21477 0.97665 -0.00484
vn -0.22279 0.95130 0.21304
vn -0.21890 0.86947 0.44284
vn -0.21452 0.73470 0.64359
vn -0.20859 0.56221 0.80025
vn -0.20218 0.37062 0.90651
vn -0.19517 0.17416 0.96518
vn -0.19659 0.00060 0.98049
vn -0.20184 -0.17254 0.96410
vn -0.20407 -0.36906 0.90673
vn -0.20910 -0.56080 0.80111
vn -0.21392 -0.73365 0.64498
vn -0.21683 -0.86907 0.44463
vn -0.21546 -0.95253 0.21508
vn -0.22292 -0.97483 -0.00320
vn -0.21758 -0.94592 -0.24061
vn -0.21410 -0.86037 -0.46252
vn -0.20935 -0.73023 -0.65034
vn -0.20443 -0.56886 -0.79662
vn -0.20028 -0.38809 -0.89960
vn -0.19755 -0.19669 -0.96036
vn -0.19659 -0.00072 -0.98049
vn -0.19753 0.19527 -0.96065
vn -0.20025 0.38672 -0.90019
vn -0.20440 0.56760 -0.79753
vn -0.20932 0.72915 -0.65156
vn -0.21407 0.85957 -0.46403
vn -0.21756 0.94549 -0.24231
vn -0.21477 0.97665 -0.00484
vn 0.08291 0.99655 -0.00379
vn 0.08113 0.97235 0.21899
vn 0.08128 0.88757 0.45345
vn 0.08004 0.74899 0.65772
vn 0.07808 0.57216 0.81642
vn 0.07603 0.37635 0.92335
vn 0.07482 0.17611 0.98152
vn 0.07328 -0.00023 0.99731
vn 0.07321 -0.17666 0.98155
vn 0.07557 -0.37690 0.92317
vn 0.07795 -0.57267 0.81607
vn 0.08018 -0.74942 0.65722
vn 0.08178 -0.88783 0.45284
vn 0.08292 -0.97235 0.21832
vn 0.08092 -0.99671 -0.00441
vn 0.08141 -0.96562 -0.24689
vn 0.08005 -0.87740 -0.47303
vn 0.07821 -0.74373 -0.66389
vn 0.07630 -0.57856 -0.81207
vn 0.07469 -0.39405 -0.91605
vn 0.07364 -0.19911 -0.97721
vn 0.07328 0.00027 -0.99731
vn 0.07364 0.19964 -0.97710
vn 0.07470 0.39457 -0.91583
vn 0.07630 0.57903 -0.81173
vn 0.07821 0.74414 -0.66343
vn 0.08006 0.87771 -0.47246
vn 0.08142 0.96578 -0.24624
vn 0.08291 0.99655 -0.00379
vn -0.02867 0.99958 -0.00421
vn -0.02330 0.97539 0.21923
vn -0.02498 0.89044 0.45442
vn -0.02505 0.75145 0.65931
vn -0.02478 0.57407 0.81843
vn -0.02456 0.37768 0.92561
vn -0.02563 0.17689 0.98390
vn -0.02309 0.00007 0.99973
vn -0.02101 -0.17675 0.98403
vn -0.02322 -0.37753 0.92571
vn -0.02440 -0.57392 0.81855
vn -0.02545 -0.75131 0.65946
vn -0.02642 -0.89031 0.45460
vn -0.02842 -0.97522 0.21941
vn -0.02298 -0.99973 -0.00402
vn -0.02567 -0.96862 -0.24720
vn -0.02524 -0.88015 -0.47403
vn -0.02465 -0.74606 -0.66542
vn -0.02404 -0.58039 -0.81398
vn -0.02354 -0.39539 -0.91821
vn -0.02320 -0.19995 -0.97953
vn -0.02309 -0.00009 -0.99973
vn -0.02320 0.19978 -0.97957
vn -0.02354 0.39522 -0.91828
vn -0.02404 0.58024 -0.81409
vn -0.02465 0.74593 -0.66557
vn -0.02523 0.88005 -0.47421
vn -0.02567 0.96857 -0.24741
vn -0.02867 0.99958 -0.00421
vn -0.28936 0.95721 -0.00504
vn -0.28652 0.93499 0.20906
vn -0.28602 0.85400 0.43460
vn -0.28171 0.72195 0.63200
vn -0.27513 0.55292 0.78650
vn -0.26812 0.36484 0.89163
vn -0.26321 0.17157 0.94936
vn -0.25934 0.00081 0.96579
vn -0.26037 -0.16983 0.95046
vn -0.26725 -0.36301 0.89264
vn -0.27482 -0.55115 0.78785
vn -0.28189 -0.72037 0.63373
vn -0.28684 -0.85270 0.43662
vn -0.28954 -0.93359 0.21113
vn -0.28600 -0.95822 -0.00284
vn -0.28607 -0.92872 -0.23590
vn -0.28166 -0.84528 -0.45405
vn -0.27563 -0.71805 -0.63909
vn -0.26936 -0.55989 -0.78356
vn -0.26406 -0.38230 -0.88550
vn -0.26056 -0.19397 -0.94577
vn -0.25934 -0.00097 -0.96579
vn -0.26054 0.19205 -0.94617
vn -0.26401 0.38046 -0.88631
vn -0.26930 0.55819 -0.78480
vn -0.27557 0.71660 -0.64074
vn -0.28161 0.84420 -0.45609
vn -0.28604 0.92814 -0.23820
vn -0.28936 0.95721 -0.00504
vn -0.27397 0.96172 -0.00505
vn -0.27806 0.93741 0.20963
vn -0.27525 0.85680 0.43605
vn -0.27043 0.72438 0.63415
vn -0.26358 0.55476 0.78916
vn -0.25621 0.36605 0.89463
vn -0.24934 0.17221 0.95298
vn -0.24859 0.00080 0.96861
vn -0.25256 -0.17021 0.95249
vn -0.25708 -0.36407 0.89519
vn -0.26378 -0.55294 0.79037
vn -0.27010 -0.72292 0.63594
vn -0.27423 -0.85599 0.43828
vn -0.27451 -0.93790 0.21208
vn -0.27792 -0.96060 -0.00287
vn -0.27439 -0.93202 -0.23676
vn -0.27013 -0.84819 -0.45564
vn -0.26431 -0.72041 -0.64122
vn -0.25826 -0.56163 -0.78605
vn -0.25314 -0.38344 -0.88819
vn -0.24977 -0.19452 -0.94856
vn -0.24859 -0.00095 -0.96861
vn -0.24975 0.19264 -0.94896
vn -0.25310 0.38163 -0.88899
vn -0.25820 0.55996 -0.78726
vn -0.26425 0.71898 -0.64284
vn -0.27008 0.84712 -0.45764
vn -0.27436 0.93145 -0.23903
vn -0.27397 0.96172 -0.00505
vn 0.00611 0.99997 -0.00410
vn 0.00064 0.97563 0.21941
vn 0.00249 0.89066 0.45467
vn 0.00296 0.75161 0.65960
vn 0.00327 0.57415 0.81874
vn 0.00366 0.37770 0.92592
vn 0.00525 0.17686 0.98422
vn 0.00289 -0.00001 1.00000
vn 0.00058 -0.17688 0.98423
vn 0.00231 -0.37772 0.92592
vn 0.00288 -0.57418 0.81873
vn 0.00336 -0.75163 0.65958
vn 0.00394 -0.89066 0.45464
vn 0.00582 -0.97562 0.21938
vn 0.00035 -0.99999 -0.00413
vn 0.00321 -0.96891 -0.24740
vn 0.00316 -0.88037 -0.47428
vn 0.00308 -0.74621 -0.66570
vn 0.00301 -0.58047 -0.81427
vn 0.00294 -0.39540 -0.91850
vn 0.00290 -0.19990 -0.97981
vn 0.00289 0.00001 -1.00000
vn 0.00290 0.19993 -0.97981
vn 0.00294 0.39542 -0.91849
vn 0.00301 0.58049 -0.81426
vn 0.00308 0.74623 -0.66568
vn 0.00316 0.88038 -0.47426
vn 0.00321 0.96892 -0.24737
vn 0.00611 0.99997 -0.00410
vn 0.14166 0.98991 -0.00351
vn 0.14257 0.96554 0.21773
vn 0.14147 0.88143 0.45063
vn 0.13896 0.74393 0.65364
vn 0.13533 0.56842 0.81153
vn 0.13147 0.37395 0.91809
vn 0.12819 0.17493 0.97620
vn 0.12723 -0.00041 0.99187
vn 0.12882 -0.17587 0.97595
vn 0.13167 -0.37491 0.91766
vn 0.13540 -0.56934 0.81087
vn 0.13893 -0.74473 0.65275
vn 0.14129 -0.88201 0.44956
vn 0.14188 -0.96590 0.21659
vn 0.14242 -0.98980 -0.00464
vn 0.14118 -0.95906 -0.24550
vn 0.13885 -0.87157 -0.47019
vn 0.13569 -0.73895 -0.65996
vn 0.13241 -0.57494 -0.80741
vn 0.12966 -0.39161 -0.91095
vn 0.12786 -0.19779 -0.97187
vn 0.12723 0.00049 -0.99187
vn 0.12786 0.19876 -0.97167
vn 0.12967 0.39255 -0.91055
vn 0.13243 0.57581 -0.80679
vn 0.13570 0.73969 -0.65912
vn 0.13887 0.87213 -0.46916
vn 0.14119 0.95936 -0.24432
vn 0.14166 0.98991 -0.00351
vn 0.11994 0.99187 -0.04264
vn 0.12011 0.97645 0.17922
vn 0.11961 0.90212 0.41457
vn 0.11776 0.77237 0.62416
vn 0.11484 0.60137 0.79068
vn 0.11159 0.40825 0.90603
vn 0.10884 0.20839 0.97197
vn 0.10743 0.02774 0.99383
vn 0.10816 -0.14427 0.98361
vn 0.11058 -0.34261 0.93295
vn 0.11375 -0.53897 0.83461
vn 0.11688 -0.71940 0.68469
vn 0.11916 -0.86487 0.48766
vn 0.12011 -0.95885 0.25725
vn 0.11998 -0.99222 0.03317
vn 0.11946 -0.97128 -0.20577
vn 0.11766 -0.89236 -0.43572
vn 0.11504 -0.76592 -0.63256
vn 0.11224 -0.60576 -0.78769
vn 0.10980 -0.42446 -0.89877
vn 0.10812 -0.23143 -0.96683
vn 0.10741 -0.03309 -0.99366
vn 0.10777 0.16595 -0.98023
vn 0.10915 0.36134 -0.92603
vn 0.11137 0.54741 -0.82942
vn 0.11411 0.71584 -0.68888
vn 0.11685 0.85500 -0.50529
vn 0.11898 0.95114 -0.28490
vn 0.11994 0.99187 -0.04264
f 1/1/1 30/30/30 31/31/31
f 1/1/1 31/31/31 2/2/2
f 2/2/2 31/31/31 32/32/32
f 2/2/2 32/32/32 3/3/3
f 3/3/3 32/32/32 33/33/33
f 3/3/3 33/33/33 4/4/4
f 4/4/4 33/33/33 34/34/34
f 4/4/4 34/34/34 5/5/5
f 5/5/5 34/34/34 35/35/35
f 5/5/5 35/35/35 6/6/6
f 6/6/6 35/35/35 36/36/36
f 6/6/6 36/36/36 7/7/7
f 7/7/7 36/36/36 37/37/37
f 7/7/7 37/37/37 8/8/8
f 8/8/8 37/37/37 38/38/38
f 8/8/8 38/38/38 9/9/9
f 9/9/9 38/38/38 39/39/39
f 9/9/9 39/39/39 10/10/10
f 10/10/10 39/39/39 40/40/40
f 10/10/10 40/40/40 11/11/11
f 11/11/11 40/40/40 41/41/41
f 11/11/11 41/41/41 12/12/12
f 12/12/12 41/41/41 42/42/42
f 12/12/12 42/42/42 13/13/13
f 13/13/13 42/42/42 43/43/43
f 13/13/13 43/43/43 14/14/14
f 14/14/14 43/43/43 44/44/44
f 14/14/14 44/44/44 15/15/15
f 15/15/15 44/44/44 45/45/45
f 15/15/15 45/45/45 16/16/16
f 16/16/16 45/45/45 46/46/46
f 16/16/16 46/46/46 17/17/17
f 17/17/17 46/46/46 47/47/47
f 17/17/17 47/47/47 18/18/18
f 18/18/18 47/47/47 48/48/48
f 18/18/18 48/48/48 19/19/19
f 19/19/19 48/48/48 49/49/49
f 19/19/19 49/49/49 20/20/20
f 20/20/20 49/49/49 50/50/50
f 20/20/20 50/50/50 21/21/21
f 21/21/21 50/50/50 51/51/51
f 21/21/21 51/51/51 22/22/22
f 22/22/22 51/51/51 52/52/52
f 22/22/22 52/52/52 23/23/23
f 23/23/23 52/52/52 53/53/53
f 23/23/23 53/53/53 24/24/24
f 24/24/24 53/53/53 54/54/54
f 24/24/24 54/54/54 25/25/25
f 25/25/25 54/54/54 55/55/55
f 25/25/25 55/55/55 26/26/26
f 26/26/26 55/55/55 56/56/56
f 26/26/26 56/56/56 27/27/27
f 27/27/27 56/56/56 57/57/57
f 27/27/27 57/57/57 28/28/28
f 28/28/28 57/57/57 58/58/58
f 28/28/28 58/58/58 29/29/29
f 30/30/30 59/59/59 60/60/60
f 30/30/30 60/60/60 31/31/31
f 31/31/31 60/60/60 61/61/61
f 31/31/31 61/61/61 32/32/32
f 32/32/32 61/61/61 62/62/62
f 32/32/32 62/62/62 33/33/33
f 33/33/33 62/62/62 63/63/63
f 33/33/33 63/63/63 34/34/34
f 34/34/34 63/63/63 64/64/64
f 34/34/34 64/64/64 35/35/35
f 35/35/35 64/64/64 65/65/65
f 35/35/35 65/65/65 36/36/36
f 36/36/36 65/65/65 66/66/66
f 36/36/36 66/66/66 37/37/37
f 37/37/37 66/66/66 67/67/67
f 37/37/37 67/67/67 38/38/38
f 38/38/38 67/67/67 68/68/68
f 38/38/38 68/68/68 39/39/39
f 39/39/39 68/68/68 69/69/69
f 39/39/39 69/69/69 40/40/40
f 40/40/40 69/69/69 70/70/70
f 40/40/40 70/70/70 41/41/41
f 41/41/41 70/70/70 71/71/71
f 41/41/41 71/71/71 42/42/42
f 42/42/42 71/71/71 72/72/72
f 42/42/42 72/72/72 43/43/43
f 43/43/43 72/72/72 73/73/73
f 43/43/43 73/73/73 44/44/44
f 44/44/44 73/73/73 74/74/74
f 44/44/44 74/74/74 45/45/45
f 45/45/45 74/74/74 75/75/75
f 45/45/45 75/75/75 46/46/46
f 46/46/46 75/75/75 76/76/76
f 46/46/46 76/76/76 47/47/47
f 47/47/47 76/76/76 77/77/77
f 47/47/47 77/77/77 48/48/48
f 48/48/48 77/77/77 78/78/78
f 48/48/48 78/78/78 49/49/49
f 49/49/49 78/78/78 79/79/79
f 49/49/49 79/79/79 50/50/50
f 50/50/50 79/79/79 80/80/80
f 50/50/50 80/80/80 51/51/51
f 51/51/51 80/80/80 81/81/81
f 51/51/51 81/81/81 52/52/52
f 52/52/52 81/81/81 82/82/82
f 52/52/52 82/82/82 53/53/53
f 53/53/53 82/82/82 83/83/83
f 53/53/53 83/83/83 54/54/54
f 54/54/54 83/83/83 84/84/84
f 54/54/54 84/84/84 55/55/55
f 55/55/55 84/84/84 85/85/85
f 55/55/55 85/85/85 56/56/56
f 56/56/56 85/85/85 86/86/86
f 56/56/56 86/86/86 57/57/57
f 57/57/57 86/86/86 87/87/87
f 57/57/57 87/87/87 58/58/58
f 59/59/59 88/88/88 89/89/89
f 59/59/59 89/89/89 60/60/60
f 60/60/60 89/89/89 90/90/90
f 60/60/60 90/90/90 61/61/61
f 61/61/61 90/90/90 91/91/91
f 61/61/61 91/91/91 62/62/62
f 62/62/62 91/91/91 92/92/92
f 62/62/62 92/92/92 63/63/63
f 63/63/63 92/92/92 93/93/93
f 63/63/63 93/93/93 64/64/64
f 64/64/64 93/93/93 94/94/94
f 64/64/64 94/94/94 65/65/65
f 65/65/65 94/94/94 95/95/95
f 65/65/65 95/95/95 66/66/66
f 66/66/66 95/95/95 96/96/96
f 66/66/66 96/96/96 67/67/67
f 67/67/67 96/96/96 97/97/97
f 67/67/67 97/97/97 68/68/68
f 68/68/68 97/97/97 98/98/98
f 68/68/68 98/98/98 69/69/69
f 69/69/69 98/98/98 99/99/99
f 69/69/69 99/99/99 70/70/70
f 70/70/70 99/99/99 100/100/100
f 70/70/70 100/100/100 71/71/71
f 71/71/71 100/100/100 101/101/101
f 71/71/71 101/101/101 72/72/72
f 72/72/72 101/101/101 102/102/102
f 72/72/72 102/102/102 73/73/73
f 73/73/73 102/102/102 103/103/103
f 73/73/73 103/103/103 74/74/74
f 74/74/74 103/103/103 104/104/104
f 74/74/74 104/104/104 75/75/75
f 75/75/75 104/104/104 105/105/105
f 75/75/75 105/105/105 76/76/76
f 76/76/76 105/105/105 106/106/106
f 76/76/76 106/106/106 77/77/77
f 77/77/77 106/106/106 107/107/107
f 77/77/77 107/107/107 78/78/78
f 78/78/78 107/107/107 108/108/108
f 78/78/78 108/108/108 79/79/79
f 79/79/79 108/108/108 109/109/109
f 79/79/79 109/109/109 80/80/80
f 80/80/80 109/109/109 110/110/110
f 80/80/80 110/110/110 81/81/81
f 81/81/81 110/110/110 111/111/111
f 81/81/81 111/111/111 82/82/82
f 82/82/82 111/111/111 112/112/112
f 82/82/82 112/112/112 83/83/83
f 83/83/83 112/112/112 113/113/113
f 83/83/83 113/113/113 84/84/84
f 84/84/84 113/113/113 114/114/114
f 84/84/84 114/114/114 85/85/85
f 85/85/85 114/114/114 115/115/115
f 85/85/85 115/115/115 86/86/86
f 86/86/86 115/115/115 116/116/116
f 86/86/86 116/116/116 87/87/87
f 88/88/88 117/117/117 118/118/118
f 88/88/88 118/118/118 89/89/89
f 89/89/89 118/118/118 119/119/119
f 89/89/89 119/119/119 90/90/90
f 90/90/90 119/119/119 120/120/120
f 90/90/90 120/120/120 91/91/91
f 91/91/91 120/120/120 121/121/121
f 91/91/91 121/121/121 92/92/92
f 92/92/92 121/121/121 122/122/122
f 92/92/92 122/122/122 93/93/93
f 93/93/93 122/122/122 123/123/123
f 93/93/93 123/123/123 94/94/94
f 94/94/94 123/123/123 124/124/124
f 94/94/94 124/124/124 95/95/95
f 95/95/95 124/124/124 125/125/125
f 95/95/95 125/125/125 96/96/96
f 96/96/96 125/125/125 126/126/126
f 96/96/96 126/126/126 97/97/97
f 97/97/97 126/126/126 127/127/127
f 97/97/97 127/127/127 98/98/98
f 98/98/98 127/127/127 128/128/128
f 98/98/98 128/128/128 99/99/99
f 99/99/99 128/128/128 129/129/129
f 99/99/99 129/129/129 100/100/100
f 100/100/100 129/129/129 130/130/130
f 100/100/100 130/130/130 101/101/101
f 101/101/101 130/130/130 131/131/131
f 101/101/101 131/131/131 102/102/102
f 102/102/102 131/131/131 132/132/132
f 102/102/102 132/132/132 103/103/103
f 103/103/103 132/132/132 133/133/133
f 103/103/103 133/133/133 104/104/104
f 104/104/104 133/133/133 134/134/134
f 104/104/104 134/134/134 105/105/105
f 105/105/105 134/134/134 135/135/135
f 105/105/105 135/135/135 106/106/106
f 106/106/106 135/135/135 136/136/136
f 106/106/106 136/136/136 107/107/107
f 107/107/107 136/136/136 137/137/137
f 107/107/107 137/137/137 108/108/108
f 108/108/108 137/137/137 138/138/138
f 108/108/108 138/138/138 109/109/109
f 109/109/109 138/138/138 139/139/139
f 109/109/109 139/139/139 110/110/110
f 110/110/110 139/139/139 140/140/140
f 110/110/110 140/140/140 111/111/111
f 111/111/111 140/140/140 141/141/141
f 111/111/111 141/141/141 112/112/112
f 112/112/112 141/141/141 142/142/142
f 112/112/112 142/142/142 113/113/113
f 113/113/113 142/142/142 143/143/143
f 113/113/113 143/143/143 114/114/114
f 114/114/114 143/143/143 144/144/144
f 114/114/114 144/144/144 115/115/115
f 115/115/115 144/144/144 145/145/145
f 115/115/115 145/145/145 116/116/116
f 117/117/117 146/146/146 147/147/147
f 117/117/117 147/147/147 118/118/118
f 118/118/118 147/147/147 148/148/148
f 118/118/118 148/148/148 119/119/119
f 119/119/119 148/148/148 149/149/149
f 119/119/119 149/149/149 120/120/120
f 120/120/120 149/149/149 150/150/150
f 120/120/120 150/150/150 121/121/121
f 121/121/121 150/150/150 151/151/151
f 121/121/121 151/151/151 122/122/122
f 122/122/122 151/151/151 152/152/152
f 122/122/122 152/152/152 123/123/123
f 123/123/123 152/152/152 153/153/153
f 123/123/123 153/153/153 124/124/124
f 124/124/124 153/153/153 154/154/154
f 124/124/124 154/154/154 125/125/125
f 125/125/125 154/154/154 155/155/155
f 125/125/125 155/155/155 126/126/126
f 126/126/126 155/155/155 156/156/156
f 126/126/126 156/156/156 127/127/127
f 127/127/127 156/156/156 157/157/157
f 127/127/127 157/157/157 128/128/128
f 128/128/128 157/157/157 158/158/158
f 128/128/128 158/158/158 129/129/129
f 129/129/129 158/158/158 159/159/159
f 129/129/129 159/159/159 130/130/130
f 130/130/130 159/159/159 160/160/160
f 130/130/130 160/160/160 131/131/131
f 131/131/131 160/160/160 161/161/161
f 131/131/131 161/161/161 132/132/132
f 132/132/132 161/161/161 162/162/162
f 132/132/132 162/162/162 133/133/133
f 133/133/133 162/162/162 163/163/163
f 133/133/133 163/163/163 134/134/134
f 134/134/134 163/163/163 164/164/164
f 134/134/134 164/164/164 135/135/135
f 135/135/135 164/164/164 165/165/165
f 135/135/135 165/165/165 136/136/136
f 136/136/136 165/165/165 166/166/166
f 136/136/136 166/166/166 137/137/137
f 137/137/137 166/166/166 167/167/167
f 137/137/137 167/167/167 138/138/138
f 138/138/138 167/167/167 168/168/168
f 138/138/138 168/168/168 139/139/139
f 139/139/139 168/168/168 169/169/169
f 139/139/139 169/169/169 140/140/140
f 140/140/140 169/169/169 170/170/170
f 140/140/140 170/170/170 141/141/141
f 141/141/141 170/170/170 171/171/171
f 141/141/141 171/171/171 142/142/142
f 142/142/142 171/171/171 172/172/172
f 142/142/142 172/172/172 143/143/143
f 143/143/143 172/172/172 173/173/173
f 143/143/143 173/173/173 144/144/144
f 144/144/144 173/173/173 174/174/174
f 144/144/144 174/174/174 145/145/145
f 146/146/146 175/175/175 176/176/176
f 146/146/146 176/176/176 147/147/147
f 147/147/147 176/176/176 177/177/177
f 147/147/147 177/177/177 148/148/148
f 148/148/148 177/177/177 178/178/178
f 148/148/148 178/178/178 149/149/149
f 149/149/149 178/178/178 179/179/179
f 149/149/149 179/179/179 150/150/150
f 150/150/150 179/179/179 180/180/180
f 150/150/150 180/180/180 151/151/151
f 151/151/151 180/180/180 181/181/181
f 151/151/151 181/181/181 152/152/152
f 152/152/152 181/181/181 182/182/182
f 152/152/152 182/182/182 153/153/153
f 153/153/153 182/182/182 183/183/183
f 153/153/153 183/183/183 154/154/154
f 154/154/154 183/183/183 184/184/184
f 154/154/154 184/184/184 155/155/155
f 155/155/155 184/184/184 185/185/185
f 155/155/155 185/185/185 156/156/156
f 156/156/156 185/185/185 186/186/186
f 156/156/156 186/186/186 157/157/157
f 157/157/157 186/186/186 187/187/187
f 157/157/157 187/187/187 158/158/158
f 158/158/158 187/187/187 188/188/188
f 158/158/158 188/188/188 159/159/159
f 159/159/159 188/188/188 189/189/189
f 159/159/159 189/189/189 160/160/160
f 160/160/160 189/189/189 190/190/190
f 160/160/160 190/190/190 161/161/161
f 161/161/161 190/190/190 191/191/191
f 161/161/161 191/191/191 162/162/162
f 162/162/162 191/191/191 192/192/192
f 162/162/162 192/192/192 163/163/163
f 163/163/163 192/192/192 193/193/193
f 163/163/163 193/193/193 164/164/164
f 164/164/164 193/193/193 194/194/194
f 164/164/164 194/194/194 165/165/165
f 165/165/165 194/194/194 195/195/195
f 165/165/165 195/195/195 166/166/166
f 166/166/166 195/195/195 196/196/196
f 166/166/166 196/196/196 167/167/167
f 167/167/167 196/196/196 197/197/197
f 167/167/167 197/197/197 168/168/168
f 168/168/168 197/197/197 198/198/198
f 168/168/168 198/198/198 169/169/169
f 169/169/169 198/198/198 199/199/199
f 169/169/169 199/199/199 170/170/170
f 170/170/170 199/199/199 200/200/200
f 170/170/170 200/200/200 171/171/171
f 171/171/171 200/200/200 201/201/201
f 171/171/171 201/201/201 172/172/172
f 172/172/172 201/201/201 202/202/202
f 172/172/172 202/202/202 173/173/173
f 173/173/173 202/202/202 203/203/203
f 173/173/173 203/203/203 174/174/174
f 175/175/175 204/204/204 205/205/205
f 175/175/175 205/205/205 176/176/176
f 176/176/176 205/205/205 206/206/206
f 176/176/176 206/206/206 177/177/177
f 177/177/177 206/206/206 207/207/207
f 177/177/177 207/207/207 178/178/178
f 178/178/178 207/207/207 208/208/208
f 178/178/178 208/208/208 179/179/179
f 179/179/179 208/208/208 209/209/209
f 179/179/179 209/209/209 180/180/180
f 180/180/180 209/209/209 210/210/210
f 180/180/180 210/210/210 181/181/181
f 181/181/181 210/210/210 211/211/211
f 181/181/181 211/211/211 182/182/182
f 182/182/182 211/211/211 212/212/212
f 182/182/182 212/212/212 183/183/183
f 183/183/183 212/212/212 213/213/213
f 183/183/183 213/213/213 184/184/184
f 184/184/184 213/213/213 214/214/214
f 184/184/184 214/214/214 185/185/185
f 185/185/185 214/214/214 215/215/215
f 185/185/185 215/215/215 186/186/186
f 186/186/186 215/215/215 216/216/216
f 186/186/186 216/216/216 187/187/187
f 187/187/187 216/216/216 217/217/217
f 187/187/187 217/217/217 188/188/188
f 188/188/188 217/217/217 218/218/218
f 188/188/188 218/218/218 189/189/189
f 189/189/189 218/218/218 219/219/219
f 189/189/189 219/219/219 190/190/190
f 190/190/190 219/219/219 220/220/220
f 190/190/190 220/220/220 191/191/191
f 191/191/191 220/220/220 221/221/221
f 191/191/191 221/221/221 192/192/192
f 192/192/192 221/221/221 222/222/222
f 192/192/192 222/222/222 193/193/193
f 193/193/193 222/222/222 223/223/223
f 193/193/193 223/223/223 194/194/194
f 194/194/194 223/223/223 224/224/224
f 194/194/194 224/224/224 195/195/195
f 195/195/195 224/224/224 225/225/225
f 195/195/195 225/225/225 196/196/196
f 196/196/196 225/225/225 226/226/226
f 196/196/196 226/226/226 197/197/197
f 197/197/197 226/226/226 227/227/227
f 197/197/197 227/227/227 198/198/198
f 198/198/198 227/227/227 228/228/228
f 198/198/198 228/228/228 199/199/199
f 199/199/199 228/228/228 229/229/229
f 199/199/199 229/229/229 200/200/200
f 200/200/200 229/229/229 230/230/230
f 200/200/200 230/230/230 201/201/201
f 201/201/201 230/230/230 231/231/231
f 201/201/201 231/231/231 202/202/202
f 202/202/202 231/231/231 232/232/232
f 202/202/202 232/232/232 203/203/203
f 204/204/204 233/233/233 234/234/234
f 204/204/204 234/234/234 205/205/205
f 205/205/205 234/234/234 235/235/235
f 205/205/205 235/235/235 206/206/206
f 206/206/206 235/235/235 236/236/236
f 206/206/206 236/236/236 207/207/207
f 207/207/207 236/236/236 237/237/237
f 207/207/207 237/237/237 208/208/208
f 208/208/208 237/237/237 238/238/238
f 208/208/208 238/238/238 209/209/209
f 209/209/209 238/238/238 239/239/239
f 209/209/209 239/239/239 210/210/210
f 210/210/210 239/239/239 240/240/240
f 210/210/210 240/240/240 211/211/211
f 211/211/211 240/240/240 241/241/241
f 211/211/211 241/241/241 212/212/212
f 212/212/212 241/241/241 242/242/242
f 212/212/212 242/242/242 213/213/213
f 213/213/213 242/242/242 243/243/243
f 213/213/213 243/243/243 214/214/214
f 214/214/214 243/243/243 244/244/244
f 214/214/214 244/244/244 215/215/215
f 215/215/215 244/244/244 245/245/245
f 215/215/215 245/245/245 216/216/216
f 216/216/216 245/245/245 246/246/246
f 216/216/216 246/246/246 217/217/217
f 217/217/217 246/246/246 247/247/247
f 217/217/217 247/247/247 218/218/218
f 218/218/218 247/247/247 248/248/248
f 218/218/218 248/248/248 219/219/219
f 219/219/219 248/248/248 249/249/249
f 219/219/219 249/249/249 220/220/220
f 220/220/220 249/249/249 250/250/250
f 220/220/220 250/250/250 221/221/221
f 221/221/221 250/250/250 251/251/251
f 221/221/221 251/251/251 222/222/222
f 222/222/222 251/251/251 252/252/252
f 222/222/222 252/252/252 223/223/223
f 223/223/223 252/252/252 253/253/253
f 223/223/223 253/253/253 224/224/224
f 224/224/224 253/253/253 254/254/254
f 224/224/224 254/254/254 225/225/225
f 225/225/225 254/254/254 255/255/255
f 225/225/225 255/255/255 226/226/226
f 226/226/226 255/255/255 256/256/256
f 226/226/226 256/256/256 227/227/227
f 227/227/227 256/256/256 257/257/257
f 227/227/227 257/257/257 228/228/228
f 228/228/228 257/257/257 258/258/258
f 228/228/228 258/258/258 229/229/229
f 229/229/229 258/258/258 259/259/259
f 229/229/229 259/259/259 230/230/230
f 230/230/230 259/259/259 260/260/260
f 230/230/230 260/260/260 231/231/231
f 231/231/231 260/260/260 261/261/261
f 231/231/231 261/261/261 232/232/232
f 233/233/233 262/262/262 263/263/263
f 233/233/233 263/263/263 234/234/234
f 234/234/234 263/263/263 264/264/264
f 234/234/234 264/264/264 235/235/235
f 235/235/235 264/264/264 265/265/265
f 235/235/235 265/265/265 236/236/236
f 236/236/236 265/265/265 266/266/266
f 236/236/236 266/266/266 237/237/237
f 237/237/237 266/266/266 267/267/267
f 237/237/237 267/267/267 238/238/238
f 238/238/238 267/267/267 268/268/268
f 238/238/238 268/268/268 239/239/239
f 239/239/239 268/268/268 269/269/269
f 239/239/239 269/269/269 240/240/240
f 240/240/240 269/269/269 270/270/270
f 240/240/240 270/270/270 241/241/241
f 241/241/241 270/270/270 271/271/271
f 241/241/241 271/271/271 242/242/242
f 242/242/242 271/271/271 272/272/272
f 242/242/242 272/272/272 243/243/243
f 243/243/243 272/272/272 273/273/273
f 243/243/243 273/273/273 244/244/244
f 244/244/244 273/273/273 274/274/274
f 244/244/244 274/274/274 245/245/245
f 245/245/245 274/274/274 275/275/275
f 245/245/245 275/275/275 246/246/246
f 246/246/246 275/275/275 276/276/276
f 246/246/246 276/276/276 247/247/247
f 247/247/247 276/276/276 277/277/277
f 247/247/247 277/277/277 248/248/248
f 248/248/248 277/277/277 278/278/278
f 248/248/248 278/278/278 249/249/249
f 249/249/249 278/278/278 279/279/279
f 249/249/249 279/279/279 250/250/250
f 250/250/250 279/279/279 280/280/280
f 250/250/250 280/280/280 251/251/251
f 251/251/251 280/280/280 281/281/281
f 251/251/251 281/281/281 252/252/252
f 252/252/252 281/281/281 282/282/282
f 252/252/252 282/282/282 253/253/253
f 253/253/253 282/282/282 283/283/283
f 253/253/253 283/283/283 254/254/254
f 254/254/254 283/283/283 284/284/284
f 254/254/254 284/284/284 255/255/255
f 255/255/255 284/284/284 285/285/285
f 255/255/255 285/285/285 256/256/256
f 256/256/256 285/285/285 286/286/286
f 256/256/256 286/286/286 257/257/257
f 257/257/257 286/286/286 287/287/287
f 257/257/257 287/287/287 258/258/258
f 258/258/258 287/287/287 288/288/288
f 258/258/258 288/288/288 259/259/259
f 259/259/259 288/288/288 289/289/289
f 259/259/259 289/289/289 260/260/260
f 260/260/260 289/289/289 290/290/290
f 260/260/260 290/290/290 261/261/261
f 262/262/262 291/291/291 292/292/292
f 262/262/262 292/292/292 263/263/263
f 263/263/263 292/292/292 293/293/293
f 263/263/263 293/293/293 264/264/264
f 264/264/264 293/293/293 294/294/294
f 264/264/264 294/294/294 265/265/265
f 265/265/265 294/294/294 295/295/295
f 265/265/265 295/295/295 266/266/266
f 266/266/266 295/295/295 296/296/296
f 266/266/266 296/296/296 267/267/267
f 267/267/267 296/296/296 297/297/297
f 267/267/267 297/297/297 268/268/268
f 268/268/268 297/297/297 298/298/298
f 268/268/268 298/298/298 269/269/269
f 269/269/269 298/298/298 299/299/299
f 269/269/269 299/299/299 270/270/270
f 270/270/270 299/299/299 300/300/300
f 270/270/270 300/300/300 271/271/271
f 271/271/271 300/300/300 301/301/301
f 271/271/271 301/301/301 272/272/272
f 272/272/272 301/301/301 302/302/302
f 272/272/272 302/302/302 273/273/273
f 273/273/273 302/302/302 303/303/303
f 273/273/273 303/303/303 274/274/274
f 274/274/274 303/303/303 304/304/304
f 274/274/274 304/304/304 275/275/275
f 275/275/275 304/304/304 305/305/305
f 275/275/275 305/305/305 276/276/276
f 276/276/276 305/305/305 306/306/306
f 276/276/276 306/306/306 277/277/277
f 277/277/277 306/306/306 307/307/307
f 277/277/277 307/307/307 278/278/278
f 278/278/278 307/307/307 308/308/308
f 278/278/278 308/308/308 279/279/279
f 279/279/279 308/308/308 309/309/309
f 279/279/279 309/309/309 280/280/280
f 280/280/280 309/309/309 310/310/310
f 280/280/280 310/310/310 281/281/281
f 281/281/281 310/310/310 311/311/311
f 281/281/281 311/311/311 282/282/282
f 282/282/282 311/311/311 312/312/312
f 282/282/282 312/312/312 283/283/283
f 283/283/283 312/312/312 313/313/313
f 283/283/283 313/313/313 284/284/284
f 284/284/284 313/313/313 314/314/314
f 284/284/284 314/314/314 285/285/285
f 285/285/285 314/314/314 315/315/315
f 285/285/285 315/315/315 286/286/286
f 286/286/286 315/315/315 316/316/316
f 286/286/286 316/316/316 287/287/287
f 287/287/287 316/316/316 317/317/317
f 287/287/287 317/317/317 288/288/288
f 288/288/288 317/317/317 318/318/318
f 288/288/288 318/318/318 289/289/289
f 289/289/289 318/318/318 319/319/319
f 289/289/289 319/319/319 290/290/290
f 291/291/291 320/320/320 321/321/321
f 291/291/291 321/321/321 292/292/292
f 292/292/292 321/321/321 322/322/322
f 292/292/292 322/322/322 293/293/293
f 293/293/293 322/322/322 323/323/323
f 293/293/293 323/323/323 294/294/294
f 294/294/294 323/323/323 324/324/324
f 294/294/294 324/324/324 295/295/295
f 295/295/295 324/324/324 325/325/325
f 295/295/295 325/325/325 296/296/296
f 296/296/296 325/325/325 326/326/326
f 296/296/296 326/326/326 297/297/297
f 297/297/297 326/326/326 327/327/327
f 297/297/297 327/327/327 298/298/298
f 298/298/298 327/327/327 328/328/328
f 298/298/298 328/328/328 299/299/299
f 299/299/299 328/328/328 329/329/329
f 299/299/299 329/329/329 300/300/300
f 300/300/300 329/329/329 330/330/330
f 300/300/300 330/330/330 301/301/301
f 301/301/301 330/330/330 331/331/331
f 301/301/301 331/331/331 302/302/302
f 302/302/302 331/331/331 332/332/332
f 302/302/302 332/332/332 303/303/303
f 303/303/303 332/332/332 333/333/333
f 303/303/303 333/333/333 304/304/304
f 304/304/304 333/333/333 334/334/334
f 304/304/304 334/334/334 305/305/305
f 305/305/305 334/334/334 335/335/335
f 305/305/305 335/335/335 306/306/306
f 306/306/306 335/335/335 336/336/336
f 306/306/306 336/336/336 307/307/307
f 307/307/307 336/336/336 337/337/337
f 307/307/307 337/337/337 308/308/308
f 308/308/308 337/337/337 338/338/338
f 308/308/308 338/338/338 309/309/309
f 309/309/309 338/338/338 339/339/339
f 309/309/309 339/339/339 310/310/310
f 310/310/310 339/339/339 340/340/340
f 310/310/310 340/340/340 311/311/311
f 311/311/311 340/340/340 341/341/341
f 311/311/311 341/341/341 312/312/312
f 312/312/312 341/341/341 342/342/342
f 312/312/312 342/342/342 313/313/313
f 313/313/313 342/342/342 343/343/343
f 313/313/313 343/343/343 314/314/314
f 314/314/314 343/343/343 344/344/344
f 314/314/314 344/344/344 315/315/315
f 315/315/315 344/344/344 345/345/345
f 315/315/315 345/345/345 316/316/316
f 316/316/316 345/345/345 346/346/346
f 316/316/316 346/346/346 317/317/317
f 317/317/317 346/346/346 347/347/347
f 317/317/317 347/347/347 318/318/318
f 318/318/318 347/347/347 348/348/348
f 318/318/318 348/348/348 319/319/319
f 320/320/320 349/349/349 350/350/350
f 320/320/320 350/350/350 321/321/321
f 321/321/321 350/350/350 351/351/351
f 321/321/321 351/351/351 322/322/322
f 322/322/322 351/351/351 352/352/352
f 322/322/322 352/352/352 323/323/323
f 323/323/323 352/352/352 353/353/353
f 323/323/323 353/353/353 324/324/324
f 324/324/324 353/353/353 354/354/354
f 324/324/324 354/354/354 325/325/325
f 325/325/325 354/354/354 355/355/355
f 325/325/325 355/355/355 326/326/326
f 326/326/326 355/355/355 356/356/356
f 326/326/326 356/356/356 327/327/327
f 327/327/327 356/356/356 357/357/357
f 327/327/327 357/357/357 328/328/328
f 328/328/328 357/357/357 358/358/358
f 328/328/328 358/358/358 329/329/329
f 329/329/329 358/358/358 359/359/359
f 329/329/329 359/359/359 330/330/330
f 330/330/330 359/359/359 360/360/360
f 330/330/330 360/360/360 331/331/331
f 331/331/331 360/360/360 361/361/361
f 331/331/331 361/361/361 332/332/332
f 332/332/332 361/361/361 362/362/362
f 332/332/332 362/362/362 333/333/333
f 333/333/333 362/362/362 363/363/363
f 333/333/333 363/363/363 334/334/334
f 334/334/334 363/363/363 364/364/364
f 334/334/334 364/364/364 335/335/335
f 335/335/335 364/364/364 365/365/365
f 335/335/335 365/365/365 336/336/336
f 336/336/336 365/365/365 366/366/366
f 336/336/336 366/366/366 337/337/337
f 337/337/337 366/366/366 367/367/367
f 337/337/337 367/367/367 338/338/338
f 338/338/338 367/367/367 368/368/368
f 338/338/338 368/368/368 339/339/339
f 339/339/339 368/368/368 369/369/369
f 339/339/339 369/369/369 340/340/340
f 340/340/340 369/369/369 370/370/370
f 340/340/340 370/370/370 341/341/341
f 341/341/341 370/370/370 371/371/371
f 341/341/341 371/371/371 342/342/342
f 342/342/342 371/371/371 372/372/372
f 342/342/342 372/372/372 343/343/343
f 343/343/343 372/372/372 373/373/373
f 343/343/343 373/373/373 344/344/344
f 344/344/344 373/373/373 374/374/374
f 344/344/344 374/374/374 345/345/345
f 345/345/345 374/374/374 375/375/375
f 345/345/345 375/375/375 346/346/346
f 346/346/346 375/375/375 376/376/376
f 346/346/346 376/376/376 347/347/347
f 347/347/347 376/376/376 377/377/377
f 347/347/347 377/377/377 348/348/348
f 349/349/349 378/378/378 379/379/379
f 349/349/349 379/379/379 350/350/350
f 350/350/350 379/379/379 380/380/380
f 350/350/350 380/380/380 351/351/351
f 351/351/351 380/380/380 381/381/381
f 351/351/351 381/381/381 352/352/352
f 352/352/352 381/381/381 382/382/382
f 352/352/352 382/382/382 353/353/353
f 353/353/353 382/382/382 383/383/383
f 353/353/353 383/383/383 354/354/354
f 354/354/354 383/383/383 384/384/384
f 354/354/354 384/384/384 355/355/355
f 355/355/355 384/384/384 385/385/385
f 355/355/355 385/385/385 356/356/356
f 356/356/356 385/385/385 386/386/386
f 356/356/356 386/386/386 357/357/357
f 357/357/357 386/386/386 387/387/387
f 357/357/357 387/387/387 358/358/358
f 358/358/358 387/387/387 388/388/388
f 358/358/358 388/388/388 359/359/359
f 359/359/359 388/388/388 389/389/389
f 359/359/359 389/389/389 360/360/360
f 360/360/360 389/389/389 390/390/390
f 360/360/360 390/390/390 361/361/361
f 361/361/361 390/390/390 391/391/391
f 361/361/361 391/391/391 362/362/362
f 362/362/362 391/391/391 392/392/392
f 362/362/362 392/392/392 363/363/363
f 363/363/363 392/392/392 393/393/393
f 363/363/363 393/393/393 364/364/364
f 364/364/364 393/393/393 394/394/394
f 364/364/364 394/394/394 365/365/365
f 365/365/365 394/394/394 395/395/395
f 365/365/365 395/395/395 366/366/366
f 366/366/366 395/395/395 396/396/396
f 366/366/366 396/396/396 367/367/367
f 367/367/367 396/396/396 397/397/397
f 367/367/367 397/397/397 368/368/368
f 368/368/368 397/397/397 398/398/398
f 368/368/368 398/398/398 369/369/369
f 369/369/369 398/398/398 399/399/399
f 369/369/369 399/399/399 370/370/370
f 370/370/370 399/399/399 400/400/400
f 370/370/370 400/400/400 371/371/371
f 371/371/371 400/400/400 401/401/401
f 371/371/371 401/401/401 372/372/372
f 372/372/372 401/401/401 402/402/402
f 372/372/372 402/402/402 373/373/373
f 373/373/373 402/402/402 403/403/403
f 373/373/373 403/403/403 374/374/374
f 374/374/374 403/403/403 404/404/404
f 374/374/374 404/404/404 375/375/375
f 375/375/375 404/404/404 405/405/405
f 375/375/375 405/405/405 376/376/376
f 376/376/376 405/405/405 406/406/406
f 376/376/376 406/406/406 377/377/377
f 378/378/378 407/407/407 408/408/408
f 378/378/378 408/408/408 379/379/379
f 379/379/379 408/408/408 409/409/409
f 379/379/379 409/409/409 380/380/380
f 380/380/380 409/409/409 410/410/410
f 380/380/380 410/410/410 381/381/381
f 381/381/381 410/410/410 411/411/411
f 381/381/381 411/411/411 382/382/382
f 382/382/382 411/411/411 412/412/412
f 382/382/382 412/412/412 383/383/383
f 383/383/383 412/412/412 413/413/413
f 383/383/383 413/413/413 384/384/384
f 384/384/384 413/413/413 414/414/414
f 384/384/384 414/414/414 385/385/385
f 385/385/385 414/414/414 415/415/415
f 385/385/385 415/415/415 386/386/386
f 386/386/386 415/415/415 416/416/416
f 386/386/386 416/416/416 387/387/387
f 387/387/387 416/416/416 417/417/417
f 387/387/387 417/417/417 388/388/388
f 388/388/388 417/417/417 418/418/418
f 388/388/388 418/418/418 389/389/389
f 389/389/389 418/418/418 419/419/419
f 389/389/389 419/419/419 390/390/390
f 390/390/390 419/419/419 420/420/420
f 390/390/390 420/420/420 391/391/391
f 391/391/391 420/420/420 421/421/421
f 391/391/391 421/421/421 392/392/392
f 392/392/392 421/421/421 422/422/422
f 392/392/392 422/422/422 393/393/393
f 393/393/393 422/422/422 423/423/423
f 393/393/393 423/423/423 394/394/394
f 394/394/394 423/423/423 424/424/424
f 394/394/394 424/424/424 395/395/395
f 395/395/395 424/424/424 425/425/425
f 395/395/395 425/425/425 396/396/396
f 396/396/396 425/425/425 426/426/426
f 396/396/396 426/426/426 397/397/397
f 397/397/397 426/426/426 427/427/427
f 397/397/397 427/427/427 398/398/398
f 398/398/398 427/427/427 428/428/428
f 398/398/398 428/428/428 399/399/399
f 399/399/399 428/428/428 429/429/429
f 399/399/399 429/429/429 400/400/400
f 400/400/400 429/429/429 430/430/430
f 400/400/400 430/430/430 401/401/401
f 401/401/401 430/430/430 431/431/431
f 401/401/401 431/431/431 402/402/402
f 402/402/402 431/431/431 432/432/432
f 402/402/402 432/432/432 403/403/403
f 403/403/403 432/432/432 433/433/433
f 403/403/403 433/433/433 404/404/404
f 404/404/404 433/433/433 434/434/434
f 404/404/404 434/434/434 405/405/405
f 405/405/405 434/434/434 435/435/435
f 405/405/405 435/435/435 406/406/406
f 407/407/407 436/436/436 437/437/437
f 407/407/407 437/437/437 408/408/408
f 408/408/408 437/437/437 438/438/438
f 408/408/408 438/438/438 409/409/409
f 409/409/409 438/438/438 439/439/439
f 409/409/409 439/439/439 410/410/410
f 410/410/410 439/439/439 440/440/440
f 410/410/410 440/440/440 411/411/411
f 411/411/411 440/440/440 441/441/441
f 411/411/411 441/441/441 412/412/412
f 412/412/412 441/441/441 442/442/442
f 412/412/412 442/442/442 413/413/413
f 413/413/413 442/442/442 443/443/443
f 413/413/413 443/443/443 414/414/414
f 414/414/414 443/443/443 444/444/444
f 414/414/414 444/444/444 415/415/415
f 415/415/415 444/444/444 445/445/445
f 415/415/415 445/445/445 416/416/416
f 416/416/416 445/445/445 446/446/446
f 416/416/416 446/446/446 417/417/417
f 417/417/417 446/446/446 447/447/447
f 417/417/417 447/447/447 418/418/418
f 418/418/418 447/447/447 448/448/448
f 418/418/418 448/448/448 419/419/419
f 419/419/419 448/448/448 449/449/449
f 419/419/419 449/449/449 420/420/420
f 420/420/420 449/449/449 450/450/450
f 420/420/420 450/450/450 421/421/421
f 421/421/421 450/450/450 451/451/451
f 421/421/421 451/451/451 422/422/422
f 422/422/422 451/451/451 452/452/452
f 422/422/422 452/452/452 423/423/423
f 423/423/423 452/452/452 453/453/453
f 423/423/423 453/453/453 424/424/424
f 424/424/424 453/453/453 454/454/454
f 424/424/424 454/454/454 425/425/425
f 425/425/425 454/454/454 455/455/455
f 425/425/425 455/455/455 426/426/426
f 426/426/426 455/455/455 456/456/456
f 426/426/426 456/456/456 427/427/427
f 427/427/427 456/456/456 457/457/457
f 427/427/427 457/457/457 428/428/428
f 428/428/428 457/457/457 458/458/458
f 428/428/428 458/458/458 429/429/429
f 429/429/429 458/458/458 459/459/459
f 429/429/429 459/459/459 430/430/430
f 430/430/430 459/459/459 460/460/460
f 430/430/430 460/460/460 431/431/431
f 431/431/431 460/460/460 461/461/461
f 431/431/431 461/461/461 432/432/432
f 432/432/432 461/461/461 462/462/462
f 432/432/432 462/462/462 433/433/433
f 433/433/433 462/462/462 463/463/463
f 433/433/433 463/463/463 434/434/434
f 434/434/434 463/463/463 464/464/464
f 434/434/434 464/464/464 435/435/435
f 436/436/436 465/465/465 466/466/466
f 436/436/436 466/466/466 437/437/437
f 437/437/437 466/466/466 467/467/467
f 437/437/437 467/467/467 438/438/438
f 438/438/438 467/467/467 468/468/468
f 438/438/438 468/468/468 439/439/439
f 439/439/439 468/468/468 469/469/469
f 439/439/439 469/469/469 440/440/440
f 440/440/440 469/469/469 470/470/470
f 440/440/440 470/470/470 441/441/441
f 441/441/441 470/470/470 471/471/471
f 441/441/441 471/471/471 442/442/442
f 442/442/442 471/471/471 472/472/472
f 442/442/442 472/472/472 443/443/443
f 443/443/443 472/472/472 473/473/473
f 443/443/443 473/473/473 444/444/444
f 444/444/444 473/473/473 474/474/474
f 444/444/444 474/474/474 445/445/445
f 445/445/445 474/474/474 475/475/475
f 445/445/445 475/475/475 446/446/446
f 446/446/446 475/475/475 476/476/476
f 446/446/446 476/476/476 447/447/447
f 447/447/447 476/476/476 477/477/477
f 447/447/447 477/477/477 448/448/448
f 448/448/448 477/477/477 478/478/478
f 448/448/448 478/478/478 449/449/449
f 449/449/449 478/478/478 479/479/479
f 449/449/449 479/479/479 450/450/450
f 450/450/450 479/479/479 480/480/480
f 450/450/450 480/480/480 451/451/451
f 451/451/451 480/480/480 481/481/481
f 451/451/451 481/481/481 452/452/452
f 452/452/452 481/481/481 482/482/482
f 452/452/452 482/482/482 453/453/453
f 453/453/453 482/482/482 483/483/483
f 453/453/453 483/483/483 454/454/454
f 454/454/454 483/483/483 484/484/484
f 454/454/454 484/484/484 455/455/455
f 455/455/455 484/484/484 485/485/485
f 455/455/455 485/485/485 456/456/456
f 456/456/456 485/485/485 486/486/486
f 456/456/456 486/486/486 457/457/457
f 457/457/457 486/486/486 487/487/487
f 457/457/457 487/487/487 458/458/458
f 458/458/458 487/487/487 488/488/488
f 458/458/458 488/488/488 459/459/459
f 459/459/459 488/488/488 489/489/489
f 459/459/459 489/489/489 460/460/460
f 460/460/460 489/489/489 490/490/490
f 460/460/460 490/490/490 461/461/461
f 461/461/461 490/490/490 491/491/491
f 461/461/461 491/491/491 462/462/462
f 462/462/462 491/491/491 492/492/492
f 462/462/462 492/492/492 463/463/463
f 463/463/463 492/492/492 493/493/493
f 463/463/463 493/493/493 464/464/464
f 465/465/465 494/494/494 495/495/495
f 465/465/465 495/495/495 466/466/466
f 466/466/466 495/495/495 496/496/496
f 466/466/466 496/496/496 467/467/467
f 467/467/467 496/496/496 497/497/497
f 467/467/467 497/497/497 468/468/468
f 468/468/468 497/497/497 498/498/498
f 468/468/468 498/498/498 469/469/469
f 469/469/469 498/498/498 499/499/499
f 469/469/469 499/499/499 470/470/470
f 470/470/470 499/499/499 500/500/500
f 470/470/470 500/500/500 471/471/471
f 471/471/471 500/500/500 501/501/501
f 471/471/471 501/501/501 472/472/472
f 472/472/472 501/501/501 502/502/502
f 472/472/472 502/502/502 473/473/473
f 473/473/473 502/502/502 503/503/503
f 473/473/473 503/503/503 474/474/474
f 474/474/474 503/503/503 504/504/504
f 474/474/474 504/504/504 475/475/475
f 475/475/475 504/504/504 505/505/505
f 475/475/475 505/505/505 476/476/476
f 476/476/476 505/505/505 506/506/506
f 476/476/476 506/506/506 477/477/477
f 477/477/477 506/506/506 507/507/507
f 477/477/477 507/507/507 478/478/478
f 478/478/478 507/507/507 508/508/508
f 478/478/478 508/508/508 479/479/479
f 479/479/479 508/508/508 509/509/509
f 479/479/479 509/509/509 480/480/480
f 480/480/480 509/509/509 510/510/510
f 480/480/480 510/510/510 481/481/481
f 481/481/481 510/510/510 511/511/511
f 481/481/481 511/511/511 482/482/482
f 482/482/482 511/511/511 512/512/512
f 482/482/482 512/512/512 483/483/483
f 483/483/483 512/512/512 513/513/513
f 483/483/483 513/513/513 484/484/484
f 484/484/484 513/513/513 514/514/514
f 484/484/484 514/514/514 485/485/485
f 485/485/485 514/514/514 515/515/515
f 485/485/485 515/515/515 486/486/486
f 486/486/486 515/515/515 516/516/516
f 486/486/486 516/516/516 487/487/487
f 487/487/487 516/516/516 517/517/517
f 487/487/487 517/517/517 488/488/488
f 488/488/488 517/517/517 518/518/518
f 488/488/488 518/518/518 489/489/489
f 489/489/489 518/518/518 519/519/519
f 489/489/489 519/519/519 490/490/490
f 490/490/490 519/519/519 520/520/520
f 490/490/490 520/520/520 491/491/491
f 491/491/491 520/520/520 521/521/521
f 491/491/491 521/521/521 492/492/492
f 492/492/492 521/521/521 522/522/522
f 492/492/492 522/522/522 493/493/493
f 494/494/494 523/523/523 524/524/524
f 494/494/494 524/524/524 495/495/495
f 495/495/495 524/524/524 525/525/525
f 495/495/495 525/525/525 496/496/496
f 496/496/496 525/525/525 526/526/526
f 496/496/496 526/526/526 497/497/497
f 497/497/497 526/526/526 527/527/527
f 497/497/497 527/527/527 498/498/498
f 498/498/498 527/527/527 528/528/528
f 498/498/498 528/528/528 499/499/499
f 499/499/499 528/528/528 529/529/529
f 499/499/499 529/529/529 500/500/500
f 500/500/500 529/529/529 530/530/530
f 500/500/500 530/530/530 501/501/501
f 501/501/501 530/530/530 531/531/531
f 501/501/501 531/531/531 502/502/502
f 502/502/502 531/531/531 532/532/532
f 502/502/502 532/532/532 503/503/503
f 503/503/503 532/532/532 533/533/533
f 503/503/503 533/533/533 504/504/504
f 504/504/504 533/533/533 534/534/534
f 504/504/504 534/534/534 505/505/505
f 505/505/505 534/534/534 535/535/535
f 505/505/505 535/535/535 506/506/506
f 506/506/506 535/535/535 536/536/536
f 506/506/506 536/536/536 507/507/507
f 507/507/507 536/536/536 537/537/537
f 507/507/507 537/537/537 508/508/508
f 508/508/508 537/537/537 538/538/538
f 508/508/508 538/538/538 509/509/509
f 509/509/509 538/538/538 539/539/539
f 509/509/509 539/539/539 510/510/510
f 510/510/510 539/539/539 540/540/540
f 510/510/510 540/540/540 511/511/511
f 511/511/511 540/540/540 541/541/541
f 511/511/511 541/541/541 512/512/512
f 512/512/512 541/541/541 542/542/542
f 512/512/512 542/542/542 513/513/513
f 513/513/513 542/542/542 543/543/543
f 513/513/513 543/543/543 514/514/514
f 514/514/514 543/543/543 544/544/544
f 514/514/514 544/544/544 515/515/515
f 515/515/515 544/544/544 545/545/545
f 515/515/515 545/545/545 516/516/516
f 516/516/516 545/545/545 546/546/546
f 516/516/516 546/546/546 517/517/517
f 517/517/517 546/546/546 547/547/547
f 517/517/517 547/547/547 518/518/518
f 518/518/518 547/547/547 548/548/548
f 518/518/518 548/548/548 519/519/519
f 519/519/519 548/548/548 549/549/549
f 519/519/519 549/549/549 520/520/520
f 520/520/520 549/549/549 550/550/550
f 520/520/520 550/550/550 521/521/521
f 521/521/521 550/550/550 551/551/551
f 521/521/521 551/551/551 522/522/522
