# generated by tools/make_gecko_mesh.py -- do not hand-edit
v -0.001269 0.006799 0.001388
v -0.001269 0.006628 0.001521
v -0.001269 0.006125 0.001648
v -0.001269 0.005315 0.001762
v -0.001269 0.004239 0.001857
v -0.001269 0.002950 0.001928
v -0.001269 0.001513 0.001973
v -0.001269 0.000000 0.001988
v -0.001269 -0.001513 0.001973
v -0.001269 -0.002950 0.001928
v -0.001269 -0.004239 0.001857
v -0.001269 -0.005315 0.001762
v -0.001269 -0.006125 0.001648
v -0.001269 -0.006628 0.001521
v -0.001269 -0.006799 0.001388
v -0.001269 -0.006628 0.001254
v -0.001269 -0.006125 0.001128
v -0.001269 -0.005315 0.001014
v -0.001269 -0.004239 0.000919
v -0.001269 -0.002950 0.000847
v -0.001269 -0.001513 0.000803
v -0.001269 -0.000000 0.000788
v -0.001269 0.001513 0.000803
v -0.001269 0.002950 0.000847
v -0.001269 0.004239 0.000919
v -0.001269 0.005315 0.001014
v -0.001269 0.006125 0.001128
v -0.001269 0.006628 0.001254
v -0.001269 0.006799 0.001388
v 0.000662 0.007546 0.001348
v 0.000662 0.007357 0.001481
v 0.000662 0.006799 0.001608
v 0.000662 0.005900 0.001722
v 0.000662 0.004705 0.001817
v 0.000662 0.003274 0.001888
v 0.000662 0.001679 0.001933
v 0.000662 0.000000 0.001948
v 0.000662 -0.001679 0.001933
v 0.000662 -0.003274 0.001888
v 0.000662 -0.004705 0.001817
v 0.000662 -0.005900 0.001722
v 0.000662 -0.006799 0.001608
v 0.000662 -0.007357 0.001481
v 0.000662 -0.007546 0.001348
v 0.000662 -0.007357 0.001214
v 0.000662 -0.006799 0.001087
v 0.000662 -0.005900 0.000974
v 0.000662 -0.004705 0.000879
v 0.000662 -0.003274 0.000807
v 0.000662 -0.001679 0.000763
v 0.000662 -0.000000 0.000748
v 0.000662 0.001679 0.000763
v 0.000662 0.003274 0.000807
v 0.000662 0.004705 0.000879
v 0.000662 0.005900 0.000974
v 0.000662 0.006799 0.001087
v 0.000662 0.007357 0.001214
v 0.000662 0.007546 0.001348
v 0.002594 0.008045 0.001308
v 0.002594 0.007844 0.001441
v 0.002594 0.007249 0.001568
v 0.002594 0.006290 0.001682
v 0.002594 0.005016 0.001777
v 0.002594 0.003491 0.001848
v 0.002594 0.001790 0.001892
v 0.002594 0.000000 0.001908
v 0.002594 -0.001790 0.001892
v 0.002594 -0.003491 0.001848
v 0.002594 -0.005016 0.001777
v 0.002594 -0.006290 0.001682
v 0.002594 -0.007249 0.001568
v 0.002594 -0.007844 0.001441
v 0.002594 -0.008045 0.001308
v 0.002594 -0.007844 0.001174
v 0.002594 -0.007249 0.001047
v 0.002594 -0.006290 0.000933
v 0.002594 -0.005016 0.000838
v 0.002594 -0.003491 0.000767
v 0.002594 -0.001790 0.000723
v 0.002594 -0.000000 0.000708
v 0.002594 0.001790 0.000723
v 0.002594 0.003491 0.000767
v 0.002594 0.005016 0.000838
v 0.002594 0.006290 0.000933
v 0.002594 0.007249 0.001047
v 0.002594 0.007844 0.001174
v 0.002594 0.008045 0.001308
v 0.004525 0.008339 0.001267
v 0.004525 0.008130 0.001401
v 0.004525 0.007513 0.001528
v 0.004525 0.006519 0.001641
v 0.004525 0.005199 0.001736
v 0.004525 0.003618 0.001808
v 0.004525 0.001856 0.001852
v 0.004525 0.000000 0.001867
v 0.004525 -0.001856 0.001852
v 0.004525 -0.003618 0.001808
v 0.004525 -0.005199 0.001736
v 0.004525 -0.006519 0.001641
v 0.004525 -0.007513 0.001528
v 0.004525 -0.008130 0.001401
v 0.004525 -0.008339 0.001267
v 0.004525 -0.008130 0.001134
v 0.004525 -0.007513 0.001007
v 0.004525 -0.006519 0.000893
v 0.004525 -0.005199 0.000798
v 0.004525 -0.003618 0.000727
v 0.004525 -0.001856 0.000682
v 0.004525 -0.000000 0.000667
v 0.004525 0.001856 0.000682
v 0.004525 0.003618 0.000727
v 0.004525 0.005199 0.000798
v 0.004525 0.006519 0.000893
v 0.004525 0.007513 0.001007
v 0.004525 0.008130 0.001134
v 0.004525 0.008339 0.001267
v 0.006456 0.010466 0.001227
v 0.006456 0.010204 0.001361
v 0.006456 0.009430 0.001488
v 0.006456 0.008183 0.001601
v 0.006456 0.006526 0.001696
v 0.006456 0.004541 0.001768
v 0.006456 0.002329 0.001812
v 0.006456 0.000000 0.001827
v 0.006456 -0.002329 0.001812
v 0.006456 -0.004541 0.001768
v 0.006456 -0.006526 0.001696
v 0.006456 -0.008183 0.001601
v 0.006456 -0.009430 0.001488
v 0.006456 -0.010204 0.001361
v 0.006456 -0.010466 0.001227
v 0.006456 -0.010204 0.001094
v 0.006456 -0.009430 0.000967
v 0.006456 -0.008183 0.000853
v 0.006456 -0.006526 0.000758
v 0.006456 -0.004541 0.000687
v 0.006456 -0.002329 0.000642
v 0.006456 -0.000000 0.000627
v 0.006456 0.002329 0.000642
v 0.006456 0.004541 0.000687
v 0.006456 0.006526 0.000758
v 0.006456 0.008183 0.000853
v 0.006456 0.009430 0.000967
v 0.006456 0.010204 0.001094
v 0.006456 0.010466 0.001227
v 0.008387 0.011004 0.001187
v 0.008387 0.010729 0.001321
v 0.008387 0.009915 0.001447
v 0.008387 0.008604 0.001561
v 0.008387 0.006861 0.001656
v 0.008387 0.004775 0.001728
v 0.008387 0.002449 0.001772
v 0.008387 0.000000 0.001787
v 0.008387 -0.002449 0.001772
v 0.008387 -0.004775 0.001728
v 0.008387 -0.006861 0.001656
v 0.008387 -0.008604 0.001561
v 0.008387 -0.009915 0.001447
v 0.008387 -0.010729 0.001321
v 0.008387 -0.011004 0.001187
v 0.008387 -0.010729 0.001054
v 0.008387 -0.009915 0.000927
v 0.008387 -0.008604 0.000813
v 0.008387 -0.006861 0.000718
v 0.008387 -0.004775 0.000646
v 0.008387 -0.002449 0.000602
v 0.008387 -0.000000 0.000587
v 0.008387 0.002449 0.000602
v 0.008387 0.004775 0.000646
v 0.008387 0.006861 0.000718
v 0.008387 0.008604 0.000813
v 0.008387 0.009915 0.000927
v 0.008387 0.010729 0.001054
v 0.008387 0.011004 0.001187
v 0.010319 0.010871 0.001147
v 0.010319 0.010598 0.001280
v 0.010319 0.009794 0.001407
v 0.010319 0.008499 0.001521
v 0.010319 0.006778 0.001616
v 0.010319 0.004717 0.001687
v 0.010319 0.002419 0.001732
v 0.010319 0.000000 0.001747
v 0.010319 -0.002419 0.001732
v 0.010319 -0.004717 0.001687
v 0.010319 -0.006778 0.001616
v 0.010319 -0.008499 0.001521
v 0.010319 -0.009794 0.001407
v 0.010319 -0.010598 0.001280
v 0.010319 -0.010871 0.001147
v 0.010319 -0.010598 0.001013
v 0.010319 -0.009794 0.000887
v 0.010319 -0.008499 0.000773
v 0.010319 -0.006778 0.000678
v 0.010319 -0.004717 0.000606
v 0.010319 -0.002419 0.000562
v 0.010319 -0.000000 0.000547
v 0.010319 0.002419 0.000562
v 0.010319 0.004717 0.000606
v 0.010319 0.006778 0.000678
v 0.010319 0.008499 0.000773
v 0.010319 0.009794 0.000887
v 0.010319 0.010598 0.001013
v 0.010319 0.010871 0.001147
v 0.012250 0.010186 0.001107
v 0.012250 0.009931 0.001240
v 0.012250 0.009177 0.001367
v 0.012250 0.007964 0.001481
v 0.012250 0.006351 0.001576
v 0.012250 0.004420 0.001647
v 0.012250 0.002267 0.001692
v 0.012250 0.000000 0.001707
v 0.012250 -0.002267 0.001692
v 0.012250 -0.004420 0.001647
v 0.012250 -0.006351 0.001576
v 0.012250 -0.007964 0.001481
v 0.012250 -0.009177 0.001367
v 0.012250 -0.009931 0.001240
v 0.012250 -0.010186 0.001107
v 0.012250 -0.009931 0.000973
v 0.012250 -0.009177 0.000846
v 0.012250 -0.007964 0.000733
v 0.012250 -0.006351 0.000638
v 0.012250 -0.004420 0.000566
v 0.012250 -0.002267 0.000522
v 0.012250 -0.000000 0.000507
v 0.012250 0.002267 0.000522
v 0.012250 0.004420 0.000566
v 0.012250 0.006351 0.000638
v 0.012250 0.007964 0.000733
v 0.012250 0.009177 0.000846
v 0.012250 0.009931 0.000973
v 0.012250 0.010186 0.001107
v 0.014181 0.008585 0.001067
v 0.014181 0.008370 0.001200
v 0.014181 0.007735 0.001327
v 0.014181 0.006712 0.001441
v 0.014181 0.005353 0.001536
v 0.014181 0.003725 0.001607
v 0.014181 0.001910 0.001651
v 0.014181 0.000000 0.001667
v 0.014181 -0.001910 0.001651
v 0.014181 -0.003725 0.001607
v 0.014181 -0.005353 0.001536
v 0.014181 -0.006712 0.001441
v 0.014181 -0.007735 0.001327
v 0.014181 -0.008370 0.001200
v 0.014181 -0.008585 0.001067
v 0.014181 -0.008370 0.000933
v 0.014181 -0.007735 0.000806
v 0.014181 -0.006712 0.000692
v 0.014181 -0.005353 0.000597
v 0.014181 -0.003725 0.000526
v 0.014181 -0.001910 0.000482
v 0.014181 -0.000000 0.000467
v 0.014181 0.001910 0.000482
v 0.014181 0.003725 0.000526
v 0.014181 0.005353 0.000597
v 0.014181 0.006712 0.000692
v 0.014181 0.007735 0.000806
v 0.014181 0.008370 0.000933
v 0.014181 0.008585 0.001067
v 0.016113 0.006694 0.001026
v 0.016113 0.006526 0.001160
v 0.016113 0.006031 0.001287
v 0.016113 0.005233 0.001400
v 0.016113 0.004173 0.001495
v 0.016113 0.002904 0.001567
v 0.016113 0.001489 0.001611
v 0.016113 0.000000 0.001626
v 0.016113 -0.001489 0.001611
v 0.016113 -0.002904 0.001567
v 0.016113 -0.004173 0.001495
v 0.016113 -0.005233 0.001400
v 0.016113 -0.006031 0.001287
v 0.016113 -0.006526 0.001160
v 0.016113 -0.006694 0.001026
v 0.016113 -0.006526 0.000893
v 0.016113 -0.006031 0.000766
v 0.016113 -0.005233 0.000652
v 0.016113 -0.004173 0.000557
v 0.016113 -0.002904 0.000486
v 0.016113 -0.001489 0.000441
v 0.016113 -0.000000 0.000426
v 0.016113 0.001489 0.000441
v 0.016113 0.002904 0.000486
v 0.016113 0.004173 0.000557
v 0.016113 0.005233 0.000652
v 0.016113 0.006031 0.000766
v 0.016113 0.006526 0.000893
v 0.016113 0.006694 0.001026
v 0.018044 0.005911 0.000986
v 0.018044 0.005763 0.001120
v 0.018044 0.005326 0.001247
v 0.018044 0.004622 0.001360
v 0.018044 0.003686 0.001455
v 0.018044 0.002565 0.001527
v 0.018044 0.001315 0.001571
v 0.018044 0.000000 0.001586
v 0.018044 -0.001315 0.001571
v 0.018044 -0.002565 0.001527
v 0.018044 -0.003686 0.001455
v 0.018044 -0.004622 0.001360
v 0.018044 -0.005326 0.001247
v 0.018044 -0.005763 0.001120
v 0.018044 -0.005911 0.000986
v 0.018044 -0.005763 0.000853
v 0.018044 -0.005326 0.000726
v 0.018044 -0.004622 0.000612
v 0.018044 -0.003686 0.000517
v 0.018044 -0.002565 0.000446
v 0.018044 -0.001315 0.000401
v 0.018044 -0.000000 0.000386
v 0.018044 0.001315 0.000401
v 0.018044 0.002565 0.000446
v 0.018044 0.003686 0.000517
v 0.018044 0.004622 0.000612
v 0.018044 0.005326 0.000726
v 0.018044 0.005763 0.000853
v 0.018044 0.005911 0.000986
v 0.019975 0.005148 0.000946
v 0.019975 0.005019 0.001080
v 0.019975 0.004638 0.001206
v 0.019975 0.004025 0.001320
v 0.019975 0.003209 0.001415
v 0.019975 0.002233 0.001487
v 0.019975 0.001145 0.001531
v 0.019975 0.000000 0.001546
v 0.019975 -0.001145 0.001531
v 0.019975 -0.002233 0.001487
v 0.019975 -0.003209 0.001415
v 0.019975 -0.004025 0.001320
v 0.019975 -0.004638 0.001206
v 0.019975 -0.005019 0.001080
v 0.019975 -0.005148 0.000946
v 0.019975 -0.005019 0.000813
v 0.019975 -0.004638 0.000686
v 0.019975 -0.004025 0.000572
v 0.019975 -0.003209 0.000477
v 0.019975 -0.002233 0.000405
v 0.019975 -0.001145 0.000361
v 0.019975 -0.000000 0.000346
v 0.019975 0.001145 0.000361
v 0.019975 0.002233 0.000405
v 0.019975 0.003209 0.000477
v 0.019975 0.004025 0.000572
v 0.019975 0.004638 0.000686
v 0.019975 0.005019 0.000813
v 0.019975 0.005148 0.000946
v 0.021906 0.004871 0.000906
v 0.021906 0.004749 0.001039
v 0.021906 0.004389 0.001166
v 0.021906 0.003808 0.001280
v 0.021906 0.003037 0.001375
v 0.021906 0.002114 0.001446
v 0.021906 0.001084 0.001491
v 0.021906 0.000000 0.001506
v 0.021906 -0.001084 0.001491
v 0.021906 -0.002114 0.001446
v 0.021906 -0.003037 0.001375
v 0.021906 -0.003808 0.001280
v 0.021906 -0.004389 0.001166
v 0.021906 -0.004749 0.001039
v 0.021906 -0.004871 0.000906
v 0.021906 -0.004749 0.000772
v 0.021906 -0.004389 0.000646
v 0.021906 -0.003808 0.000532
v 0.021906 -0.003037 0.000437
v 0.021906 -0.002114 0.000365
v 0.021906 -0.001084 0.000321
v 0.021906 -0.000000 0.000306
v 0.021906 0.001084 0.000321
v 0.021906 0.002114 0.000365
v 0.021906 0.003037 0.000437
v 0.021906 0.003808 0.000532
v 0.021906 0.004389 0.000646
v 0.021906 0.004749 0.000772
v 0.021906 0.004871 0.000906
v 0.023837 0.004573 0.000866
v 0.023837 0.004458 0.000999
v 0.023837 0.004120 0.001126
v 0.023837 0.003575 0.001240
v 0.023837 0.002851 0.001335
v 0.023837 0.001984 0.001406
v 0.023837 0.001018 0.001451
v 0.023837 0.000000 0.001466
v 0.023837 -0.001018 0.001451
v 0.023837 -0.001984 0.001406
v 0.023837 -0.002851 0.001335
v 0.023837 -0.003575 0.001240
v 0.023837 -0.004120 0.001126
v 0.023837 -0.004458 0.000999
v 0.023837 -0.004573 0.000866
v 0.023837 -0.004458 0.000732
v 0.023837 -0.004120 0.000605
v 0.023837 -0.003575 0.000492
v 0.023837 -0.002851 0.000397
v 0.023837 -0.001984 0.000325
v 0.023837 -0.001018 0.000281
v 0.023837 -0.000000 0.000266
v 0.023837 0.001018 0.000281
v 0.023837 0.001984 0.000325
v 0.023837 0.002851 0.000397
v 0.023837 0.003575 0.000492
v 0.023837 0.004120 0.000605
v 0.023837 0.004458 0.000732
v 0.023837 0.004573 0.000866
v 0.025769 0.002203 0.000826
v 0.025769 0.002148 0.000959
v 0.025769 0.001985 0.001086
v 0.025769 0.001722 0.001200
v 0.025769 0.001374 0.001295
v 0.025769 0.000956 0.001366
v 0.025769 0.000490 0.001411
v 0.025769 0.000000 0.001426
v 0.025769 -0.000490 0.001411
v 0.025769 -0.000956 0.001366
v 0.025769 -0.001374 0.001295
v 0.025769 -0.001722 0.001200
v 0.025769 -0.001985 0.001086
v 0.025769 -0.002148 0.000959
v 0.025769 -0.002203 0.000826
v 0.025769 -0.002148 0.000692
v 0.025769 -0.001985 0.000565
v 0.025769 -0.001722 0.000451
v 0.025769 -0.001374 0.000356
v 0.025769 -0.000956 0.000285
v 0.025769 -0.000490 0.000241
v 0.025769 -0.000000 0.000226
v 0.025769 0.000490 0.000241
v 0.025769 0.000956 0.000285
v 0.025769 0.001374 0.000356
v 0.025769 0.001722 0.000451
v 0.025769 0.001985 0.000565
v 0.025769 0.002148 0.000692
v 0.025769 0.002203 0.000826
v 0.027700 0.000324 0.000196
v 0.027700 0.000316 0.000330
v 0.027700 0.000292 0.000457
v 0.027700 0.000254 0.000570
v 0.027700 0.000202 0.000665
v 0.027700 0.000141 0.000737
v 0.027700 0.000072 0.000781
v 0.027700 0.000000 0.000796
v 0.027700 -0.000072 0.000781
v 0.027700 -0.000141 0.000737
v 0.027700 -0.000202 0.000665
v 0.027700 -0.000254 0.000570
v 0.027700 -0.000292 0.000457
v 0.027700 -0.000316 0.000330
v 0.027700 -0.000324 0.000196
v 0.027700 -0.000316 0.000063
v 0.027700 -0.000292 -0.000064
v 0.027700 -0.000254 -0.000178
v 0.027700 -0.000202 -0.000273
v 0.027700 -0.000141 -0.000344
v 0.027700 -0.000072 -0.000389
v 0.027700 -0.000000 -0.000404
v 0.027700 0.000072 -0.000389
v 0.027700 0.000141 -0.000344
v 0.027700 0.000202 -0.000273
v 0.027700 0.000254 -0.000178
v 0.027700 0.000292 -0.000064
v 0.027700 0.000316 0.000063
v 0.027700 0.000324 0.000196
vt 0.00000 0.00000
vt 0.03571 0.00000
vt 0.07143 0.00000
vt 0.10714 0.00000
vt 0.14286 0.00000
vt 0.17857 0.00000
vt 0.21429 0.00000
vt 0.25000 0.00000
vt 0.28571 0.00000
vt 0.32143 0.00000
vt 0.35714 0.00000
vt 0.39286 0.00000
vt 0.42857 0.00000
vt 0.46429 0.00000
vt 0.50000 0.00000
vt 0.53571 0.00000
vt 0.57143 0.00000
vt 0.60714 0.00000
vt 0.64286 0.00000
vt 0.67857 0.00000
vt 0.71429 0.00000
vt 0.75000 0.00000
vt 0.78571 0.00000
vt 0.82143 0.00000
vt 0.85714 0.00000
vt 0.89286 0.00000
vt 0.92857 0.00000
vt 0.96429 0.00000
vt 1.00000 0.00000
vt 0.00000 0.12500
vt 0.03571 0.12500
vt 0.07143 0.12500
vt 0.10714 0.12500
vt 0.14286 0.12500
vt 0.17857 0.12500
vt 0.21429 0.12500
vt 0.25000 0.12500
vt 0.28571 0.12500
vt 0.32143 0.12500
vt 0.35714 0.12500
vt 0.39286 0.12500
vt 0.42857 0.12500
vt 0.46429 0.12500
vt 0.50000 0.12500
vt 0.53571 0.12500
vt 0.57143 0.12500
vt 0.60714 0.12500
vt 0.64286 0.12500
vt 0.67857 0.12500
vt 0.71429 0.12500
vt 0.75000 0.12500
vt 0.78571 0.12500
vt 0.82143 0.12500
vt 0.85714 0.12500
vt 0.89286 0.12500
vt 0.92857 0.12500
vt 0.96429 0.12500
vt 1.00000 0.12500
vt 0.00000 0.25000
vt 0.03571 0.25000
vt 0.07143 0.25000
vt 0.10714 0.25000
vt 0.14286 0.25000
vt 0.17857 0.25000
vt 0.21429 0.25000
vt 0.25000 0.25000
vt 0.28571 0.25000
vt 0.32143 0.25000
vt 0.35714 0.25000
vt 0.39286 0.25000
vt 0.42857 0.25000
vt 0.46429 0.25000
vt 0.50000 0.25000
vt 0.53571 0.25000
vt 0.57143 0.25000
vt 0.60714 0.25000
vt 0.64286 0.25000
vt 0.67857 0.25000
vt 0.71429 0.25000
vt 0.75000 0.25000
vt 0.78571 0.25000
vt 0.82143 0.25000
vt 0.85714 0.25000
vt 0.89286 0.25000
vt 0.92857 0.25000
vt 0.96429 0.25000
vt 1.00000 0.25000
vt 0.00000 0.37500
vt 0.03571 0.37500
vt 0.07143 0.37500
vt 0.10714 0.37500
vt 0.14286 0.37500
vt 0.17857 0.37500
vt 0.21429 0.37500
vt 0.25000 0.37500
vt 0.28571 0.37500
vt 0.32143 0.37500
vt 0.35714 0.37500
vt 0.39286 0.37500
vt 0.42857 0.37500
vt 0.46429 0.37500
vt 0.50000 0.37500
vt 0.53571 0.37500
vt 0.57143 0.37500
vt 0.60714 0.37500
vt 0.64286 0.37500
vt 0.67857 0.37500
vt 0.71429 0.37500
vt 0.75000 0.37500
vt 0.78571 0.37500
vt 0.82143 0.37500
vt 0.85714 0.37500
vt 0.89286 0.37500
vt 0.92857 0.37500
vt 0.96429 0.37500
vt 1.00000 0.37500
vt 0.00000 0.50000
vt 0.03571 0.50000
vt 0.07143 0.50000
vt 0.10714 0.50000
vt 0.14286 0.50000
vt 0.17857 0.50000
vt 0.21429 0.50000
vt 0.25000 0.50000
vt 0.28571 0.50000
vt 0.32143 0.50000
vt 0.35714 0.50000
vt 0.39286 0.50000
vt 0.42857 0.50000
vt 0.46429 0.50000
vt 0.50000 0.50000
vt 0.53571 0.50000
vt 0.57143 0.50000
vt 0.60714 0.50000
vt 0.64286 0.50000
vt 0.67857 0.50000
vt 0.71429 0.50000
vt 0.75000 0.50000
vt 0.78571 0.50000
vt 0.82143 0.50000
vt 0.85714 0.50000
vt 0.89286 0.50000
vt 0.92857 0.50000
vt 0.96429 0.50000
vt 1.00000 0.50000
vt 0.00000 0.62500
vt 0.03571 0.62500
vt 0.07143 0.62500
vt 0.10714 0.62500
vt 0.14286 0.62500
vt 0.17857 0.62500
vt 0.21429 0.62500
vt 0.25000 0.62500
vt 0.28571 0.62500
vt 0.32143 0.62500
vt 0.35714 0.62500
vt 0.39286 0.62500
vt 0.42857 0.62500
vt 0.46429 0.62500
vt 0.50000 0.62500
vt 0.53571 0.62500
vt 0.57143 0.62500
vt 0.60714 0.62500
vt 0.64286 0.62500
vt 0.67857 0.62500
vt 0.71429 0.62500
vt 0.75000 0.62500
vt 0.78571 0.62500
vt 0.82143 0.62500
vt 0.85714 0.62500
vt 0.89286 0.62500
vt 0.92857 0.62500
vt 0.96429 0.62500
vt 1.00000 0.62500
vt 0.00000 0.75000
vt 0.03571 0.75000
vt 0.07143 0.75000
vt 0.10714 0.75000
vt 0.14286 0.75000
vt 0.17857 0.75000
vt 0.21429 0.75000
vt 0.25000 0.75000
vt 0.28571 0.75000
vt 0.32143 0.75000
vt 0.35714 0.75000
vt 0.39286 0.75000
vt 0.42857 0.75000
vt 0.46429 0.75000
vt 0.50000 0.75000
vt 0.53571 0.75000
vt 0.57143 0.75000
vt 0.60714 0.75000
vt 0.64286 0.75000
vt 0.67857 0.75000
vt 0.71429 0.75000
vt 0.75000 0.75000
vt 0.78571 0.75000
vt 0.82143 0.75000
vt 0.85714 0.75000
vt 0.89286 0.75000
vt 0.92857 0.75000
vt 0.96429 0.75000
vt 1.00000 0.75000
vt 0.00000 0.87500
vt 0.03571 0.87500
vt 0.07143 0.87500
vt 0.10714 0.87500
vt 0.14286 0.87500
vt 0.17857 0.87500
vt 0.21429 0.87500
vt 0.25000 0.87500
vt 0.28571 0.87500
vt 0.32143 0.87500
vt 0.35714 0.87500
vt 0.39286 0.87500
vt 0.42857 0.87500
vt 0.46429 0.87500
vt 0.50000 0.87500
vt 0.53571 0.87500
vt 0.57143 0.87500
vt 0.60714 0.87500
vt 0.64286 0.87500
vt 0.67857 0.87500
vt 0.71429 0.87500
vt 0.75000 0.87500
vt 0.78571 0.87500
vt 0.82143 0.87500
vt 0.85714 0.87500
vt 0.89286 0.87500
vt 0.92857 0.87500
vt 0.96429 0.87500
vt 1.00000 0.87500
vt 0.00000 1.00000
vt 0.03571 1.00000
vt 0.07143 1.00000
vt 0.10714 1.00000
vt 0.14286 1.00000
vt 0.17857 1.00000
vt 0.21429 1.00000
vt 0.25000 1.00000
vt 0.28571 1.00000
vt 0.32143 1.00000
vt 0.35714 1.00000
vt 0.39286 1.00000
vt 0.42857 1.00000
vt 0.46429 1.00000
vt 0.50000 1.00000
vt 0.53571 1.00000
vt 0.57143 1.00000
vt 0.60714 1.00000
vt 0.64286 1.00000
vt 0.67857 1.00000
vt 0.71429 1.00000
vt 0.75000 1.00000
vt 0.78571 1.00000
vt 0.82143 1.00000
vt 0.85714 1.00000
vt 0.89286 1.00000
vt 0.92857 1.00000
vt 0.96429 1.00000
vt 1.00000 1.00000
vt 0.00000 1.12500
vt 0.03571 1.12500
vt 0.07143 1.12500
vt 0.10714 1.12500
vt 0.14286 1.12500
vt 0.17857 1.12500
vt 0.21429 1.12500
vt 0.25000 1.12500
vt 0.28571 1.12500
vt 0.32143 1.12500
vt 0.35714 1.12500
vt 0.39286 1.12500
vt 0.42857 1.12500
vt 0.46429 1.12500
vt 0.50000 1.12500
vt 0.53571 1.12500
vt 0.57143 1.12500
vt 0.60714 1.12500
vt 0.64286 1.12500
vt 0.67857 1.12500
vt 0.71429 1.12500
vt 0.75000 1.12500
vt 0.78571 1.12500
vt 0.82143 1.12500
vt 0.85714 1.12500
vt 0.89286 1.12500
vt 0.92857 1.12500
vt 0.96429 1.12500
vt 1.00000 1.12500
vt 0.00000 1.25000
vt 0.03571 1.25000
vt 0.07143 1.25000
vt 0.10714 1.25000
vt 0.14286 1.25000
vt 0.17857 1.25000
vt 0.21429 1.25000
vt 0.25000 1.25000
vt 0.28571 1.25000
vt 0.32143 1.25000
vt 0.35714 1.25000
vt 0.39286 1.25000
vt 0.42857 1.25000
vt 0.46429 1.25000
vt 0.50000 1.25000
vt 0.53571 1.25000
vt 0.57143 1.25000
vt 0.60714 1.25000
vt 0.64286 1.25000
vt 0.67857 1.25000
vt 0.71429 1.25000
vt 0.75000 1.25000
vt 0.78571 1.25000
vt 0.82143 1.25000
vt 0.85714 1.25000
vt 0.89286 1.25000
vt 0.92857 1.25000
vt 0.96429 1.25000
vt 1.00000 1.25000
vt 0.00000 1.37500
vt 0.03571 1.37500
vt 0.07143 1.37500
vt 0.10714 1.37500
vt 0.14286 1.37500
vt 0.17857 1.37500
vt 0.21429 1.37500
vt 0.25000 1.37500
vt 0.28571 1.37500
vt 0.32143 1.37500
vt 0.35714 1.37500
vt 0.39286 1.37500
vt 0.42857 1.37500
vt 0.46429 1.37500
vt 0.50000 1.37500
vt 0.53571 1.37500
vt 0.57143 1.37500
vt 0.60714 1.37500
vt 0.64286 1.37500
vt 0.67857 1.37500
vt 0.71429 1.37500
vt 0.75000 1.37500
vt 0.78571 1.37500
vt 0.82143 1.37500
vt 0.85714 1.37500
vt 0.89286 1.37500
vt 0.92857 1.37500
vt 0.96429 1.37500
vt 1.00000 1.37500
vt 0.00000 1.50000
vt 0.03571 1.50000
vt 0.07143 1.50000
vt 0.10714 1.50000
vt 0.14286 1.50000
vt 0.17857 1.50000
vt 0.21429 1.50000
vt 0.25000 1.50000
vt 0.28571 1.50000
vt 0.32143 1.50000
vt 0.35714 1.50000
vt 0.39286 1.50000
vt 0.42857 1.50000
vt 0.46429 1.50000
vt 0.50000 1.50000
vt 0.53571 1.50000
vt 0.57143 1.50000
vt 0.60714 1.50000
vt 0.64286 1.50000
vt 0.67857 1.50000
vt 0.71429 1.50000
vt 0.75000 1.50000
vt 0.78571 1.50000
vt 0.82143 1.50000
vt 0.85714 1.50000
vt 0.89286 1.50000
vt 0.92857 1.50000
vt 0.96429 1.50000
vt 1.00000 1.50000
vt 0.00000 1.62500
vt 0.03571 1.62500
vt 0.07143 1.62500
vt 0.10714 1.62500
vt 0.14286 1.62500
vt 0.17857 1.62500
vt 0.21429 1.62500
vt 0.25000 1.62500
vt 0.28571 1.62500
vt 0.32143 1.62500
vt 0.35714 1.62500
vt 0.39286 1.62500
vt 0.42857 1.62500
vt 0.46429 1.62500
vt 0.50000 1.62500
vt 0.53571 1.62500
vt 0.57143 1.62500
vt 0.60714 1.62500
vt 0.64286 1.62500
vt 0.67857 1.62500
vt 0.71429 1.62500
vt 0.75000 1.62500
vt 0.78571 1.62500
vt 0.82143 1.62500
vt 0.85714 1.62500
vt 0.89286 1.62500
vt 0.92857 1.62500
vt 0.96429 1.62500
vt 1.00000 1.62500
vt 0.00000 1.75000
vt 0.03571 1.75000
vt 0.07143 1.75000
vt 0.10714 1.75000
vt 0.14286 1.75000
vt 0.17857 1.75000
vt 0.21429 1.75000
vt 0.25000 1.75000
vt 0.28571 1.75000
vt 0.32143 1.75000
vt 0.35714 1.75000
vt 0.39286 1.75000
vt 0.42857 1.75000
vt 0.46429 1.75000
vt 0.50000 1.75000
vt 0.53571 1.75000
vt 0.57143 1.75000
vt 0.60714 1.75000
vt 0.64286 1.75000
vt 0.67857 1.75000
vt 0.71429 1.75000
vt 0.75000 1.75000
vt 0.78571 1.75000
vt 0.82143 1.75000
vt 0.85714 1.75000
vt 0.89286 1.75000
vt 0.92857 1.75000
vt 0.96429 1.75000
vt 1.00000 1.75000
vt 0.00000 1.87500
vt 0.03571 1.87500
vt 0.07143 1.87500
vt 0.10714 1.87500
vt 0.14286 1.87500
vt 0.17857 1.87500
vt 0.21429 1.87500
vt 0.25000 1.87500
vt 0.28571 1.87500
vt 0.32143 1.87500
vt 0.35714 1.87500
vt 0.39286 1.87500
vt 0.42857 1.87500
vt 0.46429 1.87500
vt 0.50000 1.87500
vt 0.53571 1.87500
vt 0.57143 1.87500
vt 0.60714 1.87500
vt 0.64286 1.87500
vt 0.67857 1.87500
vt 0.71429 1.87500
vt 0.75000 1.87500
vt 0.78571 1.87500
vt 0.82143 1.87500
vt 0.85714 1.87500
vt 0.89286 1.87500
vt 0.92857 1.87500
vt 0.96429 1.87500
vt 1.00000 1.87500
vn -0.32034 0.85655 0.40460
vn -0.09016 0.29871 0.95008
vn -0.03227 0.15811 0.98689
vn -0.00711 0.09811 0.99515
vn 0.00704 0.06256 0.99802
vn 0.01540 0.03705 0.99919
vn 0.01968 0.01608 0.99968
vn 0.02052 -0.00320 0.99978
vn 0.01802 -0.02283 0.99958
vn 0.01195 -0.04502 0.99891
vn 0.00143 -0.07325 0.99731
vn -0.01602 -0.11501 0.99324
vn -0.04864 -0.19247 0.98010
vn -0.13786 -0.41142 0.90096
vn -0.33532 -0.85185 -0.40238
vn -0.12911 -0.29742 -0.94598
vn -0.07316 -0.15777 -0.98476
vn -0.04845 -0.09799 -0.99401
vn -0.03445 -0.06252 -0.99745
vn -0.02616 -0.03704 -0.99897
vn -0.02189 -0.01608 -0.99963
vn -0.02107 0.00320 -0.99977
vn -0.02355 0.02283 -0.99946
vn -0.02958 0.04500 -0.99855
vn -0.04002 0.07319 -0.99652
vn -0.05724 0.11483 -0.99173
vn -0.08915 0.19193 -0.97735
vn -0.17432 0.40903 -0.89572
vn -0.32034 0.85655 0.40460
vn -0.30397 0.95196 0.03715
vn -0.08256 0.32549 0.94193
vn -0.02701 0.16269 0.98631
vn -0.00475 0.09937 0.99504
vn 0.00756 0.06347 0.99796
vn 0.01500 0.03841 0.99915
vn 0.01915 0.01823 0.99965
vn 0.02058 0.00000 0.99979
vn 0.01940 -0.01825 0.99965
vn 0.01548 -0.03853 0.99914
vn 0.00821 -0.06378 0.99793
vn -0.00406 -0.10014 0.99497
vn -0.02660 -0.16476 0.98598
vn -0.08407 -0.33347 0.93900
vn -0.30537 -0.95151 -0.03713
vn -0.12125 -0.32420 -0.93819
vn -0.06790 -0.16237 -0.98439
vn -0.04609 -0.09926 -0.99399
vn -0.03392 -0.06343 -0.99741
vn -0.02655 -0.03840 -0.99891
vn -0.02242 -0.01823 -0.99958
vn -0.02101 -0.00000 -0.99978
vn -0.02217 0.01825 -0.99959
vn -0.02607 0.03852 -0.99892
vn -0.03328 0.06375 -0.99741
vn -0.04540 0.10004 -0.99395
vn -0.06748 0.16444 -0.98408
vn -0.12263 0.33213 -0.93523
vn -0.30397 0.95196 0.03715
vn -0.19886 0.97973 0.02430
vn -0.04203 0.30923 0.95006
vn -0.00797 0.15309 0.98818
vn 0.00544 0.09329 0.99562
vn 0.01283 0.05953 0.99814
vn 0.01729 0.03601 0.99920
vn 0.01979 0.01708 0.99966
vn 0.02066 -0.00000 0.99979
vn 0.01999 -0.01710 0.99965
vn 0.01767 -0.03607 0.99919
vn 0.01336 -0.05970 0.99813
vn 0.00606 -0.09372 0.99558
vn -0.00739 -0.15425 0.98800
vn -0.04214 -0.31381 0.94855
vn -0.19983 -0.97953 -0.02430
vn -0.08134 -0.30848 -0.94775
vn -0.04901 -0.15291 -0.98702
vn -0.03595 -0.09323 -0.99500
vn -0.02868 -0.05951 -0.99782
vn -0.02426 -0.03600 -0.99906
vn -0.02179 -0.01708 -0.99962
vn -0.02092 0.00000 -0.99978
vn -0.02159 0.01710 -0.99962
vn -0.02388 0.03607 -0.99906
vn -0.02815 0.05969 -0.99782
vn -0.03533 0.09366 -0.99498
vn -0.04843 0.15408 -0.98687
vn -0.08140 0.31305 -0.94624
vn -0.19886 0.97973 0.02430
vn -0.52581 0.84817 0.06426
vn -0.14781 0.28180 0.94802
vn -0.05529 0.14093 0.98847
vn -0.01853 0.08613 0.99611
vn 0.00142 0.05504 0.99848
vn 0.01305 0.03332 0.99936
vn 0.01906 0.01582 0.99969
vn 0.02043 0.00000 0.99979
vn 0.01743 -0.01586 0.99972
vn 0.00984 -0.03349 0.99939
vn -0.00331 -0.05550 0.99845
vn -0.02478 -0.08725 0.99588
vn -0.06349 -0.14391 0.98755
vn -0.16163 -0.29330 0.94226
vn -0.52774 -0.84698 -0.06417
vn -0.18602 -0.27996 -0.94182
vn -0.09611 -0.14049 -0.98541
vn -0.05987 -0.08599 -0.99450
vn -0.04008 -0.05499 -0.99768
vn -0.02851 -0.03331 -0.99904
vn -0.02252 -0.01582 -0.99962
vn -0.02115 0.00000 -0.99978
vn -0.02415 0.01585 -0.99958
vn -0.03172 0.03347 -0.99894
vn -0.04479 0.05544 -0.99746
vn -0.06607 0.08709 -0.99401
vn -0.10420 0.14341 -0.98416
vn -0.19941 0.29124 -0.93564
vn -0.52581 0.84817 0.06426
vn -0.56248 0.82395 0.06875
vn -0.14408 0.24205 0.95951
vn -0.05580 0.11984 0.99122
vn -0.02066 0.07309 0.99711
vn -0.00107 0.04667 0.99891
vn 0.01093 0.02824 0.99954
vn 0.01782 0.01341 0.99975
vn 0.02045 0.00000 0.99979
vn 0.01901 -0.01344 0.99973
vn 0.01322 -0.02838 0.99951
vn 0.00211 -0.04704 0.99889
vn -0.01697 -0.07399 0.99711
vn -0.05253 -0.12229 0.99110
vn -0.14573 -0.25195 0.95670
vn -0.56443 -0.82262 -0.06863
vn -0.18279 -0.24048 -0.95329
vn -0.09672 -0.11946 -0.98812
vn -0.06203 -0.07296 -0.99540
vn -0.04258 -0.04663 -0.99800
vn -0.03063 -0.02823 -0.99913
vn -0.02376 -0.01340 -0.99963
vn -0.02113 -0.00000 -0.99978
vn -0.02257 0.01343 -0.99966
vn -0.02834 0.02837 -0.99920
vn -0.03940 0.04700 -0.99812
vn -0.05835 0.07388 -0.99556
vn -0.09347 0.12192 -0.98813
vn -0.18431 0.25030 -0.95046
vn -0.56248 0.82395 0.06875
vn -0.10305 0.99460 0.01259
vn -0.00448 0.23392 0.97224
vn 0.00907 0.11347 0.99350
vn 0.01430 0.06884 0.99753
vn 0.01723 0.04385 0.99889
vn 0.01909 0.02650 0.99947
vn 0.02022 0.01257 0.99972
vn 0.02074 -0.00000 0.99978
vn 0.02069 -0.01257 0.99971
vn 0.02001 -0.02652 0.99945
vn 0.01855 -0.04390 0.99886
vn 0.01594 -0.06896 0.99749
vn 0.01094 -0.11380 0.99344
vn -0.00262 -0.23528 0.97192
vn -0.10357 -0.99454 -0.01259
vn -0.04488 -0.23369 -0.97127
vn -0.03223 -0.11342 -0.99302
vn -0.02719 -0.06882 -0.99726
vn -0.02431 -0.04385 -0.99874
vn -0.02248 -0.02650 -0.99940
vn -0.02136 -0.01257 -0.99969
vn -0.02084 0.00000 -0.99978
vn -0.02089 0.01257 -0.99970
vn -0.02156 0.02652 -0.99942
vn -0.02299 0.04390 -0.99877
vn -0.02554 0.06895 -0.99729
vn -0.03037 0.11375 -0.99305
vn -0.04300 0.23506 -0.97103
vn -0.10305 0.99460 0.01259
vn 0.20505 0.97843 -0.02506
vn 0.06804 0.23779 0.96893
vn 0.04167 0.11506 0.99248
vn 0.03156 0.06972 0.99707
vn 0.02611 0.04438 0.99867
vn 0.02293 0.02681 0.99938
vn 0.02128 0.01271 0.99969
vn 0.02089 0.00000 0.99978
vn 0.02167 -0.01270 0.99968
vn 0.02369 -0.02677 0.99936
vn 0.02719 -0.04428 0.99865
vn 0.03289 -0.06947 0.99704
vn 0.04312 -0.11438 0.99250
vn 0.06914 -0.23498 0.96954
vn 0.20605 -0.97822 0.02506
vn 0.02780 -0.23825 -0.97081
vn 0.00039 -0.11516 -0.99335
vn -0.00991 -0.06975 -0.99752
vn -0.01543 -0.04439 -0.99890
vn -0.01863 -0.02681 -0.99947
vn -0.02030 -0.01271 -0.99971
vn -0.02069 -0.00000 -0.99979
vn -0.01990 0.01270 -0.99972
vn -0.01787 0.02677 -0.99948
vn -0.01435 0.04429 -0.99892
vn -0.00858 0.06950 -0.99754
vn 0.00184 0.11449 -0.99342
vn 0.02888 0.23545 -0.97146
vn 0.20505 0.97843 -0.02506
vn 0.50420 0.86139 -0.06162
vn 0.16398 0.25448 0.95307
vn 0.08477 0.12387 0.98867
vn 0.05410 0.07507 0.99571
vn 0.03748 0.04776 0.99816
vn 0.02771 0.02883 0.99920
vn 0.02251 0.01366 0.99965
vn 0.02109 0.00000 0.99978
vn 0.02321 -0.01363 0.99964
vn 0.02904 -0.02872 0.99917
vn 0.03932 -0.04744 0.99810
vn 0.05618 -0.07426 0.99566
vn 0.08642 -0.12170 0.98880
vn 0.16199 -0.24579 0.95569
vn 0.50611 -0.86027 0.06154
vn 0.12506 -0.25594 -0.95857
vn 0.04376 -0.12420 -0.99129
vn 0.01271 -0.07517 -0.99709
vn -0.00403 -0.04780 -0.99885
vn -0.01386 -0.02884 -0.99949
vn -0.01907 -0.01366 -0.99972
vn -0.02050 0.00000 -0.99979
vn -0.01837 0.01363 -0.99974
vn -0.01253 0.02872 -0.99951
vn -0.00220 0.04747 -0.99887
vn 0.01479 0.07437 -0.99712
vn 0.04542 0.12204 -0.99149
vn 0.12294 0.24719 -0.96114
vn 0.50420 0.86139 -0.06162
vn 0.66445 0.74291 -0.08121
vn 0.27390 0.29201 0.91636
vn 0.13748 0.14532 0.97979
vn 0.08245 0.08834 0.99267
vn 0.05222 0.05623 0.99705
vn 0.03420 0.03393 0.99884
vn 0.02438 0.01606 0.99957
vn 0.02132 0.00000 0.99977
vn 0.02463 -0.01601 0.99957
vn 0.03461 -0.03368 0.99883
vn 0.05256 -0.05555 0.99707
vn 0.08218 -0.08667 0.99284
vn 0.13495 -0.14089 0.98078
vn 0.26081 -0.27563 0.92521
vn 0.66633 -0.74124 0.08103
vn 0.23811 -0.29489 -0.92539
vn 0.09719 -0.14601 -0.98450
vn 0.04126 -0.08857 -0.99522
vn 0.01076 -0.05630 -0.99836
vn -0.00735 -0.03395 -0.99940
vn -0.01720 -0.01607 -0.99972
vn -0.02026 -0.00000 -0.99979
vn -0.01695 0.01601 -0.99973
vn -0.00694 0.03370 -0.99941
vn 0.01111 0.05562 -0.99839
vn 0.04099 0.08689 -0.99537
vn 0.09460 0.14156 -0.98540
vn 0.22442 0.27823 -0.93393
vn 0.66445 0.74291 -0.08121
vn 0.56366 0.82313 -0.06889
vn 0.25871 0.35472 0.89847
vn 0.13384 0.17926 0.97466
vn 0.08178 0.10936 0.99063
vn 0.05268 0.06970 0.99618
vn 0.03497 0.04209 0.99850
vn 0.02494 0.01993 0.99949
vn 0.02130 0.00000 0.99977
vn 0.02370 -0.01987 0.99952
vn 0.03247 -0.04180 0.99860
vn 0.04890 -0.06891 0.99642
vn 0.07646 -0.10744 0.99127
vn 0.12590 -0.17426 0.97662
vn 0.24215 -0.33695 0.90985
vn 0.56561 -0.82180 0.06878
vn 0.22336 -0.35794 -0.90664
vn 0.09373 -0.18009 -0.97917
vn 0.04068 -0.10964 -0.99314
vn 0.01126 -0.06980 -0.99750
vn -0.00657 -0.04212 -0.99909
vn -0.01663 -0.01994 -0.99966
vn -0.02029 -0.00000 -0.99979
vn -0.01788 0.01987 -0.99964
vn -0.00907 0.04182 -0.99908
vn 0.00746 0.06899 -0.99759
vn 0.03531 0.10769 -0.99356
vn 0.08565 0.17501 -0.98083
vn 0.20606 0.33983 -0.91764
vn 0.56366 0.82313 -0.06889
vn 0.36772 0.92885 -0.04494
vn 0.17628 0.40710 0.89621
vn 0.09455 0.20724 0.97371
vn 0.06017 0.12673 0.99011
vn 0.04103 0.08089 0.99588
vn 0.02951 0.04889 0.99837
vn 0.02317 0.02317 0.99946
vn 0.02113 -0.00000 0.99978
vn 0.02314 -0.02312 0.99946
vn 0.02942 -0.04866 0.99838
vn 0.04080 -0.08026 0.99594
vn 0.05962 -0.12521 0.99034
vn 0.09305 -0.20326 0.97469
vn 0.17092 -0.39311 0.90346
vn 0.36933 -0.92821 0.04491
vn 0.13983 -0.40951 -0.90152
vn 0.05421 -0.20786 -0.97665
vn 0.01902 -0.12694 -0.99173
vn -0.00040 -0.08095 -0.99672
vn -0.01202 -0.04891 -0.99873
vn -0.01840 -0.02317 -0.99956
vn -0.02045 0.00000 -0.99979
vn -0.01843 0.02312 -0.99956
vn -0.01211 0.04868 -0.99874
vn -0.00062 0.08033 -0.99677
vn 0.01845 0.12541 -0.99193
vn 0.05266 0.20386 -0.97758
vn 0.13411 0.39538 -0.90867
vn 0.36772 0.92885 -0.04494
vn 0.25723 0.96584 -0.03144
vn 0.13715 0.45081 0.88202
vn 0.07768 0.23280 0.96942
vn 0.05179 0.14289 0.98838
vn 0.03710 0.09134 0.99513
vn 0.02809 0.05525 0.99808
vn 0.02295 0.02620 0.99939
vn 0.02105 0.00000 0.99978
vn 0.02223 -0.02615 0.99941
vn 0.02667 -0.05506 0.99813
vn 0.03502 -0.09080 0.99525
vn 0.04905 -0.14160 0.98871
vn 0.07410 -0.22947 0.97049
vn 0.13157 -0.43952 0.88854
vn 0.25845 -0.96551 0.03143
vn 0.10090 -0.45279 -0.88589
vn 0.03745 -0.23334 -0.97167
vn 0.01069 -0.14307 -0.98965
vn -0.00429 -0.09140 -0.99581
vn -0.01343 -0.05527 -0.99838
vn -0.01862 -0.02620 -0.99948
vn -0.02053 0.00000 -0.99979
vn -0.01934 0.02615 -0.99947
vn -0.01484 0.05507 -0.99837
vn -0.00638 0.09086 -0.99584
vn 0.00793 0.14177 -0.98987
vn 0.03381 0.22997 -0.97261
vn 0.09502 0.44137 -0.89228
vn 0.25723 0.96584 -0.03144
vn 0.14565 0.98918 -0.01780
vn 0.08680 0.47699 0.87461
vn 0.05319 0.24870 0.96712
vn 0.03824 0.15306 0.98748
vn 0.02977 0.09796 0.99474
vn 0.02466 0.05930 0.99794
vn 0.02184 0.02813 0.99937
vn 0.02094 0.00000 0.99978
vn 0.02187 -0.02810 0.99937
vn 0.02472 -0.05918 0.99794
vn 0.02984 -0.09762 0.99478
vn 0.03826 -0.15223 0.98760
vn 0.05305 -0.24656 0.96768
vn 0.08599 -0.46990 0.87852
vn 0.14638 -0.98907 0.01780
vn 0.05055 -0.47818 -0.87681
vn 0.01298 -0.24903 -0.96841
vn -0.00284 -0.15317 -0.98820
vn -0.01160 -0.09800 -0.99512
vn -0.01685 -0.05931 -0.99810
vn -0.01973 -0.02813 -0.99941
vn -0.02064 -0.00000 -0.99979
vn -0.01969 0.02810 -0.99941
vn -0.01679 0.05919 -0.99811
vn -0.01154 0.09765 -0.99515
vn -0.00282 0.15234 -0.98832
vn 0.01282 0.24688 -0.96896
vn 0.04958 0.47106 -0.88071
vn 0.14565 0.98918 -0.01780
vn 0.56280 0.82372 -0.06878
vn 0.35240 0.51326 0.78254
vn 0.18790 0.28409 0.94021
vn 0.10895 0.17672 0.97821
vn 0.06438 0.11329 0.99147
vn 0.03817 0.06853 0.99692
vn 0.02465 0.03246 0.99917
vn 0.02161 0.00000 0.99977
vn 0.02836 -0.03228 0.99908
vn 0.04521 -0.06774 0.99668
vn 0.07386 -0.11112 0.99106
vn 0.11903 -0.17150 0.97797
vn 0.19427 -0.27117 0.94272
vn 0.34255 -0.47809 0.80876
vn 0.56475 -0.82240 0.06867
vn 0.32341 -0.51897 -0.79125
vn 0.14978 -0.28598 -0.94646
vn 0.06851 -0.17736 -0.98176
vn 0.02319 -0.11350 -0.99327
vn -0.00329 -0.06858 -0.99764
vn -0.01691 -0.03246 -0.99933
vn -0.01997 -0.00000 -0.99980
vn -0.01320 0.03229 -0.99939
vn 0.00376 0.06780 -0.99769
vn 0.03271 0.11137 -0.99324
vn 0.07867 0.17220 -0.98192
vn 0.15613 0.27304 -0.94925
vn 0.31235 0.48341 -0.81777
vn 0.56280 0.82372 -0.06878
vn 0.73423 0.67298 -0.08948
vn 0.68787 0.58451 0.43033
vn 0.52658 0.43085 0.73286
vn 0.37676 0.30160 0.87584
vn 0.26447 0.20308 0.94277
vn 0.18796 0.12530 0.97415
vn 0.14318 0.05969 0.98789
vn 0.12741 -0.00000 0.99185
vn 0.13935 -0.05878 0.98850
vn 0.17899 -0.12142 0.97633
vn 0.24751 -0.19342 0.94938
vn 0.34729 -0.28213 0.89431
vn 0.48062 -0.39743 0.78170
vn 0.63701 -0.54449 0.54567
vn 0.73403 -0.67319 0.08951
vn 0.61045 -0.63784 -0.46959
vn 0.35911 -0.47300 -0.80455
vn 0.15534 -0.32164 -0.93403
vn 0.02060 -0.21053 -0.97737
vn -0.06289 -0.12732 -0.98987
vn -0.10837 -0.05995 -0.99230
vn -0.12269 0.00000 -0.99244
vn -0.10824 0.05901 -0.99237
vn -0.06388 0.12316 -0.99033
vn 0.01527 0.19961 -0.97976
vn 0.13886 0.29794 -0.94443
vn 0.32093 0.42923 -0.84425
vn 0.55779 0.58625 -0.58752
vn 0.73423 0.67298 -0.08948
vn 0.67351 0.73224 -0.10098
vn 0.70872 0.68875 0.15276
vn 0.68437 0.62137 0.38149
vn 0.61574 0.53194 0.58130
vn 0.52076 0.42073 0.74283
vn 0.42362 0.29314 0.85710
vn 0.34906 0.15811 0.92367
vn 0.31410 0.02250 0.94912
vn 0.32513 -0.11083 0.93915
vn 0.37894 -0.24038 0.89366
vn 0.46333 -0.36266 0.80858
vn 0.55855 -0.47211 0.68201
vn 0.64261 -0.56458 0.51798
vn 0.69721 -0.64020 0.32255
vn 0.70717 -0.70041 0.09659
vn 0.65356 -0.73892 -0.16389
vn 0.51303 -0.73151 -0.44911
vn 0.28798 -0.64649 -0.70648
vn 0.04298 -0.49237 -0.86932
vn -0.14728 -0.32008 -0.93587
vn -0.26047 -0.16290 -0.95164
vn -0.30528 -0.02257 -0.95200
vn -0.29026 0.11216 -0.95035
vn -0.21465 0.25370 -0.94317
vn -0.07153 0.40819 -0.91009
vn 0.13632 0.56385 -0.81455
vn 0.36994 0.68459 -0.62808
vn 0.56196 0.73870 -0.37218
vn 0.67351 0.73224 -0.10098
f 1/1/1 31/31/31 30/30/30
f 1/1/1 2/2/2 31/31/31
f 2/2/2 32/32/32 31/31/31
f 2/2/2 3/3/3 32/32/32
f 3/3/3 33/33/33 32/32/32
f 3/3/3 4/4/4 33/33/33
f 4/4/4 34/34/34 33/33/33
f 4/4/4 5/5/5 34/34/34
f 5/5/5 35/35/35 34/34/34
f 5/5/5 6/6/6 35/35/35
f 6/6/6 36/36/36 35/35/35
f 6/6/6 7/7/7 36/36/36
f 7/7/7 37/37/37 36/36/36
f 7/7/7 8/8/8 37/37/37
f 8/8/8 38/38/38 37/37/37
f 8/8/8 9/9/9 38/38/38
f 9/9/9 39/39/39 38/38/38
f 9/9/9 10/10/10 39/39/39
f 10/10/10 40/40/40 39/39/39
f 10/10/10 11/11/11 40/40/40
f 11/11/11 41/41/41 40/40/40
f 11/11/11 12/12/12 41/41/41
f 12/12/12 42/42/42 41/41/41
f 12/12/12 13/13/13 42/42/42
f 13/13/13 43/43/43 42/42/42
f 13/13/13 14/14/14 43/43/43
f 14/14/14 44/44/44 43/43/43
f 14/14/14 15/15/15 44/44/44
f 15/15/15 45/45/45 44/44/44
f 15/15/15 16/16/16 45/45/45
f 16/16/16 46/46/46 45/45/45
f 16/16/16 17/17/17 46/46/46
f 17/17/17 47/47/47 46/46/46
f 17/17/17 18/18/18 47/47/47
f 18/18/18 48/48/48 47/47/47
f 18/18/18 19/19/19 48/48/48
f 19/19/19 49/49/49 48/48/48
f 19/19/19 20/20/20 49/49/49
f 20/20/20 50/50/50 49/49/49
f 20/20/20 21/21/21 50/50/50
f 21/21/21 51/51/51 50/50/50
f 21/21/21 22/22/22 51/51/51
f 22/22/22 52/52/52 51/51/51
f 22/22/22 23/23/23 52/52/52
f 23/23/23 53/53/53 52/52/52
f 23/23/23 24/24/24 53/53/53
f 24/24/24 54/54/54 53/53/53
f 24/24/24 25/25/25 54/54/54
f 25/25/25 55/55/55 54/54/54
f 25/25/25 26/26/26 55/55/55
f 26/26/26 56/56/56 55/55/55
f 26/26/26 27/27/27 56/56/56
f 27/27/27 57/57/57 56/56/56
f 27/27/27 28/28/28 57/57/57
f 28/28/28 58/58/58 57/57/57
f 28/28/28 29/29/29 58/58/58
f 30/30/30 60/60/60 59/59/59
f 30/30/30 31/31/31 60/60/60
f 31/31/31 61/61/61 60/60/60
f 31/31/31 32/32/32 61/61/61
f 32/32/32 62/62/62 61/61/61
f 32/32/32 33/33/33 62/62/62
f 33/33/33 63/63/63 62/62/62
f 33/33/33 34/34/34 63/63/63
f 34/34/34 64/64/64 63/63/63
f 34/34/34 35/35/35 64/64/64
f 35/35/35 65/65/65 64/64/64
f 35/35/35 36/36/36 65/65/65
f 36/36/36 66/66/66 65/65/65
f 36/36/36 37/37/37 66/66/66
f 37/37/37 67/67/67 66/66/66
f 37/37/37 38/38/38 67/67/67
f 38/38/38 68/68/68 67/67/67
f 38/38/38 39/39/39 68/68/68
f 39/39/39 69/69/69 68/68/68
f 39/39/39 40/40/40 69/69/69
f 40/40/40 70/70/70 69/69/69
f 40/40/40 41/41/41 70/70/70
f 41/41/41 71/71/71 70/70/70
f 41/41/41 42/42/42 71/71/71
f 42/42/42 72/72/72 71/71/71
f 42/42/42 43/43/43 72/72/72
f 43/43/43 73/73/73 72/72/72
f 43/43/43 44/44/44 73/73/73
f 44/44/44 74/74/74 73/73/73
f 44/44/44 45/45/45 74/74/74
f 45/45/45 75/75/75 74/74/74
f 45/45/45 46/46/46 75/75/75
f 46/46/46 76/76/76 75/75/75
f 46/46/46 47/47/47 76/76/76
f 47/47/47 77/77/77 76/76/76
f 47/47/47 48/48/48 77/77/77
f 48/48/48 78/78/78 77/77/77
f 48/48/48 49/49/49 78/78/78
f 49/49/49 79/79/79 78/78/78
f 49/49/49 50/50/50 79/79/79
f 50/50/50 80/80/80 79/79/79
f 50/50/50 51/51/51 80/80/80
f 51/51/51 81/81/81 80/80/80
f 51/51/51 52/52/52 81/81/81
f 52/52/52 82/82/82 81/81/81
f 52/52/52 53/53/53 82/82/82
f 53/53/53 83/83/83 82/82/82
f 53/53/53 54/54/54 83/83/83
f 54/54/54 84/84/84 83/83/83
f 54/54/54 55/55/55 84/84/84
f 55/55/55 85/85/85 84/84/84
f 55/55/55 56/56/56 85/85/85
f 56/56/56 86/86/86 85/85/85
f 56/56/56 57/57/57 86/86/86
f 57/57/57 87/87/87 86/86/86
f 57/57/57 58/58/58 87/87/87
f 59/59/59 89/89/89 88/88/88
f 59/59/59 60/60/60 89/89/89
f 60/60/60 90/90/90 89/89/89
f 60/60/60 61/61/61 90/90/90
f 61/61/61 91/91/91 90/90/90
f 61/61/61 62/62/62 91/91/91
f 62/62/62 92/92/92 91/91/91
f 62/62/62 63/63/63 92/92/92
f 63/63/63 93/93/93 92/92/92
f 63/63/63 64/64/64 93/93/93
f 64/64/64 94/94/94 93/93/93
f 64/64/64 65/65/65 94/94/94
f 65/65/65 95/95/95 94/94/94
f 65/65/65 66/66/66 95/95/95
f 66/66/66 96/96/96 95/95/95
f 66/66/66 67/67/67 96/96/96
f 67/67/67 97/97/97 96/96/96
f 67/67/67 68/68/68 97/97/97
f 68/68/68 98/98/98 97/97/97
f 68/68/68 69/69/69 98/98/98
f 69/69/69 99/99/99 98/98/98
f 69/69/69 70/70/70 99/99/99
f 70/70/70 100/100/100 99/99/99
f 70/70/70 71/71/71 100/100/100
f 71/71/71 101/101/101 100/100/100
f 71/71/71 72/72/72 101/101/101
f 72/72/72 102/102/102 101/101/101
f 72/72/72 73/73/73 102/102/102
f 73/73/73 103/103/103 102/102/102
f 73/73/73 74/74/74 103/103/103
f 74/74/74 104/104/104 103/103/103
f 74/74/74 75/75/75 104/104/104
f 75/75/75 105/105/105 104/104/104
f 75/75/75 76/76/76 105/105/105
f 76/76/76 106/106/106 105/105/105
f 76/76/76 77/77/77 106/106/106
f 77/77/77 107/107/107 106/106/106
f 77/77/77 78/78/78 107/107/107
f 78/78/78 108/108/108 107/107/107
f 78/78/78 79/79/79 108/108/108
f 79/79/79 109/109/109 108/108/108
f 79/79/79 80/80/80 109/109/109
f 80/80/80 110/110/110 109/109/109
f 80/80/80 81/81/81 110/110/110
f 81/81/81 111/111/111 110/110/110
f 81/81/81 82/82/82 111/111/111
f 82/82/82 112/112/112 111/111/111
f 82/82/82 83/83/83 112/112/112
f 83/83/83 113/113/113 112/112/112
f 83/83/83 84/84/84 113/113/113
f 84/84/84 114/114/114 113/113/113
f 84/84/84 85/85/85 114/114/114
f 85/85/85 115/115/115 114/114/114
f 85/85/85 86/86/86 115/115/115
f 86/86/86 116/116/116 115/115/115
f 86/86/86 87/87/87 116/116/116
f 88/88/88 118/118/118 117/117/117
f 88/88/88 89/89/89 118/118/118
f 89/89/89 119/119/119 118/118/118
f 89/89/89 90/90/90 119/119/119
f 90/90/90 120/120/120 119/119/119
f 90/90/90 91/91/91 120/120/120
f 91/91/91 121/121/121 120/120/120
f 91/91/91 92/92/92 121/121/121
f 92/92/92 122/122/122 121/121/121
f 92/92/92 93/93/93 122/122/122
f 93/93/93 123/123/123 122/122/122
f 93/93/93 94/94/94 123/123/123
f 94/94/94 124/124/124 123/123/123
f 94/94/94 95/95/95 124/124/124
f 95/95/95 125/125/125 124/124/124
f 95/95/95 96/96/96 125/125/125
f 96/96/96 126/126/126 125/125/125
f 96/96/96 97/97/97 126/126/126
f 97/97/97 127/127/127 126/126/126
f 97/97/97 98/98/98 127/127/127
f 98/98/98 128/128/128 127/127/127
f 98/98/98 99/99/99 128/128/128
f 99/99/99 129/129/129 128/128/128
f 99/99/99 100/100/100 129/129/129
f 100/100/100 130/130/130 129/129/129
f 100/100/100 101/101/101 130/130/130
f 101/101/101 131/131/131 130/130/130
f 101/101/101 102/102/102 131/131/131
f 102/102/102 132/132/132 131/131/131
f 102/102/102 103/103/103 132/132/132
f 103/103/103 133/133/133 132/132/132
f 103/103/103 104/104/104 133/133/133
f 104/104/104 134/134/134 133/133/133
f 104/104/104 105/105/105 134/134/134
f 105/105/105 135/135/135 134/134/134
f 105/105/105 106/106/106 135/135/135
f 106/106/106 136/136/136 135/135/135
f 106/106/106 107/107/107 136/136/136
f 107/107/107 137/137/137 136/136/136
f 107/107/107 108/108/108 137/137/137
f 108/108/108 138/138/138 137/137/137
f 108/108/108 109/109/109 138/138/138
f 109/109/109 139/139/139 138/138/138
f 109/109/109 110/110/110 139/139/139
f 110/110/110 140/140/140 139/139/139
f 110/110/110 111/111/111 140/140/140
f 111/111/111 141/141/141 140/140/140
f 111/111/111 112/112/112 141/141/141
f 112/112/112 142/142/142 141/141/141
f 112/112/112 113/113/113 142/142/142
f 113/113/113 143/143/143 142/142/142
f 113/113/113 114/114/114 143/143/143
f 114/114/114 144/144/144 143/143/143
f 114/114/114 115/115/115 144/144/144
f 115/115/115 145/145/145 144/144/144
f 115/115/115 116/116/116 145/145/145
f 117/117/117 147/147/147 146/146/146
f 117/117/117 118/118/118 147/147/147
f 118/118/118 148/148/148 147/147/147
f 118/118/118 119/119/119 148/148/148
f 119/119/119 149/149/149 148/148/148
f 119/119/119 120/120/120 149/149/149
f 120/120/120 150/150/150 149/149/149
f 120/120/120 121/121/121 150/150/150
f 121/121/121 151/151/151 150/150/150
f 121/121/121 122/122/122 151/151/151
f 122/122/122 152/152/152 151/151/151
f 122/122/122 123/123/123 152/152/152
f 123/123/123 153/153/153 152/152/152
f 123/123/123 124/124/124 153/153/153
f 124/124/124 154/154/154 153/153/153
f 124/124/124 125/125/125 154/154/154
f 125/125/125 155/155/155 154/154/154
f 125/125/125 126/126/126 155/155/155
f 126/126/126 156/156/156 155/155/155
f 126/126/126 127/127/127 156/156/156
f 127/127/127 157/157/157 156/156/156
f 127/127/127 128/128/128 157/157/157
f 128/128/128 158/158/158 157/157/157
f 128/128/128 129/129/129 158/158/158
f 129/129/129 159/159/159 158/158/158
f 129/129/129 130/130/130 159/159/159
f 130/130/130 160/160/160 159/159/159
f 130/130/130 131/131/131 160/160/160
f 131/131/131 161/161/161 160/160/160
f 131/131/131 132/132/132 161/161/161
f 132/132/132 162/162/162 161/161/161
f 132/132/132 133/133/133 162/162/162
f 133/133/133 163/163/163 162/162/162
f 133/133/133 134/134/134 163/163/163
f 134/134/134 164/164/164 163/163/163
f 134/134/134 135/135/135 164/164/164
f 135/135/135 165/165/165 164/164/164
f 135/135/135 136/136/136 165/165/165
f 136/136/136 166/166/166 165/165/165
f 136/136/136 137/137/137 166/166/166
f 137/137/137 167/167/167 166/166/166
f 137/137/137 138/138/138 167/167/167
f 138/138/138 168/168/168 167/167/167
f 138/138/138 139/139/139 168/168/168
f 139/139/139 169/169/169 168/168/168
f 139/139/139 140/140/140 169/169/169
f 140/140/140 170/170/170 169/169/169
f 140/140/140 141/141/141 170/170/170
f 141/141/141 171/171/171 170/170/170
f 141/141/141 142/142/142 171/171/171
f 142/142/142 172/172/172 171/171/171
f 142/142/142 143/143/143 172/172/172
f 143/143/143 173/173/173 172/172/172
f 143/143/143 144/144/144 173/173/173
f 144/144/144 174/174/174 173/173/173
f 144/144/144 145/145/145 174/174/174
f 146/146/146 176/176/176 175/175/175
f 146/146/146 147/147/147 176/176/176
f 147/147/147 177/177/177 176/176/176
f 147/147/147 148/148/148 177/177/177
f 148/148/148 178/178/178 177/177/177
f 148/148/148 149/149/149 178/178/178
f 149/149/149 179/179/179 178/178/178
f 149/149/149 150/150/150 179/179/179
f 150/150/150 180/180/180 179/179/179
f 150/150/150 151/151/151 180/180/180
f 151/151/151 181/181/181 180/180/180
f 151/151/151 152/152/152 181/181/181
f 152/152/152 182/182/182 181/181/181
f 152/152/152 153/153/153 182/182/182
f 153/153/153 183/183/183 182/182/182
f 153/153/153 154/154/154 183/183/183
f 154/154/154 184/184/184 183/183/183
f 154/154/154 155/155/155 184/184/184
f 155/155/155 185/185/185 184/184/184
f 155/155/155 156/156/156 185/185/185
f 156/156/156 186/186/186 185/185/185
f 156/156/156 157/157/157 186/186/186
f 157/157/157 187/187/187 186/186/186
f 157/157/157 158/158/158 187/187/187
f 158/158/158 188/188/188 187/187/187
f 158/158/158 159/159/159 188/188/188
f 159/159/159 189/189/189 188/188/188
f 159/159/159 160/160/160 189/189/189
f 160/160/160 190/190/190 189/189/189
f 160/160/160 161/161/161 190/190/190
f 161/161/161 191/191/191 190/190/190
f 161/161/161 162/162/162 191/191/191
f 162/162/162 192/192/192 191/191/191
f 162/162/162 163/163/163 192/192/192
f 163/163/163 193/193/193 192/192/192
f 163/163/163 164/164/164 193/193/193
f 164/164/164 194/194/194 193/193/193
f 164/164/164 165/165/165 194/194/194
f 165/165/165 195/195/195 194/194/194
f 165/165/165 166/166/166 195/195/195
f 166/166/166 196/196/196 195/195/195
f 166/166/166 167/167/167 196/196/196
f 167/167/167 197/197/197 196/196/196
f 167/167/167 168/168/168 197/197/197
f 168/168/168 198/198/198 197/197/197
f 168/168/168 169/169/169 198/198/198
f 169/169/169 199/199/199 198/198/198
f 169/169/169 170/170/170 199/199/199
f 170/170/170 200/200/200 199/199/199
f 170/170/170 171/171/171 200/200/200
f 171/171/171 201/201/201 200/200/200
f 171/171/171 172/172/172 201/201/201
f 172/172/172 202/202/202 201/201/201
f 172/172/172 173/173/173 202/202/202
f 173/173/173 203/203/203 202/202/202
f 173/173/173 174/174/174 203/203/203
f 175/175/175 205/205/205 204/204/204
f 175/175/175 176/176/176 205/205/205
f 176/176/176 206/206/206 205/205/205
f 176/176/176 177/177/177 206/206/206
f 177/177/177 207/207/207 206/206/206
f 177/177/177 178/178/178 207/207/207
f 178/178/178 208/208/208 207/207/207
f 178/178/178 179/179/179 208/208/208
f 179/179/179 209/209/209 208/208/208
f 179/179/179 180/180/180 209/209/209
f 180/180/180 210/210/210 209/209/209
f 180/180/180 181/181/181 210/210/210
f 181/181/181 211/211/211 210/210/210
f 181/181/181 182/182/182 211/211/211
f 182/182/182 212/212/212 211/211/211
f 182/182/182 183/183/183 212/212/212
f 183/183/183 213/213/213 212/212/212
f 183/183/183 184/184/184 213/213/213
f 184/184/184 214/214/214 213/213/213
f 184/184/184 185/185/185 214/214/214
f 185/185/185 215/215/215 214/214/214
f 185/185/185 186/186/186 215/215/215
f 186/186/186 216/216/216 215/215/215
f 186/186/186 187/187/187 216/216/216
f 187/187/187 217/217/217 216/216/216
f 187/187/187 188/188/188 217/217/217
f 188/188/188 218/218/218 217/217/217
f 188/188/188 189/189/189 218/218/218
f 189/189/189 219/219/219 218/218/218
f 189/189/189 190/190/190 219/219/219
f 190/190/190 220/220/220 219/219/219
f 190/190/190 191/191/191 220/220/220
f 191/191/191 221/221/221 220/220/220
f 191/191/191 192/192/192 221/221/221
f 192/192/192 222/222/222 221/221/221
f 192/192/192 193/193/193 222/222/222
f 193/193/193 223/223/223 222/222/222
f 193/193/193 194/194/194 223/223/223
f 194/194/194 224/224/224 223/223/223
f 194/194/194 195/195/195 224/224/224
f 195/195/195 225/225/225 224/224/224
f 195/195/195 196/196/196 225/225/225
f 196/196/196 226/226/226 225/225/225
f 196/196/196 197/197/197 226/226/226
f 197/197/197 227/227/227 226/226/226
f 197/197/197 198/198/198 227/227/227
f 198/198/198 228/228/228 227/227/227
f 198/198/198 199/199/199 228/228/228
f 199/199/199 229/229/229 228/228/228
f 199/199/199 200/200/200 229/229/229
f 200/200/200 230/230/230 229/229/229
f 200/200/200 201/201/201 230/230/230
f 201/201/201 231/231/231 230/230/230
f 201/201/201 202/202/202 231/231/231
f 202/202/202 232/232/232 231/231/231
f 202/202/202 203/203/203 232/232/232
f 204/204/204 234/234/234 233/233/233
f 204/204/204 205/205/205 234/234/234
f 205/205/205 235/235/235 234/234/234
f 205/205/205 206/206/206 235/235/235
f 206/206/206 236/236/236 235/235/235
f 206/206/206 207/207/207 236/236/236
f 207/207/207 237/237/237 236/236/236
f 207/207/207 208/208/208 237/237/237
f 208/208/208 238/238/238 237/237/237
f 208/208/208 209/209/209 238/238/238
f 209/209/209 239/239/239 238/238/238
f 209/209/209 210/210/210 239/239/239
f 210/210/210 240/240/240 239/239/239
f 210/210/210 211/211/211 240/240/240
f 211/211/211 241/241/241 240/240/240
f 211/211/211 212/212/212 241/241/241
f 212/212/212 242/242/242 241/241/241
f 212/212/212 213/213/213 242/242/242
f 213/213/213 243/243/243 242/242/242
f 213/213/213 214/214/214 243/243/243
f 214/214/214 244/244/244 243/243/243
f 214/214/214 215/215/215 244/244/244
f 215/215/215 245/245/245 244/244/244
f 215/215/215 216/216/216 245/245/245
f 216/216/216 246/246/246 245/245/245
f 216/216/216 217/217/217 246/246/246
f 217/217/217 247/247/247 246/246/246
f 217/217/217 218/218/218 247/247/247
f 218/218/218 248/248/248 247/247/247
f 218/218/218 219/219/219 248/248/248
f 219/219/219 249/249/249 248/248/248
f 219/219/219 220/220/220 249/249/249
f 220/220/220 250/250/250 249/249/249
f 220/220/220 221/221/221 250/250/250
f 221/221/221 251/251/251 250/250/250
f 221/221/221 222/222/222 251/251/251
f 222/222/222 252/252/252 251/251/251
f 222/222/222 223/223/223 252/252/252
f 223/223/223 253/253/253 252/252/252
f 223/223/223 224/224/224 253/253/253
f 224/224/224 254/254/254 253/253/253
f 224/224/224 225/225/225 254/254/254
f 225/225/225 255/255/255 254/254/254
f 225/225/225 226/226/226 255/255/255
f 226/226/226 256/256/256 255/255/255
f 226/226/226 227/227/227 256/256/256
f 227/227/227 257/257/257 256/256/256
f 227/227/227 228/228/228 257/257/257
f 228/228/228 258/258/258 257/257/257
f 228/228/228 229/229/229 258/258/258
f 229/229/229 259/259/259 258/258/258
f 229/229/229 230/230/230 259/259/259
f 230/230/230 260/260/260 259/259/259
f 230/230/230 231/231/231 260/260/260
f 231/231/231 261/261/261 260/260/260
f 231/231/231 232/232/232 261/261/261
f 233/233/233 263/263/263 262/262/262
f 233/233/233 234/234/234 263/263/263
f 234/234/234 264/264/264 263/263/263
f 234/234/234 235/235/235 264/264/264
f 235/235/235 265/265/265 264/264/264
f 235/235/235 236/236/236 265/265/265
f 236/236/236 266/266/266 265/265/265
f 236/236/236 237/237/237 266/266/266
f 237/237/237 267/267/267 266/266/266
f 237/237/237 238/238/238 267/267/267
f 238/238/238 268/268/268 267/267/267
f 238/238/238 239/239/239 268/268/268
f 239/239/239 269/269/269 268/268/268
f 239/239/239 240/240/240 269/269/269
f 240/240/240 270/270/270 269/269/269
f 240/240/240 241/241/241 270/270/270
f 241/241/241 271/271/271 270/270/270
f 241/241/241 242/242/242 271/271/271
f 242/242/242 272/272/272 271/271/271
f 242/242/242 243/243/243 272/272/272
f 243/243/243 273/273/273 272/272/272
f 243/243/243 244/244/244 273/273/273
f 244/244/244 274/274/274 273/273/273
f 244/244/244 245/245/245 274/274/274
f 245/245/245 275/275/275 274/274/274
f 245/245/245 246/246/246 275/275/275
f 246/246/246 276/276/276 275/275/275
f 246/246/246 247/247/247 276/276/276
f 247/247/247 277/277/277 276/276/276
f 247/247/247 248/248/248 277/277/277
f 248/248/248 278/278/278 277/277/277
f 248/248/248 249/249/249 278/278/278
f 249/249/249 279/279/279 278/278/278
f 249/249/249 250/250/250 279/279/279
f 250/250/250 280/280/280 279/279/279
f 250/250/250 251/251/251 280/280/280
f 251/251/251 281/281/281 280/280/280
f 251/251/251 252/252/252 281/281/281
f 252/252/252 282/282/282 281/281/281
f 252/252/252 253/253/253 282/282/282
f 253/253/253 283/283/283 282/282/282
f 253/253/253 254/254/254 283/283/283
f 254/254/254 284/284/284 283/283/283
f 254/254/254 255/255/255 284/284/284
f 255/255/255 285/285/285 284/284/284
f 255/255/255 256/256/256 285/285/285
f 256/256/256 286/286/286 285/285/285
f 256/256/256 257/257/257 286/286/286
f 257/257/257 287/287/287 286/286/286
f 257/257/257 258/258/258 287/287/287
f 258/258/258 288/288/288 287/287/287
f 258/258/258 259/259/259 288/288/288
f 259/259/259 289/289/289 288/288/288
f 259/259/259 260/260/260 289/289/289
f 260/260/260 290/290/290 289/289/289
f 260/260/260 261/261/261 290/290/290
f 262/262/262 292/292/292 291/291/291
f 262/262/262 263/263/263 292/292/292
f 263/263/263 293/293/293 292/292/292
f 263/263/263 264/264/264 293/293/293
f 264/264/264 294/294/294 293/293/293
f 264/264/264 265/265/265 294/294/294
f 265/265/265 295/295/295 294/294/294
f 265/265/265 266/266/266 295/295/295
f 266/266/266 296/296/296 295/295/295
f 266/266/266 267/267/267 296/296/296
f 267/267/267 297/297/297 296/296/296
f 267/267/267 268/268/268 297/297/297
f 268/268/268 298/298/298 297/297/297
f 268/268/268 269/269/269 298/298/298
f 269/269/269 299/299/299 298/298/298
f 269/269/269 270/270/270 299/299/299
f 270/270/270 300/300/300 299/299/299
f 270/270/270 271/271/271 300/300/300
f 271/271/271 301/301/301 300/300/300
f 271/271/271 272/272/272 301/301/301
f 272/272/272 302/302/302 301/301/301
f 272/272/272 273/273/273 302/302/302
f 273/273/273 303/303/303 302/302/302
f 273/273/273 274/274/274 303/303/303
f 274/274/274 304/304/304 303/303/303
f 274/274/274 275/275/275 304/304/304
f 275/275/275 305/305/305 304/304/304
f 275/275/275 276/276/276 305/305/305
f 276/276/276 306/306/306 305/305/305
f 276/276/276 277/277/277 306/306/306
f 277/277/277 307/307/307 306/306/306
f 277/277/277 278/278/278 307/307/307
f 278/278/278 308/308/308 307/307/307
f 278/278/278 279/279/279 308/308/308
f 279/279/279 309/309/309 308/308/308
f 279/279/279 280/280/280 309/309/309
f 280/280/280 310/310/310 309/309/309
f 280/280/280 281/281/281 310/310/310
f 281/281/281 311/311/311 310/310/310
f 281/281/281 282/282/282 311/311/311
f 282/282/282 312/312/312 311/311/311
f 282/282/282 283/283/283 312/312/312
f 283/283/283 313/313/313 312/312/312
f 283/283/283 284/284/284 313/313/313
f 284/284/284 314/314/314 313/313/313
f 284/284/284 285/285/285 314/314/314
f 285/285/285 315/315/315 314/314/314
f 285/285/285 286/286/286 315/315/315
f 286/286/286 316/316/316 315/315/315
f 286/286/286 287/287/287 316/316/316
f 287/287/287 317/317/317 316/316/316
f 287/287/287 288/288/288 317/317/317
f 288/288/288 318/318/318 317/317/317
f 288/288/288 289/289/289 318/318/318
f 289/289/289 319/319/319 318/318/318
f 289/289/289 290/290/290 319/319/319
f 291/291/291 321/321/321 320/320/320
f 291/291/291 292/292/292 321/321/321
f 292/292/292 322/322/322 321/321/321
f 292/292/292 293/293/293 322/322/322
f 293/293/293 323/323/323 322/322/322
f 293/293/293 294/294/294 323/323/323
f 294/294/294 324/324/324 323/323/323
f 294/294/294 295/295/295 324/324/324
f 295/295/295 325/325/325 324/324/324
f 295/295/295 296/296/296 325/325/325
f 296/296/296 326/326/326 325/325/325
f 296/296/296 297/297/297 326/326/326
f 297/297/297 327/327/327 326/326/326
f 297/297/297 298/298/298 327/327/327
f 298/298/298 328/328/328 327/327/327
f 298/298/298 299/299/299 328/328/328
f 299/299/299 329/329/329 328/328/328
f 299/299/299 300/300/300 329/329/329
f 300/300/300 330/330/330 329/329/329
f 300/300/300 301/301/301 330/330/330
f 301/301/301 331/331/331 330/330/330
f 301/301/301 302/302/302 331/331/331
f 302/302/302 332/332/332 331/331/331
f 302/302/302 303/303/303 332/332/332
f 303/303/303 333/333/333 332/332/332
f 303/303/303 304/304/304 333/333/333
f 304/304/304 334/334/334 333/333/333
f 304/304/304 305/305/305 334/334/334
f 305/305/305 335/335/335 334/334/334
f 305/305/305 306/306/306 335/335/335
f 306/306/306 336/336/336 335/335/335
f 306/306/306 307/307/307 336/336/336
f 307/307/307 337/337/337 336/336/336
f 307/307/307 308/308/308 337/337/337
f 308/308/308 338/338/338 337/337/337
f 308/308/308 309/309/309 338/338/338
f 309/309/309 339/339/339 338/338/338
f 309/309/309 310/310/310 339/339/339
f 310/310/310 340/340/340 339/339/339
f 310/310/310 311/311/311 340/340/340
f 311/311/311 341/341/341 340/340/340
f 311/311/311 312/312/312 341/341/341
f 312/312/312 342/342/342 341/341/341
f 312/312/312 313/313/313 342/342/342
f 313/313/313 343/343/343 342/342/342
f 313/313/313 314/314/314 343/343/343
f 314/314/314 344/344/344 343/343/343
f 314/314/314 315/315/315 344/344/344
f 315/315/315 345/345/345 344/344/344
f 315/315/315 316/316/316 345/345/345
f 316/316/316 346/346/346 345/345/345
f 316/316/316 317/317/317 346/346/346
f 317/317/317 347/347/347 346/346/346
f 317/317/317 318/318/318 347/347/347
f 318/318/318 348/348/348 347/347/347
f 318/318/318 319/319/319 348/348/348
f 320/320/320 350/350/350 349/349/349
f 320/320/320 321/321/321 350/350/350
f 321/321/321 351/351/351 350/350/350
f 321/321/321 322/322/322 351/351/351
f 322/322/322 352/352/352 351/351/351
f 322/322/322 323/323/323 352/352/352
f 323/323/323 353/353/353 352/352/352
f 323/323/323 324/324/324 353/353/353
f 324/324/324 354/354/354 353/353/353
f 324/324/324 325/325/325 354/354/354
f 325/325/325 355/355/355 354/354/354
f 325/325/325 326/326/326 355/355/355
f 326/326/326 356/356/356 355/355/355
f 326/326/326 327/327/327 356/356/356
f 327/327/327 357/357/357 356/356/356
f 327/327/327 328/328/328 357/357/357
f 328/328/328 358/358/358 357/357/357
f 328/328/328 329/329/329 358/358/358
f 329/329/329 359/359/359 358/358/358
f 329/329/329 330/330/330 359/359/359
f 330/330/330 360/360/360 359/359/359
f 330/330/330 331/331/331 360/360/360
f 331/331/331 361/361/361 360/360/360
f 331/331/331 332/332/332 361/361/361
f 332/332/332 362/362/362 361/361/361
f 332/332/332 333/333/333 362/362/362
f 333/333/333 363/363/363 362/362/362
f 333/333/333 334/334/334 363/363/363
f 334/334/334 364/364/364 363/363/363
f 334/334/334 335/335/335 364/364/364
f 335/335/335 365/365/365 364/364/364
f 335/335/335 336/336/336 365/365/365
f 336/336/336 366/366/366 365/365/365
f 336/336/336 337/337/337 366/366/366
f 337/337/337 367/367/367 366/366/366
f 337/337/337 338/338/338 367/367/367
f 338/338/338 368/368/368 367/367/367
f 338/338/338 339/339/339 368/368/368
f 339/339/339 369/369/369 368/368/368
f 339/339/339 340/340/340 369/369/369
f 340/340/340 370/370/370 369/369/369
f 340/340/340 341/341/341 370/370/370
f 341/341/341 371/371/371 370/370/370
f 341/341/341 342/342/342 371/371/371
f 342/342/342 372/372/372 371/371/371
f 342/342/342 343/343/343 372/372/372
f 343/343/343 373/373/373 372/372/372
f 343/343/343 344/344/344 373/373/373
f 344/344/344 374/374/374 373/373/373
f 344/344/344 345/345/345 374/374/374
f 345/345/345 375/375/375 374/374/374
f 345/345/345 346/346/346 375/375/375
f 346/346/346 376/376/376 375/375/375
f 346/346/346 347/347/347 376/376/376
f 347/347/347 377/377/377 376/376/376
f 347/347/347 348/348/348 377/377/377
f 349/349/349 379/379/379 378/378/378
f 349/349/349 350/350/350 379/379/379
f 350/350/350 380/380/380 379/379/379
f 350/350/350 351/351/351 380/380/380
f 351/351/351 381/381/381 380/380/380
f 351/351/351 352/352/352 381/381/381
f 352/352/352 382/382/382 381/381/381
f 352/352/352 353/353/353 382/382/382
f 353/353/353 383/383/383 382/382/382
f 353/353/353 354/354/354 383/383/383
f 354/354/354 384/384/384 383/383/383
f 354/354/354 355/355/355 384/384/384
f 355/355/355 385/385/385 384/384/384
f 355/355/355 356/356/356 385/385/385
f 356/356/356 386/386/386 385/385/385
f 356/356/356 357/357/357 386/386/386
f 357/357/357 387/387/387 386/386/386
f 357/357/357 358/358/358 387/387/387
f 358/358/358 388/388/388 387/387/387
f 358/358/358 359/359/359 388/388/388
f 359/359/359 389/389/389 388/388/388
f 359/359/359 360/360/360 389/389/389
f 360/360/360 390/390/390 389/389/389
f 360/360/360 361/361/361 390/390/390
f 361/361/361 391/391/391 390/390/390
f 361/361/361 362/362/362 391/391/391
f 362/362/362 392/392/392 391/391/391
f 362/362/362 363/363/363 392/392/392
f 363/363/363 393/393/393 392/392/392
f 363/363/363 364/364/364 393/393/393
f 364/364/364 394/394/394 393/393/393
f 364/364/364 365/365/365 394/394/394
f 365/365/365 395/395/395 394/394/394
f 365/365/365 366/366/366 395/395/395
f 366/366/366 396/396/396 395/395/395
f 366/366/366 367/367/367 396/396/396
f 367/367/367 397/397/397 396/396/396
f 367/367/367 368/368/368 397/397/397
f 368/368/368 398/398/398 397/397/397
f 368/368/368 369/369/369 398/398/398
f 369/369/369 399/399/399 398/398/398
f 369/369/369 370/370/370 399/399/399
f 370/370/370 400/400/400 399/399/399
f 370/370/370 371/371/371 400/400/400
f 371/371/371 401/401/401 400/400/400
f 371/371/371 372/372/372 401/401/401
f 372/372/372 402/402/402 401/401/401
f 372/372/372 373/373/373 402/402/402
f 373/373/373 403/403/403 402/402/402
f 373/373/373 374/374/374 403/403/403
f 374/374/374 404/404/404 403/403/403
f 374/374/374 375/375/375 404/404/404
f 375/375/375 405/405/405 404/404/404
f 375/375/375 376/376/376 405/405/405
f 376/376/376 406/406/406 405/405/405
f 376/376/376 377/377/377 406/406/406
f 378/378/378 408/408/408 407/407/407
f 378/378/378 379/379/379 408/408/408
f 379/379/379 409/409/409 408/408/408
f 379/379/379 380/380/380 409/409/409
f 380/380/380 410/410/410 409/409/409
f 380/380/380 381/381/381 410/410/410
f 381/381/381 411/411/411 410/410/410
f 381/381/381 382/382/382 411/411/411
f 382/382/382 412/412/412 411/411/411
f 382/382/382 383/383/383 412/412/412
f 383/383/383 413/413/413 412/412/412
f 383/383/383 384/384/384 413/413/413
f 384/384/384 414/414/414 413/413/413
f 384/384/384 385/385/385 414/414/414
f 385/385/385 415/415/415 414/414/414
f 385/385/385 386/386/386 415/415/415
f 386/386/386 416/416/416 415/415/415
f 386/386/386 387/387/387 416/416/416
f 387/387/387 417/417/417 416/416/416
f 387/387/387 388/388/388 417/417/417
f 388/388/388 418/418/418 417/417/417
f 388/388/388 389/389/389 418/418/418
f 389/389/389 419/419/419 418/418/418
f 389/389/389 390/390/390 419/419/419
f 390/390/390 420/420/420 419/419/419
f 390/390/390 391/391/391 420/420/420
f 391/391/391 421/421/421 420/420/420
f 391/391/391 392/392/392 421/421/421
f 392/392/392 422/422/422 421/421/421
f 392/392/392 393/393/393 422/422/422
f 393/393/393 423/423/423 422/422/422
f 393/393/393 394/394/394 423/423/423
f 394/394/394 424/424/424 423/423/423
f 394/394/394 395/395/395 424/424/424
f 395/395/395 425/425/425 424/424/424
f 395/395/395 396/396/396 425/425/425
f 396/396/396 426/426/426 425/425/425
f 396/396/396 397/397/397 426/426/426
f 397/397/397 427/427/427 426/426/426
f 397/397/397 398/398/398 427/427/427
f 398/398/398 428/428/428 427/427/427
f 398/398/398 399/399/399 428/428/428
f 399/399/399 429/429/429 428/428/428
f 399/399/399 400/400/400 429/429/429
f 400/400/400 430/430/430 429/429/429
f 400/400/400 401/401/401 430/430/430
f 401/401/401 431/431/431 430/430/430
f 401/401/401 402/402/402 431/431/431
f 402/402/402 432/432/432 431/431/431
f 402/402/402 403/403/403 432/432/432
f 403/403/403 433/433/433 432/432/432
f 403/403/403 404/404/404 433/433/433
f 404/404/404 434/434/434 433/433/433
f 404/404/404 405/405/405 434/434/434
f 405/405/405 435/435/435 434/434/434
f 405/405/405 406/406/406 435/435/435
f 407/407/407 437/437/437 436/436/436
f 407/407/407 408/408/408 437/437/437
f 408/408/408 438/438/438 437/437/437
f 408/408/408 409/409/409 438/438/438
f 409/409/409 439/439/439 438/438/438
f 409/409/409 410/410/410 439/439/439
f 410/410/410 440/440/440 439/439/439
f 410/410/410 411/411/411 440/440/440
f 411/411/411 441/441/441 440/440/440
f 411/411/411 412/412/412 441/441/441
f 412/412/412 442/442/442 441/441/441
f 412/412/412 413/413/413 442/442/442
f 413/413/413 443/443/443 442/442/442
f 413/413/413 414/414/414 443/443/443
f 414/414/414 444/444/444 443/443/443
f 414/414/414 415/415/415 444/444/444
f 415/415/415 445/445/445 444/444/444
f 415/415/415 416/416/416 445/445/445
f 416/416/416 446/446/446 445/445/445
f 416/416/416 417/417/417 446/446/446
f 417/417/417 447/447/447 446/446/446
f 417/417/417 418/418/418 447/447/447
f 418/418/418 448/448/448 447/447/447
f 418/418/418 419/419/419 448/448/448
f 419/419/419 449/449/449 448/448/448
f 419/419/419 420/420/420 449/449/449
f 420/420/420 450/450/450 449/449/449
f 420/420/420 421/421/421 450/450/450
f 421/421/421 451/451/451 450/450/450
f 421/421/421 422/422/422 451/451/451
f 422/422/422 452/452/452 451/451/451
f 422/422/422 423/423/423 452/452/452
f 423/423/423 453/453/453 452/452/452
f 423/423/423 424/424/424 453/453/453
f 424/424/424 454/454/454 453/453/453
f 424/424/424 425/425/425 454/454/454
f 425/425/425 455/455/455 454/454/454
f 425/425/425 426/426/426 455/455/455
f 426/426/426 456/456/456 455/455/455
f 426/426/426 427/427/427 456/456/456
f 427/427/427 457/457/457 456/456/456
f 427/427/427 428/428/428 457/457/457
f 428/428/428 458/458/458 457/457/457
f 428/428/428 429/429/429 458/458/458
f 429/429/429 459/459/459 458/458/458
f 429/429/429 430/430/430 459/459/459
f 430/430/430 460/460/460 459/459/459
f 430/430/430 431/431/431 460/460/460
f 431/431/431 461/461/461 460/460/460
f 431/431/431 432/432/432 461/461/461
f 432/432/432 462/462/462 461/461/461
f 432/432/432 433/433/433 462/462/462
f 433/433/433 463/463/463 462/462/462
f 433/433/433 434/434/434 463/463/463
f 434/434/434 464/464/464 463/463/463
f 434/434/434 435/435/435 464/464/464
