# generated by tools/make_gecko_mesh.py -- do not hand-edit
v -0.003974 0.002069 0.000000
v -0.003641 0.002464 -0.000860
v -0.003126 0.002736 -0.001677
v -0.002454 0.002871 -0.002410
v -0.001659 0.002861 -0.003022
v -0.000781 0.002708 -0.003482
v 0.000136 0.002419 -0.003768
v 0.001046 0.002009 -0.003865
v 0.001904 0.001499 -0.003768
v 0.002667 0.000913 -0.003482
v 0.003296 0.000281 -0.003022
v 0.003759 -0.000365 -0.002410
v 0.004034 -0.000992 -0.001677
v 0.004107 -0.001570 -0.000860
v 0.003974 -0.002069 0.000000
v 0.003641 -0.002464 0.000860
v 0.003126 -0.002736 0.001677
v 0.002454 -0.002871 0.002410
v 0.001659 -0.002861 0.003022
v 0.000781 -0.002708 0.003482
v -0.000136 -0.002419 0.003768
v -0.001046 -0.002009 0.003865
v -0.001904 -0.001499 0.003768
v -0.002667 -0.000913 0.003482
v -0.003296 -0.000281 0.003022
v -0.003759 0.000365 0.002410
v -0.004034 0.000992 0.001677
v -0.004107 0.001570 0.000860
v -0.003974 0.002069 0.000000
v -0.004806 0.000066 -0.001267
v -0.004487 0.000445 -0.002091
v -0.003994 0.000705 -0.002874
v -0.003350 0.000834 -0.003576
v -0.002588 0.000825 -0.004163
v -0.001747 0.000679 -0.004604
v -0.000868 0.000402 -0.004878
v 0.000005 0.000009 -0.004971
v 0.000827 -0.000481 -0.004878
v 0.001558 -0.001042 -0.004604
v 0.002160 -0.001648 -0.004163
v 0.002604 -0.002266 -0.003576
v 0.002868 -0.002868 -0.002874
v 0.002938 -0.003421 -0.002091
v 0.002810 -0.003900 -0.001267
v 0.002491 -0.004278 -0.000442
v 0.001998 -0.004539 0.000340
v 0.001354 -0.004668 0.001043
v 0.000592 -0.004659 0.001629
v -0.000249 -0.004512 0.002070
v -0.001128 -0.004235 0.002344
v -0.002001 -0.003842 0.002437
v -0.002823 -0.003353 0.002344
v -0.003554 -0.002791 0.002070
v -0.004156 -0.002186 0.001629
v -0.004600 -0.001567 0.001043
v -0.004864 -0.000966 0.000340
v -0.004934 -0.000412 -0.000442
v -0.004806 0.000066 -0.001267
v -0.005639 -0.001937 -0.002533
v -0.005334 -0.001574 -0.003322
v -0.004862 -0.001325 -0.004071
v -0.004246 -0.001202 -0.004742
v -0.003517 -0.001211 -0.005303
v -0.002712 -0.001351 -0.005725
v -0.001872 -0.001616 -0.005987
v -0.001037 -0.001991 -0.006076
v -0.000251 -0.002460 -0.005987
v 0.000448 -0.002997 -0.005725
v 0.001025 -0.003576 -0.005303
v 0.001450 -0.004168 -0.004742
v 0.001702 -0.004743 -0.004071
v 0.001768 -0.005273 -0.003322
v 0.001646 -0.005730 -0.002533
v 0.001341 -0.006092 -0.001745
v 0.000869 -0.006341 -0.000996
v 0.000254 -0.006465 -0.000324
v -0.000475 -0.006456 0.000237
v -0.001280 -0.006316 0.000659
v -0.002121 -0.006051 0.000921
v -0.002955 -0.005675 0.001010
v -0.003742 -0.005207 0.000921
v -0.004441 -0.004670 0.000659
v -0.005017 -0.004091 0.000237
v -0.005442 -0.003499 -0.000324
v -0.005694 -0.002924 -0.000996
v -0.005761 -0.002394 -0.001745
v -0.005639 -0.001937 -0.002533
v -0.006471 -0.003939 -0.003800
v -0.006180 -0.003594 -0.004553
v -0.005730 -0.003356 -0.005267
v -0.005142 -0.003238 -0.005909
v -0.004446 -0.003247 -0.006444
v -0.003678 -0.003380 -0.006847
v -0.002875 -0.003633 -0.007097
v -0.002079 -0.003992 -0.007182
v -0.001328 -0.004439 -0.007097
v -0.000661 -0.004952 -0.006847
v -0.000111 -0.005504 -0.006444
v 0.000295 -0.006069 -0.005909
v 0.000535 -0.006618 -0.005267
v 0.000599 -0.007124 -0.004553
v 0.000483 -0.007561 -0.003800
v 0.000192 -0.007906 -0.003047
v -0.000259 -0.008144 -0.002333
v -0.000847 -0.008262 -0.001691
v -0.001542 -0.008253 -0.001156
v -0.002311 -0.008120 -0.000753
v -0.003113 -0.007867 -0.000503
v -0.003910 -0.007508 -0.000418
v -0.004661 -0.007061 -0.000503
v -0.005328 -0.006549 -0.000753
v -0.005878 -0.005996 -0.001156
v -0.006283 -0.005431 -0.001691
v -0.006524 -0.004882 -0.002333
v -0.006588 -0.004376 -0.003047
v -0.006471 -0.003939 -0.003800
v -0.007304 -0.005942 -0.005067
v -0.007027 -0.005613 -0.005783
v -0.006597 -0.005387 -0.006464
v -0.006038 -0.005275 -0.007075
v -0.005375 -0.005282 -0.007585
v -0.004643 -0.005410 -0.007969
v -0.003879 -0.005651 -0.008207
v -0.003120 -0.005992 -0.008287
v -0.002405 -0.006418 -0.008207
v -0.001770 -0.006906 -0.007969
v -0.001246 -0.007433 -0.007585
v -0.000860 -0.007971 -0.007075
v -0.000631 -0.008494 -0.006464
v -0.000570 -0.008975 -0.005783
v -0.000681 -0.009391 -0.005067
v -0.000958 -0.009720 -0.004350
v -0.001387 -0.009947 -0.003669
v -0.001947 -0.010059 -0.003059
v -0.002610 -0.010051 -0.002549
v -0.003341 -0.009923 -0.002165
v -0.004106 -0.009683 -0.001927
v -0.004864 -0.009341 -0.001846
v -0.005579 -0.008915 -0.001927
v -0.006215 -0.008427 -0.002165
v -0.006739 -0.007901 -0.002549
v -0.007125 -0.007363 -0.003059
v -0.007354 -0.006840 -0.003669
v -0.007415 -0.006358 -0.004350
v -0.007304 -0.005942 -0.005067
v -0.008136 -0.007945 -0.006333
v -0.007873 -0.007632 -0.007014
v -0.007465 -0.007417 -0.007661
v -0.006933 -0.007311 -0.008241
v -0.006304 -0.007318 -0.008726
v -0.005609 -0.007439 -0.009090
v -0.004883 -0.007668 -0.009316
v -0.004162 -0.007993 -0.009393
v -0.003483 -0.008397 -0.009316
v -0.002879 -0.008861 -0.009090
v -0.002382 -0.009361 -0.008726
v -0.002015 -0.009872 -0.008241
v -0.001797 -0.010369 -0.007661
v -0.001739 -0.010826 -0.007014
v -0.001845 -0.011221 -0.006333
v -0.002108 -0.011534 -0.005652
v -0.002516 -0.011749 -0.005006
v -0.003048 -0.011856 -0.004426
v -0.003677 -0.011848 -0.003941
v -0.004372 -0.011727 -0.003577
v -0.005098 -0.011499 -0.003350
v -0.005819 -0.011174 -0.003274
v -0.006498 -0.010770 -0.003350
v -0.007102 -0.010306 -0.003577
v -0.007599 -0.009806 -0.003941
v -0.007966 -0.009294 -0.004426
v -0.008184 -0.008798 -0.005006
v -0.008242 -0.008340 -0.005652
v -0.008136 -0.007945 -0.006333
v -0.008969 -0.009948 -0.007600
v -0.008719 -0.009652 -0.008245
v -0.008333 -0.009448 -0.008858
v -0.007829 -0.009347 -0.009407
v -0.007233 -0.009354 -0.009866
v -0.006575 -0.009469 -0.010212
v -0.005887 -0.009685 -0.010426
v -0.005204 -0.009993 -0.010499
v -0.004560 -0.010376 -0.010426
v -0.003988 -0.010816 -0.010212
v -0.003517 -0.011289 -0.009866
v -0.003169 -0.011774 -0.009407
v -0.002963 -0.012244 -0.008858
v -0.002909 -0.012678 -0.008245
v -0.003008 -0.013052 -0.007600
v -0.003258 -0.013348 -0.006955
v -0.003644 -0.013552 -0.006342
v -0.004148 -0.013653 -0.005793
v -0.004744 -0.013646 -0.005334
v -0.005403 -0.013531 -0.004988
v -0.006091 -0.013315 -0.004774
v -0.006773 -0.013007 -0.004701
v -0.007417 -0.012624 -0.004774
v -0.007989 -0.012184 -0.004988
v -0.008460 -0.011711 -0.005334
v -0.008808 -0.011226 -0.005793
v -0.009014 -0.010756 -0.006342
v -0.009069 -0.010322 -0.006955
v -0.008969 -0.009948 -0.007600
vt 0.00000 0.00000
vt 0.03571 0.00000
vt 0.07143 0.00000
vt 0.10714 0.00000
vt 0.14286 0.00000
vt 0.17857 0.00000
vt 0.21429 0.00000
vt 0.25000 0.00000
vt 0.28571 0.00000
vt 0.32143 0.00000
vt 0.35714 0.00000
vt 0.39286 0.00000
vt 0.42857 0.00000
vt 0.46429 0.00000
vt 0.50000 0.00000
vt 0.53571 0.00000
vt 0.57143 0.00000
vt 0.60714 0.00000
vt 0.64286 0.00000
vt 0.67857 0.00000
vt 0.71429 0.00000
vt 0.75000 0.00000
vt 0.78571 0.00000
vt 0.82143 0.00000
vt 0.85714 0.00000
vt 0.89286 0.00000
vt 0.92857 0.00000
vt 0.96429 0.00000
vt 1.00000 0.00000
vt 0.00000 0.08350
vt 0.03571 0.08350
vt 0.07143 0.08350
vt 0.10714 0.08350
vt 0.14286 0.08350
vt 0.17857 0.08350
vt 0.21429 0.08350
vt 0.25000 0.08350
vt 0.28571 0.08350
vt 0.32143 0.08350
vt 0.35714 0.08350
vt 0.39286 0.08350
vt 0.42857 0.08350
vt 0.46429 0.08350
vt 0.50000 0.08350
vt 0.53571 0.08350
vt 0.57143 0.08350
vt 0.60714 0.08350
vt 0.64286 0.08350
vt 0.67857 0.08350
vt 0.71429 0.08350
vt 0.75000 0.08350
vt 0.78571 0.08350
vt 0.82143 0.08350
vt 0.85714 0.08350
vt 0.89286 0.08350
vt 0.92857 0.08350
vt 0.96429 0.08350
vt 1.00000 0.08350
vt 0.00000 0.16699
vt 0.03571 0.16699
vt 0.07143 0.16699
vt 0.10714 0.16699
vt 0.14286 0.16699
vt 0.17857 0.16699
vt 0.21429 0.16699
vt 0.25000 0.16699
vt 0.28571 0.16699
vt 0.32143 0.16699
vt 0.35714 0.16699
vt 0.39286 0.16699
vt 0.42857 0.16699
vt 0.46429 0.16699
vt 0.50000 0.16699
vt 0.53571 0.16699
vt 0.57143 0.16699
vt 0.60714 0.16699
vt 0.64286 0.16699
vt 0.67857 0.16699
vt 0.71429 0.16699
vt 0.75000 0.16699
vt 0.78571 0.16699
vt 0.82143 0.16699
vt 0.85714 0.16699
vt 0.89286 0.16699
vt 0.92857 0.16699
vt 0.96429 0.16699
vt 1.00000 0.16699
vt 0.00000 0.25049
vt 0.03571 0.25049
vt 0.07143 0.25049
vt 0.10714 0.25049
vt 0.14286 0.25049
vt 0.17857 0.25049
vt 0.21429 0.25049
vt 0.25000 0.25049
vt 0.28571 0.25049
vt 0.32143 0.25049
vt 0.35714 0.25049
vt 0.39286 0.25049
vt 0.42857 0.25049
vt 0.46429 0.25049
vt 0.50000 0.25049
vt 0.53571 0.25049
vt 0.57143 0.25049
vt 0.60714 0.25049
vt 0.64286 0.25049
vt 0.67857 0.25049
vt 0.71429 0.25049
vt 0.75000 0.25049
vt 0.78571 0.25049
vt 0.82143 0.25049
vt 0.85714 0.25049
vt 0.89286 0.25049
vt 0.92857 0.25049
vt 0.96429 0.25049
vt 1.00000 0.25049
vt 0.00000 0.33398
vt 0.03571 0.33398
vt 0.07143 0.33398
vt 0.10714 0.33398
vt 0.14286 0.33398
vt 0.17857 0.33398
vt 0.21429 0.33398
vt 0.25000 0.33398
vt 0.28571 0.33398
vt 0.32143 0.33398
vt 0.35714 0.33398
vt 0.39286 0.33398
vt 0.42857 0.33398
vt 0.46429 0.33398
vt 0.50000 0.33398
vt 0.53571 0.33398
vt 0.57143 0.33398
vt 0.60714 0.33398
vt 0.64286 0.33398
vt 0.67857 0.33398
vt 0.71429 0.33398
vt 0.75000 0.33398
vt 0.78571 0.33398
vt 0.82143 0.33398
vt 0.85714 0.33398
vt 0.89286 0.33398
vt 0.92857 0.33398
vt 0.96429 0.33398
vt 1.00000 0.33398
vt 0.00000 0.41748
vt 0.03571 0.41748
vt 0.07143 0.41748
vt 0.10714 0.41748
vt 0.14286 0.41748
vt 0.17857 0.41748
vt 0.21429 0.41748
vt 0.25000 0.41748
vt 0.28571 0.41748
vt 0.32143 0.41748
vt 0.35714 0.41748
vt 0.39286 0.41748
vt 0.42857 0.41748
vt 0.46429 0.41748
vt 0.50000 0.41748
vt 0.53571 0.41748
vt 0.57143 0.41748
vt 0.60714 0.41748
vt 0.64286 0.41748
vt 0.67857 0.41748
vt 0.71429 0.41748
vt 0.75000 0.41748
vt 0.78571 0.41748
vt 0.82143 0.41748
vt 0.85714 0.41748
vt 0.89286 0.41748
vt 0.92857 0.41748
vt 0.96429 0.41748
vt 1.00000 0.41748
vt 0.00000 0.50097
vt 0.03571 0.50097
vt 0.07143 0.50097
vt 0.10714 0.50097
vt 0.14286 0.50097
vt 0.17857 0.50097
vt 0.21429 0.50097
vt 0.25000 0.50097
vt 0.28571 0.50097
vt 0.32143 0.50097
vt 0.35714 0.50097
vt 0.39286 0.50097
vt 0.42857 0.50097
vt 0.46429 0.50097
vt 0.50000 0.50097
vt 0.53571 0.50097
vt 0.57143 0.50097
vt 0.60714 0.50097
vt 0.64286 0.50097
vt 0.67857 0.50097
vt 0.71429 0.50097
vt 0.75000 0.50097
vt 0.78571 0.50097
vt 0.82143 0.50097
vt 0.85714 0.50097
vt 0.89286 0.50097
vt 0.92857 0.50097
vt 0.96429 0.50097
vt 1.00000 0.50097
vn -0.90501 0.41978 -0.06894
vn -0.82408 0.50355 -0.25947
vn -0.70332 0.55922 -0.43887
vn -0.54878 0.58401 -0.59814
vn -0.36820 0.57666 -0.72931
vn -0.17064 0.53754 -0.82579
vn 0.03399 0.46862 -0.88275
vn 0.23543 0.37335 -0.89732
vn 0.42358 0.25651 -0.86878
vn 0.58901 0.12396 -0.79856
vn 0.72342 -0.01766 -0.69018
vn 0.82007 -0.16124 -0.54907
vn 0.87412 -0.29958 -0.38232
vn 0.88285 -0.42576 -0.19828
vn 0.84582 -0.53343 -0.00617
vn 0.76490 -0.61721 0.18435
vn 0.64414 -0.67288 0.36375
vn 0.48959 -0.69766 0.52303
vn 0.30901 -0.69031 0.65420
vn 0.11146 -0.65120 0.75068
vn -0.09317 -0.58228 0.80763
vn -0.29462 -0.48701 0.82221
vn -0.48277 -0.37017 0.79367
vn -0.64820 -0.23762 0.72345
vn -0.78261 -0.09600 0.61507
vn -0.87926 0.04758 0.47396
vn -0.93330 0.18593 0.30721
vn -0.94203 0.31210 0.12317
vn -0.90501 0.41978 -0.06894
vn -0.91449 0.40300 -0.03618
vn -0.84079 0.49116 -0.22765
vn -0.72642 0.55185 -0.40960
vn -0.57711 0.58201 -0.57289
vn -0.40035 0.58014 -0.70934
vn -0.20500 0.54632 -0.81210
vn -0.00085 0.48226 -0.87603
vn 0.20186 0.39116 -0.89791
vn 0.39296 0.27760 -0.87665
vn 0.56287 0.14727 -0.81332
vn 0.70307 0.00670 -0.71109
vn 0.80653 -0.13706 -0.57509
vn 0.86806 -0.27680 -0.41213
vn 0.88458 -0.40550 -0.23039
vn 0.85526 -0.51673 -0.03899
vn 0.78157 -0.60489 0.15249
vn 0.66720 -0.66558 0.33444
vn 0.51789 -0.69574 0.49773
vn 0.34113 -0.69387 0.63418
vn 0.14577 -0.66005 0.73694
vn -0.05838 -0.59599 0.80087
vn -0.26108 -0.50489 0.82275
vn -0.45218 -0.39133 0.80149
vn -0.62209 -0.26100 0.73816
vn -0.76229 -0.12043 0.63593
vn -0.86575 0.02333 0.49993
vn -0.92729 0.16306 0.33697
vn -0.94381 0.29177 0.15523
vn -0.91449 0.40300 -0.03618
vn -0.91450 0.40296 -0.03611
vn -0.84082 0.49114 -0.22759
vn -0.72647 0.55183 -0.40954
vn -0.57717 0.58201 -0.57284
vn -0.40041 0.58014 -0.70930
vn -0.20506 0.54634 -0.81207
vn -0.00092 0.48228 -0.87601
vn 0.20179 0.39120 -0.89791
vn 0.39290 0.27764 -0.87667
vn 0.56282 0.14731 -0.81335
vn 0.70303 0.00674 -0.71113
vn 0.80650 -0.13701 -0.57514
vn 0.86805 -0.27675 -0.41219
vn 0.88459 -0.40546 -0.23045
vn 0.85528 -0.51669 -0.03905
vn 0.78160 -0.60487 0.15243
vn 0.66724 -0.66556 0.33438
vn 0.51794 -0.69574 0.49768
vn 0.34119 -0.69387 0.63414
vn 0.14584 -0.66007 0.73691
vn -0.05831 -0.59601 0.80085
vn -0.26102 -0.50493 0.82275
vn -0.45212 -0.39137 0.80151
vn -0.62204 -0.26104 0.73819
vn -0.76225 -0.12048 0.63597
vn -0.86573 0.02328 0.49998
vn -0.92727 0.16302 0.33703
vn -0.94381 0.29173 0.15529
vn -0.91450 0.40296 -0.03611
vn -0.91452 0.40293 -0.03604
vn -0.84086 0.49111 -0.22752
vn -0.72652 0.55182 -0.40948
vn -0.57723 0.58200 -0.57279
vn -0.40048 0.58015 -0.70925
vn -0.20514 0.54635 -0.81204
vn -0.00099 0.48231 -0.87600
vn 0.20172 0.39123 -0.89791
vn 0.39283 0.27769 -0.87668
vn 0.56276 0.14736 -0.81338
vn 0.70298 0.00680 -0.71117
vn 0.80647 -0.13696 -0.57519
vn 0.86804 -0.27670 -0.41225
vn 0.88459 -0.40542 -0.23052
vn 0.85530 -0.51666 -0.03912
vn 0.78163 -0.60484 0.15236
vn 0.66729 -0.66555 0.33432
vn 0.51800 -0.69573 0.49762
vn 0.34126 -0.69388 0.63409
vn 0.14591 -0.66009 0.73688
vn -0.05823 -0.59604 0.80084
vn -0.26095 -0.50496 0.82275
vn -0.45206 -0.39142 0.80152
vn -0.62198 -0.26109 0.73822
vn -0.76221 -0.12053 0.63601
vn -0.86570 0.02323 0.50003
vn -0.92726 0.16297 0.33709
vn -0.94381 0.29169 0.15536
vn -0.91452 0.40293 -0.03604
vn -0.91454 0.40289 -0.03596
vn -0.84090 0.49108 -0.22745
vn -0.72657 0.55180 -0.40941
vn -0.57729 0.58199 -0.57272
vn -0.40056 0.58016 -0.70921
vn -0.20522 0.54637 -0.81201
vn -0.00107 0.48234 -0.87598
vn 0.20164 0.39127 -0.89791
vn 0.39276 0.27773 -0.87670
vn 0.56270 0.14742 -0.81341
vn 0.70293 0.00685 -0.71122
vn 0.80644 -0.13690 -0.57525
vn 0.86802 -0.27665 -0.41232
vn 0.88459 -0.40537 -0.23060
vn 0.85532 -0.51662 -0.03920
vn 0.78167 -0.60481 0.15229
vn 0.66735 -0.66553 0.33425
vn 0.51807 -0.69573 0.49756
vn 0.34133 -0.69389 0.63405
vn 0.14599 -0.66010 0.73685
vn -0.05815 -0.59607 0.80082
vn -0.26087 -0.50501 0.82275
vn -0.45198 -0.39147 0.80154
vn -0.62192 -0.26115 0.73825
vn -0.76216 -0.12058 0.63606
vn -0.86566 0.02317 0.50009
vn -0.92724 0.16292 0.33716
vn -0.94381 0.29164 0.15544
vn -0.91454 0.40289 -0.03596
vn -0.91457 0.40284 -0.03588
vn -0.84094 0.49105 -0.22736
vn -0.72663 0.55178 -0.40933
vn -0.57737 0.58199 -0.57266
vn -0.40064 0.58016 -0.70915
vn -0.20531 0.54640 -0.81197
vn -0.00116 0.48238 -0.87596
vn 0.20155 0.39132 -0.89791
vn 0.39268 0.27779 -0.87672
vn 0.56263 0.14748 -0.81345
vn 0.70288 0.00692 -0.71127
vn 0.80640 -0.13684 -0.57532
vn 0.86800 -0.27659 -0.41240
vn 0.88459 -0.40532 -0.23068
vn 0.85534 -0.51657 -0.03928
vn 0.78171 -0.60478 0.15220
vn 0.66740 -0.66551 0.33417
vn 0.51814 -0.69572 0.49750
vn 0.34141 -0.69389 0.63399
vn 0.14608 -0.66013 0.73681
vn -0.05806 -0.59611 0.80080
vn -0.26078 -0.50505 0.82275
vn -0.45190 -0.39152 0.80156
vn -0.62185 -0.26121 0.73829
vn -0.76210 -0.12065 0.63611
vn -0.86563 0.02311 0.50016
vn -0.92723 0.16286 0.33724
vn -0.94382 0.29159 0.15552
vn -0.91457 0.40284 -0.03588
vn -0.92248 0.38603 -0.00409
vn -0.85596 0.47836 -0.19623
vn -0.74800 0.54386 -0.38041
vn -0.60402 0.57924 -0.54740
vn -0.43123 0.58273 -0.68882
vn -0.23830 0.55414 -0.79758
vn -0.03491 0.49492 -0.86824
vn 0.16875 0.40803 -0.89724
vn 0.36246 0.29783 -0.88313
vn 0.53652 0.16985 -0.82662
vn 0.68218 0.03050 -0.73054
vn 0.79216 -0.11323 -0.59972
vn 0.86093 -0.25412 -0.44070
vn 0.88505 -0.38513 -0.26147
vn 0.86330 -0.49967 -0.07101
vn 0.79678 -0.59201 0.12112
vn 0.68882 -0.65751 0.30530
vn 0.54484 -0.69289 0.47229
vn 0.37205 -0.69637 0.61371
vn 0.17912 -0.66779 0.72248
vn -0.02427 -0.60857 0.79313
vn -0.22793 -0.52168 0.82213
vn -0.42164 -0.41148 0.80802
vn -0.59570 -0.28350 0.75152
vn -0.74136 -0.14415 0.65544
vn -0.85134 -0.00042 0.52461
vn -0.92011 0.14048 0.36560
vn -0.94423 0.27149 0.18637
vn -0.92248 0.38603 -0.00409
f 1/1/1 31/31/31 30/30/30
f 1/1/1 2/2/2 31/31/31
f 2/2/2 32/32/32 31/31/31
f 2/2/2 3/3/3 32/32/32
f 3/3/3 33/33/33 32/32/32
f 3/3/3 4/4/4 33/33/33
f 4/4/4 34/34/34 33/33/33
f 4/4/4 5/5/5 34/34/34
f 5/5/5 35/35/35 34/34/34
f 5/5/5 6/6/6 35/35/35
f 6/6/6 36/36/36 35/35/35
f 6/6/6 7/7/7 36/36/36
f 7/7/7 37/37/37 36/36/36
f 7/7/7 8/8/8 37/37/37
f 8/8/8 38/38/38 37/37/37
f 8/8/8 9/9/9 38/38/38
f 9/9/9 39/39/39 38/38/38
f 9/9/9 10/10/10 39/39/39
f 10/10/10 40/40/40 39/39/39
f 10/10/10 11/11/11 40/40/40
f 11/11/11 41/41/41 40/40/40
f 11/11/11 12/12/12 41/41/41
f 12/12/12 42/42/42 41/41/41
f 12/12/12 13/13/13 42/42/42
f 13/13/13 43/43/43 42/42/42
f 13/13/13 14/14/14 43/43/43
f 14/14/14 44/44/44 43/43/43
f 14/14/14 15/15/15 44/44/44
f 15/15/15 45/45/45 44/44/44
f 15/15/15 16/16/16 45/45/45
f 16/16/16 46/46/46 45/45/45
f 16/16/16 17/17/17 46/46/46
f 17/17/17 47/47/47 46/46/46
f 17/17/17 18/18/18 47/47/47
f 18/18/18 48/48/48 47/47/47
f 18/18/18 19/19/19 48/48/48
f 19/19/19 49/49/49 48/48/48
f 19/19/19 20/20/20 49/49/49
f 20/20/20 50/50/50 49/49/49
f 20/20/20 21/21/21 50/50/50
f 21/21/21 51/51/51 50/50/50
f 21/21/21 22/22/22 51/51/51
f 22/22/22 52/52/52 51/51/51
f 22/22/22 23/23/23 52/52/52
f 23/23/23 53/53/53 52/52/52
f 23/23/23 24/24/24 53/53/53
f 24/24/24 54/54/54 53/53/53
f 24/24/24 25/25/25 54/54/54
f 25/25/25 55/55/55 54/54/54
f 25/25/25 26/26/26 55/55/55
f 26/26/26 56/56/56 55/55/55
f 26/26/26 27/27/27 56/56/56
f 27/27/27 57/57/57 56/56/56
f 27/27/27 28/28/28 57/57/57
f 28/28/28 58/58/58 57/57/57
f 28/28/28 29/29/29 58/58/58
f 30/30/30 60/60/60 59/59/59
f 30/30/30 31/31/31 60/60/60
f 31/31/31 61/61/61 60/60/60
f 31/31/31 32/32/32 61/61/61
f 32/32/32 62/62/62 61/61/61
f 32/32/32 33/33/33 62/62/62
f 33/33/33 63/63/63 62/62/62
f 33/33/33 34/34/34 63/63/63
f 34/34/34 64/64/64 63/63/63
f 34/34/34 35/35/35 64/64/64
f 35/35/35 65/65/65 64/64/64
f 35/35/35 36/36/36 65/65/65
f 36/36/36 66/66/66 65/65/65
f 36/36/36 37/37/37 66/66/66
f 37/37/37 67/67/67 66/66/66
f 37/37/37 38/38/38 67/67/67
f 38/38/38 68/68/68 67/67/67
f 38/38/38 39/39/39 68/68/68
f 39/39/39 69/69/69 68/68/68
f 39/39/39 40/40/40 69/69/69
f 40/40/40 70/70/70 69/69/69
f 40/40/40 41/41/41 70/70/70
f 41/41/41 71/71/71 70/70/70
f 41/41/41 42/42/42 71/71/71
f 42/42/42 72/72/72 71/71/71
f 42/42/42 43/43/43 72/72/72
f 43/43/43 73/73/73 72/72/72
f 43/43/43 44/44/44 73/73/73
f 44/44/44 74/74/74 73/73/73
f 44/44/44 45/45/45 74/74/74
f 45/45/45 75/75/75 74/74/74
f 45/45/45 46/46/46 75/75/75
f 46/46/46 76/76/76 75/75/75
f 46/46/46 47/47/47 76/76/76
f 47/47/47 77/77/77 76/76/76
f 47/47/47 48/48/48 77/77/77
f 48/48/48 78/78/78 77/77/77
f 48/48/48 49/49/49 78/78/78
f 49/49/49 79/79/79 78/78/78
f 49/49/49 50/50/50 79/79/79
f 50/50/50 80/80/80 79/79/79
f 50/50/50 51/51/51 80/80/80
f 51/51/51 81/81/81 80/80/80
f 51/51/51 52/52/52 81/81/81
f 52/52/52 82/82/82 81/81/81
f 52/52/52 53/53/53 82/82/82
f 53/53/53 83/83/83 82/82/82
f 53/53/53 54/54/54 83/83/83
f 54/54/54 84/84/84 83/83/83
f 54/54/54 55/55/55 84/84/84
f 55/55/55 85/85/85 84/84/84
f 55/55/55 56/56/56 85/85/85
f 56/56/56 86/86/86 85/85/85
f 56/56/56 57/57/57 86/86/86
f 57/57/57 87/87/87 86/86/86
f 57/57/57 58/58/58 87/87/87
f 59/59/59 89/89/89 88/88/88
f 59/59/59 60/60/60 89/89/89
f 60/60/60 90/90/90 89/89/89
f 60/60/60 61/61/61 90/90/90
f 61/61/61 91/91/91 90/90/90
f 61/61/61 62/62/62 91/91/91
f 62/62/62 92/92/92 91/91/91
f 62/62/62 63/63/63 92/92/92
f 63/63/63 93/93/93 92/92/92
f 63/63/63 64/64/64 93/93/93
f 64/64/64 94/94/94 93/93/93
f 64/64/64 65/65/65 94/94/94
f 65/65/65 95/95/95 94/94/94
f 65/65/65 66/66/66 95/95/95
f 66/66/66 96/96/96 95/95/95
f 66/66/66 67/67/67 96/96/96
f 67/67/67 97/97/97 96/96/96
f 67/67/67 68/68/68 97/97/97
f 68/68/68 98/98/98 97/97/97
f 68/68/68 69/69/69 98/98/98
f 69/69/69 99/99/99 98/98/98
f 69/69/69 70/70/70 99/99/99
f 70/70/70 100/100/100 99/99/99
f 70/70/70 71/71/71 100/100/100
f 71/71/71 101/101/101 100/100/100
f 71/71/71 72/72/72 101/101/101
f 72/72/72 102/102/102 101/101/101
f 72/72/72 73/73/73 102/102/102
f 73/73/73 103/103/103 102/102/102
f 73/73/73 74/74/74 103/103/103
f 74/74/74 104/104/104 103/103/103
f 74/74/74 75/75/75 104/104/104
f 75/75/75 105/105/105 104/104/104
f 75/75/75 76/76/76 105/105/105
f 76/76/76 106/106/106 105/105/105
f 76/76/76 77/77/77 106/106/106
f 77/77/77 107/107/107 106/106/106
f 77/77/77 78/78/78 107/107/107
f 78/78/78 108/108/108 107/107/107
f 78/78/78 79/79/79 108/108/108
f 79/79/79 109/109/109 108/108/108
f 79/79/79 80/80/80 109/109/109
f 80/80/80 110/110/110 109/109/109
f 80/80/80 81/81/81 110/110/110
f 81/81/81 111/111/111 110/110/110
f 81/81/81 82/82/82 111/111/111
f 82/82/82 112/112/112 111/111/111
f 82/82/82 83/83/83 112/112/112
f 83/83/83 113/113/113 112/112/112
f 83/83/83 84/84/84 113/113/113
f 84/84/84 114/114/114 113/113/113
f 84/84/84 85/85/85 114/114/114
f 85/85/85 115/115/115 114/114/114
f 85/85/85 86/86/86 115/115/115
f 86/86/86 116/116/116 115/115/115
f 86/86/86 87/87/87 116/116/116
f 88/88/88 118/118/118 117/117/117
f 88/88/88 89/89/89 118/118/118
f 89/89/89 119/119/119 118/118/118
f 89/89/89 90/90/90 119/119/119
f 90/90/90 120/120/120 119/119/119
f 90/90/90 91/91/91 120/120/120
f 91/91/91 121/121/121 120/120/120
f 91/91/91 92/92/92 121/121/121
f 92/92/92 122/122/122 121/121/121
f 92/92/92 93/93/93 122/122/122
f 93/93/93 123/123/123 122/122/122
f 93/93/93 94/94/94 123/123/123
f 94/94/94 124/124/124 123/123/123
f 94/94/94 95/95/95 124/124/124
f 95/95/95 125/125/125 124/124/124
f 95/95/95 96/96/96 125/125/125
f 96/96/96 126/126/126 125/125/125
f 96/96/96 97/97/97 126/126/126
f 97/97/97 127/127/127 126/126/126
f 97/97/97 98/98/98 127/127/127
f 98/98/98 128/128/128 127/127/127
f 98/98/98 99/99/99 128/128/128
f 99/99/99 129/129/129 128/128/128
f 99/99/99 100/100/100 129/129/129
f 100/100/100 130/130/130 129/129/129
f 100/100/100 101/101/101 130/130/130
f 101/101/101 131/131/131 130/130/130
f 101/101/101 102/102/102 131/131/131
f 102/102/102 132/132/132 131/131/131
f 102/102/102 103/103/103 132/132/132
f 103/103/103 133/133/133 132/132/132
f 103/103/103 104/104/104 133/133/133
f 104/104/104 134/134/134 133/133/133
f 104/104/104 105/105/105 134/134/134
f 105/105/105 135/135/135 134/134/134
f 105/105/105 106/106/106 135/135/135
f 106/106/106 136/136/136 135/135/135
f 106/106/106 107/107/107 136/136/136
f 107/107/107 137/137/137 136/136/136
f 107/107/107 108/108/108 137/137/137
f 108/108/108 138/138/138 137/137/137
f 108/108/108 109/109/109 138/138/138
f 109/109/109 139/139/139 138/138/138
f 109/109/109 110/110/110 139/139/139
f 110/110/110 140/140/140 139/139/139
f 110/110/110 111/111/111 140/140/140
f 111/111/111 141/141/141 140/140/140
f 111/111/111 112/112/112 141/141/141
f 112/112/112 142/142/142 141/141/141
f 112/112/112 113/113/113 142/142/142
f 113/113/113 143/143/143 142/142/142
f 113/113/113 114/114/114 143/143/143
f 114/114/114 144/144/144 143/143/143
f 114/114/114 115/115/115 144/144/144
f 115/115/115 145/145/145 144/144/144
f 115/115/115 116/116/116 145/145/145
f 117/117/117 147/147/147 146/146/146
f 117/117/117 118/118/118 147/147/147
f 118/118/118 148/148/148 147/147/147
f 118/118/118 119/119/119 148/148/148
f 119/119/119 149/149/149 148/148/148
f 119/119/119 120/120/120 149/149/149
f 120/120/120 150/150/150 149/149/149
f 120/120/120 121/121/121 150/150/150
f 121/121/121 151/151/151 150/150/150
f 121/121/121 122/122/122 151/151/151
f 122/122/122 152/152/152 151/151/151
f 122/122/122 123/123/123 152/152/152
f 123/123/123 153/153/153 152/152/152
f 123/123/123 124/124/124 153/153/153
f 124/124/124 154/154/154 153/153/153
f 124/124/124 125/125/125 154/154/154
f 125/125/125 155/155/155 154/154/154
f 125/125/125 126/126/126 155/155/155
f 126/126/126 156/156/156 155/155/155
f 126/126/126 127/127/127 156/156/156
f 127/127/127 157/157/157 156/156/156
f 127/127/127 128/128/128 157/157/157
f 128/128/128 158/158/158 157/157/157
f 128/128/128 129/129/129 158/158/158
f 129/129/129 159/159/159 158/158/158
f 129/129/129 130/130/130 159/159/159
f 130/130/130 160/160/160 159/159/159
f 130/130/130 131/131/131 160/160/160
f 131/131/131 161/161/161 160/160/160
f 131/131/131 132/132/132 161/161/161
f 132/132/132 162/162/162 161/161/161
f 132/132/132 133/133/133 162/162/162
f 133/133/133 163/163/163 162/162/162
f 133/133/133 134/134/134 163/163/163
f 134/134/134 164/164/164 163/163/163
f 134/134/134 135/135/135 164/164/164
f 135/135/135 165/165/165 164/164/164
f 135/135/135 136/136/136 165/165/165
f 136/136/136 166/166/166 165/165/165
f 136/136/136 137/137/137 166/166/166
f 137/137/137 167/167/167 166/166/166
f 137/137/137 138/138/138 167/167/167
f 138/138/138 168/168/168 167/167/167
f 138/138/138 139/139/139 168/168/168
f 139/139/139 169/169/169 168/168/168
f 139/139/139 140/140/140 169/169/169
f 140/140/140 170/170/170 169/169/169
f 140/140/140 141/141/141 170/170/170
f 141/141/141 171/171/171 170/170/170
f 141/141/141 142/142/142 171/171/171
f 142/142/142 172/172/172 171/171/171
f 142/142/142 143/143/143 172/172/172
f 143/143/143 173/173/173 172/172/172
f 143/143/143 144/144/144 173/173/173
f 144/144/144 174/174/174 173/173/173
f 144/144/144 145/145/145 174/174/174
f 146/146/146 176/176/176 175/175/175
f 146/146/146 147/147/147 176/176/176
f 147/147/147 177/177/177 176/176/176
f 147/147/147 148/148/148 177/177/177
f 148/148/148 178/178/178 177/177/177
f 148/148/148 149/149/149 178/178/178
f 149/149/149 179/179/179 178/178/178
f 149/149/149 150/150/150 179/179/179
f 150/150/150 180/180/180 179/179/179
f 150/150/150 151/151/151 180/180/180
f 151/151/151 181/181/181 180/180/180
f 151/151/151 152/152/152 181/181/181
f 152/152/152 182/182/182 181/181/181
f 152/152/152 153/153/153 182/182/182
f 153/153/153 183/183/183 182/182/182
f 153/153/153 154/154/154 183/183/183
f 154/154/154 184/184/184 183/183/183
f 154/154/154 155/155/155 184/184/184
f 155/155/155 185/185/185 184/184/184
f 155/155/155 156/156/156 185/185/185
f 156/156/156 186/186/186 185/185/185
f 156/156/156 157/157/157 186/186/186
f 157/157/157 187/187/187 186/186/186
f 157/157/157 158/158/158 187/187/187
f 158/158/158 188/188/188 187/187/187
f 158/158/158 159/159/159 188/188/188
f 159/159/159 189/189/189 188/188/188
f 159/159/159 160/160/160 189/189/189
f 160/160/160 190/190/190 189/189/189
f 160/160/160 161/161/161 190/190/190
f 161/161/161 191/191/191 190/190/190
f 161/161/161 162/162/162 191/191/191
f 162/162/162 192/192/192 191/191/191
f 162/162/162 163/163/163 192/192/192
f 163/163/163 193/193/193 192/192/192
f 163/163/163 164/164/164 193/193/193
f 164/164/164 194/194/194 193/193/193
f 164/164/164 165/165/165 194/194/194
f 165/165/165 195/195/195 194/194/194
f 165/165/165 166/166/166 195/195/195
f 166/166/166 196/196/196 195/195/195
f 166/166/166 167/167/167 196/196/196
f 167/167/167 197/197/197 196/196/196
f 167/167/167 168/168/168 197/197/197
f 168/168/168 198/198/198 197/197/197
f 168/168/168 169/169/169 198/198/198
f 169/169/169 199/199/199 198/198/198
f 169/169/169 170/170/170 199/199/199
f 170/170/170 200/200/200 199/199/199
f 170/170/170 171/171/171 200/200/200
f 171/171/171 201/201/201 200/200/200
f 171/171/171 172/172/172 201/201/201
f 172/172/172 202/202/202 201/201/201
f 172/172/172 173/173/173 202/202/202
f 173/173/173 203/203/203 202/202/202
f 173/173/173 174/174/174 203/203/203
