# generated by tools/make_gecko_mesh.py -- do not hand-edit
v 0.019233 0.012139 0.000000
v 0.019233 0.011879 0.002840
v 0.019233 0.011108 0.005014
v 0.019233 0.009845 0.006826
v 0.019233 0.008120 0.008276
v 0.019233 0.005964 0.009337
v 0.019233 0.003379 0.009986
v 0.019233 0.000000 0.010204
v 0.019233 -0.003379 0.009986
v 0.019233 -0.005964 0.009337
v 0.019233 -0.008120 0.008276
v 0.019233 -0.009845 0.006826
v 0.019233 -0.011108 0.005014
v 0.019233 -0.011879 0.002840
v 0.019233 -0.012139 0.000000
v 0.019233 -0.011834 -0.002271
v 0.019233 -0.010936 -0.004427
v 0.019233 -0.009490 -0.006362
v 0.019233 -0.007568 -0.007978
v 0.019233 -0.005267 -0.009193
v 0.019233 -0.002701 -0.009948
v 0.019233 -0.000000 -0.010204
v 0.019233 0.002701 -0.009948
v 0.019233 0.005267 -0.009193
v 0.019233 0.007568 -0.007978
v 0.019233 0.009490 -0.006362
v 0.019233 0.010936 -0.004427
v 0.019233 0.011834 -0.002271
v 0.019233 0.012139 0.000000
v 0.018299 0.012207 0.000000
v 0.018299 0.011946 0.002863
v 0.018299 0.011170 0.005053
v 0.018299 0.009900 0.006880
v 0.018299 0.008166 0.008341
v 0.018299 0.005998 0.009411
v 0.018299 0.003398 0.010065
v 0.018299 0.000000 0.010284
v 0.018299 -0.003398 0.010065
v 0.018299 -0.005998 0.009411
v 0.018299 -0.008166 0.008341
v 0.018299 -0.009900 0.006880
v 0.018299 -0.011170 0.005053
v 0.018299 -0.011946 0.002863
v 0.018299 -0.012207 0.000000
v 0.018299 -0.011901 -0.002288
v 0.018299 -0.010998 -0.004462
v 0.018299 -0.009544 -0.006412
v 0.018299 -0.007611 -0.008041
v 0.018299 -0.005296 -0.009266
v 0.018299 -0.002716 -0.010027
v 0.018299 -0.000000 -0.010284
v 0.018299 0.002716 -0.010027
v 0.018299 0.005296 -0.009266
v 0.018299 0.007611 -0.008041
v 0.018299 0.009544 -0.006412
v 0.018299 0.010998 -0.004462
v 0.018299 0.011901 -0.002288
v 0.018299 0.012207 -0.000000
v 0.017365 0.012227 0.000000
v 0.017365 0.011966 0.002867
v 0.017365 0.011189 0.005061
v 0.017365 0.009916 0.006890
v 0.017365 0.008179 0.008353
v 0.017365 0.006008 0.009425
v 0.017365 0.003403 0.010079
v 0.017365 0.000000 0.010300
v 0.017365 -0.003403 0.010079
v 0.017365 -0.006008 0.009425
v 0.017365 -0.008179 0.008353
v 0.017365 -0.009916 0.006890
v 0.017365 -0.011189 0.005061
v 0.017365 -0.011966 0.002867
v 0.017365 -0.012227 0.000000
v 0.017365 -0.011920 -0.002292
v 0.017365 -0.011016 -0.004469
v 0.017365 -0.009559 -0.006422
v 0.017365 -0.007623 -0.008053
v 0.017365 -0.005305 -0.009280
v 0.017365 -0.002721 -0.010041
v 0.017365 -0.000000 -0.010300
v 0.017365 0.002721 -0.010041
v 0.017365 0.005305 -0.009280
v 0.017365 0.007623 -0.008053
v 0.017365 0.009559 -0.006422
v 0.017365 0.011016 -0.004469
v 0.017365 0.011920 -0.002292
v 0.017365 0.012227 -0.000000
v 0.016431 0.012283 0.000000
v 0.016431 0.012020 0.002879
v 0.016431 0.011240 0.005082
v 0.016431 0.009962 0.006919
v 0.016431 0.008217 0.008388
v 0.016431 0.006035 0.009464
v 0.016431 0.003419 0.010121
v 0.016431 0.000000 0.010343
v 0.016431 -0.003419 0.010121
v 0.016431 -0.006035 0.009464
v 0.016431 -0.008217 0.008388
v 0.016431 -0.009962 0.006919
v 0.016431 -0.011240 0.005082
v 0.016431 -0.012020 0.002879
v 0.016431 -0.012283 0.000000
v 0.016431 -0.011975 -0.002301
v 0.016431 -0.011067 -0.004487
v 0.016431 -0.009603 -0.006448
v 0.016431 -0.007658 -0.008086
v 0.016431 -0.005329 -0.009318
v 0.016431 -0.002733 -0.010083
v 0.016431 -0.000000 -0.010343
v 0.016431 0.002733 -0.010083
v 0.016431 0.005329 -0.009318
v 0.016431 0.007658 -0.008086
v 0.016431 0.009603 -0.006448
v 0.016431 0.011067 -0.004487
v 0.016431 0.011975 -0.002301
v 0.016431 0.012283 0.000000
v 0.015497 0.012370 0.000000
v 0.015497 0.012105 0.002897
v 0.015497 0.011319 0.005114
v 0.015497 0.010032 0.006963
v 0.015497 0.008274 0.008442
v 0.015497 0.006078 0.009525
v 0.015497 0.003443 0.010186
v 0.015497 0.000000 0.010409
v 0.015497 -0.003443 0.010186
v 0.015497 -0.006078 0.009525
v 0.015497 -0.008274 0.008442
v 0.015497 -0.010032 0.006963
v 0.015497 -0.011319 0.005114
v 0.015497 -0.012105 0.002897
v 0.015497 -0.012370 0.000000
v 0.015497 -0.012059 -0.002316
v 0.015497 -0.011145 -0.004516
v 0.015497 -0.009671 -0.006490
v 0.015497 -0.007712 -0.008138
v 0.015497 -0.005367 -0.009378
v 0.015497 -0.002752 -0.010148
v 0.015497 -0.000000 -0.010409
v 0.015497 0.002752 -0.010148
v 0.015497 0.005367 -0.009378
v 0.015497 0.007712 -0.008138
v 0.015497 0.009671 -0.006490
v 0.015497 0.011145 -0.004516
v 0.015497 0.012059 -0.002316
v 0.015497 0.012370 0.000000
v 0.014563 0.012481 0.000000
v 0.014563 0.012214 0.002921
v 0.014563 0.011421 0.005156
v 0.014563 0.010122 0.007020
v 0.014563 0.008349 0.008511
v 0.014563 0.006132 0.009603
v 0.014563 0.003474 0.010270
v 0.014563 0.000000 0.010494
v 0.014563 -0.003474 0.010270
v 0.014563 -0.006132 0.009603
v 0.014563 -0.008349 0.008511
v 0.014563 -0.010122 0.007020
v 0.014563 -0.011421 0.005156
v 0.014563 -0.012214 0.002921
v 0.014563 -0.012481 0.000000
v 0.014563 -0.012168 -0.002335
v 0.014563 -0.011245 -0.004553
v 0.014563 -0.009758 -0.006543
v 0.014563 -0.007782 -0.008205
v 0.014563 -0.005415 -0.009455
v 0.014563 -0.002777 -0.010231
v 0.014563 -0.000000 -0.010494
v 0.014563 0.002777 -0.010231
v 0.014563 0.005415 -0.009455
v 0.014563 0.007782 -0.008205
v 0.014563 0.009758 -0.006543
v 0.014563 0.011245 -0.004553
v 0.014563 0.012168 -0.002335
v 0.014563 0.012481 -0.000000
v 0.013629 0.012612 0.000000
v 0.013629 0.012342 0.002949
v 0.013629 0.011541 0.005205
v 0.013629 0.010229 0.007087
v 0.013629 0.008437 0.008592
v 0.013629 0.006197 0.009695
v 0.013629 0.003510 0.010368
v 0.013629 0.000000 0.010594
v 0.013629 -0.003510 0.010368
v 0.013629 -0.006197 0.009695
v 0.013629 -0.008437 0.008592
v 0.013629 -0.010229 0.007087
v 0.013629 -0.011541 0.005205
v 0.013629 -0.012342 0.002949
v 0.013629 -0.012612 0.000000
v 0.013629 -0.012296 -0.002357
v 0.013629 -0.011363 -0.004597
v 0.013629 -0.009860 -0.006606
v 0.013629 -0.007863 -0.008283
v 0.013629 -0.005472 -0.009545
v 0.013629 -0.002806 -0.010329
v 0.013629 -0.000000 -0.010594
v 0.013629 0.002806 -0.010329
v 0.013629 0.005472 -0.009545
v 0.013629 0.007863 -0.008283
v 0.013629 0.009860 -0.006606
v 0.013629 0.011363 -0.004597
v 0.013629 0.012296 -0.002357
v 0.013629 0.012612 -0.000000
v 0.012695 0.012757 0.000000
v 0.012695 0.012484 0.002980
v 0.012695 0.011673 0.005260
v 0.012695 0.010346 0.007161
v 0.012695 0.008533 0.008682
v 0.012695 0.006268 0.009796
v 0.012695 0.003551 0.010476
v 0.012695 0.000000 0.010705
v 0.012695 -0.003551 0.010476
v 0.012695 -0.006268 0.009796
v 0.012695 -0.008533 0.008682
v 0.012695 -0.010346 0.007161
v 0.012695 -0.011673 0.005260
v 0.012695 -0.012484 0.002980
v 0.012695 -0.012757 0.000000
v 0.012695 -0.012437 -0.002382
v 0.012695 -0.011493 -0.004645
v 0.012695 -0.009974 -0.006675
v 0.012695 -0.007954 -0.008370
v 0.012695 -0.005535 -0.009645
v 0.012695 -0.002839 -0.010437
v 0.012695 -0.000000 -0.010705
v 0.012695 0.002839 -0.010437
v 0.012695 0.005535 -0.009645
v 0.012695 0.007954 -0.008370
v 0.012695 0.009974 -0.006675
v 0.012695 0.011493 -0.004645
v 0.012695 0.012437 -0.002382
v 0.012695 0.012757 -0.000000
v 0.011761 0.012910 0.000000
v 0.011761 0.012634 0.003012
v 0.011761 0.011813 0.005318
v 0.011761 0.010470 0.007240
v 0.011761 0.008636 0.008777
v 0.011761 0.006343 0.009903
v 0.011761 0.003593 0.010591
v 0.011761 0.000000 0.010823
v 0.011761 -0.003593 0.010591
v 0.011761 -0.006343 0.009903
v 0.011761 -0.008636 0.008777
v 0.011761 -0.010470 0.007240
v 0.011761 -0.011813 0.005318
v 0.011761 -0.012634 0.003012
v 0.011761 -0.012910 0.000000
v 0.011761 -0.012586 -0.002408
v 0.011761 -0.011631 -0.004696
v 0.011761 -0.010093 -0.006748
v 0.011761 -0.008049 -0.008461
v 0.011761 -0.005601 -0.009751
v 0.011761 -0.002873 -0.010551
v 0.011761 -0.000000 -0.010823
v 0.011761 0.002873 -0.010551
v 0.011761 0.005601 -0.009751
v 0.011761 0.008049 -0.008461
v 0.011761 0.010093 -0.006748
v 0.011761 0.011631 -0.004696
v 0.011761 0.012586 -0.002408
v 0.011761 0.012910 -0.000000
v 0.010826 0.013066 0.000000
v 0.010826 0.012786 0.003046
v 0.010826 0.011956 0.005376
v 0.010826 0.010597 0.007320
v 0.010826 0.008740 0.008874
v 0.010826 0.006420 0.010013
v 0.010826 0.003637 0.010708
v 0.010826 0.000000 0.010942
v 0.010826 -0.003637 0.010708
v 0.010826 -0.006420 0.010013
v 0.010826 -0.008740 0.008874
v 0.010826 -0.010597 0.007320
v 0.010826 -0.011956 0.005376
v 0.010826 -0.012786 0.003046
v 0.010826 -0.013066 0.000000
v 0.010826 -0.012738 -0.002435
v 0.010826 -0.011772 -0.004748
v 0.010826 -0.010215 -0.006822
v 0.010826 -0.008146 -0.008555
v 0.010826 -0.005669 -0.009858
v 0.010826 -0.002907 -0.010668
v 0.010826 -0.000000 -0.010942
v 0.010826 0.002907 -0.010668
v 0.010826 0.005669 -0.009858
v 0.010826 0.008146 -0.008555
v 0.010826 0.010215 -0.006822
v 0.010826 0.011772 -0.004748
v 0.010826 0.012738 -0.002435
v 0.010826 0.013066 -0.000000
v 0.009892 0.013219 0.000000
v 0.009892 0.012936 0.003078
v 0.009892 0.012096 0.005434
v 0.009892 0.010721 0.007398
v 0.009892 0.008843 0.008969
v 0.009892 0.006495 0.010120
v 0.009892 0.003679 0.010823
v 0.009892 0.000000 0.011059
v 0.009892 -0.003679 0.010823
v 0.009892 -0.006495 0.010120
v 0.009892 -0.008843 0.008969
v 0.009892 -0.010721 0.007398
v 0.009892 -0.012096 0.005434
v 0.009892 -0.012936 0.003078
v 0.009892 -0.013219 0.000000
v 0.009892 -0.012887 -0.002461
v 0.009892 -0.011910 -0.004798
v 0.009892 -0.010335 -0.006895
v 0.009892 -0.008242 -0.008647
v 0.009892 -0.005735 -0.009964
v 0.009892 -0.002941 -0.010782
v 0.009892 -0.000000 -0.011059
v 0.009892 0.002941 -0.010782
v 0.009892 0.005735 -0.009964
v 0.009892 0.008242 -0.008647
v 0.009892 0.010335 -0.006895
v 0.009892 0.011910 -0.004798
v 0.009892 0.012887 -0.002461
v 0.009892 0.013219 -0.000000
v 0.008958 0.013364 0.000000
v 0.008958 0.013078 0.003109
v 0.008958 0.012229 0.005488
v 0.008958 0.010838 0.007472
v 0.008958 0.008940 0.009059
v 0.008958 0.006566 0.010222
v 0.008958 0.003720 0.010931
v 0.008958 0.000000 0.011170
v 0.008958 -0.003720 0.010931
v 0.008958 -0.006566 0.010222
v 0.008958 -0.008940 0.009059
v 0.008958 -0.010838 0.007472
v 0.008958 -0.012229 0.005488
v 0.008958 -0.013078 0.003109
v 0.008958 -0.013364 0.000000
v 0.008958 -0.013029 -0.002486
v 0.008958 -0.012040 -0.004847
v 0.008958 -0.010448 -0.006965
v 0.008958 -0.008332 -0.008733
v 0.008958 -0.005798 -0.010064
v 0.008958 -0.002974 -0.010890
v 0.008958 -0.000000 -0.011170
v 0.008958 0.002974 -0.010890
v 0.008958 0.005798 -0.010064
v 0.008958 0.008332 -0.008733
v 0.008958 0.010448 -0.006965
v 0.008958 0.012040 -0.004847
v 0.008958 0.013029 -0.002486
v 0.008958 0.013364 0.000000
v 0.008024 0.013495 0.000000
v 0.008024 0.013206 0.003137
v 0.008024 0.012349 0.005538
v 0.008024 0.010944 0.007539
v 0.008024 0.009027 0.009141
v 0.008024 0.006630 0.010313
v 0.008024 0.003756 0.011030
v 0.008024 0.000000 0.011271
v 0.008024 -0.003756 0.011030
v 0.008024 -0.006630 0.010313
v 0.008024 -0.009027 0.009141
v 0.008024 -0.010944 0.007539
v 0.008024 -0.012349 0.005538
v 0.008024 -0.013206 0.003137
v 0.008024 -0.013495 0.000000
v 0.008024 -0.013156 -0.002508
v 0.008024 -0.012158 -0.004890
v 0.008024 -0.010551 -0.007027
v 0.008024 -0.008414 -0.008812
v 0.008024 -0.005855 -0.010154
v 0.008024 -0.003003 -0.010988
v 0.008024 -0.000000 -0.011271
v 0.008024 0.003003 -0.010988
v 0.008024 0.005855 -0.010154
v 0.008024 0.008414 -0.008812
v 0.008024 0.010551 -0.007027
v 0.008024 0.012158 -0.004890
v 0.008024 0.013156 -0.002508
v 0.008024 0.013495 0.000000
v 0.007090 0.013606 0.000000
v 0.007090 0.013315 0.003161
v 0.007090 0.012451 0.005580
v 0.007090 0.011035 0.007596
v 0.007090 0.009102 0.009210
v 0.007090 0.006685 0.010391
v 0.007090 0.003787 0.011113
v 0.007090 0.000000 0.011356
v 0.007090 -0.003787 0.011113
v 0.007090 -0.006685 0.010391
v 0.007090 -0.009102 0.009210
v 0.007090 -0.011035 0.007596
v 0.007090 -0.012451 0.005580
v 0.007090 -0.013315 0.003161
v 0.007090 -0.013606 0.000000
v 0.007090 -0.013265 -0.002527
v 0.007090 -0.012259 -0.004927
v 0.007090 -0.010638 -0.007080
v 0.007090 -0.008483 -0.008878
v 0.007090 -0.005903 -0.010231
v 0.007090 -0.003028 -0.011071
v 0.007090 -0.000000 -0.011356
v 0.007090 0.003028 -0.011071
v 0.007090 0.005903 -0.010231
v 0.007090 0.008483 -0.008878
v 0.007090 0.010638 -0.007080
v 0.007090 0.012259 -0.004927
v 0.007090 0.013265 -0.002527
v 0.007090 0.013606 0.000000
v 0.006156 0.013693 0.000000
v 0.006156 0.013400 0.003179
v 0.006156 0.012530 0.005612
v 0.006156 0.011105 0.007641
v 0.006156 0.009160 0.009264
v 0.006156 0.006728 0.010452
v 0.006156 0.003811 0.011178
v 0.006156 0.000000 0.011422
v 0.006156 -0.003811 0.011178
v 0.006156 -0.006728 0.010452
v 0.006156 -0.009160 0.009264
v 0.006156 -0.011105 0.007641
v 0.006156 -0.012530 0.005612
v 0.006156 -0.013400 0.003179
v 0.006156 -0.013693 0.000000
v 0.006156 -0.013349 -0.002542
v 0.006156 -0.012337 -0.004956
v 0.006156 -0.010705 -0.007122
v 0.006156 -0.008537 -0.008930
v 0.006156 -0.005941 -0.010291
v 0.006156 -0.003047 -0.011136
v 0.006156 -0.000000 -0.011422
v 0.006156 0.003047 -0.011136
v 0.006156 0.005941 -0.010291
v 0.006156 0.008537 -0.008930
v 0.006156 0.010705 -0.007122
v 0.006156 0.012337 -0.004956
v 0.006156 0.013349 -0.002542
v 0.006156 0.013693 0.000000
v 0.005222 0.013749 0.000000
v 0.005222 0.013455 0.003191
v 0.005222 0.012581 0.005633
v 0.005222 0.011150 0.007669
v 0.005222 0.009197 0.009298
v 0.005222 0.006755 0.010491
v 0.005222 0.003827 0.011220
v 0.005222 0.000000 0.011465
v 0.005222 -0.003827 0.011220
v 0.005222 -0.006755 0.010491
v 0.005222 -0.009197 0.009298
v 0.005222 -0.011150 0.007669
v 0.005222 -0.012581 0.005633
v 0.005222 -0.013455 0.003191
v 0.005222 -0.013749 0.000000
v 0.005222 -0.013404 -0.002551
v 0.005222 -0.012387 -0.004974
v 0.005222 -0.010749 -0.007148
v 0.005222 -0.008572 -0.008964
v 0.005222 -0.005965 -0.010330
v 0.005222 -0.003059 -0.011178
v 0.005222 -0.000000 -0.011465
v 0.005222 0.003059 -0.011178
v 0.005222 0.005965 -0.010330
v 0.005222 0.008572 -0.008964
v 0.005222 0.010749 -0.007148
v 0.005222 0.012387 -0.004974
v 0.005222 0.013404 -0.002551
v 0.005222 0.013749 0.000000
v 0.004288 0.013769 -0.000000
v 0.004288 0.013474 0.003195
v 0.004288 0.012599 0.005641
v 0.004288 0.011167 0.007680
v 0.004288 0.009210 0.009311
v 0.004288 0.006765 0.010505
v 0.004288 0.003832 0.011235
v 0.004288 0.000000 0.011480
v 0.004288 -0.003832 0.011235
v 0.004288 -0.006765 0.010505
v 0.004288 -0.009210 0.009311
v 0.004288 -0.011167 0.007680
v 0.004288 -0.012599 0.005641
v 0.004288 -0.013474 0.003195
v 0.004288 -0.013769 0.000000
v 0.004288 -0.013423 -0.002555
v 0.004288 -0.012405 -0.004981
v 0.004288 -0.010765 -0.007158
v 0.004288 -0.008585 -0.008976
v 0.004288 -0.005974 -0.010343
v 0.004288 -0.003064 -0.011192
v 0.004288 -0.000000 -0.011480
v 0.004288 0.003064 -0.011192
v 0.004288 0.005974 -0.010343
v 0.004288 0.008585 -0.008976
v 0.004288 0.010765 -0.007158
v 0.004288 0.012405 -0.004981
v 0.004288 0.013423 -0.002555
v 0.004288 0.013769 -0.000000
v 0.003354 0.013777 0.000000
v 0.003354 0.013482 0.003198
v 0.003354 0.012607 0.005645
v 0.003354 0.011173 0.007686
v 0.003354 0.009216 0.009318
v 0.003354 0.006769 0.010514
v 0.003354 0.003835 0.011244
v 0.003354 0.000000 0.011490
v 0.003354 -0.003835 0.011244
v 0.003354 -0.006769 0.010514
v 0.003354 -0.009216 0.009318
v 0.003354 -0.011173 0.007686
v 0.003354 -0.012607 0.005645
v 0.003354 -0.013482 0.003198
v 0.003354 -0.013777 0.000000
v 0.003354 -0.013431 -0.002557
v 0.003354 -0.012413 -0.004985
v 0.003354 -0.010771 -0.007164
v 0.003354 -0.008590 -0.008983
v 0.003354 -0.005978 -0.010352
v 0.003354 -0.003066 -0.011202
v 0.003354 -0.000000 -0.011490
v 0.003354 0.003066 -0.011202
v 0.003354 0.005978 -0.010352
v 0.003354 0.008590 -0.008983
v 0.003354 0.010771 -0.007164
v 0.003354 0.012413 -0.004985
v 0.003354 0.013431 -0.002557
v 0.003354 0.013777 0.000000
v 0.002419 0.013800 0.000000
v 0.002419 0.013505 0.003205
v 0.002419 0.012628 0.005658
v 0.002419 0.011192 0.007703
v 0.002419 0.009231 0.009339
v 0.002419 0.006781 0.010538
v 0.002419 0.003841 0.011270
v 0.002419 0.000000 0.011516
v 0.002419 -0.003841 0.011270
v 0.002419 -0.006781 0.010538
v 0.002419 -0.009231 0.009339
v 0.002419 -0.011192 0.007703
v 0.002419 -0.012628 0.005658
v 0.002419 -0.013505 0.003205
v 0.002419 -0.013800 0.000000
v 0.002419 -0.013454 -0.002562
v 0.002419 -0.012433 -0.004996
v 0.002419 -0.010789 -0.007180
v 0.002419 -0.008604 -0.009003
v 0.002419 -0.005988 -0.010375
v 0.002419 -0.003071 -0.011227
v 0.002419 -0.000000 -0.011516
v 0.002419 0.003071 -0.011227
v 0.002419 0.005988 -0.010375
v 0.002419 0.008604 -0.009003
v 0.002419 0.010789 -0.007180
v 0.002419 0.012433 -0.004996
v 0.002419 0.013454 -0.002562
v 0.002419 0.013800 0.000000
v 0.001485 0.013835 0.000000
v 0.001485 0.013539 0.003216
v 0.001485 0.012660 0.005677
v 0.001485 0.011221 0.007730
v 0.001485 0.009255 0.009371
v 0.001485 0.006798 0.010574
v 0.001485 0.003851 0.011308
v 0.001485 0.000000 0.011555
v 0.001485 -0.003851 0.011308
v 0.001485 -0.006798 0.010574
v 0.001485 -0.009255 0.009371
v 0.001485 -0.011221 0.007730
v 0.001485 -0.012660 0.005677
v 0.001485 -0.013539 0.003216
v 0.001485 -0.013835 0.000000
v 0.001485 -0.013488 -0.002571
v 0.001485 -0.012465 -0.005014
v 0.001485 -0.010817 -0.007204
v 0.001485 -0.008626 -0.009034
v 0.001485 -0.006003 -0.010411
v 0.001485 -0.003079 -0.011265
v 0.001485 -0.000000 -0.011555
v 0.001485 0.003079 -0.011265
v 0.001485 0.006003 -0.010411
v 0.001485 0.008626 -0.009034
v 0.001485 0.010817 -0.007204
v 0.001485 0.012465 -0.005014
v 0.001485 0.013488 -0.002571
v 0.001485 0.013835 -0.000000
v 0.000551 0.013879 0.000000
v 0.000551 0.013582 0.003230
v 0.000551 0.012700 0.005702
v 0.000551 0.011256 0.007763
v 0.000551 0.009284 0.009411
v 0.000551 0.006819 0.010619
v 0.000551 0.003863 0.011356
v 0.000551 0.000000 0.011604
v 0.000551 -0.003863 0.011356
v 0.000551 -0.006819 0.010619
v 0.000551 -0.009284 0.009411
v 0.000551 -0.011256 0.007763
v 0.000551 -0.012700 0.005702
v 0.000551 -0.013582 0.003230
v 0.000551 -0.013879 0.000000
v 0.000551 -0.013531 -0.002582
v 0.000551 -0.012504 -0.005035
v 0.000551 -0.010851 -0.007235
v 0.000551 -0.008653 -0.009073
v 0.000551 -0.006022 -0.010455
v 0.000551 -0.003088 -0.011313
v 0.000551 -0.000000 -0.011604
v 0.000551 0.003088 -0.011313
v 0.000551 0.006022 -0.010455
v 0.000551 0.008653 -0.009073
v 0.000551 0.010851 -0.007235
v 0.000551 0.012504 -0.005035
v 0.000551 0.013531 -0.002582
v 0.000551 0.013879 0.000000
vt 0.00000 1.33264
vt 0.07143 1.33264
vt 0.14286 1.33264
vt 0.21429 1.33264
vt 0.28571 1.33264
vt 0.35714 1.33264
vt 0.42857 1.33264
vt 0.50000 1.33264
vt 0.57143 1.33264
vt 0.64286 1.33264
vt 0.71429 1.33264
vt 0.78571 1.33264
vt 0.85714 1.33264
vt 0.92857 1.33264
vt 1.00000 1.33264
vt 1.07143 1.33264
vt 1.14286 1.33264
vt 1.21429 1.33264
vt 1.28571 1.33264
vt 1.35714 1.33264
vt 1.42857 1.33264
vt 1.50000 1.33264
vt 1.57143 1.33264
vt 1.64286 1.33264
vt 1.71429 1.33264
vt 1.78571 1.33264
vt 1.85714 1.33264
vt 1.92857 1.33264
vt 2.00000 1.33264
vt 0.00000 1.36377
vt 0.07143 1.36377
vt 0.14286 1.36377
vt 0.21429 1.36377
vt 0.28571 1.36377
vt 0.35714 1.36377
vt 0.42857 1.36377
vt 0.50000 1.36377
vt 0.57143 1.36377
vt 0.64286 1.36377
vt 0.71429 1.36377
vt 0.78571 1.36377
vt 0.85714 1.36377
vt 0.92857 1.36377
vt 1.00000 1.36377
vt 1.07143 1.36377
vt 1.14286 1.36377
vt 1.21429 1.36377
vt 1.28571 1.36377
vt 1.35714 1.36377
vt 1.42857 1.36377
vt 1.50000 1.36377
vt 1.57143 1.36377
vt 1.64286 1.36377
vt 1.71429 1.36377
vt 1.78571 1.36377
vt 1.85714 1.36377
vt 1.92857 1.36377
vt 2.00000 1.36377
vt 0.00000 1.39491
vt 0.07143 1.39491
vt 0.14286 1.39491
vt 0.21429 1.39491
vt 0.28571 1.39491
vt 0.35714 1.39491
vt 0.42857 1.39491
vt 0.50000 1.39491
vt 0.57143 1.39491
vt 0.64286 1.39491
vt 0.71429 1.39491
vt 0.78571 1.39491
vt 0.85714 1.39491
vt 0.92857 1.39491
vt 1.00000 1.39491
vt 1.07143 1.39491
vt 1.14286 1.39491
vt 1.21429 1.39491
vt 1.28571 1.39491
vt 1.35714 1.39491
vt 1.42857 1.39491
vt 1.50000 1.39491
vt 1.57143 1.39491
vt 1.64286 1.39491
vt 1.71429 1.39491
vt 1.78571 1.39491
vt 1.85714 1.39491
vt 1.92857 1.39491
vt 2.00000 1.39491
vt 0.00000 1.42605
vt 0.07143 1.42605
vt 0.14286 1.42605
vt 0.21429 1.42605
vt 0.28571 1.42605
vt 0.35714 1.42605
vt 0.42857 1.42605
vt 0.50000 1.42605
vt 0.57143 1.42605
vt 0.64286 1.42605
vt 0.71429 1.42605
vt 0.78571 1.42605
vt 0.85714 1.42605
vt 0.92857 1.42605
vt 1.00000 1.42605
vt 1.07143 1.42605
vt 1.14286 1.42605
vt 1.21429 1.42605
vt 1.28571 1.42605
vt 1.35714 1.42605
vt 1.42857 1.42605
vt 1.50000 1.42605
vt 1.57143 1.42605
vt 1.64286 1.42605
vt 1.71429 1.42605
vt 1.78571 1.42605
vt 1.85714 1.42605
vt 1.92857 1.42605
vt 2.00000 1.42605
vt 0.00000 1.45718
vt 0.07143 1.45718
vt 0.14286 1.45718
vt 0.21429 1.45718
vt 0.28571 1.45718
vt 0.35714 1.45718
vt 0.42857 1.45718
vt 0.50000 1.45718
vt 0.57143 1.45718
vt 0.64286 1.45718
vt 0.71429 1.45718
vt 0.78571 1.45718
vt 0.85714 1.45718
vt 0.92857 1.45718
vt 1.00000 1.45718
vt 1.07143 1.45718
vt 1.14286 1.45718
vt 1.21429 1.45718
vt 1.28571 1.45718
vt 1.35714 1.45718
vt 1.42857 1.45718
vt 1.50000 1.45718
vt 1.57143 1.45718
vt 1.64286 1.45718
vt 1.71429 1.45718
vt 1.78571 1.45718
vt 1.85714 1.45718
vt 1.92857 1.45718
vt 2.00000 1.45718
vt 0.00000 1.48832
vt 0.07143 1.48832
vt 0.14286 1.48832
vt 0.21429 1.48832
vt 0.28571 1.48832
vt 0.35714 1.48832
vt 0.42857 1.48832
vt 0.50000 1.48832
vt 0.57143 1.48832
vt 0.64286 1.48832
vt 0.71429 1.48832
vt 0.78571 1.48832
vt 0.85714 1.48832
vt 0.92857 1.48832
vt 1.00000 1.48832
vt 1.07143 1.48832
vt 1.14286 1.48832
vt 1.21429 1.48832
vt 1.28571 1.48832
vt 1.35714 1.48832
vt 1.42857 1.48832
vt 1.50000 1.48832
vt 1.57143 1.48832
vt 1.64286 1.48832
vt 1.71429 1.48832
vt 1.78571 1.48832
vt 1.85714 1.48832
vt 1.92857 1.48832
vt 2.00000 1.48832
vt 0.00000 1.51946
vt 0.07143 1.51946
vt 0.14286 1.51946
vt 0.21429 1.51946
vt 0.28571 1.51946
vt 0.35714 1.51946
vt 0.42857 1.51946
vt 0.50000 1.51946
vt 0.57143 1.51946
vt 0.64286 1.51946
vt 0.71429 1.51946
vt 0.78571 1.51946
vt 0.85714 1.51946
vt 0.92857 1.51946
vt 1.00000 1.51946
vt 1.07143 1.51946
vt 1.14286 1.51946
vt 1.21429 1.51946
vt 1.28571 1.51946
vt 1.35714 1.51946
vt 1.42857 1.51946
vt 1.50000 1.51946
vt 1.57143 1.51946
vt 1.64286 1.51946
vt 1.71429 1.51946
vt 1.78571 1.51946
vt 1.85714 1.51946
vt 1.92857 1.51946
vt 2.00000 1.51946
vt 0.00000 1.55060
vt 0.07143 1.55060
vt 0.14286 1.55060
vt 0.21429 1.55060
vt 0.28571 1.55060
vt 0.35714 1.55060
vt 0.42857 1.55060
vt 0.50000 1.55060
vt 0.57143 1.55060
vt 0.64286 1.55060
vt 0.71429 1.55060
vt 0.78571 1.55060
vt 0.85714 1.55060
vt 0.92857 1.55060
vt 1.00000 1.55060
vt 1.07143 1.55060
vt 1.14286 1.55060
vt 1.21429 1.55060
vt 1.28571 1.55060
vt 1.35714 1.55060
vt 1.42857 1.55060
vt 1.50000 1.55060
vt 1.57143 1.55060
vt 1.64286 1.55060
vt 1.71429 1.55060
vt 1.78571 1.55060
vt 1.85714 1.55060
vt 1.92857 1.55060
vt 2.00000 1.55060
vt 0.00000 1.58173
vt 0.07143 1.58173
vt 0.14286 1.58173
vt 0.21429 1.58173
vt 0.28571 1.58173
vt 0.35714 1.58173
vt 0.42857 1.58173
vt 0.50000 1.58173
vt 0.57143 1.58173
vt 0.64286 1.58173
vt 0.71429 1.58173
vt 0.78571 1.58173
vt 0.85714 1.58173
vt 0.92857 1.58173
vt 1.00000 1.58173
vt 1.07143 1.58173
vt 1.14286 1.58173
vt 1.21429 1.58173
vt 1.28571 1.58173
vt 1.35714 1.58173
vt 1.42857 1.58173
vt 1.50000 1.58173
vt 1.57143 1.58173
vt 1.64286 1.58173
vt 1.71429 1.58173
vt 1.78571 1.58173
vt 1.85714 1.58173
vt 1.92857 1.58173
vt 2.00000 1.58173
vt 0.00000 1.61287
vt 0.07143 1.61287
vt 0.14286 1.61287
vt 0.21429 1.61287
vt 0.28571 1.61287
vt 0.35714 1.61287
vt 0.42857 1.61287
vt 0.50000 1.61287
vt 0.57143 1.61287
vt 0.64286 1.61287
vt 0.71429 1.61287
vt 0.78571 1.61287
vt 0.85714 1.61287
vt 0.92857 1.61287
vt 1.00000 1.61287
vt 1.07143 1.61287
vt 1.14286 1.61287
vt 1.21429 1.61287
vt 1.28571 1.61287
vt 1.35714 1.61287
vt 1.42857 1.61287
vt 1.50000 1.61287
vt 1.57143 1.61287
vt 1.64286 1.61287
vt 1.71429 1.61287
vt 1.78571 1.61287
vt 1.85714 1.61287
vt 1.92857 1.61287
vt 2.00000 1.61287
vt 0.00000 1.64401
vt 0.07143 1.64401
vt 0.14286 1.64401
vt 0.21429 1.64401
vt 0.28571 1.64401
vt 0.35714 1.64401
vt 0.42857 1.64401
vt 0.50000 1.64401
vt 0.57143 1.64401
vt 0.64286 1.64401
vt 0.71429 1.64401
vt 0.78571 1.64401
vt 0.85714 1.64401
vt 0.92857 1.64401
vt 1.00000 1.64401
vt 1.07143 1.64401
vt 1.14286 1.64401
vt 1.21429 1.64401
vt 1.28571 1.64401
vt 1.35714 1.64401
vt 1.42857 1.64401
vt 1.50000 1.64401
vt 1.57143 1.64401
vt 1.64286 1.64401
vt 1.71429 1.64401
vt 1.78571 1.64401
vt 1.85714 1.64401
vt 1.92857 1.64401
vt 2.00000 1.64401
vt 0.00000 1.67514
vt 0.07143 1.67514
vt 0.14286 1.67514
vt 0.21429 1.67514
vt 0.28571 1.67514
vt 0.35714 1.67514
vt 0.42857 1.67514
vt 0.50000 1.67514
vt 0.57143 1.67514
vt 0.64286 1.67514
vt 0.71429 1.67514
vt 0.78571 1.67514
vt 0.85714 1.67514
vt 0.92857 1.67514
vt 1.00000 1.67514
vt 1.07143 1.67514
vt 1.14286 1.67514
vt 1.21429 1.67514
vt 1.28571 1.67514
vt 1.35714 1.67514
vt 1.42857 1.67514
vt 1.50000 1.67514
vt 1.57143 1.67514
vt 1.64286 1.67514
vt 1.71429 1.67514
vt 1.78571 1.67514
vt 1.85714 1.67514
vt 1.92857 1.67514
vt 2.00000 1.67514
vt 0.00000 1.70628
vt 0.07143 1.70628
vt 0.14286 1.70628
vt 0.21429 1.70628
vt 0.28571 1.70628
vt 0.35714 1.70628
vt 0.42857 1.70628
vt 0.50000 1.70628
vt 0.57143 1.70628
vt 0.64286 1.70628
vt 0.71429 1.70628
vt 0.78571 1.70628
vt 0.85714 1.70628
vt 0.92857 1.70628
vt 1.00000 1.70628
vt 1.07143 1.70628
vt 1.14286 1.70628
vt 1.21429 1.70628
vt 1.28571 1.70628
vt 1.35714 1.70628
vt 1.42857 1.70628
vt 1.50000 1.70628
vt 1.57143 1.70628
vt 1.64286 1.70628
vt 1.71429 1.70628
vt 1.78571 1.70628
vt 1.85714 1.70628
vt 1.92857 1.70628
vt 2.00000 1.70628
vt 0.00000 1.73742
vt 0.07143 1.73742
vt 0.14286 1.73742
vt 0.21429 1.73742
vt 0.28571 1.73742
vt 0.35714 1.73742
vt 0.42857 1.73742
vt 0.50000 1.73742
vt 0.57143 1.73742
vt 0.64286 1.73742
vt 0.71429 1.73742
vt 0.78571 1.73742
vt 0.85714 1.73742
vt 0.92857 1.73742
vt 1.00000 1.73742
vt 1.07143 1.73742
vt 1.14286 1.73742
vt 1.21429 1.73742
vt 1.28571 1.73742
vt 1.35714 1.73742
vt 1.42857 1.73742
vt 1.50000 1.73742
vt 1.57143 1.73742
vt 1.64286 1.73742
vt 1.71429 1.73742
vt 1.78571 1.73742
vt 1.85714 1.73742
vt 1.92857 1.73742
vt 2.00000 1.73742
vt 0.00000 1.76855
vt 0.07143 1.76855
vt 0.14286 1.76855
vt 0.21429 1.76855
vt 0.28571 1.76855
vt 0.35714 1.76855
vt 0.42857 1.76855
vt 0.50000 1.76855
vt 0.57143 1.76855
vt 0.64286 1.76855
vt 0.71429 1.76855
vt 0.78571 1.76855
vt 0.85714 1.76855
vt 0.92857 1.76855
vt 1.00000 1.76855
vt 1.07143 1.76855
vt 1.14286 1.76855
vt 1.21429 1.76855
vt 1.28571 1.76855
vt 1.35714 1.76855
vt 1.42857 1.76855
vt 1.50000 1.76855
vt 1.57143 1.76855
vt 1.64286 1.76855
vt 1.71429 1.76855
vt 1.78571 1.76855
vt 1.85714 1.76855
vt 1.92857 1.76855
vt 2.00000 1.76855
vt 0.00000 1.79969
vt 0.07143 1.79969
vt 0.14286 1.79969
vt 0.21429 1.79969
vt 0.28571 1.79969
vt 0.35714 1.79969
vt 0.42857 1.79969
vt 0.50000 1.79969
vt 0.57143 1.79969
vt 0.64286 1.79969
vt 0.71429 1.79969
vt 0.78571 1.79969
vt 0.85714 1.79969
vt 0.92857 1.79969
vt 1.00000 1.79969
vt 1.07143 1.79969
vt 1.14286 1.79969
vt 1.21429 1.79969
vt 1.28571 1.79969
vt 1.35714 1.79969
vt 1.42857 1.79969
vt 1.50000 1.79969
vt 1.57143 1.79969
vt 1.64286 1.79969
vt 1.71429 1.79969
vt 1.78571 1.79969
vt 1.85714 1.79969
vt 1.92857 1.79969
vt 2.00000 1.79969
vt 0.00000 1.83083
vt 0.07143 1.83083
vt 0.14286 1.83083
vt 0.21429 1.83083
vt 0.28571 1.83083
vt 0.35714 1.83083
vt 0.42857 1.83083
vt 0.50000 1.83083
vt 0.57143 1.83083
vt 0.64286 1.83083
vt 0.71429 1.83083
vt 0.78571 1.83083
vt 0.85714 1.83083
vt 0.92857 1.83083
vt 1.00000 1.83083
vt 1.07143 1.83083
vt 1.14286 1.83083
vt 1.21429 1.83083
vt 1.28571 1.83083
vt 1.35714 1.83083
vt 1.42857 1.83083
vt 1.50000 1.83083
vt 1.57143 1.83083
vt 1.64286 1.83083
vt 1.71429 1.83083
vt 1.78571 1.83083
vt 1.85714 1.83083
vt 1.92857 1.83083
vt 2.00000 1.83083
vt 0.00000 1.86196
vt 0.07143 1.86196
vt 0.14286 1.86196
vt 0.21429 1.86196
vt 0.28571 1.86196
vt 0.35714 1.86196
vt 0.42857 1.86196
vt 0.50000 1.86196
vt 0.57143 1.86196
vt 0.64286 1.86196
vt 0.71429 1.86196
vt 0.78571 1.86196
vt 0.85714 1.86196
vt 0.92857 1.86196
vt 1.00000 1.86196
vt 1.07143 1.86196
vt 1.14286 1.86196
vt 1.21429 1.86196
vt 1.28571 1.86196
vt 1.35714 1.86196
vt 1.42857 1.86196
vt 1.50000 1.86196
vt 1.57143 1.86196
vt 1.64286 1.86196
vt 1.71429 1.86196
vt 1.78571 1.86196
vt 1.85714 1.86196
vt 1.92857 1.86196
vt 2.00000 1.86196
vt 0.00000 1.89310
vt 0.07143 1.89310
vt 0.14286 1.89310
vt 0.21429 1.89310
vt 0.28571 1.89310
vt 0.35714 1.89310
vt 0.42857 1.89310
vt 0.50000 1.89310
vt 0.57143 1.89310
vt 0.64286 1.89310
vt 0.71429 1.89310
vt 0.78571 1.89310
vt 0.85714 1.89310
vt 0.92857 1.89310
vt 1.00000 1.89310
vt 1.07143 1.89310
vt 1.14286 1.89310
vt 1.21429 1.89310
vt 1.28571 1.89310
vt 1.35714 1.89310
vt 1.42857 1.89310
vt 1.50000 1.89310
vt 1.57143 1.89310
vt 1.64286 1.89310
vt 1.71429 1.89310
vt 1.78571 1.89310
vt 1.85714 1.89310
vt 1.92857 1.89310
vt 2.00000 1.89310
vt 0.00000 1.92424
vt 0.07143 1.92424
vt 0.14286 1.92424
vt 0.21429 1.92424
vt 0.28571 1.92424
vt 0.35714 1.92424
vt 0.42857 1.92424
vt 0.50000 1.92424
vt 0.57143 1.92424
vt 0.64286 1.92424
vt 0.71429 1.92424
vt 0.78571 1.92424
vt 0.85714 1.92424
vt 0.92857 1.92424
vt 1.00000 1.92424
vt 1.07143 1.92424
vt 1.14286 1.92424
vt 1.21429 1.92424
vt 1.28571 1.92424
vt 1.35714 1.92424
vt 1.42857 1.92424
vt 1.50000 1.92424
vt 1.57143 1.92424
vt 1.64286 1.92424
vt 1.71429 1.92424
vt 1.78571 1.92424
vt 1.85714 1.92424
vt 1.92857 1.92424
vt 2.00000 1.92424
vt 0.00000 1.95537
vt 0.07143 1.95537
vt 0.14286 1.95537
vt 0.21429 1.95537
vt 0.28571 1.95537
vt 0.35714 1.95537
vt 0.42857 1.95537
vt 0.50000 1.95537
vt 0.57143 1.95537
vt 0.64286 1.95537
vt 0.71429 1.95537
vt 0.78571 1.95537
vt 0.85714 1.95537
vt 0.92857 1.95537
vt 1.00000 1.95537
vt 1.07143 1.95537
vt 1.14286 1.95537
vt 1.21429 1.95537
vt 1.28571 1.95537
vt 1.35714 1.95537
vt 1.42857 1.95537
vt 1.50000 1.95537
vt 1.57143 1.95537
vt 1.64286 1.95537
vt 1.71429 1.95537
vt 1.78571 1.95537
vt 1.85714 1.95537
vt 1.92857 1.95537
vt 2.00000 1.95537
vn 0.07347 0.99693 0.02702
vn 0.07589 0.96717 0.24254
vn 0.07991 0.86654 0.49267
vn 0.08345 0.70473 0.70455
vn 0.08557 0.50766 0.85730
vn 0.08623 0.30534 0.94833
vn 0.08589 0.11485 0.98966
vn 0.08556 -0.02157 0.99610
vn 0.08573 -0.17413 0.98098
vn 0.08549 -0.37194 0.92431
vn 0.08420 -0.57554 0.81343
vn 0.08156 -0.76438 0.63959
vn 0.07789 -0.90745 0.41288
vn 0.07441 -0.98408 0.16141
vn 0.07342 -0.99618 -0.04724
vn 0.07453 -0.95009 -0.30296
vn 0.07663 -0.84410 -0.53068
vn 0.07928 -0.69662 -0.71305
vn 0.08192 -0.52545 -0.84687
vn 0.08406 -0.34307 -0.93554
vn 0.08533 -0.15634 -0.98401
vn 0.08551 0.03163 -0.99584
vn 0.08457 0.21939 -0.97197
vn 0.08267 0.40514 -0.91051
vn 0.08014 0.58477 -0.80723
vn 0.07743 0.74967 -0.65727
vn 0.07509 0.88536 -0.45880
vn 0.07365 0.97305 -0.21851
vn 0.07347 0.99693 0.02702
vn 0.04643 0.99888 -0.00861
vn 0.04885 0.97838 0.20097
vn 0.04964 0.88984 0.45357
vn 0.05069 0.73698 0.67401
vn 0.05112 0.54319 0.83805
vn 0.05092 0.33926 0.93931
vn 0.04982 0.14374 0.98836
vn 0.05100 -0.00010 0.99870
vn 0.05279 -0.14398 0.98817
vn 0.05269 -0.33952 0.93912
vn 0.05277 -0.54343 0.83779
vn 0.05206 -0.73717 0.67370
vn 0.05036 -0.88996 0.45324
vn 0.04768 -0.97850 0.20067
vn 0.04836 -0.99879 -0.00888
vn 0.04721 -0.96406 -0.26145
vn 0.04742 -0.86704 -0.49598
vn 0.04800 -0.72517 -0.68690
vn 0.04883 -0.55674 -0.82925
vn 0.04973 -0.37523 -0.92560
vn 0.05049 -0.18838 -0.98080
vn 0.05099 0.00015 -0.99870
vn 0.05112 0.18866 -0.98071
vn 0.05087 0.37548 -0.92543
vn 0.05031 0.55695 -0.82902
vn 0.04954 0.72532 -0.68662
vn 0.04870 0.86714 -0.49568
vn 0.04794 0.96411 -0.26113
vn 0.04643 0.99888 -0.00861
vn 0.04128 0.99911 -0.00863
vn 0.03993 0.97878 0.20098
vn 0.03977 0.89029 0.45366
vn 0.03820 0.73749 0.67428
vn 0.03591 0.54367 0.83853
vn 0.03365 0.33962 0.93996
vn 0.03225 0.14392 0.98906
vn 0.03113 -0.00006 0.99952
vn 0.03128 -0.14409 0.98907
vn 0.03347 -0.33981 0.93990
vn 0.03599 -0.54387 0.83840
vn 0.03847 -0.73766 0.67408
vn 0.04028 -0.89039 0.45341
vn 0.04134 -0.97878 0.20072
vn 0.03985 -0.99917 -0.00886
vn 0.03994 -0.96439 -0.26146
vn 0.03836 -0.86743 -0.49607
vn 0.03629 -0.72562 -0.68714
vn 0.03422 -0.55720 -0.82968
vn 0.03254 -0.37561 -0.92621
vn 0.03147 -0.18862 -0.98155
vn 0.03113 0.00009 -0.99952
vn 0.03154 0.18879 -0.98151
vn 0.03267 0.37578 -0.92613
vn 0.03439 0.55737 -0.82955
vn 0.03647 0.72577 -0.68697
vn 0.03851 0.86755 -0.49585
vn 0.04003 0.96446 -0.26120
vn 0.04128 0.99911 -0.00863
vn 0.07663 0.99702 -0.00852
vn 0.07556 0.97672 0.20075
vn 0.07479 0.88837 0.45300
vn 0.07173 0.73591 0.67327
vn 0.06735 0.54255 0.83732
vn 0.06300 0.33893 0.93870
vn 0.05999 0.14360 0.98782
vn 0.05838 -0.00011 0.99829
vn 0.05917 -0.14393 0.98782
vn 0.06286 -0.33929 0.93858
vn 0.06743 -0.54291 0.83708
vn 0.07197 -0.73623 0.67289
vn 0.07522 -0.88857 0.45254
vn 0.07675 -0.97673 0.20027
vn 0.07542 -0.99711 -0.00895
vn 0.07490 -0.96239 -0.26114
vn 0.07198 -0.86568 -0.49540
vn 0.06812 -0.72420 -0.68621
vn 0.06426 -0.55614 -0.82860
vn 0.06109 -0.37490 -0.92505
vn 0.05907 -0.18823 -0.98035
vn 0.05839 0.00017 -0.99829
vn 0.05913 0.18856 -0.98028
vn 0.06121 0.37523 -0.92491
vn 0.06440 0.55646 -0.82838
vn 0.06827 0.72449 -0.68589
vn 0.07210 0.86591 -0.49498
vn 0.07497 0.96252 -0.26066
vn 0.07663 0.99702 -0.00852
vn 0.10584 0.99435 -0.00842
vn 0.10506 0.97406 0.20042
vn 0.10378 0.88589 0.45213
vn 0.09950 0.73388 0.67195
vn 0.09340 0.54109 0.83576
vn 0.08733 0.33805 0.93707
vn 0.08297 0.14322 0.98621
vn 0.08099 -0.00016 0.99671
vn 0.08231 -0.14366 0.98620
vn 0.08722 -0.33855 0.93690
vn 0.09347 -0.54160 0.83542
vn 0.09969 -0.73432 0.67144
vn 0.10412 -0.88618 0.45149
vn 0.10602 -0.97409 0.19977
vn 0.10486 -0.99445 -0.00901
vn 0.10382 -0.95982 -0.26071
vn 0.09980 -0.86342 -0.49452
vn 0.09448 -0.72237 -0.68502
vn 0.08915 -0.55477 -0.82721
vn 0.08477 -0.37398 -0.92355
vn 0.08195 -0.18775 -0.97879
vn 0.08100 0.00023 -0.99671
vn 0.08201 0.18821 -0.97870
vn 0.08487 0.37444 -0.92336
vn 0.08927 0.55521 -0.82690
vn 0.09461 0.72277 -0.68458
vn 0.09991 0.86373 -0.49395
vn 0.10388 0.95999 -0.26004
vn 0.10584 0.99435 -0.00842
vn 0.12900 0.99161 -0.00834
vn 0.12847 0.97132 0.20008
vn 0.12678 0.88334 0.45127
vn 0.12154 0.73176 0.67064
vn 0.11409 0.53956 0.83418
vn 0.10667 0.33712 0.93540
vn 0.10125 0.14282 0.98456
vn 0.09899 -0.00019 0.99509
vn 0.10075 -0.14335 0.98453
vn 0.10660 -0.33773 0.93519
vn 0.11416 -0.54018 0.83377
vn 0.12170 -0.73230 0.67002
vn 0.12705 -0.88369 0.45050
vn 0.12921 -0.97138 0.19930
vn 0.12824 -0.99170 -0.00906
vn 0.12677 -0.95718 -0.26027
vn 0.12189 -0.86108 -0.49365
vn 0.11543 -0.72045 -0.68383
vn 0.10893 -0.55332 -0.82581
vn 0.10360 -0.37301 -0.92203
vn 0.10017 -0.18724 -0.97719
vn 0.09900 0.00028 -0.99509
vn 0.10021 0.18780 -0.97708
vn 0.10368 0.37356 -0.92179
vn 0.10904 0.55386 -0.82544
vn 0.11553 0.72094 -0.68330
vn 0.12198 0.86146 -0.49296
vn 0.12682 0.95739 -0.25946
vn 0.12900 0.99161 -0.00834
vn 0.14620 0.98922 -0.00828
vn 0.14592 0.96891 0.19982
vn 0.14390 0.88106 0.45058
vn 0.13795 0.72983 0.66956
vn 0.12951 0.53815 0.83284
vn 0.12109 0.33625 0.93396
vn 0.11487 0.14244 0.98312
vn 0.11242 -0.00021 0.99366
vn 0.11452 -0.14304 0.98307
vn 0.12105 -0.33693 0.93372
vn 0.12956 -0.53884 0.83238
vn 0.13807 -0.73044 0.66887
vn 0.14410 -0.88147 0.44972
vn 0.14645 -0.96901 0.19894
vn 0.14566 -0.98929 -0.00909
vn 0.14384 -0.95485 -0.25993
vn 0.13833 -0.85899 -0.49296
vn 0.13103 -0.71870 -0.68286
vn 0.12368 -0.55198 -0.82464
vn 0.11765 -0.37209 -0.92071
vn 0.11376 -0.18676 -0.97580
vn 0.11243 0.00031 -0.99366
vn 0.11379 0.18739 -0.97567
vn 0.11771 0.37271 -0.92045
vn 0.12377 0.55258 -0.82422
vn 0.13111 0.71925 -0.68227
vn 0.13841 0.85942 -0.49219
vn 0.14389 0.95509 -0.25902
vn 0.14620 0.98922 -0.00828
vn 0.15755 0.98748 -0.00825
vn 0.15751 0.96712 0.19968
vn 0.15525 0.87934 0.45018
vn 0.14882 0.72832 0.66888
vn 0.13972 0.53699 0.83193
vn 0.13064 0.33552 0.93293
vn 0.12388 0.14213 0.98207
vn 0.12134 -0.00023 0.99261
vn 0.12368 -0.14277 0.98200
vn 0.13063 -0.33624 0.93267
vn 0.13977 -0.53773 0.83145
vn 0.14890 -0.72897 0.66815
vn 0.15537 -0.87978 0.44927
vn 0.15782 -0.96726 0.19875
vn 0.15723 -0.98752 -0.00911
vn 0.15515 -0.95313 -0.25976
vn 0.14923 -0.85739 -0.49256
vn 0.14137 -0.71732 -0.68226
vn 0.13347 -0.55087 -0.82385
vn 0.12697 -0.37132 -0.91978
vn 0.12278 -0.18636 -0.97478
vn 0.12135 0.00033 -0.99261
vn 0.12281 0.18703 -0.97465
vn 0.12702 0.37199 -0.91951
vn 0.13352 0.55152 -0.82341
vn 0.14143 0.71790 -0.68163
vn 0.14928 0.85785 -0.49174
vn 0.15519 0.95339 -0.25878
vn 0.15755 0.98748 -0.00825
vn 0.16315 0.98657 -0.00824
vn 0.16333 0.96615 0.19970
vn 0.16091 0.87834 0.45015
vn 0.15423 0.72736 0.66870
vn 0.14480 0.53620 0.83158
vn 0.13539 0.33499 0.93244
vn 0.12833 0.14189 0.98153
vn 0.12578 -0.00023 0.99206
vn 0.12828 -0.14255 0.98144
vn 0.13540 -0.33573 0.93218
vn 0.14484 -0.53696 0.83108
vn 0.15428 -0.72803 0.66796
vn 0.16096 -0.87880 0.44922
vn 0.16343 -0.96633 0.19875
vn 0.16304 -0.98658 -0.00912
vn 0.16078 -0.95219 -0.25978
vn 0.15465 -0.85644 -0.49254
vn 0.14651 -0.71642 -0.68212
vn 0.13833 -0.55010 -0.82356
vn 0.13162 -0.37076 -0.91936
vn 0.12728 -0.18606 -0.97426
vn 0.12579 0.00034 -0.99206
vn 0.12729 0.18674 -0.97413
vn 0.13164 0.37144 -0.91908
vn 0.13837 0.55076 -0.82311
vn 0.14655 0.71702 -0.68147
vn 0.15468 0.85692 -0.49170
vn 0.16080 0.95246 -0.25878
vn 0.16315 0.98657 -0.00824
vn 0.16303 0.98659 -0.00825
vn 0.16342 0.96609 0.19989
vn 0.16093 0.87815 0.45050
vn 0.15423 0.72702 0.66907
vn 0.14478 0.53582 0.83183
vn 0.13535 0.33469 0.93256
vn 0.12824 0.14176 0.98156
vn 0.12577 -0.00023 0.99206
vn 0.12834 -0.14240 0.98145
vn 0.13540 -0.33542 0.93229
vn 0.14481 -0.53657 0.83134
vn 0.15423 -0.72769 0.66834
vn 0.16091 -0.87862 0.44959
vn 0.16331 -0.96630 0.19896
vn 0.16314 -0.98656 -0.00912
vn 0.16077 -0.95212 -0.26002
vn 0.15464 -0.85623 -0.49292
vn 0.14650 -0.71607 -0.68248
vn 0.13832 -0.54972 -0.82382
vn 0.13161 -0.37044 -0.91949
vn 0.12727 -0.18588 -0.97429
vn 0.12578 0.00034 -0.99206
vn 0.12728 0.18656 -0.97416
vn 0.13162 0.37111 -0.91921
vn 0.13834 0.55037 -0.82338
vn 0.14651 0.71667 -0.68185
vn 0.15465 0.85670 -0.49209
vn 0.16078 0.95239 -0.25904
vn 0.16303 0.98659 -0.00825
vn 0.15721 0.98753 -0.00829
vn 0.15780 0.96696 0.20024
vn 0.15531 0.87878 0.45125
vn 0.14881 0.72732 0.66997
vn 0.13966 0.53586 0.83268
vn 0.13054 0.33463 0.93326
vn 0.12362 0.14172 0.98216
vn 0.12131 -0.00022 0.99261
vn 0.12386 -0.14233 0.98204
vn 0.13061 -0.33533 0.93300
vn 0.13968 -0.53658 0.83221
vn 0.14878 -0.72797 0.66928
vn 0.15522 -0.87924 0.45038
vn 0.15748 -0.96719 0.19936
vn 0.15752 -0.98747 -0.00912
vn 0.15513 -0.95294 -0.26048
vn 0.14920 -0.85675 -0.49368
vn 0.14133 -0.71629 -0.68334
vn 0.13343 -0.54973 -0.82462
vn 0.12695 -0.37037 -0.92017
vn 0.12276 -0.18583 -0.97488
vn 0.12132 0.00032 -0.99261
vn 0.12276 0.18647 -0.97476
vn 0.12694 0.37101 -0.91991
vn 0.13342 0.55036 -0.82420
vn 0.14132 0.71687 -0.68274
vn 0.14919 0.85721 -0.49289
vn 0.15513 0.95319 -0.25954
vn 0.15721 0.98753 -0.00829
vn 0.14562 0.98931 -0.00835
vn 0.14640 0.96864 0.20073
vn 0.14402 0.88015 0.45232
vn 0.13794 0.72820 0.67134
vn 0.12942 0.53630 0.83405
vn 0.12093 0.33480 0.93450
vn 0.11444 0.14178 0.98326
vn 0.11238 -0.00020 0.99367
vn 0.11482 -0.14233 0.98314
vn 0.12102 -0.33544 0.93426
vn 0.12942 -0.53696 0.83362
vn 0.13786 -0.72880 0.67071
vn 0.14384 -0.88059 0.45153
vn 0.14588 -0.96889 0.19993
vn 0.14615 -0.98922 -0.00911
vn 0.14382 -0.95454 -0.26111
vn 0.13829 -0.85795 -0.49477
vn 0.13098 -0.71704 -0.68462
vn 0.12364 -0.55011 -0.82589
vn 0.11762 -0.37053 -0.92134
vn 0.11373 -0.18589 -0.97597
vn 0.11239 0.00029 -0.99366
vn 0.11371 0.18648 -0.97586
vn 0.11759 0.37112 -0.92111
vn 0.12360 0.55069 -0.82551
vn 0.13094 0.71756 -0.68407
vn 0.13826 0.85837 -0.49405
vn 0.14380 0.95477 -0.26025
vn 0.14562 0.98931 -0.00835
vn 0.12819 0.99171 -0.00842
vn 0.12916 0.97097 0.20132
vn 0.12695 0.88211 0.45362
vn 0.12155 0.72954 0.67305
vn 0.11399 0.53706 0.83581
vn 0.10646 0.33516 0.93613
vn 0.10066 0.14191 0.98475
vn 0.09894 -0.00018 0.99509
vn 0.10119 -0.14240 0.98462
vn 0.10658 -0.33572 0.93591
vn 0.11398 -0.53763 0.83544
vn 0.12143 -0.73007 0.67250
vn 0.12670 -0.88249 0.45294
vn 0.12842 -0.97121 0.20063
vn 0.12894 -0.99161 -0.00909
vn 0.12674 -0.95675 -0.26186
vn 0.12185 -0.85967 -0.49611
vn 0.11538 -0.71819 -0.68621
vn 0.10889 -0.55080 -0.82750
vn 0.10357 -0.37089 -0.92288
vn 0.10014 -0.18606 -0.97742
vn 0.09895 0.00026 -0.99509
vn 0.10011 0.18657 -0.97733
vn 0.10352 0.37141 -0.92268
vn 0.10883 0.55130 -0.82718
vn 0.11531 0.71866 -0.68574
vn 0.12180 0.86004 -0.49548
vn 0.12671 0.95696 -0.26111
vn 0.12819 0.99171 -0.00842
vn 0.10481 0.99446 -0.00852
vn 0.10596 0.97365 0.20194
vn 0.10403 0.88439 0.45502
vn 0.09955 0.73117 0.67490
vn 0.09330 0.53802 0.83775
vn 0.08709 0.33565 0.93795
vn 0.08223 0.14211 0.98643
vn 0.08094 -0.00014 0.99672
vn 0.08291 -0.14250 0.98632
vn 0.08723 -0.33610 0.93778
vn 0.09327 -0.53849 0.83746
vn 0.09938 -0.73160 0.67446
vn 0.10370 -0.88471 0.45446
vn 0.10500 -0.97387 0.20138
vn 0.10579 -0.99435 -0.00906
vn 0.10380 -0.95929 -0.26266
vn 0.09978 -0.86169 -0.49753
vn 0.09446 -0.71960 -0.68793
vn 0.08913 -0.55168 -0.82928
vn 0.08476 -0.37139 -0.92460
vn 0.08193 -0.18630 -0.97907
vn 0.08095 0.00021 -0.99672
vn 0.08189 0.18672 -0.97900
vn 0.08468 0.37181 -0.92444
vn 0.08903 0.55209 -0.82902
vn 0.09436 0.71998 -0.68755
vn 0.09970 0.86199 -0.49702
vn 0.10375 0.95946 -0.26205
vn 0.10481 0.99446 -0.00852
vn 0.07537 0.99712 -0.00862
vn 0.07670 0.97627 0.20250
vn 0.07514 0.88664 0.45631
vn 0.07184 0.73280 0.67664
vn 0.06729 0.53902 0.83960
vn 0.06275 0.33618 0.93971
vn 0.05910 0.14233 0.98805
vn 0.05833 -0.00010 0.99830
vn 0.05993 -0.14260 0.98796
vn 0.06291 -0.33650 0.93958
vn 0.06724 -0.53936 0.83939
vn 0.07164 -0.73311 0.67632
vn 0.07473 -0.88688 0.45592
vn 0.07552 -0.97645 0.20211
vn 0.07657 -0.99702 -0.00901
vn 0.07490 -0.96178 -0.26338
vn 0.07199 -0.86370 -0.49884
vn 0.06814 -0.72103 -0.68955
vn 0.06428 -0.55260 -0.83097
vn 0.06111 -0.37193 -0.92625
vn 0.05906 -0.18657 -0.98067
vn 0.05834 0.00015 -0.99830
vn 0.05901 0.18687 -0.98061
vn 0.06102 0.37223 -0.92613
vn 0.06416 0.55289 -0.83078
vn 0.06802 0.72130 -0.68927
vn 0.07189 0.86392 -0.49848
vn 0.07484 0.96190 -0.26295
vn 0.07537 0.99712 -0.00862
vn 0.03982 0.99917 -0.00873
vn 0.04131 0.97833 0.20290
vn 0.04022 0.88843 0.45726
vn 0.03839 0.73412 0.67793
vn 0.03590 0.53985 0.84099
vn 0.03341 0.33663 0.94104
vn 0.03124 0.14253 0.98930
vn 0.03110 -0.00005 0.99952
vn 0.03222 -0.14267 0.98925
vn 0.03359 -0.33680 0.94098
vn 0.03584 -0.54003 0.84088
vn 0.03814 -0.73429 0.67777
vn 0.03973 -0.88855 0.45705
vn 0.03991 -0.97843 0.20269
vn 0.04125 -0.99911 -0.00894
vn 0.03998 -0.96372 -0.26389
vn 0.03844 -0.86528 -0.49981
vn 0.03638 -0.72218 -0.69075
vn 0.03432 -0.55336 -0.83224
vn 0.03261 -0.37239 -0.92750
vn 0.03150 -0.18681 -0.98189
vn 0.03110 0.00008 -0.99952
vn 0.03144 0.18697 -0.98186
vn 0.03250 0.37255 -0.92744
vn 0.03417 0.55352 -0.83214
vn 0.03623 0.72233 -0.69060
vn 0.03831 0.86540 -0.49962
vn 0.03991 0.96379 -0.26366
vn 0.03982 0.99917 -0.00873
vn 0.01491 0.99985 -0.00880
vn 0.01551 0.97906 0.20299
vn 0.01543 0.88905 0.45754
vn 0.01514 0.73459 0.67834
vn 0.01457 0.54016 0.84144
vn 0.01392 0.33681 0.94147
vn 0.01331 0.14261 0.98969
vn 0.01319 -0.00002 0.99991
vn 0.01344 -0.14268 0.98968
vn 0.01381 -0.33688 0.94145
vn 0.01436 -0.54023 0.84139
vn 0.01487 -0.73466 0.67828
vn 0.01512 -0.88910 0.45746
vn 0.01498 -0.97908 0.20291
vn 0.01536 -0.99984 -0.00888
vn 0.01506 -0.96440 -0.26402
vn 0.01477 -0.86584 -0.50010
vn 0.01436 -0.72259 -0.69112
vn 0.01393 -0.55364 -0.83264
vn 0.01356 -0.37257 -0.92790
vn 0.01331 -0.18692 -0.98229
vn 0.01319 0.00003 -0.99991
vn 0.01321 0.18698 -0.98227
vn 0.01338 0.37264 -0.92788
vn 0.01369 0.55370 -0.83260
vn 0.01411 0.72265 -0.69107
vn 0.01457 0.86589 -0.50003
vn 0.01495 0.96442 -0.26394
vn 0.01491 0.99985 -0.00880
vn 0.01722 0.99981 -0.00880
vn 0.01706 0.97904 0.20295
vn 0.01806 0.88905 0.45745
vn 0.01879 0.73461 0.67823
vn 0.01919 0.54019 0.84133
vn 0.01930 0.33683 0.94137
vn 0.01938 0.14262 0.98959
vn 0.01893 -0.00003 0.99982
vn 0.01866 -0.14271 0.98959
vn 0.01893 -0.33693 0.94134
vn 0.01888 -0.54028 0.84127
vn 0.01856 -0.73469 0.67815
vn 0.01799 -0.88910 0.45735
vn 0.01750 -0.97905 0.20285
vn 0.01664 -0.99982 -0.00888
vn 0.01710 -0.96438 -0.26397
vn 0.01743 -0.86585 -0.50000
vn 0.01786 -0.72262 -0.69101
vn 0.01830 -0.55367 -0.83253
vn 0.01866 -0.37260 -0.92780
vn 0.01889 -0.18692 -0.98219
vn 0.01893 0.00005 -0.99982
vn 0.01877 0.18702 -0.98218
vn 0.01846 0.37269 -0.92777
vn 0.01804 0.55376 -0.83248
vn 0.01759 0.72269 -0.69094
vn 0.01721 0.86590 -0.49992
vn 0.01697 0.96441 -0.26387
vn 0.01722 0.99981 -0.00880
vn 0.03144 0.99947 -0.00875
vn 0.03168 0.97870 0.20281
vn 0.03324 0.88879 0.45711
vn 0.03451 0.73446 0.67777
vn 0.03521 0.54013 0.84084
vn 0.03538 0.33681 0.94091
vn 0.03533 0.14260 0.98915
vn 0.03489 -0.00006 0.99939
vn 0.03476 -0.14276 0.98915
vn 0.03508 -0.33699 0.94085
vn 0.03496 -0.54031 0.84074
vn 0.03433 -0.73461 0.67762
vn 0.03319 -0.88889 0.45692
vn 0.03202 -0.97873 0.20263
vn 0.03097 -0.99948 -0.00891
vn 0.03145 -0.96407 -0.26378
vn 0.03201 -0.86564 -0.49965
vn 0.03277 -0.72252 -0.69058
vn 0.03359 -0.55364 -0.83208
vn 0.03429 -0.37259 -0.92736
vn 0.03475 -0.18691 -0.98176
vn 0.03488 0.00009 -0.99939
vn 0.03466 0.18708 -0.98173
vn 0.03413 0.37276 -0.92730
vn 0.03338 0.55379 -0.83198
vn 0.03256 0.72265 -0.69045
vn 0.03183 0.86574 -0.49949
vn 0.03135 0.96412 -0.26360
vn 0.03144 0.99947 -0.00875
vn 0.04246 0.99906 -0.00872
vn 0.04303 0.97832 0.20259
vn 0.04504 0.88852 0.45662
vn 0.04671 0.73436 0.67715
vn 0.04764 0.54015 0.84022
vn 0.04785 0.33687 0.94034
vn 0.04771 0.14262 0.98863
vn 0.04728 -0.00008 0.99888
vn 0.04728 -0.14283 0.98862
vn 0.04763 -0.33710 0.94026
vn 0.04746 -0.54039 0.84008
vn 0.04657 -0.73456 0.67694
vn 0.04500 -0.88865 0.45637
vn 0.04329 -0.97836 0.20234
vn 0.04211 -0.99907 -0.00893
vn 0.04259 -0.96372 -0.26349
vn 0.04333 -0.86544 -0.49914
vn 0.04435 -0.72247 -0.68998
vn 0.04546 -0.55368 -0.83149
vn 0.04642 -0.37265 -0.92681
vn 0.04706 -0.18694 -0.98124
vn 0.04727 0.00012 -0.99888
vn 0.04700 0.18717 -0.98120
vn 0.04630 0.37288 -0.92672
vn 0.04530 0.55389 -0.83136
vn 0.04419 0.72264 -0.68981
vn 0.04319 0.86557 -0.49892
vn 0.04251 0.96379 -0.26324
vn 0.04246 0.99906 -0.00872
vn 0.04698 0.99777 -0.04739
vn 0.04756 0.98549 0.16294
vn 0.04947 0.90796 0.41612
vn 0.05133 0.76367 0.64356
vn 0.05251 0.57405 0.81713
vn 0.05290 0.37045 0.92734
vn 0.05278 0.17319 0.98347
vn 0.05257 0.02130 0.99839
vn 0.05281 -0.11459 0.99201
vn 0.05322 -0.30449 0.95103
vn 0.05316 -0.50660 0.86054
vn 0.05230 -0.70414 0.70813
vn 0.05056 -0.86697 0.49579
vn 0.04839 -0.96852 0.24417
vn 0.04701 -0.99853 0.02704
vn 0.04706 -0.97426 -0.22048
vn 0.04768 -0.88551 -0.46217
vn 0.04872 -0.74873 -0.66108
vn 0.04997 -0.58322 -0.81078
vn 0.05117 -0.40357 -0.91352
vn 0.05208 -0.21827 -0.97450
vn 0.05254 -0.03124 -0.99813
vn 0.05247 0.15596 -0.98637
vn 0.05188 0.34210 -0.93823
vn 0.05089 0.52429 -0.85002
vn 0.04967 0.69581 -0.71650
vn 0.04846 0.84417 -0.53388
vn 0.04750 0.95117 -0.30500
vn 0.04698 0.99777 -0.04739
f 1/1/1 30/30/30 31/31/31
f 1/1/1 31/31/31 2/2/2
f 2/2/2 31/31/31 32/32/32
f 2/2/2 32/32/32 3/3/3
f 3/3/3 32/32/32 33/33/33
f 3/3/3 33/33/33 4/4/4
f 4/4/4 33/33/33 34/34/34
f 4/4/4 34/34/34 5/5/5
f 5/5/5 34/34/34 35/35/35
f 5/5/5 35/35/35 6/6/6
f 6/6/6 35/35/35 36/36/36
f 6/6/6 36/36/36 7/7/7
f 7/7/7 36/36/36 37/37/37
f 7/7/7 37/37/37 8/8/8
f 8/8/8 37/37/37 38/38/38
f 8/8/8 38/38/38 9/9/9
f 9/9/9 38/38/38 39/39/39
f 9/9/9 39/39/39 10/10/10
f 10/10/10 39/39/39 40/40/40
f 10/10/10 40/40/40 11/11/11
f 11/11/11 40/40/40 41/41/41
f 11/11/11 41/41/41 12/12/12
f 12/12/12 41/41/41 42/42/42
f 12/12/12 42/42/42 13/13/13
f 13/13/13 42/42/42 43/43/43
f 13/13/13 43/43/43 14/14/14
f 14/14/14 43/43/43 44/44/44
f 14/14/14 44/44/44 15/15/15
f 15/15/15 44/44/44 45/45/45
f 15/15/15 45/45/45 16/16/16
f 16/16/16 45/45/45 46/46/46
f 16/16/16 46/46/46 17/17/17
f 17/17/17 46/46/46 47/47/47
f 17/17/17 47/47/47 18/18/18
f 18/18/18 47/47/47 48/48/48
f 18/18/18 48/48/48 19/19/19
f 19/19/19 48/48/48 49/49/49
f 19/19/19 49/49/49 20/20/20
f 20/20/20 49/49/49 50/50/50
f 20/20/20 50/50/50 21/21/21
f 21/21/21 50/50/50 51/51/51
f 21/21/21 51/51/51 22/22/22
f 22/22/22 51/51/51 52/52/52
f 22/22/22 52/52/52 23/23/23
f 23/23/23 52/52/52 53/53/53
f 23/23/23 53/53/53 24/24/24
f 24/24/24 53/53/53 54/54/54
f 24/24/24 54/54/54 25/25/25
f 25/25/25 54/54/54 55/55/55
f 25/25/25 55/55/55 26/26/26
f 26/26/26 55/55/55 56/56/56
f 26/26/26 56/56/56 27/27/27
f 27/27/27 56/56/56 57/57/57
f 27/27/27 57/57/57 28/28/28
f 28/28/28 57/57/57 58/58/58
f 28/28/28 58/58/58 29/29/29
f 30/30/30 59/59/59 60/60/60
f 30/30/30 60/60/60 31/31/31
f 31/31/31 60/60/60 61/61/61
f 31/31/31 61/61/61 32/32/32
f 32/32/32 61/61/61 62/62/62
f 32/32/32 62/62/62 33/33/33
f 33/33/33 62/62/62 63/63/63
f 33/33/33 63/63/63 34/34/34
f 34/34/34 63/63/63 64/64/64
f 34/34/34 64/64/64 35/35/35
f 35/35/35 64/64/64 65/65/65
f 35/35/35 65/65/65 36/36/36
f 36/36/36 65/65/65 66/66/66
f 36/36/36 66/66/66 37/37/37
f 37/37/37 66/66/66 67/67/67
f 37/37/37 67/67/67 38/38/38
f 38/38/38 67/67/67 68/68/68
f 38/38/38 68/68/68 39/39/39
f 39/39/39 68/68/68 69/69/69
f 39/39/39 69/69/69 40/40/40
f 40/40/40 69/69/69 70/70/70
f 40/40/40 70/70/70 41/41/41
f 41/41/41 70/70/70 71/71/71
f 41/41/41 71/71/71 42/42/42
f 42/42/42 71/71/71 72/72/72
f 42/42/42 72/72/72 43/43/43
f 43/43/43 72/72/72 73/73/73
f 43/43/43 73/73/73 44/44/44
f 44/44/44 73/73/73 74/74/74
f 44/44/44 74/74/74 45/45/45
f 45/45/45 74/74/74 75/75/75
f 45/45/45 75/75/75 46/46/46
f 46/46/46 75/75/75 76/76/76
f 46/46/46 76/76/76 47/47/47
f 47/47/47 76/76/76 77/77/77
f 47/47/47 77/77/77 48/48/48
f 48/48/48 77/77/77 78/78/78
f 48/48/48 78/78/78 49/49/49
f 49/49/49 78/78/78 79/79/79
f 49/49/49 79/79/79 50/50/50
f 50/50/50 79/79/79 80/80/80
f 50/50/50 80/80/80 51/51/51
f 51/51/51 80/80/80 81/81/81
f 51/51/51 81/81/81 52/52/52
f 52/52/52 81/81/81 82/82/82
f 52/52/52 82/82/82 53/53/53
f 53/53/53 82/82/82 83/83/83
f 53/53/53 83/83/83 54/54/54
f 54/54/54 83/83/83 84/84/84
f 54/54/54 84/84/84 55/55/55
f 55/55/55 84/84/84 85/85/85
f 55/55/55 85/85/85 56/56/56
f 56/56/56 85/85/85 86/86/86
f 56/56/56 86/86/86 57/57/57
f 57/57/57 86/86/86 87/87/87
f 57/57/57 87/87/87 58/58/58
f 59/59/59 88/88/88 89/89/89
f 59/59/59 89/89/89 60/60/60
f 60/60/60 89/89/89 90/90/90
f 60/60/60 90/90/90 61/61/61
f 61/61/61 90/90/90 91/91/91
f 61/61/61 91/91/91 62/62/62
f 62/62/62 91/91/91 92/92/92
f 62/62/62 92/92/92 63/63/63
f 63/63/63 92/92/92 93/93/93
f 63/63/63 93/93/93 64/64/64
f 64/64/64 93/93/93 94/94/94
f 64/64/64 94/94/94 65/65/65
f 65/65/65 94/94/94 95/95/95
f 65/65/65 95/95/95 66/66/66
f 66/66/66 95/95/95 96/96/96
f 66/66/66 96/96/96 67/67/67
f 67/67/67 96/96/96 97/97/97
f 67/67/67 97/97/97 68/68/68
f 68/68/68 97/97/97 98/98/98
f 68/68/68 98/98/98 69/69/69
f 69/69/69 98/98/98 99/99/99
f 69/69/69 99/99/99 70/70/70
f 70/70/70 99/99/99 100/100/100
f 70/70/70 100/100/100 71/71/71
f 71/71/71 100/100/100 101/101/101
f 71/71/71 101/101/101 72/72/72
f 72/72/72 101/101/101 102/102/102
f 72/72/72 102/102/102 73/73/73
f 73/73/73 102/102/102 103/103/103
f 73/73/73 103/103/103 74/74/74
f 74/74/74 103/103/103 104/104/104
f 74/74/74 104/104/104 75/75/75
f 75/75/75 104/104/104 105/105/105
f 75/75/75 105/105/105 76/76/76
f 76/76/76 105/105/105 106/106/106
f 76/76/76 106/106/106 77/77/77
f 77/77/77 106/106/106 107/107/107
f 77/77/77 107/107/107 78/78/78
f 78/78/78 107/107/107 108/108/108
f 78/78/78 108/108/108 79/79/79
f 79/79/79 108/108/108 109/109/109
f 79/79/79 109/109/109 80/80/80
f 80/80/80 109/109/109 110/110/110
f 80/80/80 110/110/110 81/81/81
f 81/81/81 110/110/110 111/111/111
f 81/81/81 111/111/111 82/82/82
f 82/82/82 111/111/111 112/112/112
f 82/82/82 112/112/112 83/83/83
f 83/83/83 112/112/112 113/113/113
f 83/83/83 113/113/113 84/84/84
f 84/84/84 113/113/113 114/114/114
f 84/84/84 114/114/114 85/85/85
f 85/85/85 114/114/114 115/115/115
f 85/85/85 115/115/115 86/86/86
f 86/86/86 115/115/115 116/116/116
f 86/86/86 116/116/116 87/87/87
f 88/88/88 117/117/117 118/118/118
f 88/88/88 118/118/118 89/89/89
f 89/89/89 118/118/118 119/119/119
f 89/89/89 119/119/119 90/90/90
f 90/90/90 119/119/119 120/120/120
f 90/90/90 120/120/120 91/91/91
f 91/91/91 120/120/120 121/121/121
f 91/91/91 121/121/121 92/92/92
f 92/92/92 121/121/121 122/122/122
f 92/92/92 122/122/122 93/93/93
f 93/93/93 122/122/122 123/123/123
f 93/93/93 123/123/123 94/94/94
f 94/94/94 123/123/123 124/124/124
f 94/94/94 124/124/124 95/95/95
f 95/95/95 124/124/124 125/125/125
f 95/95/95 125/125/125 96/96/96
f 96/96/96 125/125/125 126/126/126
f 96/96/96 126/126/126 97/97/97
f 97/97/97 126/126/126 127/127/127
f 97/97/97 127/127/127 98/98/98
f 98/98/98 127/127/127 128/128/128
f 98/98/98 128/128/128 99/99/99
f 99/99/99 128/128/128 129/129/129
f 99/99/99 129/129/129 100/100/100
f 100/100/100 129/129/129 130/130/130
f 100/100/100 130/130/130 101/101/101
f 101/101/101 130/130/130 131/131/131
f 101/101/101 131/131/131 102/102/102
f 102/102/102 131/131/131 132/132/132
f 102/102/102 132/132/132 103/103/103
f 103/103/103 132/132/132 133/133/133
f 103/103/103 133/133/133 104/104/104
f 104/104/104 133/133/133 134/134/134
f 104/104/104 134/134/134 105/105/105
f 105/105/105 134/134/134 135/135/135
f 105/105/105 135/135/135 106/106/106
f 106/106/106 135/135/135 136/136/136
f 106/106/106 136/136/136 107/107/107
f 107/107/107 136/136/136 137/137/137
f 107/107/107 137/137/137 108/108/108
f 108/108/108 137/137/137 138/138/138
f 108/108/108 138/138/138 109/109/109
f 109/109/109 138/138/138 139/139/139
f 109/109/109 139/139/139 110/110/110
f 110/110/110 139/139/139 140/140/140
f 110/110/110 140/140/140 111/111/111
f 111/111/111 140/140/140 141/141/141
f 111/111/111 141/141/141 112/112/112
f 112/112/112 141/141/141 142/142/142
f 112/112/112 142/142/142 113/113/113
f 113/113/113 142/142/142 143/143/143
f 113/113/113 143/143/143 114/114/114
f 114/114/114 143/143/143 144/144/144
f 114/114/114 144/144/144 115/115/115
f 115/115/115 144/144/144 145/145/145
f 115/115/115 145/145/145 116/116/116
f 117/117/117 146/146/146 147/147/147
f 117/117/117 147/147/147 118/118/118
f 118/118/118 147/147/147 148/148/148
f 118/118/118 148/148/148 119/119/119
f 119/119/119 148/148/148 149/149/149
f 119/119/119 149/149/149 120/120/120
f 120/120/120 149/149/149 150/150/150
f 120/120/120 150/150/150 121/121/121
f 121/121/121 150/150/150 151/151/151
f 121/121/121 151/151/151 122/122/122
f 122/122/122 151/151/151 152/152/152
f 122/122/122 152/152/152 123/123/123
f 123/123/123 152/152/152 153/153/153
f 123/123/123 153/153/153 124/124/124
f 124/124/124 153/153/153 154/154/154
f 124/124/124 154/154/154 125/125/125
f 125/125/125 154/154/154 155/155/155
f 125/125/125 155/155/155 126/126/126
f 126/126/126 155/155/155 156/156/156
f 126/126/126 156/156/156 127/127/127
f 127/127/127 156/156/156 157/157/157
f 127/127/127 157/157/157 128/128/128
f 128/128/128 157/157/157 158/158/158
f 128/128/128 158/158/158 129/129/129
f 129/129/129 158/158/158 159/159/159
f 129/129/129 159/159/159 130/130/130
f 130/130/130 159/159/159 160/160/160
f 130/130/130 160/160/160 131/131/131
f 131/131/131 160/160/160 161/161/161
f 131/131/131 161/161/161 132/132/132
f 132/132/132 161/161/161 162/162/162
f 132/132/132 162/162/162 133/133/133
f 133/133/133 162/162/162 163/163/163
f 133/133/133 163/163/163 134/134/134
f 134/134/134 163/163/163 164/164/164
f 134/134/134 164/164/164 135/135/135
f 135/135/135 164/164/164 165/165/165
f 135/135/135 165/165/165 136/136/136
f 136/136/136 165/165/165 166/166/166
f 136/136/136 166/166/166 137/137/137
f 137/137/137 166/166/166 167/167/167
f 137/137/137 167/167/167 138/138/138
f 138/138/138 167/167/167 168/168/168
f 138/138/138 168/168/168 139/139/139
f 139/139/139 168/168/168 169/169/169
f 139/139/139 169/169/169 140/140/140
f 140/140/140 169/169/169 170/170/170
f 140/140/140 170/170/170 141/141/141
f 141/141/141 170/170/170 171/171/171
f 141/141/141 171/171/171 142/142/142
f 142/142/142 171/171/171 172/172/172
f 142/142/142 172/172/172 143/143/143
f 143/143/143 172/172/172 173/173/173
f 143/143/143 173/173/173 144/144/144
f 144/144/144 173/173/173 174/174/174
f 144/144/144 174/174/174 145/145/145
f 146/146/146 175/175/175 176/176/176
f 146/146/146 176/176/176 147/147/147
f 147/147/147 176/176/176 177/177/177
f 147/147/147 177/177/177 148/148/148
f 148/148/148 177/177/177 178/178/178
f 148/148/148 178/178/178 149/149/149
f 149/149/149 178/178/178 179/179/179
f 149/149/149 179/179/179 150/150/150
f 150/150/150 179/179/179 180/180/180
f 150/150/150 180/180/180 151/151/151
f 151/151/151 180/180/180 181/181/181
f 151/151/151 181/181/181 152/152/152
f 152/152/152 181/181/181 182/182/182
f 152/152/152 182/182/182 153/153/153
f 153/153/153 182/182/182 183/183/183
f 153/153/153 183/183/183 154/154/154
f 154/154/154 183/183/183 184/184/184
f 154/154/154 184/184/184 155/155/155
f 155/155/155 184/184/184 185/185/185
f 155/155/155 185/185/185 156/156/156
f 156/156/156 185/185/185 186/186/186
f 156/156/156 186/186/186 157/157/157
f 157/157/157 186/186/186 187/187/187
f 157/157/157 187/187/187 158/158/158
f 158/158/158 187/187/187 188/188/188
f 158/158/158 188/188/188 159/159/159
f 159/159/159 188/188/188 189/189/189
f 159/159/159 189/189/189 160/160/160
f 160/160/160 189/189/189 190/190/190
f 160/160/160 190/190/190 161/161/161
f 161/161/161 190/190/190 191/191/191
f 161/161/161 191/191/191 162/162/162
f 162/162/162 191/191/191 192/192/192
f 162/162/162 192/192/192 163/163/163
f 163/163/163 192/192/192 193/193/193
f 163/163/163 193/193/193 164/164/164
f 164/164/164 193/193/193 194/194/194
f 164/164/164 194/194/194 165/165/165
f 165/165/165 194/194/194 195/195/195
f 165/165/165 195/195/195 166/166/166
f 166/166/166 195/195/195 196/196/196
f 166/166/166 196/196/196 167/167/167
f 167/167/167 196/196/196 197/197/197
f 167/167/167 197/197/197 168/168/168
f 168/168/168 197/197/197 198/198/198
f 168/168/168 198/198/198 169/169/169
f 169/169/169 198/198/198 199/199/199
f 169/169/169 199/199/199 170/170/170
f 170/170/170 199/199/199 200/200/200
f 170/170/170 200/200/200 171/171/171
f 171/171/171 200/200/200 201/201/201
f 171/171/171 201/201/201 172/172/172
f 172/172/172 201/201/201 202/202/202
f 172/172/172 202/202/202 173/173/173
f 173/173/173 202/202/202 203/203/203
f 173/173/173 203/203/203 174/174/174
f 175/175/175 204/204/204 205/205/205
f 175/175/175 205/205/205 176/176/176
f 176/176/176 205/205/205 206/206/206
f 176/176/176 206/206/206 177/177/177
f 177/177/177 206/206/206 207/207/207
f 177/177/177 207/207/207 178/178/178
f 178/178/178 207/207/207 208/208/208
f 178/178/178 208/208/208 179/179/179
f 179/179/179 208/208/208 209/209/209
f 179/179/179 209/209/209 180/180/180
f 180/180/180 209/209/209 210/210/210
f 180/180/180 210/210/210 181/181/181
f 181/181/181 210/210/210 211/211/211
f 181/181/181 211/211/211 182/182/182
f 182/182/182 211/211/211 212/212/212
f 182/182/182 212/212/212 183/183/183
f 183/183/183 212/212/212 213/213/213
f 183/183/183 213/213/213 184/184/184
f 184/184/184 213/213/213 214/214/214
f 184/184/184 214/214/214 185/185/185
f 185/185/185 214/214/214 215/215/215
f 185/185/185 215/215/215 186/186/186
f 186/186/186 215/215/215 216/216/216
f 186/186/186 216/216/216 187/187/187
f 187/187/187 216/216/216 217/217/217
f 187/187/187 217/217/217 188/188/188
f 188/188/188 217/217/217 218/218/218
f 188/188/188 218/218/218 189/189/189
f 189/189/189 218/218/218 219/219/219
f 189/189/189 219/219/219 190/190/190
f 190/190/190 219/219/219 220/220/220
f 190/190/190 220/220/220 191/191/191
f 191/191/191 220/220/220 221/221/221
f 191/191/191 221/221/221 192/192/192
f 192/192/192 221/221/221 222/222/222
f 192/192/192 222/222/222 193/193/193
f 193/193/193 222/222/222 223/223/223
f 193/193/193 223/223/223 194/194/194
f 194/194/194 223/223/223 224/224/224
f 194/194/194 224/224/224 195/195/195
f 195/195/195 224/224/224 225/225/225
f 195/195/195 225/225/225 196/196/196
f 196/196/196 225/225/225 226/226/226
f 196/196/196 226/226/226 197/197/197
f 197/197/197 226/226/226 227/227/227
f 197/197/197 227/227/227 198/198/198
f 198/198/198 227/227/227 228/228/228
f 198/198/198 228/228/228 199/199/199
f 199/199/199 228/228/228 229/229/229
f 199/199/199 229/229/229 200/200/200
f 200/200/200 229/229/229 230/230/230
f 200/200/200 230/230/230 201/201/201
f 201/201/201 230/230/230 231/231/231
f 201/201/201 231/231/231 202/202/202
f 202/202/202 231/231/231 232/232/232
f 202/202/202 232/232/232 203/203/203
f 204/204/204 233/233/233 234/234/234
f 204/204/204 234/234/234 205/205/205
f 205/205/205 234/234/234 235/235/235
f 205/205/205 235/235/235 206/206/206
f 206/206/206 235/235/235 236/236/236
f 206/206/206 236/236/236 207/207/207
f 207/207/207 236/236/236 237/237/237
f 207/207/207 237/237/237 208/208/208
f 208/208/208 237/237/237 238/238/238
f 208/208/208 238/238/238 209/209/209
f 209/209/209 238/238/238 239/239/239
f 209/209/209 239/239/239 210/210/210
f 210/210/210 239/239/239 240/240/240
f 210/210/210 240/240/240 211/211/211
f 211/211/211 240/240/240 241/241/241
f 211/211/211 241/241/241 212/212/212
f 212/212/212 241/241/241 242/242/242
f 212/212/212 242/242/242 213/213/213
f 213/213/213 242/242/242 243/243/243
f 213/213/213 243/243/243 214/214/214
f 214/214/214 243/243/243 244/244/244
f 214/214/214 244/244/244 215/215/215
f 215/215/215 244/244/244 245/245/245
f 215/215/215 245/245/245 216/216/216
f 216/216/216 245/245/245 246/246/246
f 216/216/216 246/246/246 217/217/217
f 217/217/217 246/246/246 247/247/247
f 217/217/217 247/247/247 218/218/218
f 218/218/218 247/247/247 248/248/248
f 218/218/218 248/248/248 219/219/219
f 219/219/219 248/248/248 249/249/249
f 219/219/219 249/249/249 220/220/220
f 220/220/220 249/249/249 250/250/250
f 220/220/220 250/250/250 221/221/221
f 221/221/221 250/250/250 251/251/251
f 221/221/221 251/251/251 222/222/222
f 222/222/222 251/251/251 252/252/252
f 222/222/222 252/252/252 223/223/223
f 223/223/223 252/252/252 253/253/253
f 223/223/223 253/253/253 224/224/224
f 224/224/224 253/253/253 254/254/254
f 224/224/224 254/254/254 225/225/225
f 225/225/225 254/254/254 255/255/255
f 225/225/225 255/255/255 226/226/226
f 226/226/226 255/255/255 256/256/256
f 226/226/226 256/256/256 227/227/227
f 227/227/227 256/256/256 257/257/257
f 227/227/227 257/257/257 228/228/228
f 228/228/228 257/257/257 258/258/258
f 228/228/228 258/258/258 229/229/229
f 229/229/229 258/258/258 259/259/259
f 229/229/229 259/259/259 230/230/230
f 230/230/230 259/259/259 260/260/260
f 230/230/230 260/260/260 231/231/231
f 231/231/231 260/260/260 261/261/261
f 231/231/231 261/261/261 232/232/232
f 233/233/233 262/262/262 263/263/263
f 233/233/233 263/263/263 234/234/234
f 234/234/234 263/263/263 264/264/264
f 234/234/234 264/264/264 235/235/235
f 235/235/235 264/264/264 265/265/265
f 235/235/235 265/265/265 236/236/236
f 236/236/236 265/265/265 266/266/266
f 236/236/236 266/266/266 237/237/237
f 237/237/237 266/266/266 267/267/267
f 237/237/237 267/267/267 238/238/238
f 238/238/238 267/267/267 268/268/268
f 238/238/238 268/268/268 239/239/239
f 239/239/239 268/268/268 269/269/269
f 239/239/239 269/269/269 240/240/240
f 240/240/240 269/269/269 270/270/270
f 240/240/240 270/270/270 241/241/241
f 241/241/241 270/270/270 271/271/271
f 241/241/241 271/271/271 242/242/242
f 242/242/242 271/271/271 272/272/272
f 242/242/242 272/272/272 243/243/243
f 243/243/243 272/272/272 273/273/273
f 243/243/243 273/273/273 244/244/244
f 244/244/244 273/273/273 274/274/274
f 244/244/244 274/274/274 245/245/245
f 245/245/245 274/274/274 275/275/275
f 245/245/245 275/275/275 246/246/246
f 246/246/246 275/275/275 276/276/276
f 246/246/246 276/276/276 247/247/247
f 247/247/247 276/276/276 277/277/277
f 247/247/247 277/277/277 248/248/248
f 248/248/248 277/277/277 278/278/278
f 248/248/248 278/278/278 249/249/249
f 249/249/249 278/278/278 279/279/279
f 249/249/249 279/279/279 250/250/250
f 250/250/250 279/279/279 280/280/280
f 250/250/250 280/280/280 251/251/251
f 251/251/251 280/280/280 281/281/281
f 251/251/251 281/281/281 252/252/252
f 252/252/252 281/281/281 282/282/282
f 252/252/252 282/282/282 253/253/253
f 253/253/253 282/282/282 283/283/283
f 253/253/253 283/283/283 254/254/254
f 254/254/254 283/283/283 284/284/284
f 254/254/254 284/284/284 255/255/255
f 255/255/255 284/284/284 285/285/285
f 255/255/255 285/285/285 256/256/256
f 256/256/256 285/285/285 286/286/286
f 256/256/256 286/286/286 257/257/257
f 257/257/257 286/286/286 287/287/287
f 257/257/257 287/287/287 258/258/258
f 258/258/258 287/287/287 288/288/288
f 258/258/258 288/288/288 259/259/259
f 259/259/259 288/288/288 289/289/289
f 259/259/259 289/289/289 260/260/260
f 260/260/260 289/289/289 290/290/290
f 260/260/260 290/290/290 261/261/261
f 262/262/262 291/291/291 292/292/292
f 262/262/262 292/292/292 263/263/263
f 263/263/263 292/292/292 293/293/293
f 263/263/263 293/293/293 264/264/264
f 264/264/264 293/293/293 294/294/294
f 264/264/264 294/294/294 265/265/265
f 265/265/265 294/294/294 295/295/295
f 265/265/265 295/295/295 266/266/266
f 266/266/266 295/295/295 296/296/296
f 266/266/266 296/296/296 267/267/267
f 267/267/267 296/296/296 297/297/297
f 267/267/267 297/297/297 268/268/268
f 268/268/268 297/297/297 298/298/298
f 268/268/268 298/298/298 269/269/269
f 269/269/269 298/298/298 299/299/299
f 269/269/269 299/299/299 270/270/270
f 270/270/270 299/299/299 300/300/300
f 270/270/270 300/300/300 271/271/271
f 271/271/271 300/300/300 301/301/301
f 271/271/271 301/301/301 272/272/272
f 272/272/272 301/301/301 302/302/302
f 272/272/272 302/302/302 273/273/273
f 273/273/273 302/302/302 303/303/303
f 273/273/273 303/303/303 274/274/274
f 274/274/274 303/303/303 304/304/304
f 274/274/274 304/304/304 275/275/275
f 275/275/275 304/304/304 305/305/305
f 275/275/275 305/305/305 276/276/276
f 276/276/276 305/305/305 306/306/306
f 276/276/276 306/306/306 277/277/277
f 277/277/277 306/306/306 307/307/307
f 277/277/277 307/307/307 278/278/278
f 278/278/278 307/307/307 308/308/308
f 278/278/278 308/308/308 279/279/279
f 279/279/279 308/308/308 309/309/309
f 279/279/279 309/309/309 280/280/280
f 280/280/280 309/309/309 310/310/310
f 280/280/280 310/310/310 281/281/281
f 281/281/281 310/310/310 311/311/311
f 281/281/281 311/311/311 282/282/282
f 282/282/282 311/311/311 312/312/312
f 282/282/282 312/312/312 283/283/283
f 283/283/283 312/312/312 313/313/313
f 283/283/283 313/313/313 284/284/284
f 284/284/284 313/313/313 314/314/314
f 284/284/284 314/314/314 285/285/285
f 285/285/285 314/314/314 315/315/315
f 285/285/285 315/315/315 286/286/286
f 286/286/286 315/315/315 316/316/316
f 286/286/286 316/316/316 287/287/287
f 287/287/287 316/316/316 317/317/317
f 287/287/287 317/317/317 288/288/288
f 288/288/288 317/317/317 318/318/318
f 288/288/288 318/318/318 289/289/289
f 289/289/289 318/318/318 319/319/319
f 289/289/289 319/319/319 290/290/290
f 291/291/291 320/320/320 321/321/321
f 291/291/291 321/321/321 292/292/292
f 292/292/292 321/321/321 322/322/322
f 292/292/292 322/322/322 293/293/293
f 293/293/293 322/322/322 323/323/323
f 293/293/293 323/323/323 294/294/294
f 294/294/294 323/323/323 324/324/324
f 294/294/294 324/324/324 295/295/295
f 295/295/295 324/324/324 325/325/325
f 295/295/295 325/325/325 296/296/296
f 296/296/296 325/325/325 326/326/326
f 296/296/296 326/326/326 297/297/297
f 297/297/297 326/326/326 327/327/327
f 297/297/297 327/327/327 298/298/298
f 298/298/298 327/327/327 328/328/328
f 298/298/298 328/328/328 299/299/299
f 299/299/299 328/328/328 329/329/329
f 299/299/299 329/329/329 300/300/300
f 300/300/300 329/329/329 330/330/330
f 300/300/300 330/330/330 301/301/301
f 301/301/301 330/330/330 331/331/331
f 301/301/301 331/331/331 302/302/302
f 302/302/302 331/331/331 332/332/332
f 302/302/302 332/332/332 303/303/303
f 303/303/303 332/332/332 333/333/333
f 303/303/303 333/333/333 304/304/304
f 304/304/304 333/333/333 334/334/334
f 304/304/304 334/334/334 305/305/305
f 305/305/305 334/334/334 335/335/335
f 305/305/305 335/335/335 306/306/306
f 306/306/306 335/335/335 336/336/336
f 306/306/306 336/336/336 307/307/307
f 307/307/307 336/336/336 337/337/337
f 307/307/307 337/337/337 308/308/308
f 308/308/308 337/337/337 338/338/338
f 308/308/308 338/338/338 309/309/309
f 309/309/309 338/338/338 339/339/339
f 309/309/309 339/339/339 310/310/310
f 310/310/310 339/339/339 340/340/340
f 310/310/310 340/340/340 311/311/311
f 311/311/311 340/340/340 341/341/341
f 311/311/311 341/341/341 312/312/312
f 312/312/312 341/341/341 342/342/342
f 312/312/312 342/342/342 313/313/313
f 313/313/313 342/342/342 343/343/343
f 313/313/313 343/343/343 314/314/314
f 314/314/314 343/343/343 344/344/344
f 314/314/314 344/344/344 315/315/315
f 315/315/315 344/344/344 345/345/345
f 315/315/315 345/345/345 316/316/316
f 316/316/316 345/345/345 346/346/346
f 316/316/316 346/346/346 317/317/317
f 317/317/317 346/346/346 347/347/347
f 317/317/317 347/347/347 318/318/318
f 318/318/318 347/347/347 348/348/348
f 318/318/318 348/348/348 319/319/319
f 320/320/320 349/349/349 350/350/350
f 320/320/320 350/350/350 321/321/321
f 321/321/321 350/350/350 351/351/351
f 321/321/321 351/351/351 322/322/322
f 322/322/322 351/351/351 352/352/352
f 322/322/322 352/352/352 323/323/323
f 323/323/323 352/352/352 353/353/353
f 323/323/323 353/353/353 324/324/324
f 324/324/324 353/353/353 354/354/354
f 324/324/324 354/354/354 325/325/325
f 325/325/325 354/354/354 355/355/355
f 325/325/325 355/355/355 326/326/326
f 326/326/326 355/355/355 356/356/356
f 326/326/326 356/356/356 327/327/327
f 327/327/327 356/356/356 357/357/357
f 327/327/327 357/357/357 328/328/328
f 328/328/328 357/357/357 358/358/358
f 328/328/328 358/358/358 329/329/329
f 329/329/329 358/358/358 359/359/359
f 329/329/329 359/359/359 330/330/330
f 330/330/330 359/359/359 360/360/360
f 330/330/330 360/360/360 331/331/331
f 331/331/331 360/360/360 361/361/361
f 331/331/331 361/361/361 332/332/332
f 332/332/332 361/361/361 362/362/362
f 332/332/332 362/362/362 333/333/333
f 333/333/333 362/362/362 363/363/363
f 333/333/333 363/363/363 334/334/334
f 334/334/334 363/363/363 364/364/364
f 334/334/334 364/364/364 335/335/335
f 335/335/335 364/364/364 365/365/365
f 335/335/335 365/365/365 336/336/336
f 336/336/336 365/365/365 366/366/366
f 336/336/336 366/366/366 337/337/337
f 337/337/337 366/366/366 367/367/367
f 337/337/337 367/367/367 338/338/338
f 338/338/338 367/367/367 368/368/368
f 338/338/338 368/368/368 339/339/339
f 339/339/339 368/368/368 369/369/369
f 339/339/339 369/369/369 340/340/340
f 340/340/340 369/369/369 370/370/370
f 340/340/340 370/370/370 341/341/341
f 341/341/341 370/370/370 371/371/371
f 341/341/341 371/371/371 342/342/342
f 342/342/342 371/371/371 372/372/372
f 342/342/342 372/372/372 343/343/343
f 343/343/343 372/372/372 373/373/373
f 343/343/343 373/373/373 344/344/344
f 344/344/344 373/373/373 374/374/374
f 344/344/344 374/374/374 345/345/345
f 345/345/345 374/374/374 375/375/375
f 345/345/345 375/375/375 346/346/346
f 346/346/346 375/375/375 376/376/376
f 346/346/346 376/376/376 347/347/347
f 347/347/347 376/376/376 377/377/377
f 347/347/347 377/377/377 348/348/348
f 349/349/349 378/378/378 379/379/379
f 349/349/349 379/379/379 350/350/350
f 350/350/350 379/379/379 380/380/380
f 350/350/350 380/380/380 351/351/351
f 351/351/351 380/380/380 381/381/381
f 351/351/351 381/381/381 352/352/352
f 352/352/352 381/381/381 382/382/382
f 352/352/352 382/382/382 353/353/353
f 353/353/353 382/382/382 383/383/383
f 353/353/353 383/383/383 354/354/354
f 354/354/354 383/383/383 384/384/384
f 354/354/354 384/384/384 355/355/355
f 355/355/355 384/384/384 385/385/385
f 355/355/355 385/385/385 356/356/356
f 356/356/356 385/385/385 386/386/386
f 356/356/356 386/386/386 357/357/357
f 357/357/357 386/386/386 387/387/387
f 357/357/357 387/387/387 358/358/358
f 358/358/358 387/387/387 388/388/388
f 358/358/358 388/388/388 359/359/359
f 359/359/359 388/388/388 389/389/389
f 359/359/359 389/389/389 360/360/360
f 360/360/360 389/389/389 390/390/390
f 360/360/360 390/390/390 361/361/361
f 361/361/361 390/390/390 391/391/391
f 361/361/361 391/391/391 362/362/362
f 362/362/362 391/391/391 392/392/392
f 362/362/362 392/392/392 363/363/363
f 363/363/363 392/392/392 393/393/393
f 363/363/363 393/393/393 364/364/364
f 364/364/364 393/393/393 394/394/394
f 364/364/364 394/394/394 365/365/365
f 365/365/365 394/394/394 395/395/395
f 365/365/365 395/395/395 366/366/366
f 366/366/366 395/395/395 396/396/396
f 366/366/366 396/396/396 367/367/367
f 367/367/367 396/396/396 397/397/397
f 367/367/367 397/397/397 368/368/368
f 368/368/368 397/397/397 398/398/398
f 368/368/368 398/398/398 369/369/369
f 369/369/369 398/398/398 399/399/399
f 369/369/369 399/399/399 370/370/370
f 370/370/370 399/399/399 400/400/400
f 370/370/370 400/400/400 371/371/371
f 371/371/371 400/400/400 401/401/401
f 371/371/371 401/401/401 372/372/372
f 372/372/372 401/401/401 402/402/402
f 372/372/372 402/402/402 373/373/373
f 373/373/373 402/402/402 403/403/403
f 373/373/373 403/403/403 374/374/374
f 374/374/374 403/403/403 404/404/404
f 374/374/374 404/404/404 375/375/375
f 375/375/375 404/404/404 405/405/405
f 375/375/375 405/405/405 376/376/376
f 376/376/376 405/405/405 406/406/406
f 376/376/376 406/406/406 377/377/377
f 378/378/378 407/407/407 408/408/408
f 378/378/378 408/408/408 379/379/379
f 379/379/379 408/408/408 409/409/409
f 379/379/379 409/409/409 380/380/380
f 380/380/380 409/409/409 410/410/410
f 380/380/380 410/410/410 381/381/381
f 381/381/381 410/410/410 411/411/411
f 381/381/381 411/411/411 382/382/382
f 382/382/382 411/411/411 412/412/412
f 382/382/382 412/412/412 383/383/383
f 383/383/383 412/412/412 413/413/413
f 383/383/383 413/413/413 384/384/384
f 384/384/384 413/413/413 414/414/414
f 384/384/384 414/414/414 385/385/385
f 385/385/385 414/414/414 415/415/415
f 385/385/385 415/415/415 386/386/386
f 386/386/386 415/415/415 416/416/416
f 386/386/386 416/416/416 387/387/387
f 387/387/387 416/416/416 417/417/417
f 387/387/387 417/417/417 388/388/388
f 388/388/388 417/417/417 418/418/418
f 388/388/388 418/418/418 389/389/389
f 389/389/389 418/418/418 419/419/419
f 389/389/389 419/419/419 390/390/390
f 390/390/390 419/419/419 420/420/420
f 390/390/390 420/420/420 391/391/391
f 391/391/391 420/420/420 421/421/421
f 391/391/391 421/421/421 392/392/392
f 392/392/392 421/421/421 422/422/422
f 392/392/392 422/422/422 393/393/393
f 393/393/393 422/422/422 423/423/423
f 393/393/393 423/423/423 394/394/394
f 394/394/394 423/423/423 424/424/424
f 394/394/394 424/424/424 395/395/395
f 395/395/395 424/424/424 425/425/425
f 395/395/395 425/425/425 396/396/396
f 396/396/396 425/425/425 426/426/426
f 396/396/396 426/426/426 397/397/397
f 397/397/397 426/426/426 427/427/427
f 397/397/397 427/427/427 398/398/398
f 398/398/398 427/427/427 428/428/428
f 398/398/398 428/428/428 399/399/399
f 399/399/399 428/428/428 429/429/429
f 399/399/399 429/429/429 400/400/400
f 400/400/400 429/429/429 430/430/430
f 400/400/400 430/430/430 401/401/401
f 401/401/401 430/430/430 431/431/431
f 401/401/401 431/431/431 402/402/402
f 402/402/402 431/431/431 432/432/432
f 402/402/402 432/432/432 403/403/403
f 403/403/403 432/432/432 433/433/433
f 403/403/403 433/433/433 404/404/404
f 404/404/404 433/433/433 434/434/434
f 404/404/404 434/434/434 405/405/405
f 405/405/405 434/434/434 435/435/435
f 405/405/405 435/435/435 406/406/406
f 407/407/407 436/436/436 437/437/437
f 407/407/407 437/437/437 408/408/408
f 408/408/408 437/437/437 438/438/438
f 408/408/408 438/438/438 409/409/409
f 409/409/409 438/438/438 439/439/439
f 409/409/409 439/439/439 410/410/410
f 410/410/410 439/439/439 440/440/440
f 410/410/410 440/440/440 411/411/411
f 411/411/411 440/440/440 441/441/441
f 411/411/411 441/441/441 412/412/412
f 412/412/412 441/441/441 442/442/442
f 412/412/412 442/442/442 413/413/413
f 413/413/413 442/442/442 443/443/443
f 413/413/413 443/443/443 414/414/414
f 414/414/414 443/443/443 444/444/444
f 414/414/414 444/444/444 415/415/415
f 415/415/415 444/444/444 445/445/445
f 415/415/415 445/445/445 416/416/416
f 416/416/416 445/445/445 446/446/446
f 416/416/416 446/446/446 417/417/417
f 417/417/417 446/446/446 447/447/447
f 417/417/417 447/447/447 418/418/418
f 418/418/418 447/447/447 448/448/448
f 418/418/418 448/448/448 419/419/419
f 419/419/419 448/448/448 449/449/449
f 419/419/419 449/449/449 420/420/420
f 420/420/420 449/449/449 450/450/450
f 420/420/420 450/450/450 421/421/421
f 421/421/421 450/450/450 451/451/451
f 421/421/421 451/451/451 422/422/422
f 422/422/422 451/451/451 452/452/452
f 422/422/422 452/452/452 423/423/423
f 423/423/423 452/452/452 453/453/453
f 423/423/423 453/453/453 424/424/424
f 424/424/424 453/453/453 454/454/454
f 424/424/424 454/454/454 425/425/425
f 425/425/425 454/454/454 455/455/455
f 425/425/425 455/455/455 426/426/426
f 426/426/426 455/455/455 456/456/456
f 426/426/426 456/456/456 427/427/427
f 427/427/427 456/456/456 457/457/457
f 427/427/427 457/457/457 428/428/428
f 428/428/428 457/457/457 458/458/458
f 428/428/428 458/458/458 429/429/429
f 429/429/429 458/458/458 459/459/459
f 429/429/429 459/459/459 430/430/430
f 430/430/430 459/459/459 460/460/460
f 430/430/430 460/460/460 431/431/431
f 431/431/431 460/460/460 461/461/461
f 431/431/431 461/461/461 432/432/432
f 432/432/432 461/461/461 462/462/462
f 432/432/432 462/462/462 433/433/433
f 433/433/433 462/462/462 463/463/463
f 433/433/433 463/463/463 434/434/434
f 434/434/434 463/463/463 464/464/464
f 434/434/434 464/464/464 435/435/435
f 436/436/436 465/465/465 466/466/466
f 436/436/436 466/466/466 437/437/437
f 437/437/437 466/466/466 467/467/467
f 437/437/437 467/467/467 438/438/438
f 438/438/438 467/467/467 468/468/468
f 438/438/438 468/468/468 439/439/439
f 439/439/439 468/468/468 469/469/469
f 439/439/439 469/469/469 440/440/440
f 440/440/440 469/469/469 470/470/470
f 440/440/440 470/470/470 441/441/441
f 441/441/441 470/470/470 471/471/471
f 441/441/441 471/471/471 442/442/442
f 442/442/442 471/471/471 472/472/472
f 442/442/442 472/472/472 443/443/443
f 443/443/443 472/472/472 473/473/473
f 443/443/443 473/473/473 444/444/444
f 444/444/444 473/473/473 474/474/474
f 444/444/444 474/474/474 445/445/445
f 445/445/445 474/474/474 475/475/475
f 445/445/445 475/475/475 446/446/446
f 446/446/446 475/475/475 476/476/476
f 446/446/446 476/476/476 447/447/447
f 447/447/447 476/476/476 477/477/477
f 447/447/447 477/477/477 448/448/448
f 448/448/448 477/477/477 478/478/478
f 448/448/448 478/478/478 449/449/449
f 449/449/449 478/478/478 479/479/479
f 449/449/449 479/479/479 450/450/450
f 450/450/450 479/479/479 480/480/480
f 450/450/450 480/480/480 451/451/451
f 451/451/451 480/480/480 481/481/481
f 451/451/451 481/481/481 452/452/452
f 452/452/452 481/481/481 482/482/482
f 452/452/452 482/482/482 453/453/453
f 453/453/453 482/482/482 483/483/483
f 453/453/453 483/483/483 454/454/454
f 454/454/454 483/483/483 484/484/484
f 454/454/454 484/484/484 455/455/455
f 455/455/455 484/484/484 485/485/485
f 455/455/455 485/485/485 456/456/456
f 456/456/456 485/485/485 486/486/486
f 456/456/456 486/486/486 457/457/457
f 457/457/457 486/486/486 487/487/487
f 457/457/457 487/487/487 458/458/458
f 458/458/458 487/487/487 488/488/488
f 458/458/458 488/488/488 459/459/459
f 459/459/459 488/488/488 489/489/489
f 459/459/459 489/489/489 460/460/460
f 460/460/460 489/489/489 490/490/490
f 460/460/460 490/490/490 461/461/461
f 461/461/461 490/490/490 491/491/491
f 461/461/461 491/491/491 462/462/462
f 462/462/462 491/491/491 492/492/492
f 462/462/462 492/492/492 463/463/463
f 463/463/463 492/492/492 493/493/493
f 463/463/463 493/493/493 464/464/464
f 465/465/465 494/494/494 495/495/495
f 465/465/465 495/495/495 466/466/466
f 466/466/466 495/495/495 496/496/496
f 466/466/466 496/496/496 467/467/467
f 467/467/467 496/496/496 497/497/497
f 467/467/467 497/497/497 468/468/468
f 468/468/468 497/497/497 498/498/498
f 468/468/468 498/498/498 469/469/469
f 469/469/469 498/498/498 499/499/499
f 469/469/469 499/499/499 470/470/470
f 470/470/470 499/499/499 500/500/500
f 470/470/470 500/500/500 471/471/471
f 471/471/471 500/500/500 501/501/501
f 471/471/471 501/501/501 472/472/472
f 472/472/472 501/501/501 502/502/502
f 472/472/472 502/502/502 473/473/473
f 473/473/473 502/502/502 503/503/503
f 473/473/473 503/503/503 474/474/474
f 474/474/474 503/503/503 504/504/504
f 474/474/474 504/504/504 475/475/475
f 475/475/475 504/504/504 505/505/505
f 475/475/475 505/505/505 476/476/476
f 476/476/476 505/505/505 506/506/506
f 476/476/476 506/506/506 477/477/477
f 477/477/477 506/506/506 507/507/507
f 477/477/477 507/507/507 478/478/478
f 478/478/478 507/507/507 508/508/508
f 478/478/478 508/508/508 479/479/479
f 479/479/479 508/508/508 509/509/509
f 479/479/479 509/509/509 480/480/480
f 480/480/480 509/509/509 510/510/510
f 480/480/480 510/510/510 481/481/481
f 481/481/481 510/510/510 511/511/511
f 481/481/481 511/511/511 482/482/482
f 482/482/482 511/511/511 512/512/512
f 482/482/482 512/512/512 483/483/483
f 483/483/483 512/512/512 513/513/513
f 483/483/483 513/513/513 484/484/484
f 484/484/484 513/513/513 514/514/514
f 484/484/484 514/514/514 485/485/485
f 485/485/485 514/514/514 515/515/515
f 485/485/485 515/515/515 486/486/486
f 486/486/486 515/515/515 516/516/516
f 486/486/486 516/516/516 487/487/487
f 487/487/487 516/516/516 517/517/517
f 487/487/487 517/517/517 488/488/488
f 488/488/488 517/517/517 518/518/518
f 488/488/488 518/518/518 489/489/489
f 489/489/489 518/518/518 519/519/519
f 489/489/489 519/519/519 490/490/490
f 490/490/490 519/519/519 520/520/520
f 490/490/490 520/520/520 491/491/491
f 491/491/491 520/520/520 521/521/521
f 491/491/491 521/521/521 492/492/492
f 492/492/492 521/521/521 522/522/522
f 492/492/492 522/522/522 493/493/493
f 494/494/494 523/523/523 524/524/524
f 494/494/494 524/524/524 495/495/495
f 495/495/495 524/524/524 525/525/525
f 495/495/495 525/525/525 496/496/496
f 496/496/496 525/525/525 526/526/526
f 496/496/496 526/526/526 497/497/497
f 497/497/497 526/526/526 527/527/527
f 497/497/497 527/527/527 498/498/498
f 498/498/498 527/527/527 528/528/528
f 498/498/498 528/528/528 499/499/499
f 499/499/499 528/528/528 529/529/529
f 499/499/499 529/529/529 500/500/500
f 500/500/500 529/529/529 530/530/530
f 500/500/500 530/530/530 501/501/501
f 501/501/501 530/530/530 531/531/531
f 501/501/501 531/531/531 502/502/502
f 502/502/502 531/531/531 532/532/532
f 502/502/502 532/532/532 503/503/503
f 503/503/503 532/532/532 533/533/533
f 503/503/503 533/533/533 504/504/504
f 504/504/504 533/533/533 534/534/534
f 504/504/504 534/534/534 505/505/505
f 505/505/505 534/534/534 535/535/535
f 505/505/505 535/535/535 506/506/506
f 506/506/506 535/535/535 536/536/536
f 506/506/506 536/536/536 507/507/507
f 507/507/507 536/536/536 537/537/537
f 507/507/507 537/537/537 508/508/508
f 508/508/508 537/537/537 538/538/538
f 508/508/508 538/538/538 509/509/509
f 509/509/509 538/538/538 539/539/539
f 509/509/509 539/539/539 510/510/510
f 510/510/510 539/539/539 540/540/540
f 510/510/510 540/540/540 511/511/511
f 511/511/511 540/540/540 541/541/541
f 511/511/511 541/541/541 512/512/512
f 512/512/512 541/541/541 542/542/542
f 512/512/512 542/542/542 513/513/513
f 513/513/513 542/542/542 543/543/543
f 513/513/513 543/543/543 514/514/514
f 514/514/514 543/543/543 544/544/544
f 514/514/514 544/544/544 515/515/515
f 515/515/515 544/544/544 545/545/545
f 515/515/515 545/545/545 516/516/516
f 516/516/516 545/545/545 546/546/546
f 516/516/516 546/546/546 517/517/517
f 517/517/517 546/546/546 547/547/547
f 517/517/517 547/547/547 518/518/518
f 518/518/518 547/547/547 548/548/548
f 518/518/518 548/548/548 519/519/519
f 519/519/519 548/548/548 549/549/549
f 519/519/519 549/549/549 520/520/520
f 520/520/520 549/549/549 550/550/550
f 520/520/520 550/550/550 521/521/521
f 521/521/521 550/550/550 551/551/551
f 521/521/521 551/551/551 522/522/522
f 523/523/523 552/552/552 553/553/553
f 523/523/523 553/553/553 524/524/524
f 524/524/524 553/553/553 554/554/554
f 524/524/524 554/554/554 525/525/525
f 525/525/525 554/554/554 555/555/555
f 525/525/525 555/555/555 526/526/526
f 526/526/526 555/555/555 556/556/556
f 526/526/526 556/556/556 527/527/527
f 527/527/527 556/556/556 557/557/557
f 527/527/527 557/557/557 528/528/528
f 528/528/528 557/557/557 558/558/558
f 528/528/528 558/558/558 529/529/529
f 529/529/529 558/558/558 559/559/559
f 529/529/529 559/559/559 530/530/530
f 530/530/530 559/559/559 560/560/560
f 530/530/530 560/560/560 531/531/531
f 531/531/531 560/560/560 561/561/561
f 531/531/531 561/561/561 532/532/532
f 532/532/532 561/561/561 562/562/562
f 532/532/532 562/562/562 533/533/533
f 533/533/533 562/562/562 563/563/563
f 533/533/533 563/563/563 534/534/534
f 534/534/534 563/563/563 564/564/564
f 534/534/534 564/564/564 535/535/535
f 535/535/535 564/564/564 565/565/565
f 535/535/535 565/565/565 536/536/536
f 536/536/536 565/565/565 566/566/566
f 536/536/536 566/566/566 537/537/537
f 537/537/537 566/566/566 567/567/567
f 537/537/537 567/567/567 538/538/538
f 538/538/538 567/567/567 568/568/568
f 538/538/538 568/568/568 539/539/539
f 539/539/539 568/568/568 569/569/569
f 539/539/539 569/569/569 540/540/540
f 540/540/540 569/569/569 570/570/570
f 540/540/540 570/570/570 541/541/541
f 541/541/541 570/570/570 571/571/571
f 541/541/541 571/571/571 542/542/542
f 542/542/542 571/571/571 572/572/572
f 542/542/542 572/572/572 543/543/543
f 543/543/543 572/572/572 573/573/573
f 543/543/543 573/573/573 544/544/544
f 544/544/544 573/573/573 574/574/574
f 544/544/544 574/574/574 545/545/545
f 545/545/545 574/574/574 575/575/575
f 545/545/545 575/575/575 546/546/546
f 546/546/546 575/575/575 576/576/576
f 546/546/546 576/576/576 547/547/547
f 547/547/547 576/576/576 577/577/577
f 547/547/547 577/577/577 548/548/548
f 548/548/548 577/577/577 578/578/578
f 548/548/548 578/578/578 549/549/549
f 549/549/549 578/578/578 579/579/579
f 549/549/549 579/579/579 550/550/550
f 550/550/550 579/579/579 580/580/580
f 550/550/550 580/580/580 551/551/551
f 552/552/552 581/581/581 582/582/582
f 552/552/552 582/582/582 553/553/553
f 553/553/553 582/582/582 583/583/583
f 553/553/553 583/583/583 554/554/554
f 554/554/554 583/583/583 584/584/584
f 554/554/554 584/584/584 555/555/555
f 555/555/555 584/584/584 585/585/585
f 555/555/555 585/585/585 556/556/556
f 556/556/556 585/585/585 586/586/586
f 556/556/556 586/586/586 557/557/557
f 557/557/557 586/586/586 587/587/587
f 557/557/557 587/587/587 558/558/558
f 558/558/558 587/587/587 588/588/588
f 558/558/558 588/588/588 559/559/559
f 559/559/559 588/588/588 589/589/589
f 559/559/559 589/589/589 560/560/560
f 560/560/560 589/589/589 590/590/590
f 560/560/560 590/590/590 561/561/561
f 561/561/561 590/590/590 591/591/591
f 561/561/561 591/591/591 562/562/562
f 562/562/562 591/591/591 592/592/592
f 562/562/562 592/592/592 563/563/563
f 563/563/563 592/592/592 593/593/593
f 563/563/563 593/593/593 564/564/564
f 564/564/564 593/593/593 594/594/594
f 564/564/564 594/594/594 565/565/565
f 565/565/565 594/594/594 595/595/595
f 565/565/565 595/595/595 566/566/566
f 566/566/566 595/595/595 596/596/596
f 566/566/566 596/596/596 567/567/567
f 567/567/567 596/596/596 597/597/597
f 567/567/567 597/597/597 568/568/568
f 568/568/568 597/597/597 598/598/598
f 568/568/568 598/598/598 569/569/569
f 569/569/569 598/598/598 599/599/599
f 569/569/569 599/599/599 570/570/570
f 570/570/570 599/599/599 600/600/600
f 570/570/570 600/600/600 571/571/571
f 571/571/571 600/600/600 601/601/601
f 571/571/571 601/601/601 572/572/572
f 572/572/572 601/601/601 602/602/602
f 572/572/572 602/602/602 573/573/573
f 573/573/573 602/602/602 603/603/603
f 573/573/573 603/603/603 574/574/574
f 574/574/574 603/603/603 604/604/604
f 574/574/574 604/604/604 575/575/575
f 575/575/575 604/604/604 605/605/605
f 575/575/575 605/605/605 576/576/576
f 576/576/576 605/605/605 606/606/606
f 576/576/576 606/606/606 577/577/577
f 577/577/577 606/606/606 607/607/607
f 577/577/577 607/607/607 578/578/578
f 578/578/578 607/607/607 608/608/608
f 578/578/578 608/608/608 579/579/579
f 579/579/579 608/608/608 609/609/609
f 579/579/579 609/609/609 580/580/580
